<?xml version="1.0" standalone="no"?>
<!DOCTYPE svg PUBLIC "-//W3C//DTD SVG 20010904//EN"
 "http://www.w3.org/TR/2001/REC-SVG-20010904/DTD/svg10.dtd">
<svg version="1.0" xmlns="http://www.w3.org/2000/svg"
 width="666.000000pt" height="375.000000pt" viewBox="0 0 666.000000 375.000000"
 preserveAspectRatio="xMidYMid meet">
<metadata>
Created by potrace 1.16, written by Peter Selinger 2001-2019
</metadata>
<g transform="translate(0.000000,375.000000) scale(0.100000,-0.100000)"
fill="#000000" stroke="none">
<path d="M4585 3225 c-120 -17 -117 -16 -229 -50 -49 -14 -130 -46 -180 -70
-88 -42 -417 -252 -431 -276 -4 -6 23 10 61 35 38 25 74 46 81 46 7 0 13 3 13
8 0 9 100 55 107 49 2 -3 -4 -8 -15 -11 -11 -4 -23 -13 -25 -20 -5 -11 1 -12
26 -5 40 11 40 11 31 -3 -4 -8 -3 -10 2 -5 5 5 7 10 4 11 -3 2 2 11 10 21 14
17 13 18 -5 11 -14 -5 -17 -4 -9 4 15 15 45 1 42 -19 -2 -9 3 -15 11 -13 8 2
17 -2 21 -9 5 -7 10 -8 14 -1 3 6 -3 13 -14 17 -22 7 -27 21 -7 23 6 0 23 4
37 7 19 5 22 4 10 -4 -13 -9 -13 -11 3 -11 19 0 23 -15 7 -25 -8 -5 -7 -12 1
-22 10 -12 10 -16 -2 -24 -8 -5 -20 -9 -27 -9 -23 0 -73 -41 -65 -52 4 -7 0
-9 -10 -5 -11 4 -17 1 -17 -7 0 -8 -10 -16 -22 -20 -33 -8 -40 -7 -32 5 4 7 1
10 -6 7 -7 -2 -17 -14 -21 -26 -8 -20 -6 -22 18 -16 26 7 26 7 7 -13 -13 -14
-23 -17 -31 -10 -7 5 -13 6 -14 1 0 -5 -2 -17 -4 -26 -4 -23 20 -23 37 0 21
30 37 35 30 10 -3 -14 -1 -19 6 -14 8 4 10 2 6 -7 -3 -9 -13 -13 -25 -10 -10
3 -19 1 -19 -5 0 -6 -10 -13 -22 -15 -21 -4 -21 -4 2 -4 44 -1 50 -3 50 -13 0
-5 -9 -10 -19 -10 -10 0 -21 -7 -25 -15 -3 -8 -11 -14 -18 -13 -9 2 -14 -11
-15 -42 -2 -66 -2 -66 -14 -50 -7 11 -8 5 -3 -23 4 -24 2 -43 -6 -52 -13 -16
-35 -10 -24 6 3 5 10 7 15 4 5 -3 6 1 3 9 -5 12 -8 12 -25 -2 -23 -20 -24 -32
-4 -32 8 0 15 -6 15 -12 1 -9 4 -8 13 2 19 23 45 21 39 -3 -3 -14 -1 -18 9
-15 22 7 22 41 -1 66 -17 17 -18 22 -5 22 8 0 15 4 15 9 0 9 11 9 73 -5 21 -4
27 -2 27 11 0 13 6 16 27 12 27 -5 27 -4 8 10 -19 15 -19 15 10 9 24 -5 27 -4
14 6 -15 10 -13 14 13 36 l30 25 -29 12 -28 12 33 5 c24 3 32 1 32 -11 0 -13
1 -13 13 1 14 17 52 33 42 18 -3 -6 3 -10 14 -10 11 0 24 6 28 14 11 18 59 26
55 8 -1 -7 5 -15 13 -17 49 -16 48 -15 35 -31 -7 -8 -18 -13 -25 -10 -14 5
-16 -24 -3 -41 7 -8 2 -20 -16 -36 -18 -16 -26 -35 -26 -56 0 -18 4 -30 10
-26 5 3 7 12 3 20 -9 25 13 17 24 -8 9 -20 7 -29 -10 -49 -12 -14 -35 -29 -51
-32 -15 -4 -26 -10 -22 -13 3 -3 0 -13 -7 -21 -10 -13 -9 -14 2 -7 11 6 13 4
8 -11 -7 -18 -6 -18 7 -1 11 14 15 15 19 5 4 -10 9 -9 20 5 8 9 21 17 29 17 9
0 15 -8 14 -17 0 -10 5 -17 12 -16 6 2 12 -2 12 -7 0 -6 -5 -10 -12 -10 -19 0
1 -14 25 -17 12 -2 17 0 11 4 -6 5 -14 18 -18 31 -7 20 -5 22 28 20 41 -3 42
-5 20 -29 -16 -18 -11 -44 7 -34 11 7 12 -15 1 -33 -11 -17 -45 -4 -38 15 4
10 1 11 -13 4 -31 -17 -87 0 -75 22 4 8 2 7 -7 -1 -9 -8 -10 -15 -4 -20 16
-11 16 -32 0 -32 -8 0 -15 -4 -15 -10 0 -6 -9 -6 -26 0 -22 9 -25 8 -20 -5 3
-8 2 -15 -3 -15 -4 0 -7 -10 -6 -22 1 -13 -2 -29 -8 -35 -6 -9 -5 -13 3 -13 8
0 10 -3 7 -7 -4 -3 -2 -12 4 -20 7 -7 9 -26 5 -43 -5 -29 -4 -30 20 -24 24 6
25 5 15 -15 -7 -11 -22 -22 -34 -22 -46 -3 -92 2 -95 12 -2 5 -8 9 -14 9 -7 0
-6 -5 1 -14 7 -9 8 -17 2 -20 -5 -3 -15 7 -22 23 -7 16 -16 28 -20 25 -7 -4 3
-28 25 -63 7 -11 10 -11 17 0 8 12 11 11 19 -1 7 -11 5 -16 -5 -18 -16 -4 -21
-42 -5 -42 5 0 13 7 18 16 6 11 11 13 16 5 10 -16 26 -14 26 5 0 8 5 12 11 9
7 -5 4 -14 -7 -26 -9 -10 -13 -19 -9 -19 5 0 4 -5 -3 -12 -14 -14 -16 -32 -2
-23 5 3 16 -9 24 -27 8 -18 15 -27 15 -20 1 16 31 48 31 33 0 -14 46 -7 66 10
10 8 14 8 14 0 0 -6 5 -11 12 -11 6 0 3 9 -7 20 -10 11 -16 20 -14 21 2 0 24
3 48 6 34 4 42 2 39 -8 -5 -16 15 -39 33 -39 7 0 10 -3 6 -6 -3 -4 0 -13 8
-21 12 -12 13 -19 3 -36 -11 -19 -13 -20 -16 -4 -2 9 -8 17 -13 17 -14 0 -11
-9 11 -38 23 -28 14 -42 -27 -42 -12 0 -25 -4 -28 -10 -3 -6 1 -7 9 -4 11 4
16 0 16 -15 0 -29 14 -26 29 6 10 22 14 24 22 12 15 -23 10 -48 -11 -59 -14
-7 -20 -7 -20 0 0 5 -9 10 -20 10 -26 0 -25 -6 5 -35 16 -14 22 -26 15 -30 -5
-3 -10 -14 -10 -25 0 -11 -11 -22 -31 -29 -38 -13 -52 -6 -39 20 9 16 7 19 -9
19 -11 0 -23 -4 -26 -10 -3 -5 0 -7 8 -4 10 4 14 -3 13 -25 -1 -22 -6 -31 -18
-31 -10 0 -18 -4 -18 -10 0 -5 5 -10 11 -10 5 0 8 -4 5 -9 -4 -5 -2 -20 3 -33
5 -15 6 -30 0 -39 -7 -11 -9 -10 -9 4 0 10 -4 15 -10 12 -5 -3 -7 0 -5 7 10
25 -35 18 -47 -7 -10 -22 -38 -36 -81 -41 -12 -1 -22 8 -28 24 -7 19 -13 22
-21 14 -9 -9 -4 -17 16 -33 21 -17 27 -28 23 -48 -4 -18 1 -31 16 -45 l22 -19
-25 7 c-53 15 -70 16 -70 6 0 -10 14 -14 39 -10 13 1 31 -17 31 -32 0 -5 -7
-8 -17 -8 -15 0 -15 -2 0 -17 12 -15 13 -21 3 -35 -11 -16 -45 -20 -56 -7 -3
4 -16 10 -29 14 -17 5 -22 4 -16 -5 4 -7 1 -16 -6 -22 -10 -6 -6 -7 11 -3 21
6 23 5 12 -6 -18 -19 -35 -18 -50 3 -23 31 -59 21 -53 -14 0 -5 -4 -8 -9 -8
-6 0 -20 -11 -32 -25 -24 -28 -58 -33 -58 -10 0 8 -4 15 -10 15 -15 0 -12 -16
6 -35 13 -12 13 -19 4 -30 -6 -8 -9 -18 -6 -24 3 -5 -2 -8 -11 -6 -10 1 -17 7
-16 12 1 5 -7 10 -18 10 -24 2 -24 -6 -1 -24 9 -8 12 -12 6 -9 -7 3 -17 -1
-24 -9 -11 -13 -8 -14 19 -11 18 2 30 1 27 -2 -3 -2 10 -24 29 -47 19 -23 31
-46 27 -50 -4 -5 -2 -5 5 -1 6 3 13 1 16 -6 2 -7 2 -1 0 13 -2 15 2 31 12 39
13 10 15 9 15 -6 0 -11 4 -15 8 -9 4 6 16 17 26 25 19 15 19 14 2 -12 -11 -17
-13 -28 -7 -33 10 -6 15 1 12 18 0 4 3 7 9 7 5 0 10 -6 10 -13 0 -9 14 -14 42
-15 63 -3 78 -11 85 -43 6 -31 21 -37 41 -17 9 9 12 8 12 -5 0 -10 -8 -17 -21
-17 -11 0 -17 -5 -14 -10 4 -6 12 -7 22 -1 9 4 24 6 34 4 22 -6 27 22 7 30 -8
3 -6 6 5 6 19 1 24 31 5 31 -6 0 -9 3 -6 6 10 9 48 -15 44 -29 -1 -6 -1 -9 1
-4 3 4 10 4 16 0 7 -4 8 0 3 13 -4 10 -8 21 -9 24 -1 3 2 6 7 7 5 1 13 7 17
15 6 9 9 5 9 -14 0 -15 5 -30 10 -33 9 -6 14 8 11 28 -1 5 3 6 9 2 6 -4 7 -12
1 -24 -6 -10 -7 -27 -4 -39 4 -16 1 -22 -11 -22 -19 0 -21 -11 -4 -28 9 -9 7
-13 -6 -18 -11 -4 -22 -1 -27 7 -8 12 -10 12 -18 -1 -12 -18 5 -41 25 -33 8 3
14 -1 14 -11 0 -9 5 -16 10 -16 18 0 11 -40 -7 -41 -18 -1 -17 -1 26 -15 10
-3 11 -7 1 -19 -7 -8 -16 -13 -20 -10 -4 3 -14 -3 -21 -12 -10 -12 -10 -14 -1
-9 6 4 12 2 12 -3 0 -6 -5 -11 -11 -11 -8 0 -7 -6 2 -17 13 -15 11 -16 -21
-10 -18 4 -37 11 -40 17 -3 5 -21 8 -39 8 l-34 -1 22 -19 c18 -14 20 -18 7
-18 -16 0 -18 -5 -20 -45 -1 -12 -9 -21 -22 -23 -16 -2 -20 -8 -17 -23 4 -15
0 -19 -20 -19 -14 0 -28 4 -31 8 -3 5 4 8 16 8 24 -1 34 30 12 38 -8 3 -14 1
-14 -4 0 -6 -9 -10 -21 -10 -11 0 -17 4 -14 10 3 5 -2 11 -12 12 -33 2 -38 3
-50 11 -7 5 -17 6 -22 3 -5 -4 -12 -1 -14 4 -3 6 -4 5 -2 -2 1 -7 8 -12 14
-10 6 1 11 -5 11 -14 0 -11 -6 -14 -17 -10 -13 4 -11 0 6 -14 l23 -20 -26 0
c-16 0 -26 5 -26 15 0 8 -7 15 -15 15 -8 0 -15 4 -15 8 0 4 -11 9 -25 10 -13
1 -28 2 -32 3 -4 1 -21 0 -38 -1 -21 -2 -24 -4 -11 -7 19 -5 99 -83 85 -83 -4
0 -10 4 -14 9 -3 5 -28 23 -56 41 -28 17 -48 27 -45 22 10 -17 170 -119 272
-175 55 -30 138 -82 184 -116 46 -33 97 -63 114 -65 280 -42 399 -45 566 -12
178 35 406 130 574 241 297 196 534 515 635 853 54 183 65 260 66 462 0 202
-7 250 -62 450 -89 322 -341 670 -623 859 -300 201 -620 287 -915 246z m-251
-2107 c-4 -7 4 -8 25 -3 26 5 30 4 25 -9 -3 -9 -14 -16 -23 -17 -15 0 -15 -1
1 -7 14 -6 15 -10 3 -25 -9 -13 -21 -16 -45 -12 -20 4 -29 2 -25 -5 3 -5 15
-10 26 -10 20 0 22 -7 23 -71 1 -29 -2 -35 -16 -31 -10 2 -18 8 -18 13 0 5 -7
9 -15 9 -8 0 -15 -4 -15 -8 0 -4 -9 -8 -21 -9 -16 -2 -20 3 -16 17 3 11 0 21
-7 24 -7 3 -4 11 9 21 15 12 17 18 8 23 -10 6 -8 17 6 45 17 33 17 37 2 37
-14 0 -14 2 -1 10 8 5 25 10 38 10 12 0 22 5 22 11 0 5 5 7 10 4 6 -4 7 -11 4
-17z"/>
</g>
</svg>
