<?xml version="1.0" standalone="yes"?>
<svg xmlns="http://www.w3.org/2000/svg" width="600" height="338">
<path style="fill:#070809; stroke:none;" d="M0 0L0 338L600 338L600 0L0 0z"/>
<path style="fill:#434c57; stroke:none;" d="M215 17L215 18L219 18L215 17M235 17L236 18L235 17M237 17L237 18L253 19L237 17M207 18L207 19L210 19L207 18M211 18L212 19L211 18M200 19L200 20L203 20L200 19M204 19L205 20L204 19M255.667 19.3333L256.333 19.6667L255.667 19.3333z"/>
<path style="fill:#7a8191; stroke:none;" d="M257 19L258 20L257 19z"/>
<path style="fill:#434c57; stroke:none;" d="M191 21L191 22L199 21L191 21M260 20L260 21L267 22L267 21L260 20M182 24L182 25L190 23L182 24M268 22L268 23L271 23L268 22M272 23L272 24L293 31L293 30L272 23M179.667 25.3333L180.333 25.6667L179.667 25.3333M176.667 26.3333L177.333 26.6667L176.667 26.3333M173 27L174 28L173 27M171 28L172 29L171 28M169 29L170 30L169 29M165 31L166 32L165 31z"/>
<path style="fill:#7a8191; stroke:none;" d="M292.667 31.3333L293.333 31.6667L292.667 31.3333z"/>
<path style="fill:#434c57; stroke:none;" d="M161 34L164 33L161 34M293 32L293 33L296 33L293 32M296 33L296 34L300 35L300 34L296 33M159 34L158 36L159 34M300.667 35.3333L301.333 35.6667L300.667 35.3333M155 36L156 37L155 36M302 36L302 37L308 40L308 41L303 40L302 45L303 45L306 42C306.405 44.9158 308.308 44.4673 311 44L303 49L314 50L314 51L308 50L310 53L305 53L305 54L313 55L313 56L311 57C312.948 62.6784 308.568 62.7965 304 62L299 72L305 71L308 73L306 76L309 72L316 77L318 76L311 79L308 81L308 80C310.305 78.7269 308.941 78.0262 307 77L307 85L308 85L308 82L314 83L314 84L310 84L306 87C307.022 90.3449 306.591 91.6658 304 94L304 95L307 95L307 96L303 96L303 97L307 97L308 101L302 100L304 102L304 103L301 103L301 104L308 104L309 105L306 116L305 117L302 116L304 111L301 115L298 115L300 113L299 107L298 107L297 115L294 112L293 112L291 117L296 117L294 120L299 116C297.943 119.492 296.582 120.432 293 121L293 122L300 123L300 124L297 130L291 137L294 133L288 138L289 135C282.747 139.83 289.466 147.837 293 152L289 151L286 158L282 155L284 152L284 151L282 147L285 144L279 149L280 151L273 163L274 163L276 161L274 167L277 168L274 169L276 173L284 170L284 171L276 175L276 182L275 179C273.09 179.579 271.666 179.985 274 181L266 193L261 195L263 194L261 200L258 201L257 214L250 215L245 228L245 229L248 233L246 232C249.21 237.386 253.062 226.418 257 231L259 223L262 224C254.077 235.355 252.316 246.548 249 260L248 260C248.733 257.15 249.911 253.527 247 252L246 238L245 238L246 242C241.902 244.922 242.238 249.385 243 254L242 254L241 249L240 249L242 256L241 261L245 258L246 258L242 262L242 266L236 264L237 270L235 270L235 272L239 273L239 274L235 276L235 277L240 280L239 285L236 284L233 289L229 287L230 284L223 288L222 288L217 292L220 294L219 298L223 298L214 302L215 305L213 307L209 306L206 312L249 313L249 312L246 312L246 311L256 312L256 311L253 311L253 310L274 303L278 302L279 296L279 297L277 298C278.888 299.062 281.078 300.852 281 298L284 299L281 295L288 294L289 286L290 286L297 290L297 289L291 284L294 286L295 286L298 281L299 281L299 284L300 284C299.714 276.368 301.128 269.315 307 264L309 268L307 263L311 265L309 263L309 259L312 262L319 244L320 244L320 248L321 248L324 243C320.919 243 321.671 239.547 322 237L323 237L326 241L324 236L325 236L326 238L329 236L328 232L331 233L334 224L333 224L330 232L326 229L329 227L328 224L329 224L331 227L332 222L335 223L336 218L335 218L335 222L334 222L335 209C339.605 204.928 338.679 198.761 340.828 193.718C343.626 187.151 347.331 186.712 346 179L348 181L350 176L348 170C350.748 167.909 350.388 165.98 349 163L352 164L351 161L356 159L356 158L352 159L357 156L357 153L361 152L358 153L360 150L352 153L352 149L356 142L355 145L361 145L357 141L361 142L360 139L358 141L357 137L355 135L359 135L360 131L357 130L360 128L360 127L355 127L360 120L358 114C360.301 111.973 359.26 110.617 357 109L357 108L361 109L360 103L359 103L359 106L358 106L360 100L357 101L359 97L355 98L355 97C359.466 94.5728 350.488 83.4701 350 79L349 79L348 81C343.968 64.2687 318.071 41.1213 302 36M153 37L150 39L150 40L154 38L153 37M293 38L294 39L293 38M148 40L142 46L148 40M289 42L290 43L289 42M293.667 42.3333L294.333 42.6667L293.667 42.3333z"/>
<path style="fill:#070809; stroke:none;" d="M307 43L307 44L311 43L311 46L315 46L307 43z"/>
<path style="fill:#7a8191; stroke:none;" d="M141 45L142 46L141 45z"/>
<path style="fill:#434c57; stroke:none;" d="M295 45L296 46L295 45M300 45L301 46L300 45M140 46L141 47L140 46M138.667 47.3333L139.333 47.6667L138.667 47.3333M300.667 47.3333L301.333 47.6667L300.667 47.3333z"/>
<path style="fill:#070809; stroke:none;" d="M310 47L311 48L310 47M317 47L318 48L317 47z"/>
<path style="fill:#434c57; stroke:none;" d="M137 48L138 49L137 48z"/>
<path style="fill:#070809; stroke:none;" d="M314 48L315 49L314 48z"/>
<path style="fill:#434c57; stroke:none;" d="M136 49L137 50L136 49M132 53L136 50L132 53M302.667 50.3333L303.333 50.6667L302.667 50.3333z"/>
<path style="fill:#070809; stroke:none;" d="M315.333 50.6667L315.667 51.3333L315.333 50.6667z"/>
<path style="fill:#434c57; stroke:none;" d="M300 51L299 55L300 55L300 51z"/>
<path style="fill:#070809; stroke:none;" d="M317 51L316 54L312 53L312 54L315 57L316 57L317 51z"/>
<path style="fill:#434c57; stroke:none;" d="M131 53L130 55L132 55L131 53M296 53L295 57L296 57L296 53M302 53L303 54L302 53z"/>
<path style="fill:#070809; stroke:none;" d="M310 53L311 54L310 53z"/>
<path style="fill:#434c57; stroke:none;" d="M129 55L130 56L129 55M301 55L303 57L303 55L301 55M305.333 55.6667L305.667 56.3333L305.333 55.6667M307 55L307 61L308 61C309.265 58.0848 309.574 56.9783 307 55z"/>
<path style="fill:#070809; stroke:none;" d="M318 55L322 58L318 55z"/>
<path style="fill:#434c57; stroke:none;" d="M128 56L129 57L128 56M280 56L281 57L280 56z"/>
<path style="fill:#070809; stroke:none;" d="M313 56L314 57L313 56M323.667 56.3333L324.333 56.6667L323.667 56.3333z"/>
<path style="fill:#434c57; stroke:none;" d="M127 57L128 58L127 57M126 58L127 59L126 58M125 59L126 60L125 59z"/>
<path style="fill:#070809; stroke:none;" d="M317.333 59.6667L317.667 60.3333L317.333 59.6667M320 59L320 61L322 61L320 59M323 59L324 60L323 59z"/>
<path style="fill:#434c57; stroke:none;" d="M124 60L125 61L124 60M296 60L295 62L296 60M310.667 60.3333L311.333 60.6667L310.667 60.3333z"/>
<path style="fill:#070809; stroke:none;" d="M314 60L312 65L305 64L306 72L308 68L309 68L308 72L311 68L318 65L318 70L319 70L321 63L314 64L314 60z"/>
<path style="fill:#434c57; stroke:none;" d="M123 61L124 62L123 61M291 61L292 62L291 61z"/>
<path style="fill:#070809; stroke:none;" d="M325 61L325 62L328 63L325 61z"/>
<path style="fill:#434c57; stroke:none;" d="M122 62L123 63L122 62M121 63L122 64L121 63M289 63L290 64L289 63M301 63L300 65L301 63M120 64L121 65L120 64M287 64L288 65L287 64M318 64L319 65L318 64M119 65L120 66L119 65M313.667 65.3333L314.333 65.6667L313.667 65.3333M118 66L119 67L118 66M117 67L118 68L117 67z"/>
<path style="fill:#070809; stroke:none;" d="M327 67L328 68L327 67z"/>
<path style="fill:#434c57; stroke:none;" d="M116 68L115 70L117 70L116 68z"/>
<path style="fill:#070809; stroke:none;" d="M314 69L315 70L314 69z"/>
<path style="fill:#7a8191; stroke:none;" d="M342 70L343 71L342 70z"/>
<path style="fill:#434c57; stroke:none;" d="M114 71L107 81L114 71z"/>
<path style="fill:#070809; stroke:none;" d="M315 74L319 77L320 77L318 71L315 74z"/>
<path style="fill:#7a8191; stroke:none;" d="M343.333 71.6667L343.667 72.3333L343.333 71.6667z"/>
<path style="fill:#070809; stroke:none;" d="M322 72L326 76L326 75L322 72z"/>
<path style="fill:#434c57; stroke:none;" d="M304 73L305 74L304 73M311 74L309 77L313 78L311 74M272 75L273 76L272 75z"/>
<path style="fill:#7a8191; stroke:none;" d="M346 75L347 76L346 75z"/>
<path style="fill:#434c57; stroke:none;" d="M304 76L305 77L304 76z"/>
<path style="fill:#070809; stroke:none;" d="M311 76L312 77L311 76M321 76L322 77L321 76M327 76L328 77L327 76z"/>
<path style="fill:#7a8191; stroke:none;" d="M347 76L348 81L349 81L347 76z"/>
<path style="fill:#070809; stroke:none;" d="M323.333 77.6667L323.667 78.3333L323.333 77.6667M338 77L339 78L338 77z"/>
<path style="fill:#7a8191; stroke:none;" d="M342.333 77.6667L342.667 78.3333L342.333 77.6667z"/>
<path style="fill:#070809; stroke:none;" d="M317 79L314 83L320 80L317 79M328 80L329 81L328 80z"/>
<path style="fill:#434c57; stroke:none;" d="M297 81L298 82L297 81z"/>
<path style="fill:#070809; stroke:none;" d="M321.667 81.3333L322.333 81.6667L321.667 81.3333z"/>
<path style="fill:#7a8191; stroke:none;" d="M350 81L355 97L355 98L359 97L357 101L360 100L358 106L359 106L359 103L360 103L361 109L357 108L357 109L358 114L360 120L355 127L360 127L360 128L357 130L360 131L359 135L355 135L355 138L357 137C355.924 139.69 357.722 141.848 360 139L361 142L357 141L361 145L355 145L356 142L352 149L352 153L360 150L358 153L361 152L357 153L357 156L352 159L356 158L356 159L351 161L352 163L352 164L349 163L351 165L348 170L350 176L348 181L346 179L340.686 193.015L335 209L334 222L335 222L335 218L336 218L332 222L331 227L329 224L328 224L329 227L326 229L330 232L333 224L334 224L331 233L328 232L329 236L325 236L324 236L326 241L323 237L322 237C321.659 239.617 321.095 242.538 324 243L321 248L320 248L320 244L319 244L312 262L309 259L311 265L307 263L309 268L307 264C300.384 268.077 299.403 276.837 300 284L299 284L299 281L298 281L295 286L294 286L291 284L297 289L297 290L290 286L289 286L288 294L281 295L284 299L281 298L281 300L279 297L279 296C275.186 296.821 276.664 299.068 278 302L274 303L253 310L253 311C259.385 310.722 272.995 309.284 277 304L282 302L287 300L290 301C290 298.205 291.48 298.735 294 299L293 297L296 298L295 296L298 297C298 293.969 300.277 293.928 303 294L305 291L304 289L309 288L310 285C314.244 284.357 316.523 281.999 318 278L321 275L325 274L324 272L339 257L336 259L339 256L338 253L356 224L355 227L356 227L361 217L360 211C364.79 208.43 366.228 203.152 367 198L366 198L366 200L365 200C367.143 191.39 372.732 184.264 370 175L374 161L371 154L374 149L374 148C370.913 143.088 369.771 128.67 371 123L369 124L369 123L370 121L370 120C367.564 120 368.385 119.214 369 117L367 118L367 117C367.574 113.374 367.189 111.01 364 109C365 100.478 355.952 86.7667 350 81z"/>
<path style="fill:#434c57; stroke:none;" d="M106 82L102 89L103 89L106 82M262 82L263 83L262 82z"/>
<path style="fill:#070809; stroke:none;" d="M318 82L317 84L318 82z"/>
<path style="fill:#434c57; stroke:none;" d="M301 83L302 84L301 83M304 83L304 88L305 88L306 83L304 83z"/>
<path style="fill:#070809; stroke:none;" d="M326 83L327 84L326 83M328 83L329 84L328 83M319.667 84.3333L320.333 84.6667L319.667 84.3333z"/>
<path style="fill:#434c57; stroke:none;" d="M298 85L298 86L302 87L302 86L298 85z"/>
<path style="fill:#070809; stroke:none;" d="M313 85L311 86L311 87L313 85z"/>
<path style="fill:#434c57; stroke:none;" d="M261 86L262 87L261 86M281 86L282 87L281 86z"/>
<path style="fill:#070809; stroke:none;" d="M315 86L314 89L315 90L321 87L315 86z"/>
<path style="fill:#7a8191; stroke:none;" d="M348 86L349 87L348 86z"/>
<path style="fill:#434c57; stroke:none;" d="M296 88L295 90L296 88M299 88L300 89L299 88z"/>
<path style="fill:#070809; stroke:none;" d="M309 89L309 90L313 89L309 89z"/>
<path style="fill:#434c57; stroke:none;" d="M315 88L316 89L315 88M278.667 89.3333L279.333 89.6667L278.667 89.3333M101 90L102 91L101 90z"/>
<path style="fill:#7a8191; stroke:none;" d="M353 90L354 91L353 90z"/>
<path style="fill:#434c57; stroke:none;" d="M288 95L288 96L292 96L296 91L288 95M297 91L294 100L295 100C295.653 98.0399 296 97.446 296 100L297 100L297 94L299 91L297 91z"/>
<path style="fill:#070809; stroke:none;" d="M312 91L313 92L312 91M316 91L315 94L316 91z"/>
<path style="fill:#434c57; stroke:none;" d="M100 92L98 96L99 96L100 92M303 92L304 93L303 92z"/>
<path style="fill:#070809; stroke:none;" d="M313 93L309 98L312 97L313 93M319 93L320 94L319 93z"/>
<path style="fill:#7a8191; stroke:none;" d="M354 93L356 95L354 93z"/>
<path style="fill:#434c57; stroke:none;" d="M283 94L284 95L283 94M294 94L295 95L294 94M302 95L303 96L302 95z"/>
<path style="fill:#070809; stroke:none;" d="M314.333 95.6667L314.667 96.3333L314.333 95.6667M316 95L317 96L316 95z"/>
<path style="fill:#434c57; stroke:none;" d="M359 95L360 96L359 95z"/>
<path style="fill:#7a8191; stroke:none;" d="M348 96L349 97L348 96z"/>
<path style="fill:#434c57; stroke:none;" d="M97 97L98 98L97 97M263 97L264 98L263 97M287 99L287 100L292 99L287 99M304 98L305 99L304 98z"/>
<path style="fill:#070809; stroke:none;" d="M317 98L316 102L317 102L317 98z"/>
<path style="fill:#434c57; stroke:none;" d="M96 99L97 100L96 99z"/>
<path style="fill:#070809; stroke:none;" d="M310 99L312 101L312 99L310 99M313 99L311 102L311 103L313 99z"/>
<path style="fill:#434c57; stroke:none;" d="M361 99L362 100L361 99M95 101L96 102L95 101z"/>
<path style="fill:#7a8191; stroke:none;" d="M355.333 101.667L355.667 102.333L355.333 101.667z"/>
<path style="fill:#434c57; stroke:none;" d="M362 101L363 102L362 101M281 102L282 103L281 102M294 102C291.6 104.812 289.401 107.687 294 109L294 108L294 102M296 102L295 107L299 104L301 111L306 107L306 106L302 109L301 109C300.499 105.293 299.643 103.215 296 102z"/>
<path style="fill:#070809; stroke:none;" d="M305 102L305 103L308 103L305 102z"/>
<path style="fill:#434c57; stroke:none;" d="M94 103L92 109L93 109L94 103M277 103L278 104L277 103z"/>
<path style="fill:#070809; stroke:none;" d="M315 103L316 104L315 103M320 103L318 106L320 103z"/>
<path style="fill:#434c57; stroke:none;" d="M363 103L364 104L363 103M280 104L281 105L280 104z"/>
<path style="fill:#070809; stroke:none;" d="M322 104L323 105L322 104z"/>
<path style="fill:#434c57; stroke:none;" d="M287 105L289 107L287 105z"/>
<path style="fill:#7a8191; stroke:none;" d="M352.333 105.667L352.667 106.333L352.333 105.667z"/>
<path style="fill:#434c57; stroke:none;" d="M364 105L365 106L364 105M276.667 106.333L277.333 106.667L276.667 106.333z"/>
<path style="fill:#070809; stroke:none;" d="M311 107L311 109L313 109L313 107L311 107z"/>
<path style="fill:#434c57; stroke:none;" d="M365.333 107.667L365.667 108.333L365.333 107.667M287.333 108.667L287.667 109.333L287.333 108.667M289.333 108.667L289.667 109.333L289.333 108.667z"/>
<path style="fill:#070809; stroke:none;" d="M314 108L315 109L314 108M331 108L332 109L331 108z"/>
<path style="fill:#b7b5c1; stroke:none;" d="M364 108L365 109L364 108z"/>
<path style="fill:#434c57; stroke:none;" d="M251 109L252 110L251 109M91 110L89 117L90 117L91 110M276 111L277 112L276 111M290 111L291 112L290 111z"/>
<path style="fill:#b7b5c1; stroke:none;" d="M365 111L366 112L365 111z"/>
<path style="fill:#070809; stroke:none;" d="M306 112L307 113L306 112M309 112L308 115L309 115L309 112M311 112L312 113L311 112M312 115L316 113L312 115z"/>
<path style="fill:#7a8191; stroke:none;" d="M351 112L352 113L351 112M354 112L354 114L356 112L354 112M357 112L358 113L357 112z"/>
<path style="fill:#434c57; stroke:none;" d="M367.333 112.667L367.667 113.333L367.333 112.667z"/>
<path style="fill:#070809; stroke:none;" d="M317.667 113.333L318.333 113.667L317.667 113.333z"/>
<path style="fill:#434c57; stroke:none;" d="M269.333 114.667L269.667 115.333L269.333 114.667M283 114L283 117L284 117L283 114M288 114L289 115L288 114z"/>
<path style="fill:#b7b5c1; stroke:none;" d="M366 114L367 115L366 114z"/>
<path style="fill:#070809; stroke:none;" d="M310 115L309 119L310 119L310 115z"/>
<path style="fill:#434c57; stroke:none;" d="M368.333 115.667L368.667 116.333L368.333 115.667M273.333 116.667L273.667 117.333L273.333 116.667z"/>
<path style="fill:#7a8191; stroke:none;" d="M356.333 116.667L356.667 117.333L356.333 116.667z"/>
<path style="fill:#b7b5c1; stroke:none;" d="M367.333 116.667L367.667 117.333L367.333 116.667z"/>
<path style="fill:#434c57; stroke:none;" d="M288 119L291 118L288 119z"/>
<path style="fill:#070809; stroke:none;" d="M301.333 117.667L301.667 118.333L301.333 117.667M306 117L308 119L308 117L306 117M312 117L313 118L312 117M315 117L316 118L315 117z"/>
<path style="fill:#434c57; stroke:none;" d="M88.3333 118.667L88.6667 119.333L88.3333 118.667M281.333 118.667L281.667 119.333L281.333 118.667M285 118L283 123C286.065 121.982 286.886 120.761 285 118M292.333 118.667L292.667 119.333L292.333 118.667z"/>
<path style="fill:#070809; stroke:none;" d="M318 118L317 121L318 118z"/>
<path style="fill:#b7b5c1; stroke:none;" d="M368 118L368 121L369 121L368 118z"/>
<path style="fill:#434c57; stroke:none;" d="M369.333 118.667L369.667 119.333L369.333 118.667M274 119L275 120L274 119z"/>
<path style="fill:#070809; stroke:none;" d="M305 119L306 120L305 119M311 119L310 121L311 119z"/>
<path style="fill:#7a8191; stroke:none;" d="M356 119L357 120L356 119z"/>
<path style="fill:#434c57; stroke:none;" d="M258 120L259 121L258 120M279 120L278 124L279 120M288 121L288 122L292 123L291 120L288 121z"/>
<path style="fill:#070809; stroke:none;" d="M307 120L309 124L309 120L307 120z"/>
<path style="fill:#7a8191; stroke:none;" d="M353 120L356 122L356 121L353 120z"/>
<path style="fill:#434c57; stroke:none;" d="M87.3333 121.667L87.6667 122.333L87.3333 121.667M271 121L271 124L272 124L271 121z"/>
<path style="fill:#070809; stroke:none;" d="M303 123L306 121L303 123z"/>
<path style="fill:#434c57; stroke:none;" d="M370.333 121.667L370.667 122.333L370.333 121.667z"/>
<path style="fill:#070809; stroke:none;" d="M301 122L301 126L302 126L301 122M310 122L310 126L311 126L312 122L310 122z"/>
<path style="fill:#b7b5c1; stroke:none;" d="M369.333 122.667L369.667 123.333L369.333 122.667z"/>
<path style="fill:#434c57; stroke:none;" d="M293 123L294 124L293 123M295 123L292 129L295 123z"/>
<path style="fill:#7a8191; stroke:none;" d="M354 123L355 124L354 123z"/>
<path style="fill:#434c57; stroke:none;" d="M86 124L84 136L85 136L86 124M276 124L275 132L280 126L276 124M289 124L292 127L289 124z"/>
<path style="fill:#070809; stroke:none;" d="M314 124L315 125L314 124M316 124L317 125L316 124M322 124L323 125L322 124z"/>
<path style="fill:#434c57; stroke:none;" d="M359 124L360 125L359 124z"/>
<path style="fill:#b7b5c1; stroke:none;" d="M370 124L374 148L374 149L371 154L374 161L370 175L365 200L366 200L366 198L367 198L360 211L361 217C356.973 217.547 356.464 223.395 356 227L355 227L356 224L349.295 237.196L338 253L339 256L336 259L339 257L324 272L325 274L321 275L318 278L310 285L309 288L304 289L305 291L302 292L302 293L323 280L334 267L335 266L337 267L340 260L343 260L344 255L347 255L350 251L350 248L348 249L354 245L354 244L351 244L354 242L358 238L356 234L359 236L357 234L357 233L358 230L363 228L369 205L370 207L371 207L373 187L374 187L374 189L375 189L374 179L375 179L375 181L376 181C372.555 162.441 379.46 141.664 370 124z"/>
<path style="fill:#434c57; stroke:none;" d="M371 124L371 127L372 127L371 124M248 125L248 127L250 125L248 125M255.333 125.667L255.667 126.333L255.333 125.667M273.333 125.667L273.667 126.333L273.333 125.667M285 125L286 126L285 125M270.667 126.333L271.333 126.667L270.667 126.333M287 128L290 128L289 126L287 128z"/>
<path style="fill:#070809; stroke:none;" d="M298 126L300 129L298 126z"/>
<path style="fill:#434c57; stroke:none;" d="M265 127L264 129L265 127z"/>
<path style="fill:#7a8191; stroke:none;" d="M352 127L353 128L352 127z"/>
<path style="fill:#434c57; stroke:none;" d="M363 127L364 128L363 127z"/>
<path style="fill:#7a8191; stroke:none;" d="M371 127L372 128L371 127z"/>
<path style="fill:#434c57; stroke:none;" d="M255.667 128.333L256.333 128.667L255.667 128.333z"/>
<path style="fill:#070809; stroke:none;" d="M277 128L278 129L277 128z"/>
<path style="fill:#434c57; stroke:none;" d="M286 128L287 129L286 128z"/>
<path style="fill:#070809; stroke:none;" d="M302 128L298 130L298 131C300.538 130.915 302.087 130.745 302 128M307 128L308 129L307 128M309 128L310 129L309 128z"/>
<path style="fill:#7a8191; stroke:none;" d="M355 128L352 132L352 133L353 135L354 135L355 128z"/>
<path style="fill:#434c57; stroke:none;" d="M372 128L372 131L373 131L372 128M268 129L269 130L268 129M271 129L270 133L274 132L271 129M287 129L287 132L288 132L287 129M363.333 129.667L363.667 130.333L363.333 129.667z"/>
<path style="fill:#070809; stroke:none;" d="M304 130L304 132L306 132L306 130L304 130z"/>
<path style="fill:#434c57; stroke:none;" d="M292 131L293 132L292 131z"/>
<path style="fill:#7a8191; stroke:none;" d="M356 131L355 134L358 132L356 131M372 131L373 132L372 131z"/>
<path style="fill:#434c57; stroke:none;" d="M265.333 132.667L265.667 133.333L265.333 132.667M373 132L373 135L374 135L373 132M275 133L275 135L277 135L277 133L275 133M281 133L282 134L281 133M288 133L289 134L288 133M269 134L268 140L263 144L270 141L269 134M284 134L284 137L285 137L284 134z"/>
<path style="fill:#070809; stroke:none;" d="M296 134L296 135L296 140L301 136L301 135L296 134z"/>
<path style="fill:#7a8191; stroke:none;" d="M351 134L352 135L351 134z"/>
<path style="fill:#434c57; stroke:none;" d="M256 135L257 136L256 135M265 135L263 139L265 135z"/>
<path style="fill:#7a8191; stroke:none;" d="M373 135L374 136L373 135M83 136L84 137L83 136z"/>
<path style="fill:#434c57; stroke:none;" d="M276 136L277 137L276 136z"/>
<path style="fill:#070809; stroke:none;" d="M305 136L303 140L304 140L305 138L307 140L305 136z"/>
<path style="fill:#434c57; stroke:none;" d="M358 136L359 137L358 136M83 137L83 141L84 141L83 137M253 137L254 138L253 137M280.333 137.667L280.667 138.333L280.333 137.667z"/>
<path style="fill:#070809; stroke:none;" d="M293 137L293 141L294 141L296 137L293 137z"/>
<path style="fill:#434c57; stroke:none;" d="M360 137L361 138L360 137M362 137L363 138L362 137M374 137L374 140L375 140L374 137M272 138L273 139L272 138z"/>
<path style="fill:#070809; stroke:none;" d="M287 138L289 142L290 141L287 138M300 138L299 142L295 144L296 144L297 142L298 145L299 145L298 143L301 144L300 141L300 138z"/>
<path style="fill:#7a8191; stroke:none;" d="M353.667 138.333L354.333 138.667L353.667 138.333z"/>
<path style="fill:#434c57; stroke:none;" d="M241 139L242 140L241 139M277.667 139.333L278.333 139.667L277.667 139.333M283 139L284 142L285 142L285 139L283 139z"/>
<path style="fill:#070809; stroke:none;" d="M291 139L290 148L294 147L291 139z"/>
<path style="fill:#434c57; stroke:none;" d="M248 140L247 142L248 140M262 140L263 141L262 140M275.333 140.667L275.667 141.333L275.333 140.667z"/>
<path style="fill:#7a8191; stroke:none;" d="M351 140L352 141L351 140M355 140L356 141L355 140M374.333 140.667L374.667 141.333L374.333 140.667z"/>
<path style="fill:#434c57; stroke:none;" d="M82 141L81 150L82 150L82 141M240 141L241 142L240 141M281 141L283 143L283 141L281 141z"/>
<path style="fill:#070809; stroke:none;" d="M305 142L306 143L305 142z"/>
<path style="fill:#434c57; stroke:none;" d="M375 142L375 147L376 147L375 142M246 143L247 144L246 143M267 143L266 149L267 149L270 143L267 143M271 143L272 144L271 143M279 143L280 147L281 144L279 143M286 143L287 144L286 143z"/>
<path style="fill:#070809; stroke:none;" d="M303.333 143.667L303.667 144.333L303.333 143.667M268 144L269 145L268 144z"/>
<path style="fill:#434c57; stroke:none;" d="M275.667 144.333L276.333 144.667L275.667 144.333z"/>
<path style="fill:#070809; stroke:none;" d="M288 144L289 145L288 144z"/>
<path style="fill:#434c57; stroke:none;" d="M362 144L362 147L363 147L362 144M273 145L274 146L273 145M364 145L365 146L364 145z"/>
<path style="fill:#070809; stroke:none;" d="M295 148L298 146L295 148M307 146L308 147L307 146z"/>
<path style="fill:#d7d6e0; stroke:none;" d="M374 146L375 147L374 146z"/>
<path style="fill:#434c57; stroke:none;" d="M274 147L275 148L274 147M355 147L356 148L355 147M357 147L358 148L357 147z"/>
<path style="fill:#7a8191; stroke:none;" d="M375.333 147.667L375.667 148.333L375.333 147.667M81 148L82 149L81 148z"/>
<path style="fill:#434c57; stroke:none;" d="M284 148L284 150L286 150L286 148L284 148M287 148L288 149L287 148z"/>
<path style="fill:#070809; stroke:none;" d="M293 148L294 149L293 148M299 148L300 149L299 148M301.333 148.667L301.667 149.333L301.333 148.667z"/>
<path style="fill:#434c57; stroke:none;" d="M271.333 149.667L271.667 150.333L271.333 149.667M276.667 149.333L277.333 149.667L276.667 149.333z"/>
<path style="fill:#070809; stroke:none;" d="M295 149L296 150L295 149z"/>
<path style="fill:#434c57; stroke:none;" d="M361 149L361 151L363 149L361 149z"/>
<path style="fill:#7a8191; stroke:none;" d="M81 150L81 154L82 154L81 150M349 150L350 151L349 150z"/>
<path style="fill:#434c57; stroke:none;" d="M287 151L288 152L287 151z"/>
<path style="fill:#070809; stroke:none;" d="M299 153L302 152L299 153z"/>
<path style="fill:#434c57; stroke:none;" d="M364 151L363 153L364 151M258 152L259 153L258 152M264 152L265 153L264 152M284.667 152.333L285.333 152.667L284.667 152.333M376 152L376 158L377 158L376 152M81 154L81 180L82 180L81 154z"/>
<path style="fill:#070809; stroke:none;" d="M295.333 154.667L295.667 155.333L295.333 154.667M304.333 154.667L304.667 155.333L304.333 154.667z"/>
<path style="fill:#434c57; stroke:none;" d="M270 155L268 161L269 161L270 155M272.333 155.667L272.667 156.333L272.333 155.667z"/>
<path style="fill:#070809; stroke:none;" d="M288 157L291 156L288 157M300 155L300 157L302 155L300 155M280 156L281 157L280 156M293 156L293 160L294 160L293 156M298 156L299 157L298 156z"/>
<path style="fill:#d7d6e0; stroke:none;" d="M375 156L375 162L376 162L375 156z"/>
<path style="fill:#434c57; stroke:none;" d="M265.333 157.667L265.667 158.333L265.333 157.667z"/>
<path style="fill:#070809; stroke:none;" d="M304 157L301 161L305 160L305 164L306 164L305 161L307 161L304 157M277 158L276 161L279 168L283 169L283 168L282 165L284 167L284 162L279 164L277 158M282 161L285 158L282 161M289 158L289 163L290 163L292 158L291 158L289 158z"/>
<path style="fill:#7a8191; stroke:none;" d="M376 158L376 171L377 171L376 158M80 159L80 162L81 162L80 159z"/>
<path style="fill:#434c57; stroke:none;" d="M262 159L262 164L263 164L264 159L262 159z"/>
<path style="fill:#070809; stroke:none;" d="M295 162L299 161L295 162z"/>
<path style="fill:#434c57; stroke:none;" d="M253.333 160.667L253.667 161.333L253.333 160.667M260 160L261 161L260 160z"/>
<path style="fill:#070809; stroke:none;" d="M286 160L289 165L286 160z"/>
<path style="fill:#7a8191; stroke:none;" d="M349 160L350 161L349 160z"/>
<path style="fill:#b7b5c1; stroke:none;" d="M371 160L372 161L371 160z"/>
<path style="fill:#434c57; stroke:none;" d="M249 164L252 161L249 164M266 161L266 164L267 164L266 161M270 162L271 163L270 162z"/>
<path style="fill:#070809; stroke:none;" d="M309 162L310 163L309 162z"/>
<path style="fill:#434c57; stroke:none;" d="M354 162L355 163L354 162M232.333 163.667L232.667 164.333L232.333 163.667M264 163L265 164L264 163M268 163L268 166L269 166L268 163z"/>
<path style="fill:#b7b5c1; stroke:none;" d="M370 163L371 164L370 163z"/>
<path style="fill:#d7d6e0; stroke:none;" d="M375.333 163.667L375.667 164.333L375.333 163.667z"/>
<path style="fill:#434c57; stroke:none;" d="M272 164L270 165L270 166L272 164z"/>
<path style="fill:#070809; stroke:none;" d="M294 164L294 165L298 166L298 165L298 164L294 164z"/>
<path style="fill:#434c57; stroke:none;" d="M251 165L248 176L249 176L248 173L253 173L253 165L251 165z"/>
<path style="fill:#070809; stroke:none;" d="M276 165L276 167L278 165L276 165M291 165L292 166L291 165M305 165L304 167L305 165z"/>
<path style="fill:#434c57; stroke:none;" d="M266 166L267 167L266 166M353 166L352 172L353 172L356 166L353 166z"/>
<path style="fill:#d7d6e0; stroke:none;" d="M375 166L375 179L376 179L375 166z"/>
<path style="fill:#434c57; stroke:none;" d="M246 167L247 168L246 167M254 167L256 173L257 168L254 167M270 167L265 176L271 171L269 175L273 171L270 167z"/>
<path style="fill:#070809; stroke:none;" d="M287 167L288 168L287 167M290 167L291 168L290 167M296 167L297 168L296 167M301 167L299 168L299 169L301 167M313.333 167.667L313.667 168.333L313.333 167.667z"/>
<path style="fill:#434c57; stroke:none;" d="M264 168L265 169L264 168M267 168L268 169L267 168z"/>
<path style="fill:#7a8191; stroke:none;" d="M354 168L355 169L354 168z"/>
<path style="fill:#070809; stroke:none;" d="M278 169L279 170L278 169M296 169L297 170L296 169z"/>
<path style="fill:#434c57; stroke:none;" d="M265.667 170.333L266.333 170.667L265.667 170.333M357 170L356 172L357 170M261.333 171.667L261.667 172.333L261.333 171.667z"/>
<path style="fill:#070809; stroke:none;" d="M294 171L294 173L296 173L296 171L294 171M300.333 171.667L300.667 172.333L300.333 171.667z"/>
<path style="fill:#7a8191; stroke:none;" d="M347 171L348 172L347 171z"/>
<path style="fill:#434c57; stroke:none;" d="M376 171L377 172L376 171z"/>
<path style="fill:#070809; stroke:none;" d="M287 172L288 173L287 172M298 172L299 173L298 172z"/>
<path style="fill:#7a8191; stroke:none;" d="M376.333 172.667L376.667 173.333L376.333 172.667z"/>
<path style="fill:#434c57; stroke:none;" d="M221.667 173.333L222.333 173.667L221.667 173.333M226 173L225 176L226 173M264 173L265 174L264 173M252 174L253 175L252 174M256 174L256 176L258 176L256 174z"/>
<path style="fill:#070809; stroke:none;" d="M282.667 174.333L283.333 174.667L282.667 174.333z"/>
<path style="fill:#7a8191; stroke:none;" d="M346.333 174.667L346.667 175.333L346.333 174.667z"/>
<path style="fill:#434c57; stroke:none;" d="M376 174L376 178L377 178L376 174z"/>
<path style="fill:#070809; stroke:none;" d="M290 175L291 176L290 175M303 175L302 177L303 175z"/>
<path style="fill:#7a8191; stroke:none;" d="M343 175L344 176L343 175z"/>
<path style="fill:#434c57; stroke:none;" d="M252 176L252 181L253 181L252 176z"/>
<path style="fill:#070809; stroke:none;" d="M278.333 176.667L278.667 177.333L278.333 176.667M280 179L285 177L280 179M287 176L287 179L288 179L289 176L287 176M294 176L295 177L294 176z"/>
<path style="fill:#434c57; stroke:none;" d="M248 177L248 179L250 179L250 177L248 177M255 177L255 180L256 180L257 177L255 177M272.667 177.333L273.333 177.667L272.667 177.333M221 178L222 179L221 178M270 179L267 185C269.654 183.378 271.013 182.116 270 179z"/>
<path style="fill:#070809; stroke:none;" d="M278 179L278 184L279 185L279 186L282 187L279 195L284 190L282 191L282 190L283 186L284 186L284 188L285 188L283 181L282 181L283 186L282 186L278 179M289 179L290 180L289 179z"/>
<path style="fill:#d7d6e0; stroke:none;" d="M374 179L374 186L375 186L374 179z"/>
<path style="fill:#7a8191; stroke:none;" d="M81.3333 180.667L81.6667 181.333L81.3333 180.667z"/>
<path style="fill:#434c57; stroke:none;" d="M222.333 180.667L222.667 181.333L222.333 180.667z"/>
<path style="fill:#070809; stroke:none;" d="M293 180L294 181L293 180M300 180L301 181L300 180M305 180L306 181L305 180z"/>
<path style="fill:#434c57; stroke:none;" d="M218 181L220 184L218 181M246 181L246 183L248 183L246 181M250 181L250 184L251 184L250 181z"/>
<path style="fill:#070809; stroke:none;" d="M291 181L292 182L291 181z"/>
<path style="fill:#7a8191; stroke:none;" d="M375 181L375 184L376 184L375 181z"/>
<path style="fill:#434c57; stroke:none;" d="M81 182L82 183L81 182M259 182L256 183L255 184L256 187L252 185L256 192L255 189L257 185L258 185L259 189L260 189L259 182M261 185L265 185L262 182L261 185M82 183L82 188L83 188L82 183z"/>
<path style="fill:#070809; stroke:none;" d="M287 185L290 183L287 185z"/>
<path style="fill:#7a8191; stroke:none;" d="M344 183L344 186L345 186L344 183z"/>
<path style="fill:#434c57; stroke:none;" d="M240 184L241 185L240 184z"/>
<path style="fill:#070809; stroke:none;" d="M256 184L257 185L256 184M274 184L275 187L278 186L278 185L274 184M285 184L286 185L285 184M293 184L294 185L293 184z"/>
<path style="fill:#7a8191; stroke:none;" d="M337 184L338 185L337 184M339.667 184.333L340.333 184.667L339.667 184.333z"/>
<path style="fill:#434c57; stroke:none;" d="M375.333 184.667L375.667 185.333L375.333 184.667z"/>
<path style="fill:#070809; stroke:none;" d="M298.667 185.333L299.333 185.667L298.667 185.333z"/>
<path style="fill:#434c57; stroke:none;" d="M262 187L261 192L262 192L262 187M264 187L264 190L265 190L264 187z"/>
<path style="fill:#070809; stroke:none;" d="M269 187L271 191L268 190L272 197L274 187L272 189L271 189L269 187M296 187L297 188L296 187z"/>
<path style="fill:#7a8191; stroke:none;" d="M341 187L337 195L338 195L341 187z"/>
<path style="fill:#d7d6e0; stroke:none;" d="M373 187L370 205L371 205L373 187z"/>
<path style="fill:#7a8191; stroke:none;" d="M82.3333 188.667L82.6667 189.333L82.3333 188.667z"/>
<path style="fill:#434c57; stroke:none;" d="M248 188L248 198L249 198L251 191L248 188z"/>
<path style="fill:#070809; stroke:none;" d="M253.667 188.333L254.333 188.667L253.667 188.333M275 188L278 190L275 188M288.333 188.667L288.667 189.333L288.333 188.667z"/>
<path style="fill:#7a8191; stroke:none;" d="M337.333 188.667L337.667 189.333L337.333 188.667M374 189L375 190L374 189z"/>
<path style="fill:#434c57; stroke:none;" d="M83 190L83 195L84 195L83 190M258 190L256 197L257 197L258 190M374.333 190.667L374.667 191.333L374.333 190.667M207 191L208 192L207 191M264 191L265 192L264 191z"/>
<path style="fill:#070809; stroke:none;" d="M276 191L272 192L273 199C275.997 197.111 277.04 194.435 276 191z"/>
<path style="fill:#434c57; stroke:none;" d="M344 191L345 192L344 191M221 192L222 193L221 192M243.667 192.333L244.333 192.667L243.667 192.333M252 192L253 193L252 192M241.333 193.667L241.667 194.333L241.333 193.667M254 193L255 194L254 193z"/>
<path style="fill:#070809; stroke:none;" d="M263 193L264 194L263 193M285 193L285 195L287 193L285 193z"/>
<path style="fill:#b7b5c1; stroke:none;" d="M373 193L374 194L373 193z"/>
<path style="fill:#434c57; stroke:none;" d="M218 194L219 195L218 194M252.333 194.667L252.667 195.333L252.333 194.667M259 194L258 198L259 198L259 194z"/>
<path style="fill:#070809; stroke:none;" d="M266 194L264 197L265 201L261 200L261 205L262 205L267 201L266 206L263 205L264 210L263 210L262 207L261 207L258 216C253.698 215.75 250.972 217.119 249 221L252 222L253 217L254 217L253 222L254 222L260 216L256 228L257 228L259 220L261 222L266 216L262 224L264 223L262 225L262 226L265 227L262 228L262 229L265 230L268 229L269 225L267 225L269 221L268 221L265 224L264 221L266 219L270 220L268 216L271 217L272 214L273 214L273 223L274 223L276 202L275 202L273 206L274 212L271 211L269 216L270 213L266 213L261 218L262 214L262 210L263 213L268 211L266 207L269 200L271 201L271 200L271 199L267 199L269 197L269 196L266 194M289.667 194.333L290.333 194.667L289.667 194.333z"/>
<path style="fill:#434c57; stroke:none;" d="M341.333 194.667L341.667 195.333L341.333 194.667z"/>
<path style="fill:#7a8191; stroke:none;" d="M373.333 194.667L373.667 195.333L373.333 194.667z"/>
<path style="fill:#434c57; stroke:none;" d="M214 195L216 198L216 195L214 195M84.3333 196.667L84.6667 197.333L84.3333 196.667M200 196L201 199L202 199L200 196z"/>
<path style="fill:#070809; stroke:none;" d="M280 196L278 203L278 208L280 207L280 208L280 214L282 214L283 211L280 205L281 205L282 209L283 209L284 201L280 203L280 196M287 196L284 198L286 202L287 201L285 200L287 196z"/>
<path style="fill:#7a8191; stroke:none;" d="M335 196L336 203L337 203L339 199L335 196M337 196L339 198L339 196L337 196z"/>
<path style="fill:#434c57; stroke:none;" d="M373 196L374 197L373 196M243 197L240 202L245 197L243 197M266 197L267 198L266 197z"/>
<path style="fill:#7a8191; stroke:none;" d="M84 198L85 199L84 198z"/>
<path style="fill:#434c57; stroke:none;" d="M218 198L219 199L218 198M252 198L250 202L253 204L254 204L252 198z"/>
<path style="fill:#070809; stroke:none;" d="M289 198L290 199L289 198z"/>
<path style="fill:#b7b5c1; stroke:none;" d="M372 198L373 199L372 198z"/>
<path style="fill:#434c57; stroke:none;" d="M248 199L249 200L248 199M257 199L258 200L257 199M342 199L343 200L342 199z"/>
<path style="fill:#7a8191; stroke:none;" d="M372 199L373 200L372 199z"/>
<path style="fill:#434c57; stroke:none;" d="M85 200L85 203L86 203L85 200z"/>
<path style="fill:#070809; stroke:none;" d="M272 200L270 206L272 200M277 200L278 201L277 200M288 200L289 201L288 200z"/>
<path style="fill:#434c57; stroke:none;" d="M372 200L373 201L372 200M340 202L339 205L340 202z"/>
<path style="fill:#b7b5c1; stroke:none;" d="M371 202L372 203L371 202z"/>
<path style="fill:#434c57; stroke:none;" d="M213 203L214 204L213 203M282 203L282 205L284 203L282 203z"/>
<path style="fill:#7a8191; stroke:none;" d="M371 203L372 204L371 203z"/>
<path style="fill:#434c57; stroke:none;" d="M86.3333 204.667L86.6667 205.333L86.3333 204.667M256 204L258 206L258 204L256 204M371 204L372 205L371 204M207 205L208 206L207 205M267 205L268 206L267 205z"/>
<path style="fill:#d7d6e0; stroke:none;" d="M369 205L362 227L363 227C365.345 220.953 371.287 211.447 369 205z"/>
<path style="fill:#7a8191; stroke:none;" d="M86 206L87 207L86 206z"/>
<path style="fill:#434c57; stroke:none;" d="M245.333 206.667L245.667 207.333L245.333 206.667M252 206L257 208L257 207L252 206z"/>
<path style="fill:#7a8191; stroke:none;" d="M333 206L334 207L333 206z"/>
<path style="fill:#434c57; stroke:none;" d="M240 207L241 208L240 207z"/>
<path style="fill:#b7b5c1; stroke:none;" d="M362 207L363 208L362 207z"/>
<path style="fill:#7a8191; stroke:none;" d="M370 207L371 208L370 207z"/>
<path style="fill:#434c57; stroke:none;" d="M87.3333 208.667L87.6667 209.333L87.3333 208.667M248 208L249 209L248 208z"/>
<path style="fill:#070809; stroke:none;" d="M269 208L270 209L269 208z"/>
<path style="fill:#434c57; stroke:none;" d="M340 208L341 209L340 208M370 208L371 209L370 208M245 209L246 210L245 209z"/>
<path style="fill:#b7b5c1; stroke:none;" d="M369 209L370 210L369 209z"/>
<path style="fill:#434c57; stroke:none;" d="M253 210L253 212L255 212L253 210M337 210L338 211L337 210z"/>
<path style="fill:#7a8191; stroke:none;" d="M369 210L370 211L369 210z"/>
<path style="fill:#434c57; stroke:none;" d="M88.3333 211.667L88.6667 212.333L88.3333 211.667M264 211L265 212L264 211M369 211L370 212L369 211z"/>
<path style="fill:#b7b5c1; stroke:none;" d="M368 212L369 213L368 212z"/>
<path style="fill:#434c57; stroke:none;" d="M337 213L335 217L337 218L338 218L337 213z"/>
<path style="fill:#7a8191; stroke:none;" d="M368 213L369 214L368 213z"/>
<path style="fill:#434c57; stroke:none;" d="M89.3333 214.667L89.6667 215.333L89.3333 214.667M368 214L369 215L368 214M240.333 215.667L240.667 216.333L240.333 215.667M266.667 215.333L267.333 215.667L266.667 215.333z"/>
<path style="fill:#070809; stroke:none;" d="M277 215L278 216L277 215z"/>
<path style="fill:#b7b5c1; stroke:none;" d="M367 215L368 216L367 215z"/>
<path style="fill:#434c57; stroke:none;" d="M199 216L200 217L199 216M248 216L249 217L248 216M255 216L256 217L255 216z"/>
<path style="fill:#070809; stroke:none;" d="M285 216L286 217L285 216z"/>
<path style="fill:#7a8191; stroke:none;" d="M331.333 216.667L331.667 217.333L331.333 216.667M367 216L368 217L367 216z"/>
<path style="fill:#434c57; stroke:none;" d="M90.3333 217.667L90.6667 218.333L90.3333 217.667z"/>
<path style="fill:#070809; stroke:none;" d="M282 217L283 218L282 217z"/>
<path style="fill:#434c57; stroke:none;" d="M339 217L340 218L339 217M240 218L242 230L243 230L245 226L242 223L247 222L247 221L241 221L242 219L240 218M260 218L261 219L260 218z"/>
<path style="fill:#070809; stroke:none;" d="M286.333 218.667L286.667 219.333L286.333 218.667z"/>
<path style="fill:#b7b5c1; stroke:none;" d="M366 218L367 219L366 218z"/>
<path style="fill:#434c57; stroke:none;" d="M232 219L233 225L234 225L232 219M366 219L367 220L366 219M91 220L92 221L91 220z"/>
<path style="fill:#070809; stroke:none;" d="M280 220L281 221L280 220z"/>
<path style="fill:#7a8191; stroke:none;" d="M330 220L329 223L330 220z"/>
<path style="fill:#b7b5c1; stroke:none;" d="M365 220L366 221L365 220z"/>
<path style="fill:#070809; stroke:none;" d="M282 221L283 222L282 221z"/>
<path style="fill:#7a8191; stroke:none;" d="M365 221L366 222L365 221z"/>
<path style="fill:#434c57; stroke:none;" d="M92 222L93 223L92 222M216 222L217 223L216 222z"/>
<path style="fill:#070809; stroke:none;" d="M270 222L270 224L272 224L270 222z"/>
<path style="fill:#434c57; stroke:none;" d="M365 222L366 223L365 222M225 223L225 225L227 223L225 223z"/>
<path style="fill:#070809; stroke:none;" d="M250 223L249 232L250 232L252 230L251 226L254 223L250 223M278 223L276 228L278 223M290 223L291 224L290 223z"/>
<path style="fill:#7a8191; stroke:none;" d="M327 223L328 224L327 223z"/>
<path style="fill:#b7b5c1; stroke:none;" d="M364 223L365 224L364 223z"/>
<path style="fill:#434c57; stroke:none;" d="M93.3333 224.667L93.6667 225.333L93.3333 224.667M188.667 224.333L189.333 224.667L188.667 224.333M217 224L216 226L218 226L217 224M335.333 224.667L335.667 225.333L335.333 224.667M337 224L338 225L337 224M364 224L365 225L364 224M236 225L236 229L237 229L236 225z"/>
<path style="fill:#070809; stroke:none;" d="M254.333 225.667L254.667 226.333L254.333 225.667z"/>
<path style="fill:#7a8191; stroke:none;" d="M322.333 225.667L322.667 226.333L322.333 225.667z"/>
<path style="fill:#b7b5c1; stroke:none;" d="M363 225L364 226L363 225z"/>
<path style="fill:#434c57; stroke:none;" d="M212 226L211 230L212 230L212 226z"/>
<path style="fill:#070809; stroke:none;" d="M281 226L282 227L281 226z"/>
<path style="fill:#7a8191; stroke:none;" d="M327 226L328 227L327 226z"/>
<path style="fill:#d7d6e0; stroke:none;" d="M360 226L361 227L360 226z"/>
<path style="fill:#434c57; stroke:none;" d="M363 226L364 227L363 226M94 227L95 228L94 227M194 227L195 228L194 227z"/>
<path style="fill:#070809; stroke:none;" d="M270 227L268 233L269 233L270 227M279 227L278 230L279 227z"/>
<path style="fill:#434c57; stroke:none;" d="M336 227L337 228L336 227z"/>
<path style="fill:#d7d6e0; stroke:none;" d="M361 227L358 230L357 234L358 235L361 227z"/>
<path style="fill:#070809; stroke:none;" d="M247 228L248 229L247 228z"/>
<path style="fill:#434c57; stroke:none;" d="M329 228L330 229L329 228M362.333 228.667L362.667 229.333L362.333 228.667M95 229L96 230L95 229M227 229L227 232L228 232L227 229M234.333 229.667L234.667 230.333L234.333 229.667z"/>
<path style="fill:#070809; stroke:none;" d="M274.333 229.667L274.667 230.333L274.333 229.667z"/>
<path style="fill:#434c57; stroke:none;" d="M334 229L335 230L334 229M237 230L237 232L239 232L239 230L237 230z"/>
<path style="fill:#070809; stroke:none;" d="M286 230L287 231L286 230z"/>
<path style="fill:#7a8191; stroke:none;" d="M316.333 230.667L316.667 231.333L316.333 230.667M322 230L323 231L322 230M325 230L324 232L325 230M361 230L362 231L361 230z"/>
<path style="fill:#434c57; stroke:none;" d="M96 231L97 232L96 231M229 231L230 232L229 231M232 231L231 234L232 231z"/>
<path style="fill:#070809; stroke:none;" d="M261 231L260 232L261 235L258 233L259 236L256 238L255 236L254 237C255.374 238.832 257.264 240.816 254 240L254 241L254 242L256 242L257 239C261.888 239.094 261.799 234.986 263 231L261 231M265 231L266 232L265 231M280 231L278 235L281 235L280 231z"/>
<path style="fill:#434c57; stroke:none;" d="M225 232L224 234L225 232M253 232L248 235L247 235L252 238L253 232z"/>
<path style="fill:#7a8191; stroke:none;" d="M322 232L323 233L322 232M360 232L361 233L360 232z"/>
<path style="fill:#434c57; stroke:none;" d="M97 233L98 234L97 233M227 233L228 234L227 233M237.667 233.333L238.333 233.667L237.667 233.333M244 233L239 235L239 236L244 233z"/>
<path style="fill:#070809; stroke:none;" d="M270 233L266 239L267 239L267 236L270 237L270 233z"/>
<path style="fill:#7a8191; stroke:none;" d="M325.333 234.667L325.667 235.333L325.333 234.667z"/>
<path style="fill:#434c57; stroke:none;" d="M331 234L332 235L331 234z"/>
<path style="fill:#d7d6e0; stroke:none;" d="M356 234L358 237L356 234z"/>
<path style="fill:#7a8191; stroke:none;" d="M359 234L360 235L359 234z"/>
<path style="fill:#434c57; stroke:none;" d="M98 235L99 236L98 235M231 235L231 237L233 235L231 235M236.333 235.667L236.667 236.333L236.333 235.667M268 235L269 236L268 235z"/>
<path style="fill:#7a8191; stroke:none;" d="M320 235L321 236L320 235z"/>
<path style="fill:#434c57; stroke:none;" d="M227 239L228 239L230 237L227 239M259 236L258 239L259 236z"/>
<path style="fill:#070809; stroke:none;" d="M283 236L284 237L283 236z"/>
<path style="fill:#434c57; stroke:none;" d="M358 236L359 237L358 236M99 237L100 238L99 237M221 237L221 241L223 237L221 237M239 237L240 242L243 238L239 237z"/>
<path style="fill:#d7d6e0; stroke:none;" d="M356 237L354 242L351 244C354.593 243.316 356.607 240.733 356 237z"/>
<path style="fill:#434c57; stroke:none;" d="M230 238L231 239L230 238M235 238L235 240L237 238L235 238z"/>
<path style="fill:#070809; stroke:none;" d="M282 238L281 240L282 238z"/>
<path style="fill:#434c57; stroke:none;" d="M357 238L358 239L357 238M225 239L226 244L227 244L225 239z"/>
<path style="fill:#070809; stroke:none;" d="M263.333 239.667L263.667 240.333L263.333 239.667z"/>
<path style="fill:#434c57; stroke:none;" d="M328 239L327 241L329 241L328 239z"/>
<path style="fill:#b7b5c1; stroke:none;" d="M356 239L357 240L356 239z"/>
<path style="fill:#434c57; stroke:none;" d="M218 240L219 241L218 240M228 240L229 241L228 240M248 240L249 250L252 240L248 240z"/>
<path style="fill:#070809; stroke:none;" d="M279.333 240.667L279.667 241.333L279.333 240.667z"/>
<path style="fill:#7a8191; stroke:none;" d="M320 240L321 241L320 240z"/>
<path style="fill:#434c57; stroke:none;" d="M356 240L357 241L356 240z"/>
<path style="fill:#070809; stroke:none;" d="M257 242L260 247L261 247L260 241L257 242z"/>
<path style="fill:#7a8191; stroke:none;" d="M355 241L356 242L355 241z"/>
<path style="fill:#434c57; stroke:none;" d="M102 242L104 244L102 242M219.667 242.333L220.333 242.667L219.667 242.333z"/>
<path style="fill:#070809; stroke:none;" d="M286 242L287 243L286 242z"/>
<path style="fill:#7a8191; stroke:none;" d="M320.333 242.667L320.667 243.333L320.333 242.667z"/>
<path style="fill:#434c57; stroke:none;" d="M224 243L224 247L225 247L224 243z"/>
<path style="fill:#070809; stroke:none;" d="M278 243L279 244L278 243z"/>
<path style="fill:#b7b5c1; stroke:none;" d="M344 243L345 244L344 243z"/>
<path style="fill:#434c57; stroke:none;" d="M354 243L355 244L354 243M222 244L223 245L222 244z"/>
<path style="fill:#070809; stroke:none;" d="M244 244L246 246L246 244L244 244M254.667 244.333L255.333 244.667L254.667 244.333M257 245L255 247L255 252L257 245M271 245L272 246L271 245z"/>
<path style="fill:#7a8191; stroke:none;" d="M310.333 245.667L310.667 246.333L310.333 245.667z"/>
<path style="fill:#d7d6e0; stroke:none;" d="M351 245L348 249L350 248L349 250L350 250L351 245z"/>
<path style="fill:#434c57; stroke:none;" d="M221 246L221 249L222 249L221 246M228.333 246.667L228.667 247.333L228.333 246.667M248 246L249 247L248 246z"/>
<path style="fill:#7a8191; stroke:none;" d="M352 246L353 247L352 246z"/>
<path style="fill:#070809; stroke:none;" d="M274 247L275 248L274 247z"/>
<path style="fill:#b7b5c1; stroke:none;" d="M351 247L352 248L351 247z"/>
<path style="fill:#434c57; stroke:none;" d="M225 248L224 252L225 248M232 248L233 249L232 248M234 248L235 249L234 248z"/>
<path style="fill:#070809; stroke:none;" d="M243 248L243 251L244 251L245 248L243 248M259.333 248.667L259.667 249.333L259.333 248.667z"/>
<path style="fill:#7a8191; stroke:none;" d="M312 248L313 249L312 248z"/>
<path style="fill:#434c57; stroke:none;" d="M351 248L352 249L351 248M238.333 249.667L238.667 250.333L238.333 249.667z"/>
<path style="fill:#7a8191; stroke:none;" d="M307 249L308 250L307 249z"/>
<path style="fill:#434c57; stroke:none;" d="M350 249L351 250L350 249M229 250L230 251L229 250z"/>
<path style="fill:#070809; stroke:none;" d="M245 250L246 258L247 258L245 250z"/>
<path style="fill:#d7d6e0; stroke:none;" d="M348 250L346 254L348 250z"/>
<path style="fill:#434c57; stroke:none;" d="M108 251L109 252L108 251M231 251L232 252L231 251M321 251L322 252L321 251z"/>
<path style="fill:#7a8191; stroke:none;" d="M309 252L310 253L309 252z"/>
<path style="fill:#434c57; stroke:none;" d="M323 252L324 253L323 252M348 252L349 253L348 252M218.333 253.667L218.667 254.333L218.333 253.667M232.333 253.667L232.667 254.333L232.333 253.667M234 253L234 257L238 259L239 255L234 253z"/>
<path style="fill:#070809; stroke:none;" d="M253 253L254 258L255 258L253 253M258.333 253.667L258.667 254.333L258.333 253.667z"/>
<path style="fill:#434c57; stroke:none;" d="M317 256L320 253L317 256z"/>
<path style="fill:#d7d6e0; stroke:none;" d="M344 253L346 255L344 253z"/>
<path style="fill:#7a8191; stroke:none;" d="M347 253L348 254L347 253z"/>
<path style="fill:#434c57; stroke:none;" d="M226 254L228 258L226 254z"/>
<path style="fill:#070809; stroke:none;" d="M243.333 254.667L243.667 255.333L243.333 254.667z"/>
<path style="fill:#7a8191; stroke:none;" d="M308 254L308 255L309 257L313 257L313 256L308 254z"/>
<path style="fill:#434c57; stroke:none;" d="M347 254L348 255L347 254M321 255L322 256L321 255z"/>
<path style="fill:#d7d6e0; stroke:none;" d="M344 255L342 259L344 255z"/>
<path style="fill:#434c57; stroke:none;" d="M346 255L347 256L346 255M187.333 256.667L187.667 257.333L187.333 256.667M224 256L225 257L224 256z"/>
<path style="fill:#070809; stroke:none;" d="M258 256L255 261L256 261L258 256z"/>
<path style="fill:#434c57; stroke:none;" d="M345 256L346 257L345 256M199 257L200 258L199 257M232 257L233 258L232 257z"/>
<path style="fill:#070809; stroke:none;" d="M243 257L244 258L243 257z"/>
<path style="fill:#7a8191; stroke:none;" d="M344 257L345 258L344 257z"/>
<path style="fill:#434c57; stroke:none;" d="M229 258L226 259L226 260L227 262C229.914 261.896 230.845 263.571 232 260L229 261L229 258z"/>
<path style="fill:#070809; stroke:none;" d="M275 258L276 259L275 258z"/>
<path style="fill:#7a8191; stroke:none;" d="M302 258L303 259L302 258M308 258L309 259L308 258z"/>
<path style="fill:#434c57; stroke:none;" d="M323 258L324 259L323 258z"/>
<path style="fill:#7a8191; stroke:none;" d="M343 258L344 259L343 258z"/>
<path style="fill:#434c57; stroke:none;" d="M224 259L219 265L224 259M234 259L234 260L238 262L234 259z"/>
<path style="fill:#d7d6e0; stroke:none;" d="M341 259L342 260L341 259z"/>
<path style="fill:#434c57; stroke:none;" d="M187 260L191 263L191 262L187 260M212 260L213 261L212 260z"/>
<path style="fill:#070809; stroke:none;" d="M250 260L251 261L250 260z"/>
<path style="fill:#7a8191; stroke:none;" d="M302 260L301 264L302 264L302 260M305 260L306 261L305 260z"/>
<path style="fill:#d7d6e0; stroke:none;" d="M340 260L336 266L340 260z"/>
<path style="fill:#434c57; stroke:none;" d="M207 261L208 262L207 261z"/>
<path style="fill:#070809; stroke:none;" d="M253 261L254 262L253 261z"/>
<path style="fill:#b7b5c1; stroke:none;" d="M332.333 261.667L332.667 262.333L332.333 261.667z"/>
<path style="fill:#434c57; stroke:none;" d="M341 261L342 262L341 261M234 262L232 271L233 271L234 262z"/>
<path style="fill:#7a8191; stroke:none;" d="M306 262L307 263L306 262z"/>
<path style="fill:#434c57; stroke:none;" d="M322 262L323 263L322 262M340 262L341 263L340 262M202 263L203 264L202 263M215 263L216 264L215 263M226 263L227 264L226 263z"/>
<path style="fill:#070809; stroke:none;" d="M249 263L253 269L249 263z"/>
<path style="fill:#7a8191; stroke:none;" d="M304 263L303 265L304 263M339 263L340 264L339 263z"/>
<path style="fill:#070809; stroke:none;" d="M245 264L247 266L245 264M253 264L254 265L253 264z"/>
<path style="fill:#7a8191; stroke:none;" d="M298 264L297 266L299 266L298 264M338 264L339 265L338 264z"/>
<path style="fill:#434c57; stroke:none;" d="M213 265L214 266L213 265M222 265L221 269L222 269L223 269L224 265L222 265z"/>
<path style="fill:#070809; stroke:none;" d="M239 265L236 271L236 272L239 271C239.765 274.925 239.913 278.564 244 280L244 279L239 265z"/>
<path style="fill:#7a8191; stroke:none;" d="M337 265L338 266L337 265z"/>
<path style="fill:#434c57; stroke:none;" d="M120 266L122 268L120 266M218 266L219 267L218 266z"/>
<path style="fill:#070809; stroke:none;" d="M243 266L247 269L247 268L243 266z"/>
<path style="fill:#434c57; stroke:none;" d="M312.333 266.667L312.667 267.333L312.333 266.667z"/>
<path style="fill:#d7d6e0; stroke:none;" d="M335 266L334 268L335 266z"/>
<path style="fill:#434c57; stroke:none;" d="M208 267L209 268L208 267M215 267L216 268L215 267M316 267L317 268L316 267z"/>
<path style="fill:#7a8191; stroke:none;" d="M331 267L330 269L331 267M335 267L336 268L335 267z"/>
<path style="fill:#434c57; stroke:none;" d="M310 268L311 269L310 268M314 268L315 269L314 268z"/>
<path style="fill:#d7d6e0; stroke:none;" d="M333 268L329 273L333 268z"/>
<path style="fill:#434c57; stroke:none;" d="M216 269L216 270L219 270L216 269M225.333 269.667L225.667 270.333L225.333 269.667M303 269L303 270L303 271L306 275L307 275L310 275L309 271L306 272L303 269M223 270L224 271L223 270M239 270L240 271L239 270z"/>
<path style="fill:#070809; stroke:none;" d="M244 270L244 274L247 277L248 277L249 273L247 271L244 270z"/>
<path style="fill:#7a8191; stroke:none;" d="M297 270L298 271L297 270z"/>
<path style="fill:#434c57; stroke:none;" d="M221 271L222 272L221 271M228.667 271.333L229.333 271.667L228.667 271.333z"/>
<path style="fill:#7a8191; stroke:none;" d="M299 271L300 272L299 271z"/>
<path style="fill:#434c57; stroke:none;" d="M197 272L198 273L197 272M226.667 272.333L227.333 272.667L226.667 272.333M230 272L230 283L236 280L235 277L230 280L233 277L232 272L230 272M240 272L241 273L240 272z"/>
<path style="fill:#070809; stroke:none;" d="M253 272L253 275L254 275L253 272z"/>
<path style="fill:#7a8191; stroke:none;" d="M286 272L287 273L286 272z"/>
<path style="fill:#434c57; stroke:none;" d="M311 272L312 273L311 272M232 273L233 274L232 273z"/>
<path style="fill:#d7d6e0; stroke:none;" d="M328 273L324 278L328 273z"/>
<path style="fill:#434c57; stroke:none;" d="M234 274L235 275L234 274z"/>
<path style="fill:#070809; stroke:none;" d="M255 274L256 275L255 274z"/>
<path style="fill:#7a8191; stroke:none;" d="M328 274L329 275L328 274z"/>
<path style="fill:#434c57; stroke:none;" d="M224 275C224.471 279.245 224.683 283.737 220 285C225.023 290.664 226.384 279.051 228 276L224 275M301 275L301 277L303 277L303 275L301 275z"/>
<path style="fill:#7a8191; stroke:none;" d="M327 275L328 276L327 275z"/>
<path style="fill:#070809; stroke:none;" d="M237.667 276.333L238.333 276.667L237.667 276.333M253.333 276.667L253.667 277.333L253.333 276.667z"/>
<path style="fill:#7a8191; stroke:none;" d="M292.333 276.667L292.667 277.333L292.333 276.667z"/>
<path style="fill:#b7b5c1; stroke:none;" d="M320 276L321 277L320 276z"/>
<path style="fill:#7a8191; stroke:none;" d="M326 276L327 277L326 276z"/>
<path style="fill:#070809; stroke:none;" d="M245.333 277.667L245.667 278.333L245.333 277.667z"/>
<path style="fill:#434c57; stroke:none;" d="M325 277L326 278L325 277z"/>
<path style="fill:#7a8191; stroke:none;" d="M289.667 278.333L290.333 278.667L289.667 278.333M294 278L297 282L294 278z"/>
<path style="fill:#434c57; stroke:none;" d="M303 278L304 279L303 278M324 278L325 279L324 278z"/>
<path style="fill:#070809; stroke:none;" d="M233 279L234 280L233 279z"/>
<path style="fill:#d7d6e0; stroke:none;" d="M321 279L319 282L321 279z"/>
<path style="fill:#434c57; stroke:none;" d="M200 280L201 281L200 280M227 280L228 281L227 280z"/>
<path style="fill:#070809; stroke:none;" d="M245 280L246 281L245 280z"/>
<path style="fill:#7a8191; stroke:none;" d="M321 280L322 281L321 280z"/>
<path style="fill:#434c57; stroke:none;" d="M213 281L214 282L213 281z"/>
<path style="fill:#070809; stroke:none;" d="M240 281L241 282L240 281M247 281L248 282L247 281z"/>
<path style="fill:#7a8191; stroke:none;" d="M290 281L291 282L290 281M320 281L321 282L320 281z"/>
<path style="fill:#434c57; stroke:none;" d="M232 282L235 285L232 282z"/>
<path style="fill:#070809; stroke:none;" d="M244.333 282.667L244.667 283.333L244.333 282.667z"/>
<path style="fill:#7a8191; stroke:none;" d="M286 282L287 283L286 282z"/>
<path style="fill:#434c57; stroke:none;" d="M319 282L320 283L319 282M217 283L218 284L217 283z"/>
<path style="fill:#070809; stroke:none;" d="M240.667 283.333L241.333 283.667L240.667 283.333z"/>
<path style="fill:#7a8191; stroke:none;" d="M295 283L296 284L295 283z"/>
<path style="fill:#b7b5c1; stroke:none;" d="M311.667 283.333L312.333 283.667L311.667 283.333z"/>
<path style="fill:#070809; stroke:none;" d="M246 284L247 285L246 284M249 284L250 285L249 284z"/>
<path style="fill:#d7d6e0; stroke:none;" d="M315 284L316 285L315 284z"/>
<path style="fill:#7a8191; stroke:none;" d="M316 284L317 285L316 284z"/>
<path style="fill:#070809; stroke:none;" d="M239 285L237 289C239.785 288.266 240.832 287.471 239 285M243 285L244 286L243 285z"/>
<path style="fill:#434c57; stroke:none;" d="M315 285L316 286L315 285M196 286L197 287L196 286M205.667 286.333L206.333 286.667L205.667 286.333M213.667 286.333L214.333 286.667L213.667 286.333M239 286L238 288L240 288L239 286z"/>
<path style="fill:#7a8191; stroke:none;" d="M313 286L314 287L313 286z"/>
<path style="fill:#434c57; stroke:none;" d="M314 286L315 287L314 286M200 287L201 288L200 287M210 287L210 289L212 289L212 287L210 287z"/>
<path style="fill:#070809; stroke:none;" d="M228 287L228 292L228 287z"/>
<path style="fill:#7a8191; stroke:none;" d="M283 287L284 288L283 287z"/>
<path style="fill:#434c57; stroke:none;" d="M312 287L313 288L312 287M204 288L205 291L206 291L204 288M213 289L216 292L216 288L213 289M219 288L218 290L219 288z"/>
<path style="fill:#070809; stroke:none;" d="M234 288L235 294L236 293L234 292L234 290L236 289L234 288z"/>
<path style="fill:#434c57; stroke:none;" d="M311 288L312 289L311 288M290 289L291 290L290 289z"/>
<path style="fill:#7a8191; stroke:none;" d="M309 289L310 290L309 289z"/>
<path style="fill:#434c57; stroke:none;" d="M192 290L193 291L192 290z"/>
<path style="fill:#070809; stroke:none;" d="M222 292L225 292L219 292L219 293L222 297L229 298L229 297L228 295L225 295L226 290L222 292M241 290L243 292L241 290z"/>
<path style="fill:#7a8191; stroke:none;" d="M284 292L285 293L287 290L284 292z"/>
<path style="fill:#434c57; stroke:none;" d="M293 290L294 291L293 290z"/>
<path style="fill:#b7b5c1; stroke:none;" d="M301 290L302 291L301 290z"/>
<path style="fill:#7a8191; stroke:none;" d="M307 290L308 291L307 290z"/>
<path style="fill:#434c57; stroke:none;" d="M208 291L213 295L212 291L211 291L208 291z"/>
<path style="fill:#070809; stroke:none;" d="M248 291L247 293L248 291z"/>
<path style="fill:#434c57; stroke:none;" d="M306 291L307 292L306 291M204 292L204 295L205 295L204 292z"/>
<path style="fill:#7a8191; stroke:none;" d="M304 292L305 293L304 292z"/>
<path style="fill:#434c57; stroke:none;" d="M305 292L306 293L305 292M215 293L216 294L215 293z"/>
<path style="fill:#070809; stroke:none;" d="M232 293L233 297L234 297L232 293z"/>
<path style="fill:#7a8191; stroke:none;" d="M279 296L281 293L279 296z"/>
<path style="fill:#434c57; stroke:none;" d="M290 293L291 294L290 293z"/>
<path style="fill:#b7b5c1; stroke:none;" d="M297 295L297 296L302 294L297 295z"/>
<path style="fill:#434c57; stroke:none;" d="M303 293L304 294L303 293M207 294L206 296L207 294M216 294L217 295L216 294z"/>
<path style="fill:#070809; stroke:none;" d="M246 294L247 295L246 294z"/>
<path style="fill:#b7b5c1; stroke:none;" d="M296 294L297 295L296 294z"/>
<path style="fill:#434c57; stroke:none;" d="M301 294L302 295L301 294M199 295L199 296L203 296L203 295L199 295M215 295L216 296L215 295z"/>
<path style="fill:#7a8191; stroke:none;" d="M266.667 295.333L267.333 295.667L266.667 295.333M275 295L276 296L275 295z"/>
<path style="fill:#434c57; stroke:none;" d="M283 295L284 296L283 295M288 295L289 296L288 295M299 295L300 296L299 295M209 296L210 297L209 296M216 296L214 299L217 300L218 299L216 296z"/>
<path style="fill:#070809; stroke:none;" d="M230.333 296.667L230.667 297.333L230.333 296.667z"/>
<path style="fill:#b7b5c1; stroke:none;" d="M295.667 296.333L296.333 296.667L295.667 296.333z"/>
<path style="fill:#7a8191; stroke:none;" d="M279 297L280 298L279 297z"/>
<path style="fill:#b7b5c1; stroke:none;" d="M293.667 297.333L294.333 297.667L293.667 297.333z"/>
<path style="fill:#434c57; stroke:none;" d="M196 298L197 299L196 298M200.333 298.667L200.667 299.333L200.333 298.667z"/>
<path style="fill:#070809; stroke:none;" d="M216 298L217 299L216 298M225 298L223 301L226 301L228 304L228 301L225 298M242 298L243 299L242 298z"/>
<path style="fill:#7a8191; stroke:none;" d="M272 298L273 299L272 298M274.333 298.667L274.667 299.333L274.333 298.667z"/>
<path style="fill:#b7b5c1; stroke:none;" d="M289 299L289 300L293 299L289 299z"/>
<path style="fill:#070809; stroke:none;" d="M230 299L231 300L230 299z"/>
<path style="fill:#434c57; stroke:none;" d="M291 299L292 300L291 299M209.667 300.333L210.333 300.667L209.667 300.333M215 300L216 301L215 300z"/>
<path style="fill:#070809; stroke:none;" d="M253 300L254 301L253 300z"/>
<path style="fill:#b7b5c1; stroke:none;" d="M287 300L288 301L287 300z"/>
<path style="fill:#434c57; stroke:none;" d="M206 301L207 302L206 301M211.333 301.667L211.667 302.333L211.333 301.667z"/>
<path style="fill:#070809; stroke:none;" d="M221 301L220 305L216 302L213 308L220 312L216 307L223 305L223 304L221 303L223 302L221 301z"/>
<path style="fill:#b7b5c1; stroke:none;" d="M284 301L285 302L284 301z"/>
<path style="fill:#434c57; stroke:none;" d="M287 301L288 302L287 301z"/>
<path style="fill:#070809; stroke:none;" d="M237 302L238 303L237 302z"/>
<path style="fill:#b7b5c1; stroke:none;" d="M282.667 302.333L283.333 302.667L282.667 302.333z"/>
<path style="fill:#434c57; stroke:none;" d="M285 302L286 303L285 302M180 303L181 304L180 303M206 303L206 304L210 304L210 303L206 303M212 303L211 305L213 305L212 303M276 303L277 304L276 303z"/>
<path style="fill:#b7b5c1; stroke:none;" d="M280 303L281 304L280 303z"/>
<path style="fill:#434c57; stroke:none;" d="M282 303L283 304L282 303M200 304L201 305L200 304z"/>
<path style="fill:#b7b5c1; stroke:none;" d="M277 304L278 305L277 304z"/>
<path style="fill:#434c57; stroke:none;" d="M279.667 304.333L280.333 304.667L279.667 304.333M205 305L208 307L208 306L205 305z"/>
<path style="fill:#070809; stroke:none;" d="M224 305L224 306L227 306L224 305M232 305L233 306L232 305z"/>
<path style="fill:#434c57; stroke:none;" d="M277 305L278 306L277 305M186 306L187 307L186 306M190 306L191 307L190 306z"/>
<path style="fill:#070809; stroke:none;" d="M221 306L220 310L221 310L223 306L221 306z"/>
<path style="fill:#434c57; stroke:none;" d="M274 306L275 307L274 306M188 307L189 308L188 307M203.667 307.333L204.333 307.667L203.667 307.333M270.667 307.333L271.333 307.667L270.667 307.333M190 308L192 310L190 308M200 308L201 309L200 308z"/>
<path style="fill:#070809; stroke:none;" d="M210 308L209 311L214 311L214 310L210 308z"/>
<path style="fill:#434c57; stroke:none;" d="M266.667 308.333L267.333 308.667L266.667 308.333M203 309L203 310L206 310L203 309M262.667 309.333L263.333 309.667L262.667 309.333M201.333 310.667L201.667 311.333L201.333 310.667z"/>
<path style="fill:#070809; stroke:none;" d="M223 310L224 311L223 310z"/>
<path style="fill:#434c57; stroke:none;" d="M258.667 310.333L259.333 310.667L258.667 310.333M204 311L205 312L204 311z"/>
<path style="fill:#7a8191; stroke:none;" d="M246 311L246 312L251 312L246 311M239.667 312.333L240.333 312.667L239.667 312.333z"/>
</svg>
