<?xml version="1.0" standalone="yes"?>
<svg xmlns="http://www.w3.org/2000/svg" width="500" height="500">
<path style="fill:#0d0907; stroke:none;" d="M0 0L0 500L500 500L500 0L0 0z"/>
<path style="fill:#6b5e56; stroke:none;" d="M235 96L235 97L266 97L235 96M227 97L227 98L233 98L227 97z"/>
<path style="fill:#9a664c; stroke:none;" d="M221 99L221 100L227 102L224 102L223 104L223 105L231 103L231 102L228 100C245.458 95.8552 266.304 100.238 284 101C265.832 92.2661 240.158 97.488 221 99z"/>
<path style="fill:#6b5e56; stroke:none;" d="M267 97L267 98L273 98L267 97M221 98L221 99L226 99L221 98M228 100L231 102L231 103L213 103L214 110L214 111L205 116L209 119L216 113L220 113L217 117L218 118L220 115L230 118L230 113L215 110C219.049 108.828 224.216 108.652 228 107C230.86 105.751 231.894 102.554 235 101.833C237.722 101.202 242 100.593 242 104L246 109L241 110L241 111L248 111L250 115L249 111L265 112L267 122L260 121L259 124L251 122L253 124L253 125C250.967 128.679 253.803 131.074 257 133L257 134L253 135C257.236 147.196 267.78 153.672 279 158C276.489 164.981 281.714 168.366 285 174C279.369 175.443 278.063 172.755 276 168L272 174L264 170C260.508 175.254 254.643 171.761 256 166L248 166C250.008 161.882 249.685 158.518 245 157L239 137L229 140L229 139L234 134L233 132C230.011 129.918 228.564 123.484 225 129L215 128L215 129L219 131L219 132L207 129L208 123L203 124L202 121L202 120L207 118L207 117L198 119L203 112L193 117L194 120L188 121L189 118L184 123L179 121L176 126L174 125L169 131L170 137L174 137L166 143L169 137L167 139L166 139L167 134L166 134L164 134L161 144L173 147L172 144L178 144L175 149L181 150L179 157C182.555 154.609 184.041 151.242 184 147C186.628 144.698 184.54 143.101 185.312 140.17C186.537 135.523 193.897 133.009 198 133L197 136L204 133C202.612 137.123 202.922 139.146 207 141L203 151L196 145L197 152L202 152L202 154L199 155L206 164L209 163L212 176L205 171L204 171L205 179C210.262 177.914 212.035 179.831 215 184L209 194L214 193L214 190L218 192L216 199C212.425 198.264 206.839 200.065 206 204L202 203L202 207L207 207L200 210L199 215C195.205 215.827 194.304 217.171 194 221L190 220L192 214L186 215L186 212L182 216C179.638 214.5 178.64 214.72 177 217L180 217L180 218C179.504 221.467 182.034 222.786 185 224L183 228L181 226L180 226C176.891 227.757 174.805 228.482 172 226L164 223L163 223L163 228L156 224L161 232L167 234L169 242L169 243L169 244C160.96 247.682 154.727 246.587 146 246L144 247L152 253C157.696 251.557 159.255 255.403 164.015 257.812C176.267 264.014 185.686 266.496 189 281L186 285C179.455 280.456 173.015 282.692 166 280.5C161.878 279.212 155.294 275.249 153 281L169 297L169 298C164.885 299.482 161.474 299.934 158 297L150 304L135 296L138 295L128 283L127 283L125 289L126 285C120.492 286.829 122.795 293.181 122 298L117 297L116 284L121 282L107 269L107 277L105 277L102 265L101 265L106 287L107 287L107 283L114 295L109 294L103 286L104 296L103 296L97 258L96 258C96 278.635 101.376 299.774 111.083 318C113.763 323.032 117.02 332.799 123 334C122.993 340.582 128.884 346.281 133.051 351C144.28 363.718 158.175 377.172 174 384L173 382L174 382L175 385L190 390C190.452 393.211 193.177 392.435 196 392L196 393L194 394L206 399L207 399L211 397L211 398L209 398L209 399L239 403L239 402L206 395L214 391L214 390C205.163 390.722 201.872 392.74 194 388L195 391L169 375.684L161 370L135 346L137 348L138 348L142 347C136.258 333.001 141.371 327.904 150 342L151 342L151 336L159 338C156.35 331.121 155.358 325.458 147 325L147 320L157 324L147 308L158 300C163.731 310.282 171.708 293.847 174 289C166.751 288.69 164.959 287.559 160 282C167.495 282.043 179.395 285.09 183 292L184 292L185 288L195 284L192 283L192 282C195.36 281.948 201.408 281.819 202 278L209 294C211.348 289.819 207.904 287.624 206 284L207 278C212.003 283.848 210.893 292.211 219 295L224 284L222 279L225 279L224 275L229 277L228 274L231 275L232 266C238.654 268.495 248.28 273.792 250 281L261 278L260 282L274 287L275 287L286 285L285 280C289.8 279.389 298.5 276.784 290 273L291 270L290 269L274 270L272 264C264.652 263.771 246.24 269.583 246 257L241 258L243 256L243 255L239 255L239 258L235 256L239 243C238.621 237.155 240.952 234.866 245 231L249 238L253 237L253 236L250 229C254.149 229.209 266.11 233.474 267 229L271 232L273 228L271 225L274 226L275 225L275 215L277 217L281 215L282 211L278 213L279 206L273 206L269 201L273 199L268 191L268 188L273 185L274 188L282 190L280 192L279 192L279 190L278 190C278.651 193.021 279.914 193.086 282 191L286 194L285 198L290 196L289 193L301 184L300 181L297 182L302 169L299 166L298 166L297 171L286.455 162.481L276 148L279 145L275 142L278 143L278 142L267 131L271 130L268 126L268 125L280 125L279 128L286 137L296 140L287 127L306 129L305 125L308 127C306.297 116.615 293.619 116.418 289 109L320.09 116.312L352 136C343.663 124.197 325.874 112.997 312 109L312 110L314 110L314 111L309 110L311 108L304 108L304 107L306 106L289 101L289 102L292 102L292 103L285 102L285 101L288 101C275.319 96.44 259.172 99.4897 246 99.9606C239.827 100.181 234.054 98.2111 228 100M274 98L274 99L279 99L274 98M217 99L217 100L221 100L217 99M279 99L279 100L284 100L279 99M212 100L212 101L216 101L212 100z"/>
<path style="fill:#9a664c; stroke:none;" d="M216 100L217 101L216 100z"/>
<path style="fill:#da9e73; stroke:none;" d="M217 100L197 106L197 107L207 107L218 101L217 100z"/>
<path style="fill:#c97357; stroke:none;" d="M217 102L224 102L227 102C223.559 99.9395 220.259 99.5438 217 102z"/>
<path style="fill:#6b5e56; stroke:none;" d="M205 102L205 103L211 102L205 102z"/>
<path style="fill:#9a664c; stroke:none;" d="M211.667 101.333L212.333 101.667L211.667 101.333M215 110L230 113L230 118C226.023 117.173 221.957 114.369 219 118L222 117C217.831 120.956 211.607 121.881 206 122L206 121L214 117L215 117L216 117L218 119L217 116L220 113L216 113L209 119L205 116L214 111L214 110L212 109L213 103L210 107L213 106L199 111L200 108L196 106L185 114L183 123L184 123L189 118L188 121L194 120L193 117L203 112L204 115L198 119L207 117L207 118L202 120L202 121L203 124L208 123L207 129L219 132L219 131L215 129L215 128L225 129C229.577 123.172 229.064 131.172 233 132L234 134L229 139L229 140L239 137L236 139L245 157C249.061 159.195 249.411 161.765 248 166L256 166C253.082 173.205 262.81 175.553 264 170L272 174L276 168L276 171C279.153 174.36 280.332 176.015 285 174C282.56 167.856 277.649 165.228 279 158C267.785 152.09 259.095 147.111 253 135L257 134L257 133L253 125L253 124L251 122L259 124L260 121L267 122L265 112L249 111L250 115L248 111L241 111L241 110L246 109L242 104C241.58 100.575 238.065 100.845 235 101.713C228.82 103.462 221.326 107.494 215 110M285 101L285 102L292 103L285 101M208 102L209 103L208 102z"/>
<path style="fill:#c97357; stroke:none;" d="M213.667 102.333L214.333 102.667L213.667 102.333z"/>
<path style="fill:#9a664c; stroke:none;" d="M215 105L219 103C216.303 102.146 215.614 102.149 215 105M219 102L220 103L219 102z"/>
<path style="fill:#6b5e56; stroke:none;" d="M202.667 103.333L203.333 103.667L202.667 103.333z"/>
<path style="fill:#9a664c; stroke:none;" d="M204 103L205 104L204 103z"/>
<path style="fill:#c97357; stroke:none;" d="M205 103L206 104L205 103M210.667 103.333L211.333 103.667L210.667 103.333z"/>
<path style="fill:#9a664c; stroke:none;" d="M220.667 103.333L221.333 103.667L220.667 103.333z"/>
<path style="fill:#0d0907; stroke:none;" d="M280 103C283.192 108.15 286.385 108.926 292 107L280 103z"/>
<path style="fill:#9a664c; stroke:none;" d="M292 103L292 104L304 107L304 106L292 103z"/>
<path style="fill:#6b5e56; stroke:none;" d="M199.667 104.333L200.333 104.667L199.667 104.333z"/>
<path style="fill:#9a664c; stroke:none;" d="M201 104L202 105L201 104z"/>
<path style="fill:#c97357; stroke:none;" d="M202 104L203 105L202 104M209 104L207 107L208 109L213 106L209 104z"/>
<path style="fill:#6b5e56; stroke:none;" d="M196.667 105.333L197.333 105.667L196.667 105.333z"/>
<path style="fill:#9a664c; stroke:none;" d="M198 105L199 106L198 105z"/>
<path style="fill:#6b5e56; stroke:none;" d="M189 108L189 109L196 107L189 108z"/>
<path style="fill:#0d0907; stroke:none;" d="M216 106L217 107L216 106z"/>
<path style="fill:#9a664c; stroke:none;" d="M193 107L194 108L193 107z"/>
<path style="fill:#da9e73; stroke:none;" d="M192 108L192 109L196 108L192 108z"/>
<path style="fill:#c97357; stroke:none;" d="M196 107L197 108L196 107M199 107L199 111L207 110L199 107M205 107L206 108L205 107z"/>
<path style="fill:#9a664c; stroke:none;" d="M304 107L304 108L307 108L304 107M191 108L192 109L191 108z"/>
<path style="fill:#c97357; stroke:none;" d="M194 108L195 109L194 108M235 108L235 109L238 109L235 108z"/>
<path style="fill:#9a664c; stroke:none;" d="M307.667 108.333L308.333 108.667L307.667 108.333z"/>
<path style="fill:#6b5e56; stroke:none;" d="M173 116L173 117L188 110L173 116z"/>
<path style="fill:#9a664c; stroke:none;" d="M188 109L189 110L188 109z"/>
<path style="fill:#da9e73; stroke:none;" d="M189 109L189 111L191 109L189 109z"/>
<path style="fill:#c97357; stroke:none;" d="M191.667 109.333L192.333 109.667L191.667 109.333z"/>
<path style="fill:#6b5e56; stroke:none;" d="M193 110L193 111L198 110L193 110z"/>
<path style="fill:#9a664c; stroke:none;" d="M266 111L266 112L276 112C272.886 109.065 269.93 109.87 266 111M309 109L309 110L314 111L314 110L309 109M186 110L182 112L182 113L186 110z"/>
<path style="fill:#c97357; stroke:none;" d="M179 114L181 119L174 121L174 122L178 122L184 122L184 121L182 118L185 114L190 112L179 114M190 110L191 111L190 110M198 111L196 112L196 113L198 111M234 111L235 112L234 111z"/>
<path style="fill:#9a664c; stroke:none;" d="M314 111L314 112L325 117L325 116L314 111M209 114L214 113L209 114M180 113L181 114L180 113z"/>
<path style="fill:#c97357; stroke:none;" d="M189 113L188 117L192 113L189 113z"/>
<path style="fill:#6b5e56; stroke:none;" d="M260 113L259 116L263 117L263 116L263 114L260 113z"/>
<path style="fill:#9a664c; stroke:none;" d="M178 114L179 115L178 114z"/>
<path style="fill:#da9e73; stroke:none;" d="M181 114L182 115L181 114z"/>
<path style="fill:#9a664c; stroke:none;" d="M176 115L168 122L161 126C166.02 125.365 176.135 120.89 176 115z"/>
<path style="fill:#c97357; stroke:none;" d="M177 115L175 119L177 115z"/>
<path style="fill:#da9e73; stroke:none;" d="M178 115C171.445 123.379 162.823 126.709 160 138L170 125L169 129L170 129C172.485 124.015 175.354 120.149 181 119L181 115L178 115z"/>
<path style="fill:#9a664c; stroke:none;" d="M183 115L182 117L183 115M208 115L209 116L208 115z"/>
<path style="fill:#c97357; stroke:none;" d="M233.667 115.333L234.333 115.667L233.667 115.333z"/>
<path style="fill:#6b5e56; stroke:none;" d="M244 116L247 118L244 116M255 116L256 117L255 116M171 117L172 118L171 117z"/>
<path style="fill:#da9e73; stroke:none;" d="M183 117L182 121L183 117z"/>
<path style="fill:#c97357; stroke:none;" d="M186 117L187 118L186 117M214 117L206 121L206 122C211.294 121.956 218.745 121.666 222 117L216 117L214 117z"/>
<path style="fill:#0d0907; stroke:none;" d="M270 117L271 118L270 117z"/>
<path style="fill:#9a664c; stroke:none;" d="M326 117L327 118L326 117z"/>
<path style="fill:#6b5e56; stroke:none;" d="M169.667 118.333L170.333 118.667L169.667 118.333z"/>
<path style="fill:#c97357; stroke:none;" d="M184.333 118.667L184.667 119.333L184.333 118.667z"/>
<path style="fill:#6b5e56; stroke:none;" d="M250 118L250 120L252 118L250 118z"/>
<path style="fill:#c97357; stroke:none;" d="M258 118L258 120L260 120L258 118z"/>
<path style="fill:#6b5e56; stroke:none;" d="M262 118L264 121L264 118L262 118z"/>
<path style="fill:#0d0907; stroke:none;" d="M270 121L276 123L275 118L270 121z"/>
<path style="fill:#9a664c; stroke:none;" d="M328 118L329 119L328 118z"/>
<path style="fill:#6b5e56; stroke:none;" d="M168 119L169 120L168 119z"/>
<path style="fill:#c97357; stroke:none;" d="M173 119L174 120L173 119M189 119L190 120L189 119z"/>
<path style="fill:#da9e73; stroke:none;" d="M190 119L191 120L190 119z"/>
<path style="fill:#c97357; stroke:none;" d="M191 119L192 120L191 119z"/>
<path style="fill:#9a664c; stroke:none;" d="M195 119L195 120L198 120L195 119z"/>
<path style="fill:#da9e73; stroke:none;" d="M214.667 119.333L215.333 119.667L214.667 119.333z"/>
<path style="fill:#6b5e56; stroke:none;" d="M226 119L215 122L215 123L226 124L226 119M232 119L233 121L234 121L235 119L232 119z"/>
<path style="fill:#c97357; stroke:none;" d="M234 125L232 130L236 131L236 135L243 133L243 134L240 134L239 141C240.969 145.171 243.404 147.29 248 148L250 157C255.703 155.11 252.576 150.521 252 146L256 145L253 139L245 134L249 134L249 133L246 130L251 131L245 121L247 120L246 119C244.167 119.626 229.096 120.387 234 125z"/>
<path style="fill:#6b5e56; stroke:none;" d="M166.667 120.333L167.333 120.667L166.667 120.333z"/>
<path style="fill:#c97357; stroke:none;" d="M171 120L172 121L171 120z"/>
<path style="fill:#9a664c; stroke:none;" d="M178 122L175 121L169 131L168 131L169 126L168 126L165 132L168 131L169 135L166 139L167 139L169 137L166 143L174 137L170 137L169 131L174 125L176 126L181 122C179.873 119.994 179.127 119.994 178 122z"/>
<path style="fill:#da9e73; stroke:none;" d="M212 120L213 121L212 120z"/>
<path style="fill:#6b5e56; stroke:none;" d="M165 121L166 122L165 121z"/>
<path style="fill:#c97357; stroke:none;" d="M167 121L168 122L167 121M170 121L171 122L170 121z"/>
<path style="fill:#0d0907; stroke:none;" d="M192 121L191 123L193 123L192 121z"/>
<path style="fill:#9a664c; stroke:none;" d="M201 121L200 123L201 121z"/>
<path style="fill:#0d0907; stroke:none;" d="M279 121L279 123L281 123L279 121z"/>
<path style="fill:#6b5e56; stroke:none;" d="M163.667 122.333L164.333 122.667L163.667 122.333z"/>
<path style="fill:#9a664c; stroke:none;" d="M197 122L196 124L198 124L197 122z"/>
<path style="fill:#da9e73; stroke:none;" d="M235 122L236 123L235 122z"/>
<path style="fill:#6b5e56; stroke:none;" d="M162 123L163 124L162 123z"/>
<path style="fill:#c97357; stroke:none;" d="M173 123L174 124L173 123z"/>
<path style="fill:#0d0907; stroke:none;" d="M187 123L188 124L187 123z"/>
<path style="fill:#da9e73; stroke:none;" d="M240 123L242 125L242 123L240 123z"/>
<path style="fill:#0d0907; stroke:none;" d="M290 123L291 124L290 123z"/>
<path style="fill:#6b5e56; stroke:none;" d="M137 145L144 140L143 142L144 142L150 137L147 142L157 135L159 141L165 125L161 126L162 124C152.692 127.538 142.661 136.986 137 145z"/>
<path style="fill:#c97357; stroke:none;" d="M167 124L168 125L167 124z"/>
<path style="fill:#0d0907; stroke:none;" d="M182 124L183 125L182 124M285 124L286 125L285 124z"/>
<path style="fill:#6b5e56; stroke:none;" d="M333 124L334 125L333 124z"/>
<path style="fill:#c97357; stroke:none;" d="M169.333 125.667L169.667 126.333L169.333 125.667M171.333 125.667L171.667 126.333L171.333 125.667z"/>
<path style="fill:#0d0907; stroke:none;" d="M199 125L185 131L185 127L173 129C176.092 143.513 193.149 131.391 201 129L201 125L199 125z"/>
<path style="fill:#9a664c; stroke:none;" d="M159 126L158 128L159 126z"/>
<path style="fill:#c97357; stroke:none;" d="M165 126L166 127L165 126M209 126L209 128L214 128L209 126z"/>
<path style="fill:#9a664c; stroke:none;" d="M233 129C235.993 128.936 237.346 129.054 238 126L233 129M164 127L165 128L164 127z"/>
<path style="fill:#c97357; stroke:none;" d="M170 127L171 128L170 127z"/>
<path style="fill:#0d0907; stroke:none;" d="M175 127L176 128L175 127M204 127L203 129L204 127M260 127L261 128L260 127z"/>
<path style="fill:#9a664c; stroke:none;" d="M156 128L153 132L156 128M163 128L164 129L163 128z"/>
<path style="fill:#c97357; stroke:none;" d="M166 128L167 129L166 128M168 128L168 131L170 130L170 129L168 128z"/>
<path style="fill:#9a664c; stroke:none;" d="M162 129L163 130L162 129z"/>
<path style="fill:#6b5e56; stroke:none;" d="M194 129L195 130L194 129z"/>
<path style="fill:#9a664c; stroke:none;" d="M205 129L205 131L207 129L205 129z"/>
<path style="fill:#0d0907; stroke:none;" d="M268 129L269 130L268 129z"/>
<path style="fill:#c97357; stroke:none;" d="M162.333 130.667L162.667 131.333L162.333 130.667M165 130L166 131L165 130z"/>
<path style="fill:#9a664c; stroke:none;" d="M161 131L160 135L161 135L161 131z"/>
<path style="fill:#c97357; stroke:none;" d="M163 134L168 136L168 131L163 134z"/>
<path style="fill:#9a664c; stroke:none;" d="M208 131L209 132L208 131M151 132L144 140L151 132M190 134L190 135L197 133L195 137L198 138L197 141L203 138L204 133L203 133L197 136L198 133L190 134z"/>
<path style="fill:#0d0907; stroke:none;" d="M260 132L266 139L260 132z"/>
<path style="fill:#9a664c; stroke:none;" d="M164 133L164 134L167 134L164 133z"/>
<path style="fill:#6b5e56; stroke:none;" d="M185 133L185 135L187 135L185 133z"/>
<path style="fill:#c97357; stroke:none;" d="M195 136L192 134L190 135L196 138L196 139L192 143L191 143L192 139L185 140L185 141L190 140L188 143L190 147L187 145L189 151L184 151L186 156L175 162L174 165L170 164L170 160L166 161L167 155L163 163L167 163L167 174L170 172C167.751 178.562 161.514 183.066 155 185L151 189L152 184L157 184L156 181L151 182L156 179L156 177L153 176L159 164L148 169L147 178L151 177L150 184L146 182L139 189L143 172L135 175L138 164L137 164L135 170L134 170L136 159L135 159L128 175L133 180L132 194C136.064 194.186 136.707 196.158 137 200L142 197L143 197L144 197L152 201C149.816 209.899 144.478 222.902 153 230L155 221L158 223L165 221L164 217L169 219L169 213L163 213L161 219L160 219L161 212L160 212L159 216C156.604 215.425 156.513 215.525 156 218L152 215L158 209L158 206L155 208L154 207L159 205L159 204C157.945 195.556 170.628 195.584 172 189L178 183L171 189L169 182L170 181L176 181L180 181L180 180L171 181L175 174L181 175L180 179L187 175L187 181L188 181L191 176L197 183L202 181L202 180L196 180L201 177L198 172L201 171L198 167L203 165L203 163L200 161L199 161L196 163C197.085 159.576 197.17 157.918 194 156L193 143L204 147L205 142L197 143L197 142L200 140L201 140L204 141L201 140L201 139L203 139L203 138L197 141L198 138L195 137L197 133L195 136z"/>
<path style="fill:#0d0907; stroke:none;" d="M228 133L227 136L220 134L220 138L217 139L217 140C221.098 138.783 230.02 139.24 228 133z"/>
<path style="fill:#9a664c; stroke:none;" d="M163.333 134.667L163.667 135.333L163.333 134.667z"/>
<path style="fill:#0d0907; stroke:none;" d="M165.333 134.667L165.667 135.333L165.333 134.667z"/>
<path style="fill:#da9e73; stroke:none;" d="M193 134L193 136L195 136L195 134L193 134z"/>
<path style="fill:#c97357; stroke:none;" d="M202 134L203 135L202 134z"/>
<path style="fill:#9a664c; stroke:none;" d="M155 135L150 140L151 149L151 150L146 153L148 156L151 150L153 151L155 146L156 146L156 155L157 155L161 150L161 159L160 159L158 163L159 161L156 158L155 158L155 165L151 167L153 162L146 162L140 167L139 162L138 162L135 175L143 172L144 175C139.885 178.347 139.403 184.026 139 189L146 182L150 184L151 177L147 178L148 169L159 164L153 176L156 177L156 179L151 182L157 184L152 184L151 189L155 185C161.854 183.759 168.564 179.057 170 172L167 174L167 163L163 163L167 155L166 161L170 160L170 164L174 165L175 162L186 156L184 151L183 151L179 157L181 150L175 149L178 144L172 144L173 147L161 144L160 148L166 148L167 151L166 152C161.644 149.907 157.532 147.235 162 143L162 139L158 138L159 141L156 140L157 135L155 135z"/>
<path style="fill:#c97357; stroke:none;" d="M160 135L161 136L160 135M162.333 135.667L162.667 136.333L162.333 135.667z"/>
<path style="fill:#da9e73; stroke:none;" d="M191 135L192 136L191 135z"/>
<path style="fill:#c97357; stroke:none;" d="M201 135L202 136L201 135z"/>
<path style="fill:#9a664c; stroke:none;" d="M159 136L160 137L159 136z"/>
<path style="fill:#0d0907; stroke:none;" d="M175 136L175 138L177 136L175 136z"/>
<path style="fill:#9a664c; stroke:none;" d="M189 136L190 137L189 136z"/>
<path style="fill:#da9e73; stroke:none;" d="M190 136L187 138L187 139L192 139L191 143L192 143L196 139L196 138L190 136z"/>
<path style="fill:#6b5e56; stroke:none;" d="M224 136L225 137L224 136M352 136L353 137L352 136z"/>
<path style="fill:#9a664c; stroke:none;" d="M149 137L143 142L144 140L143 140L138 147L128 157L132 153L139 150L136 158L143 150L143 149L139 149L149 142L149 141L147 142L147 141L149 137z"/>
<path style="fill:#c97357; stroke:none;" d="M159 137L162 139L162 138L159 137z"/>
<path style="fill:#9a664c; stroke:none;" d="M162 137L163 138L162 137z"/>
<path style="fill:#0d0907; stroke:none;" d="M164 137L164 143L165 143L164 137M181 137L182 138L181 137z"/>
<path style="fill:#9a664c; stroke:none;" d="M186 137L184 147L184 151L189 151L190 140L185 141L185 140L186 137z"/>
<path style="fill:#c97357; stroke:none;" d="M187 137L188 138L187 137M249 137L250 138L249 137z"/>
<path style="fill:#6b5e56; stroke:none;" d="M353 137L354 138L353 137z"/>
<path style="fill:#c97357; stroke:none;" d="M171 138L172 139L171 138z"/>
<path style="fill:#0d0907; stroke:none;" d="M178 138L179 139L178 138z"/>
<path style="fill:#9a664c; stroke:none;" d="M245 138L246 139L245 138z"/>
<path style="fill:#0d0907; stroke:none;" d="M267 138L269 140L269 138L267 138z"/>
<path style="fill:#c97357; stroke:none;" d="M153 139L154 140L153 139z"/>
<path style="fill:#0d0907; stroke:none;" d="M178 141L179 147L183 147L183 146L180 145L183 144L183 143L181 142L183 139L178 141z"/>
<path style="fill:#da9e73; stroke:none;" d="M201 139L202 140L201 139z"/>
<path style="fill:#9a664c; stroke:none;" d="M202 139L203 140L202 139z"/>
<path style="fill:#0d0907; stroke:none;" d="M214 139L216 141L216 139L214 139z"/>
<path style="fill:#c97357; stroke:none;" d="M151 140L152 141L151 140z"/>
<path style="fill:#da9e73; stroke:none;" d="M200 140L197 142L197 143C200.304 143.69 202.088 143.921 204 141L200 140z"/>
<path style="fill:#9a664c; stroke:none;" d="M204 140L206 143L207 142L206 140L204 140z"/>
<path style="fill:#6b5e56; stroke:none;" d="M296 140L296 141L300 142L300 141L296 140z"/>
<path style="fill:#c97357; stroke:none;" d="M149 141L148 146L149 146L149 141z"/>
<path style="fill:#da9e73; stroke:none;" d="M150 141L151 142L150 141z"/>
<path style="fill:#6b5e56; stroke:none;" d="M152 141L153 142L152 141z"/>
<path style="fill:#0d0907; stroke:none;" d="M210.667 141.333L211.333 141.667L210.667 141.333z"/>
<path style="fill:#da9e73; stroke:none;" d="M248 141L249 142L248 141z"/>
<path style="fill:#0d0907; stroke:none;" d="M272 141L273 142L272 141z"/>
<path style="fill:#da9e73; stroke:none;" d="M144 150C136.829 154.337 135.413 162.414 134 170L135 170C139.03 161.482 141.126 152.957 149 147L150 142C145.776 143.453 143.339 145.362 144 150M153.667 142.333L154.333 142.667L153.667 142.333z"/>
<path style="fill:#c97357; stroke:none;" d="M155 142L156 143L155 142z"/>
<path style="fill:#6b5e56; stroke:none;" d="M158 142L157 144L159 144L158 142z"/>
<path style="fill:#0d0907; stroke:none;" d="M225 142L221 144L220 148L217 146L216 150L213 150L212 147L211 147L212 152L208 150C205.306 157.318 207.861 158.361 215 160L214 163L222 159L220 164L226 160L225 165L227 162L236 169L236 171L232 174L232 175L233 180L238 182L241 186L248 177L247 174L250 173L251 176L253 176L254 175L254 173L244 168L246 160L237 148L238 151L235 147L229 150L230 143L225 142z"/>
<path style="fill:#9a664c; stroke:none;" d="M233 144L236 142L233 144z"/>
<path style="fill:#da9e73; stroke:none;" d="M252 142L252 145L253 145L254 142L252 142z"/>
<path style="fill:#0d0907; stroke:none;" d="M266 142L267 147L266 142z"/>
<path style="fill:#c97357; stroke:none;" d="M145 143L146 144L145 143M153 143L152 148L156 144L153 143M160 143C157.752 148.21 161.189 150.45 166 152L167 151L166 148L160 148L160 143z"/>
<path style="fill:#9a664c; stroke:none;" d="M193 143L194 156L196 163L199 161L200 161L203 163L203 165L198 167L201 171L198 172L201 177L196 180L202 180L202 181L197 183C194.81 179.097 190.996 176.4 188 181L187 181L187 175L183 178L186 179L181 186L185 183L184 186L192 179L194 187L204 183L206 186L198 197L195 195L194 198L193 198L192 194L198 194L193 192L190 189L189 193L191 197L181 200L181 204L176 203L176 201L170 203L170 199L169 199L168 206L167 206C166.77 201.159 167.672 198.423 172 196L172 195L167 197L165 194L163 201L162 197L165 198L164 195L157 204L160 204L159 201L163 202L161 208L157 207L155 215L159 216L165 206L172 211L170 209L164 215L169 213L170 218L164 217L165 221C161.703 220.654 158.839 219.107 158 223L155 221L153 230L149 225L148 225L153 231L153 232L149 235L145 229L144 229L143 236L146 235L146 238L148 236L157 233L156 228L160 235L164 234L164 247C159.197 246.185 147.924 241.923 143.774 245.835C141.667 247.821 141.673 253.248 141 256L139 254L138 254L138 258L135 257L135 267L141 266L141 264L138 259L140 262L144 262L144 269L149 268L145 260L153 258L154 253L161 261L172 261L172 260L152 253L144 247L146 246C154.319 247.544 161.764 248.847 169 244L169 243L169 242L167 234L161 232L156 224L163 228L163 223L164 223C166.167 226.09 168.333 226.583 172 226C174.334 228.952 177.361 228.378 180 226L181 226L183 228L185 224L180 217L177 217L177 216L182 216L186 212L186 215L192 214L190 220L194 221L199 215L200 210C203.632 210.823 205.052 210.171 207 207L202 207L202 203L206 204L216 199L218 192L214 190L214 193L209 194L215 184C212.549 179.248 210.35 177.477 205 179L204 171L205 171L212 176L209 163L206 164L199 155L202 154L202 152L197 152L196 145L200 146L193 143M204 143L205 144L204 143z"/>
<path style="fill:#6b5e56; stroke:none;" d="M278 143L279 144L278 143z"/>
<path style="fill:#c97357; stroke:none;" d="M144 144L145 145L144 144z"/>
<path style="fill:#da9e73; stroke:none;" d="M188 144L190 147L190 144L188 144z"/>
<path style="fill:#9a664c; stroke:none;" d="M203 144L204 147L201 146L203 151L203 144z"/>
<path style="fill:#c97357; stroke:none;" d="M138 145L139 146L138 145M143 145L144 146L143 145z"/>
<path style="fill:#6b5e56; stroke:none;" d="M150 145L151 146L150 145M136 146L135 148L136 146z"/>
<path style="fill:#c97357; stroke:none;" d="M137 146L138 147L137 146z"/>
<path style="fill:#6b5e56; stroke:none;" d="M139 146L140 147L139 146M155 146L153 151L151 150L148 156L145 154L144 157L142 155L140 167L146 162C148.164 165.25 150.098 163.927 153 162L151 167L155 165L155 158L156 158L159 161L158 163L159 163L160 159L161 159L162 161L161 150L157 155L156 155L155 146z"/>
<path style="fill:#c97357; stroke:none;" d="M136 147L137 148L136 147z"/>
<path style="fill:#6b5e56; stroke:none;" d="M138 147L139 148L138 147z"/>
<path style="fill:#c97357; stroke:none;" d="M142 147L139 149C141.143 149.265 142.419 149.384 142 147M148 147L143 154L149 153L149 152L144 152L151 150L151 149L148 147z"/>
<path style="fill:#9a664c; stroke:none;" d="M177 147L178 148L177 147z"/>
<path style="fill:#6b5e56; stroke:none;" d="M134 148L135 149L134 148M137 148L138 149L137 148z"/>
<path style="fill:#c97357; stroke:none;" d="M173.333 148.667L173.667 149.333L173.333 148.667z"/>
<path style="fill:#0d0907; stroke:none;" d="M199.333 148.667L199.667 149.333L199.333 148.667z"/>
<path style="fill:#6b5e56; stroke:none;" d="M279 148L280 149L279 148M133 149L134 150L133 149M136 149L137 150L136 149z"/>
<path style="fill:#c97357; stroke:none;" d="M143 149L144 150L143 149z"/>
<path style="fill:#9a664c; stroke:none;" d="M144 152L148 151L148 150L144 152z"/>
<path style="fill:#6b5e56; stroke:none;" d="M132 150L133 151L132 150M138 150C131.54 156.6 126.902 163.865 125 173L119 177L126 176L131 170L138 150z"/>
<path style="fill:#c97357; stroke:none;" d="M142 150L143 151L142 150z"/>
<path style="fill:#6b5e56; stroke:none;" d="M146 150L147 151L146 150z"/>
<path style="fill:#da9e73; stroke:none;" d="M148 150L148 152L150 152L150 150L148 150z"/>
<path style="fill:#6b5e56; stroke:none;" d="M131 151L132 152L131 151z"/>
<path style="fill:#c97357; stroke:none;" d="M135 151L136 152L135 151M140 151L141 152L140 151z"/>
<path style="fill:#6b5e56; stroke:none;" d="M130.333 152.667L130.667 153.333L130.333 152.667z"/>
<path style="fill:#c97357; stroke:none;" d="M256 153L260 159L259 156C266.082 159.358 263.77 151.343 256 153z"/>
<path style="fill:#6b5e56; stroke:none;" d="M132 153L133 154L132 153z"/>
<path style="fill:#c97357; stroke:none;" d="M133 153L128 157L128 158L130 159L133 153M139 153L139 156L140 156L139 153M171 153L171 156L173 155L173 154L171 153z"/>
<path style="fill:#da9e73; stroke:none;" d="M189 153L190 157L191 157L189 153z"/>
<path style="fill:#6b5e56; stroke:none;" d="M129 154L130 155L129 154z"/>
<path style="fill:#da9e73; stroke:none;" d="M132 154L133 155L132 154z"/>
<path style="fill:#9a664c; stroke:none;" d="M142 154L143 157L144 157L145 154L142 154z"/>
<path style="fill:#6b5e56; stroke:none;" d="M178 154L179 155L178 154M128 155L129 156L128 155z"/>
<path style="fill:#9a664c; stroke:none;" d="M141 155L142 156L141 155z"/>
<path style="fill:#6b5e56; stroke:none;" d="M127 156C119.75 166.203 111.361 177.811 108 190L109 190L120.692 168L127 156z"/>
<path style="fill:#da9e73; stroke:none;" d="M130 156L131 157L130 156z"/>
<path style="fill:#c97357; stroke:none;" d="M138 156L139 157L138 156z"/>
<path style="fill:#9a664c; stroke:none;" d="M140 156L139 161L140 161L140 156M159 156L158 158L159 156z"/>
<path style="fill:#da9e73; stroke:none;" d="M129 157L130 158L129 157z"/>
<path style="fill:#9a664c; stroke:none;" d="M131 157L132 158L131 157z"/>
<path style="fill:#c97357; stroke:none;" d="M137 157L138 158L137 157M139 157L140 158L139 157z"/>
<path style="fill:#9a664c; stroke:none;" d="M146 157L145 159L146 157M192 157L188 163C191.592 162.377 193.267 160.643 192 157z"/>
<path style="fill:#da9e73; stroke:none;" d="M127 158L112 184C119.483 178.259 127.329 167.405 129 158L127 158z"/>
<path style="fill:#9a664c; stroke:none;" d="M130 158L131 159L130 158z"/>
<path style="fill:#c97357; stroke:none;" d="M138.333 158.667L138.667 159.333L138.333 158.667z"/>
<path style="fill:#da9e73; stroke:none;" d="M189 158L190 159L189 158z"/>
<path style="fill:#6b5e56; stroke:none;" d="M324 158L326 160L324 158z"/>
<path style="fill:#9a664c; stroke:none;" d="M126 159L127 160L126 159M129.333 159.667L129.667 160.333L129.333 159.667M183.333 159.667L183.667 160.333L183.333 159.667M125 160L126 161L125 160M134 160L135 161L134 160z"/>
<path style="fill:#6b5e56; stroke:none;" d="M268 161L274 166L276 161L268 161z"/>
<path style="fill:#c97357; stroke:none;" d="M128 161L129 162L128 161z"/>
<path style="fill:#0d0907; stroke:none;" d="M131 161L130 163L132 163L131 161z"/>
<path style="fill:#9a664c; stroke:none;" d="M128 162L129 163L128 162M133 162L128 175C132.363 172.245 135.044 167.023 133 162z"/>
<path style="fill:#6b5e56; stroke:none;" d="M156 162L157 163L156 162z"/>
<path style="fill:#9a664c; stroke:none;" d="M123 163L124 164L123 163z"/>
<path style="fill:#c97357; stroke:none;" d="M127 163L128 164L127 163M258 168L261 168L262 163C258.898 163.948 258.134 164.749 258 168z"/>
<path style="fill:#9a664c; stroke:none;" d="M127 164L128 165L127 164M175 164L176 165L175 164M195 164L195 168L188 171L188 176L193 174L194 170L196 171L197 170L197 164L195 164z"/>
<path style="fill:#6b5e56; stroke:none;" d="M299.667 164.333L300.333 164.667L299.667 164.333z"/>
<path style="fill:#c97357; stroke:none;" d="M126 165L127 166L126 165M143 168L146 165L143 168z"/>
<path style="fill:#9a664c; stroke:none;" d="M187 165L188 166L187 165M121 166L122 167L121 166M126 166L121 172L121 173L125 173L126 166z"/>
<path style="fill:#da9e73; stroke:none;" d="M191.333 166.667L191.667 167.333L191.333 166.667M197 166L198 167L197 166z"/>
<path style="fill:#9a664c; stroke:none;" d="M213 167C215.043 168.882 216.955 170.972 219.09 172.744C220.405 173.835 231.082 180.088 229.94 174.225C228.931 169.045 217.164 166.631 213 167z"/>
<path style="fill:#6b5e56; stroke:none;" d="M147 167L148 168L147 167z"/>
<path style="fill:#da9e73; stroke:none;" d="M180.333 167.667L180.667 168.333L180.333 167.667z"/>
<path style="fill:#c97357; stroke:none;" d="M125 168L126 169L125 168z"/>
<path style="fill:#9a664c; stroke:none;" d="M183 168L184 169L183 168M228 168L228 170L230 170L230 168L228 168M119 169L120 170L119 169z"/>
<path style="fill:#c97357; stroke:none;" d="M124 169L125 170L124 169M138.667 169.333L139.333 169.667L138.667 169.333z"/>
<path style="fill:#da9e73; stroke:none;" d="M154.333 169.667L154.667 170.333L154.333 169.667z"/>
<path style="fill:#0d0907; stroke:none;" d="M128 170L126 176C117.504 174.421 119.209 182.116 115.702 186.961C106.37 199.852 100.011 218.983 100 235C105.448 234.805 106.917 241.042 109 245L111 243L113 247L115 245L116 245L116 249L120 247L120 246L117 245L118 232L124 220L122 206L122 205L125 204L123 202L129 192L131 181L128 182L130 170L128 170z"/>
<path style="fill:#da9e73; stroke:none;" d="M133 170L134 175L133 170z"/>
<path style="fill:#9a664c; stroke:none;" d="M181 170L182 171L181 170M185 170L184 172L186 172L185 170z"/>
<path style="fill:#c97357; stroke:none;" d="M258.667 170.333L259.333 170.667L258.667 170.333z"/>
<path style="fill:#0d0907; stroke:none;" d="M298 170L299 171L298 170z"/>
<path style="fill:#9a664c; stroke:none;" d="M118 171L119 172L118 171z"/>
<path style="fill:#c97357; stroke:none;" d="M122 171L123 172L122 171z"/>
<path style="fill:#6b5e56; stroke:none;" d="M129 171L130 172L129 171z"/>
<path style="fill:#c97357; stroke:none;" d="M138 171L139 172L138 171M189.667 172.333L190.333 172.667L189.667 172.333M120 173L121 174L120 173z"/>
<path style="fill:#6b5e56; stroke:none;" d="M128 173L129 174L128 173z"/>
<path style="fill:#9a664c; stroke:none;" d="M149 173L150 174L149 173z"/>
<path style="fill:#da9e73; stroke:none;" d="M185 173L186 174L185 173z"/>
<path style="fill:#9a664c; stroke:none;" d="M264 176L271 180C269.765 176.509 267.228 171.151 264 176M116 174L117 175L116 174M175 174L171 181L180 180L180 181L176 181L170 181L169 182L171 189L178 183L172 189L168 193L168 194L174 194L175 193L173 191C176.879 188.983 178.5 186.367 178 182L182 178L180 179L180 178L181 175L175 174z"/>
<path style="fill:#c97357; stroke:none;" d="M228.333 174.667L228.667 175.333L228.333 174.667z"/>
<path style="fill:#0d0907; stroke:none;" d="M257 174L262 177L262 175L257 174z"/>
<path style="fill:#9a664c; stroke:none;" d="M119 175L120 176L119 175z"/>
<path style="fill:#6b5e56; stroke:none;" d="M127 175L129 178L127 175z"/>
<path style="fill:#9a664c; stroke:none;" d="M115 176L116 177L115 176M128 176L129 177L128 176z"/>
<path style="fill:#da9e73; stroke:none;" d="M189 176L189 178L191 176L189 176z"/>
<path style="fill:#0d0907; stroke:none;" d="M255 176L256 180L257 180L255 176z"/>
<path style="fill:#9a664c; stroke:none;" d="M118 177L119 178L118 177M114 178L115 179L114 178z"/>
<path style="fill:#c97357; stroke:none;" d="M117 178L116 180L117 178z"/>
<path style="fill:#6b5e56; stroke:none;" d="M118 178L119 179L118 178z"/>
<path style="fill:#9a664c; stroke:none;" d="M129 178L133 181L133 180L129 178z"/>
<path style="fill:#da9e73; stroke:none;" d="M135 178L136 179L135 178z"/>
<path style="fill:#6b5e56; stroke:none;" d="M178 182L173 191L173 192L178 192L170 199L170 203L176 201L176 203L181 204L181 200L191 197L189 193L190 189L193 192L198 194L192 194L193 198L194 198L195 195L198 197L206 186L204 183L194 187L192 179L184 189L180 188L186 179L178 182z"/>
<path style="fill:#9a664c; stroke:none;" d="M252 179L255 181L254 178L252 179z"/>
<path style="fill:#6b5e56; stroke:none;" d="M117 179L112 190C116.554 187.794 118.302 183.922 117 179M128 179L132 182L128 179M299.667 179.333L300.333 179.667L299.667 179.333z"/>
<path style="fill:#0d0907; stroke:none;" d="M247 180L243 187L247 190L250 187L251 187C254.592 191.361 257.607 191.633 263 191L255 186L252 188L253 183L249 180L247 180M259 180L258 182L259 180z"/>
<path style="fill:#9a664c; stroke:none;" d="M115 181L116 182L115 181z"/>
<path style="fill:#c97357; stroke:none;" d="M114 182L115 183L114 182z"/>
<path style="fill:#9a664c; stroke:none;" d="M131 182L131 185L132 185L131 182z"/>
<path style="fill:#0d0907; stroke:none;" d="M234 182L235 183L234 182z"/>
<path style="fill:#c97357; stroke:none;" d="M113 183L111 187L112 187L113 183z"/>
<path style="fill:#6b5e56; stroke:none;" d="M130 183L129 192L123 202L123 203C124.169 204.972 124.297 204.694 122 205L122 206L124 207L124 208C121.318 210.734 121.956 216.965 124 220L118 232C118 235.92 115.562 245.462 120 246L120 247L116 249L116 245L115 245L113 247C112.256 244.229 111.542 243.5 109 245C107.323 240.211 105.72 235.341 100 235L100 227L99 227L99 244L105 242L106 248L107 248L109 246C110.038 249.531 111.897 249.398 115 248C116.982 251.994 117.795 254 114 257L115 253C110.322 257.088 114.894 262.808 117 267L114 266L113 277L116 275L117 280L123 281L124 276L119 277L117 272L129 261L131 254L131 252L126 255L123 253L121 259L120 259C119.796 254.234 118.515 250.734 122 247L119 241L121 235L122 235L122 242C127.108 240.934 131.259 240.857 134 236L139 245L138 238L140 237L143 238L144 229L145 229L149 235L153 232L153 231L145 213C149.339 210.787 153.01 203.608 146.887 200.862C143.579 199.379 139.45 200.728 136 201L136 195C133.007 195.064 131.654 194.946 131 198L132 198L134 196L134 209L145 220L145 226L139 230L136 225L137 223L130 221L131 204L130 204L125 208L124 202C128.282 197.89 132.09 188.886 130 183z"/>
<path style="fill:#c97357; stroke:none;" d="M184 183L181 188L184 183M210 183L208 187L210 183z"/>
<path style="fill:#0d0907; stroke:none;" d="M263.333 183.667L263.667 184.333L263.333 183.667z"/>
<path style="fill:#9a664c; stroke:none;" d="M111 184L112 185L111 184M113 184L114 185L113 184z"/>
<path style="fill:#0d0907; stroke:none;" d="M269 184L268 187L269 184z"/>
<path style="fill:#9a664c; stroke:none;" d="M112.333 185.667L112.667 186.333L112.333 185.667M168 185L169 186L168 185z"/>
<path style="fill:#0d0907; stroke:none;" d="M232 185L232 189L233 189L235 185L232 185z"/>
<path style="fill:#6b5e56; stroke:none;" d="M246.333 185.667L246.667 186.333L246.333 185.667z"/>
<path style="fill:#9a664c; stroke:none;" d="M110 186L111 189C105.916 189.69 104.52 200.607 105 205L106 205C106.545 198.806 114.449 191.058 110 186M145 186L146 191L147 191L147 186L145 186z"/>
<path style="fill:#da9e73; stroke:none;" d="M110 187L111 188L110 187z"/>
<path style="fill:#9a664c; stroke:none;" d="M130.333 187.667L130.667 188.333L130.333 187.667z"/>
<path style="fill:#da9e73; stroke:none;" d="M131 187L132 188L131 187z"/>
<path style="fill:#9a664c; stroke:none;" d="M180 187L181 188L180 187M183 187L181 188L181 189L183 187M235 187L235 193L239 191L239 190L235 187z"/>
<path style="fill:#6b5e56; stroke:none;" d="M259 187L256 188L259 191L259 187M271 187L270 190L273 190L271 187z"/>
<path style="fill:#c97357; stroke:none;" d="M110 188L111 189L110 188z"/>
<path style="fill:#9a664c; stroke:none;" d="M216 188L216 189L221 189L216 188M129 189L130 190L129 189z"/>
<path style="fill:#da9e73; stroke:none;" d="M148 189L151 193L148 189z"/>
<path style="fill:#9a664c; stroke:none;" d="M130 190L124 203L129 196L130 196L125 208L130 204L131 204L130 221L137 223L136 225L139 230L145 226L145 220L134 209L134 196L132 198L131 198L136 195L136 201C142.467 200.723 146.281 199.791 151 205L152 205L152 201L144 197L143 197L142 197L137 200C136.868 195.985 136.505 193.312 132 194L130 190M143 190L139 193L146 196L143 190z"/>
<path style="fill:#6b5e56; stroke:none;" d="M107.333 191.667L107.667 192.333L107.333 191.667M111 191L106 205L107 205L111 191M172 192L167 197L172 192z"/>
<path style="fill:#c97357; stroke:none;" d="M167 206L168 206L167 203L177 192C170.518 194.563 165.859 198.673 167 206z"/>
<path style="fill:#9a664c; stroke:none;" d="M177 192L178 193L177 192M181 192L182 193L181 192M185 192L185 195L187 194L187 193L185 192z"/>
<path style="fill:#6b5e56; stroke:none;" d="M273.333 192.667L273.667 193.333L273.333 192.667M106.333 193.667L106.667 194.333L106.333 193.667z"/>
<path style="fill:#c97357; stroke:none;" d="M205 193L203 197L210 199L211 195L207 196L205 193z"/>
<path style="fill:#0d0907; stroke:none;" d="M264 193L265 194L264 193M269 193L270 194L269 193z"/>
<path style="fill:#9a664c; stroke:none;" d="M175 194L175 196L177 196L177 194L175 194z"/>
<path style="fill:#0d0907; stroke:none;" d="M225 194L226 195L225 194z"/>
<path style="fill:#6b5e56; stroke:none;" d="M290 194L291 195L290 194M164 195L165 198L162 197L163 201C165.11 198.937 166.417 197.228 164 195M105 196L104 201L105 201L105 196z"/>
<path style="fill:#c97357; stroke:none;" d="M129 196L128 203L126 205L128 200L129 196z"/>
<path style="fill:#9a664c; stroke:none;" d="M174 196L175 197L174 196M229 196L230 197L229 196M171 199L174 197L171 199z"/>
<path style="fill:#6b5e56; stroke:none;" d="M194 198L195 201L197 198L194 198z"/>
<path style="fill:#0d0907; stroke:none;" d="M246 199L247 200L246 199z"/>
<path style="fill:#da9e73; stroke:none;" d="M128 200L129 201L128 200z"/>
<path style="fill:#0d0907; stroke:none;" d="M240 200L241 201L240 200M250 200L251 201L250 200z"/>
<path style="fill:#6b5e56; stroke:none;" d="M103 201C98.748 219.379 95 235.942 95 255L96 255L99.5756 220L103 201z"/>
<path style="fill:#da9e73; stroke:none;" d="M127.333 201.667L127.667 202.333L127.333 201.667z"/>
<path style="fill:#9a664c; stroke:none;" d="M153 201L152 203L154 203L153 201z"/>
<path style="fill:#6b5e56; stroke:none;" d="M159 201L163 204L159 201z"/>
<path style="fill:#9a664c; stroke:none;" d="M211 201L212 202L211 201z"/>
<path style="fill:#c97357; stroke:none;" d="M104 202L105 203L104 202z"/>
<path style="fill:#0d0907; stroke:none;" d="M259 204L259 208L262 212L267 211L259 223L261 211L254 214L254 218L249 218L254 223L256 229L257 229L268 223L265 221C268.822 215.562 270.411 208.362 262 207L262 206L265 202L259 204z"/>
<path style="fill:#da9e73; stroke:none;" d="M104 203L103 207L104 207L104 203M167 203L168 204L167 203z"/>
<path style="fill:#0d0907; stroke:none;" d="M236 203L235 205L237 205L236 203z"/>
<path style="fill:#9a664c; stroke:none;" d="M243 203L244 204L243 203z"/>
<path style="fill:#0d0907; stroke:none;" d="M250 203L250 205L252 203L250 203z"/>
<path style="fill:#9a664c; stroke:none;" d="M103 204L104 205L103 204M153.667 204.333L154.333 204.667L153.667 204.333z"/>
<path style="fill:#da9e73; stroke:none;" d="M154 207L155 208L157 206L158 206L160 208L161 205L160 204L154 207z"/>
<path style="fill:#c97357; stroke:none;" d="M160 204L161 205L160 204z"/>
<path style="fill:#6b5e56; stroke:none;" d="M163 204L164 205L163 204z"/>
<path style="fill:#c97357; stroke:none;" d="M183 205C186.297 210.624 191.497 207.829 196 205L183 205z"/>
<path style="fill:#0d0907; stroke:none;" d="M270 204L269 207L270 204z"/>
<path style="fill:#6b5e56; stroke:none;" d="M105 205L100 226L101 226L105 205z"/>
<path style="fill:#9a664c; stroke:none;" d="M150 205L150 209L151 209L150 205z"/>
<path style="fill:#c97357; stroke:none;" d="M172 206L172 207L175 207L175 208L173 211L178 211L178 210L174 210L181 208L181 209L179 209L179 210L183 209L183 208L178 205L172 206z"/>
<path style="fill:#6b5e56; stroke:none;" d="M261 205L262 206L261 205z"/>
<path style="fill:#c97357; stroke:none;" d="M104 206L103 209L104 209L104 206M160.333 206.667L160.667 207.333L160.333 206.667M165 206L162 211L162 212L172 211L165 206z"/>
<path style="fill:#da9e73; stroke:none;" d="M189 206L190 207L189 206z"/>
<path style="fill:#6b5e56; stroke:none;" d="M282 206L279 210L283 210L282 206z"/>
<path style="fill:#9a664c; stroke:none;" d="M102 207L104 210L102 207M104 207L105 208L104 207z"/>
<path style="fill:#da9e73; stroke:none;" d="M174 210L181 209L174 210z"/>
<path style="fill:#9a664c; stroke:none;" d="M210 208L214 211L210 208z"/>
<path style="fill:#6b5e56; stroke:none;" d="M284 208L285 209L284 208z"/>
<path style="fill:#da9e73; stroke:none;" d="M102 209L103 210L102 209z"/>
<path style="fill:#9a664c; stroke:none;" d="M138 209L139 210L138 209M149.333 209.667L149.667 210.333L149.333 209.667z"/>
<path style="fill:#6b5e56; stroke:none;" d="M190 210L194 213L195 209L190 210M196 209L197 210L196 209z"/>
<path style="fill:#9a664c; stroke:none;" d="M208 209L209 210L208 209z"/>
<path style="fill:#0d0907; stroke:none;" d="M246 209L247 210L246 209z"/>
<path style="fill:#c97357; stroke:none;" d="M102 210L103 211L102 210M132 210L133 214L134 214L132 210z"/>
<path style="fill:#9a664c; stroke:none;" d="M101 211L100 218L101 218L103 211L101 211M147 211L145 213L148 223L149 223L149 211L147 211z"/>
<path style="fill:#da9e73; stroke:none;" d="M163 211L160 219L161 219L163 211z"/>
<path style="fill:#9a664c; stroke:none;" d="M206 211L207 212L206 211z"/>
<path style="fill:#c97357; stroke:none;" d="M165 212L166 213L165 212z"/>
<path style="fill:#6b5e56; stroke:none;" d="M177 212L177 214L179 212L177 212M195.667 212.333L196.333 212.667L195.667 212.333z"/>
<path style="fill:#9a664c; stroke:none;" d="M204 212L205 213L204 212z"/>
<path style="fill:#c97357; stroke:none;" d="M135 213L139 226C143.405 223.5 141.491 220.331 141 216L135 213z"/>
<path style="fill:#6b5e56; stroke:none;" d="M171 213L171 216L173 213L171 213z"/>
<path style="fill:#9a664c; stroke:none;" d="M238 213L239 214L238 213z"/>
<path style="fill:#da9e73; stroke:none;" d="M152 215L156 218L155 214L152 215z"/>
<path style="fill:#c97357; stroke:none;" d="M133 215L131 219L133 215z"/>
<path style="fill:#da9e73; stroke:none;" d="M166 215L165 217L167 217L166 215z"/>
<path style="fill:#9a664c; stroke:none;" d="M179 215L180 216L179 215M199 215L200 216L199 215z"/>
<path style="fill:#da9e73; stroke:none;" d="M157 216L158 217L157 216z"/>
<path style="fill:#6b5e56; stroke:none;" d="M174 216L175 217L174 216z"/>
<path style="fill:#0d0907; stroke:none;" d="M244 216L247 218L244 216z"/>
<path style="fill:#9a664c; stroke:none;" d="M138 217L139 218L138 217z"/>
<path style="fill:#da9e73; stroke:none;" d="M167 217L168 218L167 217z"/>
<path style="fill:#0d0907; stroke:none;" d="M224.667 217.333L225.333 217.667L224.667 217.333z"/>
<path style="fill:#c97357; stroke:none;" d="M100.333 218.667L100.667 219.333L100.333 218.667z"/>
<path style="fill:#6b5e56; stroke:none;" d="M174 218L176 220L174 218z"/>
<path style="fill:#9a664c; stroke:none;" d="M180.333 218.667L180.667 219.333L180.333 218.667z"/>
<path style="fill:#6b5e56; stroke:none;" d="M251 218L252 219L251 218z"/>
<path style="fill:#9a664c; stroke:none;" d="M99 220L98 228L99 228L101 220L99 220z"/>
<path style="fill:#da9e73; stroke:none;" d="M138 220L141 225L138 220M156 220L157 221L156 220z"/>
<path style="fill:#c97357; stroke:none;" d="M170 220C171.807 223.278 175.138 225.254 178 222L170 220z"/>
<path style="fill:#0d0907; stroke:none;" d="M224.667 220.333L225.333 220.667L224.667 220.333z"/>
<path style="fill:#da9e73; stroke:none;" d="M172 222L172 223L175 223L172 222z"/>
<path style="fill:#9a664c; stroke:none;" d="M232 222L232 224L234 224L232 222M151 223L151 226L152 226L151 223M230 223L231 224L230 223z"/>
<path style="fill:#0d0907; stroke:none;" d="M249 223L250 224L249 223z"/>
<path style="fill:#da9e73; stroke:none;" d="M172 224L173 225L172 224z"/>
<path style="fill:#0d0907; stroke:none;" d="M224 224L225 225L224 224z"/>
<path style="fill:#c97357; stroke:none;" d="M172.667 225.333L173.333 225.667L172.667 225.333z"/>
<path style="fill:#da9e73; stroke:none;" d="M150 226L151 227L150 226z"/>
<path style="fill:#0d0907; stroke:none;" d="M265 226L265 229L267 229L267 226L265 226M130 227L131 228L130 227z"/>
<path style="fill:#c97357; stroke:none;" d="M98.3333 228.667L98.6667 229.333L98.3333 228.667z"/>
<path style="fill:#0d0907; stroke:none;" d="M126 228L125 235L128 235L129 228L126 228z"/>
<path style="fill:#c97357; stroke:none;" d="M156 228L155 232L156 234L161 233L161 232L156 228z"/>
<path style="fill:#0d0907; stroke:none;" d="M223.667 228.333L224.333 228.667L223.667 228.333M244 228L244 230L246 230L246 228L244 228z"/>
<path style="fill:#9a664c; stroke:none;" d="M142 229L143 230L142 229z"/>
<path style="fill:#0d0907; stroke:none;" d="M241 229L242 230L241 229z"/>
<path style="fill:#9a664c; stroke:none;" d="M97 230L98 236L99 236L99 230L97 230M162 232L165 230L162 232M148.333 231.667L148.667 232.333L148.333 231.667z"/>
<path style="fill:#0d0907; stroke:none;" d="M236 232L239 235L236 232M240 232L241 233L240 232z"/>
<path style="fill:#c97357; stroke:none;" d="M97.3333 233.667L97.6667 234.333L97.3333 233.667z"/>
<path style="fill:#9a664c; stroke:none;" d="M167 233L168 234L167 233z"/>
<path style="fill:#0d0907; stroke:none;" d="M214 233L212 239L209 237L210 240L205 241L207 244L204 245L204 246L207 246L207 247L206 253L209 252L210 253L210 257L208 257L209 260L200 259L202 261L202 262L194 261L194 262L201 270L202 270L204 269L203 265L206 262L209 263L218 247C221.423 247.579 222.865 247.397 224 244L220 246L223 243L219 240L221 238L221 237L215 238L218 235L214 233z"/>
<path style="fill:#c97357; stroke:none;" d="M153 234L146 238L146 235L143 236L145 240L144 240L140 239L140 240L143 240L139 251L131 246L138 258L138 254L139 254L139 256L140 256C139.966 249.538 143.098 244.029 150 246L150 242L146 239L150 238L151 238L153 240L152 237L153 234z"/>
<path style="fill:#da9e73; stroke:none;" d="M154 234L153 240L151 238L150 238L146 239L151 245L151 242L158 246L160 240L161 240C160.421 243.423 160.603 244.865 164 246L163 234L160 236L154 234z"/>
<path style="fill:#c97357; stroke:none;" d="M163 234L164 235L163 234z"/>
<path style="fill:#da9e73; stroke:none;" d="M97 235L97 247L98 247L97 235z"/>
<path style="fill:#9a664c; stroke:none;" d="M121 235L119 241L122 247L119 254L120 254L125 248C125.095 242.027 131.566 239.639 137 239L134 236L122 242L121 235z"/>
<path style="fill:#6b5e56; stroke:none;" d="M144 235L145 236L144 235z"/>
<path style="fill:#c97357; stroke:none;" d="M160.667 235.333L161.333 235.667L160.667 235.333z"/>
<path style="fill:#6b5e56; stroke:none;" d="M146 236L147 237L146 236z"/>
<path style="fill:#9a664c; stroke:none;" d="M98.3333 237.667L98.6667 238.333L98.3333 237.667M140 237L143 239L143 238L140 237M143 237L144 238L143 237z"/>
<path style="fill:#da9e73; stroke:none;" d="M144 237L144 240L145 240L144 237z"/>
<path style="fill:#c97357; stroke:none;" d="M135.333 238.667L135.667 239.333L135.333 238.667z"/>
<path style="fill:#9a664c; stroke:none;" d="M138 238L139 245L136 240L135 240L136 245L132 245L135 250L139 251L143 240L138 238z"/>
<path style="fill:#c97357; stroke:none;" d="M133 239L134 240L133 239z"/>
<path style="fill:#da9e73; stroke:none;" d="M134 239L125 244L129 251L134 251L131 247L131 246L136 245L134 243L134 239z"/>
<path style="fill:#c97357; stroke:none;" d="M165 239L165 243L166 243L165 239z"/>
<path style="fill:#9a664c; stroke:none;" d="M168 239L171 241L168 239z"/>
<path style="fill:#0d0907; stroke:none;" d="M229 239L230 240L229 239z"/>
<path style="fill:#6b5e56; stroke:none;" d="M267 239L268 240L267 239z"/>
<path style="fill:#c97357; stroke:none;" d="M160 240L158 247L161 246L160 240z"/>
<path style="fill:#6b5e56; stroke:none;" d="M251 240L251 243L252 243L253 240L251 240z"/>
<path style="fill:#9a664c; stroke:none;" d="M96 241L97 269L98 269L102 265L104 271L105 271L101 258L100 258L100 261L99 261L99 256L101 257L101 252L100 252L99 255C97.9756 251.927 96.9451 249.236 100 250L101 243L102 243L102 247C105.325 247.445 104.249 250.174 104 253L105 253L107 248L109 255L112 252L115 253L114 257C118.535 254.624 117.59 251.734 115 248C111.865 249.093 110.524 249.051 109 246L107 248L106 248L105 242L99 242L98 242L98 249L97 249L96 241z"/>
<path style="fill:#6b5e56; stroke:none;" d="M116 241L117 242L116 241z"/>
<path style="fill:#c97357; stroke:none;" d="M125 244L130 243L125 244M131 241L132 242L131 241z"/>
<path style="fill:#0d0907; stroke:none;" d="M233 241L233 242L237 243L237 242L233 241z"/>
<path style="fill:#6b5e56; stroke:none;" d="M246 241L246 242L249 243L246 241z"/>
<path style="fill:#da9e73; stroke:none;" d="M144 242L143 244L145 244L144 242z"/>
<path style="fill:#c97357; stroke:none;" d="M151 242L151 243L155 245L151 242M101 243L100 245L101 243z"/>
<path style="fill:#6b5e56; stroke:none;" d="M115 243L117 245L117 243L115 243z"/>
<path style="fill:#c97357; stroke:none;" d="M164.333 243.667L164.667 244.333L164.333 243.667z"/>
<path style="fill:#da9e73; stroke:none;" d="M101 244C98.9728 251.056 100.397 262.851 106 268L107 265L112 269L112 254L111 254L109 256L108 251L105 254L104 254L101 244z"/>
<path style="fill:#c97357; stroke:none;" d="M124 244L125 254L126 254L129 250L129 249L124 244M133 244L134 245L133 244M151 244L152 245L151 244M156 245L157 246L156 245z"/>
<path style="fill:#6b5e56; stroke:none;" d="M99 246L100 247L99 246z"/>
<path style="fill:#c97357; stroke:none;" d="M103 246L102 247L105 250L103 246M161 246L161 247L164 247L161 246z"/>
<path style="fill:#0d0907; stroke:none;" d="M233 246L234 247L233 246z"/>
<path style="fill:#c97357; stroke:none;" d="M97.3333 247.667L97.6667 248.333L97.3333 247.667M107 248L106 251L108 255L109 255L107 248M122 248L122 256L124 253L122 248z"/>
<path style="fill:#da9e73; stroke:none;" d="M123 248L125 253L123 248z"/>
<path style="fill:#6b5e56; stroke:none;" d="M135 248L136 249L135 248z"/>
<path style="fill:#da9e73; stroke:none;" d="M141 248L140 256L141 256L141 248z"/>
<path style="fill:#0d0907; stroke:none;" d="M235 248L236 249L235 248z"/>
<path style="fill:#6b5e56; stroke:none;" d="M241 248L242 249L241 248M98 249L99 255L100 255L98 249z"/>
<path style="fill:#c97357; stroke:none;" d="M142 249L142 252L143 252L142 249z"/>
<path style="fill:#9a664c; stroke:none;" d="M160.333 249.667L160.667 250.333L160.333 249.667z"/>
<path style="fill:#0d0907; stroke:none;" d="M221 249L221 251L223 251L223 249L221 249z"/>
<path style="fill:#6b5e56; stroke:none;" d="M244 249L253 253L253 252L244 249M252 249L253 250L252 249z"/>
<path style="fill:#c97357; stroke:none;" d="M114.333 250.667L114.667 251.333L114.333 250.667z"/>
<path style="fill:#9a664c; stroke:none;" d="M126 253L129 250L126 253z"/>
<path style="fill:#c97357; stroke:none;" d="M131 250L132 251L131 250M100 251L101 252L100 251z"/>
<path style="fill:#9a664c; stroke:none;" d="M129 251L129 252L131 254L128 259L129 259L131 256L125 262L125 263L130 262L133 265L130 262L132 252L133 252L134 256L135 256L134 251L129 251z"/>
<path style="fill:#0d0907; stroke:none;" d="M234 251L233 253L235 253L234 251z"/>
<path style="fill:#c97357; stroke:none;" d="M105 252L106 253L105 252M112 252L113 255L112 252M116.333 252.667L116.667 253.333L116.333 252.667z"/>
<path style="fill:#6b5e56; stroke:none;" d="M132 252L130 262L135 264L132 252z"/>
<path style="fill:#da9e73; stroke:none;" d="M136 252L137 253L136 252z"/>
<path style="fill:#0d0907; stroke:none;" d="M223 252L222 256L223 256L223 252z"/>
<path style="fill:#6b5e56; stroke:none;" d="M243 252L246 255L246 254L243 252z"/>
<path style="fill:#c97357; stroke:none;" d="M104 253L105 254L104 253z"/>
<path style="fill:#9a664c; stroke:none;" d="M122.333 253.667L122.667 254.333L122.333 253.667M124 253L125 254L124 253z"/>
<path style="fill:#c97357; stroke:none;" d="M141 253L142 254L141 253z"/>
<path style="fill:#6b5e56; stroke:none;" d="M143 253L141 261C145.046 259.657 144.953 256.935 145 253L143 253z"/>
<path style="fill:#c97357; stroke:none;" d="M154 253L153 258L145 260L149 268L144 272L141 270L145 274L152 268L152 267L146 261L150 262L150 259C152.247 263.5 153.831 264.835 159 265L159 264C150.752 262.538 156.179 259.497 158 256L159 256C159.347 260.399 160.991 262.246 165 264L159 255L156 256L158 254L154 253z"/>
<path style="fill:#0d0907; stroke:none;" d="M195 253L198 255L198 254L195 253z"/>
<path style="fill:#6b5e56; stroke:none;" d="M211 253L212 254L211 253z"/>
<path style="fill:#da9e73; stroke:none;" d="M121 254L122 255L121 254z"/>
<path style="fill:#9a664c; stroke:none;" d="M125 254L126 255L125 254z"/>
<path style="fill:#da9e73; stroke:none;" d="M156 254L156 256L158 256L158 254L156 254z"/>
<path style="fill:#c97357; stroke:none;" d="M109.667 255.333L110.333 255.667L109.667 255.333z"/>
<path style="fill:#9a664c; stroke:none;" d="M112 255L112 260L113 260L112 255z"/>
<path style="fill:#0d0907; stroke:none;" d="M216 255L214 259L216 255M228.333 255.667L228.667 256.333L228.333 255.667z"/>
<path style="fill:#6b5e56; stroke:none;" d="M248 255L249 256L248 255z"/>
<path style="fill:#c97357; stroke:none;" d="M99 256L99 261L100 261L99 256z"/>
<path style="fill:#9a664c; stroke:none;" d="M120 256L120 259L121 259L122 256L120 256z"/>
<path style="fill:#c97357; stroke:none;" d="M129.667 256.333L130.333 256.667L129.667 256.333z"/>
<path style="fill:#da9e73; stroke:none;" d="M136 256L137 257L136 256M158 256C153.642 259.261 152.365 262.941 159 264L159 265L146 261L152 267L152 268C148.062 268.818 146.532 270.307 145 274L141 270L144 272L145 269L144 263L143 263L139 266L138 269L130 262L129 262L126 263L126 279L130 277L129 273L134 270L135 270C136.361 280.05 143.995 283.553 151 275L169 279L169 268L175 268L172 278C176.677 279.066 180.992 281.024 182 275L187 275C179.756 267.238 172.701 261.215 162 259L165 264L158 256z"/>
<path style="fill:#0d0907; stroke:none;" d="M191 256L190 258L192 258L191 256z"/>
<path style="fill:#da9e73; stroke:none;" d="M129 257L129 259L131 259L131 257L129 257z"/>
<path style="fill:#0d0907; stroke:none;" d="M218 257L215 264L223 257L218 257M115 258L116 259L115 258M117.667 258.333L118.333 258.667L117.667 258.333z"/>
<path style="fill:#6b5e56; stroke:none;" d="M210 258L211 259L210 258M219.667 258.333L220.333 258.667L219.667 258.333z"/>
<path style="fill:#0d0907; stroke:none;" d="M227.333 258.667L227.667 259.333L227.333 258.667z"/>
<path style="fill:#c97357; stroke:none;" d="M129.667 259.333L130.333 259.667L129.667 259.333M138 259L141 266L142 266L144 262L139 262L140 259L138 259z"/>
<path style="fill:#9a664c; stroke:none;" d="M150 259L152 262L150 259z"/>
<path style="fill:#c97357; stroke:none;" d="M164 259L165 260L164 259M101 260L102 261L101 260M112 260L113 261L112 260z"/>
<path style="fill:#0d0907; stroke:none;" d="M116 260L115 262L116 260M118 260L119 265L124 263L124 262L120 263L118 260z"/>
<path style="fill:#da9e73; stroke:none;" d="M139.333 260.667L139.667 261.333L139.333 260.667z"/>
<path style="fill:#c97357; stroke:none;" d="M168 260L169 261L168 260z"/>
<path style="fill:#6b5e56; stroke:none;" d="M100 261L100 264L101 264L100 261z"/>
<path style="fill:#9a664c; stroke:none;" d="M113 261L112 270L107 266L105 277L107 277L107 269C112.54 274.886 112.001 279.552 121 282L116 284L116 288L119 288L119 284L122 285L122 296L117 290L116 290L117 297L122 298C123.133 293.069 121.045 287.759 126 285L125 289L127 283L128 283L138 295L135 296C138.982 300.3 143.996 304.327 150 304L158 297C160.883 300.552 165.291 299.971 169 298L169 297L165 291L164 291L166 299L162 295L161 298L159 298L158 295L148.99 299.958L129 284L128 280L127 280L124 283C124.845 278.534 127.792 274.738 123 272L124 267L117 272L119 277L124 276L123 281L117 280L116 275L113 277L114 266L117 267L113 261z"/>
<path style="fill:#c97357; stroke:none;" d="M171 261L171 262L175 264L171 261z"/>
<path style="fill:#9a664c; stroke:none;" d="M173 261L174 262L173 261z"/>
<path style="fill:#0d0907; stroke:none;" d="M186 261L188 263L186 261M219 261L220 262L219 261z"/>
<path style="fill:#c97357; stroke:none;" d="M97 262L97 265L98 265L97 262M128 262L127 264L129 264L128 262z"/>
<path style="fill:#da9e73; stroke:none;" d="M135 262L136 263L135 262z"/>
<path style="fill:#c97357; stroke:none;" d="M136 262L136 265L137 265L136 262z"/>
<path style="fill:#9a664c; stroke:none;" d="M174 262L174 263C178.559 265.641 192.299 276.715 181.984 280.215C177.621 281.695 169.971 279.608 165 280L165 281L186 285L189 281C187.98 272.147 183.415 264.45 174 262z"/>
<path style="fill:#c97357; stroke:none;" d="M102 263L103 264L102 263M125 263L126 264L125 263M130.333 263.667L130.667 264.333L130.333 263.667z"/>
<path style="fill:#6b5e56; stroke:none;" d="M198 263L199 264L198 263z"/>
<path style="fill:#0d0907; stroke:none;" d="M226 263L226 264L232 266L226 263z"/>
<path style="fill:#c97357; stroke:none;" d="M113 264L114 265L113 264z"/>
<path style="fill:#9a664c; stroke:none;" d="M124.333 264.667L124.667 265.333L124.333 264.667z"/>
<path style="fill:#c97357; stroke:none;" d="M133 264L134 265L133 264M143 264L144 265L143 264M177 264L178 265L177 264z"/>
<path style="fill:#0d0907; stroke:none;" d="M210 264L209 266L210 264z"/>
<path style="fill:#c97357; stroke:none;" d="M107 265L108 266L107 265M132 265L133 266L132 265M134 265L135 266L134 265M178 265L180 269L181 268L178 265z"/>
<path style="fill:#0d0907; stroke:none;" d="M213 265L213 267L215 267L213 265z"/>
<path style="fill:#c97357; stroke:none;" d="M99 266L99 270L101 266L99 266M103 266L105 268L105 266L103 266M106 266L107 267L106 266M112 266L113 267L112 266M124.333 266.667L124.667 267.333L124.333 266.667M136 266L139 268L136 266M140 266L141 267L140 266M142 266L143 267L142 266z"/>
<path style="fill:#6b5e56; stroke:none;" d="M144.333 266.667L144.667 267.333L144.333 266.667z"/>
<path style="fill:#9a664c; stroke:none;" d="M101.333 267.667L101.667 268.333L101.333 267.667z"/>
<path style="fill:#c97357; stroke:none;" d="M108 267L109 268L108 267M126 267L126 269L128 269L126 267z"/>
<path style="fill:#9a664c; stroke:none;" d="M206 267C204.504 269.376 203.748 271.111 201 270L200 270L200 274L207 276L206 267M248 267L247 271L248 267M253 267L253 269L255 269L255 267L253 267M260 270L264 273L268 267L260 270z"/>
<path style="fill:#c97357; stroke:none;" d="M105 268L105 273L106 273L105 268M110 268L110 270L112 270L110 268M123 268L124 269L123 268M143 268L144 269L143 268M169 268L169 279L163 278L163 279L175 279L175 278L172 278L175 268L169 268z"/>
<path style="fill:#0d0907; stroke:none;" d="M211 268L210 271L211 268z"/>
<path style="fill:#da9e73; stroke:none;" d="M98 269L98 273L99 273L98 269z"/>
<path style="fill:#9a664c; stroke:none;" d="M100 269L99 271L101 271L100 269z"/>
<path style="fill:#c97357; stroke:none;" d="M124 269L126 273L124 269M180.333 269.667L180.667 270.333L180.333 269.667z"/>
<path style="fill:#0d0907; stroke:none;" d="M193 269L190 273L193 269z"/>
<path style="fill:#6b5e56; stroke:none;" d="M299 269L298 273L302 269L299 269z"/>
<path style="fill:#c97357; stroke:none;" d="M134 270L129 273L130 277L126 279L126 273L124 283L127 280L133 282L129 283L129 284L142 293L139 289L143 290L146 280L160 287L149 279L160 277L160 276L151 275L139 280L139 281L141 284L145 282L143 287L135 282L133 273L137 278L134 270z"/>
<path style="fill:#0d0907; stroke:none;" d="M242 270L243 271L242 270z"/>
<path style="fill:#c97357; stroke:none;" d="M99.3333 271.667L99.6667 272.333L99.3333 271.667M128 271L129 272L128 271M157 271L164 273L164 272L157 271M181 271L181 272L184 272L181 271z"/>
<path style="fill:#0d0907; stroke:none;" d="M268 271L269 272L268 271z"/>
<path style="fill:#c97357; stroke:none;" d="M111 272L112 273L111 272M120 272L122 275L120 272z"/>
<path style="fill:#9a664c; stroke:none;" d="M172 272L172 275L173 275L172 272z"/>
<path style="fill:#c97357; stroke:none;" d="M185 272L186 273L185 272z"/>
<path style="fill:#9a664c; stroke:none;" d="M195 272L198 274L198 273L195 272z"/>
<path style="fill:#0d0907; stroke:none;" d="M226.667 272.333L227.333 272.667L226.667 272.333z"/>
<path style="fill:#9a664c; stroke:none;" d="M98 273L98 276L99 276L100 273L98 273M133 273C133.712 278.877 137.086 285.114 143 287L145 282L141 284L133 273z"/>
<path style="fill:#c97357; stroke:none;" d="M186 273L187 274L186 273z"/>
<path style="fill:#0d0907; stroke:none;" d="M254 273L254 274L257 274L254 273z"/>
<path style="fill:#9a664c; stroke:none;" d="M273 273L273 275L275 273L273 273z"/>
<path style="fill:#da9e73; stroke:none;" d="M99 274L102 292L103 292C103.056 285.191 103.823 279.491 99 274z"/>
<path style="fill:#c97357; stroke:none;" d="M187 274L182 275C180.788 278.906 178.907 279.202 175 279L175 280C179.802 281.13 187.929 280.884 187 274z"/>
<path style="fill:#9a664c; stroke:none;" d="M271 274L268 276L268 277L271 274M100 275L100 276L102 279L103 279L100 275z"/>
<path style="fill:#c97357; stroke:none;" d="M101 276L102 277L101 276M115 276L115 279L116 279L115 276z"/>
<path style="fill:#6b5e56; stroke:none;" d="M235 276L235 280L236 280L238 276L235 276z"/>
<path style="fill:#da9e73; stroke:none;" d="M115 277L116 278L115 277z"/>
<path style="fill:#9a664c; stroke:none;" d="M149 279L158 284L158 283L153 281L154 278L161 278L149 279z"/>
<path style="fill:#c97357; stroke:none;" d="M161 277L162 278L161 277z"/>
<path style="fill:#0d0907; stroke:none;" d="M214 277L215 280L220 280L220 279L214 277M223 277L224 278L223 277M261.667 277.333L262.333 277.667L261.667 277.333z"/>
<path style="fill:#9a664c; stroke:none;" d="M146.667 278.333L147.333 278.667L146.667 278.333M162 278L163 279L162 278z"/>
<path style="fill:#0d0907; stroke:none;" d="M198 278L199 279L198 278z"/>
<path style="fill:#9a664c; stroke:none;" d="M268 278L269 279L268 278z"/>
<path style="fill:#c97357; stroke:none;" d="M102 279L104 282L102 279M137 279L138 280L137 279z"/>
<path style="fill:#9a664c; stroke:none;" d="M163 279L164 280L163 279M103 280L104 281L103 280z"/>
<path style="fill:#da9e73; stroke:none;" d="M129 280C129.614 282.851 130.303 282.854 133 282L129 280M146 280L143 290L139 289C141.84 293.129 143.243 299.251 149 297L150 300C152.73 298.63 162.144 294.003 162.534 290.912C163.13 286.192 149.584 281.356 146 280z"/>
<path style="fill:#0d0907; stroke:none;" d="M161 280L162 281L161 280M110.333 281.667L110.667 282.333L110.333 281.667z"/>
<path style="fill:#da9e73; stroke:none;" d="M135 281L136 282L135 281z"/>
<path style="fill:#0d0907; stroke:none;" d="M105 282L106 283L105 282z"/>
<path style="fill:#da9e73; stroke:none;" d="M136 282L138 289L136 282z"/>
<path style="fill:#0d0907; stroke:none;" d="M219 282L214 285L214 286L221 282L219 282z"/>
<path style="fill:#9a664c; stroke:none;" d="M104 283L103 286L106 290L107 290L108 288L108 287L104 283M107 283L109 288L110 288L107 283M134 283L135 284L134 283z"/>
<path style="fill:#c97357; stroke:none;" d="M103 284L104 285L103 284M119 284L116 290L122 292L119 284z"/>
<path style="fill:#9a664c; stroke:none;" d="M158 284L159 285L158 284z"/>
<path style="fill:#0d0907; stroke:none;" d="M212 284L213 285L212 284z"/>
<path style="fill:#9a664c; stroke:none;" d="M100 285L101 286L100 285z"/>
<path style="fill:#c97357; stroke:none;" d="M107.333 285.667L107.667 286.333L107.333 285.667z"/>
<path style="fill:#da9e73; stroke:none;" d="M108 285L108 288L109 288L108 285z"/>
<path style="fill:#9a664c; stroke:none;" d="M159 285L160 286L159 285z"/>
<path style="fill:#6b5e56; stroke:none;" d="M244 285L245 286L244 285z"/>
<path style="fill:#0d0907; stroke:none;" d="M113 286L114 287L113 286z"/>
<path style="fill:#9a664c; stroke:none;" d="M160 286L160 287L163 288L160 286z"/>
<path style="fill:#c97357; stroke:none;" d="M161 287L162 288L161 287z"/>
<path style="fill:#6b5e56; stroke:none;" d="M222 287L222 289L224 289L224 287L222 287z"/>
<path style="fill:#9a664c; stroke:none;" d="M101 288L102 289L101 288z"/>
<path style="fill:#c97357; stroke:none;" d="M107 288L111 292L111 291L109 289L111 290L107 288z"/>
<path style="fill:#0d0907; stroke:none;" d="M112 288L114 293L115 293L115 288L112 288z"/>
<path style="fill:#9a664c; stroke:none;" d="M163.333 288.667L163.667 289.333L163.333 288.667M103 289L103 296L104 296L103 289z"/>
<path style="fill:#da9e73; stroke:none;" d="M109 289L109 291L111 291L109 289M117 289L122 294L117 289z"/>
<path style="fill:#9a664c; stroke:none;" d="M111 290L109 294L113 295L114 295L111 290z"/>
<path style="fill:#c97357; stroke:none;" d="M163 290L156 294L156 295L159 298L161 298L162 295L164 298L165 298L166 294L163 290z"/>
<path style="fill:#6b5e56; stroke:none;" d="M188 290L187 295L179 298L179 299L189 306C191.063 299.949 194.96 294.274 188 290z"/>
<path style="fill:#0d0907; stroke:none;" d="M208 290L209 291L208 290M105 291L118 325L121 328L122 328L114 307L115 307L119 313L120 308L123 310L124 310L126 306L122 307L121 302L124 303L124 302L112 295L105 291z"/>
<path style="fill:#9a664c; stroke:none;" d="M107.667 291.333L108.333 291.667L107.667 291.333z"/>
<path style="fill:#0d0907; stroke:none;" d="M131 291L133 293L133 291L131 291z"/>
<path style="fill:#c97357; stroke:none;" d="M117 292L122 296L117 292z"/>
<path style="fill:#0d0907; stroke:none;" d="M129 292L130 296L127 297L127 300L130 301L131 310L138 310L138 304L134 303L133 306L132 306L129 299C130.803 295.975 131.364 294.703 129 292z"/>
<path style="fill:#c97357; stroke:none;" d="M112 293L113 294L112 293z"/>
<path style="fill:#9a664c; stroke:none;" d="M167 293L168 294L167 293z"/>
<path style="fill:#c97357; stroke:none;" d="M142 294L143 295L142 294z"/>
<path style="fill:#6b5e56; stroke:none;" d="M210 294L211 295L210 294z"/>
<path style="fill:#c97357; stroke:none;" d="M155 295L156 296L155 295z"/>
<path style="fill:#da9e73; stroke:none;" d="M164 295L165 299L166 299L164 295z"/>
<path style="fill:#9a664c; stroke:none;" d="M104 296L104 299L105 299L104 296z"/>
<path style="fill:#c97357; stroke:none;" d="M154 296L155 297L154 296M166 296L167 297L166 296z"/>
<path style="fill:#6b5e56; stroke:none;" d="M213 296L214 297L213 296z"/>
<path style="fill:#c97357; stroke:none;" d="M143 297L144 298L143 297M148 297L145 299L145 300L152 301L152 300L148 297z"/>
<path style="fill:#6b5e56; stroke:none;" d="M201 297L202 298L201 297M245 297L243 300L246 301L245 297z"/>
<path style="fill:#c97357; stroke:none;" d="M144 298L145 299L144 298M153 298L154 299L153 298z"/>
<path style="fill:#6b5e56; stroke:none;" d="M247 298L248 299L247 298z"/>
<path style="fill:#9a664c; stroke:none;" d="M105 299L105 302L106 302L105 299z"/>
<path style="fill:#c97357; stroke:none;" d="M152 299L153 300L152 299z"/>
<path style="fill:#9a664c; stroke:none;" d="M106.333 302.667L106.667 303.333L106.333 302.667z"/>
<path style="fill:#0d0907; stroke:none;" d="M126.667 302.333L127.333 302.667L126.667 302.333z"/>
<path style="fill:#c97357; stroke:none;" d="M145 302L146 303L145 302z"/>
<path style="fill:#0d0907; stroke:none;" d="M140 303L140 311L141 311L143 309L143 313L149 314L140 303M126 304L127 305L126 304z"/>
<path style="fill:#9a664c; stroke:none;" d="M107.333 305.667L107.667 306.333L107.333 305.667z"/>
<path style="fill:#6b5e56; stroke:none;" d="M131 306L132 307L131 306z"/>
<path style="fill:#9a664c; stroke:none;" d="M108 308L109 309L108 308z"/>
<path style="fill:#0d0907; stroke:none;" d="M127 308L126 310L127 308z"/>
<path style="fill:#6b5e56; stroke:none;" d="M281 308L282 309L281 308z"/>
<path style="fill:#9a664c; stroke:none;" d="M109.333 310.667L109.667 311.333L109.333 310.667z"/>
<path style="fill:#6b5e56; stroke:none;" d="M248 311L249 312L248 311z"/>
<path style="fill:#9a664c; stroke:none;" d="M110 312L112 318L113 318L110 312z"/>
<path style="fill:#6b5e56; stroke:none;" d="M111.333 312.667L111.667 313.333L111.333 312.667z"/>
<path style="fill:#9a664c; stroke:none;" d="M120 313L120 316L121 316L120 313z"/>
<path style="fill:#6b5e56; stroke:none;" d="M112.333 314.667L112.667 315.333L112.333 314.667z"/>
<path style="fill:#9a664c; stroke:none;" d="M113 319L116 325L117 325L113 319M130.667 319.333L131.333 319.667L130.667 319.333M134 320L137 322L134 320M125 321C125.408 323.581 126.191 326 123 326L127 332L129 327L127 327L127 325L131 324L125 321z"/>
<path style="fill:#6b5e56; stroke:none;" d="M250 321L250 322L254 323L250 321M257 321L265 331L266 330L263 328L267 324L267 323L257 321M225 322L226 323L225 322z"/>
<path style="fill:#9a664c; stroke:none;" d="M117 326L120 332L121 332L117 326z"/>
<path style="fill:#6b5e56; stroke:none;" d="M209 326L210 329L214 327L209 326M126 327L127 328L126 327z"/>
<path style="fill:#0d0907; stroke:none;" d="M122 329L123 330L122 329z"/>
<path style="fill:#6b5e56; stroke:none;" d="M230.333 330.667L230.667 331.333L230.333 330.667z"/>
<path style="fill:#0d0907; stroke:none;" d="M123 331L127 336L123 331z"/>
<path style="fill:#9a664c; stroke:none;" d="M121 333L122 334L121 333z"/>
<path style="fill:#6b5e56; stroke:none;" d="M224 333L225 334L224 333z"/>
<path style="fill:#9a664c; stroke:none;" d="M122.333 334.667L122.667 335.333L122.333 334.667z"/>
<path style="fill:#6b5e56; stroke:none;" d="M226 335L229 338L226 335z"/>
<path style="fill:#9a664c; stroke:none;" d="M123 336C132.714 353.05 153.794 375.88 173 382L173 381C151.432 370.797 140.575 350.307 123 336z"/>
<path style="fill:#0d0907; stroke:none;" d="M149 337L150 338L149 337M150 339L151 340L150 339z"/>
<path style="fill:#6b5e56; stroke:none;" d="M225 339L227 341L227 339L225 339M152 341L153 342L152 341M179 345L172 346L170 342L169 342L168 347L166 345L165 345L162 347L160 355L165 354C167.186 358.116 173.358 363.783 178 361L179 361L185 363L183 361C184.325 357.374 187.516 346.973 183 346L183 341L179 345z"/>
<path style="fill:#0d0907; stroke:none;" d="M131 342L134 345L131 342z"/>
<path style="fill:#6b5e56; stroke:none;" d="M158 342L157 343L160 345L158 342M172 343L173 344L172 343z"/>
<path style="fill:#0d0907; stroke:none;" d="M168.333 347.667L168.667 348.333L168.333 347.667M174.333 347.667L174.667 348.333L174.333 347.667z"/>
<path style="fill:#6b5e56; stroke:none;" d="M139 348L140 349L139 348z"/>
<path style="fill:#0d0907; stroke:none;" d="M183 348L184 349L183 348M166 349L167 350L166 349M176 349L177 350L176 349M172 350L173 351L172 350z"/>
<path style="fill:#9a664c; stroke:none;" d="M176 353L178 356L179 355L176 353z"/>
<path style="fill:#6b5e56; stroke:none;" d="M187 360L194 355L187 360z"/>
<path style="fill:#0d0907; stroke:none;" d="M142 356L143 357L142 356z"/>
<path style="fill:#6b5e56; stroke:none;" d="M200 357L201 358L200 357M203 361L199 365L204 366L205 361L203 361M193.667 362.333L194.333 362.667L193.667 362.333z"/>
<path style="fill:#0d0907; stroke:none;" d="M150 363L151 364L150 363M151 364L152 365L151 364z"/>
<path style="fill:#6b5e56; stroke:none;" d="M219 364L219 367L221 366L221 365L219 364z"/>
<path style="fill:#0d0907; stroke:none;" d="M154 366L159 370L154 366z"/>
<path style="fill:#6b5e56; stroke:none;" d="M205 366L206 367L205 366M214 366L210 367L209 370L209 371L212 373L213 370L219 371L219 370L216 370L214 366M161 370L162 371L161 370M205 371L206 372L205 371M225 372L228 375L225 372M205.333 373.667L205.667 374.333L205.333 373.667M216.667 374.333L217.333 374.667L216.667 374.333z"/>
<path style="fill:#0d0907; stroke:none;" d="M167 376L168 377L167 376M168 377L169 378L168 377z"/>
<path style="fill:#6b5e56; stroke:none;" d="M175 377L176 378L175 377M217 377L217 379L219 379L219 377L217 377z"/>
<path style="fill:#0d0907; stroke:none;" d="M171 379L172 380L171 379z"/>
<path style="fill:#6b5e56; stroke:none;" d="M225 379L226 380L225 379M209 380L207 384L209 380z"/>
<path style="fill:#9a664c; stroke:none;" d="M173 382L176 384L173 382z"/>
<path style="fill:#6b5e56; stroke:none;" d="M198 383L199 384L198 383z"/>
<path style="fill:#9a664c; stroke:none;" d="M176 384L176 385L181 387L181 386L176 384M182 387L183 388L182 387M184 388L184 389L188 390L188 389L184 388M188.667 390.333L189.333 390.667L188.667 390.333M191.667 391.333L192.333 391.667L191.667 391.333M193 392L193 393L196 393L193 392M196 393L196 394L204 396L204 395L196 393M205 396L205 397L208 397L205 396M208 397L208 398L211 398L208 397M212 398L213 399L212 398M216.667 399.333L217.333 399.667L216.667 399.333z"/>
</svg>
