<?xml version="1.0" standalone="yes"?>
<svg xmlns="http://www.w3.org/2000/svg" width="666" height="375">
<path style="fill:#030506; stroke:none;" d="M0 0L0 375L666 375L666 0L0 0z"/>
<path style="fill:#385c5e; stroke:none;" d="M311 63C308.217 68.5915 299.028 79.166 293 81L286 89C284.792 97.3936 276.056 106.381 272.04 114C266.018 125.425 262.077 138.403 259.428 151C246.861 210.769 277.292 284.518 334.285 311.542C351.817 319.854 370.591 325.724 390 327.367C398.022 328.047 409.803 324.714 417 328L418 328C427.661 322.503 453.438 326.315 456 312L459 313L461 305L475 295L461 300L461 301L463 302L458 304L460 300L460 296L459 293L463 293L463 288L456 293L458 291L458 290L456 288L458 289L457 287L460 287L459 285L462 282L459 283L462 272L467 272L465 270L467 265L464 267L463 267L466 263C465.736 255.61 470.81 247.33 476 242L480 246L479 248L479 249L480 249L482 237L481 237L477 241L479 230L480 230L480 233C483.867 230.096 480.487 228.279 477 228L478 232L474 230L470 236L474 234L464 244L470 231L465 234L462 227L455 227L454 221L454 220L458 217L458 222L459 222L462 220L461 224L466 225L466 224L465 221L468 223L473 215L472 219L473 219L478 217L482 210L482 209L477 211L476 208L475 208L477 213L473 215L474 211C468.915 212.918 467.139 214.401 468 220C462.749 216.751 466.145 213.917 469 210L464 211L463 208L465 205L469 206L465 200L460 201C461.864 195.209 465.354 194.295 471 193L470 190L460 194L460 183L458 182L457 184L456 184L456 178L457 178L457 180L458 180L464 157L463 157L460 161L462 156L460 158L459 158L464 153L463 149L464 143L467 144L466 141L464 141L463 145L462 145L461 139L460 139L456 144L459 133C457.665 129.484 457.09 126.212 453 126L454 130L456 129L449 132L449 133L451 135L449 141L444 132L441 133L442 129L435 129L431 125L435 123L435 122L428 122L429 117L432 118L431 107L432 107L434 115L437 111L441 114C437.521 115.512 442.336 115.657 444 115L439 102L445 105L441 93L438 93L440 82L436 84L436 88L438 88L437 91L435 88L433 88L421 96L422 90L425 91L425 90L425 89L421 89L420 93L417 92L413 86L414 83L411 77L407 71L408 68L405 68L401 64L403 62L401 60L404 61L404 56L400 58L397 55L398 52C392.914 48.0086 389.155 40.8207 382 42L381 39L372 39L372 38L380 36C375.168 34.5137 368.86 36.4893 364 37.5764C351.272 40.4236 337.249 44.3827 326.093 51.3372C320.656 54.7268 317.268 61.1086 311 63M381 35L382 36L381 35M440.667 36.3333L441.333 36.6667L440.667 36.3333z"/>
<path style="fill:#030506; stroke:none;" d="M380 40L379 42L380 40z"/>
<path style="fill:#385c5e; stroke:none;" d="M392 43L393 44L392 43z"/>
<path style="fill:#030506; stroke:none;" d="M385 44L386 45L385 44M390 47L391 48L390 47M395.667 52.3333L396.333 52.6667L395.667 52.3333M399 58L400 59L399 58M402 58L403 59L402 58z"/>
<path style="fill:#385c5e; stroke:none;" d="M405.667 61.3333L406.333 61.6667L405.667 61.3333M410 62L409 64L410 62M406 64L407 65L406 64M410 68L415 66L410 68z"/>
<path style="fill:#599198; stroke:none;" d="M337 66L335 69L337 66z"/>
<path style="fill:#385c5e; stroke:none;" d="M407.667 66.3333L408.333 66.6667L407.667 66.3333z"/>
<path style="fill:#599198; stroke:none;" d="M328 67L325 69L326 74L329 73L330 68L328 67z"/>
<path style="fill:#385c5e; stroke:none;" d="M417.667 67.3333L418.333 67.6667L417.667 67.3333z"/>
<path style="fill:#599198; stroke:none;" d="M314 69L313 75L309 78L308 78L305 76L306 79C297.255 81.3799 291.162 91.9104 286.344 99C271.693 120.561 262.017 147.765 262 174L259 174L259 175C263.051 175.529 261.295 179.774 261.639 183C262.473 190.837 263.868 199.137 264 207L265 207C264.697 192.304 257.058 165.635 267 153L266 149L267 149L269 154L273 153L272 159L278 164L274 163L276 169L281 162L288 155L282 169L282 170L285 176L282 176L288 185L283 183L282 186L280 185L279 185L279 186L285 187L280 191C286.704 198.947 290.797 202.134 289 213L291 209L292 209L295 213L292 208L299 205L296 209L299 208L302 211L300 219L315 218L315 217L311 218L311 215L332 212L320 214L320 213L323 213L323 212L318 213L317 211L317 210L320 207L330 207L335 211L335 210L332 209L333 206L337 207L341 207L341 206C339.04 205.347 338.446 205 341 205L341 204L338 204L338 203L341 203L340 198L335 203L318 207L323 201L307 201L307 200L323 199L323 198L321 197L321 192L325 192L324 195L328 193L325 192L325 191L333 189L327 189L327 188L337 188L330 193L330 194L335 195L341 195L341 196L329 197L329 198L354 200L354 201L351 204L359 200L352 198L353 196L350 197L350 198C347.908 196.418 348.267 195.894 350 194L350 186L346 186L346 187L348 192L347 192L342 183L349 184L349 183L345 182L345 173L349 172L348 178L351 178L351 171L354 173L351 166L358 165L358 164L353 164L356 162L359 153L363 151C359.958 148.322 359.338 146.227 362 143L362 149L364 149L366 144L371 142L368 140C365.05 140.983 364.378 141.487 365 139C360.34 140.636 359.023 143.322 358 148L354 145L351 149L353 139L350 138L359 132L362 136L364 128L362 126C356.059 127.841 350.182 133.318 345 128L344 128L346 132L342 133L344 127L344 126L344 125C339.902 124.785 338.187 123.42 336 120L334 121L328 114L326 115L325 111L326 111L327 113L330 112L331 94L330 94L330 98L327 97L331 88L337 88L329 81L331 81L331 80L330 78L324 77L326 80L321 79L323 77L323 76L317 76L319 73L316 74L317 70L316 69L314 69M323 71L324 72L323 71M320 72L320 74L322 74L322 72L320 72M346 74L346 76L348 76L346 74z"/>
<path style="fill:#385c5e; stroke:none;" d="M432 74L432 80L437 75L434 77L432 74z"/>
<path style="fill:#030506; stroke:none;" d="M408 76L409 77L408 76M432 77L433 78L432 77z"/>
<path style="fill:#385c5e; stroke:none;" d="M327 78L328 79L327 78z"/>
<path style="fill:#599198; stroke:none;" d="M345.667 78.3333L346.333 78.6667L345.667 78.3333z"/>
<path style="fill:#385c5e; stroke:none;" d="M429 78L430 79L429 78M440 78L441 79L440 78M435 79L436 80L435 79M437 79L438 80L437 79M328 80L329 81L328 80z"/>
<path style="fill:#599198; stroke:none;" d="M333 80L334 81L333 80z"/>
<path style="fill:#385c5e; stroke:none;" d="M325 81L326 82L325 81M301 82L302 83L301 82M322 83L323 84L322 83M328 83L328 85L330 83L328 83M433 83L434 87L435 87L433 83M416 84L417 85L416 84z"/>
<path style="fill:#83a3a7; stroke:none;" d="M312 87L317 91L322 87L317 89L318 85L312 87z"/>
<path style="fill:#385c5e; stroke:none;" d="M327 87L328 90L329 90L327 87M330 87L331 88L330 87z"/>
<path style="fill:#599198; stroke:none;" d="M348 87L346 90L349 91L348 89L351 90L351 91L345 94L345 95C350.481 95.2883 351.57 93.0403 352 88L348 87M320 88L321 89L320 88z"/>
<path style="fill:#030506; stroke:none;" d="M434 89L435 90L434 89z"/>
<path style="fill:#83a3a7; stroke:none;" d="M313.667 90.3333L314.333 90.6667L313.667 90.3333z"/>
<path style="fill:#030506; stroke:none;" d="M416 90L417 91L416 90z"/>
<path style="fill:#83a3a7; stroke:none;" d="M311 91L312 92L311 91z"/>
<path style="fill:#385c5e; stroke:none;" d="M326 91L327 92L326 91z"/>
<path style="fill:#83a3a7; stroke:none;" d="M312.667 93.3333L313.333 93.6667L312.667 93.3333M315 93L309 98L310 101L307 104L315 100L318 93L315 93M324 93L325 94L324 93z"/>
<path style="fill:#385c5e; stroke:none;" d="M326.333 93.6667L326.667 94.3333L326.333 93.6667z"/>
<path style="fill:#030506; stroke:none;" d="M415 93L417 95L415 93z"/>
<path style="fill:#83a3a7; stroke:none;" d="M305 94L304 96L306 96L305 94M310.333 94.6667L310.667 95.3333L310.333 94.6667z"/>
<path style="fill:#599198; stroke:none;" d="M337 94L338 95L337 94M340 94L341 95L340 94z"/>
<path style="fill:#83a3a7; stroke:none;" d="M307 95L308 96L307 95z"/>
<path style="fill:#599198; stroke:none;" d="M353 95L352 99L355 96L353 95z"/>
<path style="fill:#030506; stroke:none;" d="M430 96L430 97L433 97L433 96L430 96z"/>
<path style="fill:#83a3a7; stroke:none;" d="M320 96L319 103L320 103L322 96L320 96z"/>
<path style="fill:#030506; stroke:none;" d="M437 96L439 98L439 96L437 96z"/>
<path style="fill:#599198; stroke:none;" d="M313.333 97.6667L313.667 98.3333L313.333 97.6667z"/>
<path style="fill:#385c5e; stroke:none;" d="M325 97L326 98L325 97z"/>
<path style="fill:#599198; stroke:none;" d="M345.667 97.3333L346.333 97.6667L345.667 97.3333M349 97L349 101L350 101L349 97z"/>
<path style="fill:#83a3a7; stroke:none;" d="M297 100L298 101L297 100z"/>
<path style="fill:#385c5e; stroke:none;" d="M326 100L326 104L325 104L325 102L324 102L322 107L327 107L327 108L325 110L331 109L329 107L326 100z"/>
<path style="fill:#83a3a7; stroke:none;" d="M322.333 101.667L322.667 102.333L322.333 101.667z"/>
<path style="fill:#030506; stroke:none;" d="M432 101L433 102L432 101z"/>
<path style="fill:#83a3a7; stroke:none;" d="M313 102L312 106L313 106L315 102L313 102z"/>
<path style="fill:#030506; stroke:none;" d="M420 103L421 104L420 103M423 103L422 106L423 106L423 103M432 103L433 104L432 103z"/>
<path style="fill:#385c5e; stroke:none;" d="M534 104L535 105L534 104z"/>
<path style="fill:#83a3a7; stroke:none;" d="M304 105L304 109L308 105L305 107L304 105z"/>
<path style="fill:#599198; stroke:none;" d="M342 105L341 108L342 105z"/>
<path style="fill:#030506; stroke:none;" d="M429 105L431 107L429 105z"/>
<path style="fill:#83a3a7; stroke:none;" d="M298 106L299 107L298 106M301 106L302 107L301 106z"/>
<path style="fill:#599198; stroke:none;" d="M362 106L362 112L365 118L375 114L375 113L370 114L372 109L366 111L362 106M370 106L370 107L376 111L378 111L379 110L379 108L370 106z"/>
<path style="fill:#030506; stroke:none;" d="M432 106L433 107L432 106z"/>
<path style="fill:#599198; stroke:none;" d="M359 107L356 109L356 113L363 114L359 107z"/>
<path style="fill:#83a3a7; stroke:none;" d="M311 108L312 109L311 108z"/>
<path style="fill:#030506; stroke:none;" d="M425.333 108.667L425.667 109.333L425.333 108.667M433 108L435 110L433 108z"/>
<path style="fill:#385c5e; stroke:none;" d="M328 109L329 110L328 109z"/>
<path style="fill:#83a3a7; stroke:none;" d="M377 109L378 110L377 109z"/>
<path style="fill:#599198; stroke:none;" d="M332 110L333 113L334 113L332 110M354 110L355 111L354 110z"/>
<path style="fill:#83a3a7; stroke:none;" d="M370 110L371 111L370 110z"/>
<path style="fill:#599198; stroke:none;" d="M373.667 110.333L374.333 110.667L373.667 110.333z"/>
<path style="fill:#83a3a7; stroke:none;" d="M363 111L364 112L363 111M366 111L365 115L369 112L366 111M299.667 112.333L300.333 112.667L299.667 112.333M304 113L306 119L303 123L307 124L311 112L304 113z"/>
<path style="fill:#030506; stroke:none;" d="M429 112L427 115L431 114L429 112z"/>
<path style="fill:#599198; stroke:none;" d="M335 113L336 116L334 115L338 116L338 114L335 113z"/>
<path style="fill:#385c5e; stroke:none;" d="M360 113L361 114L360 113z"/>
<path style="fill:#83a3a7; stroke:none;" d="M364 113L365 114L364 113M370 113L371 114L370 113z"/>
<path style="fill:#599198; stroke:none;" d="M376 113L376 114L379 118L380 118L376 113z"/>
<path style="fill:#90c2cb; stroke:none;" d="M308 114L309 115L308 114z"/>
<path style="fill:#599198; stroke:none;" d="M348 117L351 114L348 117M352 114L352 116L354 116L352 114z"/>
<path style="fill:#385c5e; stroke:none;" d="M367.667 114.333L368.333 114.667L367.667 114.333z"/>
<path style="fill:#90c2cb; stroke:none;" d="M306 115L307 116L306 115z"/>
<path style="fill:#385c5e; stroke:none;" d="M540 115L541 116L540 115z"/>
<path style="fill:#599198; stroke:none;" d="M360 116L361 117L360 116M374 116L375 117L374 116M411 116L412 117L411 116z"/>
<path style="fill:#83a3a7; stroke:none;" d="M286 117L285 126L289 128L285 129L285 130L289 129L292 139L289 139L296 145L295 140L294 140L295 144L292 143L293 138L296 139L294 126L289 124L293 125L292 123L295 125L300 125L296 118L297 123L290 123L291 120L286 117z"/>
<path style="fill:#599198; stroke:none;" d="M307 117L308 118L307 117z"/>
<path style="fill:#90c2cb; stroke:none;" d="M309 117L310 118L309 117z"/>
<path style="fill:#83a3a7; stroke:none;" d="M314 117L316 121L314 117z"/>
<path style="fill:#385c5e; stroke:none;" d="M327 117L328 118L327 117z"/>
<path style="fill:#599198; stroke:none;" d="M408 117L405 120L405 121L412 121L412 120L410 117L408 117z"/>
<path style="fill:#030506; stroke:none;" d="M425 117L427 119L425 117z"/>
<path style="fill:#385c5e; stroke:none;" d="M541 117L542 121L543 121L541 117z"/>
<path style="fill:#90c2cb; stroke:none;" d="M297 118L298 119L297 118z"/>
<path style="fill:#83a3a7; stroke:none;" d="M294 119L295 120L294 119z"/>
<path style="fill:#90c2cb; stroke:none;" d="M305 119L306 120L305 119z"/>
<path style="fill:#385c5e; stroke:none;" d="M331 119L332 120L331 119z"/>
<path style="fill:#90c2cb; stroke:none;" d="M307 120L310 128L312 128L313 127L313 125L311 122L307 120z"/>
<path style="fill:#83a3a7; stroke:none;" d="M324.333 120.667L324.667 121.333L324.333 120.667M329 120L330 121L329 120z"/>
<path style="fill:#599198; stroke:none;" d="M401 120L400 123L396 123L398 127L401 120z"/>
<path style="fill:#030506; stroke:none;" d="M427 120L428 121L427 120z"/>
<path style="fill:#385c5e; stroke:none;" d="M430.667 120.333L431.333 120.667L430.667 120.333z"/>
<path style="fill:#599198; stroke:none;" d="M305.333 121.667L305.667 122.333L305.333 121.667z"/>
<path style="fill:#83a3a7; stroke:none;" d="M309 121L309 123L311 121L309 121z"/>
<path style="fill:#599198; stroke:none;" d="M367 121L368 122L367 121M381.333 121.667L381.667 122.333L381.333 121.667z"/>
<path style="fill:#385c5e; stroke:none;" d="M438 123L441 123L440 121L438 123M543 122L544 123L543 122z"/>
<path style="fill:#90c2cb; stroke:none;" d="M288 123L289 124L288 123z"/>
<path style="fill:#83a3a7; stroke:none;" d="M310.667 123.333L311.333 123.667L310.667 123.333z"/>
<path style="fill:#599198; stroke:none;" d="M394 123L395 124L394 123z"/>
<path style="fill:#90c2cb; stroke:none;" d="M289 124L293 126L289 124z"/>
<path style="fill:#83a3a7; stroke:none;" d="M312 124L313 125L312 124z"/>
<path style="fill:#599198; stroke:none;" d="M378 124L378 127L379 127L378 124M380 124L383 126L383 125L380 124z"/>
<path style="fill:#385c5e; stroke:none;" d="M434.667 124.333L435.333 124.667L434.667 124.333M544.333 124.667L544.667 125.333L544.333 124.667z"/>
<path style="fill:#83a3a7; stroke:none;" d="M302 125L302 129L308 128L307 131L304 130L308 134L308 138L309 138L310 130L309 130L309 133L308 133L308 129L312 131L317 131L317 130L315 131L316 128L313 126L310 128L309 125L303 127L304 125L302 125z"/>
<path style="fill:#599198; stroke:none;" d="M365 125L366 126L365 125z"/>
<path style="fill:#030506; stroke:none;" d="M419 125L420 126L419 125z"/>
<path style="fill:#90c2cb; stroke:none;" d="M289 126L291 128L289 126M303 126L304 127L303 126z"/>
<path style="fill:#83a3a7; stroke:none;" d="M362 126L361 128L363 128L362 126z"/>
<path style="fill:#599198; stroke:none;" d="M363 126L364 127L363 126M368 126L369 127L368 126z"/>
<path style="fill:#385c5e; stroke:none;" d="M458 126L458 127L461 127L458 126z"/>
<path style="fill:#90c2cb; stroke:none;" d="M292 127L293 128L292 127M302 127L303 128L302 127z"/>
<path style="fill:#385c5e; stroke:none;" d="M334 127L335 128L334 127z"/>
<path style="fill:#599198; stroke:none;" d="M394.333 127.667L394.667 128.333L394.333 127.667z"/>
<path style="fill:#030506; stroke:none;" d="M430 127L431 128L430 127z"/>
<path style="fill:#385c5e; stroke:none;" d="M462 127L463 128L462 127M545 127L546 128L545 127z"/>
<path style="fill:#599198; stroke:none;" d="M291 128L292 129L291 128z"/>
<path style="fill:#90c2cb; stroke:none;" d="M304 129L308 128L304 129z"/>
<path style="fill:#599198; stroke:none;" d="M313 128L314 129L313 128z"/>
<path style="fill:#83a3a7; stroke:none;" d="M357 128L354 131L354 132L360 132L357 128z"/>
<path style="fill:#385c5e; stroke:none;" d="M360.333 128.667L360.667 129.333L360.333 128.667z"/>
<path style="fill:#030506; stroke:none;" d="M426 128L427 129L426 128z"/>
<path style="fill:#90c2cb; stroke:none;" d="M291 129L292 130L291 129M308 129L308 133L309 133L308 129M312 129L313 130L312 129M315.333 129.667L315.667 130.333L315.333 129.667z"/>
<path style="fill:#385c5e; stroke:none;" d="M356 129L357 130L356 129z"/>
<path style="fill:#599198; stroke:none;" d="M357 129L358 130L357 129z"/>
<path style="fill:#030506; stroke:none;" d="M429 129L430 130L429 129z"/>
<path style="fill:#385c5e; stroke:none;" d="M546.333 129.667L546.667 130.333L546.333 129.667z"/>
<path style="fill:#90c2cb; stroke:none;" d="M313 130L314 131L313 130z"/>
<path style="fill:#83a3a7; stroke:none;" d="M338 130L339 131L338 130z"/>
<path style="fill:#599198; stroke:none;" d="M291 131L292 134L293 134L294 131L291 131z"/>
<path style="fill:#030506; stroke:none;" d="M430 131L431 132L430 131M434 131L435 132L434 131z"/>
<path style="fill:#83a3a7; stroke:none;" d="M279 136L280 136L281 133L282 133L280 140C283.92 140 279.437 142.951 278 144L278 145L287 141L283 135L287 137L286 133L279 136z"/>
<path style="fill:#90c2cb; stroke:none;" d="M294 132L295 133L294 132z"/>
<path style="fill:#83a3a7; stroke:none;" d="M316.333 132.667L316.667 133.333L316.333 132.667M318 132L319 133L318 132M346 132C344.774 134.891 344.332 136.158 347 138L346 135L349 136L349 133L346 132M358 132L359 133L358 132z"/>
<path style="fill:#385c5e; stroke:none;" d="M547.333 132.667L547.667 133.333L547.333 132.667z"/>
<path style="fill:#90c2cb; stroke:none;" d="M312 133L313 134L312 133z"/>
<path style="fill:#83a3a7; stroke:none;" d="M313 133L310 136C312.348 135.706 313.951 135.507 313 133z"/>
<path style="fill:#385c5e; stroke:none;" d="M339 133L340 134L339 133z"/>
<path style="fill:#030506; stroke:none;" d="M453 133L454 134L453 133z"/>
<path style="fill:#90c2cb; stroke:none;" d="M285 134L286 135L285 134z"/>
<path style="fill:#385c5e; stroke:none;" d="M342.333 134.667L342.667 135.333L342.333 134.667z"/>
<path style="fill:#90c2cb; stroke:none;" d="M283 135L286 138L283 135M293 135L295 137L295 135L293 135M346.333 135.667L346.667 136.333L346.333 135.667z"/>
<path style="fill:#599198; stroke:none;" d="M365 135L366 136L365 135M382 135L383 136L382 135z"/>
<path style="fill:#030506; stroke:none;" d="M453 135L450 147L450 152L451 152L454 149L451 157L452 157L458 154L459 148L460 148L460 152L461 152L463 148L460 145L454 145L453 135z"/>
<path style="fill:#385c5e; stroke:none;" d="M458 135L459 136L458 135M548.333 135.667L548.667 136.333L548.333 135.667z"/>
<path style="fill:#83a3a7; stroke:none;" d="M316 136L317 137L316 136z"/>
<path style="fill:#90c2cb; stroke:none;" d="M281 137L282 138L281 137M291 137L292 138L291 137z"/>
<path style="fill:#83a3a7; stroke:none;" d="M338 137L339 138L338 137z"/>
<path style="fill:#599198; stroke:none;" d="M360 137L361 138L360 137z"/>
<path style="fill:#030506; stroke:none;" d="M443 137L443 139L445 139L443 137z"/>
<path style="fill:#599198; stroke:none;" d="M291 138L292 139L291 138z"/>
<path style="fill:#90c2cb; stroke:none;" d="M293 138L292 143L296 139L293 138z"/>
<path style="fill:#385c5e; stroke:none;" d="M341 138L345 142L345 139L341 138M349 138L350 139L349 138M549 138L550 145L551 145L549 138z"/>
<path style="fill:#90c2cb; stroke:none;" d="M290 139L291 140L290 139z"/>
<path style="fill:#83a3a7; stroke:none;" d="M331 139L331 140L334 140L331 139M336 139L337 140L336 139z"/>
<path style="fill:#599198; stroke:none;" d="M355 139L354 142L355 139M372 139L374 141L374 142L372 147L376 148L370 156L369 153C365.16 154.454 362.291 154.827 361 159L366 156L365 161L368 160L367 157L375 158L372 167L376 167L378 158L379 158L380 164L376 170L379 171L383 154C387.536 155.201 389.72 156.161 391 161L394 161L393 159L394 159L397 160L395 154L391 156L390 155L391 152L388 154L388 150L379 152L379 151L382 147L373 143L378 144L372 139z"/>
<path style="fill:#83a3a7; stroke:none;" d="M347 140L347 142L349 140L347 140z"/>
<path style="fill:#90c2cb; stroke:none;" d="M281 141L282 142L281 141z"/>
<path style="fill:#83a3a7; stroke:none;" d="M350.333 141.667L350.667 142.333L350.333 141.667z"/>
<path style="fill:#385c5e; stroke:none;" d="M362 143L365 143L364 141L362 143z"/>
<path style="fill:#030506; stroke:none;" d="M442 141L443 142L442 141z"/>
<path style="fill:#90c2cb; stroke:none;" d="M280 142L281 143L280 142z"/>
<path style="fill:#83a3a7; stroke:none;" d="M287.667 142.333L288.333 142.667L287.667 142.333z"/>
<path style="fill:#599198; stroke:none;" d="M294.333 142.667L294.667 143.333L294.333 142.667z"/>
<path style="fill:#83a3a7; stroke:none;" d="M332.667 142.333L333.333 142.667L332.667 142.333z"/>
<path style="fill:#385c5e; stroke:none;" d="M342 142L341 144L342 142z"/>
<path style="fill:#83a3a7; stroke:none;" d="M346 143L347 144L346 143z"/>
<path style="fill:#599198; stroke:none;" d="M353 143L354 144L353 143z"/>
<path style="fill:#83a3a7; stroke:none;" d="M267 144L267 147L268 147L267 144z"/>
<path style="fill:#385c5e; stroke:none;" d="M350 144L351 145L350 144z"/>
<path style="fill:#83a3a7; stroke:none;" d="M363 144L362 147L363 144z"/>
<path style="fill:#385c5e; stroke:none;" d="M346 145L346 148L347 148L346 145z"/>
<path style="fill:#83a3a7; stroke:none;" d="M348 145L349 146L348 145z"/>
<path style="fill:#385c5e; stroke:none;" d="M453.333 145.667L453.667 146.333L453.333 145.667z"/>
<path style="fill:#83a3a7; stroke:none;" d="M275 146L273 147L272 150L268 149L268 150L273 149L274 149L276 151L277 146L275 146z"/>
<path style="fill:#599198; stroke:none;" d="M409 146L408 149L409 146M414 146L415 147L414 146z"/>
<path style="fill:#385c5e; stroke:none;" d="M455 146L456 147L455 146M551 146L551 149L552 149L551 146z"/>
<path style="fill:#83a3a7; stroke:none;" d="M283 152L291 147L283 152z"/>
<path style="fill:#90c2cb; stroke:none;" d="M289 147L290 148L289 147z"/>
<path style="fill:#83a3a7; stroke:none;" d="M344 147L345 148L344 147z"/>
<path style="fill:#385c5e; stroke:none;" d="M355 147L356 148L355 147z"/>
<path style="fill:#599198; stroke:none;" d="M287 148L288 149L287 148z"/>
<path style="fill:#83a3a7; stroke:none;" d="M295 148L296 152L297 152L295 148z"/>
<path style="fill:#385c5e; stroke:none;" d="M380 148L381 149L380 148z"/>
<path style="fill:#599198; stroke:none;" d="M388 148L388 149L391 150L388 148M414 148L415 149L414 148z"/>
<path style="fill:#83a3a7; stroke:none;" d="M266 149L267 153C262.148 157.085 263.002 171.006 263 177C262.992 196.51 265.69 215.739 273.258 233.83C275.619 239.475 277.717 247.539 283 251L282 253L285 254C285.5 264.049 298.361 275.374 305 282C309.193 286.184 312.172 290.365 318 287L316 290L316 291L319 290L323 295L322 286L316 282L318 282L318 281L317 279L314 281L313 278L309 280L309 276L306 272L301 273L301 272C304.348 268.655 298.76 262.472 296 260L299 267L295 266L293 264L294 258L289 255L292 256C290.693 253.789 290.185 253.702 288 255L279 242L280 239L277 234L279 238L280 238L279 235L285 232L284 235L289 234L281 236L284 243L285 243L285 239L282 239L282 238C285.218 237.987 288.549 238.592 289 235L295 232L297 236L291 236L293 241L296 240L295 242L298 241L296 237L302 238L299 237L298 237L299 233L301 233L305 237L305 235L313 235L315 240L312 241L312 242L316 242L314 243L314 244L318 243L317 240L320 241L320 240L319 237C316.305 235.383 316.365 233.341 319 234L309 230L308 230L309 233L307 229L303 229L303 230L305 233L301 233L301 226L304 227L304 224L301 223L300 226L294 223L297 225C295.111 229.609 292.705 230.684 290 226C294.542 225.258 290.173 216.688 289 214L293 213L292 209L291 209L289 213L290 201L289 201L290 207L287 208L289 212L282 208L284 213L279 208L282 205L278 206L274 196L270 198C268.718 193.523 267.612 187.843 272 185L271 189L272 186L281 195L280 193L281 193L284 196L280 191L285 187L279 186L279 185L282 186L278 183L271 183L274 179L272 180L272 179L276 181L276 178L284 180C282.049 176.322 280.355 173.402 276 175L276 171L282 171L281 174L284 173L282 170L282 169L285 165L282 168L281 168L279 166L276 169L273 164L273 163L278 164L272 159L273 153L269 154L266 149z"/>
<path style="fill:#90c2cb; stroke:none;" d="M275 149L276 150L275 149z"/>
<path style="fill:#83a3a7; stroke:none;" d="M281 149L282 150L281 149z"/>
<path style="fill:#90c2cb; stroke:none;" d="M286 149L287 150L286 149z"/>
<path style="fill:#83a3a7; stroke:none;" d="M332.333 149.667L332.667 150.333L332.333 149.667z"/>
<path style="fill:#385c5e; stroke:none;" d="M352 149L353 150L352 149M377.667 149.333L378.333 149.667L377.667 149.333M457 149L458 150L457 149z"/>
<path style="fill:#83a3a7; stroke:none;" d="M339 151L340 155C334.973 156.636 329.663 157.471 328 163L327 163L325 161L323 164L323 175L334 168L331 169L325 164L332 165L337 163L339 168C333.903 169.02 335.006 173.757 335 178L336 178L340 175L339 160L342 157L345 157L343 154L348 153L349 153L351 155L349 150L346 152L339 151z"/>
<path style="fill:#385c5e; stroke:none;" d="M350 150L351 151L350 150z"/>
<path style="fill:#599198; stroke:none;" d="M392 150L393 151L392 150M406 150L407 151L406 150z"/>
<path style="fill:#385c5e; stroke:none;" d="M552 150L553 151L552 150z"/>
<path style="fill:#83a3a7; stroke:none;" d="M289 155L296 155L296 159L295 159L294 157L291 160L293 157L290 161L295 163L294 160C298.897 158.951 296.022 154.475 295 151L289 155M357.333 151.667L357.667 152.333L357.333 151.667z"/>
<path style="fill:#385c5e; stroke:none;" d="M360 151L361 152L360 151z"/>
<path style="fill:#83a3a7; stroke:none;" d="M376 151L377 155L378 155L379 155L376 151z"/>
<path style="fill:#90c2cb; stroke:none;" d="M292 152L290 155L292 152z"/>
<path style="fill:#83a3a7; stroke:none;" d="M353 152L354 153L353 152M355 152L353 159L353 160C356.421 157.98 356.956 155.459 355 152M381 152L381 153L385 153L381 152z"/>
<path style="fill:#599198; stroke:none;" d="M340 153L341 154L340 153z"/>
<path style="fill:#83a3a7; stroke:none;" d="M388 153L389 154L388 153z"/>
<path style="fill:#599198; stroke:none;" d="M401 153L402 154L401 153M429 153L428 158L429 153z"/>
<path style="fill:#83a3a7; stroke:none;" d="M283.667 154.333L284.333 154.667L283.667 154.333z"/>
<path style="fill:#90c2cb; stroke:none;" d="M294 154L295 155L294 154z"/>
<path style="fill:#83a3a7; stroke:none;" d="M314 154L315 155L314 154z"/>
<path style="fill:#385c5e; stroke:none;" d="M465 154L466 155L465 154z"/>
<path style="fill:#83a3a7; stroke:none;" d="M287 155L280 161C283.099 160.185 287.104 158.57 287 155z"/>
<path style="fill:#90c2cb; stroke:none;" d="M295 155L290 156L290 157L293 157L291 160L294 157L295 159L296 159L295 155M340 155L341 156L340 155z"/>
<path style="fill:#385c5e; stroke:none;" d="M368 155L369 156L368 155M378 155L378 156L381 156L378 155z"/>
<path style="fill:#599198; stroke:none;" d="M409 157L412 155L409 157z"/>
<path style="fill:#030506; stroke:none;" d="M456 155L455 159L456 159L456 155z"/>
<path style="fill:#599198; stroke:none;" d="M341 156L342 157L341 156M418 156L419 157L418 156z"/>
<path style="fill:#83a3a7; stroke:none;" d="M276 157L277 160L281 158L276 157M315 157L316 161L317 161L315 157z"/>
<path style="fill:#385c5e; stroke:none;" d="M331 157L332 158L331 157z"/>
<path style="fill:#83a3a7; stroke:none;" d="M367 157L367 159L370 159L370 157L367 157M379 157L380 158L379 157z"/>
<path style="fill:#385c5e; stroke:none;" d="M392 157L392 159L394 157L392 157M553.333 157.667L553.667 158.333L553.333 157.667z"/>
<path style="fill:#599198; stroke:none;" d="M258.333 158.667L258.667 159.333L258.333 158.667z"/>
<path style="fill:#90c2cb; stroke:none;" d="M281 168L282 168L287 158C282.066 159.716 278.767 162.766 281 168M316 158L317 159L316 158M333 158L329 160C332.501 161.939 334.514 160.913 337 158L333 158z"/>
<path style="fill:#599198; stroke:none;" d="M335 158L336 159L335 158z"/>
<path style="fill:#90c2cb; stroke:none;" d="M340 158L341 159L340 158z"/>
<path style="fill:#385c5e; stroke:none;" d="M348 158L349 159L348 158M376 158L377 159L376 158z"/>
<path style="fill:#83a3a7; stroke:none;" d="M378 158L376 168L377 168L380 164L378 158z"/>
<path style="fill:#385c5e; stroke:none;" d="M395 158L396 159L395 158z"/>
<path style="fill:#599198; stroke:none;" d="M405 158L404 164L407 158L405 158z"/>
<path style="fill:#030506; stroke:none;" d="M457 158L457 160L459 160L459 158L457 158z"/>
<path style="fill:#83a3a7; stroke:none;" d="M286.333 159.667L286.667 160.333L286.333 159.667z"/>
<path style="fill:#90c2cb; stroke:none;" d="M313 159L314 160L313 159z"/>
<path style="fill:#385c5e; stroke:none;" d="M468 159L464 166L468 159z"/>
<path style="fill:#90c2cb; stroke:none;" d="M264 160L265 161L264 160z"/>
<path style="fill:#83a3a7; stroke:none;" d="M275 160L276 161L275 160M288 160L289 161L288 160M312 160L312 165L308 166L303 166L303 167L309 166L313 169C312.017 166.05 311.513 165.378 314 166L316 164L315 160L312 160z"/>
<path style="fill:#90c2cb; stroke:none;" d="M326 160L327 163L328 163L328 160L326 160z"/>
<path style="fill:#83a3a7; stroke:none;" d="M335 160L336 161L335 160z"/>
<path style="fill:#599198; stroke:none;" d="M336 160L337 161L336 160M363 160C362.146 162.697 362.149 163.386 365 164L363 160z"/>
<path style="fill:#83a3a7; stroke:none;" d="M392 160L391 163L392 160z"/>
<path style="fill:#90c2cb; stroke:none;" d="M273 161L274 162L273 161z"/>
<path style="fill:#83a3a7; stroke:none;" d="M285 161L286 162L285 161z"/>
<path style="fill:#599198; stroke:none;" d="M335 161L336 162L335 161z"/>
<path style="fill:#90c2cb; stroke:none;" d="M337 161L337 163L339 161L337 161M270 162L271 163L270 162z"/>
<path style="fill:#83a3a7; stroke:none;" d="M279.333 162.667L279.667 163.333L279.333 162.667M289.333 162.667L289.667 163.333L289.333 162.667M309 162L310 163L309 162z"/>
<path style="fill:#385c5e; stroke:none;" d="M350 162L349 164L351 164L350 162z"/>
<path style="fill:#599198; stroke:none;" d="M390 162L390 164L392 164L390 162M392 162L393 163L392 162M397 165L397 169L400 165L403 162L397 165z"/>
<path style="fill:#030506; stroke:none;" d="M457 162L458 163L457 162z"/>
<path style="fill:#90c2cb; stroke:none;" d="M265 163L268 166L265 163M268 163L269 164L268 163M273 163L274 164L273 163z"/>
<path style="fill:#83a3a7; stroke:none;" d="M281 163L282 164L281 163z"/>
<path style="fill:#599198; stroke:none;" d="M329 163L330 164L329 163M332 163L333 164L332 163z"/>
<path style="fill:#90c2cb; stroke:none;" d="M325 164L326 167L331 169L339 168L337 163L325 164z"/>
<path style="fill:#83a3a7; stroke:none;" d="M373 163L373 166L374 166L373 163z"/>
<path style="fill:#599198; stroke:none;" d="M425 163L424 165L425 163z"/>
<path style="fill:#90c2cb; stroke:none;" d="M313 164L314 165L313 164M338 164L339 165L338 164z"/>
<path style="fill:#83a3a7; stroke:none;" d="M344 164L342 168L343 168L344 164z"/>
<path style="fill:#90c2cb; stroke:none;" d="M273 165L274 166L273 165z"/>
<path style="fill:#83a3a7; stroke:none;" d="M288 165L289 166L288 165z"/>
<path style="fill:#90c2cb; stroke:none;" d="M307 165L308 166L307 165z"/>
<path style="fill:#599198; stroke:none;" d="M309 165L310 166L309 165z"/>
<path style="fill:#90c2cb; stroke:none;" d="M312 165L313 166L312 165z"/>
<path style="fill:#83a3a7; stroke:none;" d="M321 165L316 171C319.176 170.008 320.994 168.461 321 165z"/>
<path style="fill:#599198; stroke:none;" d="M370.333 165.667L370.667 166.333L370.333 165.667z"/>
<path style="fill:#385c5e; stroke:none;" d="M554 165L554 172L555 172L554 165M347 166L346 168L347 166M349 166L350 167L349 166z"/>
<path style="fill:#599198; stroke:none;" d="M355 166L356 167L355 166M357 166L358 167L357 166M364 166L365 168L366 168L367 166L364 166M424 166L425 167L424 166z"/>
<path style="fill:#90c2cb; stroke:none;" d="M265 167L265 182L268 178L272 178L272 177L270 177L270 176L277 177L275 172L272 171L272 174L269 173L270 171L265 167z"/>
<path style="fill:#83a3a7; stroke:none;" d="M285 167L285 171L288 171L285 167M289.667 167.333L290.333 167.667L289.667 167.333z"/>
<path style="fill:#90c2cb; stroke:none;" d="M310 167L311 168L310 167M325 167L326 168L325 167z"/>
<path style="fill:#599198; stroke:none;" d="M412 167L409 172L414 167L412 167M337 168L338 169L337 168z"/>
<path style="fill:#385c5e; stroke:none;" d="M342 168L343 169L342 168M351.333 168.667L351.667 169.333L351.333 168.667z"/>
<path style="fill:#599198; stroke:none;" d="M257 169L258 170L257 169M264 169L265 170L264 169z"/>
<path style="fill:#83a3a7; stroke:none;" d="M283 169L284 170L283 169M313 169L314 170L313 169z"/>
<path style="fill:#90c2cb; stroke:none;" d="M318 169L319 170L318 169M329 169L328 171L329 169z"/>
<path style="fill:#385c5e; stroke:none;" d="M477 171L480 170L477 171z"/>
<path style="fill:#83a3a7; stroke:none;" d="M295 170L296 171L295 170M302.333 170.667L302.667 171.333L302.333 170.667z"/>
<path style="fill:#90c2cb; stroke:none;" d="M326 170L327 171L326 170z"/>
<path style="fill:#599198; stroke:none;" d="M330 170L331 171L330 170z"/>
<path style="fill:#90c2cb; stroke:none;" d="M337 170L336 174C339.021 173.349 339.086 172.086 337 170z"/>
<path style="fill:#385c5e; stroke:none;" d="M342 170L343 171L342 170M346 170L347 172L348 172L349 170L346 170z"/>
<path style="fill:#599198; stroke:none;" d="M374 170L377 172L377 171L374 170M395 170L390 172C391.039 176.826 395.998 173.327 395 170M417 172L417 173L423 170L417 172z"/>
<path style="fill:#90c2cb; stroke:none;" d="M276.667 171.333L277.333 171.667L276.667 171.333z"/>
<path style="fill:#599198; stroke:none;" d="M277 174L282 175L282 171L277 174z"/>
<path style="fill:#90c2cb; stroke:none;" d="M303 171L304 172L303 171z"/>
<path style="fill:#83a3a7; stroke:none;" d="M314 171L315 172L314 171z"/>
<path style="fill:#599198; stroke:none;" d="M325 171L326 172L325 171z"/>
<path style="fill:#385c5e; stroke:none;" d="M344.333 171.667L344.667 172.333L344.333 171.667z"/>
<path style="fill:#599198; stroke:none;" d="M398 171L398 174L400 171L398 171z"/>
<path style="fill:#385c5e; stroke:none;" d="M421 171L422 172L421 171z"/>
<path style="fill:#90c2cb; stroke:none;" d="M276.333 173.667L276.667 174.333L276.333 173.667M282 173L282 176L284 176L284 173L282 173z"/>
<path style="fill:#83a3a7; stroke:none;" d="M312 173L312 177L313 177L315 173L312 173z"/>
<path style="fill:#599198; stroke:none;" d="M373 173L377 175L373 173z"/>
<path style="fill:#385c5e; stroke:none;" d="M554.333 173.667L554.667 174.333L554.333 173.667z"/>
<path style="fill:#90c2cb; stroke:none;" d="M260 174L261 175L260 174z"/>
<path style="fill:#385c5e; stroke:none;" d="M341 174L342 175L341 174z"/>
<path style="fill:#599198; stroke:none;" d="M387 174L388 175L387 174M409 174L410 175L409 174z"/>
<path style="fill:#90c2cb; stroke:none;" d="M278 175L279 176L278 175z"/>
<path style="fill:#83a3a7; stroke:none;" d="M284 175L285 176L284 175z"/>
<path style="fill:#599198; stroke:none;" d="M380 175L381 176L380 175z"/>
<path style="fill:#83a3a7; stroke:none;" d="M283 176L284 177L283 176M318.667 176.333L319.333 176.667L318.667 176.333z"/>
<path style="fill:#599198; stroke:none;" d="M377 176L369 180L369 181L374 180L370 184L367 181C367.116 184.165 367.946 185.128 371 186L370 190L366 186L365 186L362 188L365 193L375 184L374 193L375 193L376 182L381 184L381 185L378 187L383 185L383 189L384 189L387 186L386 189L389 188L393 191L393 192L390 192L394 196L397 193L394 193L393 190L397 189L397 188L389 188L389 183L388 183L383 184L383 183L388 182L388 181L383 180L385 177L382 176L382 178L377 176M396 176L397 177L396 176M407 176L408 177L407 176M279 177L280 178L279 177M352 177L353 178L352 177M354 179L357 177L354 179M374 177L375 178L374 177z"/>
<path style="fill:#030506; stroke:none;" d="M451 177L452 180L453 180L454 177L451 177z"/>
<path style="fill:#90c2cb; stroke:none;" d="M272 180L274 179L271 183L278 183L283 185L284 180L276 178L276 181L275 178L272 180z"/>
<path style="fill:#385c5e; stroke:none;" d="M378 178L379 179L378 178z"/>
<path style="fill:#90c2cb; stroke:none;" d="M270 179L269 182L272 180L270 179z"/>
<path style="fill:#83a3a7; stroke:none;" d="M279 179L280 182L281 182L279 179M286 179L287 180L286 179M295 179L300 182L300 181L295 179z"/>
<path style="fill:#385c5e; stroke:none;" d="M342 179L343 180L342 179z"/>
<path style="fill:#83a3a7; stroke:none;" d="M379 179L380 180L379 179z"/>
<path style="fill:#599198; stroke:none;" d="M418 179L416 185L419 184L418 179z"/>
<path style="fill:#030506; stroke:none;" d="M450 179L451 180L450 179z"/>
<path style="fill:#83a3a7; stroke:none;" d="M308 180L306 184L308 180M373.333 180.667L373.667 181.333L373.333 180.667M382 180L382 183L385 182L385 181L382 180z"/>
<path style="fill:#599198; stroke:none;" d="M391 180L390 185L391 185L391 180z"/>
<path style="fill:#385c5e; stroke:none;" d="M474 180L475 181L474 180z"/>
<path style="fill:#83a3a7; stroke:none;" d="M282 182L288 185L282 182z"/>
<path style="fill:#385c5e; stroke:none;" d="M341 181L339 194L340 194L345 190L345 189L341 189L341 181z"/>
<path style="fill:#83a3a7; stroke:none;" d="M304 182L305 183L304 182M329 182L335 186L335 185L329 182z"/>
<path style="fill:#385c5e; stroke:none;" d="M332 182L332 183L335 184L332 182z"/>
<path style="fill:#83a3a7; stroke:none;" d="M369 182L371 184L371 182L369 182z"/>
<path style="fill:#385c5e; stroke:none;" d="M376 182L375 184L377 184L376 182z"/>
<path style="fill:#599198; stroke:none;" d="M394 182L395 183L394 182z"/>
<path style="fill:#030506; stroke:none;" d="M447 182L449 184L447 182z"/>
<path style="fill:#90c2cb; stroke:none;" d="M264 183L264 189L265 189L264 183M269 183L270 184L269 183z"/>
<path style="fill:#599198; stroke:none;" d="M332.667 183.333L333.333 183.667L332.667 183.333z"/>
<path style="fill:#385c5e; stroke:none;" d="M337 183L338 184L337 183z"/>
<path style="fill:#83a3a7; stroke:none;" d="M368 183L369 184L368 183z"/>
<path style="fill:#385c5e; stroke:none;" d="M378 183L381 185L381 184L378 183z"/>
<path style="fill:#599198; stroke:none;" d="M409.667 183.333L410.333 183.667L409.667 183.333M413 183L414 184L413 183z"/>
<path style="fill:#83a3a7; stroke:none;" d="M302 184L303 189L315 189C313.495 186.586 311.588 183.333 309 186L312 185L311 188L302 184M376 184L375 195L381 191L381 193L384 191L385 194L387 191L389 194C389.154 190.145 386.953 186.625 383 189L383 185L380 188L379 188L378 184L376 184z"/>
<path style="fill:#599198; stroke:none;" d="M396 186L396 187L408 189L406 192L410 192L410 188C405.088 183.432 402.385 184.6 396 186z"/>
<path style="fill:#030506; stroke:none;" d="M455 184L456 185L455 184z"/>
<path style="fill:#90c2cb; stroke:none;" d="M269 185L270 198L274 196L278 206L282 205L279 208L284 213L282 208L289 212L287 208L290 207L289 200L280 193L281 195L272 186L272 189L271 189L272 185L269 185z"/>
<path style="fill:#83a3a7; stroke:none;" d="M284 185L285 186L284 185M305.667 185.333L306.333 185.667L305.667 185.333z"/>
<path style="fill:#385c5e; stroke:none;" d="M327 185L328 186L327 185M329 185L330 186L329 185M342 185L343 186L342 185z"/>
<path style="fill:#83a3a7; stroke:none;" d="M367 185L370 190L370 185L367 185z"/>
<path style="fill:#385c5e; stroke:none;" d="M484.667 185.333L485.333 185.667L484.667 185.333z"/>
<path style="fill:#90c2cb; stroke:none;" d="M277 186L279 188L277 186z"/>
<path style="fill:#83a3a7; stroke:none;" d="M286 186L287 187L286 186M321 186L322 191L326 189L321 186z"/>
<path style="fill:#385c5e; stroke:none;" d="M325 186L326 187L325 186z"/>
<path style="fill:#83a3a7; stroke:none;" d="M329 189L333 189L328 190L327 191L328 194L335 189L334 187L329 189M345 186L347 191L348 191L345 186z"/>
<path style="fill:#385c5e; stroke:none;" d="M370 186L371 187L370 186M385 186L387 188L387 186L385 186z"/>
<path style="fill:#83a3a7; stroke:none;" d="M402 186L403 187L402 186z"/>
<path style="fill:#599198; stroke:none;" d="M312 187L313 188L312 187M323.333 187.667L323.667 188.333L323.333 187.667z"/>
<path style="fill:#90c2cb; stroke:none;" d="M379 187L380 188L379 187z"/>
<path style="fill:#385c5e; stroke:none;" d="M402.667 187.333L403.333 187.667L402.667 187.333M474 189L475 193L476 193L476 189L478 191L481 191C479.864 186.957 477.396 187.367 474 189z"/>
<path style="fill:#599198; stroke:none;" d="M280 188L281 189L280 188z"/>
<path style="fill:#90c2cb; stroke:none;" d="M304.667 188.333L305.333 188.667L304.667 188.333M313 188L314 189L313 188z"/>
<path style="fill:#385c5e; stroke:none;" d="M327.667 188.333L328.333 188.667L327.667 188.333z"/>
<path style="fill:#90c2cb; stroke:none;" d="M333 188L333 189L336 190L333 188z"/>
<path style="fill:#83a3a7; stroke:none;" d="M336.333 188.667L336.667 189.333L336.333 188.667z"/>
<path style="fill:#90c2cb; stroke:none;" d="M346 188L347 189L346 188z"/>
<path style="fill:#599198; stroke:none;" d="M380 188L381 189L380 188z"/>
<path style="fill:#385c5e; stroke:none;" d="M388 188L389 189L388 188z"/>
<path style="fill:#030506; stroke:none;" d="M454 188L452 193L455 194L453 201L454 201L457 193L454 188z"/>
<path style="fill:#83a3a7; stroke:none;" d="M274 189L275 190L274 189M285 189L287 192L288 189L285 189z"/>
<path style="fill:#599198; stroke:none;" d="M350 189L352 194L356 190L360 192L359 189L350 189z"/>
<path style="fill:#83a3a7; stroke:none;" d="M365 189L366 190L365 189z"/>
<path style="fill:#385c5e; stroke:none;" d="M366 189L367 190L366 189z"/>
<path style="fill:#83a3a7; stroke:none;" d="M390.667 189.333L391.333 189.667L390.667 189.333M407 189L408 190L407 189z"/>
<path style="fill:#030506; stroke:none;" d="M456 189L456 192L457 192L458 189L456 189z"/>
<path style="fill:#385c5e; stroke:none;" d="M554.333 189.667L554.667 190.333L554.333 189.667z"/>
<path style="fill:#83a3a7; stroke:none;" d="M300 192L303 191L300 192M316 190L317 191L316 190M318 190L318 191L321 191L318 190z"/>
<path style="fill:#90c2cb; stroke:none;" d="M334 190L335 191L334 190z"/>
<path style="fill:#83a3a7; stroke:none;" d="M367 190L368 191L367 190z"/>
<path style="fill:#599198; stroke:none;" d="M386 190L387 191L386 190z"/>
<path style="fill:#90c2cb; stroke:none;" d="M301 191L302 192L301 191z"/>
<path style="fill:#83a3a7; stroke:none;" d="M313 191L314 192L313 191M325 191L326 192L325 191z"/>
<path style="fill:#90c2cb; stroke:none;" d="M326 191L327 192L326 191z"/>
<path style="fill:#385c5e; stroke:none;" d="M347 191L348 192L347 191z"/>
<path style="fill:#599198; stroke:none;" d="M380 191L375 199L374 202L369 199L371 196L368 197L367 202L370 201L372 205L367 213L372 213L372 205L381 207L382 202L388 203L388 191L387 191C385.281 192.708 385.04 193.223 384 191L381 193L380 191z"/>
<path style="fill:#385c5e; stroke:none;" d="M389 191L389 192L393 192L389 191M461 191L462 192L461 191M485 191L486 192L485 191z"/>
<path style="fill:#83a3a7; stroke:none;" d="M288 192L289 193L288 192M321 192L322 193L321 192M324 192L325 193L324 192z"/>
<path style="fill:#90c2cb; stroke:none;" d="M329 192L330 193L329 192z"/>
<path style="fill:#385c5e; stroke:none;" d="M348 192L349 193L348 192z"/>
<path style="fill:#599198; stroke:none;" d="M403.333 192.667L403.667 193.333L403.333 192.667z"/>
<path style="fill:#83a3a7; stroke:none;" d="M310 193L310 195L312 193L310 193z"/>
<path style="fill:#385c5e; stroke:none;" d="M321 193L321 194L325 194L321 193z"/>
<path style="fill:#83a3a7; stroke:none;" d="M332 193L332 194L333 196L341 196L341 195L335 195L332 193z"/>
<path style="fill:#599198; stroke:none;" d="M362 193L362 195L364 195L362 193M364 193L365 194L364 193z"/>
<path style="fill:#385c5e; stroke:none;" d="M379 193L377 197L380 196L379 201L378 201L377 199L374 202L374 203L386 197L386 195L379 193z"/>
<path style="fill:#599198; stroke:none;" d="M410 193L411 194L410 193z"/>
<path style="fill:#030506; stroke:none;" d="M463 193L464 194L463 193z"/>
<path style="fill:#90c2cb; stroke:none;" d="M324 195L325 199L329 199L329 198L327 196L334 195L324 195z"/>
<path style="fill:#83a3a7; stroke:none;" d="M342 194L343 195L342 194z"/>
<path style="fill:#90c2cb; stroke:none;" d="M343 194L344 195L343 194z"/>
<path style="fill:#83a3a7; stroke:none;" d="M344 194L345 195L344 194z"/>
<path style="fill:#385c5e; stroke:none;" d="M346 194L347 195L346 194z"/>
<path style="fill:#83a3a7; stroke:none;" d="M391 194L392 195L391 194M393 194L394 195L393 194z"/>
<path style="fill:#030506; stroke:none;" d="M459 194L460 195L459 194z"/>
<path style="fill:#385c5e; stroke:none;" d="M469.333 194.667L469.667 195.333L469.333 194.667M479 194L478 196L479 194z"/>
<path style="fill:#83a3a7; stroke:none;" d="M312.667 195.333L313.333 195.667L312.667 195.333M323 195L321 197L321 198L323 200L320 198L316 199C316.815 202.727 319.767 201.163 323 201L320 205L323 204L322 206L323 206L326 203L335 203L334 200L334 199L339 199L339 198L337 197L329 198L330 201L325 199L323 195M327 198L332 195L327 198z"/>
<path style="fill:#599198; stroke:none;" d="M403 195L404 196L403 195z"/>
<path style="fill:#385c5e; stroke:none;" d="M467 195L465 196L465 197L467 195M481 195L478 202L473 201L473 196L472 196L471 202L473 206L474 206L475 204L479 208L481 203L477 206L481 195z"/>
<path style="fill:#599198; stroke:none;" d="M265 196L265 199L266 199L265 196z"/>
<path style="fill:#83a3a7; stroke:none;" d="M285 196L286 197L285 196z"/>
<path style="fill:#385c5e; stroke:none;" d="M343.667 196.333L344.333 196.667L343.667 196.333z"/>
<path style="fill:#599198; stroke:none;" d="M359.667 196.333L360.333 196.667L359.667 196.333M366 196L365 199L362 197L361 200C363.792 199.681 366.794 199.326 366 196z"/>
<path style="fill:#83a3a7; stroke:none;" d="M286 197L288 200L286 197M293 197L293 198L296 198L293 197z"/>
<path style="fill:#90c2cb; stroke:none;" d="M337 199L341 198L337 199z"/>
<path style="fill:#83a3a7; stroke:none;" d="M369 197L370 198L369 197z"/>
<path style="fill:#385c5e; stroke:none;" d="M553 197L553 201L554 201L553 197z"/>
<path style="fill:#90c2cb; stroke:none;" d="M293 198L293 199L296 199L293 198z"/>
<path style="fill:#83a3a7; stroke:none;" d="M299 198L298 200L299 198M312 198L313 199L312 198z"/>
<path style="fill:#90c2cb; stroke:none;" d="M330 198L331 199L330 198z"/>
<path style="fill:#83a3a7; stroke:none;" d="M340 198L340 201L342 199L346 202L349 201L347 203L348 206L345 207L345 201L341 202L343 209L349 205L355 204L361 209L361 210L356 214L358 212L364 212L373 214L373 213L365 213L372 205L372 204L360 204L363 201C363.546 204.274 368.382 203.216 370 201L367 202L369 198L356 199L351 204L354 201L340 198M351 198L352 199L351 198z"/>
<path style="fill:#599198; stroke:none;" d="M380 198L381 199L380 198z"/>
<path style="fill:#83a3a7; stroke:none;" d="M384 198L386 201L384 198z"/>
<path style="fill:#030506; stroke:none;" d="M440 198L442 200L440 198M458 198L460 200L458 198z"/>
<path style="fill:#90c2cb; stroke:none;" d="M273 199L271 201L273 204L274 204L273 199z"/>
<path style="fill:#83a3a7; stroke:none;" d="M292 199L298 204L292 199M310 199L312 202L310 199z"/>
<path style="fill:#90c2cb; stroke:none;" d="M311 199L316 202L311 199z"/>
<path style="fill:#83a3a7; stroke:none;" d="M314 199L315 200L314 199z"/>
<path style="fill:#90c2cb; stroke:none;" d="M321.667 199.333L322.333 199.667L321.667 199.333z"/>
<path style="fill:#599198; stroke:none;" d="M328 199L330 201L330 199L328 199z"/>
<path style="fill:#90c2cb; stroke:none;" d="M331.667 199.333L332.333 199.667L331.667 199.333M334 199L334 200L337 200L334 199z"/>
<path style="fill:#599198; stroke:none;" d="M342 199L343 202L346 201L346 200L342 199z"/>
<path style="fill:#90c2cb; stroke:none;" d="M344.667 199.333L345.333 199.667L344.667 199.333z"/>
<path style="fill:#599198; stroke:none;" d="M406 199L403 201L404 206L405 206L406 199M410.333 199.667L410.667 200.333L410.333 199.667z"/>
<path style="fill:#385c5e; stroke:none;" d="M484 199L482 202L484 205L485 205L484 199z"/>
<path style="fill:#599198; stroke:none;" d="M266.333 200.667L266.667 201.333L266.333 200.667z"/>
<path style="fill:#83a3a7; stroke:none;" d="M301 200L307 203L301 200M307 200L308 201L307 200z"/>
<path style="fill:#90c2cb; stroke:none;" d="M308.667 200.333L309.333 200.667L308.667 200.333z"/>
<path style="fill:#599198; stroke:none;" d="M326 200L327 201L326 200z"/>
<path style="fill:#385c5e; stroke:none;" d="M338 200L339 201L338 200M343 200L344 201L343 200M481 200L482 201L481 200z"/>
<path style="fill:#83a3a7; stroke:none;" d="M282 201L283 205L288 206L282 201z"/>
<path style="fill:#599198; stroke:none;" d="M302 201L303 202L302 201z"/>
<path style="fill:#385c5e; stroke:none;" d="M319.667 201.333L320.333 201.667L319.667 201.333z"/>
<path style="fill:#90c2cb; stroke:none;" d="M326.667 201.333L327.333 201.667L326.667 201.333z"/>
<path style="fill:#83a3a7; stroke:none;" d="M339 201L340 202L339 201z"/>
<path style="fill:#385c5e; stroke:none;" d="M341.667 201.333L342.333 201.667L341.667 201.333z"/>
<path style="fill:#90c2cb; stroke:none;" d="M345 201L346 202L345 201z"/>
<path style="fill:#599198; stroke:none;" d="M343 203L345 207L348 206L349 201L343 203z"/>
<path style="fill:#90c2cb; stroke:none;" d="M356 201L356 202L359 202L356 201M360 204L370 205L363 201L360 204M323 202L324 203L323 202M328 202L329 203L328 202z"/>
<path style="fill:#83a3a7; stroke:none;" d="M336.667 202.333L337.333 202.667L336.667 202.333z"/>
<path style="fill:#90c2cb; stroke:none;" d="M342 202L343 203L342 202z"/>
<path style="fill:#599198; stroke:none;" d="M357 202L356 206L357 206L359 203L357 202z"/>
<path style="fill:#83a3a7; stroke:none;" d="M378 202L378 203L381 203L378 202z"/>
<path style="fill:#030506; stroke:none;" d="M457 202L454 203L454 204L458 205L457 202M459 202L459 204L461 204L459 202M463 202L463 205L464 205L463 202z"/>
<path style="fill:#90c2cb; stroke:none;" d="M275 203L276 204L275 203M326.667 203.333L327.333 203.667L326.667 203.333z"/>
<path style="fill:#83a3a7; stroke:none;" d="M338.667 203.333L339.333 203.667L338.667 203.333z"/>
<path style="fill:#90c2cb; stroke:none;" d="M340 203L341 204L340 203M349 203L350 204L349 203z"/>
<path style="fill:#83a3a7; stroke:none;" d="M372 203L373 204L372 203z"/>
<path style="fill:#599198; stroke:none;" d="M402 203L403 204L402 203z"/>
<path style="fill:#385c5e; stroke:none;" d="M552 203L552 207L553 207L552 203z"/>
<path style="fill:#599198; stroke:none;" d="M266 204L267 205L266 204z"/>
<path style="fill:#385c5e; stroke:none;" d="M318 204L319 205L318 204z"/>
<path style="fill:#90c2cb; stroke:none;" d="M318 206L318 207L323 205L318 206M353.667 204.333L354.333 204.667L353.667 204.333z"/>
<path style="fill:#599198; stroke:none;" d="M362 204L363 205L362 204z"/>
<path style="fill:#030506; stroke:none;" d="M439 204L440 205L439 204M449 204L452 206L452 205L449 204z"/>
<path style="fill:#83a3a7; stroke:none;" d="M295 206L295 207L299 205L295 206z"/>
<path style="fill:#90c2cb; stroke:none;" d="M297 205L298 206L297 205z"/>
<path style="fill:#385c5e; stroke:none;" d="M316 205L317 206L316 205z"/>
<path style="fill:#83a3a7; stroke:none;" d="M328 205L328 206L331 206L328 205M332 205L333 206L332 205z"/>
<path style="fill:#385c5e; stroke:none;" d="M335 205L335 206L338 206L335 205z"/>
<path style="fill:#83a3a7; stroke:none;" d="M339 205L340 206L339 205z"/>
<path style="fill:#90c2cb; stroke:none;" d="M340 205L341 206L340 205M349 205L349 206L352 206L349 205z"/>
<path style="fill:#599198; stroke:none;" d="M337 212L351 212L351 213L336 217L336 218L340 217L340 218L338 219L339 220L340 218L344 219C344.316 216.136 345.166 214.709 348 216L355 210L356 211L355 215L351 219L360 213L356 214L358 209L361 210L361 209L355 205L337 212M364 205L364 207L366 207L364 205z"/>
<path style="fill:#90c2cb; stroke:none;" d="M368 205L369 206L368 205z"/>
<path style="fill:#83a3a7; stroke:none;" d="M379 205L380 206L379 205z"/>
<path style="fill:#90c2cb; stroke:none;" d="M266.333 206.667L266.667 207.333L266.333 206.667z"/>
<path style="fill:#385c5e; stroke:none;" d="M333 206L334 207L333 206z"/>
<path style="fill:#83a3a7; stroke:none;" d="M332 208L337 211L337 210L337 207L332 208M338 206L338 208L340 208L338 206z"/>
<path style="fill:#90c2cb; stroke:none;" d="M360 206L360 208L363 208L363 206L360 206M367 206L368 207L367 206z"/>
<path style="fill:#030506; stroke:none;" d="M458.333 206.667L458.667 207.333L458.333 206.667z"/>
<path style="fill:#90c2cb; stroke:none;" d="M274 207L275 209L272 208L270 210L270 211L277 213L274 207z"/>
<path style="fill:#83a3a7; stroke:none;" d="M292 208L292 209L294 208L294 209L293 220L294 220L297 209L298 209L299 212L300 212L299 208L292 208z"/>
<path style="fill:#90c2cb; stroke:none;" d="M294.667 207.333L295.333 207.667L294.667 207.333z"/>
<path style="fill:#385c5e; stroke:none;" d="M320 207L317 210L318 213L323 212L323 213L320 213L320 214L337 212L337 211L330 207L320 207z"/>
<path style="fill:#90c2cb; stroke:none;" d="M335 207L335 210L344 208L335 207M366 207L367 208L366 207z"/>
<path style="fill:#599198; stroke:none;" d="M383 207L384 208L383 207M403 207L402 210L403 207z"/>
<path style="fill:#385c5e; stroke:none;" d="M468 207L469 208L468 207z"/>
<path style="fill:#599198; stroke:none;" d="M265 208L265 211L266 211L265 208z"/>
<path style="fill:#90c2cb; stroke:none;" d="M293.333 208.667L293.667 209.333L293.333 208.667z"/>
<path style="fill:#83a3a7; stroke:none;" d="M355.667 208.333L356.333 208.667L355.667 208.333z"/>
<path style="fill:#599198; stroke:none;" d="M363 208L364 209L363 208z"/>
<path style="fill:#83a3a7; stroke:none;" d="M369.667 208.333L370.333 208.667L369.667 208.333z"/>
<path style="fill:#030506; stroke:none;" d="M447 208L448 209L447 208z"/>
<path style="fill:#385c5e; stroke:none;" d="M551 208L551 212L552 212L551 208z"/>
<path style="fill:#90c2cb; stroke:none;" d="M297 209L294 220L293 220L294 212L289 214L291 230L295 231L297 225L294 223L300 226L301 223C303.739 224.657 307.076 227.223 308 223L305 224L305 218L298 220L298 221L300 222L297 223L295 220L299 218L298 215L301 211L297 209z"/>
<path style="fill:#83a3a7; stroke:none;" d="M340 209L341 210L340 209z"/>
<path style="fill:#385c5e; stroke:none;" d="M344 209L345 210L344 209M350 209L351 210L350 209M358 209L358 211L360 211L360 209L358 209z"/>
<path style="fill:#90c2cb; stroke:none;" d="M364 209L365 210L364 209z"/>
<path style="fill:#599198; stroke:none;" d="M366 209L365 212L366 209z"/>
<path style="fill:#385c5e; stroke:none;" d="M367 209L366 212L367 209z"/>
<path style="fill:#030506; stroke:none;" d="M459 209L459 212L460 212L459 209z"/>
<path style="fill:#90c2cb; stroke:none;" d="M278.333 210.667L278.667 211.333L278.333 210.667M294 210L295 211L294 210z"/>
<path style="fill:#83a3a7; stroke:none;" d="M305.667 210.333L306.333 210.667L305.667 210.333z"/>
<path style="fill:#599198; stroke:none;" d="M326 210L327 211L326 210z"/>
<path style="fill:#83a3a7; stroke:none;" d="M350 210L351 211L350 210z"/>
<path style="fill:#385c5e; stroke:none;" d="M352 210L353 211L352 210M354 210L352 214L356 211L354 210M356 210L357 211L356 210z"/>
<path style="fill:#90c2cb; stroke:none;" d="M362.667 210.333L363.333 210.667L362.667 210.333z"/>
<path style="fill:#599198; stroke:none;" d="M388.667 210.333L389.333 210.667L388.667 210.333z"/>
<path style="fill:#030506; stroke:none;" d="M453.667 210.333L454.333 210.667L453.667 210.333z"/>
<path style="fill:#599198; stroke:none;" d="M266 211L266 216L267 216L266 211z"/>
<path style="fill:#83a3a7; stroke:none;" d="M301 211L298 215L299 218L295 220L297 223L300 222L298 221L298 220L301 219L301 211M338 212L339 214L334 216L333 216L334 219L319 219L314 216L313 221L317 222L316 219L335 221L338 219L337 223L340 218L340 217L336 218L350 212L338 212z"/>
<path style="fill:#90c2cb; stroke:none;" d="M361 211L362 212L361 211z"/>
<path style="fill:#83a3a7; stroke:none;" d="M332 212L333 213L332 212z"/>
<path style="fill:#90c2cb; stroke:none;" d="M328 214L328 215L332 216L332 217L323 217L323 218C328.952 218.845 334.912 217.633 339 213L328 214z"/>
<path style="fill:#385c5e; stroke:none;" d="M349.667 212.333L350.333 212.667L349.667 212.333z"/>
<path style="fill:#90c2cb; stroke:none;" d="M358.667 212.333L359.333 212.667L358.667 212.333z"/>
<path style="fill:#599198; stroke:none;" d="M362 212L361 214L362 218L365 218L364 216L367 215L367 214L362 212z"/>
<path style="fill:#90c2cb; stroke:none;" d="M365 212L366 213L365 212z"/>
<path style="fill:#599198; stroke:none;" d="M374 212L375 213L374 212M389 212L393 214L393 213L389 212z"/>
<path style="fill:#030506; stroke:none;" d="M456 212L456 215L457 215L456 212z"/>
<path style="fill:#90c2cb; stroke:none;" d="M272 213L273 214L272 213z"/>
<path style="fill:#83a3a7; stroke:none;" d="M305.667 213.333L306.333 213.667L305.667 213.333M329.667 213.333L330.333 213.667L329.667 213.333z"/>
<path style="fill:#599198; stroke:none;" d="M383 219L379 220L379 221L384 221L385 219L383 217L383 216L387 214C383.74 213.922 383.121 216.012 383 219z"/>
<path style="fill:#385c5e; stroke:none;" d="M482 213L477 226L481 227L483 218L482 218L482 221L481 221L482 213M550 213L550 216L551 216L550 213z"/>
<path style="fill:#83a3a7; stroke:none;" d="M314.667 214.333L315.333 214.667L314.667 214.333z"/>
<path style="fill:#90c2cb; stroke:none;" d="M312 217L323 216C319.312 214.365 314.743 213.625 312 217z"/>
<path style="fill:#83a3a7; stroke:none;" d="M318.667 214.333L319.333 214.667L318.667 214.333M322 216L322 217L332 217C328.65 214.435 325.884 214.636 322 216M345 220L355 215L355 214L349 215L350 217L348 214C344.384 215.123 343.796 216.446 345 220z"/>
<path style="fill:#385c5e; stroke:none;" d="M365 214L366 215L365 214z"/>
<path style="fill:#599198; stroke:none;" d="M368.667 214.333L369.333 214.667L368.667 214.333M424 214L425 215L424 214z"/>
<path style="fill:#030506; stroke:none;" d="M454 214L455 215L454 214M469 214L468 217L469 214z"/>
<path style="fill:#83a3a7; stroke:none;" d="M311 215L312 216L311 215M321 215L322 216L321 215z"/>
<path style="fill:#90c2cb; stroke:none;" d="M338 215L339 216L338 215M346 215L345 217L346 215M350 215L351 216L350 215z"/>
<path style="fill:#599198; stroke:none;" d="M388 215L388 217L385 216L385 217L389 221L391 216L388 215M267 216L267 221L268 221L267 216M323.667 216.333L324.333 216.667L323.667 216.333z"/>
<path style="fill:#90c2cb; stroke:none;" d="M348.667 216.333L349.333 216.667L348.667 216.333z"/>
<path style="fill:#599198; stroke:none;" d="M376 216L375 218L376 216z"/>
<path style="fill:#83a3a7; stroke:none;" d="M387 216L388 217L387 216z"/>
<path style="fill:#599198; stroke:none;" d="M407 216L408 217L407 216z"/>
<path style="fill:#030506; stroke:none;" d="M449 216L450 217L449 216z"/>
<path style="fill:#599198; stroke:none;" d="M270 217L272 219L270 217z"/>
<path style="fill:#90c2cb; stroke:none;" d="M283 217L284 218L283 217z"/>
<path style="fill:#83a3a7; stroke:none;" d="M302 217L304 219L304 217L302 217M307 217L309 219L307 217M311.667 217.333L312.333 217.667L311.667 217.333z"/>
<path style="fill:#599198; stroke:none;" d="M319 218L319 219L323 218L319 218M332 217L332 219L334 219L332 217M334 217L335 218L334 217M346.667 217.333L347.333 217.667L346.667 217.333M369 217L369 218L372 219L369 217z"/>
<path style="fill:#83a3a7; stroke:none;" d="M371 217L372 218L371 217M384 217L384 218L387 218L384 217z"/>
<path style="fill:#030506; stroke:none;" d="M452 217L454 220L452 217M458 219L461 217L458 219z"/>
<path style="fill:#385c5e; stroke:none;" d="M549 217L549 220L550 220L549 217z"/>
<path style="fill:#83a3a7; stroke:none;" d="M301 218L302 219L301 218M305 218L304 223L305 224L308 225L312 219L311 219L306 222L305 218z"/>
<path style="fill:#90c2cb; stroke:none;" d="M306 218L306 222L311 221L306 218M315 218L316 219L315 218z"/>
<path style="fill:#599198; stroke:none;" d="M324 218L325 219L324 218z"/>
<path style="fill:#83a3a7; stroke:none;" d="M340 218L340 223L341 223L340 218z"/>
<path style="fill:#599198; stroke:none;" d="M349 218L350 219L349 218z"/>
<path style="fill:#385c5e; stroke:none;" d="M388 218L389 219L388 218z"/>
<path style="fill:#599198; stroke:none;" d="M304.333 219.667L304.667 220.333L304.333 219.667z"/>
<path style="fill:#90c2cb; stroke:none;" d="M312 219L312 221L314 219L312 219M316.667 219.333L317.333 219.667L316.667 219.333z"/>
<path style="fill:#599198; stroke:none;" d="M320 220L320 221L324 220L320 220z"/>
<path style="fill:#90c2cb; stroke:none;" d="M335 221L338 219L335 221M340 219L339 223L340 223L340 219M342 221L345 219L342 221z"/>
<path style="fill:#599198; stroke:none;" d="M347.667 219.333L348.333 219.667L347.667 219.333M317 220C312.916 222.536 308.773 222.033 309 228L314 228L312 226L312 225L315 223L317 224L317 226L319 225L315 227L316 229L310 230L310 231L319 233L319 234L317 237L319 237L320 240L320 241L317 240L318 243L316 243L318 248L313 247L313 248L324 255L307 255L303 250L298 250L298 249L300 247L308 248C305.875 244.344 303.18 244.448 300 247L299 247L293 245L295 242L284 243L277 234L280 239L279 242L288 255L292 256L289 255L294 258L293 264L295 266L299 267L296 260C298.559 263.254 302.76 267.857 301 272L301 273L306 272L309 276L309 280L313 278L314 281L317 279L316 283L322 286L323 295L319 290L317 291L316 291L316 290L318 287L313 290L313 291C331.332 304.168 355.926 323.765 380 317L380 314L373 303L375 297L375 296L362 293L362 292L365 290L361 290L361 289L366 288L366 287L356 287L356 286L361 286L361 285L357 284L357 283L362 282L362 281L358 281L358 280L372 278L370 275L373 274L372 264L373 264L374 267L374 262L378 261L378 259L373 258L375 255L375 254L373 252L377 254L378 251L375 252C375.022 248.8 372.787 251.215 372 253L368 252L362 256L366 254L366 253L354 254L359 251L359 250L351 247L351 246L359 249L361 246L361 245L359 244L362 243L362 242L354 245L356 239L367 239L367 238L367 237L365 238L366 235L342 240L341 240L335 235L332 236L334 233L330 234L335 228L335 227L327 225L330 221L323 221L326 225L321 226L322 222L317 220M331 220L331 221L334 221L331 220M341 222L341 223L347 222L341 222M356 220L356 221L359 221L356 220M362 221L362 222L367 221L362 221z"/>
<path style="fill:#83a3a7; stroke:none;" d="M377.667 220.333L378.333 220.667L377.667 220.333z"/>
<path style="fill:#599198; stroke:none;" d="M268 221L268 224L269 224L268 221M271 221L272 223L273 223L274 221L271 221z"/>
<path style="fill:#90c2cb; stroke:none;" d="M280 221L281 222L280 221z"/>
<path style="fill:#599198; stroke:none;" d="M290 221L289 223L290 221M334 221L334 222L335 225L339 224L334 221M386 221L387 222L386 221M404 221L405 222L404 221z"/>
<path style="fill:#385c5e; stroke:none;" d="M470 221L469 224L470 221z"/>
<path style="fill:#030506; stroke:none;" d="M480 221L481 222L480 221z"/>
<path style="fill:#385c5e; stroke:none;" d="M548.333 221.667L548.667 222.333L548.333 221.667z"/>
<path style="fill:#90c2cb; stroke:none;" d="M285 222L285 226L289 225L285 222z"/>
<path style="fill:#599198; stroke:none;" d="M305 222L306 223L305 222z"/>
<path style="fill:#385c5e; stroke:none;" d="M321 226L326 225C323.948 221.899 322.101 222.686 321 226z"/>
<path style="fill:#030506; stroke:none;" d="M453 222L454 223L453 222z"/>
<path style="fill:#599198; stroke:none;" d="M274 223L276 225L276 223L274 223z"/>
<path style="fill:#83a3a7; stroke:none;" d="M314 223L312 225L312 226L314 228L310 230L316 229L315 227L319 225L314 223z"/>
<path style="fill:#599198; stroke:none;" d="M331.667 223.333L332.333 223.667L331.667 223.333M343 223L344 224L343 223M357 225L360 224L357 225M386 223L384 226L388 226L386 223M403 226L406 223L403 226M269.333 224.667L269.667 225.333L269.333 224.667z"/>
<path style="fill:#90c2cb; stroke:none;" d="M316 224L317 225L316 224z"/>
<path style="fill:#83a3a7; stroke:none;" d="M319 224L320 225L319 224z"/>
<path style="fill:#599198; stroke:none;" d="M339 224L340 225L339 224z"/>
<path style="fill:#030506; stroke:none;" d="M479.333 224.667L479.667 225.333L479.333 224.667z"/>
<path style="fill:#385c5e; stroke:none;" d="M547.333 224.667L547.667 225.333L547.333 224.667z"/>
<path style="fill:#599198; stroke:none;" d="M303 225L304 227L301 226L302 233L304 228L307 229L303 225z"/>
<path style="fill:#83a3a7; stroke:none;" d="M305 225L306 226L305 225z"/>
<path style="fill:#599198; stroke:none;" d="M338 225L339 226L338 225z"/>
<path style="fill:#385c5e; stroke:none;" d="M475 225L476 226L475 225z"/>
<path style="fill:#599198; stroke:none;" d="M270 226L270 229L271 229L270 226M290.333 226.667L290.667 227.333L290.333 226.667z"/>
<path style="fill:#83a3a7; stroke:none;" d="M307 226L307 228L309 228L309 226L307 226z"/>
<path style="fill:#90c2cb; stroke:none;" d="M314 226L315 227L314 226z"/>
<path style="fill:#385c5e; stroke:none;" d="M332 226L331 228L333 228L332 226z"/>
<path style="fill:#599198; stroke:none;" d="M349 226L348 228L349 226M382 226L381 228L383 228L382 226z"/>
<path style="fill:#90c2cb; stroke:none;" d="M298 227L296 231L300 229L300 228L298 227M311 227L312 228L311 227z"/>
<path style="fill:#83a3a7; stroke:none;" d="M319 227L322 231L319 227z"/>
<path style="fill:#90c2cb; stroke:none;" d="M322.667 227.333L323.333 227.667L322.667 227.333z"/>
<path style="fill:#83a3a7; stroke:none;" d="M324 227L327 231L324 227z"/>
<path style="fill:#030506; stroke:none;" d="M454 227L455 228L454 227z"/>
<path style="fill:#385c5e; stroke:none;" d="M471 227L472 228L471 227M546.333 227.667L546.667 228.333L546.333 227.667z"/>
<path style="fill:#599198; stroke:none;" d="M276 228L277 229L276 228z"/>
<path style="fill:#90c2cb; stroke:none;" d="M307 228C306.5 230.913 305.877 232.317 309 233L308 230L309 230L309 232L310 232L310 228L307 228z"/>
<path style="fill:#599198; stroke:none;" d="M411 228L412 229L411 228M271 229L271 232L272 232L271 229M274 229L276 232L274 229z"/>
<path style="fill:#90c2cb; stroke:none;" d="M287 230L291 231L287 230M304 229L304 233L305 233L304 229z"/>
<path style="fill:#83a3a7; stroke:none;" d="M316 229L317 230L316 229z"/>
<path style="fill:#90c2cb; stroke:none;" d="M276 230L277 231L276 230z"/>
<path style="fill:#599198; stroke:none;" d="M283.667 230.333L284.333 230.667L283.667 230.333M292 230L293 231L292 230M298 230L299 231L298 230z"/>
<path style="fill:#90c2cb; stroke:none;" d="M299 230L300 231L299 230z"/>
<path style="fill:#385c5e; stroke:none;" d="M330 230L329 232L330 230z"/>
<path style="fill:#599198; stroke:none;" d="M335 230L336 233L339 230L335 230M385 230L386 231L385 230z"/>
<path style="fill:#385c5e; stroke:none;" d="M545 230L546 231L545 230z"/>
<path style="fill:#90c2cb; stroke:none;" d="M280 231L281 232L280 231M313 231L314 232L313 231M315 231L316 232L315 231z"/>
<path style="fill:#599198; stroke:none;" d="M346 231L347 232L346 231z"/>
<path style="fill:#385c5e; stroke:none;" d="M466 231L467 232L466 231z"/>
<path style="fill:#599198; stroke:none;" d="M272.333 232.667L272.667 233.333L272.333 232.667M284 232L281 233C282.28 237.553 285.926 236.635 289 234L284 235L284 232M290 232L291 233L290 232M293 232L289 236C292.567 236.284 294.801 235.842 295 232L293 232M310 232L308 235L310 232M314 232L315 233L314 232z"/>
<path style="fill:#90c2cb; stroke:none;" d="M316 232L317 233L316 232z"/>
<path style="fill:#599198; stroke:none;" d="M368 235L371 240L363 240L363 243L374 239L374 238L369 238L369 237L372 235L378 233L368 235M379 232L380 233L379 232M384.667 232.333L385.333 232.667L384.667 232.333M289 233L290 234L289 233M297 233L298 234L297 233z"/>
<path style="fill:#90c2cb; stroke:none;" d="M299 233L302 238L296 238L298 241L295 242L295 246L301 240L317 247L314 244L312 242L313 235L305 235L305 237L299 233z"/>
<path style="fill:#599198; stroke:none;" d="M303 233L304 234L303 233M312 233L313 234L312 233M315.333 233.667L315.667 234.333L315.333 233.667z"/>
<path style="fill:#90c2cb; stroke:none;" d="M317.333 233.667L317.667 234.333L317.333 233.667z"/>
<path style="fill:#385c5e; stroke:none;" d="M544 233L545 234L544 233z"/>
<path style="fill:#599198; stroke:none;" d="M273 234L273 237L274 237L273 234M298 234L298 237L299 237L298 234z"/>
<path style="fill:#83a3a7; stroke:none;" d="M320 234L321 235L320 234z"/>
<path style="fill:#599198; stroke:none;" d="M340 234L340 235L344 235L340 234M355 234L356 235L355 234z"/>
<path style="fill:#83a3a7; stroke:none;" d="M373 234L374 235L373 234z"/>
<path style="fill:#385c5e; stroke:none;" d="M481 234L482 235L481 234z"/>
<path style="fill:#90c2cb; stroke:none;" d="M274 235L275 236L274 235M279 235L280 238L281 238L281 235L279 235M295 235L295 237L297 235L295 235z"/>
<path style="fill:#599198; stroke:none;" d="M303 235L304 236L303 235M338 235L339 236L338 235z"/>
<path style="fill:#385c5e; stroke:none;" d="M543 235L544 236L543 235z"/>
<path style="fill:#599198; stroke:none;" d="M287 236L288 237L287 236z"/>
<path style="fill:#83a3a7; stroke:none;" d="M365 238L369 237L365 238z"/>
<path style="fill:#030506; stroke:none;" d="M462.333 236.667L462.667 237.333L462.333 236.667z"/>
<path style="fill:#599198; stroke:none;" d="M274.333 237.667L274.667 238.333L274.333 237.667z"/>
<path style="fill:#90c2cb; stroke:none;" d="M284 238L285 242L286 242L288 240C290.217 243.38 292.619 242.594 296 241L296 240L293 241C292.454 236.297 287.766 237.76 284 238M293.667 237.333L294.333 237.667L293.667 237.333z"/>
<path style="fill:#599198; stroke:none;" d="M296 237L297 238L296 237M300 237L301 238L300 237z"/>
<path style="fill:#83a3a7; stroke:none;" d="M310 237L308 239L308 240L312 240L310 237z"/>
<path style="fill:#599198; stroke:none;" d="M314 237L316 239L316 237L314 237M418.667 237.333L419.333 237.667L418.667 237.333M282 238L284 240L284 238L282 238z"/>
<path style="fill:#83a3a7; stroke:none;" d="M321 238L322 239L321 238z"/>
<path style="fill:#385c5e; stroke:none;" d="M335 238L336 239L335 238M338 238L339 239L338 238z"/>
<path style="fill:#83a3a7; stroke:none;" d="M359 242L363 243L363 240L371 240C366.691 238.07 361.672 237.648 359 242z"/>
<path style="fill:#385c5e; stroke:none;" d="M367 238L368 239L367 238z"/>
<path style="fill:#599198; stroke:none;" d="M383 238L383 239L386 239L383 238M387 238L388 241L380 244L390 238L387 238z"/>
<path style="fill:#030506; stroke:none;" d="M456 238L457 239L456 238M460.333 238.667L460.667 239.333L460.333 238.667z"/>
<path style="fill:#599198; stroke:none;" d="M275.333 239.667L275.667 240.333L275.333 239.667z"/>
<path style="fill:#83a3a7; stroke:none;" d="M288 239L289 240L288 239M290.667 239.333L291.333 239.667L290.667 239.333M303 239L304 240L303 239z"/>
<path style="fill:#599198; stroke:none;" d="M313 239L314 240L313 239z"/>
<path style="fill:#90c2cb; stroke:none;" d="M314 239L315 240L314 239M323 239L325 241L323 239z"/>
<path style="fill:#83a3a7; stroke:none;" d="M324 239L325 240L324 239M356 239L354 243L358 243L356 239z"/>
<path style="fill:#599198; stroke:none;" d="M418.333 239.667L418.667 240.333L418.333 239.667M421 239L422 240L421 239z"/>
<path style="fill:#83a3a7; stroke:none;" d="M286 240L290 244L286 240z"/>
<path style="fill:#599198; stroke:none;" d="M301 240L302 241L301 240z"/>
<path style="fill:#83a3a7; stroke:none;" d="M305 240L306 241L305 240z"/>
<path style="fill:#90c2cb; stroke:none;" d="M315 240L316 241L315 240z"/>
<path style="fill:#83a3a7; stroke:none;" d="M323 240L324 241L323 240M322 242L322 243L327 243L327 244L325 244L325 245L332 245C329.55 240.891 326.337 240.441 322 242z"/>
<path style="fill:#385c5e; stroke:none;" d="M339.667 240.333L340.333 240.667L339.667 240.333z"/>
<path style="fill:#83a3a7; stroke:none;" d="M347 240L345 241L345 242L347 240z"/>
<path style="fill:#385c5e; stroke:none;" d="M353 240L354 241L353 240z"/>
<path style="fill:#90c2cb; stroke:none;" d="M358.333 240.667L358.667 241.333L358.333 240.667z"/>
<path style="fill:#385c5e; stroke:none;" d="M541 240L542 241L541 240z"/>
<path style="fill:#599198; stroke:none;" d="M276.333 241.667L276.667 242.333L276.333 241.667z"/>
<path style="fill:#83a3a7; stroke:none;" d="M289 241L290 242L289 241M299 247L305 245L305 241C301.117 241.566 298.84 242.896 299 247z"/>
<path style="fill:#90c2cb; stroke:none;" d="M326 241L327 242L326 241M338 243L338 244L343 246L352 243L338 243z"/>
<path style="fill:#83a3a7; stroke:none;" d="M349 241L350 242L349 241z"/>
<path style="fill:#599198; stroke:none;" d="M397 241L396 243L397 241z"/>
<path style="fill:#030506; stroke:none;" d="M476 241L477 242L476 241z"/>
<path style="fill:#83a3a7; stroke:none;" d="M293 242L294 243L293 242z"/>
<path style="fill:#599198; stroke:none;" d="M315 242L316 243L315 242z"/>
<path style="fill:#83a3a7; stroke:none;" d="M342.667 242.333L343.333 242.667L342.667 242.333M352 242L353 243L352 242z"/>
<path style="fill:#385c5e; stroke:none;" d="M540 242L541 243L540 242z"/>
<path style="fill:#599198; stroke:none;" d="M277.333 243.667L277.667 244.333L277.333 243.667z"/>
<path style="fill:#83a3a7; stroke:none;" d="M291 243L292 244L291 243M293 245L296 245L295 243L293 245z"/>
<path style="fill:#599198; stroke:none;" d="M302 243L303 244L302 243z"/>
<path style="fill:#90c2cb; stroke:none;" d="M325.667 243.333L326.333 243.667L325.667 243.333z"/>
<path style="fill:#599198; stroke:none;" d="M328.667 243.333L329.333 243.667L328.667 243.333z"/>
<path style="fill:#83a3a7; stroke:none;" d="M328 246L331 249L330 252L331 252L332 249L335 250L335 251L332 252L332 253L339 252L339 251L335 246L339 247L340 245L328 246M340 243L341 244L340 243M347.667 243.333L348.333 243.667L347.667 243.333M351 243L352 244L351 243M353 243L354 244L353 243z"/>
<path style="fill:#385c5e; stroke:none;" d="M354 244L354 245L358 244L354 244z"/>
<path style="fill:#030506; stroke:none;" d="M467 243L468 244L467 243z"/>
<path style="fill:#599198; stroke:none;" d="M299 244L300 245L299 244z"/>
<path style="fill:#83a3a7; stroke:none;" d="M306 244L308 248L300 247L298 249L298 250L308 249L308 250L303 251L303 252L312 253L312 252L308 252L308 251L316 249L314 246L306 244z"/>
<path style="fill:#90c2cb; stroke:none;" d="M327 244L328 245L327 244z"/>
<path style="fill:#599198; stroke:none;" d="M335 244L336 245L335 244z"/>
<path style="fill:#83a3a7; stroke:none;" d="M343 244L341 248L344 249L344 254L340 252C340.796 255.8 342.163 256.705 346 257L345 254L347 255L346 253L349 255L350 251L346 252L345 244L343 244z"/>
<path style="fill:#385c5e; stroke:none;" d="M348 244L349 245L348 244z"/>
<path style="fill:#83a3a7; stroke:none;" d="M350 244L351 245L350 244z"/>
<path style="fill:#385c5e; stroke:none;" d="M539 244L540 245L539 244z"/>
<path style="fill:#599198; stroke:none;" d="M278.333 245.667L278.667 246.333L278.333 245.667z"/>
<path style="fill:#83a3a7; stroke:none;" d="M290 245L289 251L290 251L291 249L296 248L292 248L293 245L290 245M296 245L297 246L296 245z"/>
<path style="fill:#90c2cb; stroke:none;" d="M333 245L334 246L333 245z"/>
<path style="fill:#83a3a7; stroke:none;" d="M340 245L341 246L340 245z"/>
<path style="fill:#385c5e; stroke:none;" d="M347 245L348 246L347 245z"/>
<path style="fill:#599198; stroke:none;" d="M410 245L410 247L412 247L412 245L410 245z"/>
<path style="fill:#030506; stroke:none;" d="M466 245L467 246L466 245z"/>
<path style="fill:#83a3a7; stroke:none;" d="M285 246L287 251L288 251L289 247L285 246z"/>
<path style="fill:#90c2cb; stroke:none;" d="M291 246L292 247L291 246z"/>
<path style="fill:#599198; stroke:none;" d="M310 246L311 247L310 246z"/>
<path style="fill:#83a3a7; stroke:none;" d="M315 246L316 247L315 246M317 246L316 248L318 248L317 246z"/>
<path style="fill:#385c5e; stroke:none;" d="M356 246L357 247L356 246z"/>
<path style="fill:#599198; stroke:none;" d="M407 246L404 250L407 246z"/>
<path style="fill:#385c5e; stroke:none;" d="M538 246L539 247L538 246z"/>
<path style="fill:#599198; stroke:none;" d="M279.333 247.667L279.667 248.333L279.333 247.667z"/>
<path style="fill:#83a3a7; stroke:none;" d="M320 247L321 248L320 247z"/>
<path style="fill:#90c2cb; stroke:none;" d="M329.667 247.333L330.333 247.667L329.667 247.333M334 247L335 248L334 247M344 247L345 248L344 247z"/>
<path style="fill:#599198; stroke:none;" d="M371 247L371 248L378 249L371 247M383 249L383 250L391 248L383 249z"/>
<path style="fill:#90c2cb; stroke:none;" d="M291 248L292 249L291 248M309 248L309 249L312 250L309 248z"/>
<path style="fill:#599198; stroke:none;" d="M331 248L332 249L331 248z"/>
<path style="fill:#83a3a7; stroke:none;" d="M339 248L340 249L339 248z"/>
<path style="fill:#90c2cb; stroke:none;" d="M339 249L344 254L344 249L339 249z"/>
<path style="fill:#385c5e; stroke:none;" d="M537 248L538 249L537 248z"/>
<path style="fill:#599198; stroke:none;" d="M280.333 249.667L280.667 250.333L280.333 249.667z"/>
<path style="fill:#90c2cb; stroke:none;" d="M290 249L291 250L290 249M303 250L303 251L307 250L303 250z"/>
<path style="fill:#599198; stroke:none;" d="M307 249L308 250L307 249z"/>
<path style="fill:#90c2cb; stroke:none;" d="M313 249L314 250L313 249M331 252L335 251L331 252z"/>
<path style="fill:#385c5e; stroke:none;" d="M350.667 249.333L351.333 249.667L350.667 249.333z"/>
<path style="fill:#599198; stroke:none;" d="M392 249L393 250L392 249M308 251L308 252L314 252L308 251z"/>
<path style="fill:#90c2cb; stroke:none;" d="M314 252L318 252L314 252z"/>
<path style="fill:#83a3a7; stroke:none;" d="M317 250L317 255L321 251L317 250z"/>
<path style="fill:#599198; stroke:none;" d="M379.667 250.333L380.333 250.667L379.667 250.333M281 251L282 252L281 251z"/>
<path style="fill:#90c2cb; stroke:none;" d="M282 251L283 252L282 251z"/>
<path style="fill:#83a3a7; stroke:none;" d="M316 251L313 252L313 253L316 251z"/>
<path style="fill:#599198; stroke:none;" d="M344 251L346 253L344 251M421.667 251.333L422.333 251.667L421.667 251.333M317 252L318 253L317 252z"/>
<path style="fill:#90c2cb; stroke:none;" d="M318 255L322 252L318 255z"/>
<path style="fill:#83a3a7; stroke:none;" d="M320 255L324 252L320 255z"/>
<path style="fill:#90c2cb; stroke:none;" d="M333.667 252.333L334.333 252.667L333.667 252.333z"/>
<path style="fill:#83a3a7; stroke:none;" d="M371 252L372 253L371 252z"/>
<path style="fill:#385c5e; stroke:none;" d="M373.667 252.333L374.333 252.667L373.667 252.333z"/>
<path style="fill:#030506; stroke:none;" d="M467 252L465 255L467 252z"/>
<path style="fill:#385c5e; stroke:none;" d="M488 252L489 253L488 252z"/>
<path style="fill:#599198; stroke:none;" d="M282 253L283 254L282 253z"/>
<path style="fill:#90c2cb; stroke:none;" d="M308 253L308 254L318 254L308 253M346.667 253.333L347.333 253.667L346.667 253.333z"/>
<path style="fill:#83a3a7; stroke:none;" d="M362 255L362 256L368 253L362 255M369.667 253.333L370.333 253.667L369.667 253.333M374.667 253.333L375.333 253.667L374.667 253.333z"/>
<path style="fill:#599198; stroke:none;" d="M283.333 254.667L283.667 255.333L283.333 254.667z"/>
<path style="fill:#90c2cb; stroke:none;" d="M284 254L285 255L284 254z"/>
<path style="fill:#83a3a7; stroke:none;" d="M307 254L307 255L311 255L307 254M315 254L316 255L315 254z"/>
<path style="fill:#90c2cb; stroke:none;" d="M341 254L342 255L341 254M345.333 254.667L345.667 255.333L345.333 254.667z"/>
<path style="fill:#385c5e; stroke:none;" d="M355 254L356 255L355 254z"/>
<path style="fill:#90c2cb; stroke:none;" d="M364 254L365 255L364 254z"/>
<path style="fill:#83a3a7; stroke:none;" d="M313.667 255.333L314.333 255.667L313.667 255.333M349.667 255.333L350.333 255.667L349.667 255.333M357 255L358 256L357 255M368 255L369 256L368 255z"/>
<path style="fill:#385c5e; stroke:none;" d="M484 255C481.396 258.125 481.115 260.423 484 261L476 265L478 263L474 262L471 267L478 266L473 273L468 275L466 279L468 277L469 277L470 279L471 279L475 270L477 272L488 259L484 255z"/>
<path style="fill:#599198; stroke:none;" d="M284 256L285 259L286 259L284 256z"/>
<path style="fill:#90c2cb; stroke:none;" d="M285 256L286 257L285 256z"/>
<path style="fill:#83a3a7; stroke:none;" d="M310 256L312 258L312 256L310 256M313 257L313 258L315 260L322 261L322 258L317 259L317 258L319 257L313 257M332.333 256.667L332.667 257.333L332.333 256.667M334 256L336 259L334 256M354 256L352 257L352 258L354 256z"/>
<path style="fill:#385c5e; stroke:none;" d="M369 256L364 257C365.791 259.343 369.095 259.541 369 256z"/>
<path style="fill:#599198; stroke:none;" d="M408 256L409 257L408 256z"/>
<path style="fill:#030506; stroke:none;" d="M465 256L464 258L465 256z"/>
<path style="fill:#385c5e; stroke:none;" d="M532 256L533 257L532 256z"/>
<path style="fill:#90c2cb; stroke:none;" d="M289 257L290 258L289 257M312 257L313 258L312 257z"/>
<path style="fill:#83a3a7; stroke:none;" d="M339 257L339 260L342 259L342 258L339 257M350 257L349 260L350 257z"/>
<path style="fill:#90c2cb; stroke:none;" d="M351 257L352 258L351 257z"/>
<path style="fill:#83a3a7; stroke:none;" d="M371 257L372 258L371 257z"/>
<path style="fill:#599198; stroke:none;" d="M406 262L406 263L417 260C418.922 255.019 407.811 260.867 406 262z"/>
<path style="fill:#385c5e; stroke:none;" d="M471 257L468 262L471 257z"/>
<path style="fill:#90c2cb; stroke:none;" d="M317 258L317 259L321 259L317 258z"/>
<path style="fill:#385c5e; stroke:none;" d="M372 258L373 259L372 258z"/>
<path style="fill:#83a3a7; stroke:none;" d="M416 258L417 259L416 258z"/>
<path style="fill:#599198; stroke:none;" d="M419.667 258.333L420.333 258.667L419.667 258.333z"/>
<path style="fill:#385c5e; stroke:none;" d="M476 258L477 259L476 258z"/>
<path style="fill:#599198; stroke:none;" d="M286 259L287 260L286 259z"/>
<path style="fill:#83a3a7; stroke:none;" d="M305 259L305 260L309 261L309 260L305 259M311 259L310 261L311 259z"/>
<path style="fill:#90c2cb; stroke:none;" d="M321 259L322 260L321 259z"/>
<path style="fill:#83a3a7; stroke:none;" d="M326 259L327 260L326 259M331.333 259.667L331.667 260.333L331.333 259.667M359 259L359 263L360 263L362 260L359 259M370 259L371 260L370 259z"/>
<path style="fill:#385c5e; stroke:none;" d="M373 259L373 260L376 260L373 259z"/>
<path style="fill:#83a3a7; stroke:none;" d="M412 259L413 260L412 259M313 260L314 261L313 260M364 260L358 266L354 262L352 267L366 266L366 265L364 260M373 260L374 261L373 260z"/>
<path style="fill:#599198; stroke:none;" d="M399.667 260.333L400.333 260.667L399.667 260.333M405.667 260.333L406.333 260.667L405.667 260.333z"/>
<path style="fill:#385c5e; stroke:none;" d="M480 260L479 263L480 260z"/>
<path style="fill:#599198; stroke:none;" d="M287 261L288 262L287 261z"/>
<path style="fill:#83a3a7; stroke:none;" d="M322 261L324 264L322 261M370 261L372 264L370 261M401 261L402 262L401 261z"/>
<path style="fill:#599198; stroke:none;" d="M398 264L405 264C404.135 259.984 399.686 260.996 398 264M288 262L289 263L288 262M396 262L397 263L396 262z"/>
<path style="fill:#83a3a7; stroke:none;" d="M405 262L406 263L405 262z"/>
<path style="fill:#599198; stroke:none;" d="M412 262L412 263L415 263L415 264C407.155 265.59 407.831 271.316 407 278L411 273L410 273L409 276L408 276L417 262L412 262M430 262L429 264L430 262M421 263L420 265L421 263M289 264L290 265L289 264M362 264L363 265L362 264M397 264L398 265L397 264M290 265L292 267L290 265z"/>
<path style="fill:#90c2cb; stroke:none;" d="M291 265L292 266L291 265M362 265L363 266L362 265z"/>
<path style="fill:#599198; stroke:none;" d="M395 265L395 267L397 265L395 265M402 265L403 266L402 265z"/>
<path style="fill:#83a3a7; stroke:none;" d="M329 266L330 267L329 266z"/>
<path style="fill:#385c5e; stroke:none;" d="M365 266L366 267L365 266z"/>
<path style="fill:#599198; stroke:none;" d="M379 266L378 270L383 268L379 266z"/>
<path style="fill:#83a3a7; stroke:none;" d="M408 269L413 268L408 269z"/>
<path style="fill:#030506; stroke:none;" d="M480 266L481 267L480 266z"/>
<path style="fill:#385c5e; stroke:none;" d="M364 267L365 268L364 267z"/>
<path style="fill:#599198; stroke:none;" d="M393 267L393 269L395 267L393 267M292 268L293 269L292 268z"/>
<path style="fill:#385c5e; stroke:none;" d="M412 268L412 269L415 269L412 268z"/>
<path style="fill:#030506; stroke:none;" d="M464 268L465 269L464 268z"/>
<path style="fill:#599198; stroke:none;" d="M293 269L294 270L293 269M299 269L300 272L301 272L299 269M403 269L403 270L406 272L407 272L403 269z"/>
<path style="fill:#385c5e; stroke:none;" d="M468 272L472 269L468 272z"/>
<path style="fill:#599198; stroke:none;" d="M294 270L295 271L294 270z"/>
<path style="fill:#385c5e; stroke:none;" d="M367 270L368 271L367 270z"/>
<path style="fill:#90c2cb; stroke:none;" d="M369 270L370 271L369 270z"/>
<path style="fill:#83a3a7; stroke:none;" d="M370 270L371 271L370 270z"/>
<path style="fill:#599198; stroke:none;" d="M295.333 271.667L295.667 272.333L295.333 271.667z"/>
<path style="fill:#83a3a7; stroke:none;" d="M325.333 271.667L325.667 272.333L325.333 271.667M356 276L359 278L368 278L369 277L367 276L366 271L356 276z"/>
<path style="fill:#030506; stroke:none;" d="M463 271L464 272L463 271z"/>
<path style="fill:#90c2cb; stroke:none;" d="M299 272L300 273L299 272z"/>
<path style="fill:#83a3a7; stroke:none;" d="M313.667 272.333L314.333 272.667L313.667 272.333z"/>
<path style="fill:#599198; stroke:none;" d="M296 273L297 274L296 273z"/>
<path style="fill:#83a3a7; stroke:none;" d="M342 275L342 276L350 273L342 275z"/>
<path style="fill:#599198; stroke:none;" d="M362 273L363 276L362 273M389.667 273.333L390.333 273.667L389.667 273.333z"/>
<path style="fill:#385c5e; stroke:none;" d="M466 273L463 277L466 273z"/>
<path style="fill:#599198; stroke:none;" d="M297 274L298 275L297 274z"/>
<path style="fill:#83a3a7; stroke:none;" d="M324.333 274.667L324.667 275.333L324.333 274.667z"/>
<path style="fill:#90c2cb; stroke:none;" d="M365.667 274.333L366.333 274.667L365.667 274.333z"/>
<path style="fill:#599198; stroke:none;" d="M416 274L417 275L416 274M298 275L299 276L298 275M303 275L304 276L303 275M412 275L412 277L414 277L412 275M298 278L301 278L300 276L298 278z"/>
<path style="fill:#83a3a7; stroke:none;" d="M347 277L347 278L354 277L347 277z"/>
<path style="fill:#90c2cb; stroke:none;" d="M354 276L354 277L357 277L354 276M362 276L363 277L362 276z"/>
<path style="fill:#599198; stroke:none;" d="M387 276L382 281L385 284L388 283L387 286L392 277L391 277L390 280L387 276z"/>
<path style="fill:#83a3a7; stroke:none;" d="M314 277L315 278L314 277M340 277L341 278L340 277M344.667 277.333L345.333 277.667L344.667 277.333z"/>
<path style="fill:#90c2cb; stroke:none;" d="M346 277L347 278L346 277z"/>
<path style="fill:#599198; stroke:none;" d="M301 278L302 279L301 278z"/>
<path style="fill:#83a3a7; stroke:none;" d="M318.667 278.333L319.333 278.667L318.667 278.333z"/>
<path style="fill:#599198; stroke:none;" d="M397 278L395 280L395 281L399 278L397 278M400 278L401 279L400 278M302 279L303 280L302 279z"/>
<path style="fill:#83a3a7; stroke:none;" d="M350 280L350 281L356 280L350 280z"/>
<path style="fill:#385c5e; stroke:none;" d="M386 279L387 280L386 279z"/>
<path style="fill:#83a3a7; stroke:none;" d="M387 279L388 280L387 279z"/>
<path style="fill:#599198; stroke:none;" d="M303 280L304 281L303 280z"/>
<path style="fill:#90c2cb; stroke:none;" d="M316 280L317 281L316 280z"/>
<path style="fill:#83a3a7; stroke:none;" d="M323 280L324 281L323 280z"/>
<path style="fill:#599198; stroke:none;" d="M366 280L367 281L366 280M304 281L305 282L304 281M307 281L308 282L307 281z"/>
<path style="fill:#90c2cb; stroke:none;" d="M313 281L315 283L313 281z"/>
<path style="fill:#599198; stroke:none;" d="M315 281L316 282L315 281z"/>
<path style="fill:#385c5e; stroke:none;" d="M355 281L355 282L358 282L355 281z"/>
<path style="fill:#030506; stroke:none;" d="M457.667 281.333L458.333 281.667L457.667 281.333z"/>
<path style="fill:#599198; stroke:none;" d="M305 282L306 283L305 282z"/>
<path style="fill:#385c5e; stroke:none;" d="M353 282L354 283L353 282M389 282L390 283L389 282z"/>
<path style="fill:#599198; stroke:none;" d="M408 282L407 285L408 282M306 283L307 284L306 283M364.333 283.667L364.667 284.333L364.333 283.667M366.667 283.333L367.333 283.667L366.667 283.333M307 284L308 285L307 284M309 284L310 285L309 284z"/>
<path style="fill:#90c2cb; stroke:none;" d="M318 284L319 285L318 284z"/>
<path style="fill:#83a3a7; stroke:none;" d="M324 284L327 286L324 284z"/>
<path style="fill:#385c5e; stroke:none;" d="M343 284L344 285L343 284M354 284L354 285L357 285L354 284z"/>
<path style="fill:#599198; stroke:none;" d="M378 284L379 285L378 284M383.333 284.667L383.667 285.333L383.333 284.667z"/>
<path style="fill:#030506; stroke:none;" d="M456 284L457 285L456 284z"/>
<path style="fill:#599198; stroke:none;" d="M308 285L309 286L308 285M315 285L316 286L315 285z"/>
<path style="fill:#385c5e; stroke:none;" d="M351 285L351 286L356 288L356 287L351 285z"/>
<path style="fill:#599198; stroke:none;" d="M309 286L310 287L309 286z"/>
<path style="fill:#90c2cb; stroke:none;" d="M320 286L321 287L320 286z"/>
<path style="fill:#83a3a7; stroke:none;" d="M328 286L328 287L334 288L334 287L328 286z"/>
<path style="fill:#599198; stroke:none;" d="M380 286L381 287L380 286M407 286L404 287L406 290L407 286z"/>
<path style="fill:#385c5e; stroke:none;" d="M470 286L471 287L470 286z"/>
<path style="fill:#599198; stroke:none;" d="M310 287L311 288L310 287M313.333 287.667L313.667 288.333L313.333 287.667z"/>
<path style="fill:#385c5e; stroke:none;" d="M349.667 287.333L350.333 287.667L349.667 287.333z"/>
<path style="fill:#599198; stroke:none;" d="M377 287L370 288C370.97 292.435 377.968 289.366 377 287M311 288L312 289L311 288M383 288L377 293L380 296L383 288M392 288L393 289L392 288z"/>
<path style="fill:#030506; stroke:none;" d="M452 288L453 289L452 288z"/>
<path style="fill:#385c5e; stroke:none;" d="M465 288L464 291L465 288z"/>
<path style="fill:#599198; stroke:none;" d="M312 289L313 290L312 289z"/>
<path style="fill:#83a3a7; stroke:none;" d="M334 289L335 293L336 293L334 289z"/>
<path style="fill:#385c5e; stroke:none;" d="M349 289L350 290L349 289z"/>
<path style="fill:#599198; stroke:none;" d="M367 289L367 291L369 291L367 289z"/>
<path style="fill:#83a3a7; stroke:none;" d="M337 290L338 291L337 290z"/>
<path style="fill:#385c5e; stroke:none;" d="M355 290L355 291L360 291L355 290z"/>
<path style="fill:#599198; stroke:none;" d="M413 290L414 291L413 290z"/>
<path style="fill:#030506; stroke:none;" d="M454 290L452 292L452 293C454.251 292.527 455.118 292.14 454 290z"/>
<path style="fill:#599198; stroke:none;" d="M404 291L405 292L404 291z"/>
<path style="fill:#385c5e; stroke:none;" d="M356 292L355 294L356 292M356 295L356 296L362 299L365 297C362.011 293.72 360.015 292.948 356 295z"/>
<path style="fill:#599198; stroke:none;" d="M394 293L392 296L394 293z"/>
<path style="fill:#83a3a7; stroke:none;" d="M368.667 294.333L369.333 294.667L368.667 294.333z"/>
<path style="fill:#599198; stroke:none;" d="M376 294L377 295L376 294M382 294L383 295L382 294z"/>
<path style="fill:#385c5e; stroke:none;" d="M368 295L369 296L368 295z"/>
<path style="fill:#599198; stroke:none;" d="M375 295L376 296L375 295M408 295L409 296L408 295M416 295L414 296L414 297L416 295M361 296L362 297L361 296z"/>
<path style="fill:#385c5e; stroke:none;" d="M369 296C369.085 301.075 368.063 304.213 373 307L374 304L369 296z"/>
<path style="fill:#599198; stroke:none;" d="M384 300L387 298L384 300z"/>
<path style="fill:#385c5e; stroke:none;" d="M367 299L368 300L367 299z"/>
<path style="fill:#599198; stroke:none;" d="M402 299L401 302L402 299M395 300L394 302L395 300z"/>
<path style="fill:#83a3a7; stroke:none;" d="M357 301L358 302L357 301z"/>
<path style="fill:#385c5e; stroke:none;" d="M364 301L365 302L364 301z"/>
<path style="fill:#599198; stroke:none;" d="M383 301L384 302L383 301z"/>
<path style="fill:#030506; stroke:none;" d="M455 302L456 303L455 302z"/>
<path style="fill:#599198; stroke:none;" d="M392.333 303.667L392.667 304.333L392.333 303.667M399 303L400 304L399 303M486 304L487 305L486 304M382 308L386 305L382 308z"/>
<path style="fill:#385c5e; stroke:none;" d="M374 306L376 309L376 306L374 306z"/>
<path style="fill:#030506; stroke:none;" d="M459 306L460 307L459 306z"/>
<path style="fill:#385c5e; stroke:none;" d="M373 309L374 310L373 309z"/>
<path style="fill:#599198; stroke:none;" d="M379 311L380 312L379 311z"/>
<path style="fill:#385c5e; stroke:none;" d="M373 314L374 315L373 314M375.667 315.333L376.333 315.667L375.667 315.333z"/>
<path style="fill:#599198; stroke:none;" d="M392 318L393 319L392 318z"/>
<path style="fill:#385c5e; stroke:none;" d="M445 324L446 325L445 324M432.333 326.667L432.667 327.333L432.333 326.667M410 330L411 331L410 330z"/>
</svg>
