<?xml version="1.0" standalone="yes"?>
<svg xmlns="http://www.w3.org/2000/svg" width="666" height="375">
<path style="fill:#050606; stroke:none;" d="M0 0L0 375L666 375L666 0L0 0z"/>
<path style="fill:#5e6671; stroke:none;" d="M324 33L324 34L343 34L324 33M313 34L313 35L317 35L313 34z"/>
<path style="fill:#8f979f; stroke:none;" d="M317 34L317 35L321 35C318.288 37.8014 311.369 44.1087 318 46L316 49L322 53L316 58L319 60L319 61C313.746 63.1846 302.953 65.3875 301 71L287 74L281 78L284 79L280 81L280 82L287 83C288.804 82.4304 293.203 81.3927 290 80L290 79L293 81L301 77L307 78L300 82L300 83L314 79L314 83C304.778 85.4469 293.374 91.7868 287 99L286 99C285.045 94.2243 273.28 103.878 275 97L270 98L271 96L270 96L269 100L262 103L260 109L252 109L252 110L258 112L255 115L256 112L253 112L250 117L250 118L253 120L288 109L288 110L279 115L281 118L277 120L275 131L271 132L260 128L262 134L257 135L256 131L255 131L256 140C252.413 140.426 249.849 145.488 249 149L250 149L250 146L254 147L253 156C256.527 155.295 255.384 159.596 253 159L255 161L255 162L250 162L251 165L253 163L257 165L255 162L257 168C260.614 168.359 261.641 169.386 262 173L256 174L256 168L254 168C254.877 175.852 259.984 176.98 267 177L265 181L264 181C261.801 178.589 259.742 179.695 257 181L257 183L260 184L259 188L249 192L259 191L263 199L259 199L259 200L262 201L262 202C257.126 203.009 255.478 205.172 257 210C256.058 209.957 238.356 196.002 242 206L234 207L234 208L239 208C239.734 217.231 255.509 217.278 258 209L264 210L263 216L252 225L248 224L250 220L245 221L242 231L245 230L245 234C237.199 229.737 234.712 229.084 228 235L228 236C233.841 239.687 231.331 243.701 225 243L224 246L222 244L221 247L228 251L222 254L219 250L216 260L213 259L217 269L212 269L212 270L220 274L220 275L211 272L211 273L225 280C227.618 284.854 232.703 287.784 238 289L238 293C224.793 288.21 215.83 281.283 205 273C209.652 281.166 220.339 298.35 230 300C234.06 307.664 243.306 313.36 251 317L256 314L246 307L251 308L244 300C253.716 302.541 264.037 308.444 273 302L269 297L269 296L272 295L269 294L269 293L271 292L271 289L275 292L274 288C270.931 288.11 270.585 285.265 268 283.833C263.833 281.525 255.227 281.961 256 275L244 275L241 270L245 268L247 273L250 272L249 266L250 266L254 270L263 261L260 258L275 261L276 261L275 257C277.056 254.542 274.301 253.145 272 252L265 258L268 251L264 248L268 248L255 241L253 232C259.318 230.82 266.61 226.758 259 221L267 210L264 204C268.57 207.068 271.201 206.4 276 204L276 206C281.97 204.199 293.525 203.442 297 198L278 200L289 195L289 194L276 195L278 197L278 198L276 202L272 201C277.096 193.022 266.475 188.03 262 183L270 187L268 184L278 184L284 187L281 179L284 180L284 176L292 175L293 169L289 168L286 173L275 173L271 169L271 168L274 167L272 164C264.909 161.87 272.261 156.968 273 153L295 154L295 153L293 152L297 151L297 150L294 147L276 148L282 138L275 141L275 140L279 139L276 134L283 134L283 133L277 132L277 131L285 128L281 125L281 124L286 120C284.775 117.334 285.042 116.321 288 116L288 114L291 116L297 115L296 108L315 107L317 101L324 102C324.697 96.6699 338.808 101.625 335 96L342 91C344.953 93.1644 346.291 89.503 345 87L347 83L336 85L336 84L344 79L341 80L334 79L334 78C336.216 77.7672 350.381 74.5844 343 73L344 69L322 72L322 71L336 69L338 66L335 65L335 60L342 58L342 57L338 57L338 56L341 56L341 55L339 53L347 46L342 45L344 34L317 34z"/>
<path style="fill:#5e6671; stroke:none;" d="M344 34L342 45L347 46L339 53L341 55L341 56L338 56L338 57L342 57L342 58L335 60L338 66L336 69L322 71L322 72L344 69L343 73L346 74L346 75L334 78L334 79L344 79L336 84L336 85L347 83L345 87C345.451 89.2576 344.713 92.2031 342 91L335 96L337 98C333.104 99.1841 324.57 97.4605 324 102L317 101L315 107L296 108L297 115L291 116C289.413 114.621 287.927 113.349 288 116L285 115L286 120L281 124L281 125L285 128L277 131L277 132L283 133L283 134L276 134L279 139L275 140L275 141L282 138L276 148L294 147L297 150L297 151C295.194 151.195 292.071 151.727 295 153L295 154L273 153C271.84 156.928 263.575 162.435 272 164L274 167L271 168L271 169L275 173L286 173L289 168L293 169L292 175L284 176L284 180L281 179L284 187L278 184L268 184L270 187L262 183C265.796 189.368 275.723 192.008 272 201L276 202L276 195L289 194L289 195C284.612 195.529 280.426 196.021 278 200L297 198L276 206L276 204C271.074 205.756 268.784 206.232 264 204L267 210L259 221C265.379 227.474 259.052 229.919 253 232L255 241L268 248L264 248L268 251L265 258C269.362 257.652 270.55 256.014 272 252L275 257L276 261L275 261L275 258L273 260L260 258L263 261L254 270L250 266L249 266L250 272L247 273L245 268L241 270L244 275L256 275C256.266 280.741 268.699 287.389 274 288L275 292L271 289L269 293L269 294L272 295L269 296L269 297L273 302C262.863 307.233 254.582 302.059 244 300L251 308L246 307L256 314L250 315L250 318C265.942 325.452 291.641 345.469 304.887 322.964C306.359 320.463 308.444 318.781 309 316C313.156 313.93 315.505 310.614 316 306L319 306L318 304L321 303L317 300L317 299L321 298L318 293L323 290L318 278L314 278L314 277L317 275L318 275L319 275L319 277L323 270L320 269L326 265L329 267L326 263L327 259L318 267L317 264L316 264L315 266L312 262C316.43 262.582 318.697 261.932 321 258L303 262L302 258C307.528 256.687 312.718 255.023 314 249C318.933 250.337 331.883 250.043 335 246L329 242L323 236L328 237L328 236L323 234L324 231L319 230L319 229L333 232L332 229L339 227L339 222L338 222L336 226L322 206L326 208L325 204L327 206L337 193L340 182L350 182L351 190L357 193L358 185L359 185L359 189C361.837 187.495 364.313 182.943 360 182L360 181L362 179L365 180L367 161L368 161L368 167L369 167L372 157L362 156L363 152L366 153L357 146L364 146L366 139L372 138L374 145L375 134L375 133C372.873 128.062 373.146 126.713 367 127L365 124C367.426 119.515 371.205 119.053 376 119L374 117C374.912 114.109 374.54 113.68 372 112L375 111L375 110L371 106L363 104L363 103L369 103L368 100C373.504 98.6638 393.129 88.6855 387 81L387 80L389 76L387 76L386 70L386 69L388 67L385 66L386 61L382 57C385.923 53.1464 382.96 44.0823 378.811 41.2245C370.063 35.1988 354.318 34.0284 344 34M307.667 35.3333L308.333 35.6667L307.667 35.3333z"/>
<path style="fill:#8f979f; stroke:none;" d="M309.667 35.3333L310.333 35.6667L309.667 35.3333z"/>
<path style="fill:#9cb5d1; stroke:none;" d="M298 43L290 47L290 49L298 49L296 52L303 53L302 55L305 56L303 62L288 70L290 72L272 76C270.696 81.401 265.744 82.228 261 84L263 86L259 91L276 84L286 84L286 85L278 89L294 83L294 84L289 87L290 88L297 84L287 90L287 91L292 91L292 92L284 95L283 95L283 92L275 93L274 93L267 95L267 96L263 95L258 99L258 100L259 104L254 103L256 100C251.446 100.475 249.028 101.789 247 106L250 108L245 106C229.533 106.276 224.535 120.683 212 129L212 130L220 127L218 131L224 125L243 121.826L253 125L251 129L254 137C250.827 137.367 250.725 138.917 251 142L246 146L247 140L235 142L235 143L246 142L246 143L240 148L245 148L245 149L230 154L230 155L232 155L232 156L217 154L220 153L218 142L220 145L221 145L221 141L211 142L213 151L210 149L209 149L210 152C207.636 150.199 208.651 149.315 211 148L210 145L201 145C194.417 150.669 189.416 147.186 186 158L193 155C191.157 159.19 189.337 162.395 194 165C196.25 158.404 201.696 156.748 207 153L202 161L203 163L207 163L207 164C202.927 168.976 216.445 174.497 221 168L223 168L229 172C226.026 176.848 218.375 177.37 213 177L212 183L207 183L210 194L215 196L214 199L222 199L227 197L222 200L222 201L243 199L241 203L228 202L242 217L238 216L235 224C228.065 223.26 214.914 221.966 217 232L221 235L221 236C226.418 234.839 222.193 229.776 220 227L224 226C224.466 228.329 228.498 238.124 224 237L224 243L215 243L216 248L209 243L212 243L213 242L214 238C210.87 236.571 208.29 234.908 206 238L210 240L206 240L206 241L208 242L205 245L199 238L202 239L200 234L203 235L203 234L200 232L193 236L202 243L202 248L195 243L198 248L191 244C200.1 267.59 212.016 286.507 238 293L238 289L225 280L211 273L211 272L213 271L220 275L220 274L212 270L212 269L217 269L213 259L216 260L219 250L222 254L228 251L221 247L222 244L224 246L225 243C231.72 244.387 235.088 239.011 228 236L228 235C235.994 230.115 236.067 230.593 245 234L245 230L242 231L245 221L250 220L248 224L252 225L263 216L264 210L258 209C254.352 216.298 240.483 217.272 239 208L234 208L234 207L245.576 202.39L257 210C255.97 205.286 257.502 203.534 262 202L262 201L259 200L259 199L263 199L259 191L249 192L259 188L260 184L257 183L257 181L264 181L265 181L267 177C260.249 176.939 255.449 175.162 254 168L256 168L256 174L262 173C262.354 168.935 261.065 167.646 257 168C258.11 164.941 258.569 162.765 255 162L257 165L251 165L250 162L255 162L255 161L253 159C255.299 158.633 255.299 156.367 253 156L254 147L250 146L250 149L249 149L256 140L255 131L256 131L257 135L262 134L260 128L271 132L275 131L277 120L281 118L279 115L288 110L288 109C279.01 109.192 260.84 113.1 257 122L256 119L253 120L250 118L250 117C252.967 116.134 253.287 115.008 253 112L256 112L255 115L258 112L252 110L252 109L260 109L262 103L269 100L271 96L270 98L271 98L275 97C275.716 102.151 282.657 97.4191 286 99L287 99L314 83L314 79L300 83L300 82L307 78L301 77L293 81L290 79L290 80L292 81L287 83L280 82L280 81L284 79L281 78L287 74L301 71L319 61L319 60L316 58L322 53L316 49L318 46C312.376 43.2172 318.687 38.4903 321 35C314.296 35.0007 299.745 34.5987 298 43z"/>
<path style="fill:#5e6671; stroke:none;" d="M301.667 36.3333L302.333 36.6667L301.667 36.3333z"/>
<path style="fill:#8f979f; stroke:none;" d="M303.667 36.3333L304.333 36.6667L303.667 36.3333z"/>
<path style="fill:#5e6671; stroke:none;" d="M297 37L298 38L297 37z"/>
<path style="fill:#8f979f; stroke:none;" d="M298 37L299 38L298 37z"/>
<path style="fill:#9cb5d1; stroke:none;" d="M299.667 37.3333L300.333 37.6667L299.667 37.3333z"/>
<path style="fill:#c3d2dc; stroke:none;" d="M181 173L184 173L183 179L186 179L187 176L188 176L186 183C188.854 183 187.67 184.686 187 187L184 186C178.731 193.716 181.563 199.271 186 207L187 207C191.06 204.533 194.916 202.91 199 206C205.698 204.225 209.392 203.233 215 208L212 211L209 210L208 213L201 209L199 212L198 212L196 207L195 207L196 213L194 214L191 212L196 215L195 223L194 223L192 220L193 227L190 225C185.764 233.211 188.838 244.69 198 248L195 243L202 248L202 243L193 236L200 232L214 238L213 242L212 243L209 243L216 248L215 243L224 243C224 239.637 224.716 236.796 221 236L221 235L223 234L217 232C215.896 222.103 228.013 223.62 235 224L238 216L242 217L228 202L241 203L243 199L222 201L222 197L214 199L215 196L210 194L207 183L212 183L213 177C217.9 177.961 226.971 177.048 229 172L223 168L221 168C216.582 172.29 206.173 172.211 207 164L207 163L203 163L202 161L207 153C201.193 156.043 195.415 158.012 194 165C190.382 161.73 191.731 159.29 193 155L186 158L192.274 148.063L201 145L211 148C207.783 148.611 205.819 151.1 210 152L209 149L210 149L213 151L211 142L221 141L221 145L220 145L218 142L220 153L217 154L232 156L232 155L230 155L230 154L245 149L245 148L240 148L246 143L246 142L235 143L235 142L247 140L246 146L251 142C250.804 139.218 250.979 137.359 254 137L251 129L253 125L243.985 121.437L224 125L218 131L220 127L212 130L212 129L234.965 107.384L245 106L250 108L247 106L256 100L254 103L259 104L258 100L258 99L261 99L263 95L267 96L267 95L265 94L274 93L283 95L284 95L292 92L292 91L287 91L287 90C291.666 89.5187 294.62 88.1143 297 84L290 88L289 87L294 84L294 83L278 89L286 85L286 84C278.07 82.758 265.751 86.7588 259 91L261 84C265.752 82.7292 272.091 81.7755 272 76L290 72L288 70L303 62L305 56L302 55L303 53L296 52L298 49L290 49L290 47L298 43L304 38C291.653 34.2139 269.601 47.0518 259 52.706C210.346 78.6568 191.305 122.032 181 173z"/>
<path style="fill:#5e6671; stroke:none;" d="M293 38L294 39L293 38z"/>
<path style="fill:#8f979f; stroke:none;" d="M294 38L295 39L294 38z"/>
<path style="fill:#9cb5d1; stroke:none;" d="M295 38L296 39L295 38z"/>
<path style="fill:#8f979f; stroke:none;" d="M290 39L291 40L290 39z"/>
<path style="fill:#9cb5d1; stroke:none;" d="M291 39L292 40L291 39z"/>
<path style="fill:#5e6671; stroke:none;" d="M286 40L287 41L286 40z"/>
<path style="fill:#8f979f; stroke:none;" d="M287 40L288 41L287 40z"/>
<path style="fill:#9cb5d1; stroke:none;" d="M288 40L289 41L288 40z"/>
<path style="fill:#8f979f; stroke:none;" d="M284 41L285 42L284 41M281 42L282 43L281 42M278 43L279 44L278 43z"/>
<path style="fill:#9cb5d1; stroke:none;" d="M279 43L280 44L279 43z"/>
<path style="fill:#5e6671; stroke:none;" d="M275 44L276 45L275 44z"/>
<path style="fill:#9cb5d1; stroke:none;" d="M276 44L277 45L276 44z"/>
<path style="fill:#8f979f; stroke:none;" d="M273 45L274 46L273 45M271 46L272 47L271 46z"/>
<path style="fill:#9cb5d1; stroke:none;" d="M269 47L270 48L269 47M267 48L268 49L267 48M265 49L266 50L265 49M320 49L321 50L320 49M261 51L262 52L261 51M259 52L260 53L259 52z"/>
<path style="fill:#8f979f; stroke:none;" d="M257 53L258 54L257 53M255 54L256 55L255 54z"/>
<path style="fill:#9cb5d1; stroke:none;" d="M252 56L253 57L252 56z"/>
<path style="fill:#5e6671; stroke:none;" d="M250 57L251 58L250 57z"/>
<path style="fill:#9cb5d1; stroke:none;" d="M249 58L250 59L249 58M318 58L319 59L318 58z"/>
<path style="fill:#8f979f; stroke:none;" d="M247 59L248 60L247 59z"/>
<path style="fill:#9cb5d1; stroke:none;" d="M246 60L247 61L246 60z"/>
<path style="fill:#5e6671; stroke:none;" d="M244 61L245 62L244 61z"/>
<path style="fill:#9cb5d1; stroke:none;" d="M243 62L244 63L243 62z"/>
<path style="fill:#8f979f; stroke:none;" d="M240 64L241 65L240 64z"/>
<path style="fill:#9cb5d1; stroke:none;" d="M239 65L240 66L239 65z"/>
<path style="fill:#8f979f; stroke:none;" d="M344.667 66.3333L345.333 66.6667L344.667 66.3333z"/>
<path style="fill:#5e6671; stroke:none;" d="M236 67L237 68L236 67z"/>
<path style="fill:#8f979f; stroke:none;" d="M342 67L343 68L342 67M235 68L236 69L235 68z"/>
<path style="fill:#9cb5d1; stroke:none;" d="M234 69L235 70L234 69M233 70L234 71L233 70M286 71L287 72L286 71z"/>
<path style="fill:#8f979f; stroke:none;" d="M229 73L230 74L229 73z"/>
<path style="fill:#9cb5d1; stroke:none;" d="M257 73L258 74L257 73z"/>
<path style="fill:#8f979f; stroke:none;" d="M228 74L229 75L228 74z"/>
<path style="fill:#9cb5d1; stroke:none;" d="M250 77L253 78L256 75L250 77z"/>
<path style="fill:#8f979f; stroke:none;" d="M227 75L228 76L227 75M226 76L227 77L226 76z"/>
<path style="fill:#9cb5d1; stroke:none;" d="M225 77L226 78L225 77M270 77L271 78L270 77M285 77L286 78L285 77M224 78L225 79L224 78M223 79L224 80L223 79M248 79C242.289 81.7062 236.435 83.2231 235 90C239.398 88.1048 248.791 84.7398 248 79z"/>
<path style="fill:#8f979f; stroke:none;" d="M278 79L279 80L278 79z"/>
<path style="fill:#9cb5d1; stroke:none;" d="M222 80L223 81L222 80M259 80L260 81L259 80M288.667 80.3333L289.333 80.6667L288.667 80.3333z"/>
<path style="fill:#5e6671; stroke:none;" d="M335 83L340 80L335 83z"/>
<path style="fill:#8f979f; stroke:none;" d="M221 81L222 82L221 81z"/>
<path style="fill:#9cb5d1; stroke:none;" d="M257 81L258 82L257 81z"/>
<path style="fill:#c3d2dc; stroke:none;" d="M271 81L272 82L271 81z"/>
<path style="fill:#8f979f; stroke:none;" d="M277 81L275 82L275 83L277 81z"/>
<path style="fill:#9cb5d1; stroke:none;" d="M315 81L316 82L315 81z"/>
<path style="fill:#8f979f; stroke:none;" d="M220 82L221 83L220 82z"/>
<path style="fill:#9cb5d1; stroke:none;" d="M235 82L236 83L235 82z"/>
<path style="fill:#c3d2dc; stroke:none;" d="M269 82L270 83L269 82M295 82L295 83L298 83L295 82z"/>
<path style="fill:#8f979f; stroke:none;" d="M219 83L220 84L219 83z"/>
<path style="fill:#9cb5d1; stroke:none;" d="M233 83L232 85L233 83z"/>
<path style="fill:#8f979f; stroke:none;" d="M273 83L274 84L273 83M218 84L219 85L218 84M276 84L277 85L276 84z"/>
<path style="fill:#5e6671; stroke:none;" d="M302 96L302 97L329 85L336 86C326.063 79.4684 309.985 90.3301 302 96M217 85L216 87L217 85z"/>
<path style="fill:#9cb5d1; stroke:none;" d="M259 85L260 86L259 85z"/>
<path style="fill:#8f979f; stroke:none;" d="M274 85L275 86L274 85z"/>
<path style="fill:#9cb5d1; stroke:none;" d="M217 86L218 87L217 86z"/>
<path style="fill:#8f979f; stroke:none;" d="M264.667 86.3333L265.333 86.6667L264.667 86.3333z"/>
<path style="fill:#9cb5d1; stroke:none;" d="M216 87L217 88L216 87M215 88L216 89L215 88M269 88L270 89L269 88z"/>
<path style="fill:#c3d2dc; stroke:none;" d="M298 88L296 89L296 90L298 88z"/>
<path style="fill:#8f979f; stroke:none;" d="M214 89L215 90L214 89z"/>
<path style="fill:#9cb5d1; stroke:none;" d="M229 89L228 91L229 89M256 89L257 90L256 89z"/>
<path style="fill:#c3d2dc; stroke:none;" d="M292 91L295 89L292 91z"/>
<path style="fill:#5e6671; stroke:none;" d="M345 89L346 90L345 89z"/>
<path style="fill:#8f979f; stroke:none;" d="M213 90L214 91L213 90z"/>
<path style="fill:#9cb5d1; stroke:none;" d="M233 90L234 91L233 90M267 90L268 91L267 90M280 90L281 91L280 90z"/>
<path style="fill:#5e6671; stroke:none;" d="M212 91L213 92L212 91z"/>
<path style="fill:#9cb5d1; stroke:none;" d="M252 91L253 92L252 91z"/>
<path style="fill:#5e6671; stroke:none;" d="M211 92L212 93L211 92M315 92L315 93L318 93L315 92M312 93L313 94L312 93z"/>
<path style="fill:#9cb5d1; stroke:none;" d="M210 94L211 95L210 94z"/>
<path style="fill:#8f979f; stroke:none;" d="M277 94L278 95L277 94M209 95L210 96L209 95M276 95L277 96L276 95z"/>
<path style="fill:#c3d2dc; stroke:none;" d="M267 96L268 97L267 96M280 96L279 98L281 98L280 96z"/>
<path style="fill:#9cb5d1; stroke:none;" d="M207 98L208 99L207 98z"/>
<path style="fill:#8f979f; stroke:none;" d="M263 98L264 99L263 98M206 99L207 100L206 99z"/>
<path style="fill:#9cb5d1; stroke:none;" d="M284.667 99.3333L285.333 99.6667L284.667 99.3333M286 102L291 100L286 102M301 99L302 100L301 99z"/>
<path style="fill:#5e6671; stroke:none;" d="M315 99L316 100L315 99M318 99L319 100L318 99z"/>
<path style="fill:#8f979f; stroke:none;" d="M254 100L255 101L254 100M261 100L262 101L261 100M326 102L330 101L326 102z"/>
<path style="fill:#9cb5d1; stroke:none;" d="M205 101L206 102L205 101M295.667 101.333L296.333 101.667L295.667 101.333z"/>
<path style="fill:#8f979f; stroke:none;" d="M204 102L205 103L204 102z"/>
<path style="fill:#5e6671; stroke:none;" d="M203 103L204 104L203 103z"/>
<path style="fill:#c3d2dc; stroke:none;" d="M253 103L253 105L255 105L253 103z"/>
<path style="fill:#9cb5d1; stroke:none;" d="M267 103L268 104L267 103M284 103L283 105L284 103M203 104L204 105L203 104M264 104L266 106L264 104z"/>
<path style="fill:#5e6671; stroke:none;" d="M293 104L293 106L295 106L293 104z"/>
<path style="fill:#8f979f; stroke:none;" d="M202 105L203 106L202 105z"/>
<path style="fill:#5e6671; stroke:none;" d="M291 105L292 106L291 105M201 106L202 107L201 106z"/>
<path style="fill:#c3d2dc; stroke:none;" d="M251 106L252 107L251 106M253 106L254 107L253 106z"/>
<path style="fill:#8f979f; stroke:none;" d="M255 106L254 108L256 108L255 106z"/>
<path style="fill:#5e6671; stroke:none;" d="M286 106L287 107L286 106z"/>
<path style="fill:#8f979f; stroke:none;" d="M201 107L202 108L201 107z"/>
<path style="fill:#c3d2dc; stroke:none;" d="M239 107L240 109L241 109L242 107L239 107z"/>
<path style="fill:#5e6671; stroke:none;" d="M279 107L278 109L279 107M200 108L201 109L200 108z"/>
<path style="fill:#9cb5d1; stroke:none;" d="M288 108L291 111L288 108M200 109L201 110L200 109z"/>
<path style="fill:#5e6671; stroke:none;" d="M199 110L200 111L199 110z"/>
<path style="fill:#8f979f; stroke:none;" d="M246 110L245 112L246 110z"/>
<path style="fill:#c3d2dc; stroke:none;" d="M248 110L249 111L248 110z"/>
<path style="fill:#9cb5d1; stroke:none;" d="M258.333 110.667L258.667 111.333L258.333 110.667M260 110L261 111L260 110z"/>
<path style="fill:#5e6671; stroke:none;" d="M198 111L199 112L198 111z"/>
<path style="fill:#8f979f; stroke:none;" d="M236 111L237 112L236 111z"/>
<path style="fill:#c3d2dc; stroke:none;" d="M241 111L242 112L241 111z"/>
<path style="fill:#5e6671; stroke:none;" d="M271 111L272 112L271 111z"/>
<path style="fill:#8f979f; stroke:none;" d="M297.667 111.333L298.333 111.667L297.667 111.333M198 112L199 113L198 112z"/>
<path style="fill:#9cb5d1; stroke:none;" d="M213 112L214 113L213 112z"/>
<path style="fill:#c3d2dc; stroke:none;" d="M249 112L250 113L249 112z"/>
<path style="fill:#5e6671; stroke:none;" d="M197 113L198 114L197 113z"/>
<path style="fill:#9cb5d1; stroke:none;" d="M262 113L263 114L262 113M265 113L266 114L265 113z"/>
<path style="fill:#050606; stroke:none;" d="M368 113L369 114L368 113z"/>
<path style="fill:#5e6671; stroke:none;" d="M376 113L377 114L376 113z"/>
<path style="fill:#8f979f; stroke:none;" d="M197 114L198 115L197 114z"/>
<path style="fill:#050606; stroke:none;" d="M364 114L364 116L366 114L364 114z"/>
<path style="fill:#5e6671; stroke:none;" d="M196 115L197 116L196 115z"/>
<path style="fill:#c3d2dc; stroke:none;" d="M230 115L231 116L230 115z"/>
<path style="fill:#8f979f; stroke:none;" d="M251 115L252 116L251 115z"/>
<path style="fill:#9cb5d1; stroke:none;" d="M281 115L282 116L281 115z"/>
<path style="fill:#5e6671; stroke:none;" d="M377 115L376 117L378 117L377 115z"/>
<path style="fill:#8f979f; stroke:none;" d="M196 116L197 117L196 116z"/>
<path style="fill:#5e6671; stroke:none;" d="M195 117L196 118L195 117z"/>
<path style="fill:#c3d2dc; stroke:none;" d="M265 117L261 118L259 120L259 121L269 124L272 117L269 120L268 120L265 117z"/>
<path style="fill:#8f979f; stroke:none;" d="M298 117L298 118L302 119L298 117M195 118L196 119L195 118z"/>
<path style="fill:#5e6671; stroke:none;" d="M194 119L195 120L194 119z"/>
<path style="fill:#9cb5d1; stroke:none;" d="M195 119L196 120L195 119z"/>
<path style="fill:#c3d2dc; stroke:none;" d="M256 119L256 122L258 119L256 119M271 122L275 123L275 119L271 122z"/>
<path style="fill:#5e6671; stroke:none;" d="M281 119L279 126L280 126L281 119z"/>
<path style="fill:#050606; stroke:none;" d="M344 119L339 121L339 122L344 119z"/>
<path style="fill:#8f979f; stroke:none;" d="M194 120L195 121L194 120z"/>
<path style="fill:#9cb5d1; stroke:none;" d="M206 120L204 126C207.13 125.329 207.674 122.648 206 120z"/>
<path style="fill:#8f979f; stroke:none;" d="M250 120L251 121L250 120M300 120L304 122L300 120z"/>
<path style="fill:#050606; stroke:none;" d="M336 120L337 121L336 120z"/>
<path style="fill:#5e6671; stroke:none;" d="M193 121L194 122L193 121z"/>
<path style="fill:#9cb5d1; stroke:none;" d="M194 121L193 125L194 125L194 121z"/>
<path style="fill:#8f979f; stroke:none;" d="M259.667 121.333L260.333 121.667L259.667 121.333M193 122L194 123L193 122z"/>
<path style="fill:#9cb5d1; stroke:none;" d="M218 122L216 123L216 124L218 122z"/>
<path style="fill:#8f979f; stroke:none;" d="M250 123L250 124L259 128L260 123L250 123z"/>
<path style="fill:#5e6671; stroke:none;" d="M192 123L191 127L192 127L192 123z"/>
<path style="fill:#8f979f; stroke:none;" d="M270 123L267 127L273 129L275 124L270 123z"/>
<path style="fill:#9cb5d1; stroke:none;" d="M211 124L209 128L211 124M214 124L215 125L214 124z"/>
<path style="fill:#8f979f; stroke:none;" d="M249 124L250 125L249 124z"/>
<path style="fill:#c3d2dc; stroke:none;" d="M264 124L263 127L264 124z"/>
<path style="fill:#050606; stroke:none;" d="M364 124L365 125L364 124z"/>
<path style="fill:#8f979f; stroke:none;" d="M192 125L193 126L192 125z"/>
<path style="fill:#050606; stroke:none;" d="M348 125L348 126L351 126L348 125M358 125L357 129L358 125z"/>
<path style="fill:#9cb5d1; stroke:none;" d="M192.333 126.667L192.667 127.333L192.333 126.667z"/>
<path style="fill:#8f979f; stroke:none;" d="M191.333 127.667L191.667 128.333L191.333 127.667z"/>
<path style="fill:#9cb5d1; stroke:none;" d="M205.667 127.333L206.333 127.667L205.667 127.333z"/>
<path style="fill:#8f979f; stroke:none;" d="M320 127L321 128L320 127z"/>
<path style="fill:#5e6671; stroke:none;" d="M190 128L189 132L190 132L190 128z"/>
<path style="fill:#050606; stroke:none;" d="M361 128L364 133L361 128M370 128L371 129L370 128z"/>
<path style="fill:#9cb5d1; stroke:none;" d="M191 129L192 130L191 129z"/>
<path style="fill:#5e6671; stroke:none;" d="M276 129L277 130L276 129z"/>
<path style="fill:#050606; stroke:none;" d="M372 129L373 130L372 129z"/>
<path style="fill:#8f979f; stroke:none;" d="M190 130L191 131L190 130z"/>
<path style="fill:#9cb5d1; stroke:none;" d="M210 130L209 132L210 130M249 130L250 131L249 130M190 131L191 132L190 131M215 131L214 135L215 135L217 131L215 131M246 131L247 132L246 131z"/>
<path style="fill:#8f979f; stroke:none;" d="M189.333 132.667L189.667 133.333L189.333 132.667z"/>
<path style="fill:#c3d2dc; stroke:none;" d="M259 132L260 133L259 132z"/>
<path style="fill:#9cb5d1; stroke:none;" d="M263 132L264 133L263 132z"/>
<path style="fill:#5e6671; stroke:none;" d="M272 132L273 133L272 132M378.333 132.667L378.667 133.333L378.333 132.667M188 133C172.545 180.499 175.431 231.616 204 274L205 274C195.276 248.307 181.294 226.66 180.039 198C179.456 184.672 179.872 171.076 182.661 158C184.177 150.894 189.474 139.993 188 133z"/>
<path style="fill:#9cb5d1; stroke:none;" d="M247 133L248 137L249 137L250 133L247 133M189 134L190 135L189 134M225 138L231 136C228.154 134.568 226.689 135.389 225 138z"/>
<path style="fill:#050606; stroke:none;" d="M367 134L370 137L367 134M372 134L373 135L372 134z"/>
<path style="fill:#8f979f; stroke:none;" d="M188.333 135.667L188.667 136.333L188.333 135.667z"/>
<path style="fill:#9cb5d1; stroke:none;" d="M256 135L257 136L256 135z"/>
<path style="fill:#050606; stroke:none;" d="M361 135L364 137L364 136L361 135z"/>
<path style="fill:#9cb5d1; stroke:none;" d="M215 136L216 137L215 136M188 137L189 138L188 137z"/>
<path style="fill:#5e6671; stroke:none;" d="M274.667 137.333L275.333 137.667L274.667 137.333z"/>
<path style="fill:#8f979f; stroke:none;" d="M313 137L306 140L306 141L313 137M187.333 138.667L187.667 139.333L187.333 138.667z"/>
<path style="fill:#9cb5d1; stroke:none;" d="M221 138L222 139L221 138z"/>
<path style="fill:#050606; stroke:none;" d="M364 138L365 139L364 138M367 138L368 139L367 138z"/>
<path style="fill:#9cb5d1; stroke:none;" d="M198 139L197 141L199 141L198 139z"/>
<path style="fill:#8f979f; stroke:none;" d="M284 139L285 140L284 139z"/>
<path style="fill:#9cb5d1; stroke:none;" d="M187 140L188 141L187 140M256 141L256 145L257 145L256 141z"/>
<path style="fill:#8f979f; stroke:none;" d="M186 142L187 143L186 142z"/>
<path style="fill:#050606; stroke:none;" d="M372 142L373 143L372 142z"/>
<path style="fill:#9cb5d1; stroke:none;" d="M186 143L187 144L186 143z"/>
<path style="fill:#050606; stroke:none;" d="M360 143L361 144L360 143z"/>
<path style="fill:#9cb5d1; stroke:none;" d="M189 144L188 147L189 144M259 145L258 155L263 154L261 152L261 151L265 149L264 146L268 144L259 145M269.667 144.333L270.333 144.667L269.667 144.333z"/>
<path style="fill:#8f979f; stroke:none;" d="M294 144L294 145L298 145L294 144M185.333 145.667L185.667 146.333L185.333 145.667z"/>
<path style="fill:#9cb5d1; stroke:none;" d="M252 145L253 146L252 145z"/>
<path style="fill:#c3d2dc; stroke:none;" d="M245 146L246 147L245 146z"/>
<path style="fill:#9cb5d1; stroke:none;" d="M254 146L255 147L254 146M185 147L186 148L185 147z"/>
<path style="fill:#5e6671; stroke:none;" d="M274 147L275 148L274 147z"/>
<path style="fill:#8f979f; stroke:none;" d="M184.333 149.667L184.667 150.333L184.333 149.667z"/>
<path style="fill:#5e6671; stroke:none;" d="M268 149L269 150L268 149z"/>
<path style="fill:#9cb5d1; stroke:none;" d="M186 150L187 151L186 150z"/>
<path style="fill:#8f979f; stroke:none;" d="M246 150L247 151L246 150z"/>
<path style="fill:#9cb5d1; stroke:none;" d="M283 150L282 152L283 150M184 151L185 152L184 151z"/>
<path style="fill:#8f979f; stroke:none;" d="M250 151L251 152L250 151z"/>
<path style="fill:#c3d2dc; stroke:none;" d="M237 154L243 152L237 154z"/>
<path style="fill:#9cb5d1; stroke:none;" d="M254 152L255 153L254 152M287 152L288 153L287 152z"/>
<path style="fill:#050606; stroke:none;" d="M322 157L328 157L324 164L324 165L329 173L319 177L320 180C314.926 179.252 312.04 180.975 309 185C312.517 185.473 310.742 188.325 310 191L320 189L316 191L316 192L326 192L322 183L321 183L320 186L315 186L315 185L324 181L320 178L320 177C328.241 175.872 338.58 175.187 341 166L347 166L346 174L347 174L348 171L352 172L356 165L353 167L352 160C349.473 161.465 343.764 166.182 343 161L342 160L339 160L339 163L338 163L338 155C332.328 152.695 326.002 150.694 322 157z"/>
<path style="fill:#8f979f; stroke:none;" d="M183.333 154.667L183.667 155.333L183.333 154.667z"/>
<path style="fill:#c3d2dc; stroke:none;" d="M215 154L214 156L216 156L215 154M233 154L234 155L233 154z"/>
<path style="fill:#9cb5d1; stroke:none;" d="M265 154L265 156L267 154L265 154z"/>
<path style="fill:#8f979f; stroke:none;" d="M247 155L248 156L247 155z"/>
<path style="fill:#9cb5d1; stroke:none;" d="M256 155L258 157L256 155z"/>
<path style="fill:#5e6671; stroke:none;" d="M268.333 155.667L268.667 156.333L268.333 155.667z"/>
<path style="fill:#9cb5d1; stroke:none;" d="M183 156L184 157L183 156z"/>
<path style="fill:#c3d2dc; stroke:none;" d="M243 156L242 160L234 157L234 158L237 161L228 159C231.168 164.141 237.051 162.776 242 161L241 163L242 163L248 161L248 158L243 156z"/>
<path style="fill:#5e6671; stroke:none;" d="M368.667 156.333L369.333 156.667L368.667 156.333z"/>
<path style="fill:#8f979f; stroke:none;" d="M182.333 158.667L182.667 159.333L182.333 158.667z"/>
<path style="fill:#c3d2dc; stroke:none;" d="M205 160L208 159L205 160z"/>
<path style="fill:#5e6671; stroke:none;" d="M266 159L267 160L266 159z"/>
<path style="fill:#050606; stroke:none;" d="M353 159L354 160L353 159z"/>
<path style="fill:#9cb5d1; stroke:none;" d="M182.333 160.667L182.667 161.333L182.333 160.667M242.667 160.333L243.333 160.667L242.667 160.333z"/>
<path style="fill:#8f979f; stroke:none;" d="M276 160L277 161L276 160z"/>
<path style="fill:#050606; stroke:none;" d="M368 160L369 161L368 160z"/>
<path style="fill:#8f979f; stroke:none;" d="M287 162L288 163L287 162z"/>
<path style="fill:#050606; stroke:none;" d="M316 162L317 163L316 162z"/>
<path style="fill:#5e6671; stroke:none;" d="M340 162L339 164L340 162z"/>
<path style="fill:#050606; stroke:none;" d="M359 162L360 163L359 162z"/>
<path style="fill:#9cb5d1; stroke:none;" d="M185 163L186 164L185 163z"/>
<path style="fill:#8f979f; stroke:none;" d="M246 163L248 166L249 165L246 163z"/>
<path style="fill:#050606; stroke:none;" d="M318 163L322 165L322 164L318 163z"/>
<path style="fill:#5e6671; stroke:none;" d="M372 163L373 164L372 163z"/>
<path style="fill:#8f979f; stroke:none;" d="M181 164L181 169L182 169L181 164z"/>
<path style="fill:#c3d2dc; stroke:none;" d="M228.667 164.333L229.333 164.667L228.667 164.333M230 170L230 171L237 172L236 179L242 171L240 168L233 170L233 169L238 165C232.181 163.06 230.474 169.882 230 170M242 164L245 166L242 164z"/>
<path style="fill:#8f979f; stroke:none;" d="M293 164L294 165L293 164M284 165L285 166L284 165z"/>
<path style="fill:#9cb5d1; stroke:none;" d="M182 166L183 167L182 166z"/>
<path style="fill:#8f979f; stroke:none;" d="M252 166L252 171L253 171L252 166z"/>
<path style="fill:#050606; stroke:none;" d="M315 166L315 167L316 172L318 173L322 166L315 166z"/>
<path style="fill:#9cb5d1; stroke:none;" d="M186.333 167.667L186.667 168.333L186.333 167.667z"/>
<path style="fill:#c3d2dc; stroke:none;" d="M245 168L245 169L250 169L245 168z"/>
<path style="fill:#050606; stroke:none;" d="M324 167L327 170L324 167z"/>
<path style="fill:#5e6671; stroke:none;" d="M367 167L368 168L367 167z"/>
<path style="fill:#050606; stroke:none;" d="M357 168L358 169L357 168z"/>
<path style="fill:#9cb5d1; stroke:none;" d="M181.333 169.667L181.667 170.333L181.333 169.667z"/>
<path style="fill:#c3d2dc; stroke:none;" d="M243 169L244 170L243 169M250 169L252 172L250 169z"/>
<path style="fill:#5e6671; stroke:none;" d="M290 169L291 170L290 169M318.333 169.667L318.667 170.333L318.333 169.667M368 169L370 171L368 169z"/>
<path style="fill:#c3d2dc; stroke:none;" d="M214.667 170.333L215.333 170.667L214.667 170.333z"/>
<path style="fill:#9cb5d1; stroke:none;" d="M251 170L252 171L251 170z"/>
<path style="fill:#5e6671; stroke:none;" d="M268 170L271 173L268 170z"/>
<path style="fill:#8f979f; stroke:none;" d="M245 171L246 172L245 171M248 171L246 172L245 176L249 177L248 171z"/>
<path style="fill:#5e6671; stroke:none;" d="M265.667 171.333L266.333 171.667L265.667 171.333M329 171L330 172L329 171z"/>
<path style="fill:#8f979f; stroke:none;" d="M180 172L180 180L181 180L180 172z"/>
<path style="fill:#9cb5d1; stroke:none;" d="M182 172L180 190L184 186L187 187C187.791 184.763 188.626 183 186 183L188 176L187 176L186 179L183 179L182 172z"/>
<path style="fill:#8f979f; stroke:none;" d="M244 172L245 173L244 172z"/>
<path style="fill:#5e6671; stroke:none;" d="M280 172L281 173L280 172z"/>
<path style="fill:#8f979f; stroke:none;" d="M243 173L241 176L244 177L243 173z"/>
<path style="fill:#c3d2dc; stroke:none;" d="M253 173L258 179L253 173z"/>
<path style="fill:#5e6671; stroke:none;" d="M263 173L262 175L263 173z"/>
<path style="fill:#9cb5d1; stroke:none;" d="M267 173L268 174L267 173z"/>
<path style="fill:#050606; stroke:none;" d="M350 173L351 174L350 173z"/>
<path style="fill:#5e6671; stroke:none;" d="M368 173L369 174L368 173z"/>
<path style="fill:#9cb5d1; stroke:none;" d="M189.333 175.667L189.667 176.333L189.333 175.667M191 175L193 177L191 175M266 175L267 176L266 175z"/>
<path style="fill:#5e6671; stroke:none;" d="M268.667 175.333L269.333 175.667L268.667 175.333z"/>
<path style="fill:#050606; stroke:none;" d="M315.667 175.333L316.333 175.667L315.667 175.333z"/>
<path style="fill:#8f979f; stroke:none;" d="M252 176L253 177L252 176M290 176L291 177L290 176M249 177L250 178L249 177z"/>
<path style="fill:#5e6671; stroke:none;" d="M271 177L268 180L268 181L271 182L276 180L275 177L271 177z"/>
<path style="fill:#050606; stroke:none;" d="M314.667 177.333L315.333 177.667L314.667 177.333z"/>
<path style="fill:#9cb5d1; stroke:none;" d="M190 178L188 197L193 195L197 187C201.979 186.002 199.87 181.692 195 184L190 178z"/>
<path style="fill:#c3d2dc; stroke:none;" d="M240 178L237 184L241 183L242 189L253 187L250 186L254 180L248 178L250 183L247 185L244 182L246 179L240 178M253 178L254 179L253 178z"/>
<path style="fill:#5e6671; stroke:none;" d="M279.667 178.333L280.333 178.667L279.667 178.333z"/>
<path style="fill:#c3d2dc; stroke:none;" d="M216 182L215 182L212 180L214 182L214 183L211 186L225 189L222 194L222 195L228 192L228 188C223.065 186.735 217.958 187.278 216 182L219 180L223 180L216 182z"/>
<path style="fill:#8f979f; stroke:none;" d="M229 179L229 184L230 184L229 179M232 179L233 180L232 179z"/>
<path style="fill:#c3d2dc; stroke:none;" d="M236 180L237 181L236 180z"/>
<path style="fill:#050606; stroke:none;" d="M352.333 180.667L352.667 181.333L352.333 180.667z"/>
<path style="fill:#c3d2dc; stroke:none;" d="M191 181L192 182L191 181M235 181L236 182L235 181z"/>
<path style="fill:#9cb5d1; stroke:none;" d="M240 181L241 182L240 181z"/>
<path style="fill:#8f979f; stroke:none;" d="M232.667 182.333L233.333 182.667L232.667 182.333M236 182L237 183L236 182z"/>
<path style="fill:#c3d2dc; stroke:none;" d="M197 183L198 184L197 183z"/>
<path style="fill:#8f979f; stroke:none;" d="M227 183L224 184L224 185L227 183z"/>
<path style="fill:#c3d2dc; stroke:none;" d="M253 184L257 186L253 184z"/>
<path style="fill:#5e6671; stroke:none;" d="M275 183L276 184L275 183M342 183C343.352 186.85 344.949 188.36 349 189L342 183z"/>
<path style="fill:#9cb5d1; stroke:none;" d="M215 185L216 186L215 185z"/>
<path style="fill:#c3d2dc; stroke:none;" d="M232 185L233 186L232 185M258 185L259 186L258 185z"/>
<path style="fill:#050606; stroke:none;" d="M305 185L306 186L305 185M336 187L339 185L336 187z"/>
<path style="fill:#9cb5d1; stroke:none;" d="M261 186L259 188L259 189L263 187L261 186z"/>
<path style="fill:#8f979f; stroke:none;" d="M229 187L230 191L237 198C237 194.6 231.863 189.716 237 191L229 187z"/>
<path style="fill:#5e6671; stroke:none;" d="M316 187L316 188L319 188L316 187M340 187L341 188L340 187z"/>
<path style="fill:#9cb5d1; stroke:none;" d="M184 188L183 194L184 194L184 188z"/>
<path style="fill:#8f979f; stroke:none;" d="M212 188L213 189L212 188z"/>
<path style="fill:#c3d2dc; stroke:none;" d="M240 188L241 189L240 188z"/>
<path style="fill:#9cb5d1; stroke:none;" d="M198.333 189.667L198.667 190.333L198.333 189.667M232 189L233 190L232 189M264 189L265 190L264 189z"/>
<path style="fill:#8f979f; stroke:none;" d="M272 189L273 190L272 189z"/>
<path style="fill:#5e6671; stroke:none;" d="M358.333 189.667L358.667 190.333L358.333 189.667z"/>
<path style="fill:#8f979f; stroke:none;" d="M217 191L217 192L223 191L217 191z"/>
<path style="fill:#c3d2dc; stroke:none;" d="M241 196L248 190C244.857 190.4 234.956 191.867 241 196z"/>
<path style="fill:#9cb5d1; stroke:none;" d="M253 190L254 191L253 190z"/>
<path style="fill:#8f979f; stroke:none;" d="M212.667 191.333L213.333 191.667L212.667 191.333M215 191L216 192L215 191z"/>
<path style="fill:#9cb5d1; stroke:none;" d="M227 192L228 193L227 192z"/>
<path style="fill:#8f979f; stroke:none;" d="M228 192L229 193L228 192z"/>
<path style="fill:#c3d2dc; stroke:none;" d="M230.667 192.333L231.333 192.667L230.667 192.333z"/>
<path style="fill:#5e6671; stroke:none;" d="M269 192L270 193L269 192z"/>
<path style="fill:#8f979f; stroke:none;" d="M226 193L228 195L228 193L226 193z"/>
<path style="fill:#c3d2dc; stroke:none;" d="M247 193L247 195L249 195L249 193L247 193z"/>
<path style="fill:#9cb5d1; stroke:none;" d="M196 194L197 195L196 194M263 194L262 196L264 196L263 194z"/>
<path style="fill:#050606; stroke:none;" d="M312 194L313 195L312 194M319 194L318 196L319 194M321.667 194.333L322.333 194.667L321.667 194.333z"/>
<path style="fill:#9cb5d1; stroke:none;" d="M180 195L182 215L183 215L185 213L183 218L187 231L190 225L193 227L192 220L194 223L195 223L196 215L191 212L193 214L194 214L196 213L195 207L196 207L198 212L199 212L201 209L208 213L209 210L212 211L215 208L207 203L199 206C195.816 202.356 190.238 204.207 187 207L186 207L180 195z"/>
<path style="fill:#8f979f; stroke:none;" d="M224 195L223 197L225 197L224 195z"/>
<path style="fill:#c3d2dc; stroke:none;" d="M246 200L250 199C252.252 202.136 254.441 201.538 257 199L254 200L254 195C250.119 195.495 247.339 196.066 246 200M257.333 195.667L257.667 196.333L257.333 195.667z"/>
<path style="fill:#050606; stroke:none;" d="M331 195L330 201L331 201L331 195z"/>
<path style="fill:#8f979f; stroke:none;" d="M229 196L230 197L229 196M231 196L232 197L231 196M241 196L243 199L246 197L241 196z"/>
<path style="fill:#9cb5d1; stroke:none;" d="M269 196L264 198L264 199L269 200L269 196z"/>
<path style="fill:#5e6671; stroke:none;" d="M278 196L279 197L278 196z"/>
<path style="fill:#050606; stroke:none;" d="M313 198L316 197L313 198z"/>
<path style="fill:#8f979f; stroke:none;" d="M226 197L222 199L222 200L226 197z"/>
<path style="fill:#c3d2dc; stroke:none;" d="M233 197L234 198L233 197M240 197L241 198L240 197z"/>
<path style="fill:#8f979f; stroke:none;" d="M286.667 197.333L287.333 197.667L286.667 197.333M180 198L180 203L181 203L180 198M228 198L229 199L228 198M230.667 198.333L231.333 198.667L230.667 198.333z"/>
<path style="fill:#c3d2dc; stroke:none;" d="M239 198L240 199L239 198z"/>
<path style="fill:#8f979f; stroke:none;" d="M280 198L281 199L280 198z"/>
<path style="fill:#9cb5d1; stroke:none;" d="M205 199L206 200L205 199z"/>
<path style="fill:#050606; stroke:none;" d="M320 199L322 204L323 201L327 204L330 203L328 199L320 199z"/>
<path style="fill:#9cb5d1; stroke:none;" d="M209 200L215 203L215 202L209 200M253 200L254 201L253 200z"/>
<path style="fill:#8f979f; stroke:none;" d="M212 201L213 202L212 201z"/>
<path style="fill:#5e6671; stroke:none;" d="M268 201L268 202L273 203L273 202L268 201M284.667 201.333L285.333 201.667L284.667 201.333z"/>
<path style="fill:#9cb5d1; stroke:none;" d="M204 203L205 204L204 203M243 203L245 205L245 203L243 203z"/>
<path style="fill:#5e6671; stroke:none;" d="M262.667 203.333L263.333 203.667L262.667 203.333M266 203L267 204L266 203M335 203L336 206L331 207L332 212C334.283 211.239 343.445 212.705 341 207C340.154 205.027 339.328 207.688 340 205L337 206L335 203z"/>
<path style="fill:#8f979f; stroke:none;" d="M207 204L208 205L207 204z"/>
<path style="fill:#c3d2dc; stroke:none;" d="M233 204L232 206L234 206L233 204z"/>
<path style="fill:#9cb5d1; stroke:none;" d="M246 204L247 205L246 204z"/>
<path style="fill:#8f979f; stroke:none;" d="M283 204L283 205L286 205L283 204M204 208L206 210L213 208C209.897 204.945 207.127 204.981 204 208z"/>
<path style="fill:#9cb5d1; stroke:none;" d="M220 205L221 206L220 205M222 205L222 207L227 207L222 205z"/>
<path style="fill:#5e6671; stroke:none;" d="M240 205L240 207L242 205L240 205z"/>
<path style="fill:#8f979f; stroke:none;" d="M303 205L305 207L303 205z"/>
<path style="fill:#5e6671; stroke:none;" d="M247 206L240 211L240 212C244.196 212.363 246.73 213.106 249 209L246 210L247 206M344 206L343 208L344 206M354 206L351 208L351 209L355 207L354 206z"/>
<path style="fill:#8f979f; stroke:none;" d="M181 207L181 211L182 211L181 207z"/>
<path style="fill:#9cb5d1; stroke:none;" d="M207 207L208 208L207 207z"/>
<path style="fill:#5e6671; stroke:none;" d="M241 209L244 208L241 209z"/>
<path style="fill:#8f979f; stroke:none;" d="M253 207L254 208L253 207z"/>
<path style="fill:#5e6671; stroke:none;" d="M357 207L358 208L357 207z"/>
<path style="fill:#8f979f; stroke:none;" d="M197 208L197 209L200 209L200 208L197 208M273 211L273 212L279 213L277 218L279 220L280 220L283 216L280 209L273 211z"/>
<path style="fill:#5e6671; stroke:none;" d="M354 209L354 211L356 209L354 209z"/>
<path style="fill:#9cb5d1; stroke:none;" d="M216 210L216 211L221 211L216 210M250 210L252 212L252 210L250 210z"/>
<path style="fill:#5e6671; stroke:none;" d="M352 210L353 211L352 210z"/>
<path style="fill:#c3d2dc; stroke:none;" d="M182 211L183 212L182 211M183 213L183 218L185 218L185 213L183 213z"/>
<path style="fill:#050606; stroke:none;" d="M309 219L308 222L311 223L310 226L317 224L313 225L328 216L318.333 214.5L309 219z"/>
<path style="fill:#8f979f; stroke:none;" d="M182.333 215.667L182.667 216.333L182.333 215.667z"/>
<path style="fill:#5e6671; stroke:none;" d="M323 215L324 216L323 215z"/>
<path style="fill:#8f979f; stroke:none;" d="M252 216L253 217L252 216z"/>
<path style="fill:#050606; stroke:none;" d="M305 216L305 217L309 218L309 217L305 216M310 216L311 217L310 216z"/>
<path style="fill:#c3d2dc; stroke:none;" d="M242 217L243 218L242 217z"/>
<path style="fill:#5e6671; stroke:none;" d="M356 217L357 218L356 217z"/>
<path style="fill:#9cb5d1; stroke:none;" d="M232.667 218.333L233.333 218.667L232.667 218.333z"/>
<path style="fill:#5e6671; stroke:none;" d="M348.333 218.667L348.667 219.333L348.333 218.667z"/>
<path style="fill:#c3d2dc; stroke:none;" d="M185 219L185 224L186 224L187 219L185 219z"/>
<path style="fill:#9cb5d1; stroke:none;" d="M200 219C201.044 222.15 201.564 223.825 205 224L200 219z"/>
<path style="fill:#8f979f; stroke:none;" d="M282 228C284.027 226.519 287.415 221.468 288 226L289 226L292 222C286.287 217.803 280.066 220.655 282 228M183 220L184 221L183 220z"/>
<path style="fill:#5e6671; stroke:none;" d="M285 220L284 223C286.158 222.022 286.501 221.812 285 220M312 220L312 221L312 222L316 221L316 220L312 220M343 220L343 226L347 221L344 223L345 220L343 220z"/>
<path style="fill:#8f979f; stroke:none;" d="M279.333 221.667L279.667 222.333L279.333 221.667z"/>
<path style="fill:#5e6671; stroke:none;" d="M337 221L338 222L337 221M350.333 221.667L350.667 222.333L350.333 221.667M353 221L353 224L354 224L353 221z"/>
<path style="fill:#c3d2dc; stroke:none;" d="M203 223L204 224L203 223z"/>
<path style="fill:#8f979f; stroke:none;" d="M184.333 224.667L184.667 225.333L184.333 224.667M237.667 224.333L238.333 224.667L237.667 224.333z"/>
<path style="fill:#c3d2dc; stroke:none;" d="M226 226L228 230L232 226L226 226z"/>
<path style="fill:#9cb5d1; stroke:none;" d="M248 225L247 227L249 227L248 225z"/>
<path style="fill:#050606; stroke:none;" d="M318.667 225.333L319.333 225.667L318.667 225.333z"/>
<path style="fill:#5e6671; stroke:none;" d="M340.667 225.333L341.333 225.667L340.667 225.333z"/>
<path style="fill:#8f979f; stroke:none;" d="M220 227L225 238L224 226L220 227M234.667 226.333L235.333 226.667L234.667 226.333z"/>
<path style="fill:#c3d2dc; stroke:none;" d="M240 226L241 227L240 226z"/>
<path style="fill:#050606; stroke:none;" d="M325 226L324 228L326 228L325 226z"/>
<path style="fill:#9cb5d1; stroke:none;" d="M206 227L207 228L206 227M256 227L257 228L256 227z"/>
<path style="fill:#5e6671; stroke:none;" d="M261 227L262 228L261 227z"/>
<path style="fill:#050606; stroke:none;" d="M328 227L329 228L328 227z"/>
<path style="fill:#8f979f; stroke:none;" d="M185 228L186 229L185 228z"/>
<path style="fill:#050606; stroke:none;" d="M318 228L319 229L318 228M330 228L330 230L332 228L330 228z"/>
<path style="fill:#5e6671; stroke:none;" d="M350 228L351 229L350 228z"/>
<path style="fill:#9cb5d1; stroke:none;" d="M208 229L210 231L208 229z"/>
<path style="fill:#8f979f; stroke:none;" d="M186.333 230.667L186.667 231.333L186.333 230.667z"/>
<path style="fill:#9cb5d1; stroke:none;" d="M211 230L215 233L211 230z"/>
<path style="fill:#5e6671; stroke:none;" d="M235 231L234 234L235 231M237.333 231.667L237.667 232.333L237.333 231.667M250 231L249 233L251 233L250 231z"/>
<path style="fill:#050606; stroke:none;" d="M313 231L314 232L313 231z"/>
<path style="fill:#9cb5d1; stroke:none;" d="M187.333 232.667L187.667 233.333L187.333 232.667z"/>
<path style="fill:#5e6671; stroke:none;" d="M239 232L239 236L243 236L243 235L239 232z"/>
<path style="fill:#050606; stroke:none;" d="M315 232L315 233L318 234L315 232z"/>
<path style="fill:#5e6671; stroke:none;" d="M327.667 232.333L328.333 232.667L327.667 232.333z"/>
<path style="fill:#8f979f; stroke:none;" d="M187.333 234.667L187.667 235.333L187.333 234.667M200 234L202 239L199 238L205 245C206.693 242.46 209.421 241.684 206 241L206 240L210 240L206 238L207 235L200 234z"/>
<path style="fill:#9cb5d1; stroke:none;" d="M214 234L218 237L214 234M231 234L237 237L237 236L231 234M245 234L246 235L245 234z"/>
<path style="fill:#050606; stroke:none;" d="M321 235L322 236L321 235z"/>
<path style="fill:#9cb5d1; stroke:none;" d="M188.333 236.667L188.667 237.333L188.333 236.667z"/>
<path style="fill:#c3d2dc; stroke:none;" d="M198.333 236.667L198.667 237.333L198.333 236.667z"/>
<path style="fill:#9cb5d1; stroke:none;" d="M240 237L239 239L241 239L240 237M242 237L243 238L242 237z"/>
<path style="fill:#8f979f; stroke:none;" d="M258 237L258 238L262 238L258 237M188 238L189 239L188 238z"/>
<path style="fill:#9cb5d1; stroke:none;" d="M189 239L190 240L189 239z"/>
<path style="fill:#5e6671; stroke:none;" d="M241 244L248 245L252 251L250 248L257 253L255 249L262 249L244 240L253 241L253 239C247.693 239.2 243.11 238.26 241 244z"/>
<path style="fill:#8f979f; stroke:none;" d="M269 239L269 241L271 241L269 239M189 240L190 241L189 240M229.333 241.667L229.667 242.333L229.333 241.667M273 241L274 242L273 241M284 241L285 242L284 241z"/>
<path style="fill:#9cb5d1; stroke:none;" d="M190 242L191 243L190 242M232 243L232 244L243 248L243 247L239 247C237.761 243.384 235.698 242.571 232 243z"/>
<path style="fill:#8f979f; stroke:none;" d="M275.667 242.333L276.333 242.667L275.667 242.333M286 242L286 244L288 242L286 242M190 243L191 244L190 243M291 243L292 246L293 246L293 243L291 243z"/>
<path style="fill:#5e6671; stroke:none;" d="M261 244L262 245L261 244z"/>
<path style="fill:#8f979f; stroke:none;" d="M280 244L279 248L280 244M191.333 245.667L191.667 246.333L191.333 245.667z"/>
<path style="fill:#5e6671; stroke:none;" d="M230 245L231 250L235 248L230 245z"/>
<path style="fill:#8f979f; stroke:none;" d="M205 246C204.268 250.504 205.748 252.497 210 254L212 253L205 246M192.333 247.667L192.667 248.333L192.333 247.667z"/>
<path style="fill:#5e6671; stroke:none;" d="M263 247L264 248L263 247z"/>
<path style="fill:#c3d2dc; stroke:none;" d="M198 248L199 249L198 248z"/>
<path style="fill:#8f979f; stroke:none;" d="M211 248L212 249L211 248M213 252L217 251L213 252z"/>
<path style="fill:#9cb5d1; stroke:none;" d="M237 249C237.899 253.312 239.576 254.998 244 254L245 257L249 254L243 249L237 249z"/>
<path style="fill:#8f979f; stroke:none;" d="M193 250L194 251L193 250z"/>
<path style="fill:#9cb5d1; stroke:none;" d="M205 250L207 252L205 250M246 250L247 251L246 250z"/>
<path style="fill:#5e6671; stroke:none;" d="M327 250L323 254L324 254L327 250z"/>
<path style="fill:#8f979f; stroke:none;" d="M198 251C196.474 259.156 204.866 264.27 208 271L209 271L201 257L203 258L203 257L198 251M194 253L195 254L194 253z"/>
<path style="fill:#5e6671; stroke:none;" d="M272.333 253.667L272.667 254.333L272.333 253.667M232 254L233 255L232 254z"/>
<path style="fill:#8f979f; stroke:none;" d="M195 255L196 256L195 255z"/>
<path style="fill:#9cb5d1; stroke:none;" d="M222 255C224.302 261.075 230.884 263.712 237 262L222 255z"/>
<path style="fill:#5e6671; stroke:none;" d="M257.333 256.667L257.667 257.333L257.333 256.667z"/>
<path style="fill:#8f979f; stroke:none;" d="M196.333 257.667L196.667 258.333L196.333 257.667z"/>
<path style="fill:#5e6671; stroke:none;" d="M238 258L244 259L238 258z"/>
<path style="fill:#8f979f; stroke:none;" d="M204 258L205 259L204 258z"/>
<path style="fill:#5e6671; stroke:none;" d="M333 260L336 258L333 260z"/>
<path style="fill:#8f979f; stroke:none;" d="M197.333 259.667L197.667 260.333L197.333 259.667z"/>
<path style="fill:#5e6671; stroke:none;" d="M249 260L250 261L249 260M327 261L327 262L331 260L327 261z"/>
<path style="fill:#8f979f; stroke:none;" d="M198 261L200 264L198 261M233 261L234 262L233 261z"/>
<path style="fill:#5e6671; stroke:none;" d="M257 261L246 265L246 266L258 262L257 261z"/>
<path style="fill:#8f979f; stroke:none;" d="M266.667 261.333L267.333 261.667L266.667 261.333z"/>
<path style="fill:#050606; stroke:none;" d="M315 261L316 262L315 261z"/>
<path style="fill:#5e6671; stroke:none;" d="M332 261L333 262L332 261M247 262L248 263L247 262z"/>
<path style="fill:#8f979f; stroke:none;" d="M269 262L268 263L268 265L273 266L273 263L271 262L269 262M277 262L276 264L277 262M211 263L212 264L211 263M200.333 264.667L200.667 265.333L200.333 264.667M265.667 265.333L266.333 265.667L265.667 265.333M275 265L274 267L276 267L275 265M201.333 266.667L201.667 267.333L201.333 266.667z"/>
<path style="fill:#5e6671; stroke:none;" d="M253 266L254 267L253 266M329.667 267.333L330.333 267.667L329.667 267.333z"/>
<path style="fill:#8f979f; stroke:none;" d="M202 268L203 269L202 268z"/>
<path style="fill:#9cb5d1; stroke:none;" d="M214 269L215 270L214 269M217 269L219 272L217 269z"/>
<path style="fill:#5e6671; stroke:none;" d="M231 269L232 270L231 269z"/>
<path style="fill:#8f979f; stroke:none;" d="M269 269L270 270L269 269M279 269L280 270L279 269z"/>
<path style="fill:#5e6671; stroke:none;" d="M329 269L330 270L329 269z"/>
<path style="fill:#8f979f; stroke:none;" d="M203 270L204 271L203 270z"/>
<path style="fill:#5e6671; stroke:none;" d="M324 271L324 272L328 272L324 271z"/>
<path style="fill:#8f979f; stroke:none;" d="M204 271L205 272L204 271z"/>
<path style="fill:#5e6671; stroke:none;" d="M238 272L239 273L238 272z"/>
<path style="fill:#8f979f; stroke:none;" d="M261 273L263 275L263 276L261 277L261 278L264 280L261 273z"/>
<path style="fill:#5e6671; stroke:none;" d="M205 274L207 277L205 274M251 276L251 277L254 277L251 276M207 277L210 281L207 277z"/>
<path style="fill:#9cb5d1; stroke:none;" d="M223 277L224 278L223 277z"/>
<path style="fill:#5e6671; stroke:none;" d="M320 278L320 280L322 280L320 278M210 281L211 282L210 281M211 282L214 286L211 282z"/>
<path style="fill:#9cb5d1; stroke:none;" d="M230 284L231 285L230 284z"/>
<path style="fill:#5e6671; stroke:none;" d="M264 284L265 285L264 284M214 286L215 287L214 286z"/>
<path style="fill:#050606; stroke:none;" d="M318 286L319 287L318 286z"/>
<path style="fill:#5e6671; stroke:none;" d="M215 287L216 288L215 287M216 288L217 289L216 288z"/>
<path style="fill:#050606; stroke:none;" d="M318 289L318 290L321 290L321 289L318 289z"/>
<path style="fill:#5e6671; stroke:none;" d="M217 289L218 290L217 289M218 290L219 291L218 290M273 290L274 291L273 290M321 291L322 292L321 291M268 292L269 293L268 292z"/>
<path style="fill:#9cb5d1; stroke:none;" d="M239 293L240 294L239 293z"/>
<path style="fill:#5e6671; stroke:none;" d="M322.667 295.333L323.333 295.667L322.667 295.333M224 297L225 298L224 297z"/>
<path style="fill:#9cb5d1; stroke:none;" d="M226 297L229 300L226 297z"/>
<path style="fill:#050606; stroke:none;" d="M318 297L319 298L318 297z"/>
<path style="fill:#9cb5d1; stroke:none;" d="M229 300L231 302L229 300z"/>
<path style="fill:#5e6671; stroke:none;" d="M229 301L230 302L229 301M230 302L231 303L230 302M231 303L232 304L231 303M232 304L233 305L232 304M235 306L236 307L235 306M244 306L245 307L244 306M236 307L237 308L236 307M237 308L238 309L237 308M240 310L241 311L240 310M243 312L244 313L243 312M244 313L245 314L244 313M246 314L247 315L246 314M247 315L248 316L247 315M249 316L250 317L249 316z"/>
</svg>
