<?xml version="1.0" standalone="no"?>
<!DOCTYPE svg PUBLIC "-//W3C//DTD SVG 20010904//EN"
 "http://www.w3.org/TR/2001/REC-SVG-20010904/DTD/svg10.dtd">
<svg version="1.0" xmlns="http://www.w3.org/2000/svg"
 width="666.000000pt" height="375.000000pt" viewBox="0 0 666.000000 375.000000"
 preserveAspectRatio="xMidYMid meet">
<metadata>
Created by potrace 1.16, written by Peter Selinger 2001-2019
</metadata>
<g transform="translate(0.000000,375.000000) scale(0.100000,-0.100000)"
fill="#000000" stroke="none">
<path d="M3225 2959 c-260 -27 -466 -129 -665 -329 -159 -159 -234 -291 -293
-514 -17 -67 -21 -110 -22 -246 0 -150 2 -174 28 -264 116 -415 432 -715 847
-802 112 -23 305 -23 420 0 440 90 788 450 866 896 18 104 15 333 -6 380 -9
23 -10 22 -5 -10 2 -19 8 -85 11 -146 13 -219 -53 -464 -170 -629 -27 -37 -35
-42 -46 -32 -12 10 -12 9 -3 -3 10 -13 3 -26 -34 -68 -25 -29 -52 -52 -59 -52
-19 0 -18 19 1 26 8 4 15 12 15 19 0 8 7 21 15 29 11 11 13 21 7 33 -5 10 -7
24 -4 32 3 10 0 12 -14 7 -31 -12 -39 -12 -36 2 2 10 -2 10 -18 2 -25 -13 -26
-21 -2 -14 14 5 14 4 2 -4 -16 -12 -33 -6 -25 9 4 5 0 9 -7 9 -9 1 -7 5 4 14
10 7 15 16 11 19 -3 4 6 11 21 16 14 6 26 15 26 21 0 6 -5 8 -11 4 -6 -3 -3 8
6 25 9 17 13 36 10 41 -4 6 0 13 9 16 8 3 17 12 20 20 3 8 2 13 -3 10 -5 -3
-11 0 -14 8 -6 16 19 30 28 16 7 -11 37 -1 47 14 5 7 8 4 8 -7 0 -10 4 -16 9
-13 4 3 6 -7 3 -22 -5 -24 -4 -26 12 -13 9 8 15 20 12 28 -3 7 0 13 7 13 8 0
6 4 -3 10 -8 5 -10 10 -5 10 6 0 -1 7 -15 14 -14 8 -28 12 -31 10 -4 -2 -9 2
-12 10 -4 10 0 12 16 8 12 -3 25 -10 28 -15 11 -16 30 3 24 24 -4 11 -2 19 5
19 6 0 8 -5 4 -12 -5 -9 -3 -9 9 1 9 7 14 17 11 22 -3 5 0 9 5 9 6 0 11 5 11
11 0 5 -4 8 -9 4 -13 -7 -24 30 -16 54 3 11 2 22 -3 25 -5 3 -12 -8 -16 -24
-6 -32 -30 -40 -40 -14 -10 27 -7 38 7 25 14 -11 27 -5 27 11 0 5 -4 7 -9 4
-5 -3 -14 1 -21 9 -16 19 -30 19 -30 0 0 -8 -4 -15 -10 -15 -5 0 -7 -8 -4 -17
5 -15 4 -15 -4 -3 -8 10 -6 22 6 42 16 27 16 27 37 9 27 -25 50 -16 24 10 -10
10 -24 20 -31 22 -20 4 -36 21 -31 34 3 7 0 13 -6 13 -12 0 -15 -17 -12 -64 1
-16 -4 -33 -11 -37 -6 -4 -17 -26 -24 -47 -9 -34 -9 -39 2 -35 12 5 19 24 15
46 -1 8 36 -12 57 -30 7 -7 19 -13 25 -14 7 0 -1 -5 -18 -10 -16 -5 -38 -6
-47 -3 -10 3 -26 0 -37 -5 -16 -9 -21 -7 -26 9 -7 23 -33 27 -41 5 -4 -8 -11
-12 -16 -9 -6 4 -9 1 -6 -7 3 -8 -2 -19 -11 -26 -11 -8 -12 -12 -3 -13 6 0 12
-5 12 -11 0 -7 7 -17 17 -24 15 -11 27 -74 14 -76 -3 0 -14 -2 -23 -4 -10 -2
-18 1 -18 7 0 6 7 7 16 4 15 -6 15 -4 3 11 -8 9 -9 14 -3 10 7 -4 14 -1 17 6
3 8 -6 18 -22 24 -22 8 -28 7 -28 -3 0 -8 5 -14 11 -14 5 0 1 -6 -9 -14 -18
-13 -18 -14 -1 -41 14 -22 20 -25 27 -14 7 11 9 11 9 -2 0 -25 -26 -30 -45 -9
-17 19 -30 20 -55 6 -8 -5 -2 4 13 21 20 21 27 38 25 61 -3 37 -5 38 -36 16
-21 -14 -23 -14 -20 -1 2 9 -1 15 -7 14 -5 -1 -10 -12 -10 -24 1 -12 -3 -19
-7 -17 -13 8 -9 41 7 54 8 7 13 16 10 20 -9 15 14 62 27 54 7 -4 8 -3 4 4 -10
17 -22 15 -48 -10 -13 -13 -22 -31 -20 -40 3 -15 -2 -17 -30 -11 -18 3 -39 10
-46 16 -7 5 -15 8 -18 5 -2 -3 11 -13 31 -22 42 -20 44 -24 9 -20 -14 1 -23 0
-21 -3 3 -3 2 -15 -3 -28 -8 -20 -6 -22 12 -18 15 5 17 8 6 14 -9 6 -6 9 11 9
19 0 22 -4 18 -21 -4 -15 1 -22 18 -29 31 -12 39 -26 18 -34 -10 -4 -14 -4
-10 0 11 11 -45 44 -75 44 -24 0 -28 4 -28 28 0 15 -7 38 -16 50 -12 18 -13
26 -4 37 7 8 16 12 21 9 5 -3 6 2 2 11 -4 12 -8 13 -13 5 -6 -9 -10 -6 -14 8
-5 14 -13 19 -26 16 -68 -15 -64 -16 -44 14 15 24 16 25 1 13 -15 -11 -17 -11
-17 2 0 8 -6 18 -12 21 -7 4 -3 4 10 2 18 -3 22 -1 18 11 -3 8 -6 17 -6 19 0
2 -6 4 -14 4 -8 0 -16 7 -20 15 -7 18 -52 20 -59 3 -4 -10 -6 -10 -6 0 -1 6
-6 12 -12 12 -5 0 -7 -4 -4 -10 4 -6 -1 -7 -11 -3 -10 4 -13 8 -7 10 6 2 9 16
7 29 -3 18 -1 23 7 18 8 -4 9 -3 5 4 -4 7 -2 12 3 12 6 0 11 9 11 19 0 17 -3
18 -24 8 -18 -9 -22 -15 -14 -24 7 -9 7 -13 -2 -13 -10 0 -10 -3 0 -15 16 -20
0 -19 -28 1 -13 9 -22 11 -22 4 0 -6 -5 -8 -12 -3 -7 4 -21 6 -30 5 -12 -2
-18 3 -18 15 0 11 -3 14 -8 7 -4 -7 -15 -8 -27 -3 -19 8 -19 8 3 15 27 8 30
34 3 29 -10 -2 -26 6 -35 17 -17 19 -16 19 5 13 13 -4 19 -3 15 3 -3 5 1 15 9
22 16 13 16 12 19 -29 1 -16 26 -28 26 -13 0 5 7 9 15 9 8 0 15 -7 15 -16 0
-14 2 -14 10 -1 9 13 11 13 20 0 14 -21 12 -28 -7 -39 -16 -9 -15 -10 5 -11
13 0 20 4 17 10 -3 5 3 17 14 27 15 12 17 19 8 25 -9 5 -9 10 2 20 11 11 13
11 6 -1 -6 -10 -4 -12 5 -6 10 6 7 12 -11 26 -18 13 -27 15 -37 7 -10 -9 -14
-6 -18 10 -7 24 -30 36 -40 20 -5 -7 -2 -8 6 -3 9 5 11 4 6 -3 -5 -9 -14 -7
-33 5 -25 16 -25 17 -4 25 12 4 21 9 21 12 0 8 -36 -3 -90 -27 -14 -6 -31 -9
-39 -8 -7 1 -10 -2 -7 -7 3 -5 -1 -15 -9 -22 -17 -14 -11 -32 9 -24 7 3 13 -2
13 -11 0 -19 -11 -19 -27 0 -10 12 -16 13 -29 3 -14 -12 -14 -11 -2 5 9 12 10
17 2 17 -7 0 -10 4 -7 9 4 5 -3 7 -14 4 -14 -4 -20 0 -20 11 0 20 0 20 -38 0
-32 -15 -46 -41 -16 -30 9 3 12 2 8 -5 -3 -6 -15 -9 -25 -6 -19 5 -22 -14 -6
-40 5 -8 4 -13 -2 -13 -6 0 -11 5 -11 10 0 6 -4 10 -9 10 -14 0 -7 -34 10 -50
9 -8 14 -21 12 -27 -3 -9 -9 -8 -21 4 -9 9 -17 20 -17 24 0 4 -3 10 -7 14 -4
4 -4 14 -1 23 5 11 2 14 -9 10 -19 -8 -38 10 -31 29 3 8 0 13 -8 11 -8 -2 -14
6 -15 19 -1 12 3 20 7 17 5 -3 16 -1 26 4 14 8 13 11 -8 18 -13 4 -27 9 -31
10 -5 1 -11 3 -15 4 -5 1 -12 2 -17 1 -5 -1 -6 5 -3 13 4 10 0 14 -13 11 -13
-3 -23 5 -32 25 -7 16 -15 27 -19 25 -3 -3 -5 7 -3 22 3 29 19 43 49 43 11 0
27 4 35 10 9 6 17 5 22 -3 6 -9 10 -9 17 2 6 9 15 11 27 6 11 -5 21 -9 24 -9
3 -1 15 -7 26 -14 18 -9 24 -9 35 5 12 14 12 16 -1 11 -9 -3 -23 5 -34 20 -11
14 -14 22 -8 18 7 -4 2 8 -12 28 -16 24 -22 44 -18 62 3 19 2 25 -7 19 -7 -4
-10 -13 -7 -21 3 -8 -1 -14 -9 -14 -8 0 -14 3 -14 8 6 34 -16 43 -36 15 -12
-16 -13 -15 -8 9 4 20 9 25 26 21 13 -3 18 -1 11 4 -19 14 -28 74 -13 85 10 6
7 8 -10 6 -14 -2 -26 3 -29 11 -2 8 0 11 5 8 5 -3 10 0 10 8 0 8 -4 12 -9 9
-4 -3 -8 0 -8 6 0 6 -6 8 -12 5 -7 -4 -4 1 7 9 11 9 25 14 31 12 21 -8 27 27
8 41 -14 10 -15 13 -3 14 8 0 4 4 -9 10 -13 5 -21 13 -18 18 3 5 -2 12 -12 16
-14 7 -13 9 8 14 14 4 37 1 53 -7 21 -11 31 -11 42 -2 8 6 20 9 27 5 7 -4 6
-1 -2 7 -8 7 -16 27 -17 43 l-1 30 13 -30 c11 -25 15 -27 20 -13 4 9 4 21 1
26 -3 5 5 8 17 7 12 -1 28 5 35 14 8 9 11 11 8 4 -4 -7 1 -11 14 -10 18 1 25
15 21 40 -2 14 17 7 23 -9 4 -10 2 -13 -7 -8 -9 5 -9 4 0 -6 13 -15 36 -4 27
13 -5 9 -3 8 6 0 11 -10 17 -10 29 0 14 11 14 10 2 -6 -12 -15 -12 -17 3 -11
18 7 21 -7 5 -23 -8 -8 -7 -13 2 -18 8 -6 10 -4 4 5 -5 9 -4 11 3 6 7 -4 12
-14 12 -22 0 -8 5 -14 10 -14 14 0 13 43 -2 58 -9 9 -8 12 5 12 19 0 24 20 5
20 -7 0 -5 5 5 11 13 8 23 7 35 -3 15 -12 16 -11 3 5 -7 9 -10 17 -5 17 4 0 3
5 -4 12 -7 7 -12 26 -13 43 -1 30 -1 30 -11 -7 -9 -33 -12 -36 -33 -28 -13 5
-26 6 -31 2 -4 -4 -5 0 -1 9 4 12 0 16 -16 15 -12 -1 -24 1 -27 5 -10 13 -53
14 -58 1 -2 -7 2 -11 10 -10 8 2 12 -4 10 -17 -5 -27 -10 -31 -24 -17 -9 9 -9
12 2 12 8 0 6 6 -7 18 -11 9 -18 24 -15 32 5 16 4 15 -18 -14 -10 -13 -10 -17
-2 -12 6 4 12 2 12 -3 0 -6 -6 -11 -12 -11 -9 0 -8 -4 2 -10 12 -8 10 -10 -8
-10 -13 0 -20 4 -17 10 3 6 -1 7 -9 4 -19 -7 -19 -4 -6 30 9 24 8 25 -18 14
-15 -7 -32 -16 -39 -20 -6 -5 -13 -4 -15 3 -2 7 -10 9 -17 5 -7 -5 -10 -13 -8
-20 3 -7 -6 -13 -24 -14 -16 -1 -29 3 -29 8 0 6 4 9 9 5 18 -10 24 18 7 30
-14 11 -13 13 10 13 14 0 31 5 37 12 9 9 7 11 -8 8 -15 -2 -21 3 -23 22 -3 20
-1 22 9 13 9 -9 16 -7 30 10 14 16 18 18 13 5 -7 -21 20 -26 32 -6 4 7 3 8 -4
4 -7 -4 -12 -1 -12 8 0 8 -6 16 -12 19 -23 7 45 34 127 51 132 27 325 21 455
-14 23 -6 44 -9 46 -7 13 12 -269 60 -326 56 -8 -1 -51 -5 -95 -10z m132
-1283 c-4 -9 2 -17 14 -21 10 -4 19 -13 19 -21 0 -8 5 -14 10 -14 6 0 9 -5 8
-11 -3 -10 10 -15 60 -21 12 -1 15 -6 15 -33 0 -35 -3 -40 -14 -25 -8 11 -12
12 -16 2 -2 -6 -8 -10 -13 -7 -4 3 -13 -2 -20 -10 -14 -17 -45 -21 -35 -5 3 6
-5 14 -19 20 -29 11 -46 36 -46 70 0 5 -12 21 -27 35 -15 14 -22 25 -15 25 6
0 12 -4 12 -9 0 -19 39 -6 51 16 14 25 24 31 16 9z m618 -295 c-6 -30 15 -58
35 -46 17 11 11 -1 -12 -21 -12 -10 -19 -14 -15 -9 3 6 2 17 -4 25 -7 12 -9
10 -9 -7 0 -16 -4 -21 -15 -17 -8 4 -15 12 -15 20 0 8 -4 14 -10 14 -13 0 -13
-27 1 -35 6 -4 8 -13 5 -21 -3 -8 -1 -14 4 -14 6 0 10 5 10 10 0 6 4 10 10 10
5 0 7 -7 4 -15 -4 -8 -13 -15 -21 -15 -8 0 -12 -4 -9 -8 3 -5 -4 -16 -15 -25
-11 -10 -17 -22 -14 -27 12 -19 -27 -10 -43 10 -15 17 -22 18 -57 10 -63 -15
-74 -11 -28 11 40 18 77 59 53 59 -5 0 -10 4 -10 8 0 5 15 8 34 8 28 -1 32 -3
23 -18 -6 -9 -15 -15 -19 -12 -4 3 -5 -2 -2 -9 7 -19 37 -27 57 -15 13 7 14
14 6 36 -14 36 -39 63 -53 56 -6 -3 -4 0 4 8 9 7 15 22 15 32 0 11 7 21 15 23
12 4 12 3 2 -5 -11 -7 -8 -11 10 -16 22 -7 22 -8 3 -15 -18 -7 -17 -8 7 -13
18 -3 28 0 32 11 3 9 9 22 12 30 5 9 3 11 -6 6 -9 -5 -11 -4 -6 4 13 20 27 0
21 -28z"/>
</g>
</svg>
