<?xml version="1.0" standalone="no"?>
<!DOCTYPE svg PUBLIC "-//W3C//DTD SVG 20010904//EN"
 "http://www.w3.org/TR/2001/REC-SVG-20010904/DTD/svg10.dtd">
<svg version="1.0" xmlns="http://www.w3.org/2000/svg"
 width="577.000000pt" height="433.000000pt" viewBox="0 0 577.000000 433.000000"
 preserveAspectRatio="xMidYMid meet">
<metadata>
Created by potrace 1.16, written by Peter Selinger 2001-2019
</metadata>
<g transform="translate(0.000000,433.000000) scale(0.100000,-0.100000)"
fill="#000000" stroke="none">
<path d="M3394 3499 c-197 -19 -365 -62 -519 -133 -206 -96 -470 -402 -570
-660 -70 -184 -90 -313 -82 -531 9 -212 42 -348 132 -527 78 -154 212 -318
362 -440 294 -240 683 -337 1053 -262 412 83 842 485 978 914 41 129 55 230
55 390 -1 260 -64 464 -211 685 -155 233 -383 409 -652 503 -149 52 -378 78
-546 61z m-611 -455 c9 -4 17 -16 17 -27 0 -11 -3 -17 -7 -14 -12 12 -33 -15
-33 -42 1 -22 2 -24 11 -8 5 9 7 22 3 28 -4 8 1 9 15 4 17 -5 21 -2 22 17 1
17 3 15 9 -10 4 -18 14 -41 21 -50 8 -10 3 -7 -10 8 l-24 25 6 -34 c6 -28 5
-32 -7 -22 -11 9 -16 9 -22 0 -4 -8 -3 -9 4 -5 7 4 12 1 12 -9 0 -24 -33 -14
-46 15 -11 24 -12 24 -19 5 -3 -11 -13 -31 -20 -45 -10 -18 -10 -31 -3 -44 7
-12 7 -21 -1 -29 -14 -14 -14 -37 -1 -37 6 0 10 9 10 19 0 10 7 21 15 25 18 7
20 -15 3 -33 -10 -11 -10 -13 0 -7 7 4 12 2 12 -6 0 -11 2 -11 9 0 6 10 10 10
21 -3 7 -8 19 -15 26 -15 8 0 14 -4 14 -10 0 -13 -17 -13 -25 1 -4 6 -14 8
-22 5 -9 -4 -21 -2 -28 4 -11 9 -12 6 -8 -12 5 -23 5 -23 -10 -3 -16 19 -16
18 -7 -12 11 -41 19 -55 42 -71 10 -7 18 -20 18 -29 0 -12 -3 -13 -13 -4 -11
8 -13 4 -9 -22 3 -17 1 -29 -3 -25 -5 5 -14 -1 -22 -12 -7 -10 -20 -17 -27
-14 -9 4 -16 -3 -18 -18 -2 -13 -9 -22 -17 -20 -9 2 -12 -4 -8 -17 3 -11 -1
-28 -9 -38 -18 -25 -17 -41 4 -46 10 -3 6 -5 -10 -6 -16 0 -28 -6 -28 -12 0
-5 -4 -7 -10 -4 -5 3 -10 -1 -10 -9 0 -21 61 -12 74 11 9 16 10 16 18 -2 7
-16 7 -14 3 6 -3 17 1 31 10 39 8 7 12 16 9 21 -3 5 0 9 5 9 6 0 11 -5 11 -11
0 -5 5 -7 11 -4 6 4 9 0 7 -11 -2 -11 2 -18 9 -17 7 2 10 -4 6 -13 -3 -8 -11
-13 -18 -10 -8 3 -11 -2 -8 -15 3 -10 0 -19 -6 -19 -6 0 -11 -6 -11 -13 0 -17
42 -16 53 1 7 11 12 11 25 0 11 -8 10 -5 -3 11 -18 22 -18 24 -2 18 10 -4 16
-3 13 2 -8 12 12 26 57 40 20 7 37 19 37 27 0 8 6 14 14 14 8 0 17 7 20 16 3
8 10 13 15 10 12 -8 34 20 29 36 -2 6 3 20 11 31 18 21 57 45 47 29 -3 -6 0
-13 6 -16 10 -5 10 -7 1 -12 -7 -3 -13 -12 -13 -19 0 -8 -5 -17 -11 -21 -9 -5
-10 1 -5 22 7 27 6 28 -7 9 -21 -30 -27 -54 -17 -60 6 -4 10 -1 10 4 0 6 7 11
15 11 9 0 15 -9 15 -21 0 -28 23 -19 31 12 l7 24 1 -24 c1 -23 2 -23 19 -8 17
15 18 15 19 -3 1 -11 -2 -20 -7 -20 -5 0 -7 -6 -4 -14 6 -16 -21 -46 -43 -46
-12 0 -13 3 -4 14 9 11 6 17 -14 30 -17 11 -24 12 -23 4 2 -7 -2 -12 -9 -13
-6 0 -21 -10 -32 -22 -17 -17 -21 -36 -21 -85 0 -35 -5 -70 -11 -78 -9 -12
-10 -12 -5 3 4 12 2 17 -6 14 -7 -2 -12 -10 -11 -16 2 -6 -2 -11 -7 -11 -6 0
-11 10 -11 23 -1 12 -2 27 -4 32 -1 6 -3 14 -3 19 -1 6 -8 1 -16 -10 -9 -12
-11 -21 -4 -25 5 -4 3 -9 -7 -12 -9 -4 -13 -3 -10 3 3 6 -1 10 -10 10 -12 0
-15 -6 -10 -22 5 -20 5 -21 -5 -5 -7 11 -18 16 -30 12 -21 -7 -22 17 -2 37 7
7 12 17 12 22 0 6 -7 3 -15 -8 -8 -10 -19 -15 -26 -10 -7 4 -10 3 -5 -4 3 -6
2 -13 -4 -17 -5 -3 -10 -1 -10 4 0 6 -5 11 -11 11 -5 0 -7 -4 -4 -10 3 -5 1
-10 -4 -10 -6 0 -11 -4 -11 -9 0 -4 11 -6 25 -3 27 5 35 -12 9 -22 -8 -3 -12
-2 -9 4 3 6 2 10 -4 10 -5 0 -12 -4 -16 -9 -3 -6 -17 -6 -34 -1 -16 4 -33 5
-38 2 -4 -4 -5 -3 -1 2 8 10 -15 36 -32 36 -8 0 -9 -7 -5 -17 4 -10 10 -24 13
-32 4 -11 1 -13 -14 -7 -13 5 -16 4 -9 -3 7 -7 22 -8 42 -2 36 10 48 4 32 -16
-9 -10 -8 -13 3 -13 7 0 26 -14 41 -31 30 -35 32 -40 15 -36 -8 1 -13 -9 -14
-23 0 -27 -14 -28 -48 -4 -20 14 -20 14 5 14 15 0 26 6 26 13 0 8 -12 14 -29
14 -15 0 -28 -4 -28 -9 0 -4 -5 -7 -11 -5 -6 1 -13 -6 -14 -16 -2 -11 -6 -21
-9 -24 -3 -3 1 -12 9 -19 16 -16 61 -19 70 -4 4 7 14 6 28 -1 12 -7 18 -8 14
-3 -4 5 18 18 50 31 57 22 58 22 21 22 -37 1 -60 18 -40 30 5 3 11 14 13 24 4
17 5 17 28 1 23 -16 23 -18 6 -31 -22 -16 -12 -17 16 -2 11 5 17 14 14 20 -4
5 2 9 11 9 16 0 16 1 -1 20 -24 26 -5 26 50 -1 22 -11 30 -17 18 -15 -13 2
-23 0 -23 -5 0 -5 5 -9 10 -9 18 0 11 -30 -7 -30 -14 -1 -12 -4 7 -15 32 -18
51 -19 44 -1 -3 8 0 17 7 22 9 5 10 2 6 -10 -6 -16 -3 -17 20 -11 23 6 25 4
13 -10 -7 -9 -19 -14 -26 -11 -7 3 -16 1 -19 -4 -5 -9 15 -15 38 -11 4 0 7 -2
7 -7 0 -4 25 -7 55 -6 30 0 55 -2 55 -6 0 -4 8 -6 18 -5 26 3 52 16 48 24 -3
4 4 7 15 7 22 0 25 -11 7 -20 -10 -5 -10 -7 0 -12 7 -3 18 -12 26 -19 7 -8 16
-11 20 -8 3 4 6 3 6 -1 0 -4 -15 -13 -32 -21 -19 -8 -25 -14 -16 -15 11 0 15
-5 12 -15 -5 -11 -10 -13 -19 -5 -9 8 -14 6 -19 -5 -4 -11 2 -15 27 -15 27 -1
29 -2 14 -11 -10 -6 -27 -9 -38 -6 -10 3 -19 1 -19 -4 0 -5 -4 -9 -10 -9 -5 0
-6 8 -3 17 5 13 2 15 -11 10 -10 -4 -29 -10 -42 -13 -13 -3 -21 -10 -19 -15 3
-5 -7 -11 -22 -15 -15 -3 -39 -13 -52 -21 -41 -26 -75 -32 -96 -17 -10 8 -33
14 -49 13 -31 -1 -112 -27 -89 -28 7 -1 10 -8 6 -16 -4 -12 0 -15 20 -11 17 3
27 -1 32 -12 5 -13 8 -13 14 -4 5 9 8 2 9 -17 0 -17 -4 -31 -9 -31 -5 0 -8 5
-6 12 2 13 -51 19 -59 7 -3 -5 6 -14 20 -21 26 -11 35 -28 16 -28 -5 0 -10 5
-10 10 0 6 -6 10 -12 10 -7 -1 -3 -9 10 -20 13 -10 30 -16 38 -13 9 3 14 0 12
-8 -2 -7 2 -13 7 -14 6 0 15 -4 21 -8 7 -3 32 0 58 7 25 8 44 10 41 5 -3 -4
11 -1 31 7 25 10 33 11 28 3 -5 -9 -2 -10 9 -6 10 3 17 2 17 -4 0 -6 5 -7 10
-4 6 4 8 11 5 16 -4 5 9 9 28 9 19 0 40 7 47 15 8 10 21 13 33 9 13 -4 17 -2
13 5 -4 6 -2 11 3 11 20 0 11 -20 -11 -30 -21 -8 -19 -9 12 -10 29 0 32 -2 17
-11 -9 -5 -21 -8 -26 -4 -5 3 -12 1 -16 -5 -3 -5 -22 -10 -41 -10 -25 0 -33
-4 -28 -12 5 -10 4 -10 -6 -1 -10 9 -17 10 -27 2 -7 -7 -13 -8 -13 -5 0 4 -10
2 -21 -5 -15 -8 -19 -8 -15 0 9 14 -4 14 -24 1 -12 -8 -13 -11 -1 -19 9 -6 10
-11 3 -15 -6 -4 -8 -14 -5 -22 3 -9 9 -11 12 -6 10 15 55 22 71 11 11 -8 9 -9
-9 -4 -17 5 -22 4 -16 -5 5 -8 4 -11 -3 -7 -6 5 -8 -1 -5 -14 3 -11 11 -18 18
-15 8 3 16 -1 18 -8 4 -9 -7 -16 -33 -20 -21 -3 -41 -12 -44 -18 -5 -10 -7
-10 -12 0 -7 15 -44 16 -44 1 0 -5 -4 -7 -10 -4 -5 3 -10 15 -10 26 0 10 5 19
10 19 6 0 10 7 10 15 0 12 -4 13 -19 5 -16 -8 -18 -15 -11 -39 8 -28 0 -53
-16 -52 -5 1 -9 -3 -9 -8 0 -14 -15 -26 -33 -26 -9 0 -16 -6 -14 -13 1 -6 -1
-11 -5 -11 -20 3 -24 -2 -13 -16 10 -12 8 -16 -11 -24 -13 -5 -18 -10 -11 -10
7 -1 20 -7 28 -15 16 -16 19 -30 5 -21 -5 3 -13 0 -17 -6 -4 -7 -3 -9 3 -6 6
4 16 0 23 -8 11 -13 52 -35 120 -63 24 -10 24 -11 -10 -12 -19 -1 -29 -4 -22
-7 6 -2 10 -9 6 -14 -3 -5 -1 -9 5 -9 16 0 73 -59 66 -70 -7 -11 45 -40 72
-40 10 -1 32 -7 48 -14 28 -13 27 -13 -37 -12 -36 0 -64 4 -61 9 7 12 -12 8
-26 -5 -11 -11 -12 -10 -6 0 4 9 2 12 -6 10 -51 -11 -266 137 -385 265 -160
172 -261 365 -315 607 -19 86 -23 132 -23 260 0 162 16 259 66 405 29 83 87
197 98 190 5 -3 12 0 15 5 5 7 12 5 21 -7 13 -17 14 -17 7 1 -4 14 -3 17 6 12
8 -5 16 3 23 22 11 28 13 29 25 14 11 -15 12 -14 11 10 -1 15 -6 24 -10 22 -4
-3 -8 -1 -8 5 0 13 19 18 46 13 16 -3 21 -9 17 -21 -5 -13 -3 -14 8 -3 16 14
53 16 44 2 -3 -5 -4 -10 -1 -10 3 0 10 9 16 20 9 16 8 19 -6 13 -12 -5 -15 -3
-9 6 5 10 2 11 -13 7 -23 -8 -40 21 -17 30 8 3 17 14 20 25 4 10 15 19 25 19
10 0 22 9 25 20 4 11 11 18 16 15 5 -4 9 -2 9 4 0 9 14 6 73 -15z m451 -1438
c-4 -11 0 -13 18 -9 13 3 20 3 17 0 -3 -4 -14 -8 -25 -10 -51 -9 -103 -31
-108 -46 -3 -9 -9 -23 -12 -31 -4 -8 2 -5 12 8 l19 22 12 -26 c11 -23 10 -27
-7 -31 -23 -6 -27 -23 -6 -23 8 0 16 -6 19 -12 4 -10 7 -10 18 0 8 8 9 12 2
12 -7 0 -10 11 -7 27 7 36 14 45 30 39 8 -3 14 0 14 6 0 6 3 9 6 6 8 -9 -15
-50 -25 -44 -11 7 -10 -26 1 -40 5 -8 2 -18 -8 -29 -14 -14 -15 -18 -3 -25 11
-7 10 -10 -4 -16 -9 -3 -24 -4 -32 0 -8 3 -15 2 -15 -2 0 -4 -10 -8 -22 -8
-13 -1 -38 -7 -56 -15 -28 -12 -36 -11 -65 3 -17 10 -45 19 -62 21 -29 4 -29
4 5 6 29 2 32 4 15 11 -19 8 -19 9 3 9 12 1 34 8 47 17 13 9 28 13 34 10 5 -3
12 0 14 6 4 9 6 9 6 1 1 -6 -6 -19 -15 -27 -13 -14 -14 -16 0 -16 8 0 17 4 21
10 3 5 12 7 20 3 10 -3 15 1 15 12 0 9 4 14 9 11 5 -4 17 -3 26 0 13 5 10 10
-15 25 -31 19 -58 27 -30 9 12 -8 11 -10 -7 -10 -17 0 -21 4 -16 18 6 16 5 16
-13 1 -31 -26 -51 -34 -26 -10 12 12 22 28 22 36 0 8 7 15 16 15 8 0 12 4 9
10 -3 5 6 13 22 16 26 7 26 7 5 15 -12 5 -22 14 -22 20 0 8 4 9 13 0 10 -8 23
-6 52 8 22 10 44 17 51 14 7 -2 15 0 19 6 9 16 15 13 9 -3z"/>
<path d="M2648 2019 c-16 -12 -25 -26 -21 -34 3 -8 9 -12 14 -9 5 3 7 9 5 13
-3 4 2 8 10 8 9 0 11 -4 5 -10 -5 -5 -4 -19 4 -34 8 -14 11 -31 9 -38 -3 -7 2
-15 10 -18 10 -4 14 0 11 14 -4 21 -3 21 90 24 57 2 151 22 112 24 -10 1 -15
6 -12 11 3 6 0 10 -7 10 -8 0 -5 5 5 11 17 10 30 14 62 19 6 1 -3 6 -19 10
-21 7 -32 5 -40 -4 -13 -16 -80 -31 -71 -16 9 15 -2 12 -19 -6 -9 -8 -16 -11
-16 -5 0 6 -7 8 -15 5 -8 -4 -15 -1 -15 5 0 6 5 11 12 11 9 0 9 3 0 12 -21 21
-85 20 -114 -3z"/>
</g>
</svg>
