<?xml version="1.0" standalone="no"?>
<!DOCTYPE svg PUBLIC "-//W3C//DTD SVG 20010904//EN"
 "http://www.w3.org/TR/2001/REC-SVG-20010904/DTD/svg10.dtd">
<svg version="1.0" xmlns="http://www.w3.org/2000/svg"
 width="666.000000pt" height="375.000000pt" viewBox="0 0 666.000000 375.000000"
 preserveAspectRatio="xMidYMid meet">
<metadata>
Created by potrace 1.16, written by Peter Selinger 2001-2019
</metadata>
<g transform="translate(0.000000,375.000000) scale(0.100000,-0.100000)"
fill="#000000" stroke="none">
<path d="M4480 2894 c-151 -27 -324 -92 -451 -170 -33 -19 -57 -40 -54 -45 4
-5 0 -6 -7 -4 -7 3 -29 -9 -48 -26 -19 -16 -28 -27 -20 -23 18 10 -29 -45
-102 -118 -107 -108 -211 -309 -263 -512 -19 -76 -35 -140 -35 -142 0 -2 9 1
21 8 18 11 23 10 40 -11 26 -31 17 -39 -12 -10 -22 22 -23 22 -29 3 -4 -10 -1
-24 7 -32 17 -18 17 -26 -2 -18 -8 3 -15 1 -15 -5 0 -6 -7 -8 -16 -5 -12 4
-15 2 -10 -9 3 -8 1 -15 -5 -15 -7 0 -10 -16 -7 -40 2 -22 0 -40 -4 -40 -5 0
-8 -51 -8 -112 0 -129 33 -317 58 -332 11 -6 11 -10 2 -16 -9 -5 -7 -26 8 -86
11 -43 22 -88 26 -99 18 -50 -37 58 -64 129 -57 145 -74 248 -75 459 0 127 -3
175 -8 145 -14 -75 -1 -354 22 -443 38 -153 121 -352 141 -340 6 4 7 -1 3 -11
-5 -13 -3 -15 7 -9 9 6 11 4 6 -4 -17 -27 134 -219 257 -328 245 -215 531
-323 857 -323 344 0 652 125 900 366 276 268 414 611 396 989 -9 209 -50 363
-143 542 -160 308 -470 562 -797 653 -175 50 -414 64 -576 34z"/>
</g>
</svg>
