<?xml version="1.0" standalone="no"?>
<!DOCTYPE svg PUBLIC "-//W3C//DTD SVG 20010904//EN"
 "http://www.w3.org/TR/2001/REC-SVG-20010904/DTD/svg10.dtd">
<svg version="1.0" xmlns="http://www.w3.org/2000/svg"
 width="495.000000pt" height="504.000000pt" viewBox="0 0 495.000000 504.000000"
 preserveAspectRatio="xMidYMid meet">
<metadata>
Created by potrace 1.16, written by Peter Selinger 2001-2019
</metadata>
<g transform="translate(0.000000,504.000000) scale(0.100000,-0.100000)"
fill="#000000" stroke="none">
<path d="M2197 4645 c-462 -66 -909 -295 -1222 -627 -89 -95 -196 -231 -228
-290 -17 -32 -17 -32 0 -8 281 390 560 616 963 783 241 99 491 146 783 146 86
0 155 -4 152 -9 -3 -5 -13 -9 -23 -9 -35 0 -97 -13 -107 -23 -7 -6 -3 -14 9
-24 11 -8 14 -14 7 -14 -7 0 -9 -5 -6 -11 5 -7 71 -9 209 -5 195 5 276 -2 276
-24 0 -6 -6 -10 -13 -10 -7 0 -30 -9 -52 -20 -22 -11 -46 -20 -55 -20 -12 0
-12 -2 -1 -9 11 -7 10 -11 -5 -20 -16 -10 -13 -11 16 -5 19 3 47 13 62 20 15
8 35 14 44 14 16 0 16 -2 -1 -20 -14 -16 -15 -19 -4 -15 10 4 16 0 16 -9 0
-10 -19 -22 -49 -32 -49 -16 -72 -34 -43 -34 9 0 14 -4 11 -9 -3 -5 1 -11 9
-15 8 -3 15 -12 15 -21 0 -20 5 -19 40 5 17 11 43 29 60 40 56 38 120 23 170
-39 37 -48 35 -76 -4 -61 -14 5 -28 5 -31 0 -3 -4 0 -10 7 -12 14 -5 -30 -58
-48 -58 -7 0 -16 -4 -19 -10 -7 -11 23 -2 42 12 7 6 17 7 22 4 15 -9 2 -34
-20 -41 -11 -4 -17 -11 -14 -16 7 -10 -44 -33 -53 -24 -3 2 -11 0 -19 -6 -7
-6 -13 -9 -13 -5 0 3 -9 -3 -21 -15 -16 -16 -23 -18 -35 -8 -11 9 -14 7 -14
-11 0 -17 -4 -21 -20 -17 -11 3 -20 1 -20 -4 0 -6 -12 -21 -27 -35 -26 -24
-26 -25 -7 -39 10 -8 24 -15 30 -15 7 0 14 -7 18 -15 3 -8 12 -15 21 -15 8 0
15 -5 15 -11 0 -7 -12 -8 -32 -4 -27 6 -31 5 -20 -6 18 -19 15 -36 -8 -42 -11
-3 -20 -12 -20 -21 0 -9 -4 -16 -10 -16 -5 0 -10 -7 -10 -15 0 -9 -9 -15 -25
-15 -14 0 -29 -8 -36 -21 -9 -18 -8 -20 9 -15 15 5 21 1 24 -19 6 -31 -8 -32
-57 -5 -19 11 -39 19 -43 19 -19 -3 -22 3 -12 21 9 16 8 20 -5 20 -13 0 -15 6
-10 28 7 34 -18 63 -37 44 -7 -7 -23 -12 -36 -12 -13 0 -37 -9 -52 -20 -31
-22 -45 -14 -45 25 0 11 -4 19 -10 19 -5 -1 -30 -5 -55 -9 -37 -6 -43 -5 -32
6 21 22 13 32 -19 25 -25 -5 -39 -1 -65 19 -18 13 -47 26 -65 27 -29 3 -34 0
-35 -19 -2 -36 -21 -51 -74 -58 -27 -4 -51 -13 -54 -21 -3 -8 -10 -14 -17 -14
-6 0 -9 6 -6 14 4 9 0 12 -11 9 -9 -2 -26 3 -37 11 l-20 15 20 2 c11 1 24 1
29 0 18 -3 56 30 56 49 0 29 -23 25 -60 -10 -18 -16 -43 -30 -56 -30 -15 0
-24 -6 -24 -15 0 -8 6 -15 13 -15 8 0 22 -8 31 -19 16 -17 16 -19 0 -25 -10
-4 -21 -1 -25 5 -4 6 -12 9 -18 5 -7 -4 -9 -1 -5 8 4 12 -1 14 -27 11 -35 -5
-57 -20 -45 -32 4 -4 15 -2 26 4 25 17 48 -8 25 -27 -12 -10 -13 -16 -4 -26 9
-11 8 -15 -4 -20 -22 -8 -43 6 -26 17 10 6 7 9 -11 10 -14 1 -28 1 -32 0 -5 0
-8 4 -8 11 0 8 -6 7 -16 -4 -18 -17 -11 -38 12 -38 8 0 14 -4 14 -10 0 -5 -11
-10 -24 -10 -35 0 -85 -20 -82 -33 1 -7 1 -9 -1 -4 -3 4 -16 7 -29 7 -14 0
-34 5 -45 11 -15 8 -25 6 -46 -11 -16 -12 -38 -20 -54 -18 -16 1 -36 -5 -48
-16 -18 -16 -21 -17 -26 -3 -4 8 -16 18 -28 21 -22 5 -22 6 3 22 14 10 27 19
29 21 3 2 -4 9 -14 17 -19 14 -13 36 11 36 8 0 23 6 34 12 16 10 24 10 40 0
29 -18 38 -15 72 21 17 17 28 26 24 20 -4 -7 -2 -13 4 -13 7 0 10 -7 6 -15 -8
-22 2 -18 29 11 13 14 32 27 42 28 25 4 28 38 4 53 -21 13 -60 5 -111 -22 -14
-7 -45 -18 -70 -25 -25 -6 -59 -18 -76 -25 -17 -8 -40 -16 -50 -18 -33 -7 -54
-19 -54 -32 0 -7 -19 -17 -42 -23 -55 -14 -107 -23 -90 -16 6 3 12 12 12 19 0
8 7 21 16 30 15 15 15 17 -2 30 -11 8 -25 15 -31 15 -21 0 -15 18 12 36 14 9
25 22 25 29 0 6 9 20 20 30 25 22 26 61 3 74 -12 7 -13 10 -4 11 8 0 11 6 7
16 -4 9 5 24 22 39 15 14 21 25 15 25 -7 0 -13 6 -13 14 0 17 49 16 68 -1 11
-10 19 -10 43 2 26 14 31 14 53 0 23 -15 27 -15 53 2 15 9 30 20 33 24 3 3 21
6 40 5 30 -1 35 -4 34 -24 0 -12 4 -21 10 -19 6 2 10 12 10 21 -1 9 2 16 7 16
5 0 9 11 9 25 0 22 -3 24 -30 19 -23 -5 -30 -3 -30 10 0 8 -11 18 -25 22 -13
3 -29 12 -36 20 -9 11 -5 17 20 31 45 26 38 37 -18 30 -56 -7 -67 -1 -44 21
15 15 14 17 -8 22 -13 4 -26 4 -29 1 -3 -4 -22 -19 -43 -34 -20 -16 -35 -32
-32 -37 2 -4 -3 -14 -13 -21 -15 -13 -16 -12 -3 4 12 15 10 17 -23 17 -36 0
-70 -17 -112 -55 -12 -11 -38 -31 -58 -45 -20 -14 -56 -39 -80 -57 -23 -17
-59 -38 -79 -47 -36 -15 -37 -14 -27 4 16 30 1 24 -46 -20 -24 -22 -48 -40
-53 -40 -5 0 -33 -33 -62 -72 -29 -40 -61 -82 -72 -93 -36 -38 -107 -156 -101
-167 4 -6 2 -8 -4 -4 -22 13 -19 -10 3 -26 20 -15 25 -16 35 -3 7 8 21 15 31
15 18 0 18 -1 -1 -33 -23 -39 -70 -85 -70 -69 0 6 5 14 10 17 6 3 10 16 10 27
0 21 -1 21 -28 -5 -16 -15 -36 -51 -45 -81 -18 -57 -22 -87 -6 -47 5 13 12 21
16 18 6 -6 -16 -67 -24 -67 -11 0 -31 28 -25 35 4 4 8 19 8 33 1 15 5 38 8 52
6 23 6 23 -6 7 -45 -64 -80 -126 -85 -149 -3 -16 -9 -28 -14 -28 -5 0 -9 -9
-9 -21 0 -12 4 -17 11 -13 8 4 9 -4 4 -27 -4 -19 -8 -38 -9 -44 0 -5 -4 -12
-7 -15 -10 -9 -49 -120 -49 -141 0 -11 -16 -35 -35 -53 -19 -18 -36 -42 -38
-52 -1 -10 -7 -26 -12 -34 -5 -8 -10 -19 -11 -25 -22 -134 -34 -243 -34 -311
0 -73 2 -85 15 -80 8 3 15 1 15 -5 0 -6 4 -8 9 -4 6 3 12 -12 14 -32 2 -27 4
-20 5 23 1 33 -2 64 -8 70 -5 5 -13 44 -16 86 -6 66 -4 82 15 118 11 22 21 45
21 51 0 5 7 26 16 47 l17 37 8 -45 c5 -25 19 -77 31 -116 19 -64 25 -72 47
-72 14 -1 33 -2 43 -2 15 -1 48 -78 48 -113 0 -8 7 -20 15 -27 13 -11 14 -10
10 2 -3 8 3 25 13 38 l19 23 16 -33 c10 -18 17 -39 17 -47 0 -7 5 -13 10 -13
6 0 10 15 10 34 0 38 16 57 23 29 3 -10 5 -5 6 13 1 37 17 54 52 54 15 0 29 7
33 16 4 10 13 13 25 9 14 -4 20 0 24 17 4 12 2 27 -4 33 -7 7 -8 4 -4 -7 4
-11 2 -18 -4 -18 -15 0 -14 37 2 43 9 3 7 10 -6 25 -23 25 -15 82 11 83 11 0
12 2 5 6 -7 2 -13 16 -13 29 0 14 -6 27 -14 30 -17 6 -31 88 -27 154 5 78 7
90 18 101 14 14 36 2 26 -14 -4 -7 0 -6 10 2 9 7 17 27 17 43 0 25 2 28 14 19
10 -8 16 -9 21 -2 3 6 16 10 28 10 12 -1 37 4 54 9 23 7 35 7 39 0 4 -6 9 -5
15 3 4 7 10 11 14 8 3 -3 -6 -18 -20 -33 -14 -15 -25 -33 -25 -40 0 -7 -9 -25
-21 -40 -17 -22 -18 -25 -3 -19 14 5 16 3 11 -11 -4 -10 -7 -22 -7 -27 0 -6
-4 -7 -10 -4 -5 3 -10 1 -10 -4 0 -18 40 -12 47 6 11 28 42 53 58 47 10 -4 15
0 15 15 0 41 16 20 35 -44 10 -36 22 -65 26 -65 5 0 6 -13 3 -29 -5 -23 -2
-32 16 -41 12 -6 24 -9 28 -6 3 3 13 -1 22 -9 14 -13 19 -13 35 -1 20 14 12
41 -11 32 -7 -3 -16 -1 -19 4 -3 5 -12 7 -19 4 -20 -8 -29 26 -12 45 8 9 18
28 21 44 4 15 13 27 21 27 8 0 14 7 14 15 0 8 -4 15 -10 15 -5 0 -10 7 -10 16
0 8 -5 12 -10 9 -6 -3 -15 6 -20 20 -6 15 -16 25 -23 22 -7 -3 -13 5 -13 20
-2 19 1 22 12 12 11 -9 14 -8 14 5 0 9 4 16 8 16 10 0 37 51 34 63 -3 10 16
30 42 44 23 12 50 -10 59 -50 12 -47 -25 -205 -56 -238 -15 -16 -17 -28 -12
-57 l7 -37 21 42 c12 24 29 45 38 48 10 4 15 13 12 23 -6 25 14 72 31 72 7 0
16 -10 20 -22 5 -22 6 -22 20 -3 9 11 16 25 16 31 0 16 24 24 39 14 9 -5 10
-10 2 -14 -6 -4 -11 -19 -11 -33 0 -14 -8 -32 -17 -39 -15 -11 -15 -13 -3 -14
9 0 23 -9 33 -20 17 -21 34 -24 61 -14 13 5 15 14 10 43 -4 20 -11 39 -17 42
-5 4 -7 15 -2 25 7 18 7 18 14 0 5 -14 10 -16 15 -8 10 17 39 15 33 -1 -3 -8
-1 -20 4 -28 9 -14 9 -14 13 39 1 17 43 52 61 52 8 0 16 -9 20 -19 3 -11 15
-21 26 -23 18 -3 31 -19 61 -80 12 -27 10 -36 -13 -48 -15 -9 -24 -8 -35 1
-11 9 -19 6 -39 -15 -14 -15 -23 -31 -20 -36 7 -11 75 14 102 38 13 12 38 26
57 33 25 9 32 17 28 31 -5 21 11 24 27 4 9 -11 21 -11 59 -4 26 6 52 14 58 19
6 5 19 7 28 3 19 -7 22 17 6 46 -17 32 -2 70 28 70 14 0 33 6 41 14 9 8 31 17
49 21 30 6 32 5 32 -20 0 -14 7 -28 15 -31 8 -4 15 -14 15 -23 0 -11 9 -16 31
-17 17 -1 38 -8 47 -17 14 -15 14 -18 -3 -37 -17 -19 -17 -20 -1 -20 10 0 20
9 23 20 6 22 11 24 32 11 8 -5 12 -18 8 -30 -3 -12 -1 -19 5 -15 6 4 7 -8 3
-30 -6 -30 -4 -36 10 -36 9 0 31 11 47 25 16 14 35 22 41 18 7 -4 6 1 -2 10
-11 14 -11 17 1 17 7 0 22 -6 33 -14 28 -18 90 -27 104 -13 6 6 14 7 18 3 8
-8 -46 -55 -64 -56 -6 0 -18 -7 -27 -15 -10 -10 -17 -12 -21 -5 -4 7 -16 2
-30 -12 -40 -40 -55 -49 -66 -42 -7 4 -10 1 -7 -7 3 -8 11 -13 17 -11 6 1 11
-2 11 -8 0 -5 12 -10 26 -10 16 0 23 -4 18 -11 -4 -7 -7 -28 -8 -48 -1 -32 -4
-36 -26 -34 -19 2 -28 -4 -38 -27 -15 -33 -42 -39 -62 -15 -11 13 -10 18 6 29
36 27 4 29 -36 2 -34 -22 -41 -24 -46 -11 -4 8 -12 15 -19 15 -6 0 -20 9 -30
20 -16 18 -17 23 -4 47 8 14 22 28 32 31 12 3 16 10 12 23 -5 16 -1 19 29 19
32 0 55 14 43 26 -3 3 -25 2 -49 -3 -33 -7 -44 -14 -46 -30 -2 -14 -9 -19 -21
-16 -22 6 -43 -19 -45 -52 0 -14 -4 -25 -8 -25 -8 0 -10 8 -12 40 -1 10 -12
15 -36 16 -19 0 -42 4 -50 7 -8 4 -22 2 -30 -3 -13 -8 -13 -11 -1 -19 19 -12
5 -31 -24 -31 -13 0 -27 -4 -30 -10 -3 -5 -1 -10 5 -10 7 0 10 -7 7 -15 -4 -8
-2 -17 4 -20 5 -4 8 -1 7 5 -2 7 7 16 19 21 23 8 25 7 62 -37 16 -18 25 -124
12 -124 -5 0 -14 7 -21 15 -9 11 -16 12 -26 4 -8 -6 -26 -8 -44 -4 -24 5 -30
3 -30 -9 0 -9 12 -21 26 -27 15 -5 24 -12 21 -16 -4 -3 -2 -14 4 -24 11 -22
-1 -25 -20 -6 -17 17 -45 -20 -35 -48 4 -11 7 -35 8 -52 1 -19 6 -33 14 -33 6
0 13 -9 13 -20 1 -11 2 -23 4 -27 4 -15 17 -48 27 -70 6 -11 8 -25 5 -30 -3
-5 -2 -26 3 -46 5 -23 4 -37 -2 -37 -5 0 -7 -4 -3 -10 3 -5 12 -7 21 -3 12 4
14 0 8 -21 -6 -24 -4 -26 25 -26 17 0 31 -5 31 -11 0 -5 -4 -7 -10 -4 -5 3
-10 -1 -10 -10 0 -23 22 -13 37 16 7 13 13 18 13 12 0 -22 17 -14 24 9 7 28
-9 47 -26 30 -18 -18 -30 -14 -23 7 8 25 -4 51 -20 45 -8 -3 -14 6 -18 28 -6
38 7 58 25 40 9 -9 14 -7 24 5 9 14 15 15 26 5 22 -18 70 -11 90 13 24 28 23
48 -2 40 -15 -5 -23 0 -32 19 -15 34 -1 47 20 18 15 -19 21 -21 51 -12 19 5
38 7 44 3 6 -4 8 2 4 16 -3 14 0 24 9 28 8 3 14 11 14 18 0 19 13 25 30 15 12
-7 10 -13 -10 -34 -23 -25 -16 -38 8 -14 7 7 12 8 12 4 0 -5 7 -3 15 4 16 14
21 55 5 45 -5 -3 -10 3 -10 13 0 11 -7 22 -15 26 -8 3 -15 15 -15 26 0 11 7
20 15 20 8 0 15 -4 15 -10 0 -5 5 -10 10 -10 6 0 10 7 10 15 0 14 17 20 48 16
6 -1 12 7 12 17 0 11 7 25 16 33 13 10 17 10 25 -2 5 -8 9 -19 9 -25 0 -11 42
-54 53 -54 3 0 4 7 1 15 -4 9 1 18 10 21 22 8 30 -1 21 -23 -5 -10 -10 -26
-12 -36 -2 -10 -14 -33 -27 -50 -26 -35 -24 -57 5 -57 14 0 19 -7 19 -25 0
-14 5 -25 10 -25 6 0 10 -9 10 -19 0 -14 -5 -18 -19 -14 -16 4 -22 -3 -30 -32
-5 -20 -7 -43 -5 -50 3 -7 -4 -23 -15 -34 -18 -18 -19 -24 -9 -41 7 -11 18
-20 25 -20 8 0 13 -14 13 -35 0 -32 2 -35 23 -30 15 4 28 1 36 -8 10 -13 16
-13 42 0 17 8 33 12 37 8 4 -4 1 -10 -5 -12 -7 -3 -13 -12 -13 -21 0 -11 3
-13 8 -6 8 13 82 17 82 5 0 -5 -9 -11 -19 -14 -14 -3 -18 -11 -14 -26 6 -25
-12 -28 -25 -5 -8 14 -13 14 -32 4 -21 -11 -22 -10 -17 9 4 18 1 20 -26 16
-18 -2 -34 -4 -37 -5 -3 -1 -13 -2 -22 -1 -19 2 -31 -28 -22 -54 5 -13 4 -16
-4 -11 -24 15 -31 -5 -16 -46 20 -57 18 -64 -18 -82 -25 -13 -33 -14 -39 -4
-7 10 -11 10 -21 0 -10 -10 -10 -14 1 -22 12 -7 12 -11 2 -24 -8 -9 -12 -16
-10 -17 29 -6 62 -2 66 8 7 19 53 17 53 -2 0 -9 -8 -19 -17 -22 -10 -4 -21
-12 -26 -19 -4 -7 -14 -11 -21 -8 -8 3 -17 0 -21 -5 -3 -6 -10 -9 -14 -6 -5 2
-8 -13 -7 -34 0 -24 -6 -47 -17 -58 -21 -24 -22 -34 -2 -27 8 4 15 2 15 -3 0
-18 -22 -30 -46 -25 -21 4 -24 9 -20 28 5 18 2 24 -10 24 -10 0 -14 3 -11 6 4
4 -2 19 -13 34 -17 24 -18 29 -5 40 11 9 11 17 3 36 -6 13 -16 24 -21 24 -6 0
-7 -3 -4 -7 4 -3 0 -14 -9 -24 -9 -10 -14 -25 -11 -34 4 -9 -3 -21 -19 -32
-16 -10 -24 -23 -21 -34 3 -10 -5 -27 -19 -40 -21 -19 -22 -23 -8 -33 14 -10
13 -14 -5 -31 -13 -11 -19 -25 -16 -36 6 -19 -13 -37 -24 -23 -3 5 -25 21 -48
37 l-42 27 -21 -22 c-12 -13 -20 -17 -20 -9 0 10 -9 12 -29 8 -27 -6 -30 -3
-33 21 -2 22 -9 28 -34 30 -22 2 -31 -1 -31 -12 0 -11 7 -14 23 -10 23 6 42
-10 24 -21 -15 -9 -12 -42 5 -49 8 -3 15 -10 15 -16 0 -14 -27 -13 -37 3 -12
18 -60 47 -67 40 -12 -12 -6 -25 9 -19 8 3 15 0 15 -7 0 -22 40 -48 62 -41 16
5 20 3 15 -9 -3 -9 -1 -18 6 -21 7 -2 -1 -5 -18 -5 -23 -1 -26 -4 -17 -13 9
-9 6 -17 -15 -34 -22 -18 -25 -24 -15 -36 6 -8 9 -18 5 -21 -12 -13 -42 -7
-52 11 -9 15 -10 15 -11 1 0 -26 -49 -34 -65 -12 -11 14 -16 16 -26 5 -7 -6
-23 -12 -35 -12 -15 0 -27 -10 -36 -30 -7 -17 -18 -28 -24 -26 -16 6 -34 -14
-27 -30 3 -9 -2 -14 -15 -14 -20 0 -36 25 -26 41 3 5 12 9 20 9 8 0 14 5 14
10 0 6 -6 10 -14 8 -8 -2 -32 16 -54 40 -21 23 -47 42 -58 42 -16 0 -16 -2 -4
-10 8 -5 11 -12 7 -16 -4 -4 -12 -3 -18 3 -6 6 -18 9 -25 6 -8 -3 -22 -2 -31
3 -25 11 -57 13 -63 4 -10 -16 -61 3 -70 24 -13 34 -81 91 -90 75 -5 -7 -22
-12 -39 -12 -17 0 -31 -4 -31 -9 0 -4 5 -8 10 -8 6 0 10 -9 10 -20 0 -10 16
-32 36 -47 20 -15 46 -37 57 -47 15 -14 24 -16 36 -9 10 6 26 6 47 0 28 -9 32
-14 32 -46 0 -20 3 -48 7 -63 6 -24 4 -28 -14 -28 -12 0 -21 -6 -21 -15 0 -18
12 -19 28 -3 16 16 28 2 13 -16 -6 -7 -14 -30 -16 -49 -4 -34 -3 -36 53 -62
44 -21 60 -25 74 -16 26 16 31 14 25 -10 -4 -17 -3 -19 6 -10 16 16 24 14 30
-8 3 -14 0 -17 -14 -14 -13 4 -19 0 -19 -11 0 -9 4 -16 10 -16 5 0 7 -7 3 -15
-6 -18 25 -45 44 -38 7 3 13 0 13 -7 0 -9 -12 -11 -41 -7 -48 6 -59 14 -39 28
12 8 11 9 -5 5 -46 -12 -75 -14 -80 -5 -4 5 -14 9 -24 9 -10 0 -30 15 -46 34
-16 19 -34 32 -41 29 -7 -3 -23 2 -36 11 -23 16 -23 16 10 12 57 -6 67 42 11
59 -25 8 -24 35 2 35 11 0 17 -4 14 -10 -3 -5 -1 -10 5 -10 6 0 10 10 8 22 -2
19 -10 22 -46 24 -24 1 -49 7 -55 14 -9 10 -9 11 0 6 6 -3 14 -2 17 3 6 10
-51 57 -101 82 l-33 17 20 -26 c11 -13 20 -30 20 -38 0 -7 5 -15 10 -17 6 -3
5 -4 -2 -3 -7 1 -18 14 -25 27 -11 22 -80 93 -93 95 -6 1 -35 12 -69 25 -29
12 -32 9 -24 -19 4 -15 20 -27 54 -39 27 -10 49 -24 49 -32 0 -9 4 -10 13 -3
6 5 21 6 31 2 14 -4 16 -9 8 -14 -7 -4 -10 -11 -7 -16 3 -5 1 -11 -4 -14 -5
-4 -12 -2 -16 4 -11 17 -25 11 -25 -11 0 -13 -4 -18 -12 -13 -7 4 -2 -5 12
-20 14 -15 39 -34 56 -41 18 -7 60 -43 95 -80 35 -36 77 -73 92 -81 16 -9 26
-21 24 -28 -6 -14 27 -37 137 -97 21 -11 51 -35 65 -52 14 -17 34 -40 44 -50
20 -20 16 -37 -5 -19 -7 6 -17 11 -23 12 -20 2 -76 40 -82 55 -10 28 -115 89
-148 87 -19 -2 -39 5 -52 17 -21 20 -98 46 -88 30 4 -5 14 -9 24 -9 18 0 41
-18 41 -32 0 -13 -28 -9 -37 5 -4 7 -21 18 -36 25 -15 7 -25 17 -22 22 3 5 0
7 -8 5 -7 -3 -22 3 -32 15 -10 11 -24 20 -32 20 -7 0 -16 7 -19 15 -4 8 -12
15 -19 15 -15 0 -115 99 -115 113 0 5 7 4 15 -3 8 -7 15 -11 16 -9 0 2 2 16 3
31 2 32 -30 54 -65 45 -22 -6 -58 25 -59 51 0 6 -7 12 -15 12 -9 0 -28 12 -42
27 -14 16 -29 27 -34 26 -4 -2 -6 3 -3 10 6 17 -28 48 -43 39 -15 -9 2 -29
176 -204 69 -71 120 -128 113 -128 -23 0 -258 245 -339 353 -92 124 -186 285
-239 410 -21 48 -39 85 -41 83 -8 -8 94 -223 152 -321 208 -349 521 -636 877
-804 159 -75 215 -95 375 -137 566 -145 1201 -41 1665 272 353 238 593 519
765 893 220 479 241 1066 56 1561 -229 613 -780 1136 -1366 1295 -197 53 -296
66 -542 70 -163 3 -259 0 -328 -10z m577 -1166 c14 -17 26 -35 26 -40 0 -5 7
-9 15 -9 9 0 18 -7 21 -15 5 -12 10 -13 20 -4 22 18 38 0 18 -22 -9 -10 -21
-16 -25 -13 -5 3 -9 0 -9 -7 0 -7 -10 -9 -25 -7 -16 4 -25 1 -25 -8 0 -15 -27
-25 -55 -19 -11 2 -33 4 -48 4 -23 1 -27 5 -22 20 3 11 -1 25 -9 33 -12 13
-11 16 5 27 11 6 24 9 29 6 14 -9 58 5 64 21 3 8 0 13 -7 11 -7 -1 -13 10 -15
26 -4 35 10 34 42 -4z m361 -9 c-8 -9 -12 -31 -11 -53 2 -20 -1 -37 -6 -37 -6
0 -8 -6 -5 -14 14 -35 -82 -68 -118 -42 -11 8 -20 20 -20 28 0 8 -10 12 -27
10 -15 -1 -29 2 -33 8 -3 5 0 10 7 10 19 0 56 42 63 73 8 31 20 34 102 33 54
-1 60 -3 48 -16z"/>
<path d="M1573 3019 c-6 -6 -9 -18 -6 -26 3 -7 -3 -23 -12 -33 -10 -11 -13
-20 -7 -20 6 0 10 -13 9 -30 -2 -23 -6 -29 -19 -24 -12 3 -18 0 -18 -10 0 -10
9 -16 23 -16 18 0 19 -2 7 -10 -9 -6 -10 -10 -3 -10 7 0 16 7 21 16 12 22 44
14 58 -14 27 -54 61 -73 93 -53 16 10 6 51 -13 51 -17 0 -46 58 -39 77 6 16
-9 17 -26 1 -11 -11 -13 -9 -8 10 4 17 -3 30 -26 52 -31 29 -31 30 -9 30 13 0
20 4 17 10 -8 13 -28 13 -42 -1z"/>
<path d="M1195 2836 c-6 -6 -9 -19 -7 -28 4 -20 -32 -26 -43 -8 -4 6 -10 8
-15 5 -5 -3 0 -20 10 -38 24 -38 25 -47 5 -47 -27 0 -16 -25 12 -27 15 0 29
-6 31 -12 2 -6 9 -11 17 -11 7 0 18 -7 25 -15 15 -19 30 -19 30 -2 0 18 43 37
85 37 25 0 33 4 29 13 -3 8 2 20 11 27 8 7 15 22 15 34 -1 20 -2 20 -14 4 -16
-22 -26 -23 -26 -4 0 10 -10 13 -35 11 -24 -2 -38 1 -44 12 -6 12 -10 12 -16
4 -5 -9 -11 -6 -22 8 -8 12 -22 21 -31 21 -13 0 -14 2 -3 9 7 5 9 11 5 14 -5
3 -14 0 -19 -7z"/>
<path d="M550 2568 c0 -9 -7 -24 -16 -32 -13 -13 -16 -50 -17 -223 -2 -181 0
-212 16 -242 9 -19 17 -40 17 -47 0 -7 6 -15 13 -18 9 -4 9 -8 1 -11 -13 -7
-7 -84 7 -99 15 -17 10 -29 -6 -16 -21 17 -20 -10 1 -58 40 -94 139 -282 147
-282 6 0 7 -3 4 -7 -4 -3 4 -21 18 -39 14 -18 25 -35 25 -38 0 -19 64 -91 78
-88 15 2 15 1 2 -7 -12 -8 -12 -13 -2 -23 6 -6 12 -8 12 -3 0 6 4 3 10 -5 5
-8 11 -12 14 -9 7 7 -23 69 -33 69 -4 0 -25 27 -46 60 -21 33 -45 60 -53 60
-7 0 -10 5 -7 10 4 6 11 7 17 4 7 -4 8 -2 4 4 -4 7 -13 12 -20 12 -23 0 -44
43 -38 78 3 20 -1 39 -10 50 -8 9 -20 37 -27 62 -7 25 -19 52 -25 60 -16 19
-46 115 -46 144 0 12 -5 27 -12 34 -17 17 -2 28 17 12 8 -7 15 -27 15 -46 0
-18 5 -36 10 -39 6 -3 10 -15 10 -26 0 -10 5 -19 10 -19 15 0 12 48 -4 78 -14
27 -46 156 -46 187 0 9 -4 14 -9 11 -5 -3 -12 22 -16 55 -5 43 -4 64 5 69 9 5
9 17 -1 51 -16 58 -17 71 -8 127 4 26 3 52 -2 58 -6 7 -5 21 2 37 8 18 8 30 0
43 -9 17 -10 17 -11 2z"/>
<path d="M2360 1976 c-11 -29 -40 -38 -56 -17 -6 8 -16 11 -22 7 -17 -10 -15
-51 3 -66 8 -7 15 -18 15 -25 0 -7 6 -18 14 -24 8 -7 13 -21 11 -31 -6 -31 29
-34 60 -6 23 21 25 27 13 45 -7 11 -9 24 -4 28 4 4 12 0 18 -10 9 -18 10 -18
23 0 12 16 9 20 -31 39 -41 20 -43 23 -29 37 17 18 20 47 5 47 -6 0 -15 -11
-20 -24z"/>
</g>
</svg>
