<?xml version="1.0" standalone="no"?>
<!DOCTYPE svg PUBLIC "-//W3C//DTD SVG 20010904//EN"
 "http://www.w3.org/TR/2001/REC-SVG-20010904/DTD/svg10.dtd">
<svg version="1.0" xmlns="http://www.w3.org/2000/svg"
 width="500.000000pt" height="500.000000pt" viewBox="0 0 500.000000 500.000000"
 preserveAspectRatio="xMidYMid meet">
<metadata>
Created by potrace 1.16, written by Peter Selinger 2001-2019
</metadata>
<g transform="translate(0.000000,500.000000) scale(0.100000,-0.100000)"
fill="#000000" stroke="none">
<path d="M2265 4988 c-199 -22 -469 -86 -654 -154 -181 -67 -453 -209 -537
-280 -16 -14 -2 -8 31 13 120 78 251 148 386 206 123 54 257 99 273 94 6 -3
-1 -8 -17 -12 -17 -4 -29 -16 -33 -30 -3 -14 -20 -30 -40 -40 -42 -20 -43 -26
-2 -18 20 4 29 3 25 -4 -4 -6 -21 -13 -39 -17 -26 -5 -30 -9 -18 -17 11 -7 9
-8 -10 -4 -17 4 -32 0 -45 -13 -11 -10 -29 -21 -39 -25 -28 -11 -14 -18 22
-11 19 4 29 11 26 19 -4 11 27 14 46 5 3 -1 11 -3 19 -4 8 0 16 -7 19 -15 3
-10 -1 -12 -16 -9 -12 3 -23 1 -25 -5 -2 -6 -14 -12 -28 -13 -13 -2 -39 -5
-56 -7 -18 -2 -33 0 -33 5 0 4 -10 8 -22 8 l-23 1 24 19 c13 11 19 20 14 20
-6 0 -18 -9 -28 -20 -10 -11 -25 -20 -34 -20 -22 0 -47 -17 -38 -26 3 -4 12
-2 19 3 15 12 78 13 78 3 0 -4 19 -13 43 -18 55 -14 124 -71 85 -69 -41 1 -56
-5 -62 -25 -4 -15 -9 -19 -13 -12 -5 6 -18 14 -30 18 -13 4 -30 14 -38 23 -21
21 -91 29 -110 13 -12 -10 -13 -15 -4 -20 6 -4 -4 -9 -23 -12 -27 -3 -34 0
-35 15 -1 10 5 21 13 24 7 3 11 10 8 15 -9 14 -45 -44 -39 -61 3 -7 -7 -22
-21 -33 -18 -15 -22 -23 -13 -28 9 -6 9 -11 -2 -23 -12 -13 -17 -12 -38 1 -22
15 -25 14 -50 -16 -14 -18 -33 -32 -42 -32 -9 0 -22 -7 -29 -15 -10 -12 -9
-15 6 -15 16 0 16 -2 -4 -20 -12 -12 -22 -23 -22 -26 0 -11 50 29 65 52 9 14
20 22 24 20 4 -3 14 6 21 19 16 30 44 34 35 5 -7 -23 12 -63 26 -55 5 4 7 10
4 15 -6 9 33 50 46 50 4 0 16 14 26 30 18 31 37 41 27 15 -4 -8 -1 -15 6 -15
6 0 9 -4 6 -9 -6 -10 15 -71 25 -71 17 0 -18 -50 -39 -55 -14 -3 -20 -10 -16
-17 5 -7 2 -9 -9 -5 -9 3 -19 2 -22 -3 -3 -4 0 -10 7 -12 19 -7 -1 -28 -28
-28 -13 0 -24 -4 -24 -10 0 -5 5 -10 10 -10 18 0 10 -18 -10 -23 -27 -7 -38
-37 -17 -48 10 -6 13 -17 10 -31 l-6 -23 23 20 23 20 -23 -32 c-26 -36 -36
-42 -26 -17 4 10 2 14 -6 11 -7 -2 -12 -10 -11 -16 2 -6 -1 -11 -6 -11 -5 0
-11 -7 -13 -16 -2 -11 -16 -18 -41 -21 -28 -3 -37 -1 -31 8 5 9 2 10 -10 6
-23 -9 -43 3 -25 14 8 4 14 14 15 21 0 7 2 21 2 31 1 9 9 17 18 17 8 0 13 4
10 9 -4 5 -1 11 6 13 7 3 -9 5 -36 6 -26 1 -52 5 -57 8 -5 3 -9 1 -9 -4 0 -6
-7 -13 -16 -16 -14 -5 -15 -4 -4 9 18 21 9 19 -64 -15 -48 -23 -64 -36 -63
-50 1 -18 2 -18 29 1 31 22 39 13 11 -12 -10 -8 -26 -26 -36 -39 -10 -14 -15
-19 -12 -13 4 9 1 11 -11 6 -14 -5 -15 -7 -1 -15 10 -5 14 -15 10 -26 -7 -21
1 -13 52 53 21 28 47 58 56 68 20 19 39 23 39 7 0 -5 -4 -10 -10 -10 -5 0 -10
-9 -10 -21 0 -11 -4 -17 -10 -14 -5 3 -10 1 -10 -5 0 -6 -9 -32 -21 -57 -13
-29 -17 -48 -11 -52 6 -3 10 -15 9 -25 -3 -31 22 -30 30 1 4 15 6 35 5 43 -1
10 0 11 4 2 5 -10 9 -10 22 0 13 11 15 10 10 -3 -4 -9 -1 -22 5 -29 9 -10 8
-12 -5 -7 -10 3 -20 2 -23 -3 -4 -6 -1 -10 6 -10 7 0 5 -6 -6 -13 -10 -8 -15
-19 -11 -25 11 -19 29 -14 22 5 -4 10 -4 14 0 10 4 -4 13 1 21 11 12 15 13 14
7 -13 -8 -32 -22 -47 -37 -38 -5 3 -13 -1 -18 -8 -4 -8 -4 -16 3 -20 6 -4 4
-16 -7 -33 -20 -30 -16 -38 22 -42 18 -2 23 0 14 5 -9 6 -10 11 -2 15 6 4 11
15 11 26 0 10 6 20 13 23 12 4 14 -8 19 -94 1 -32 4 -36 19 -26 13 8 16 19 12
44 -4 21 -2 33 6 33 19 0 13 -69 -9 -93 -18 -18 -22 -20 -30 -7 -5 8 -10 20
-10 27 0 19 -16 23 -17 5 -2 -29 -22 -72 -33 -72 -5 0 -9 -3 -9 -7 4 -23 -3
-35 -16 -29 -8 3 -15 1 -15 -5 0 -16 31 -23 41 -8 7 12 9 12 9 -1 0 -8 -5 -22
-10 -30 -9 -13 -10 -13 -11 0 0 8 -5 3 -10 -12 -7 -17 -15 -25 -25 -21 -19 7
-18 23 2 23 10 0 7 7 -12 25 -15 14 -31 25 -35 25 -5 0 -9 5 -9 11 0 5 5 7 10
4 6 -3 10 1 10 9 0 21 -17 20 -29 -1 -10 -17 -10 -17 -11 1 0 18 -1 18 -20 1
-11 -10 -17 -22 -14 -26 3 -5 -7 -14 -21 -19 -18 -7 -25 -15 -21 -25 3 -9 -4
-25 -15 -36 -13 -13 -18 -27 -14 -40 4 -10 2 -19 -3 -19 -6 0 -12 16 -14 35
-3 24 0 35 9 35 7 0 13 10 13 23 0 13 5 28 12 35 9 9 8 12 -5 12 -36 0 -16 44
25 54 16 3 27 10 26 14 -5 16 24 53 37 48 8 -3 17 3 20 15 4 10 10 19 15 19
16 0 32 40 22 53 -5 7 -7 33 -6 59 3 38 1 46 -11 42 -10 -4 -15 0 -15 12 0 16
-2 16 -10 4 -5 -8 -5 -19 -1 -25 4 -5 0 -18 -10 -27 -17 -16 -18 -16 -24 2 -4
11 -4 24 -1 29 4 5 -2 8 -11 7 -14 -2 -18 -12 -18 -42 0 -30 -4 -40 -20 -44
-13 -4 -20 -14 -20 -30 0 -16 -7 -26 -18 -28 -17 -4 -18 -2 -2 27 9 18 13 36
10 41 -4 6 1 7 11 3 12 -4 15 -3 10 6 -4 6 -3 18 3 25 8 10 5 12 -12 11 -15
-1 -23 -9 -25 -26 -2 -13 -13 -34 -24 -45 -13 -15 -16 -23 -7 -26 9 -3 9 -9 2
-23 -8 -13 -8 -26 -1 -41 8 -18 7 -26 -6 -39 -9 -9 -16 -25 -16 -36 0 -10 -6
-19 -14 -19 -15 0 -22 -14 -30 -64 -6 -32 -13 -42 -22 -33 -4 3 -1 21 5 38 7
21 8 36 2 42 -6 6 -4 19 6 34 11 17 18 21 24 12 5 -8 14 -2 28 21 11 19 18 36
15 39 -3 3 -10 -2 -15 -12 -12 -21 -29 -22 -29 -1 0 9 -5 12 -12 8 -6 -4 0 8
15 28 15 20 27 48 27 64 0 17 5 35 12 42 9 9 9 12 -1 12 -10 0 -9 7 4 26 17
27 17 27 -8 20 -21 -5 -24 -3 -20 14 8 29 -6 25 -17 -6 -11 -27 -30 -24 -30 4
0 26 46 43 76 30 18 -9 28 -8 36 0 9 9 8 12 -6 12 -12 0 -16 5 -13 14 4 10 1
13 -8 9 -8 -3 -12 -10 -8 -16 3 -6 1 -7 -5 -3 -18 11 -14 29 8 49 21 18 26 37
10 37 -5 0 -10 -3 -10 -7 0 -5 -25 -34 -56 -67 -33 -35 -53 -64 -50 -73 7 -16
-17 -57 -52 -90 -13 -13 -19 -23 -14 -23 5 0 15 7 22 15 7 8 16 12 22 9 5 -3
26 14 47 37 25 28 40 39 45 31 4 -7 2 -12 -3 -12 -16 0 -51 -33 -51 -48 0 -7
-7 -15 -15 -18 -8 -4 -15 -12 -15 -20 0 -8 -4 -14 -10 -14 -5 0 -10 -5 -10
-11 0 -5 4 -7 10 -4 5 3 10 2 10 -4 0 -17 -22 -24 -32 -10 -7 11 -8 9 -6 -6 2
-10 -7 -30 -20 -44 -12 -13 -25 -36 -28 -50 -3 -14 -9 -36 -14 -48 -11 -27 1
-31 15 -5 29 53 52 83 67 88 10 3 15 11 11 20 -4 10 0 12 11 8 18 -7 22 -24 5
-24 -5 0 -16 -15 -23 -32 -7 -18 -17 -42 -21 -53 -5 -11 -9 -25 -10 -30 0 -12
-34 -59 -61 -87 -10 -10 -15 -21 -11 -24 9 -9 37 15 37 32 0 24 30 15 31 -8 1
-23 1 -26 -8 -63 -2 -11 -5 -27 -7 -34 -1 -8 -8 -17 -13 -18 -6 -2 -9 -13 -6
-24 4 -15 2 -18 -13 -12 -14 5 -16 3 -11 -12 7 -16 5 -16 -9 -4 -14 11 -18 11
-30 -6 -17 -23 -18 -42 -3 -84 8 -23 8 -36 1 -43 -7 -7 -5 -17 8 -30 18 -20
18 -21 -1 -41 -18 -20 -25 -37 -14 -37 2 0 13 10 25 22 11 12 20 17 20 11 0
-6 -13 -23 -30 -36 -28 -24 -42 -45 -20 -32 12 7 12 -2 1 -30 -5 -11 -4 -28 1
-39 9 -17 13 -15 40 18 17 21 33 35 35 32 3 -3 -6 -19 -20 -35 -16 -20 -24
-39 -21 -53 4 -19 3 -20 -4 -5 -7 17 -9 16 -20 -8 -11 -24 -11 -27 4 -21 12 5
15 2 10 -10 -4 -12 -2 -15 9 -10 9 3 15 0 15 -10 0 -12 6 -15 23 -10 12 3 25
6 30 6 4 0 7 17 7 38 0 24 -3 32 -9 23 -6 -9 -10 -10 -16 -2 -4 7 4 22 19 36
14 13 26 34 26 47 0 19 2 20 10 8 6 -9 10 -10 10 -3 0 9 8 9 30 2 29 -11 39
-24 21 -31 -4 -1 -12 -14 -16 -28 -7 -22 -6 -23 8 -12 12 10 16 10 20 0 4 -10
7 -10 18 1 10 10 11 15 2 18 -7 2 -10 10 -7 18 3 7 -4 23 -15 34 -20 20 -20
22 -4 28 28 10 34 25 27 64 -6 43 12 62 25 27 7 -16 8 -8 4 28 -3 32 -1 54 5
58 8 5 10 -6 7 -33 -2 -23 1 -43 6 -46 13 -9 11 -59 -4 -74 -10 -10 -9 -11 5
-6 9 4 25 2 35 -4 10 -6 13 -11 7 -11 -6 0 -14 -13 -17 -30 -6 -27 -27 -43
-27 -20 0 6 -5 10 -11 10 -8 0 -10 -15 -7 -44 4 -35 2 -43 -8 -39 -8 3 -14 0
-14 -6 0 -6 4 -11 8 -11 5 0 19 -9 31 -19 19 -17 20 -20 6 -34 -9 -10 -11 -18
-5 -22 5 -3 10 -1 10 5 0 6 5 8 10 5 15 -9 12 -19 -10 -45 -12 -14 -18 -30
-14 -39 29 -73 29 -106 -1 -95 -13 5 -15 2 -9 -22 4 -16 12 -32 18 -36 6 -4 7
-10 2 -15 -7 -8 -31 23 -31 42 0 6 -4 15 -8 22 -4 6 -3 14 2 18 11 6 3 35 -10
35 -4 0 -5 -7 -2 -17 4 -11 3 -14 -6 -9 -6 4 -11 17 -10 29 1 12 1 35 1 52 -2
22 -5 26 -14 17 -20 -20 -33 -14 -14 7 9 10 14 25 10 34 -3 9 -2 22 2 28 5 8
12 -1 20 -27 7 -25 12 -31 13 -18 1 12 4 37 7 55 3 19 2 30 -3 24 -10 -13 -29
-17 -75 -19 -45 -1 -52 -8 -54 -54 -2 -45 -13 -74 -25 -66 -5 3 -6 11 -2 17
11 18 14 39 8 65 -9 38 -23 24 -18 -17 3 -23 1 -41 -6 -45 -7 -5 -11 5 -11 31
0 34 -1 36 -16 21 -15 -15 -15 -18 0 -39 18 -26 22 -54 6 -44 -6 4 -10 -5 -10
-19 0 -31 -11 -33 -28 -6 -7 12 -8 20 -2 20 5 0 10 7 10 15 0 21 -20 19 -21
-2 -1 -10 -1 -22 0 -26 1 -5 -7 -11 -18 -14 -16 -4 -20 -15 -23 -60 -1 -30 0
-63 4 -73 4 -12 2 -20 -8 -24 -8 -3 -14 0 -15 7 0 7 -7 -3 -15 -20 -8 -18 -19
-33 -25 -33 -6 0 -9 -8 -7 -18 3 -9 -4 -26 -15 -37 -19 -20 -19 -19 -12 39 6
43 5 57 -4 52 -6 -4 -11 -20 -11 -37 0 -30 -14 -39 -24 -16 -3 6 -3 -4 0 -23
4 -19 10 -36 15 -38 5 -2 9 -22 10 -45 0 -37 2 -39 11 -20 11 22 36 38 46 28
3 -2 5 -21 6 -42 1 -21 5 -38 11 -38 14 0 25 -78 13 -86 -16 -10 0 -57 22 -69
16 -9 20 -8 20 5 0 8 5 15 10 15 15 0 12 -40 -5 -56 -14 -14 -19 -11 -16 9 0
4 -5 7 -13 7 -17 0 -31 -33 -16 -38 7 -3 7 -9 -2 -19 -10 -12 -9 -17 5 -24 9
-5 15 -15 13 -22 -1 -6 -1 -9 1 -5 2 4 11 4 19 1 14 -5 19 8 7 21 -13 13 -13
46 0 46 21 0 28 -12 16 -27 -8 -9 -8 -13 0 -13 6 0 13 11 17 25 9 34 20 31 28
-7 5 -25 9 -29 16 -18 7 12 12 12 34 1 14 -8 23 -18 20 -23 -3 -4 1 -8 10 -8
8 0 17 6 19 13 3 6 6 2 6 -10 1 -17 -3 -21 -16 -16 -11 4 -14 3 -9 -5 12 -20
-9 -13 -24 7 -7 11 -17 18 -21 15 -12 -7 -39 7 -39 22 0 24 -18 15 -24 -12 -4
-15 -2 -32 3 -37 8 -8 11 -5 12 9 0 14 2 15 6 4 3 -8 12 -22 20 -32 10 -11 11
-18 4 -23 -6 -3 -11 1 -11 9 0 9 -5 16 -10 16 -6 0 -8 -11 -4 -25 7 -28 -7
-33 -26 -10 -19 23 -25 18 -24 -20 1 -19 -3 -35 -8 -35 -6 0 -6 -6 2 -14 6 -8
19 -12 27 -9 12 5 15 2 11 -9 -4 -8 -2 -21 3 -29 7 -12 9 -12 9 0 0 10 8 7 25
-9 14 -13 25 -31 25 -41 0 -10 5 -21 10 -24 7 -4 8 3 4 22 -8 33 -5 31 25 -22
22 -38 22 -39 2 -21 -16 14 -21 16 -21 5 -1 -18 -40 28 -40 46 0 7 -7 15 -15
19 -12 4 -15 -3 -15 -35 0 -22 5 -50 12 -62 10 -20 10 -21 -5 -8 -15 11 -17
11 -17 -2 0 -9 5 -19 11 -22 6 -4 9 -31 7 -64 -2 -41 2 -63 15 -81 9 -13 16
-34 16 -45 -1 -17 -2 -17 -6 -2 -2 9 -9 15 -14 12 -5 -4 -9 0 -9 8 0 8 -9 25
-20 38 l-20 24 16 -33 c9 -19 17 -44 18 -57 0 -13 3 -22 5 -19 2 2 12 -5 22
-17 12 -14 18 -16 22 -7 4 10 8 10 14 1 5 -6 17 -11 27 -10 10 1 21 -4 23 -10
3 -7 -2 -13 -11 -13 -9 0 -16 -4 -16 -10 0 -5 -5 -9 -11 -7 -6 1 -14 -4 -16
-10 -3 -7 0 -13 6 -13 6 0 11 -10 10 -22 l0 -23 -16 22 c-8 13 -19 23 -23 23
-14 0 -5 -36 16 -63 24 -30 37 -35 28 -12 -4 9 0 15 9 15 8 0 17 -9 20 -21 3
-12 10 -18 16 -14 15 8 14 48 -1 63 -7 7 -8 12 -2 12 6 0 17 -11 24 -25 7 -14
27 -32 43 -40 37 -18 37 -18 37 -1 0 9 7 13 19 11 11 -2 30 5 42 16 23 20 46
20 42 1 -2 -8 5 -9 23 -2 34 13 34 13 34 -15 0 -14 5 -25 11 -25 7 0 9 10 7
25 -6 30 11 33 35 7 21 -23 21 -28 1 -36 -8 -3 -12 -2 -9 4 3 6 2 10 -4 10 -5
0 -14 -8 -20 -17 -8 -15 -11 -15 -27 -3 -16 14 -16 13 -3 -10 8 -14 20 -33 28
-42 23 -29 -2 -20 -33 12 -16 17 -32 28 -35 24 -3 -3 -1 -8 5 -12 5 -4 21 -25
34 -47 21 -34 14 -29 -39 27 -35 38 -67 65 -72 63 -13 -9 1 -33 23 -38 28 -8
17 -32 -14 -31 -20 1 -27 -5 -31 -22 -3 -16 0 -24 9 -24 14 0 45 -63 41 -82
-1 -6 4 -13 12 -16 9 -3 11 0 6 8 -6 9 -3 9 13 1 12 -6 24 -16 27 -21 4 -6 11
-8 16 -4 6 3 9 0 8 -7 -2 -8 3 -25 11 -39 12 -23 12 -24 -3 -11 -14 11 -18 11
-23 -3 -6 -15 -9 -15 -32 6 -21 18 -24 19 -12 3 8 -11 20 -23 27 -28 16 -10
73 -95 73 -109 0 -6 -8 -7 -18 -3 -13 5 -14 4 -5 -6 15 -16 54 -20 69 -8 7 6
16 4 24 -6 7 -8 18 -15 25 -15 8 0 11 -8 8 -19 -6 -25 22 -34 42 -14 15 14 14
17 -12 34 -15 11 -25 19 -20 19 13 0 77 -44 77 -54 0 -4 -7 -5 -16 -2 -8 3
-12 2 -9 -4 3 -6 15 -10 26 -10 10 0 19 -4 19 -10 0 -11 -11 -13 -53 -10 -15
1 -27 -3 -27 -9 0 -6 10 -12 23 -12 16 -1 18 -2 5 -6 -10 -2 -18 -10 -18 -16
0 -8 -4 -7 -12 1 -15 15 -32 16 -23 2 3 -5 1 -10 -4 -10 -6 0 -11 4 -11 10 0
14 -67 40 -85 33 -9 -3 -22 0 -30 7 -9 7 -32 14 -52 16 -46 4 -47 6 -22 35 21
23 21 23 15 2 -7 -20 -5 -22 30 -16 20 3 39 2 43 -4 8 -13 51 2 51 18 0 6 -6
9 -14 6 -8 -3 -29 -2 -45 3 -21 6 -31 5 -31 -2 0 -6 -9 0 -19 13 -12 15 -31
24 -52 25 -30 2 -32 1 -15 -12 11 -7 22 -11 27 -9 4 3 2 -5 -4 -18 l-10 -22
-30 28 c-16 15 -33 25 -36 21 -3 -3 5 -15 19 -26 14 -11 24 -25 22 -30 -1 -5
2 -7 7 -4 5 4 12 2 16 -4 3 -5 15 -10 26 -10 10 0 19 -7 19 -15 0 -14 -15 -19
-49 -17 -23 1 11 -28 40 -33 13 -3 25 -9 27 -15 2 -5 9 -10 15 -10 6 0 0 11
-13 24 -21 23 -21 26 -6 42 15 15 18 15 29 1 7 -9 23 -17 37 -19 19 -2 24 -8
23 -25 -2 -17 4 -24 23 -29 17 -4 22 -9 14 -14 -7 -5 4 -15 32 -29 50 -24 62
-26 52 -9 -4 7 -3 8 4 4 17 -10 15 -27 -5 -42 -17 -12 -17 -13 2 -8 13 3 24
-2 33 -16 12 -20 12 -21 -10 -14 -37 11 -95 14 -78 3 8 -5 11 -9 5 -9 -5 0 10
-18 35 -39 32 -29 39 -38 23 -34 -12 3 -29 13 -38 23 -10 11 -24 16 -33 13
-11 -5 -13 -3 -7 8 4 8 5 11 0 7 -4 -4 -26 12 -48 35 -22 23 -45 41 -50 39 -4
-1 -6 2 -3 7 3 5 -11 17 -31 26 -44 21 -48 24 -124 94 -33 30 -58 60 -55 67 3
9 -1 11 -11 7 -10 -4 -14 -2 -10 4 7 11 -36 57 -45 48 -3 -3 -40 37 -83 90
-43 52 -79 95 -82 95 -2 0 25 -37 59 -82 78 -102 274 -300 388 -391 96 -76
270 -195 270 -184 0 2 -25 21 -55 41 -62 41 -75 60 -17 25 20 -12 54 -31 75
-42 35 -18 54 -45 22 -33 -28 10 -15 -3 18 -19 26 -13 29 -13 13 -1 -17 14
-17 15 8 12 15 -1 32 -10 39 -19 6 -8 38 -28 70 -43 34 -16 54 -30 47 -34 -25
-15 259 -127 445 -175 259 -67 279 -69 640 -70 l330 0 153 33 c661 141 1228
523 1597 1077 78 118 209 379 261 520 58 160 134 489 134 584 0 55 17 41 26
-22 l9 -62 3 104 c1 56 -2 108 -7 115 -9 11 -14 65 -12 141 1 30 4 36 11 25 7
-10 9 28 9 115 -1 109 -3 124 -12 95 l-10 -35 -9 55 c-26 176 -46 275 -73 375
-23 86 -85 266 -102 295 -17 30 -15 23 26 -98 34 -98 34 -120 1 -85 -10 12
-17 23 -14 26 11 11 -24 92 -41 95 -19 4 -15 -18 12 -71 8 -16 12 -31 9 -35
-3 -3 -11 10 -18 28 -9 28 -12 31 -18 15 -6 -17 -7 -17 -13 -2 -3 9 -2 17 3
17 5 0 5 13 -1 30 -6 16 -15 28 -20 25 -4 -3 -5 -13 -2 -23 6 -15 5 -15 -10
-3 -24 19 -21 38 6 45 l22 6 -24 13 c-14 6 -27 19 -29 27 -3 8 -1 12 3 8 4 -4
16 -3 27 3 16 8 18 18 15 52 -3 23 -8 51 -12 62 -3 11 10 -9 29 -45 19 -36 35
-60 36 -53 0 22 -157 318 -168 316 -6 -2 -9 3 -6 10 5 14 -108 183 -184 277
-132 163 -322 347 -344 334 -7 -4 -8 -2 -4 4 8 13 -134 122 -269 207 -221 139
-560 280 -800 331 -116 25 -228 44 -262 44 -17 0 -34 4 -37 9 -8 12 -335 11
-441 -1z m1168 -292 c8 8 92 -35 127 -66 19 -17 26 -28 16 -24 -13 5 -17 4
-12 -4 4 -7 2 -12 -3 -12 -6 0 -11 -4 -11 -9 0 -4 18 -7 40 -6 22 1 43 -1 46
-6 2 -4 12 -5 21 -2 13 5 12 1 -4 -17 -18 -18 -25 -21 -37 -11 -9 7 -17 8 -20
2 -3 -5 0 -11 6 -14 7 -2 10 -8 6 -12 -10 -11 -28 4 -28 25 0 13 -6 18 -23 16
-16 -2 -23 3 -24 16 -1 10 2 18 8 18 5 0 9 5 9 10 0 6 -10 10 -22 10 -14 0
-18 -3 -12 -8 7 -4 8 -15 4 -27 -7 -18 -9 -18 -15 -3 -4 9 -13 14 -21 11 -8
-3 -14 0 -14 7 0 7 -14 26 -31 42 -22 21 -38 29 -55 25 -13 -2 -24 0 -24 4 0
5 6 9 13 9 8 0 7 4 -3 10 -22 15 7 31 36 20 12 -5 24 -7 27 -4z m-749 -133
c-16 -12 -10 -38 7 -27 5 3 7 8 5 12 -2 4 2 16 10 27 14 19 16 19 25 3 6 -10
20 -18 31 -18 21 0 21 0 2 -15 -19 -14 -19 -14 2 -15 25 0 37 -23 21 -39 -8
-8 -7 -11 6 -11 9 0 17 -4 17 -8 0 -15 -33 -9 -52 10 -10 10 -25 18 -34 18
-15 0 -15 -2 -2 -22 16 -25 81 -52 86 -37 2 5 8 7 13 3 5 -3 9 0 9 5 0 21 18
11 22 -13 4 -19 1 -23 -11 -19 -9 3 -2 -7 16 -21 20 -16 30 -32 26 -41 -3 -9
0 -22 7 -30 10 -12 10 -15 -1 -15 -9 0 -10 -3 -2 -11 15 -15 34 -3 26 16 -3
10 2 15 16 15 25 0 24 -22 -1 -32 -11 -4 -18 -18 -18 -33 0 -14 -6 -25 -12
-26 -10 0 -10 -2 0 -6 6 -2 12 -9 12 -15 0 -6 -7 -7 -16 -4 -13 5 -14 4 -5 -7
14 -18 3 -77 -15 -77 -8 0 -14 -7 -14 -15 0 -8 -5 -15 -11 -15 -7 0 -10 -12
-7 -29 4 -25 2 -28 -12 -21 -21 11 -40 -6 -40 -34 1 -20 1 -20 14 -3 7 9 22
16 32 16 18 -1 18 -2 1 -6 -28 -7 -16 -39 13 -35 31 3 72 41 65 61 -7 23 9 44
31 39 13 -3 18 -11 17 -26 -2 -16 1 -21 10 -17 6 4 -3 -7 -20 -23 -18 -15 -33
-33 -33 -39 0 -22 26 -58 44 -61 10 -2 15 1 12 7 -4 5 -1 13 5 17 9 5 10 0 7
-14 -4 -12 -2 -25 4 -28 5 -3 7 -13 4 -21 -3 -8 -1 -11 4 -8 6 3 10 -1 10 -9
0 -16 15 -22 23 -8 2 4 2 2 1 -5 -5 -20 14 -25 24 -7 6 10 16 15 26 11 20 -8
20 -2 -1 23 -13 14 -20 17 -30 8 -10 -8 -13 -3 -13 24 0 30 3 34 30 36 28 2
30 0 20 -17 -14 -27 -13 -31 8 -31 21 0 46 -36 32 -45 -17 -11 -11 -20 14 -20
13 0 22 3 20 7 -2 3 -1 8 3 11 5 2 2 2 -4 1 -7 -2 -13 2 -13 9 0 8 14 12 40
12 39 -1 70 -18 57 -32 -4 -4 -13 -1 -19 5 -15 15 -32 16 -23 2 3 -5 -1 -10
-9 -10 -19 0 -20 -5 -7 -29 7 -12 23 -18 47 -19 44 -2 55 -10 31 -23 -9 -6
-17 -14 -17 -20 0 -6 6 -7 17 -1 17 10 66 0 86 -17 8 -6 19 -5 31 5 10 7 22
11 27 9 4 -3 10 -1 13 4 4 5 18 6 34 2 15 -4 34 -6 42 -3 13 5 13 3 0 -13 -14
-17 -13 -18 4 -12 14 6 17 4 12 -8 -3 -8 0 -15 5 -15 7 0 9 11 7 25 -3 14 -1
25 3 25 5 0 9 -9 9 -20 0 -11 5 -20 11 -20 7 0 10 12 7 30 -3 17 -2 30 2 30
14 0 44 -42 46 -63 2 -36 26 -77 43 -75 9 2 15 -2 14 -7 -2 -15 84 -12 99 3 9
9 7 12 -10 12 -12 0 -22 5 -22 10 0 15 -21 12 -42 -7 -14 -13 -18 -13 -18 -2
0 19 12 35 30 42 12 4 11 6 -2 6 -10 1 -18 5 -18 11 0 5 -7 7 -15 4 -10 -4 -7
3 7 19 13 14 25 22 26 17 2 -6 8 -10 14 -10 6 0 7 7 4 16 -4 10 -1 14 6 12 7
-3 15 -13 17 -24 6 -34 21 -45 38 -28 14 13 13 18 -7 40 -13 13 -18 24 -11 24
7 0 10 4 7 9 -3 5 2 15 11 22 12 10 14 10 9 2 -4 -8 -2 -13 6 -13 8 -1 6 -6
-6 -15 -11 -8 -16 -18 -13 -22 4 -3 18 3 30 15 l24 22 12 -27 c9 -20 15 -23
20 -14 5 8 11 9 15 3 3 -5 -1 -13 -10 -16 -9 -3 -14 -13 -11 -21 4 -9 1 -12
-9 -8 -17 6 -18 20 -2 25 7 3 3 7 -9 10 -17 4 -24 1 -29 -14 -4 -12 -1 -24 7
-29 10 -6 8 -13 -10 -28 -13 -12 -18 -21 -11 -21 7 0 19 8 26 18 11 14 15 15
23 3 5 -7 14 -10 20 -7 6 4 11 2 11 -4 0 -6 10 -10 22 -8 16 2 23 -3 25 -17 1
-11 0 -14 -3 -7 -3 6 -17 12 -31 12 l-26 0 23 -20 c13 -11 27 -20 31 -20 16 0
39 -32 39 -56 0 -13 5 -24 10 -24 6 0 10 -4 10 -10 0 -5 -7 -10 -15 -10 -9 0
-25 -19 -36 -42 -19 -42 -20 -39 -4 10 6 22 5 23 -17 17 -31 -10 -35 -15 -19
-25 9 -5 11 -15 7 -26 -7 -18 -8 -18 -22 1 -8 11 -13 28 -10 37 6 25 -10 32
-24 11 -11 -17 -11 -17 -6 1 5 14 2 17 -10 12 -11 -4 -15 -2 -11 8 4 10 1 13
-9 9 -7 -3 -14 -1 -14 5 0 14 -22 20 -43 13 -16 -6 -14 -12 22 -49 23 -23 41
-39 41 -35 0 4 5 2 12 -5 7 -7 20 -12 29 -12 17 0 29 -19 29 -46 0 -21 -23
-17 -45 8 -12 15 -20 18 -23 10 -2 -7 -15 -12 -28 -12 -17 0 -24 -5 -24 -20 0
-11 -7 -23 -15 -26 -8 -4 -15 -12 -15 -20 0 -8 -5 -14 -11 -14 -6 0 -9 7 -5
15 3 9 0 15 -8 15 -8 0 -16 9 -19 21 -5 19 -4 20 18 5 14 -9 29 -16 35 -16 15
0 13 60 -2 61 -10 0 -10 2 0 6 6 2 10 9 6 14 -3 5 2 9 10 9 9 0 16 5 16 10 0
6 -11 10 -25 10 -14 0 -25 5 -25 11 0 6 -7 4 -15 -5 -8 -8 -15 -21 -15 -29 0
-8 -6 -17 -14 -20 -9 -4 -12 2 -10 18 1 17 -2 22 -12 18 -10 -3 -12 0 -8 10 7
19 -32 48 -55 39 -9 -3 -20 -12 -24 -19 -5 -7 -13 -11 -18 -7 -6 3 -16 3 -24
0 -11 -4 -8 -12 13 -37 70 -81 101 -113 102 -101 0 7 -7 15 -15 18 -19 8 -20
34 -1 34 14 0 30 -45 24 -70 -2 -7 3 -15 10 -17 6 -3 12 2 12 11 0 9 5 16 10
16 6 0 10 -6 10 -12 0 -7 4 -19 9 -27 8 -12 12 -12 24 -2 20 16 34 -4 17 -24
-9 -11 -9 -23 0 -50 12 -36 30 -39 30 -4 0 10 4 19 9 19 14 0 21 -43 10 -56
-19 -23 34 -85 65 -76 5 2 22 -2 39 -9 23 -10 30 -10 37 1 12 20 1 33 -16 19
-16 -13 -33 -4 -18 10 5 5 24 12 42 16 l32 7 0 -52 c0 -41 3 -51 14 -47 10 4
13 1 9 -9 -3 -7 -12 -14 -20 -14 -8 0 -11 -5 -8 -10 4 -7 13 -6 26 1 11 5 32
9 47 7 22 -2 27 -8 25 -29 -1 -23 4 -28 38 -37 28 -7 41 -7 46 1 12 19 10 47
-3 47 -6 0 -15 7 -18 16 -3 8 -10 12 -16 9 -5 -3 -10 3 -10 14 0 13 -6 18 -17
16 -10 -2 -18 -4 -18 -5 0 -1 -12 -4 -27 -6 -33 -3 -39 21 -10 42 15 12 15 13
1 14 -21 0 -32 39 -17 58 9 10 9 15 0 21 -8 5 -10 15 -5 27 6 16 5 17 -9 6
-11 -9 -18 -10 -23 -2 -4 7 -15 3 -32 -10 -35 -27 -42 -17 -9 13 14 13 29 39
32 56 4 17 16 37 27 43 20 11 20 11 -9 34 -16 13 -36 24 -44 24 -9 -1 -5 -8
13 -21 15 -11 27 -24 27 -27 0 -9 -53 -7 -68 2 -22 14 -34 -5 -16 -25 15 -17
15 -19 1 -19 -9 0 -21 8 -26 18 -10 16 -12 15 -31 -8 -11 -14 -20 -20 -20 -15
0 6 -5 3 -10 -5 -6 -9 -10 -10 -10 -3 0 6 -3 19 -6 28 -5 13 -2 15 21 9 25 -6
27 -5 23 13 -4 16 -2 19 13 16 15 -4 18 -1 13 11 -4 11 -1 16 10 16 9 0 16 8
16 20 0 11 7 20 15 20 8 0 15 -5 15 -11 0 -5 4 -8 10 -4 5 3 7 12 3 20 -3 8 0
15 6 15 6 0 11 10 11 22 0 17 3 19 12 10 17 -17 28 -15 28 4 0 9 6 14 13 12 7
-3 12 -22 12 -47 1 -35 5 -44 28 -56 28 -14 36 -8 15 13 -7 7 -10 12 -7 13 2
0 11 2 20 4 12 2 15 -3 12 -16 -3 -12 0 -19 8 -19 9 -1 8 -4 -4 -11 -11 -7
-16 -17 -12 -29 3 -10 1 -21 -5 -25 -5 -3 -10 1 -10 9 0 9 -4 16 -10 16 -11 0
-12 -15 -4 -47 5 -18 14 -23 38 -24 30 0 30 -1 7 -10 -14 -5 -30 -8 -38 -5 -7
3 -15 1 -18 -5 -4 -5 -3 -9 2 -8 15 4 43 -13 37 -22 -8 -14 -26 -11 -18 4 6
10 4 10 -7 0 -9 -9 -10 -16 -3 -23 12 -12 44 -3 44 12 0 5 5 6 10 3 6 -3 10
-15 10 -26 0 -10 4 -19 9 -19 5 0 16 -13 24 -29 11 -22 12 -32 3 -42 -8 -9 -7
-11 5 -6 19 6 32 -35 22 -72 -4 -17 -2 -20 13 -15 16 6 17 5 7 -7 -17 -17 -16
-29 1 -29 8 0 16 -3 19 -7 2 -5 2 -2 1 5 -2 6 1 12 6 12 6 0 10 -4 10 -10 0
-5 6 -10 14 -10 8 0 24 -16 36 -35 12 -19 23 -35 25 -35 6 0 -8 45 -16 50 -11
8 -14 33 -6 57 7 19 11 20 37 11 17 -5 27 -14 24 -19 -3 -5 -1 -9 4 -9 15 0
25 -52 11 -60 -16 -11 18 -29 42 -23 20 6 26 23 8 23 -6 0 -8 7 -5 16 4 10 -1
22 -10 29 -14 10 -15 15 -5 31 10 16 12 16 7 2 -3 -10 -2 -18 3 -18 11 0 61
-101 61 -125 0 -14 3 -16 11 -8 8 8 8 17 0 31 -15 29 -14 37 4 22 8 -7 15 -21
15 -32 0 -10 5 -16 10 -13 6 3 10 1 10 -5 0 -6 5 -8 12 -4 7 5 5 11 -8 21 -18
13 -16 14 14 10 23 -4 32 -1 32 9 0 8 -3 14 -8 14 -12 0 -33 40 -26 51 3 6 17
-8 31 -30 24 -41 42 -53 44 -28 0 6 2 26 4 42 3 17 -1 45 -8 63 -7 22 -8 35
-1 40 11 8 13 62 2 62 -5 0 -8 7 -8 15 0 22 15 18 34 -7 10 -13 5 -1 -9 25
-15 27 -24 55 -21 63 3 9 1 12 -4 9 -11 -7 -13 5 -10 45 l1 25 -17 -24 c-9
-13 -17 -42 -17 -65 l0 -41 -13 35 c-12 34 -18 28 -15 -15 1 -18 1 -18 -9 -3
-6 9 -17 15 -24 12 -7 -3 -16 2 -19 10 -4 9 -2 16 4 16 6 0 8 7 5 16 -15 40
-19 67 -7 60 6 -4 11 -16 11 -27 0 -12 5 -19 13 -16 13 5 13 9 2 42 -5 16 -2
14 19 -7 22 -25 26 -26 40 -12 9 8 16 20 16 26 0 22 -55 118 -67 118 -9 0 -13
15 -13 44 0 36 -4 46 -20 51 -31 10 -24 22 10 17 22 -3 32 -12 40 -36 5 -17
19 -38 31 -46 47 -34 76 -68 68 -81 -4 -7 -3 -22 4 -33 6 -12 11 -29 12 -38 2
-24 15 -36 15 -15 0 10 5 17 11 17 5 0 7 5 4 10 -3 6 -3 19 0 31 5 16 10 18
21 8 19 -16 18 -59 -2 -59 -8 0 -13 -4 -10 -9 3 -5 -1 -11 -9 -15 -20 -7 -19
-35 5 -89 11 -25 17 -52 14 -61 -5 -12 -2 -15 10 -10 12 5 16 0 16 -19 0 -14
3 -34 7 -44 4 -11 -3 -7 -16 10 -23 27 -41 35 -41 17 0 -5 7 -10 15 -10 9 0
15 -9 15 -25 0 -14 9 -30 20 -37 11 -7 20 -21 20 -31 0 -13 5 -17 15 -13 11 4
15 -2 15 -20 0 -32 18 -66 31 -59 5 4 9 -1 9 -11 0 -13 3 -14 15 -4 12 10 15
9 15 -4 0 -10 4 -15 9 -12 5 3 14 -6 20 -22 6 -15 20 -42 32 -61 13 -22 18
-43 14 -58 -3 -13 -1 -23 5 -23 7 0 10 22 8 60 -2 33 -6 60 -10 60 -5 0 -8 7
-8 15 0 8 -4 15 -8 15 -5 0 -9 31 -9 70 -1 39 3 68 8 64 5 -3 9 -11 9 -19 0
-8 7 -18 16 -23 12 -7 18 -27 20 -73 3 -66 3 -201 1 -302 -2 -42 2 -57 12 -57
10 0 12 -10 7 -37 -3 -21 -7 -60 -10 -88 -2 -27 -7 -65 -11 -84 -6 -25 -5 -32
4 -27 9 6 11 -7 9 -48 -2 -31 -6 -56 -10 -56 -22 0 -48 -43 -48 -79 0 -79 -24
-45 -32 46 -2 20 -18 4 -18 -18 0 -10 -2 -19 -4 -19 -2 0 -10 -2 -18 -5 -10
-4 -13 5 -13 35 0 36 -1 39 -12 24 -10 -14 -13 -14 -13 -3 0 22 17 42 29 35 6
-4 11 -1 11 8 0 8 4 16 9 18 5 2 12 25 16 52 6 35 5 47 -4 42 -7 -4 -11 0 -11
12 0 11 -3 34 -6 51 -6 26 -4 30 10 25 11 -4 14 -14 11 -35 -4 -21 -2 -27 8
-23 18 7 10 52 -14 78 -10 10 -16 23 -13 28 3 4 1 8 -4 8 -5 0 -15 -18 -22
-39 -10 -31 -15 -37 -25 -28 -9 8 -10 18 -3 30 5 10 7 21 4 25 -3 3 -6 0 -6
-6 0 -7 -4 -12 -9 -12 -6 0 -6 12 0 30 6 16 15 28 20 24 7 -4 1 55 -7 64 -1 2
-13 -8 -25 -22 -20 -23 -23 -24 -34 -9 -13 18 -1 73 16 73 4 0 13 10 20 21 8
15 8 19 0 15 -6 -4 -11 -2 -11 5 0 8 -7 6 -19 -5 -19 -17 -20 -17 -30 3 -15
28 -14 36 4 21 20 -17 21 9 0 36 -8 10 -15 35 -16 54 -1 35 -1 34 -10 -9 -5
-24 -6 -48 -3 -53 4 -5 -3 -20 -15 -32 l-21 -23 20 -18 c21 -19 26 -35 12 -35
-5 0 -14 10 -20 23 -9 19 -11 19 -11 3 -1 -15 -4 -16 -16 -6 -8 7 -15 22 -15
33 0 11 3 17 7 14 8 -9 33 12 33 29 0 16 -42 83 -52 84 -5 0 -8 -5 -8 -11 0
-5 -4 -7 -10 -4 -5 3 -10 -1 -10 -9 0 -9 -4 -16 -10 -16 -5 0 -10 10 -10 23 0
15 -3 18 -8 9 -11 -17 -42 -5 -42 17 0 9 -7 24 -14 34 -13 16 -15 16 -30 2
-13 -13 -16 -14 -16 -2 0 8 -11 26 -24 40 -22 23 -26 24 -37 11 -7 -9 -14 -37
-15 -63 -1 -25 0 -40 3 -33 7 20 17 14 31 -18 15 -34 47 -43 37 -10 -4 12 -2
20 5 20 14 0 10 -62 -4 -72 -6 -4 -5 -16 4 -32 7 -14 11 -29 7 -32 -8 -9 -30
15 -45 49 -8 18 -18 27 -26 24 -16 -6 -26 13 -26 48 0 13 -5 27 -11 31 -8 4
-7 9 2 15 7 4 11 11 7 14 -3 3 -13 -1 -21 -10 -20 -19 -27 -19 -27 1 0 14 -3
14 -15 4 -10 -9 -15 -9 -15 -1 0 19 -39 12 -50 -9 -7 -14 -7 -20 0 -20 5 0 10
-7 10 -15 0 -8 -4 -15 -10 -15 -5 0 -10 5 -10 11 0 5 -4 7 -10 4 -5 -3 -10 3
-10 14 0 12 -4 21 -10 21 -5 0 -10 5 -10 10 0 6 6 10 13 9 24 -3 37 1 37 12 0
5 -4 8 -9 5 -5 -4 -21 -2 -35 4 -28 10 -31 5 -16 -34 6 -17 5 -37 -3 -62 -12
-34 -14 -35 -30 -20 -18 18 -37 14 -37 -9 0 -13 -28 -30 -44 -26 -5 1 -6 -5
-3 -13 5 -13 3 -14 -16 -3 -12 6 -24 13 -27 15 -2 2 1 7 8 11 9 5 10 15 4 32
l-9 24 -7 -23 c-6 -18 -11 -20 -26 -12 -30 16 -42 12 -35 -11 9 -29 59 -79 77
-79 23 0 31 -52 10 -67 -24 -19 -50 -16 -57 8 -4 11 -4 23 -2 26 9 8 27 -7 27
-23 0 -8 4 -14 9 -14 8 0 -7 53 -22 77 -4 7 -14 10 -22 6 -9 -3 -15 1 -15 10
0 10 -7 13 -20 10 -13 -4 -27 1 -36 13 -15 18 -15 18 -11 -3 3 -13 1 -25 -4
-28 -4 -3 -4 -17 1 -31 13 -33 13 -77 0 -69 -11 7 -50 -25 -50 -42 0 -7 11
-15 25 -19 21 -5 23 -9 14 -21 -9 -11 -9 -17 0 -26 17 -17 33 9 28 46 -2 17 1
27 10 27 7 0 13 -8 13 -17 0 -15 2 -16 10 -3 7 11 10 6 10 -21 0 -38 -15 -60
-35 -53 -21 9 -26 -12 -10 -42 14 -27 15 -27 15 -6 0 12 5 22 10 22 6 0 10 -7
10 -15 0 -8 5 -15 11 -15 6 0 8 9 4 20 -4 11 -2 20 4 20 6 0 11 -4 11 -10 0
-5 7 -10 15 -10 23 0 18 28 -6 35 -20 7 -20 8 -5 24 16 15 18 15 30 -1 11 -15
13 -15 24 3 16 24 15 29 -3 29 -8 0 -15 5 -15 11 0 6 10 9 23 7 33 -5 35 -44
2 -74 -21 -20 -24 -26 -13 -38 11 -11 15 -11 25 3 11 14 13 13 14 -9 1 -14 1
-32 0 -40 0 -8 4 -5 11 7 14 28 32 30 23 3 -5 -16 -2 -20 19 -20 14 0 26 -5
26 -11 0 -6 -9 -9 -20 -6 -10 3 -24 -1 -30 -8 -6 -8 -19 -11 -28 -8 -15 4 -15
3 -2 -6 13 -10 13 -12 0 -21 -21 -14 -50 -12 -50 3 0 6 -5 4 -11 -5 -5 -10
-16 -18 -23 -18 -8 0 -19 -6 -25 -14 -10 -11 -7 -19 10 -35 13 -12 27 -21 31
-21 5 0 7 -4 4 -9 -3 -5 -15 -7 -25 -4 -10 3 -22 0 -25 -6 -4 -6 0 -11 9 -11
15 0 15 -1 0 -17 -16 -15 -16 -18 -1 -29 10 -7 14 -18 10 -29 -6 -14 -3 -16
14 -11 12 4 23 2 28 -6 4 -6 2 -14 -4 -16 -6 -2 -8 -10 -5 -18 4 -10 0 -12
-12 -7 -15 5 -17 2 -11 -20 3 -15 2 -27 -3 -27 -14 0 -20 37 -8 49 6 6 8 14 4
17 -9 9 -37 -21 -37 -40 0 -9 -5 -16 -11 -16 -5 0 -7 5 -4 10 3 6 2 10 -4 10
-5 0 -13 -5 -17 -11 -3 -6 -24 -9 -45 -7 -22 2 -39 2 -39 0 0 -1 7 -13 16 -26
14 -22 14 -25 -6 -39 -12 -8 -22 -22 -24 -30 -1 -8 -7 -21 -12 -28 -6 -8 -14
-25 -17 -39 l-6 -25 25 29 25 28 -7 -28 c-7 -31 -7 -30 -5 -56 1 -21 31 -13
31 8 0 8 5 14 11 14 5 0 8 4 5 9 -3 5 3 11 14 14 16 4 18 2 10 -13 -14 -26
-13 -29 10 -23 20 5 28 -11 10 -22 -5 -3 -7 -12 -3 -20 3 -9 -1 -15 -11 -15
-9 0 -16 6 -16 13 0 18 -31 18 -48 0 -8 -7 -18 -30 -24 -50 -8 -30 -7 -39 6
-49 20 -14 21 -25 1 -18 -8 4 -15 1 -15 -6 0 -6 4 -9 9 -5 5 3 12 1 16 -5 9
-15 25 -12 25 5 0 8 5 15 11 15 6 0 2 16 -10 36 -27 46 -16 67 12 22 12 -18
20 -37 19 -41 -2 -5 17 -6 40 -3 24 3 37 3 29 0 -9 -5 -10 -9 -2 -13 8 -5 7
-13 -4 -27 -13 -17 -14 -17 -15 -1 0 9 -4 17 -9 17 -17 0 -25 -23 -22 -65 3
-49 -19 -76 -44 -55 -13 10 -15 9 -15 -9 0 -11 -3 -21 -6 -21 -8 0 -30 23 -37
40 -3 8 -5 -1 -4 -20 2 -30 5 -35 25 -33 12 2 22 -2 22 -8 0 -5 4 -7 10 -4 5
3 10 1 10 -4 0 -7 -16 -9 -40 -6 -32 4 -40 2 -40 -10 0 -9 -4 -14 -9 -10 -17
10 -32 -34 -25 -72 5 -27 4 -34 -5 -28 -7 4 -10 12 -8 19 3 7 -7 23 -21 37
-16 15 -23 18 -20 8 4 -10 1 -16 -8 -16 -8 0 -13 6 -10 14 3 7 2 12 -2 11 -14
-4 -52 23 -52 37 0 8 -4 15 -8 15 -13 0 -54 -61 -47 -68 4 -4 10 -1 12 6 3 6
9 12 15 12 6 0 8 -7 4 -15 -4 -11 1 -15 18 -15 27 0 37 -16 25 -45 -6 -15 -8
-16 -8 -4 -1 27 -26 42 -41 25 -6 -9 -9 -20 -5 -25 3 -6 -1 -23 -9 -38 -14
-25 -15 -26 -16 -6 0 12 6 24 13 26 8 4 9 8 2 14 -6 4 -16 20 -22 36 -7 15
-18 27 -25 27 -10 0 -10 -2 1 -9 11 -7 11 -10 -1 -17 -8 -5 -20 -22 -26 -39
-9 -26 -10 -20 -10 43 1 40 -2 75 -5 79 -4 3 -2 12 4 19 12 15 6 44 -9 44 -11
0 -10 -99 1 -117 4 -6 3 -14 -3 -18 -5 -3 -10 -1 -10 5 0 7 -8 9 -20 5 -15 -5
-18 -3 -14 9 3 9 11 16 16 16 6 0 4 7 -3 16 -19 23 -19 42 -1 49 13 5 13 8 4
14 -15 9 -18 36 -9 74 7 25 27 39 27 17 0 -5 -3 -10 -7 -10 -5 0 -8 -11 -8
-25 0 -29 16 -33 36 -8 10 11 10 14 2 9 -15 -9 -16 3 -2 64 12 53 12 89 1 104
-5 6 -5 22 -1 36 4 14 7 21 8 17 1 -4 9 -4 18 2 22 12 62 -27 41 -41 -9 -5
-14 -1 -16 12 -4 25 -22 16 -22 -11 0 -10 6 -19 14 -19 8 0 14 -11 14 -26 0
-16 -5 -23 -13 -20 -19 7 -27 -5 -14 -20 6 -8 8 -22 5 -31 -6 -14 -5 -15 5 -6
10 10 16 8 32 -10 l19 -22 -6 22 c-5 14 -1 32 10 48 14 21 14 25 1 25 -8 0
-17 9 -20 20 -5 21 7 28 18 10 10 -17 25 -11 25 10 0 11 -5 20 -11 20 -6 0 -9
6 -7 12 3 7 -4 20 -15 29 -17 13 -18 20 -9 45 l10 29 1 -27 c1 -28 16 -45 26
-29 3 6 12 8 20 4 10 -3 15 2 15 16 0 12 -5 21 -11 21 -8 0 -8 4 1 14 6 8 19
12 27 9 13 -5 15 -2 10 11 -6 16 -3 17 20 11 16 -4 25 -3 21 1 -4 4 -3 13 3
20 8 10 7 33 -2 84 -12 71 -21 83 -37 54 -7 -13 -10 -10 -15 15 -4 17 -12 31
-18 31 -6 0 -9 -7 -5 -15 6 -16 2 -18 -31 -9 -13 4 -23 14 -23 25 0 10 -4 21
-10 24 -5 3 -10 -1 -10 -9 0 -8 -8 -14 -19 -13 -16 1 -18 5 -9 20 6 12 6 17 0
13 -5 -3 -12 5 -14 19 -4 18 2 31 25 49 16 14 34 23 39 20 4 -3 8 3 8 14 0 10
9 28 20 40 25 27 27 51 3 31 -15 -12 -16 -12 -10 4 5 13 1 17 -19 17 -14 0
-22 -4 -19 -10 3 -6 1 -10 -5 -10 -7 0 -9 8 -4 23 9 31 23 55 24 40 0 -7 6
-10 14 -7 8 3 17 -3 20 -14 5 -14 13 -18 31 -14 28 5 33 -5 11 -22 -8 -6 -17
-21 -20 -32 -5 -17 -1 -23 16 -27 27 -7 36 -1 20 15 -16 16 -15 29 2 22 10 -4
16 5 21 25 4 17 13 31 20 31 7 0 18 14 24 31 14 39 14 42 1 34 -6 -3 -17 0
-25 9 -19 18 -19 26 0 26 10 0 12 6 8 18 -6 15 -5 15 10 3 15 -12 17 -10 17
23 0 24 -5 39 -16 43 -8 3 -13 11 -11 17 3 7 -5 29 -18 49 l-22 37 -1 -30 c0
-16 4 -30 9 -30 5 0 8 -3 7 -7 -1 -5 4 -19 11 -31 14 -26 6 -45 -10 -22 -8 11
-9 10 -4 -7 8 -28 -11 -31 -20 -3 -6 18 -8 19 -31 4 -13 -9 -24 -12 -24 -6 0
6 -3 17 -6 26 -3 9 -1 16 5 16 6 0 11 -7 11 -15 0 -8 4 -15 10 -15 6 0 6 9 1
23 -6 16 -15 21 -35 19 -21 -3 -25 0 -20 15 4 14 4 15 -4 4 -12 -16 1 -67 16
-64 6 2 10 -6 9 -17 -1 -23 -17 -28 -17 -6 0 8 -9 18 -20 21 -11 3 -20 11 -20
16 0 5 -7 9 -15 9 -8 0 -15 -5 -15 -11 0 -5 5 -7 11 -3 9 5 10 -1 4 -22 -16
-58 -16 -105 0 -121 9 -8 13 -18 10 -22 -4 -3 -12 2 -19 12 -17 22 -23 22 -29
0 -4 -14 -5 -12 -6 5 0 12 3 22 8 22 12 0 4 138 -15 227 -3 16 -9 21 -22 16
-16 -6 -16 -5 1 14 9 11 17 30 16 44 l0 24 -9 -22 c-5 -13 -16 -23 -24 -23 -8
0 -16 -11 -18 -27 -2 -14 -10 -29 -18 -31 -8 -3 -12 -1 -8 3 4 5 3 14 -3 22
-9 10 -7 13 7 13 16 0 17 2 4 10 -12 7 -12 12 -2 22 14 14 16 32 2 23 -19 -12
-10 10 11 29 16 13 18 21 10 29 -6 6 -11 16 -11 21 0 6 5 3 11 -6 5 -9 16 -15
24 -12 9 4 15 -3 17 -20 3 -22 5 -23 21 -11 26 19 6 55 -29 55 -17 0 -24 5
-21 13 2 6 7 23 11 37 7 24 7 24 -12 -3 -14 -20 -21 -25 -25 -15 -4 9 -6 7 -6
-5 -1 -11 -6 -15 -12 -11 -8 5 -8 1 0 -13 10 -20 6 -33 -12 -33 -5 0 -7 7 -3
15 6 17 -20 20 -44 5 -10 -6 -20 -3 -34 12 -15 16 -16 22 -5 28 7 5 18 5 25
-1 8 -6 13 -3 18 13 6 22 7 22 21 4 13 -17 15 -17 21 -3 3 10 14 17 23 17 9 0
21 4 26 9 6 5 19 11 30 13 20 5 20 5 1 13 -14 6 -23 4 -30 -7 -8 -13 -16 -7
-48 38 -21 30 -38 57 -38 60 0 3 12 3 26 2 16 -2 29 3 32 11 3 8 0 11 -7 7 -6
-4 -11 -2 -11 5 0 10 -3 10 -12 1 -14 -14 -58 -16 -58 -3 0 5 11 12 25 15 14
4 25 11 25 17 0 7 6 6 18 -2 15 -13 16 -12 4 2 -13 18 -56 34 -46 18 3 -5 -2
-6 -11 -3 -10 4 -13 13 -10 25 4 11 2 19 -3 19 -6 0 -15 14 -21 30 -5 17 -6
30 -1 30 4 0 12 -11 17 -25 l8 -24 12 25 c10 22 10 25 -3 20 -9 -3 -14 -1 -12
7 3 14 -2 17 -32 17 -16 0 -19 -6 -17 -39 1 -21 6 -37 11 -34 5 3 6 0 4 -8 -3
-8 -12 -14 -20 -13 -9 1 -15 -10 -16 -30 l-2 -31 18 23 c17 22 20 23 35 7 16
-15 16 -18 -1 -43 -9 -14 -11 -23 -4 -19 7 5 12 3 12 -4 0 -6 -8 -9 -20 -6
-10 3 -25 -1 -31 -9 -7 -9 -16 -11 -23 -5 -21 18 -72 -47 -64 -83 5 -25 21
-22 35 5 17 33 38 31 38 -3 -1 -16 2 -28 6 -28 14 0 15 -59 1 -65 -27 -10 -34
-5 -28 20 5 18 1 27 -12 34 -27 15 -62 -12 -54 -41 4 -17 2 -20 -13 -14 -14 5
-16 4 -7 -7 9 -10 8 -18 -2 -32 -12 -16 -16 -17 -30 -6 -14 11 -16 11 -16 -3
0 -9 -4 -16 -10 -16 -21 0 -3 60 25 83 6 6 6 10 -2 14 -18 7 -16 23 1 23 8 0
22 14 30 32 20 39 20 42 0 34 -8 -3 -23 2 -32 11 -16 16 -16 16 1 10 25 -9 67
9 67 30 0 11 -3 14 -8 7 -4 -7 -18 -11 -32 -10 -14 1 -30 -2 -36 -6 -8 -6 -11
-1 -10 16 0 13 4 22 7 20 3 -2 6 30 7 71 0 47 -4 73 -10 69 -5 -4 -7 -15 -5
-26 4 -14 1 -18 -12 -13 -20 6 -43 -16 -39 -35 2 -7 -3 -15 -9 -17 -7 -3 -14
4 -15 14 0 10 -2 23 -2 30 -1 6 -5 15 -9 19 -4 4 -7 14 -7 21 0 15 31 14 41
-1 11 -14 29 4 29 29 0 13 -7 28 -15 33 -9 4 -17 17 -19 29 -12 60 -68 114
-82 79 -3 -8 -11 -13 -17 -11 -7 2 -25 6 -41 10 -27 6 -28 5 -15 -11 13 -16
12 -16 -8 -4 -12 8 -20 17 -17 21 2 4 0 10 -6 14 -6 4 -10 -4 -10 -19 0 -14
-8 -29 -17 -35 -10 -5 -14 -13 -10 -18 5 -4 14 0 21 10 18 24 25 21 23 -10 -1
-16 -11 -34 -22 -41 -19 -12 -18 -13 7 -8 15 4 30 2 33 -4 8 -13 35 -13 35 0
0 6 -6 10 -14 10 -7 0 -16 9 -19 20 -4 17 -2 20 14 15 12 -4 19 -2 19 6 0 10
4 10 15 -1 11 -12 12 -24 5 -54 -8 -34 -6 -39 13 -44 20 -5 20 -6 1 -13 -10
-4 -31 -8 -46 -8 -25 -1 -27 2 -22 28 4 16 1 32 -5 35 -6 4 -11 3 -11 -2 0
-13 -53 -10 -63 3 -5 6 -6 1 -2 -10 14 -38 17 -65 8 -65 -5 0 -10 10 -10 22
-1 13 -7 24 -13 26 -5 2 -8 8 -4 13 7 12 4 11 -35 -2 -27 -10 -32 -15 -27 -34
5 -19 0 -25 -23 -33 -24 -9 -31 -7 -36 5 -3 9 0 20 7 25 10 6 9 8 -4 8 -9 0
-20 -5 -23 -10 -9 -15 -25 -2 -25 22 0 17 4 19 28 13 l27 -6 -25 24 c-14 13
-32 22 -40 19 -10 -3 -9 0 3 9 27 22 12 50 -23 43 -25 -5 -28 -3 -32 28 -3 18
-1 36 4 39 6 4 7 16 3 29 -6 18 -3 21 12 18 10 -2 18 -9 18 -15 0 -18 22 -36
34 -29 30 19 1 61 -39 58 -10 -1 -11 0 -2 4 16 8 15 34 -1 34 -8 0 -19 -10
-24 -22 -10 -21 -11 -22 -18 -4 -5 10 -3 21 3 25 6 3 14 19 17 34 6 24 4 29
-22 37 -20 7 -29 18 -31 35 -2 27 31 57 54 48 8 -3 14 1 14 9 0 8 9 23 20 33
11 10 20 27 20 38 0 17 5 19 34 14 32 -5 35 -3 39 21 4 26 4 27 12 4 6 -18 10
-20 21 -11 17 14 19 33 2 23 -8 -5 -9 0 -6 14 7 26 -5 37 -21 19 -6 -8 -23
-12 -40 -9 -27 4 -29 2 -24 -19 l5 -24 -16 23 c-21 27 -12 65 12 60 10 -2 23
3 30 12 11 13 12 12 3 -6 -16 -33 7 -49 30 -20 16 20 17 30 7 89 -6 37 -15 67
-19 67 -5 0 -9 -4 -9 -8 0 -5 -7 -17 -15 -28 -15 -19 -15 -19 -13 1 2 35 -2
55 -11 55 -15 0 -61 -46 -54 -53 3 -4 1 -7 -5 -7 -7 0 -11 -6 -9 -12 1 -7 -3
-12 -8 -11 -6 1 -9 -15 -7 -38 2 -22 9 -39 16 -38 23 3 36 -1 36 -11 0 -5 -19
-8 -42 -6 -24 2 -49 4 -56 5 -21 2 -8 25 19 33 15 5 10 6 -15 2 l-38 -5 22 32
c13 17 32 34 42 37 10 2 15 8 13 13 -3 4 4 17 17 28 33 31 13 38 -33 12 -28
-16 -44 -20 -51 -13 -12 12 -37 5 -58 -17 -8 -9 -31 -17 -50 -18 l-35 -2 30
11 c17 6 32 14 35 18 3 4 20 13 38 21 42 18 41 27 -5 31 -31 2 -38 7 -37 23 0
15 -7 22 -25 23 -14 1 -28 8 -32 14 -5 7 -30 13 -58 14 -27 1 -54 5 -60 9 -6
3 -20 3 -31 0 -15 -5 -20 -2 -20 14 0 17 4 19 28 11 22 -8 93 -8 112 0 3 1 -6
6 -20 10 -22 7 -21 8 13 9 22 1 36 5 32 11 -4 6 6 8 25 5 96 -15 96 -15 78 -1
-24 18 -23 35 2 29 11 -3 32 -1 47 4 15 6 37 7 48 2 11 -4 16 -8 10 -9 -23 -4
-41 -7 -65 -8 -29 -2 -17 -18 20 -27 19 -4 33 1 54 18 16 14 25 30 22 36 -11
18 42 37 64 24 21 -14 30 -8 30 20 0 10 -9 21 -20 24 -11 3 -20 10 -20 15 0 5
9 7 19 3 23 -7 32 19 17 53 -10 23 -26 30 -26 11 0 -6 -6 -9 -12 -6 -7 2 -12
9 -11 15 2 6 -4 29 -12 52 -9 27 -10 38 -3 34 7 -5 9 -2 5 9 -8 22 15 27 35 6
10 -10 12 -21 7 -26 -11 -11 -1 -43 13 -43 5 0 7 -4 4 -8 -6 -10 38 -52 54
-52 6 0 10 11 10 25 0 14 3 25 8 25 4 0 7 -19 8 -41 0 -24 6 -46 15 -53 16
-13 35 -41 48 -72 5 -12 21 -24 35 -28 14 -3 26 -11 26 -16 0 -6 5 -10 11 -10
6 0 9 10 7 23 -2 16 -9 21 -26 20 -14 -2 -22 3 -22 12 0 8 -5 15 -11 15 -12 0
-2 42 13 51 5 3 9 12 8 20 -4 29 1 37 19 32 10 -3 22 0 25 6 4 6 0 11 -8 11
-9 0 -16 5 -16 11 0 7 10 9 25 7 29 -6 33 6 8 22 -14 8 -14 10 -3 9 31 -3 40
2 40 21 0 11 -7 23 -16 27 -8 3 -13 12 -9 21 4 12 3 12 -8 3 -11 -9 -17 -8
-26 2 -13 16 -5 28 14 21 7 -3 14 5 17 20 5 23 2 25 -19 22 -29 -6 -44 21 -21
38 9 7 18 21 20 31 3 17 -2 20 -34 18 -30 -2 -36 1 -31 13 3 9 0 20 -8 25 -24
15 -35 9 -14 -8 18 -14 18 -15 2 -9 -10 3 -28 6 -38 6 -11 0 -18 4 -15 9 3 5
-3 11 -14 14 -36 9 -51 -52 -20 -83 17 -17 17 -19 2 -23 -12 -3 -11 -5 5 -6
12 0 25 -6 28 -11 4 -6 11 -8 16 -5 5 4 9 1 9 -4 0 -14 -27 -14 -35 -1 -3 5
-12 7 -19 4 -8 -3 -17 3 -20 14 -7 22 -32 36 -48 26 -5 -3 -7 -13 -4 -21 5
-11 2 -13 -10 -9 -8 3 -27 6 -40 6 -14 0 -23 3 -21 8 3 4 1 17 -3 28 -7 17
-20 24 -59 29 -28 4 -51 11 -51 16 0 5 5 9 10 9 6 0 10 11 10 25 0 14 5 25 10
25 6 0 10 -9 10 -20 0 -26 17 -25 41 3 11 12 19 18 18 12 -3 -23 2 -28 14 -13
6 9 30 18 51 20 45 4 55 18 30 43 -15 14 -15 18 -3 26 8 5 23 9 35 9 26 0 44
18 37 37 -5 13 -3 13 16 1 19 -12 20 -14 5 -25z m874 -243 c12 -13 13 -13 8 3
-7 21 7 22 24 2 11 -13 15 -13 21 -3 7 10 9 9 9 -3 0 -9 8 -23 17 -30 15 -12
16 -12 11 8 -5 19 -2 22 23 20 31 -2 48 -26 27 -38 -7 -5 -14 -14 -14 -21 -1
-7 -2 -19 -3 -25 0 -7 -7 -13 -15 -13 -8 0 -24 -12 -35 -26 -14 -18 -21 -22
-21 -11 0 17 -24 30 -57 32 -27 1 -64 35 -47 42 7 2 10 12 7 22 -3 10 0 22 7
26 8 5 6 11 -7 21 -17 13 -16 14 7 11 14 -1 31 -9 38 -17z m528 -21 c10 -20
22 -29 38 -29 25 0 50 -22 38 -34 -4 -4 1 -12 11 -17 9 -6 17 -16 17 -24 0
-25 23 -65 38 -65 8 0 12 -6 8 -15 -3 -9 0 -15 9 -15 8 0 15 -6 15 -12 0 -9 3
-8 10 2 8 12 10 12 16 -3 4 -10 2 -23 -5 -30 -8 -8 -11 -8 -11 1 0 7 -5 12
-10 12 -6 0 -5 -8 2 -20 10 -15 10 -22 0 -32 -9 -9 -12 -9 -12 3 0 17 -50 69
-50 53 -1 -5 -17 9 -36 31 -32 36 -39 32 -9 -5 19 -23 27 -52 13 -44 -24 15
-48 39 -48 47 0 10 -56 58 -84 72 -13 7 -21 21 -22 38 -1 15 -5 31 -9 35 -5 4
-5 -2 -1 -13 6 -18 5 -17 -14 3 -30 32 -17 41 20 14 31 -23 50 -28 50 -13 0 5
3 16 6 24 3 8 -4 24 -16 35 -24 22 -19 45 6 35 8 -3 21 -18 30 -34z m167 -66
c113 -115 171 -188 162 -203 -3 -5 0 -7 8 -4 12 4 74 -73 106 -133 10 -20 9
-22 -6 -16 -16 6 -16 5 -4 -10 8 -10 11 -20 8 -24 -4 -3 2 -18 13 -33 11 -16
20 -36 20 -45 0 -9 4 -14 9 -10 5 3 13 -4 16 -16 8 -24 36 -59 47 -59 14 0 9
27 -7 40 -8 7 -15 20 -15 29 0 10 7 4 18 -14 24 -40 34 -68 22 -60 -6 3 -10
-2 -10 -12 0 -15 -4 -14 -20 7 -11 14 -20 19 -20 12 0 -8 9 -25 20 -39 11 -14
20 -34 20 -44 0 -10 5 -21 12 -25 7 -4 8 -3 4 4 -4 7 -3 12 2 12 6 0 15 -14
21 -32 l11 -31 -21 19 c-22 19 -22 19 -10 -3 6 -13 16 -23 22 -23 6 0 9 -5 7
-11 -4 -12 -23 -13 -24 -1 -1 16 -38 82 -46 82 -14 0 -9 -21 12 -50 11 -16 17
-31 12 -34 -5 -3 -20 14 -35 37 -15 22 -28 38 -28 34 -1 -4 -3 -11 -4 -17 -1
-5 -3 -13 -4 -17 -1 -7 -38 33 -45 50 -3 8 -8 7 -15 -3 -9 -13 -13 -12 -29 5
-10 11 -21 27 -24 36 -4 9 -19 20 -35 24 -15 3 -31 12 -35 18 -4 6 -10 8 -15
4 -4 -5 -1 -12 6 -16 8 -6 11 -17 6 -32 -3 -13 -3 -19 2 -14 12 15 56 12 61
-4 3 -9 0 -11 -8 -6 -9 6 -10 1 -5 -16 10 -33 25 -48 25 -24 0 10 3 16 6 12 3
-3 3 -19 -1 -35 -8 -37 -45 -52 -46 -19 0 21 -1 21 -9 2 -5 -11 -9 -15 -9 -10
-1 6 -6 3 -11 -5 -8 -13 -10 -13 -10 2 0 23 -20 34 -31 17 -7 -12 -9 -12 -9 0
0 7 -6 11 -15 7 -8 -3 -15 -1 -15 4 0 4 -15 13 -33 19 -41 14 -62 44 -42 61
16 13 17 100 2 100 -4 0 -18 -5 -30 -12 -20 -10 -21 -10 -8 5 7 10 22 17 32
17 19 0 19 1 2 27 -10 15 -33 43 -52 61 -18 18 -30 36 -26 40 4 4 10 1 12 -5
5 -14 33 -18 33 -5 -1 22 -13 51 -21 46 -5 -3 -9 -1 -9 5 0 17 15 20 34 6 11
-9 16 -20 12 -30 -8 -22 11 -56 28 -49 23 9 30 -16 10 -32 -18 -14 -18 -14 3
-4 27 13 29 60 3 53 -9 -2 -23 3 -31 13 -13 16 -12 17 14 10 19 -4 26 -3 22 4
-3 5 -1 10 4 10 6 0 11 -4 11 -10 0 -5 7 -10 15 -10 10 0 14 -9 11 -29 -2 -18
1 -28 8 -25 14 5 30 -6 44 -31 6 -11 12 -14 12 -7 0 6 -10 22 -22 34 -20 20
-27 42 -29 91 0 9 -4 17 -10 17 -5 0 -9 5 -9 11 0 5 5 7 10 4 6 -3 10 -2 10 3
0 5 -9 12 -20 15 -22 6 -28 27 -7 27 7 0 31 -13 53 -30 49 -37 56 -37 38 -1
-20 40 -39 54 -66 47 -13 -3 -17 -3 -10 0 6 3 12 14 12 25 0 24 9 24 27 2 13
-17 14 -17 11 2 -3 13 -11 20 -25 19 -12 0 -20 3 -17 8 9 13 -40 75 -56 71
-10 -3 -11 -2 -4 4 14 10 -1 57 -16 48 -5 -3 -10 -1 -10 5 0 19 34 6 46 -18
14 -28 27 -42 18 -19 -5 13 -2 16 10 11 30 -11 16 6 -26 33 -24 15 -50 36 -59
45 -9 10 -18 15 -21 12 -3 -2 -3 8 0 23 5 25 4 27 -11 14 -10 -7 -17 -12 -18
-10 0 2 -2 14 -3 27 -2 12 -11 29 -22 37 -10 8 -14 15 -8 15 5 0 58 -48 117
-107z m-2694 -103 c0 -10 -2 -11 -6 -2 -8 21 -23 13 -23 -12 0 -14 -10 -32
-22 -40 -15 -11 -18 -16 -8 -16 13 0 13 -2 1 -9 -8 -5 -12 -19 -9 -34 4 -20 1
-27 -13 -29 -11 -2 -16 -8 -11 -15 10 -15 36 -21 37 -7 0 21 75 76 95 71 10
-3 21 0 23 6 4 14 66 -13 63 -27 -2 -6 -1 -8 1 -3 3 4 11 7 19 7 11 0 14 -9
12 -32 -2 -23 -8 -33 -19 -33 -9 0 -30 -15 -47 -33 -27 -28 -28 -33 -14 -41
15 -8 15 -12 3 -23 -10 -9 -12 -10 -7 0 4 6 2 12 -3 12 -6 0 -11 -11 -11 -24
0 -29 -11 -38 -30 -25 -13 7 -12 9 3 9 9 0 17 5 17 10 0 6 -9 10 -19 10 -11 0
-22 6 -25 13 -5 10 -7 10 -12 0 -8 -18 -22 -16 -27 5 -3 13 -6 11 -15 -11 -7
-16 -9 -34 -5 -40 12 -19 9 -31 -11 -48 -10 -9 -20 -29 -22 -45 -2 -16 -6 -42
-10 -57 -5 -21 -2 -31 12 -41 16 -12 16 -16 5 -30 -12 -14 -11 -19 5 -37 11
-12 18 -23 17 -25 -8 -13 0 -24 16 -24 11 0 23 5 26 10 3 6 1 10 -4 10 -6 0
-11 5 -11 11 0 8 4 8 15 -1 8 -6 18 -9 23 -6 4 3 6 -8 4 -25 -3 -22 -9 -29
-28 -29 -12 0 -26 -5 -30 -11 -4 -8 -9 -7 -15 2 -6 11 -9 9 -15 -5 -4 -11 -2
-21 7 -27 8 -5 15 -4 17 1 2 6 8 8 12 5 11 -7 2 -87 -11 -100 -12 -12 -12 -28
1 -20 6 3 10 -3 10 -14 0 -10 5 -21 12 -23 6 -2 8 -10 4 -16 -10 -17 -26 -5
-26 19 0 27 -50 27 -57 -1 -3 -11 -9 -20 -14 -20 -5 0 -9 9 -9 20 0 19 -1 19
-18 3 -27 -28 -27 -113 1 -113 9 0 12 -15 11 -47 -1 -27 2 -53 7 -59 13 -16
-13 -46 -44 -47 -16 -1 -27 -8 -28 -17 0 -10 -2 -11 -6 -2 -6 14 -33 16 -33 2
0 -5 -7 -10 -16 -10 -11 0 -15 6 -11 19 4 15 0 18 -18 16 -17 -1 -22 2 -17 13
3 9 1 13 -5 9 -6 -4 -17 1 -24 9 -12 15 -14 14 -19 -6 -3 -13 -12 -26 -20 -28
-8 -3 -12 -2 -9 2 4 4 -4 19 -17 33 -30 32 -31 47 -3 33 27 -15 36 -6 15 15
-9 9 -14 21 -11 26 4 5 1 9 -4 9 -6 0 -11 -5 -11 -12 0 -6 -2 -9 -5 -6 -4 3
-3 17 1 32 6 27 29 35 38 14 3 -9 9 -8 20 6 15 19 16 19 23 -2 6 -16 12 -19
23 -12 13 9 13 10 0 10 -8 0 -4 6 10 13 20 11 24 20 22 46 -2 27 0 31 14 23
10 -5 19 -23 20 -40 2 -17 5 -37 6 -44 2 -8 -5 -12 -16 -10 -18 3 -18 2 -3
-13 11 -10 24 -14 38 -10 18 6 20 3 17 -22 -2 -23 0 -27 17 -25 l20 4 -20 -16
c-17 -13 -18 -17 -5 -26 23 -15 27 -12 35 17 4 19 2 29 -9 35 -10 6 -14 19
-12 38 3 24 0 30 -16 30 -14 0 -17 5 -12 24 4 17 1 27 -11 33 -13 7 -17 26
-18 76 -1 36 -6 69 -9 73 -4 4 0 13 9 19 13 10 21 10 35 1 22 -13 22 -20 2
-40 -14 -15 -14 -18 2 -33 17 -17 18 -17 11 0 -3 9 -2 17 3 17 17 0 16 35 -3
68 -10 17 -14 32 -9 32 6 0 13 -4 17 -10 3 -5 12 -7 20 -4 8 4 12 10 9 15 -11
18 6 48 24 42 14 -5 15 -3 5 8 -18 18 -16 34 1 20 11 -9 16 -9 21 0 4 6 2 15
-4 19 -7 4 -11 13 -10 21 1 8 -3 27 -10 43 -9 22 -14 26 -25 17 -11 -9 -15 -9
-18 0 -2 7 -12 9 -25 5 -14 -4 -20 -12 -16 -22 3 -8 -1 -14 -9 -14 -24 0 -28
11 -14 39 32 66 -7 93 -61 41 -28 -26 -31 -33 -23 -60 7 -24 6 -30 -7 -30 -9
0 -13 -6 -10 -15 4 -8 2 -17 -3 -20 -18 -11 -10 -23 10 -18 11 3 20 10 20 15
0 6 11 7 26 4 17 -5 23 -3 19 4 -8 13 5 13 25 0 13 -8 12 -10 -2 -10 -22 0
-23 -14 -2 -45 14 -22 14 -25 1 -25 -8 0 -29 -3 -46 -6 -18 -4 -31 -3 -30 2 4
21 -2 35 -12 28 -6 -3 -15 -1 -19 6 -4 7 -13 9 -19 6 -19 -12 -12 -26 14 -26
25 0 35 -23 15 -35 -5 -3 -10 2 -10 11 0 10 -3 14 -7 10 -5 -4 -6 -9 -3 -10 3
-1 -8 -19 -23 -39 -24 -32 -26 -40 -16 -59 6 -13 8 -20 4 -16 -5 4 -15 3 -22
-4 -12 -10 -14 -6 -8 25 5 26 4 37 -5 37 -7 0 -10 -6 -7 -14 3 -7 -1 -24 -10
-36 -12 -17 -13 -27 -4 -46 6 -15 7 -24 1 -24 -6 0 -10 -6 -10 -12 1 -7 9 -3
19 10 25 29 33 28 21 -2 -5 -13 -6 -27 -2 -30 3 -4 -4 -9 -16 -13 -12 -3 -22
-11 -22 -17 0 -17 -20 -35 -34 -30 -6 2 -11 19 -11 37 1 25 -3 33 -17 34 -18
2 -25 -13 -9 -19 5 -1 6 -20 2 -40 -4 -27 -10 -35 -19 -29 -9 6 -10 14 -3 34
7 17 7 28 1 32 -6 4 -10 17 -10 31 0 13 -5 24 -10 24 -6 0 -10 6 -9 13 4 29
-3 37 -31 37 -29 0 -40 -13 -20 -23 6 -3 5 -4 -2 -3 -21 4 -19 23 5 52 13 16
29 49 36 74 11 36 15 41 21 26 4 -14 9 -16 14 -8 12 20 28 13 21 -9 -5 -14 -4
-19 4 -15 7 5 9 1 5 -8 -4 -10 -1 -16 9 -16 8 0 20 13 25 30 8 21 16 28 26 24
9 -3 16 -12 16 -19 0 -25 22 -28 44 -5 11 13 16 20 9 16 -9 -5 -11 7 -7 48 3
32 1 57 -6 61 -5 3 -10 -2 -11 -12 0 -10 -3 -13 -6 -5 -2 6 -11 12 -20 12 -8
0 -13 6 -10 13 2 6 12 11 22 9 14 -3 16 1 12 19 -4 15 4 36 25 67 17 25 26 42
20 38 -6 -3 -4 8 5 25 10 20 18 27 23 19 5 -8 14 -2 29 18 15 22 18 31 9 34
-9 3 -5 17 14 46 30 45 65 63 82 40 8 -10 21 -12 44 -7 40 8 54 -8 15 -17 -28
-7 -73 -41 -73 -55 0 -4 14 -6 31 -5 16 1 32 -1 35 -6 3 -5 10 -6 15 -3 11 7
11 -1 3 -44 -4 -17 -13 -31 -20 -31 -14 0 -16 -5 -18 -52 -2 -34 1 -35 15 -5
10 21 23 46 44 77 5 8 8 22 7 30 -1 9 7 26 19 39 l21 22 -21 6 c-18 5 -27 26
-22 56 0 4 -6 7 -14 7 -13 0 -14 4 -4 21 14 26 3 88 -17 96 -22 8 -16 33 9 33
28 0 81 45 74 64 -3 7 1 23 9 35 13 17 18 19 34 8 11 -6 20 -19 19 -27z m442
-282 c-5 -15 -21 -26 -45 -32 -20 -5 -35 -14 -33 -20 5 -14 80 -12 85 3 2 6 8
11 14 11 6 0 6 -6 -2 -15 -10 -12 -10 -18 0 -30 13 -15 19 -15 155 0 36 5 38
4 22 -9 -18 -14 -18 -14 2 -21 12 -3 21 -11 21 -16 0 -11 -17 -12 -24 -1 -3 5
-21 9 -41 10 -20 1 -41 5 -47 8 -8 5 -9 1 -4 -11 7 -20 -8 -35 -37 -35 -13 0
-16 5 -12 23 5 19 2 23 -17 23 -13 0 -31 -10 -41 -23 -10 -13 -24 -23 -32 -23
-7 0 -15 -5 -17 -10 -2 -6 -18 -13 -37 -15 -29 -4 -33 -2 -28 16 5 17 2 20
-13 16 -13 -3 -17 0 -13 9 8 20 -3 17 -26 -8 -11 -11 -18 -25 -15 -30 3 -4 -2
-8 -10 -8 -9 0 -16 -5 -16 -11 0 -6 -7 -9 -15 -5 -8 3 -15 1 -15 -5 0 -6 -4
-8 -9 -5 -16 10 -22 -25 -7 -40 18 -17 26 -18 26 -1 0 7 13 14 30 15 39 3 39
-16 0 -30 -33 -11 -35 -33 -3 -32 13 0 19 -6 18 -20 -2 -31 -21 -30 -45 4 -19
27 -50 45 -35 20 3 -5 -2 -10 -13 -10 -10 0 -24 -11 -30 -25 -14 -30 -32 -33
-32 -6 0 11 -4 23 -10 26 -17 10 -11 25 10 25 11 0 20 5 20 11 0 7 -10 9 -27
4 -23 -5 -25 -4 -13 10 7 8 9 19 5 23 -4 4 -10 1 -12 -5 -9 -25 -22 -12 -18
17 2 17 -1 30 -7 30 -18 0 46 54 66 55 11 1 21 -6 23 -16 7 -27 21 -14 18 16
-2 14 1 25 6 25 6 0 7 5 3 11 -3 6 -19 9 -35 7 -34 -5 -42 21 -9 29 11 3 20 9
20 14 0 20 2 24 16 32 17 9 37 0 29 -14 -4 -5 -1 -9 6 -9 7 0 9 8 6 21 -5 18
-2 20 31 16 20 -3 41 -13 48 -22 11 -14 13 -12 19 14 4 17 11 31 17 31 6 0 8
-8 6 -18 -4 -15 1 -18 28 -19 20 -1 31 3 28 9 -4 6 6 8 25 5 26 -4 31 -2 31
14 0 10 4 19 10 19 5 0 6 -9 1 -22z m-555 -597 c-3 -5 1 -14 9 -21 12 -10 15
-10 16 1 0 8 5 3 10 -11 6 -14 17 -28 25 -33 15 -9 19 -53 5 -61 -5 -3 -12
-27 -16 -52 -5 -35 -12 -48 -27 -52 -20 -5 -20 -6 -3 -19 11 -7 13 -13 7 -13
-7 0 -11 -12 -11 -27 1 -17 3 -21 6 -10 2 9 9 17 14 17 11 0 11 -1 -1 -37 -8
-21 -7 -44 3 -84 13 -50 16 -54 46 -57 26 -3 30 -6 21 -17 -9 -10 -7 -21 7
-46 45 -80 52 -96 53 -126 0 -22 -6 -37 -20 -45 -26 -17 -25 -34 1 -41 15 -4
20 -11 15 -22 -7 -20 12 -91 28 -105 7 -5 25 -11 41 -14 29 -5 29 -4 10 10
-20 15 -19 15 5 12 18 -2 24 -8 22 -22 -5 -30 8 -87 19 -81 12 8 11 -2 -3 -28
-11 -21 -11 -21 -19 -2 -7 19 -8 19 -8 -2 -1 -14 -7 -23 -17 -23 -11 0 -14 6
-9 21 4 13 3 19 -2 16 -14 -9 -53 30 -53 51 0 14 -2 15 -10 2 -9 -15 -9 -16
-25 35 -2 8 0 15 5 15 6 0 8 10 6 23 -3 12 -5 25 -5 30 -1 4 -8 7 -16 7 -12 0
-15 -9 -12 -36 3 -22 0 -37 -8 -40 -7 -3 -10 -16 -7 -32 4 -21 2 -25 -8 -15
-8 7 -12 38 -12 77 0 36 -4 66 -8 66 -9 0 -6 57 4 67 11 11 7 23 -8 23 -24 0
-29 20 -10 41 17 19 17 22 2 49 -9 16 -14 37 -12 47 3 10 -2 27 -11 38 -16 20
-16 19 -11 -5 5 -23 4 -23 -6 3 -13 30 -23 34 -32 12 -3 -8 0 -15 7 -15 19 0
-15 -20 -35 -20 -17 0 -27 24 -20 51 2 9 17 20 34 23 20 4 27 10 22 18 -4 7
-9 26 -11 43 -2 16 -8 32 -13 33 -6 2 -10 13 -10 24 0 11 -8 22 -20 25 -11 3
-20 9 -20 14 0 5 7 6 15 3 10 -4 15 0 15 15 0 12 6 21 13 22 6 1 1 4 -12 8
-36 10 -39 31 -4 31 24 0 32 6 43 35 8 19 17 35 21 35 3 0 9 18 13 39 3 22 12
42 18 45 7 4 3 4 -9 2 -17 -3 -23 1 -23 15 0 10 -4 19 -10 19 -5 0 -10 10 -10
21 0 18 -2 19 -15 9 -18 -15 -20 -5 -2 15 13 16 32 20 23 6z m1384 -730 c0
-13 2 -13 9 -3 7 11 9 11 14 -2 6 -15 -9 -22 -36 -17 -4 1 -3 -8 3 -18 7 -13
16 -18 27 -14 13 5 15 2 11 -15 -4 -12 -2 -19 3 -16 5 3 7 -5 5 -18 -3 -13 -5
-28 -5 -35 -1 -7 -17 -15 -37 -19 -27 -5 -35 -11 -31 -24 3 -13 -1 -16 -19
-12 -13 2 -24 11 -24 19 0 8 -8 13 -17 11 -10 -2 -17 3 -15 10 1 7 -9 12 -24
12 -24 0 -26 3 -21 28 6 31 0 47 -23 54 -10 3 -6 9 15 19 21 10 30 22 30 38 0
13 6 26 13 28 6 3 12 -1 12 -7 0 -10 4 -9 15 0 13 11 18 10 29 -5 12 -17 14
-16 20 10 7 26 8 27 26 10 11 -10 20 -25 20 -34z m1358 -49 c3 -21 32 -32 32
-12 0 6 5 10 11 10 5 0 8 -4 4 -9 -3 -5 6 -30 20 -55 30 -53 30 -57 8 -49 -10
4 -14 2 -10 -4 4 -6 0 -13 -8 -17 -8 -3 -15 -10 -15 -17 0 -6 7 -9 15 -5 8 3
15 1 15 -4 0 -6 -7 -10 -15 -10 -8 0 -15 -5 -15 -11 0 -5 -4 -8 -9 -5 -5 4 -7
-3 -4 -14 3 -11 3 -20 1 -20 -13 0 -48 39 -48 54 0 27 -22 45 -45 36 -19 -7
-20 -4 -17 31 2 22 8 42 13 45 5 3 4 14 -2 25 -6 12 -8 23 -5 26 8 9 28 -48
22 -64 -3 -7 1 -13 8 -13 8 0 16 -5 18 -10 2 -6 3 19 3 55 0 39 4 64 10 62 6
-2 11 -13 13 -25z m489 8 c-3 -11 -1 -20 4 -20 5 0 9 -12 9 -26 0 -19 -4 -25
-15 -20 -21 8 -29 -17 -15 -43 7 -14 7 -21 0 -21 -17 0 -11 -36 9 -54 18 -16
20 -16 36 6 16 23 16 23 12 -17 -3 -21 -12 -44 -21 -51 -9 -6 -16 -21 -16 -33
0 -12 -6 -21 -15 -21 -9 0 -12 -6 -8 -17 3 -10 -6 -4 -20 12 -15 17 -28 35
-28 40 -3 22 4 40 18 48 11 7 11 12 3 22 -7 8 -9 18 -7 22 7 12 -15 38 -35 41
-12 2 -18 -4 -18 -17 0 -29 -17 -35 -26 -9 -4 15 -1 25 11 34 10 8 21 11 25 9
11 -6 20 20 20 55 0 48 9 60 35 50 20 -7 25 -5 30 10 8 26 19 26 12 0z m-3115
-618 c-18 -6 -15 -52 3 -52 8 0 15 4 15 8 0 5 18 7 40 6 45 -2 83 -36 76 -67
-2 -10 0 -31 4 -48 8 -26 5 -34 -19 -59 l-27 -29 -14 22 c-12 19 -11 21 2 9
12 -10 17 -10 26 0 8 10 2 14 -24 15 -26 2 -32 0 -28 -12 4 -11 2 -13 -9 -9
-9 3 -18 12 -21 21 -4 8 -13 13 -21 9 -18 -6 -57 23 -48 37 3 5 -1 14 -8 19
-11 7 -11 11 -1 15 6 2 9 9 6 14 -3 6 -16 4 -30 -6 -13 -8 -24 -14 -25 -13 -5
17 -3 58 3 58 4 0 8 -7 8 -16 0 -8 5 -12 10 -9 14 9 12 21 -6 39 -8 9 -11 16
-6 16 5 0 17 -9 27 -20 23 -25 38 -8 24 27 -7 19 -5 23 11 23 11 0 20 5 20 11
0 5 5 7 12 3 9 -6 9 -9 0 -12z m2780 -286 c7 5 9 2 5 -9 -3 -9 1 -18 11 -22 9
-3 18 -1 20 4 2 6 10 11 17 11 10 0 12 -10 9 -37 l-5 -38 20 24 21 23 0 -22
c0 -13 -8 -24 -19 -27 -12 -3 -31 -31 -50 -71 -20 -46 -30 -59 -30 -43 -1 17
-5 21 -13 15 -16 -11 -72 -12 -76 -1 -5 15 -2 27 8 27 6 0 10 -8 11 -17 0 -15
2 -15 9 2 12 28 13 55 1 37 -7 -11 -9 -11 -14 2 -4 9 -4 23 -1 31 4 8 1 15 -5
15 -13 0 -15 36 -2 44 5 4 12 0 14 -6 3 -8 6 -6 6 5 1 10 8 32 17 49 14 27 18
29 26 15 5 -10 14 -14 20 -11z m-3336 -476 c9 -22 20 -40 26 -40 5 0 20 -12
33 -27 l24 -28 1 27 c0 15 4 29 8 32 15 9 87 -35 99 -60 6 -13 7 -22 2 -18
-15 9 -10 -23 6 -36 8 -7 15 -16 15 -21 0 -16 -29 -9 -39 9 -6 9 -11 13 -11 8
0 -5 -9 -1 -20 9 -19 18 -20 17 -20 -5 0 -12 8 -29 18 -36 15 -12 15 -13 0 -8
-9 3 -27 0 -40 -7 -21 -11 -22 -11 -9 4 19 24 6 47 -26 47 -27 -1 -27 -1 -9
-15 19 -15 19 -15 -2 -15 -12 0 -26 9 -33 21 -9 17 -18 20 -55 17 -29 -2 -44
1 -44 9 0 6 6 13 13 16 10 4 10 7 0 18 -14 14 -17 39 -5 39 4 0 12 -10 17 -22
10 -23 55 -38 55 -19 0 6 -10 20 -22 31 -18 16 -31 20 -55 15 -36 -7 -43 6
-17 32 14 14 16 14 30 -3 14 -18 15 -18 5 3 -14 27 -14 53 -1 53 6 0 10 -7 10
-16 0 -8 5 -12 11 -9 6 4 8 13 5 21 -3 8 -1 14 4 14 6 0 17 -18 26 -40z m2694
-25 c0 -8 10 -21 22 -29 19 -14 23 -14 33 1 11 15 13 15 24 -4 11 -22 6 -53
-10 -53 -5 0 -9 -5 -9 -11 0 -14 -47 -59 -61 -59 -6 0 -5 -8 2 -21 7 -14 7
-19 0 -15 -6 4 -28 -12 -50 -35 -21 -23 -43 -39 -49 -35 -5 3 -13 -1 -16 -10
-4 -9 -9 -14 -13 -11 -3 4 -1 12 4 19 15 20 24 50 13 43 -7 -4 -9 3 -6 19 3
19 -1 29 -15 36 -28 16 -23 29 9 24 36 -6 55 25 58 98 2 63 2 61 14 53 5 -3 6
-15 1 -28 -9 -25 -4 -50 10 -41 5 3 9 -2 9 -10 0 -9 4 -16 9 -16 15 0 21 45
11 79 -5 19 -5 29 1 26 5 -4 9 -12 9 -20z"/>
<path d="M3056 3767 c-13 -13 -21 -16 -24 -9 -4 14 -32 16 -32 3 0 -5 -8 -11
-17 -13 -13 -3 -8 -9 19 -22 38 -18 79 -56 61 -56 -6 0 -16 7 -23 15 -13 16
-30 11 -30 -8 0 -12 55 -50 75 -51 29 -3 53 -19 63 -41 13 -27 42 -34 42 -10
0 9 -6 12 -15 9 -11 -4 -13 -2 -9 9 3 8 1 18 -5 22 -6 3 -11 11 -11 16 0 6 4
7 10 4 5 -3 17 -2 25 3 14 7 13 11 -5 32 -11 13 -20 27 -20 32 0 5 -5 6 -10 3
-6 -3 -8 -16 -4 -28 4 -18 1 -23 -15 -23 -16 0 -20 5 -15 19 4 12 2 17 -4 13
-5 -3 -13 2 -16 11 -6 15 -8 15 -16 3 -7 -11 -9 -9 -7 8 1 12 6 21 12 18 7 -2
12 1 12 8 0 8 -10 11 -26 8 -23 -5 -25 -3 -12 11 7 9 17 14 22 11 5 -3 6 2 3
10 -3 9 -7 16 -8 15 0 0 -10 -10 -20 -22z"/>
<path d="M2885 3677 c5 -27 56 -87 74 -87 4 0 8 -14 9 -31 1 -30 0 -30 -19
-13 -10 9 -22 14 -26 11 -3 -4 -13 -1 -21 6 -13 10 -15 9 -9 -6 6 -15 3 -17
-13 -12 -16 5 -19 3 -13 -12 4 -10 11 -22 17 -26 6 -5 1 -7 -12 -4 -18 4 -22
2 -18 -10 3 -8 6 -16 6 -18 0 -2 8 -1 19 2 10 3 22 0 25 -6 4 -6 16 -11 27
-11 10 0 19 -6 19 -12 0 -9 4 -8 10 2 10 16 14 8 10 -24 -2 -18 -1 -18 14 -3
11 11 15 26 11 45 -4 24 -1 31 15 35 12 3 24 -1 30 -11 8 -15 9 -15 10 2 0 19
1 19 20 1 24 -22 11 -36 -27 -29 -21 4 -22 2 -11 -15 9 -15 8 -22 -6 -36 -21
-21 -13 -33 9 -15 14 11 19 10 38 -10 12 -12 16 -20 10 -16 -7 4 -13 2 -13 -3
0 -12 11 -14 50 -11 22 2 23 0 10 -16 -13 -15 -13 -18 -1 -22 8 -3 27 -18 42
-34 17 -19 34 -28 45 -26 16 4 15 7 -8 18 -30 14 -36 34 -15 44 6 3 2 3 -9 1
-26 -7 -31 4 -40 90 -4 36 -11 65 -17 65 -5 0 -7 13 -3 32 3 17 4 29 0 26 -3
-4 -25 11 -47 33 -45 42 -115 82 -128 73 -14 -8 -49 15 -60 39 -8 19 -9 18 -4
-6z"/>
<path d="M2760 3540 c-12 -8 -13 -13 -3 -29 7 -11 10 -27 7 -36 -3 -8 -1 -15
4 -15 6 0 14 -9 17 -20 5 -15 15 -20 40 -20 37 0 54 -15 36 -33 -8 -8 -11 -8
-11 1 0 7 -11 12 -25 12 -19 0 -23 -4 -19 -17 5 -14 4 -15 -4 -5 -17 24 -46
10 -48 -23 0 -17 -4 -41 -8 -55 -5 -20 -2 -31 14 -45 22 -19 22 -19 36 0 17
23 18 35 3 35 -6 0 -16 6 -24 13 -11 12 -11 16 3 28 25 21 58 19 59 -4 2 -15
-3 -18 -23 -14 -23 4 -24 3 -8 -14 9 -10 23 -15 31 -12 9 4 22 -2 29 -12 8
-10 14 -13 14 -7 0 25 17 11 18 -15 1 -16 5 -41 10 -58 l9 -30 11 27 c10 25
14 27 37 16 21 -9 29 -9 42 5 14 14 14 17 0 31 -8 9 -23 13 -31 10 -15 -6 -20
6 -19 44 1 6 -3 12 -8 12 -6 0 -5 8 1 19 13 26 14 23 -18 59 -29 32 -50 43
-36 20 4 -7 -4 -3 -18 10 -13 12 -32 22 -41 22 -13 0 -17 9 -17 33 0 28 -4 33
-22 33 -18 -1 -22 4 -21 22 3 25 3 25 -17 12z"/>
<path d="M647 4011 c-9 -15 -14 -31 -10 -34 3 -4 -6 -16 -20 -28 -25 -19 -39
-48 -17 -34 17 10 11 -8 -11 -35 -15 -19 -18 -20 -10 -4 6 12 6 26 0 35 -7 11
-9 11 -9 -5 0 -10 -15 -39 -34 -65 -18 -25 -37 -60 -40 -77 -4 -17 -16 -41
-28 -54 -17 -18 -19 -27 -12 -49 6 -16 17 -25 28 -25 16 2 16 0 2 -15 -9 -10
-16 -22 -16 -28 0 -6 -7 -17 -17 -24 -15 -13 -15 -12 -4 10 11 19 11 23 -1 19
-7 -3 -13 -16 -14 -30 -1 -20 3 -24 21 -21 16 4 28 22 49 75 15 39 25 73 22
75 -3 3 1 15 9 27 8 11 15 30 15 41 0 11 10 36 22 55 12 19 32 56 44 82 13 26
32 60 44 76 16 21 19 35 13 46 -7 13 -11 12 -26 -13z"/>
<path d="M377 3778 c-89 -135 -110 -175 -101 -190 4 -6 3 -8 -4 -4 -6 3 -13 2
-17 -4 -4 -6 -9 -8 -13 -6 -4 2 -7 -7 -7 -20 0 -13 3 -24 8 -24 4 0 7 -7 7
-16 0 -8 -4 -13 -9 -10 -5 3 -11 -1 -15 -9 -9 -24 -28 -18 -21 8 5 20 5 20 -9
-3 -17 -28 -22 -54 -5 -30 7 11 8 4 3 -25 -3 -22 -10 -44 -15 -49 -5 -6 -9
-17 -9 -25 0 -22 58 64 79 117 10 26 16 53 13 61 -3 8 0 11 6 7 6 -3 15 8 22
28 6 18 20 42 31 52 20 18 20 18 15 -6 -3 -14 -8 -37 -10 -52 -6 -34 -15 -50
-26 -43 -4 3 -13 -2 -20 -10 -7 -8 -9 -15 -4 -15 4 0 3 -5 -4 -12 -15 -15 -16
-28 -2 -28 15 0 71 82 66 97 -3 7 1 13 8 13 8 0 17 7 20 16 9 23 8 27 -8 21
-12 -5 -14 1 -11 25 5 37 13 47 25 28 6 -8 10 -13 10 -10 0 3 4 20 10 38 8 31
8 32 -7 20 -19 -15 -16 -8 24 51 12 18 20 37 17 42 -3 5 0 19 7 31 11 21 13
21 19 4 6 -18 7 -18 13 -3 4 10 2 17 -5 17 -7 0 -6 5 2 15 7 9 8 15 2 15 -5 0
-43 -51 -85 -112z"/>
<path d="M25 2670 c-14 -45 -23 -360 -11 -398 5 -13 12 -20 19 -16 8 5 8 2 -1
-7 -17 -18 -16 -60 2 -53 10 4 14 -12 19 -68 3 -40 9 -82 13 -92 6 -15 4 -17
-7 -11 -8 5 -3 -3 10 -18 13 -14 25 -41 26 -59 4 -48 4 -48 18 -48 21 0 19 59
-3 90 -11 15 -20 35 -20 43 0 9 -5 19 -11 22 -7 5 -5 15 6 31 16 25 18 39 12
119 -2 28 -8 109 -13 180 -6 95 -10 121 -15 95 -6 -30 -7 -27 -6 17 2 40 -2
54 -16 63 -16 10 -18 20 -13 71 6 60 2 75 -9 39z"/>
<path d="M5 2160 c7 -113 62 -351 117 -503 11 -31 23 -56 25 -53 2 2 -9 40
-24 84 -23 67 -25 83 -15 94 11 11 13 9 10 -12 -2 -16 2 -24 10 -22 6 1 12 -7
12 -19 0 -11 4 -17 10 -14 6 4 10 -5 10 -19 0 -15 10 -35 25 -48 16 -14 25
-32 25 -52 0 -17 4 -36 8 -43 8 -13 7 98 -2 157 l-5 35 16 -35 c12 -26 18 -31
20 -17 3 9 -5 33 -17 52 -24 38 -32 45 -24 18 4 -14 2 -13 -7 2 -7 11 -16 22
-20 25 -4 3 -9 14 -12 25 -2 11 -3 7 -1 -10 2 -16 6 -40 10 -52 4 -14 2 -23
-5 -23 -6 0 -11 7 -11 15 0 8 -4 15 -10 15 -12 0 -25 26 -34 65 -4 19 -3 25 2
16 6 -8 12 -9 16 -3 3 5 -1 12 -9 16 -8 3 -15 13 -15 21 0 9 -4 14 -9 10 -6
-3 -13 11 -16 32 -8 50 -26 87 -35 72 -10 -15 -19 22 -27 110 -5 55 -3 72 5
67 7 -4 12 -2 12 3 0 6 -6 11 -14 11 -8 0 -17 10 -20 23 -3 12 -3 -7 -1 -43z"/>
</g>
</svg>
