<?xml version="1.0" standalone="no"?>
<!DOCTYPE svg PUBLIC "-//W3C//DTD SVG 20010904//EN"
 "http://www.w3.org/TR/2001/REC-SVG-20010904/DTD/svg10.dtd">
<svg version="1.0" xmlns="http://www.w3.org/2000/svg"
 width="320.000000pt" height="217.000000pt" viewBox="0 0 320.000000 217.000000"
 preserveAspectRatio="xMidYMid meet">
<metadata>
Created by potrace 1.16, written by Peter Selinger 2001-2019
</metadata>
<g transform="translate(0.000000,217.000000) scale(0.100000,-0.100000)"
fill="#000000" stroke="none">
<path d="M2312 1641 c72 -6 120 -21 66 -21 -13 0 -51 -9 -84 -19 -32 -10 -84
-26 -114 -35 -69 -19 -117 -60 -98 -83 11 -14 8 -15 -25 -11 -26 3 -37 0 -37
-9 0 -7 -8 -13 -19 -13 -39 0 -33 -61 10 -103 11 -10 19 -25 19 -34 0 -13 -9
-15 -59 -10 -64 5 -77 1 -60 -19 6 -8 6 -14 0 -18 -5 -4 -12 -2 -16 4 -10 16
-25 1 -25 -25 0 -13 8 -28 17 -34 25 -14 9 -25 -16 -11 -19 9 -21 8 -21 -14 0
-14 10 -34 22 -46 12 -11 18 -20 13 -20 -4 0 -2 -8 6 -17 8 -10 21 -31 29 -47
13 -25 13 -29 -5 -42 -21 -16 -38 -16 -108 -5 -26 4 -50 4 -53 0 -7 -12 18
-49 33 -49 7 0 13 -4 13 -10 0 -5 -9 -10 -20 -10 -18 0 -17 -4 12 -36 41 -45
42 -59 1 -59 -18 0 -33 -3 -33 -7 0 -5 -11 -8 -25 -8 l-25 0 20 -40 c12 -23
25 -38 30 -35 5 3 14 -4 20 -15 13 -24 7 -25 -26 -4 -38 26 -37 12 4 -32 20
-22 43 -48 51 -58 13 -16 12 -17 -12 -11 -18 5 -27 3 -27 -5 0 -7 -7 -10 -15
-6 -20 7 -19 -3 3 -27 9 -11 11 -17 5 -13 -7 4 -13 4 -13 -1 0 -13 14 -30 30
-36 12 -4 12 -6 -2 -6 -16 -1 -16 -4 2 -37 21 -36 98 -114 114 -114 4 0 5 -7
2 -15 -4 -10 2 -19 17 -25 12 -5 18 -9 13 -9 -5 -1 -4 -7 1 -13 6 -7 13 -21
16 -31 12 -33 -72 24 -152 104 -56 55 -88 99 -121 161 -49 94 -63 109 -30 34
74 -174 264 -338 460 -397 97 -30 290 -32 390 -6 260 70 465 273 531 528 18
70 21 103 17 213 -4 114 -8 142 -35 219 -43 124 -85 189 -184 288 -137 138
-277 197 -479 203 -86 3 -91 3 -28 -3z"/>
</g>
</svg>
