<?xml version="1.0" standalone="no"?>
<!DOCTYPE svg PUBLIC "-//W3C//DTD SVG 20010904//EN"
 "http://www.w3.org/TR/2001/REC-SVG-20010904/DTD/svg10.dtd">
<svg version="1.0" xmlns="http://www.w3.org/2000/svg"
 width="612.000000pt" height="408.000000pt" viewBox="0 0 612.000000 408.000000"
 preserveAspectRatio="xMidYMid meet">
<metadata>
Created by potrace 1.16, written by Peter Selinger 2001-2019
</metadata>
<g transform="translate(0.000000,408.000000) scale(0.100000,-0.100000)"
fill="#000000" stroke="none">
<path d="M2930 3326 c0 -7 -7 -19 -15 -26 -22 -18 -7 -33 27 -26 27 5 29 4 17
-10 -7 -9 -23 -20 -35 -24 -16 -7 -21 -15 -17 -29 3 -13 1 -21 -6 -21 -7 0 -9
5 -6 10 3 6 2 10 -4 10 -5 0 -14 -8 -20 -17 -11 -21 -60 -25 -79 -6 -10 9 -19
10 -33 3 -29 -16 -23 5 8 26 15 9 35 27 44 38 14 17 19 18 32 8 12 -10 18 -10
31 3 19 20 22 42 4 28 -7 -5 -38 -10 -68 -11 -67 -3 -114 -18 -160 -52 -28
-21 -39 -24 -57 -15 -33 14 -28 28 7 20 19 -4 30 -3 30 4 0 6 -5 11 -11 11 -5
0 -7 5 -4 10 3 6 -2 10 -12 11 -13 1 -11 3 7 9 21 7 21 8 5 9 -11 0 -25 -3
-31 -7 -14 -9 -34 -78 -26 -87 4 -3 -1 -3 -11 1 -17 6 -25 -15 -11 -29 10 -10
34 4 34 22 1 14 2 14 10 0 11 -19 2 -60 -14 -58 -6 1 -24 -1 -40 -6 -24 -6
-33 -4 -46 13 -10 12 -29 24 -43 27 -20 5 -26 2 -32 -14 -3 -12 -11 -21 -17
-21 -6 0 -5 7 3 18 7 9 9 14 5 10 -5 -4 -15 -3 -23 3 -10 9 -13 8 -13 -4 0 -9
-6 -20 -12 -24 -21 -13 -39 -51 -28 -58 15 -9 32 5 26 21 -6 16 30 28 65 21
23 -4 22 -5 -8 -16 -36 -14 -49 -41 -34 -70 8 -14 8 -21 -2 -24 -9 -4 -8 -8 3
-16 12 -9 11 -11 -7 -11 -30 0 -52 39 -29 52 22 13 21 37 -3 31 -18 -5 -51
-61 -51 -88 0 -8 -9 -15 -19 -15 -11 0 -23 -4 -26 -10 -8 -13 -25 -13 -25 1 0
21 -32 79 -41 73 -5 -3 -9 -21 -9 -40 0 -19 -4 -34 -10 -34 -5 0 -10 -8 -10
-18 0 -10 -17 -30 -37 -43 -26 -17 -37 -31 -35 -44 1 -12 -6 -24 -20 -31 -66
-33 -88 -46 -88 -55 0 -5 -4 -9 -10 -9 -5 0 -10 12 -10 26 0 39 -25 23 -26
-17 -1 -19 -2 -41 -3 -49 0 -9 -16 -23 -35 -31 -33 -15 -35 -15 -40 5 -8 30
-7 38 3 32 4 -3 16 1 26 8 13 9 15 15 7 20 -7 4 -12 2 -12 -4 0 -6 -10 -8 -24
-4 -24 6 -35 -10 -41 -60 -1 -10 -8 -22 -16 -27 -7 -4 -10 -11 -6 -16 5 -4 12
-1 17 7 11 19 23 7 25 -25 0 -20 -3 -24 -17 -19 -10 3 -18 2 -17 -3 1 -4 1
-15 0 -23 -1 -13 -2 -13 -11 0 -7 11 -10 11 -10 2 0 -7 -5 -10 -12 -6 -6 4 -8
3 -5 -3 4 -5 -3 -20 -14 -31 -21 -24 -17 -43 18 -78 13 -12 14 -19 5 -22 -14
-4 -16 -32 -2 -32 6 0 10 5 10 12 0 9 3 9 11 1 9 -9 4 -21 -20 -48 -17 -20
-31 -30 -31 -24 0 27 -40 -26 -41 -55 l-1 -31 -7 30 c-4 17 -2 33 4 37 5 4 6
8 2 8 -4 0 -3 9 3 21 17 30 6 34 -19 7 -15 -15 -20 -30 -16 -45 4 -16 2 -21
-9 -17 -8 3 -16 -4 -20 -18 -5 -15 -9 -18 -13 -10 -3 7 1 26 7 43 7 16 10 32
7 35 -9 9 -27 -60 -30 -112 -1 -32 -6 -48 -14 -47 -7 2 -15 -13 -19 -32 -3
-19 -12 -35 -18 -35 -8 0 -11 -14 -9 -37 2 -30 1 -34 -6 -18 -8 17 -10 15 -10
-12 -1 -18 -7 -54 -13 -80 -10 -37 -10 -47 0 -50 6 -3 12 -14 13 -26 0 -21 1
-21 10 2 15 37 19 20 7 -27 -12 -47 -24 -45 -31 3 -3 17 -3 2 0 -33 6 -94 65
-317 114 -427 50 -116 164 -298 253 -404 198 -237 504 -424 818 -500 130 -32
211 -41 368 -41 429 0 765 134 1099 439 102 93 178 183 233 276 242 407 312
810 213 1230 -42 176 -141 402 -209 476 -12 13 -44 58 -71 100 -36 55 -53 73
-60 65 -6 -6 -9 -18 -7 -28 2 -9 -2 -19 -7 -23 -7 -4 -8 0 -4 10 4 13 1 16
-13 13 -12 -2 -18 -11 -17 -23 5 -54 12 -78 24 -86 11 -7 11 -9 -2 -9 -8 0
-24 16 -35 37 -14 26 -27 37 -47 40 -15 2 -27 -1 -27 -7 0 -9 22 -15 43 -11 5
1 6 -3 2 -9 -3 -5 -16 -10 -28 -11 -17 -1 -15 -3 9 -10 32 -9 66 -59 41 -59
-8 0 -7 -4 3 -10 13 -9 7 -14 -12 -11 -5 0 -8 -4 -8 -9 0 -6 6 -10 13 -11 6 0
3 -4 -8 -9 -17 -7 -15 -9 13 -9 37 -1 45 -21 8 -21 -14 0 -36 -4 -49 -9 -19
-7 -27 -6 -31 4 -2 7 2 16 10 19 10 4 12 2 8 -6 -4 -7 -3 -8 5 -4 7 5 10 21 7
42 -4 22 -2 34 5 34 7 0 -6 14 -27 31 -21 17 -42 36 -46 42 -4 7 -8 8 -8 2 1
-14 33 -51 50 -58 12 -4 12 -6 1 -6 -11 -1 -11 -4 -1 -16 11 -13 10 -14 -4 -9
-12 5 -15 2 -9 -12 4 -12 3 -15 -5 -10 -7 4 -12 14 -12 22 0 9 -7 14 -17 12
-13 -2 -18 5 -19 32 -3 66 -4 72 -16 67 -7 -2 -12 -14 -10 -26 3 -19 0 -22
-16 -17 -13 4 -22 2 -25 -6 -2 -7 -3 -3 -1 8 3 14 -2 23 -14 26 -15 4 -18 1
-14 -21 3 -14 9 -32 15 -38 6 -9 6 -13 -1 -13 -11 0 -72 60 -72 71 0 4 -9 9
-20 12 -11 3 -18 1 -15 -3 3 -5 1 -11 -4 -14 -5 -4 -11 4 -13 16 -2 14 -16 29
-37 39 -18 8 -38 24 -43 33 -9 15 -7 16 10 7 11 -6 22 -7 26 -4 3 3 6 2 6 -4
0 -6 8 -9 19 -6 10 2 25 -3 35 -12 19 -19 21 -7 3 15 -12 15 -30 22 -54 23 -7
0 -13 9 -13 19 0 16 3 17 20 8 16 -9 22 -8 26 5 5 13 8 13 18 2 7 -9 20 -12
35 -8 21 6 19 8 -25 31 -27 13 -58 23 -69 22 l-20 -2 20 9 c37 15 87 22 79 10
-4 -8 1 -9 17 -4 13 4 21 4 17 0 -10 -10 11 -37 23 -29 5 3 17 0 26 -5 16 -9
15 -11 -7 -11 -23 -1 -23 -2 -5 -10 11 -5 14 -9 7 -9 -7 -1 -11 -5 -8 -9 3 -5
-9 -7 -27 -5 -30 2 -30 2 8 -12 22 -7 32 -14 23 -14 -28 -1 -21 -26 8 -29 34
-3 48 6 34 23 -8 9 -8 15 0 20 14 9 13 28 -2 19 -10 -6 -10 -4 0 7 9 10 15 10
24 1 20 -20 27 -14 15 13 -7 14 -16 25 -20 25 -5 0 -5 -6 -1 -12 5 -9 3 -9 -9
1 -24 19 -136 71 -153 71 -9 0 -12 -4 -9 -10 9 -15 -51 -12 -67 3 -15 14 -98
20 -98 7 0 -5 6 -11 13 -13 9 -4 8 -8 -3 -16 -12 -9 -9 -11 15 -12 17 -1 34
-1 38 0 5 1 5 -8 2 -20 -6 -18 -4 -21 9 -16 10 4 16 1 16 -9 0 -8 -4 -12 -10
-9 -5 3 -19 0 -31 -8 -20 -15 -20 -15 7 -36 34 -27 21 -27 -17 0 -16 11 -29
29 -29 39 0 27 -34 34 -71 15 -25 -14 -31 -14 -27 -3 4 10 -3 14 -27 15 -32 1
-33 0 -24 -24 6 -16 6 -22 -1 -18 -6 3 -10 13 -10 21 0 9 -5 12 -12 8 -7 -4
-8 -3 -4 5 5 7 5 22 2 35 -4 17 -13 23 -36 24 -16 0 -30 -4 -30 -9 0 -9 -37
-3 -49 7 -9 9 18 26 29 19 16 -10 110 -12 110 -3 0 7 -60 13 -84 9 -5 -1 -16
1 -25 5 -13 5 -11 8 9 14 25 8 25 8 -5 10 -16 1 -37 1 -45 0 -12 -2 -11 2 4
19 10 11 22 19 26 18 4 -1 9 3 10 8 0 6 -9 13 -22 17 -23 6 -23 6 2 7 38 2 4
21 -37 21 -18 0 -33 5 -33 10 0 6 -5 10 -11 10 -7 0 -9 -10 -7 -25 4 -19 1
-25 -13 -25 -11 0 -19 6 -19 14 0 8 -5 18 -12 22 -7 4 -8 3 -4 -4 4 -7 1 -12
-8 -12 -8 0 -18 5 -21 10 -3 6 -23 9 -43 9 -34 -2 -35 -2 -7 -6 l30 -5 -35
-19 c-19 -10 -29 -18 -22 -19 17 0 15 -20 -2 -20 -8 0 -16 -7 -20 -15 -3 -8
-11 -15 -17 -15 -9 0 -8 4 0 14 10 12 8 16 -11 22 -13 4 -32 8 -43 9 -12 1
-19 9 -18 20 1 12 -2 14 -10 6 -19 -19 -28 -12 -21 17 5 22 4 25 -7 15 -16
-15 -33 -17 -24 -3 13 21 -13 9 -28 -12 -13 -19 -16 -20 -16 -5 -1 9 4 17 9
17 6 0 10 5 10 10 0 6 -9 10 -20 10 -11 0 -20 -6 -20 -14z m190 -377 c13 -9
12 -10 -2 -5 -24 7 -32 -11 -14 -30 9 -8 16 -20 16 -25 0 -5 10 -13 23 -18 21
-8 20 -9 -15 -27 -36 -17 -50 -34 -28 -34 6 0 10 4 10 9 0 5 7 12 16 15 10 4
13 2 7 -7 -4 -6 -7 -21 -6 -32 1 -15 0 -16 -3 -3 -4 14 -10 15 -30 8 -34 -13
-34 -13 -34 11 0 16 -4 20 -17 15 -15 -5 -15 -4 1 9 19 15 19 15 -2 15 -12 0
-22 4 -22 9 0 5 -9 13 -20 16 -11 3 -20 13 -20 20 0 8 -8 19 -17 24 -14 8 -9
9 17 5 26 -4 46 0 70 14 41 24 50 25 70 11z"/>
</g>
</svg>
