<?xml version="1.0" standalone="no"?>
<!DOCTYPE svg PUBLIC "-//W3C//DTD SVG 20010904//EN"
 "http://www.w3.org/TR/2001/REC-SVG-20010904/DTD/svg10.dtd">
<svg version="1.0" xmlns="http://www.w3.org/2000/svg"
 width="580.000000pt" height="386.000000pt" viewBox="0 0 580.000000 386.000000"
 preserveAspectRatio="xMidYMid meet">

<g transform="translate(0.000000,386.000000) scale(0.100000,-0.100000)"
fill="#B30909" stroke="none">
<path d="M4308 3070 c-295 -47 -520 -242 -610 -530 -19 -63 -23 -96 -22 -205
0 -133 7 -167 53 -283 64 -161 203 -303 374 -382 91 -43 168 -60 297 -67 97
-5 128 -3 200 15 130 33 254 99 344 183 153 143 222 292 233 504 5 93 2 124
-17 200 -24 97 -72 205 -120 272 -86 119 -266 240 -415 279 -73 19 -239 26
-317 14z m269 -374 c80 -37 152 -111 184 -191 20 -52 24 -77 24 -180 0 -134
-10 -165 -83 -254 -45 -55 -160 -113 -239 -119 -63 -5 -163 13 -213 38 -53 28
-116 98 -147 165 -23 50 -28 77 -31 163 -5 119 7 176 49 248 35 57 115 120
187 147 72 27 190 19 269 -17z"/>
<path d="M625 3028 c-3 -7 -4 -321 -3 -698 l3 -685 486 -3 487 -2 6 22 c8 30
8 262 0 282 -5 14 -43 16 -315 16 l-309 0 0 115 0 115 88 1 c48 1 182 5 297 8
l210 6 0 145 0 145 -295 5 -295 5 -3 118 -3 117 306 0 306 0 -3 148 -3 147
-478 3 c-377 2 -479 0 -482 -10z"/>
<path d="M1864 3025 c-3 -8 14 -45 39 -82 24 -37 99 -156 167 -263 68 -107
145 -229 172 -270 26 -41 46 -80 44 -87 -3 -6 -38 -62 -79 -125 -40 -62 -95
-147 -122 -188 -27 -41 -78 -120 -115 -175 -111 -169 -115 -176 -99 -186 24
-15 306 -11 337 5 31 16 67 66 174 241 97 159 300 454 314 455 10 0 35 -32
126 -165 27 -38 67 -95 89 -125 22 -30 49 -71 60 -90 11 -19 28 -48 39 -65 11
-16 24 -39 29 -50 5 -11 18 -29 30 -39 11 -11 21 -27 21 -37 0 -11 9 -24 20
-31 11 -7 20 -19 20 -26 0 -15 38 -67 48 -67 4 0 12 -3 17 -6 19 -11 338 -5
342 7 2 6 -12 28 -32 49 -19 22 -35 44 -35 51 0 7 -22 45 -48 86 -157 239
-251 385 -280 434 l-34 55 42 67 c23 37 68 110 101 162 33 52 77 124 98 160
22 36 73 116 116 179 42 62 74 120 71 127 -4 11 -41 14 -178 14 -95 0 -183 -3
-196 -6 -17 -5 -72 -80 -190 -258 -92 -138 -189 -286 -216 -329 -26 -43 -53
-76 -59 -74 -6 2 -106 149 -223 326 -116 178 -218 327 -225 332 -8 5 -96 9
-197 9 -152 0 -184 -2 -188 -15z"/>
<path d="M1387 1234 c-4 -4 -7 -13 -7 -21 0 -9 16 -13 55 -13 l54 0 3 -157 c3
-133 5 -158 18 -158 13 0 15 25 18 158 l3 157 55 0 c47 0 55 3 52 18 -3 15
-18 17 -124 20 -66 1 -123 -1 -127 -4z"/>
<path d="M1947 1233 c-4 -3 -7 -85 -7 -180 0 -161 1 -174 18 -171 14 3 18 16
20 76 3 72 3 72 31 72 69 0 111 -36 111 -95 0 -33 28 -59 46 -44 10 9 12 15 4
23 -5 5 -10 19 -10 31 0 11 -9 38 -19 59 -19 37 -19 38 0 69 10 18 19 42 19
55 0 36 -27 80 -60 97 -29 15 -141 21 -153 8z m150 -55 c27 -25 29 -54 7 -86
-12 -18 -25 -22 -70 -22 l-54 0 0 65 0 65 47 0 c34 0 53 -6 70 -22z"/>
<path d="M3555 1218 c-3 -13 -4 -93 -3 -178 l3 -155 105 0 c87 0 105 3 105 15
0 12 -18 16 -85 20 l-85 5 0 55 0 55 75 5 c58 4 75 8 75 20 0 12 -17 16 -75
20 l-75 5 0 55 0 55 83 5 c45 3 82 8 82 13 0 4 0 12 0 17 0 6 -40 10 -100 10
-95 0 -100 -1 -105 -22z"/>
<path d="M4075 1228 c-3 -8 -4 -88 -3 -178 l3 -165 103 -3 c95 -2 103 -1 100
15 -3 15 -16 18 -85 21 l-82 3 -3 156 c-2 114 -6 157 -15 161 -7 2 -15 -3 -18
-10z"/>
<path d="M2570 1208 c-36 -85 -110 -293 -110 -309 0 -35 28 -19 46 26 l17 45
72 0 72 0 17 -45 c17 -44 46 -62 46 -27 -1 9 -27 87 -59 172 -59 159 -80 187
-101 138z m48 -110 c11 -29 23 -61 27 -70 6 -16 0 -18 -49 -18 -31 0 -56 2
-56 5 0 2 8 26 18 52 11 26 22 56 25 66 10 26 14 22 35 -35z"/>
<path d="M2956 1222 c-2 -4 12 -48 33 -97 21 -50 53 -125 71 -168 22 -53 37
-77 47 -75 13 3 153 313 153 339 0 5 -8 9 -18 9 -13 0 -31 -32 -72 -131 -30
-72 -57 -132 -61 -135 -6 -3 -72 143 -110 244 -8 22 -33 30 -43 14z"/>
</g>
</svg>
