<?xml version="1.0" standalone="yes"?>
<svg xmlns="http://www.w3.org/2000/svg" width="717" height="348">
<path style="fill:#050404; stroke:none;" d="M0 0L0 348L717 348L717 0L515 0L515 1C536.896 5.57745 558.72 19.0331 576 32.8009C626.97 73.4109 663.431 144.59 646.957 211C644.078 222.603 636.088 238.815 628.331 247.907C622.458 254.789 615.234 259.704 611 268L608 266L608 270L607 270L606 266L603 268L602 264L601 264L601 281L596 280C595.115 284.29 593.384 286.329 589 287L582 291L582 296L575 295C569.236 304.279 560.08 307.041 550 311L552 313C546.376 315.245 535.744 322.745 530 320L529 320C526.865 323.747 524.194 324.567 520 324C516.605 329.891 509.001 331.418 503 329C500.283 333.655 494.942 333.964 490 333L491 330L478 327L478 328L484 330L482 334L477 328L465 335.472L449 335.194L442 338L440 336L426 334L425 338C420.168 337.2 417.568 340.197 413 340.683C407.979 341.217 401.521 339.205 397.044 337.061C393.38 335.306 393.409 330.993 390.431 329.327C387.719 327.81 386.561 331.166 386 333L372 331L373 328C359.772 328.761 342.058 323.169 333 313C323.577 312.415 310.469 299.883 304.586 292.985C285.144 270.19 273.917 239.376 269.729 210C256.856 119.692 314.052 26.2513 403 1L367 0L285 0L0 0z"/>
<path style="fill:#6f6347; stroke:none;" d="M363 18L363 19L406 1C394.869 -2.09601 372.443 12.4882 363 18z"/>
<path style="fill:#756f68; stroke:none;" d="M396 4L396 5L412 1L396 4z"/>
<path style="fill:#988c67; stroke:none;" d="M385 9L385 10L416 1C407.209 -2.15167 393.516 6.56552 385 9z"/>
<path style="fill:#d0be8d; stroke:none;" d="M338 40L343 38L340 43C329.705 38.5671 314.621 60.6526 309.295 68C293.75 89.4431 282.956 113.252 277.12 139C274.853 148.999 273.047 164.72 278 174L279 174L287 169L290 174L296 143L301 123L302 123L302 128L305 133L310 131L309 127L311 121C314.788 124.43 313.419 126.62 312 131L323 125L321 134C328.409 128.435 325.087 119.294 337 117L335 129L340 120L354 119L351 122L354 125L352 130L356 130L357 135L361 135L362 143L364 143L370 138L368 157L368 158L372 157L373 161L368 161L368 162C371.426 164.085 377.716 168.667 376 173L377 181C387.328 180.134 387.264 192.771 394 197L392 188L401 188C408.242 190.797 419.351 195.822 416.4 205.83C415.027 210.49 411.1 213.645 411.321 218.985C411.472 222.633 414.654 225.688 416 229L420 228L420 226L417 225L417 224C422.386 222.703 430.213 220.573 429 229C432.678 230.917 433.038 232.441 431 236L431 231L421 228L418 231L421 236L420 233L429 236L422 241L424 251L419 249L423 250L421 246L417 248L415 228L414 228L410 231L411 226L407 227L405 223L405 231L410 231L411 235C404.886 236.79 408.411 243.348 411 247L405 248L413 259L410 258C411.638 264.685 421.879 272.136 428 275L427 271L434 273L434 268C436.339 267.324 438.166 265.984 436 264L438 260L441 261L441 256L445 256L440 247L446 247L451 237L451 236L449 234L459 232L459 231L454 231L454 229L458 229L458 228L455 222L462 221L468 230L462 228L467 232L466 236L469 235L468 246L471 247L464 249L465 254L459 250L450 250L447 254L450 259L458 259L469 269L469 265L466 266L468 264L468 263L468 262L466 260L467 259L468 259L469 259L469 263L477 269L477 270L474 274L481 272C483.516 275.872 486.613 275.96 491 276C491 265.804 503.905 275.061 507 274L503 272L501 265L511 262L508 248L512 248L504 227L495 227L496 222L486 214C487.42 210.317 486.48 209.02 484 206L456 204L460 215L459 215L455 209L446 206C450.073 203.368 452.151 201.896 457 203L455 199L463 197L463 195L456 192L449 201L442 196L439 198L435 185L436 185L436 187L437 187L438 181C435.104 177.256 437.142 175.463 441 174L440 170L447 173L447 168C451.917 166.368 451.274 162.209 448 159L449 167L444 161L445 158L442 158L444 167L441 166L441 165L433 159L429 157L433 154L436 156L436 151L438 154L441 153L433 141L433 134L443 131L442 135L447 131L453 132L454 135L455 135L459 131C459.138 137.416 460.47 140.149 467 141L467 142L464 142L467 146L465 156L468 155L469 158L470 158L471 153L472 153L471 160C475.241 160.798 477.151 161.348 477 166L493 162L486 158L487 151L489 150L490 150L499 157L498 160L502 157L493 152L493 151L498 151L496 149L496 148L499 146L503 149L500 150L500 154L501 154L502 151L505 153C504.978 146.945 507.842 142.94 514 142L514 136L509 139L509 135L512 135C512.183 131.369 514.48 126.96 510 126L511 129L504 117L517 106C522.781 114.262 523.624 118.6 523 128L519 130L526 134L524 130L529 129L526 123L537 121L538 124L539 124C538.939 122.559 539.425 114.428 537 118C531.888 111.708 530.616 106.847 530 99L535 100L534 97L531 98L528 95L528 92C531.507 91.4106 536.159 93.8239 537 90L534 88L526 89C525.843 82.6045 528.356 68.2404 537 75L541 74L540 87L536 87L538 94L544 109L545 106L553 108L552 100L563 107L563 117C567.955 114.91 572.249 117.85 575 122L583 120L581 112L585 109L583 109L583 107L590 102L589 97C595.922 99.0316 601.057 109.398 603 116L600 110C590.245 114.876 594.707 128.371 587 135L589 126L585 123L584 123C584.333 129.512 585.06 150.78 590 154L591 146L595 146L593 140L600 131L599 128L601 126C607.678 129.145 601.682 133.584 602 139L598 139L598 140C601.325 141.619 601.12 143.507 601 147L602 147L606 144L607 154L608 154L613 148C611.431 154.947 609.836 168.905 614 175L615 163L619 164L620 175C628.362 169.646 626.988 142.941 625.84 134C625.332 130.041 622.275 123.258 624.934 119.582C627.678 115.786 630.72 125.226 631 127L635 126L630 120L633 121C631.861 107.056 624.194 92.3166 613 84L618 95L617 96C612.99 91.3044 606.738 76.8694 608 71L608 70L602 66L602 65L605 66C603.045 62.4062 601.137 60.3825 597 60C596.447 52.657 590.325 48.0774 585 43.5903C572.86 33.361 559.713 24.6784 546 16.7153C533.647 9.54205 519.433 2.28586 505 0.209869C490.573 -1.86533 474.58 0 460 0C429.849 0 403.454 0.577911 376 14.6404C363.516 21.0348 345.932 27.8977 338 40z"/>
<path style="fill:#988c67; stroke:none;" d="M507 0L507 1L518 4L518 3L507 0z"/>
<path style="fill:#756f68; stroke:none;" d="M509 0L509 1L537 10L537 9L509 0z"/>
<path style="fill:#6f6347; stroke:none;" d="M512 0L512 1L515 1L512 0M515 1L515 2L518 2L515 1M519 2L519 3L522 3L519 2M522.667 3.33334L523.333 3.66666L522.667 3.33334z"/>
<path style="fill:#988c67; stroke:none;" d="M519 4L519 5L522 5L519 4z"/>
<path style="fill:#6f6347; stroke:none;" d="M525.667 4.33334L526.333 4.66666L525.667 4.33334z"/>
<path style="fill:#756f68; stroke:none;" d="M392 5L392 6L395 6L392 5z"/>
<path style="fill:#988c67; stroke:none;" d="M522 5L522 6L525 6L522 5z"/>
<path style="fill:#6f6347; stroke:none;" d="M528.667 5.33334L529.333 5.66666L528.667 5.33334z"/>
<path style="fill:#756f68; stroke:none;" d="M390.667 6.33334L391.333 6.66666L390.667 6.33334z"/>
<path style="fill:#988c67; stroke:none;" d="M525 6L525 7L528 7L525 6z"/>
<path style="fill:#6f6347; stroke:none;" d="M531 6L532 7L531 6z"/>
<path style="fill:#756f68; stroke:none;" d="M388.667 7.33334L389.333 7.66666L388.667 7.33334z"/>
<path style="fill:#988c67; stroke:none;" d="M528 7L528 8L531 8L528 7z"/>
<path style="fill:#6f6347; stroke:none;" d="M533 7L534 8L533 7z"/>
<path style="fill:#756f68; stroke:none;" d="M385 8L385 9L388 9L385 8z"/>
<path style="fill:#988c67; stroke:none;" d="M531.667 8.33334L532.333 8.66666L531.667 8.33334z"/>
<path style="fill:#6f6347; stroke:none;" d="M535.667 8.33334L536.333 8.66666L535.667 8.33334z"/>
<path style="fill:#756f68; stroke:none;" d="M383.667 9.33334L384.333 9.66666L383.667 9.33334z"/>
<path style="fill:#988c67; stroke:none;" d="M533.667 9.33334L534.333 9.66666L533.667 9.33334z"/>
<path style="fill:#6f6347; stroke:none;" d="M537.667 9.33334L538.333 9.66666L537.667 9.33334z"/>
<path style="fill:#756f68; stroke:none;" d="M348 29L348 30L382 11C372.147 9.04694 355.562 23.5676 348 29z"/>
<path style="fill:#988c67; stroke:none;" d="M382.667 10.3333L383.333 10.6667L382.667 10.3333M536 10L536 11C552.151 20.9578 568.382 30.5729 583 42.7546C588.499 47.3373 595.852 52.5613 597 60L605 66L602 65L602 66L608 70L608 71C605.522 75.1071 613.105 92.7868 617 96L618 95L613 84C623.18 94.736 630.961 105.868 633 121L630 120L635 126L631 127C630.883 125.143 627.367 114.453 624.599 119.492C622.247 123.773 625.301 130.583 625.837 134.996C627.079 145.218 627.762 167.492 620 175L619 164L615 163L614 175C610.438 167.596 611.889 156.004 613 148L608 154L607 154L606 144L602 147L601 147C601.297 143.455 601.787 141.076 598 140L598 139L602 139C602.741 133.92 608.426 128.107 601 126L599 128L600 131L593 140L595 146L591 146L590 154C585.21 149.26 584.729 130.326 584 123L585 123L589 126L587 135L600 110L603 116C601.786 109.275 596.222 98.1653 589 97L590 102L583 107L585 109L581 112L583 114L583 120L575 122C572.918 117.387 567.665 114.05 563 117L563 107L552 100L553 108L545 106L545 107L548 110L543 108C542.379 111.786 543.292 113.763 547 115L547 121C540.432 115.939 538.165 106.964 538 99L540 99L541 104L542 104C541.813 100.287 542.09 94.8764 538 94L536 87L540 87L541 74L537 75C529.185 65.7124 525.073 83.5782 526 89L534 88C534.513 90.4751 534.604 90.5746 537 90L536 93L528 92L528 95L531 98L535 100L530 99C529.902 106.598 530.902 112.672 537 118L539 124L538 124L537 121L526 123L529 129L524 130L526 134L519 130L520 127L523 128C524.132 119.105 524.058 113.029 517 106L504 117C504.848 121.903 506.6 126.385 511 129L510 126L512 135L509 135L509 139L514 136L514 142C507.278 142.51 504.388 146.505 505 153L502 151L501 154L500 154L500 150L503 149L499 146L496 148L496 149L498 151L493 151L493 152L502 157L498 160L499 157L490 150L489 150L487 151L486 158L493 162C487.472 161.045 481.718 163.13 477 166C477.857 160.902 475.561 160.386 471 160L472 153L471 153L470 158L469 158L468 155L465 156L467 146C465.267 144.106 464.908 143.582 467 142L467 141C460.93 139.661 459.291 137.254 459 131L453 132L447 131L442 135L443 131L433 134L433 141C435.856 143.485 444.45 154.873 436 151L436 156L433 154L429 157L433 159C434.801 162.807 436.705 164.817 441 165L441 166L439 167L444 167L442 158L445 158L444 161L449 167L448 159C450.66 162.757 451.404 165.561 447 168L447 173L444 170L440 170L441 174C436.913 174.876 433.795 177.742 438 181L437 187L436 187L436 185L435 185L439 198L442 196C443.196 199.643 445.393 200.205 449 201L456 192L463 195L463 197L455 199L457 203C452.074 201.474 449.8 202.657 446 206L455 209L459 215L460 215C462.336 209.944 458.98 207.964 456 204C461.745 205.472 479.609 209.177 484 206L486 214L496 222L495 227L504 227L512 248L508 248L511 262L501 265L503 272L507 274L504 275C500.897 269.795 492.153 268.941 491 276L481 272L474 274L477 270L477 269L469 263L469 259L466 260L468 262L468 263L468 264L466 266L469 265L469 269L458 259L450 259L447 254L450 250L459 250C460.099 253.321 461.59 253.737 465 254L464 249L471 247L468 246L469 235L466 236L467 232L462 228L468 230L462 221L455 222L458 228L458 229L454 229L454 231L459 231L459 232L449 234L451 236L451 237L446 247L440 247L445 256L441 256L441 261L438 260L436 264C437.537 266.102 436.083 266.971 434 268L434 273L427 271L428 275C421.984 271.012 412.703 264.77 410 258L413 259L405 248L411 247C408.844 242.756 406.083 238.095 411 235L410 231L405 231L405 223L407 227L411 226L410 231L414 228L415 228C413.32 235.055 414.078 241.397 417 248L421 246L423 250L419 249L424 251L422 241C425.956 240.695 427.616 239.768 429 236L420 233L421 236L418 231L421 228L431 231L431 236C434.176 232.759 433.244 230.293 429 229C432.42 220.018 422.062 222.176 417 224L417 225L420 226L420 228L416 229C414.977 225.237 411.455 221.944 411.615 217.996C411.809 213.213 415.733 210.206 416.683 205.83C418.971 195.288 409.324 190.369 401 188L392 188L394 197C388.484 191.77 386.982 178.801 377 181L376 173C379.755 169.353 371.261 163.331 368 162L368 161L373 161L372 157L368 158L368 157C370.907 154.1 371.505 142.25 370 138L364 143L362 143L361 135L357 135L356 130L352 130L354 125L351 122L354 119L340 120L335 129L337 117C325.398 116.6 326.66 127.579 321 134L323 125L312 131C314 126.817 315.709 123.746 311 121L309 127L310 131L305 133C305.287 129.992 304.967 128.866 302 128L302 123L301 123L296 143L290 174L287 169L279 174L278 174C269.185 153.196 279.503 124.097 288.375 105C291.863 97.492 297.231 91.2206 299 83L298 83C292.582 95.9442 284.499 107.519 280.039 121C272.492 143.817 267.842 169.944 270.17 194C271.499 207.733 275.88 219.866 279 233L285 242L286 242L286 236L287 236C287.554 239.322 292.654 248.163 288 247L288 248L288 249L291 248L294 252L294 253L293 256L295 253L298 259L296 261L304 272L313 273L312 275L319 282C323.415 276.035 328.469 276.644 331 284L332 284L334 278L347 289L346 286L360 293L356 285L360 287C359.217 283.333 356.488 283.191 353 283L352 281L354 277L359 277L356 269L358 269L355 265C360.17 260.616 364.278 255.67 366 249L365 249L364 253L360 244L369 245C371.541 243.406 375.32 243.54 374 240L381 239L383 235C380.244 230.49 377.831 226.295 382 222L386 228L389 224L382 222L386 216L386 214C375.563 208.481 368.264 219.424 358 220L358 216L355 218C355.88 210.698 364.274 205.495 371 204L373 197L377 199L376 195L381 193L381 200L386 200L381 184C386.476 186.911 388.601 190.851 388 197C393.581 200.038 395.032 207.067 391 212L389 208L394 223C388.095 226.348 387.364 232.236 394 235L393 237L398 245L396 249L397 249L398 246C401.334 248.477 405.493 251.776 406.552 256.015C408.667 264.474 400.284 283.315 417 282C416.929 286.708 420.125 288.752 424 291L419 286L419 284C426.51 281.795 433.836 285.44 435 275L443 275C445.412 281.265 445.886 284.807 443 291L447 289L449 293L446 295L457 306L458 301L455 302C456.961 297.318 459.226 296.744 464 298L458 308L462 308L462 304L475 305L475 304L471 301L468 302C466.396 294.912 470.936 291.825 474 286L486 291C480.098 291.125 478.264 295.124 476 300L488 301L487 298L498 296.806L508 290.666L518 289L515 285C520.766 285.02 535.128 284.37 534 292L537 293L541 267C531.933 259.514 543.145 245.743 544 236C537.897 232.635 539.763 223.95 538 218C541.424 215.706 540.318 212.93 538 210C535.002 214.956 533.76 235.456 541 237L541 238L537 242L542 242L533 255L532 255L532 252C528.083 252.658 526.567 254.417 525 258L528 257L526 268L520 272L521 268L515 269L526 251L522 255L513 256L513 250L517 252C516.664 244.779 512.474 244.405 509.528 238.867C506.558 233.285 506.698 226.909 508 221C504.708 220.115 501.841 219.075 501 223L498 223C496.715 218.893 494.099 217.745 490 217L490 211L492 213L503 212L505 207L506 207L511 209L509 214L517 211L514 208L522 207L522 203L523 203C525.359 207.156 529.381 208.671 534 209L532 201L532 200C537.6 198.806 537.153 192.442 537 188L529 189L536 182L537 182L543 199C550.326 198.774 557.505 207.426 554 194C549.898 193.689 548.019 192.6 546 189L550 187L551 187L553 192L569 197L553.063 214.289L554.28 236.985L547.184 250L548 273C542.574 273.414 541.114 275.911 540 281L545 283L547 277C554.311 283.437 558.701 279.576 567 278L571 271C579.232 269.416 578.432 260.543 582.72 255.184C587.412 249.32 595.09 245.51 601 241L601 243L609 241L611 230L614 231L616 226L610 221C617.918 216.284 614.953 199.284 616 191L617 191L619 211L622 210L621 218L622 218L626 204L629 209L632 208L633 195C636.857 194.515 635.998 190.346 636 187L642 190L641 185L644 185L644 177L640 179L641 157L639 159L640 153L644 155C643.859 137.98 637.848 120.063 630.37 105C628.371 100.974 625.664 89.0433 620 91L615 82L617 83L617 82C608.137 56.0211 578.736 34.6272 556 21.4244C549.467 17.6309 543.087 12.5984 536 10z"/>
<path style="fill:#756f68; stroke:none;" d="M538 10L538 11C566.219 28.682 605.465 49.1893 617 83L615 82L620 91L622 89C633.209 108.54 643.528 132.113 644 155L640 153C638.926 155.004 637.321 159.571 641 157L640 179L644 177L644 185L641 185L642 190L636 187C636 190.113 636.753 194.45 633 195L629 209L626 204L622 218L620 217L617 224L616 221L613 223L618 214L622 215L622 210L619 211L617 191L616 191C614.25 200.424 617.609 214.154 610 221L616 226L611 230L609 241L607 239L601 243L601 241C594.892 244.236 586.126 249.487 582.031 255.184C578.11 260.639 578.638 268.478 571 271L567 278C558.03 278.967 555.306 282.44 547 277L545 283L538 279L537 279L537 293L534 292C537.154 283.957 520.445 285.004 515 285L518 289L508 290.113L498 296.127L487 298L488 301L476 300L479 298C479.27 293.488 481.661 291.672 486 291L474 286C470.056 291.333 465.958 295.008 468 302L471 301L475 304L475 305L462 304L462 308L458 308L464 298C459.096 296.043 456.451 296.748 455 302L458 301L457 306L454 303L450 304C451.359 306.512 453.023 308.613 456.005 309.343C459.625 310.228 462.604 307.739 466 307.103C471.536 306.067 486.602 311.609 487 303L491 305L491 298C495.21 300.003 501.089 307.783 505 301C501.777 298.903 502.193 296.549 503 293C505.958 293.986 512.872 295.51 512 299L518 298C518.164 301.713 519.556 302.782 523 304L521 307L528 305L529 305L523 298L524 295L518 296L520 291L518 286C521.799 286.69 525.398 287.806 526 292L532 299L530 299L530 304C537.162 301.666 538.33 296.227 547 298L551 294C553.026 285.837 563.898 293.401 566 286L564 287L564 284L578 278L582 264L588 262C587.995 256.701 589.467 253.794 594 251L595 257L602 251L607 255C609.871 248.382 614.096 241.298 612 234L619 224L622 226L621 222L624 223L626 211L628 211L628 222L629 222L630 210L631 210L632 216L633 216L634 201L635 201L636 208L638 208L640 197L640 201L644 200C643.537 192.413 646.469 185.331 646.943 177.961C647.624 167.37 646.19 156.425 644.561 146C636.888 96.8928 605.64 49.9969 563 24.3997C555.029 19.6149 546.872 12.8085 538 10z"/>
<path style="fill:#6f6347; stroke:none;" d="M540 10L541 11L540 10z"/>
<path style="fill:#988c67; stroke:none;" d="M380.667 11.3333L381.333 11.6667L380.667 11.3333z"/>
<path style="fill:#6f6347; stroke:none;" d="M542 11L543 12L542 11z"/>
<path style="fill:#988c67; stroke:none;" d="M372 15L372 16L380 13L372 15z"/>
<path style="fill:#6f6347; stroke:none;" d="M543.667 12.3333L544.333 12.6667L543.667 12.3333M545.667 13.3333L546.333 13.6667L545.667 13.3333M547 14C551.832 19.6787 560.904 24.7537 568 27L568 26L547 14z"/>
<path style="fill:#988c67; stroke:none;" d="M368 17L368 18L372 17L368 17M366.667 18.3333L367.333 18.6667L366.667 18.3333z"/>
<path style="fill:#6f6347; stroke:none;" d="M361 19L362 20L361 19z"/>
<path style="fill:#988c67; stroke:none;" d="M364.667 19.3333L365.333 19.6667L364.667 19.3333z"/>
<path style="fill:#6f6347; stroke:none;" d="M359 20L360 21L359 20z"/>
<path style="fill:#988c67; stroke:none;" d="M362.667 20.3333L363.333 20.6667L362.667 20.3333z"/>
<path style="fill:#6f6347; stroke:none;" d="M358 21L359 22L358 21z"/>
<path style="fill:#988c67; stroke:none;" d="M360 21L359 23L361 23L360 21z"/>
<path style="fill:#6f6347; stroke:none;" d="M356 22L357 23L356 22M355 23L356 24L355 23z"/>
<path style="fill:#988c67; stroke:none;" d="M354 27L359 23L354 27z"/>
<path style="fill:#6f6347; stroke:none;" d="M353.667 24.3333L354.333 24.6667L353.667 24.3333M352 25L353 26L352 25M349 28L352 26L349 28z"/>
<path style="fill:#988c67; stroke:none;" d="M351 29L354 27L351 29z"/>
<path style="fill:#6f6347; stroke:none;" d="M568 27L571 29L568 27M342 33L349 29L342 33z"/>
<path style="fill:#988c67; stroke:none;" d="M349.667 29.3333L350.333 29.6667L349.667 29.3333z"/>
<path style="fill:#6f6347; stroke:none;" d="M571 29L572 30L571 29z"/>
<path style="fill:#756f68; stroke:none;" d="M346 30C322.137 46.2957 299.079 71.4694 289 99L290 99C304.367 72.0053 321.972 48.9949 347 31L346 30z"/>
<path style="fill:#988c67; stroke:none;" d="M347.667 30.3333L348.333 30.6667L347.667 30.3333z"/>
<path style="fill:#6f6347; stroke:none;" d="M572.667 30.3333L573.333 30.6667L572.667 30.3333z"/>
<path style="fill:#988c67; stroke:none;" d="M346 31L347 32L346 31z"/>
<path style="fill:#6f6347; stroke:none;" d="M574 31L575 32L574 31z"/>
<path style="fill:#988c67; stroke:none;" d="M344.667 32.3333L345.333 32.6667L344.667 32.3333z"/>
<path style="fill:#6f6347; stroke:none;" d="M575 32L576 33L575 32M340 33L341 34L340 33z"/>
<path style="fill:#988c67; stroke:none;" d="M343 33L344 34L343 33z"/>
<path style="fill:#6f6347; stroke:none;" d="M576 33L577 34L576 33M339 34L340 35L339 34z"/>
<path style="fill:#988c67; stroke:none;" d="M342 34L343 35L342 34z"/>
<path style="fill:#6f6347; stroke:none;" d="M577.667 34.3333L578.333 34.6667L577.667 34.3333M338 35L339 36L338 35z"/>
<path style="fill:#988c67; stroke:none;" d="M340 35L332 43L340 43L343 38L338 40L340 35M468.333 35.6667L468.667 36.3333L468.333 35.6667z"/>
<path style="fill:#6f6347; stroke:none;" d="M579 35L580 36L579 35M337 36L338 37L337 36M580 36L581 37L580 36M336 37L337 38L336 37M581 37L582 38L581 37M334 38L335 39L334 38M582 38L585 40L582 38M333 39L334 40L333 39z"/>
<path style="fill:#988c67; stroke:none;" d="M469 39L470 40L469 39M472 39L471 41L471 42L475 41L472 39z"/>
<path style="fill:#6f6347; stroke:none;" d="M332 40L333 41L332 40M585 40L586 41L585 40M331 41L332 42L331 41M586 41L587 42L586 41M330 42L331 43L330 42M587 42L588 43L587 42M328 43L329 44L328 43z"/>
<path style="fill:#988c67; stroke:none;" d="M331 43L332 44L331 43M463 43L464 44L463 43z"/>
<path style="fill:#6f6347; stroke:none;" d="M588 43L601 56C598.43 50.4882 593.512 45.5703 588 43M327 44L328 45L327 44z"/>
<path style="fill:#988c67; stroke:none;" d="M322 52L331 44L322 52M466 44L467 45L466 44z"/>
<path style="fill:#6f6347; stroke:none;" d="M326 45L327 46L326 45z"/>
<path style="fill:#988c67; stroke:none;" d="M468 45L468 46L472 47L472 46L468 45z"/>
<path style="fill:#6f6347; stroke:none;" d="M325 46L326 47L325 46M324 47L325 48L324 47M323 48L324 49L323 48M322 49L323 50L322 49M321 50L322 51L321 50M320 51L321 52L320 51z"/>
<path style="fill:#988c67; stroke:none;" d="M325 51L326 55L331 51L325 51z"/>
<path style="fill:#6f6347; stroke:none;" d="M319 52L320 53L319 52z"/>
<path style="fill:#988c67; stroke:none;" d="M321 52L315 61C318.13 58.7405 321.55 56.1323 321 52z"/>
<path style="fill:#6f6347; stroke:none;" d="M318 53L319 54L318 53M317 54L316 57L317 54z"/>
<path style="fill:#988c67; stroke:none;" d="M474 54L475 59L476 59L478 58L474 54M577 56L575 59L579 60L577 56z"/>
<path style="fill:#6f6347; stroke:none;" d="M601 56L602 57L601 56M315 57L316 58L315 57M314 58L315 59L314 58M603 58L604 59L603 58M313 59L314 60L313 59M604 59L605 60L604 59M312 60L313 61L312 60z"/>
<path style="fill:#988c67; stroke:none;" d="M366 60L367 61L366 60z"/>
<path style="fill:#6f6347; stroke:none;" d="M605 60L606 61L605 60M311 61L312 62L311 61z"/>
<path style="fill:#988c67; stroke:none;" d="M314 61L315 62L314 61z"/>
<path style="fill:#6f6347; stroke:none;" d="M606 61L607 62L606 61M310.333 62.6667L310.667 63.3333L310.333 62.6667z"/>
<path style="fill:#988c67; stroke:none;" d="M313 62L314 63L313 62z"/>
<path style="fill:#6f6347; stroke:none;" d="M607 62L608 63L607 62z"/>
<path style="fill:#988c67; stroke:none;" d="M312 63L313 64L312 63M376 63L374 67L376 63z"/>
<path style="fill:#6f6347; stroke:none;" d="M608.333 63.6667L608.667 64.3333L608.333 63.6667M309 64L310 65L309 64z"/>
<path style="fill:#988c67; stroke:none;" d="M311 64L312 65L311 64M601 64L602 65L601 64z"/>
<path style="fill:#6f6347; stroke:none;" d="M308 65L309 66L308 65M609 65L610 66L609 65M307 66L306 69L307 66z"/>
<path style="fill:#988c67; stroke:none;" d="M310 66L311 67L310 66z"/>
<path style="fill:#6f6347; stroke:none;" d="M610 66L612 69L610 66z"/>
<path style="fill:#988c67; stroke:none;" d="M309 67L310 68L309 67M523 67L524 68L523 67M308 68L307 71L308 68z"/>
<path style="fill:#6f6347; stroke:none;" d="M305 69L306 70L305 69M612 69L613 70L612 69M304.333 70.6667L304.667 71.3333L304.333 70.6667z"/>
<path style="fill:#988c67; stroke:none;" d="M552 70L553 71L552 70z"/>
<path style="fill:#6f6347; stroke:none;" d="M613.333 70.6667L613.667 71.3333L613.333 70.6667z"/>
<path style="fill:#988c67; stroke:none;" d="M306 71L307 72L306 71M522 71L521 82L522 82L522 71M541 71L542 74L541 71z"/>
<path style="fill:#6f6347; stroke:none;" d="M303 72L304 73L303 72z"/>
<path style="fill:#988c67; stroke:none;" d="M305.333 72.6667L305.667 73.3333L305.333 72.6667M462 72L462 73L465 73L462 72z"/>
<path style="fill:#756f68; stroke:none;" d="M609 72L608 75L609 72z"/>
<path style="fill:#6f6347; stroke:none;" d="M614 72L615 73L614 72M302 73L301 76L302 73M615.333 73.6667L615.667 74.3333L615.333 73.6667z"/>
<path style="fill:#988c67; stroke:none;" d="M304 74L305 75L304 74M303 75L302 78L303 75M465 75L465 77L467 77L467 75L465 75M512 77L515 75L512 77z"/>
<path style="fill:#6f6347; stroke:none;" d="M616 75C618.312 83.0275 624.668 94.5717 631 100C628.512 91.362 622.634 81.0799 616 75M300 76L301 77L300 76z"/>
<path style="fill:#988c67; stroke:none;" d="M600 77L600 78L603 79L600 77z"/>
<path style="fill:#6f6347; stroke:none;" d="M299 78L300 79L299 78z"/>
<path style="fill:#988c67; stroke:none;" d="M301 78L302 79L301 78z"/>
<path style="fill:#6f6347; stroke:none;" d="M298.333 79.6667L298.667 80.3333L298.333 79.6667z"/>
<path style="fill:#988c67; stroke:none;" d="M300.333 79.6667L300.667 80.3333L300.333 79.6667M544 79L545 80L544 79M595 79L593 84L590 83C588.903 86.1778 587.911 88.007 591 90L590 93L600 97L602 93L601 87L605 92C605.131 85.4158 601.099 80.9641 595 79M578 80L580 82L580 80L578 80z"/>
<path style="fill:#6f6347; stroke:none;" d="M297.333 81.6667L297.667 82.3333L297.333 81.6667z"/>
<path style="fill:#988c67; stroke:none;" d="M299 81L300 82L299 81z"/>
<path style="fill:#756f68; stroke:none;" d="M614 81L615 82L614 81z"/>
<path style="fill:#988c67; stroke:none;" d="M447 82L454 86L455 93L456 93L459 87L454 86C453.236 82.4185 450.364 82.3534 447 82z"/>
<path style="fill:#6f6347; stroke:none;" d="M296.333 83.6667L296.667 84.3333L296.333 83.6667z"/>
<path style="fill:#988c67; stroke:none;" d="M425 86L430 90C435.462 87.9435 434.586 95.5789 434 99L439 100L440 100L442 98L442 90L438 90L438 89L441 86L436 87C434.09 81.2647 429.267 84.4858 425 86M521 84L521 87L522 87L521 84z"/>
<path style="fill:#6f6347; stroke:none;" d="M295 85L289 97L290 97L295 85z"/>
<path style="fill:#988c67; stroke:none;" d="M610 88L611 89L610 88M408 92C410.005 98.4051 411.528 103.921 419 105L417 101L427 101L425 97L415 100L415 93L426 93C420.665 86.5997 414.925 91.6408 408 92M468 89L471 92L468 89M402 92L402 94L404 94L404 92L402 92z"/>
<path style="fill:#756f68; stroke:none;" d="M531 92C531.513 94.4751 531.604 94.5746 534 94L531 92M411 94L412 95L411 94z"/>
<path style="fill:#988c67; stroke:none;" d="M602 94L603 95L602 94M605 94L608 96L605 94z"/>
<path style="fill:#756f68; stroke:none;" d="M412 96L411 100L415 102L414 96L412 96z"/>
<path style="fill:#6f6347; stroke:none;" d="M288 98L280 117L281 117L288 98z"/>
<path style="fill:#756f68; stroke:none;" d="M538 99C538.011 102.173 537.317 108.418 541 109C540.344 114.038 542.408 118.629 547 121L547 115C542.051 112.23 541.135 104.318 540 99L538 99M288.333 100.667L288.667 101.333L288.333 100.667z"/>
<path style="fill:#988c67; stroke:none;" d="M546 100L548 102L548 100L546 100z"/>
<path style="fill:#6f6347; stroke:none;" d="M631 100L636 114L637 114L631 100z"/>
<path style="fill:#988c67; stroke:none;" d="M506 106L506 110L515 107L514 101L506 106z"/>
<path style="fill:#756f68; stroke:none;" d="M534 101L536 105L537 105L537 101L534 101z"/>
<path style="fill:#6f6347; stroke:none;" d="M535 101L536 102L535 101z"/>
<path style="fill:#756f68; stroke:none;" d="M591 106L595 101C591.51 101.581 590.453 102.44 591 106z"/>
<path style="fill:#988c67; stroke:none;" d="M608 101L609 102L608 101z"/>
<path style="fill:#756f68; stroke:none;" d="M287.333 102.667L287.667 103.333L287.333 102.667z"/>
<path style="fill:#988c67; stroke:none;" d="M475 102L476 103L475 102z"/>
<path style="fill:#756f68; stroke:none;" d="M532 102C532.664 106.56 531.796 111.201 536 114L532 102z"/>
<path style="fill:#988c67; stroke:none;" d="M550.333 102.667L550.667 103.333L550.333 102.667z"/>
<path style="fill:#6f6347; stroke:none;" d="M592 102L593 103L592 102z"/>
<path style="fill:#988c67; stroke:none;" d="M400 103L400 104L404 105L400 103z"/>
<path style="fill:#756f68; stroke:none;" d="M286.333 104.667L286.667 105.333L286.333 104.667z"/>
<path style="fill:#988c67; stroke:none;" d="M358 104L359 107L358 116L361 114L362 114L363 118L361 121C367.971 116.794 364.113 107.135 358 104z"/>
<path style="fill:#6f6347; stroke:none;" d="M539 104L540 108L541 108L539 104z"/>
<path style="fill:#988c67; stroke:none;" d="M542.333 105.667L542.667 106.333L542.333 105.667z"/>
<path style="fill:#756f68; stroke:none;" d="M285.333 106.667L285.667 107.333L285.333 106.667z"/>
<path style="fill:#988c67; stroke:none;" d="M394 106C394.173 111.261 395.638 113.116 401 112L391 130L393 122L392 121L378 124L384 123L381 126L383 128L381 130L384 144L388 143L387 147L395 150L398 161L394 163L394 164L402 169L398 165L398 164L403 164L410 154C410.564 146.857 409.702 138.356 415 133L413 126L413 123L411 117L410 117L410 121L409 117L409 116L401 112C401.071 107.491 398.154 106.464 394 106M353 107L353 109L355 109L355 107L353 107z"/>
<path style="fill:#756f68; stroke:none;" d="M545 107L548 110L545 107M284.333 108.667L284.667 109.333L284.333 108.667z"/>
<path style="fill:#988c67; stroke:none;" d="M320 108L321 109L320 108z"/>
<path style="fill:#6f6347; stroke:none;" d="M546 108L547 109L546 108M540.333 109.667L540.667 110.333L540.333 109.667z"/>
<path style="fill:#756f68; stroke:none;" d="M283 110L281 117L282 117L283 110z"/>
<path style="fill:#988c67; stroke:none;" d="M294 110L293 114L294 110M356 110L357 111L356 110M420 110L422 113L420 110z"/>
<path style="fill:#756f68; stroke:none;" d="M518 110L519 111L518 110z"/>
<path style="fill:#988c67; stroke:none;" d="M314 111L315 112L314 111M526 112L533 116C531.262 112.775 529.656 111.869 526 112z"/>
<path style="fill:#d0be8d; stroke:none;" d="M545 111L546 112L545 111z"/>
<path style="fill:#756f68; stroke:none;" d="M553 111L553 113L555 113L553 111M556.667 112.333L557.333 112.667L556.667 112.333z"/>
<path style="fill:#988c67; stroke:none;" d="M571 112L572 113L571 112z"/>
<path style="fill:#756f68; stroke:none;" d="M590 112L591 113L590 112z"/>
<path style="fill:#988c67; stroke:none;" d="M347.667 113.333L348.333 113.667L347.667 113.333z"/>
<path style="fill:#756f68; stroke:none;" d="M509 113L507 122L508 123L515 118L519 121L518 124C523.308 122.222 522.557 117.256 517 117L516 114L512 115L509 113z"/>
<path style="fill:#d0be8d; stroke:none;" d="M537 113L538 114L537 113z"/>
<path style="fill:#988c67; stroke:none;" d="M607 114L608 118L611 115L607 114z"/>
<path style="fill:#6f6347; stroke:none;" d="M637 114L646.896 165L644 200L640 201L640 197L638 208L636 208L635 201L634 201L633 216L632 216L631 210L630 210L629 222L628 222L628 211L626 211L624 223L621 222L622 226L619 224L612 234L607 255L602 251L595 257L594 251C588.851 253.159 587.339 256.549 588 262L582 264L578 278C573.822 276.536 564.911 282.725 564 287L566 286L566 287C561.278 291.392 552.283 286.336 551 294L547 298C538.329 295.33 536.838 300.329 530 304L530 299L532 299L526 292C525.77 287.341 522.212 286.436 518 286L520 291L518 296L524 295L523 298L529 305L528 305L527 303L521 307L523 304L518 298L512 299C511.072 294.828 506.937 293.61 503 293C501.795 296.297 500.882 300.118 505 301C499.6 306.171 496.218 299.691 491 298L491 305L487 303C486.057 311.268 471.418 305.829 466 306.669C462.916 307.147 460.249 309.577 457.001 309.106C453.911 308.659 451.84 306.25 450 304L453 304C451.436 298.197 445.623 294.558 440 293C441.182 289.551 448.009 274.568 437.255 278.068C433.768 279.203 431.475 283.364 428 285L430 288L420 284L426 291L415 284C405.522 282.231 402.873 266.649 400 259L404 261C407.435 254.183 404.167 250.633 397 250L400 256L393 252L392 255C388.691 253.221 382.268 248.082 381 254L378 252C373.965 258.816 370.621 250.971 367 248L364 260L360 263L365 262L370 273L359 270C358.055 274.217 360.272 277.859 364 280L363 277C366.751 279.25 362.31 288.578 360 288C360.334 297.524 351.472 290.85 346 290C337.434 297.872 323.372 268.513 321 283L315 281C315.364 277.142 313.461 275.357 311 279C306.358 271.391 296.338 270.011 295 260L293 260L293 266C284.947 261.429 283.653 247.981 280.573 240C274.986 225.527 270.183 210.603 269.09 195C267.899 178.01 271.654 161.773 272 145L271 145C270.278 161.806 267.295 177.994 268.039 195C269.342 224.747 278.803 256.058 295.169 281C302.332 291.916 318.315 313.102 333 313C339.339 323.75 361.424 329.708 373 328L372 331L386 333C386.82 331.458 388.107 328.665 390.431 330.059C392.754 331.451 392.696 335.025 395.228 336.606C406.15 343.428 414.3 337.568 425 338L426 334L442 338L449 335.167L463 336.833L477 328L476 331L482 334L484 330L478 328L478 327L491 330L490 333C494.621 334.27 501.194 334.14 503 329C508.442 331.859 517.764 330.447 520 324C524.183 325.02 527.519 324.319 529 320L530 320C533.976 323.871 547.763 315.419 552 313L550 311C559.756 308.439 570.78 304.415 575 295L582 296L582 291C585.761 291.123 587.274 290.353 589 287C593.83 287.286 595.483 284.545 596 280L601 281C603.604 273.763 602.653 271.13 601 264L602 264L603 268L606 266L607 270L608 270L608 266L611 268C617.297 259.497 626.305 252.788 631.907 243.999C650.419 214.955 653.426 182.274 647.424 149C645.486 138.25 643.652 122.893 637 114z"/>
<path style="fill:#988c67; stroke:none;" d="M343 115L343 117L345 117L345 115L343 115M294 116L288 123L293 122L289 134C293.609 130.035 296.389 121.858 294 116M347 116L347 118L349 118L349 116L347 116M573 116L574 117L573 116z"/>
<path style="fill:#756f68; stroke:none;" d="M280 117L269.09 170L273 221L274 221C273.53 198.225 268.808 178.11 272.131 155C273.628 144.586 282.919 126.868 280 117M407 117L410 121L411 118L407 117z"/>
<path style="fill:#d0be8d; stroke:none;" d="M557 117L558 118L557 117z"/>
<path style="fill:#988c67; stroke:none;" d="M596.333 117.667L596.667 118.333L596.333 117.667z"/>
<path style="fill:#6f6347; stroke:none;" d="M279.333 118.667L279.667 119.333L279.333 118.667M518 118L519 119L518 118z"/>
<path style="fill:#988c67; stroke:none;" d="M535 119L534 121L536 121L535 119M614.333 119.667L614.667 120.333L614.333 119.667z"/>
<path style="fill:#6f6347; stroke:none;" d="M278 120L278 123L279 123L278 120z"/>
<path style="fill:#d0be8d; stroke:none;" d="M399 120L396 134L397 135C406.335 131.949 402.368 127.944 402 120L399 120z"/>
<path style="fill:#756f68; stroke:none;" d="M405 120L403 124L407 120L405 120M408 121L409 122L408 121z"/>
<path style="fill:#d0be8d; stroke:none;" d="M549 121L549 131L550 131L550 128L554 137L550 133L546 134L547 137L544 136L541 142C541.897 146.518 547.347 153.963 543 157C546.938 166.769 543.881 181.295 557 186L556 189L571 192L572 186C576.775 186.412 587.297 171.967 588 167C582.817 163.77 582.699 159.76 583 154L578 155C579.289 159.761 575.962 162.753 572 165L572 161L570 162L569 157C565.031 158.174 563.853 157.135 564 153L567 154L567 150L567 149L559 139L556 141C556.809 133.35 554.997 126.216 549 121M571 123L566 122C566.675 125.854 568.248 126.289 572 126C572.695 129.242 583.028 132.366 574 134L581 137L578 134L582 137L583 137L581 127C576.026 127.126 574.008 126.068 573 121L571 123z"/>
<path style="fill:#988c67; stroke:none;" d="M456 122L457 123L456 122z"/>
<path style="fill:#6f6347; stroke:none;" d="M277 123L277 126L278 126L277 123z"/>
<path style="fill:#756f68; stroke:none;" d="M542 123C540.215 126.76 539.265 131.288 543 134L542 129L547 132C547.514 127.566 545.518 125.474 542 123z"/>
<path style="fill:#d0be8d; stroke:none;" d="M531 128C533.805 130.37 534.947 131.413 534 135L534 136L535 140L529 136L530 146L540 139L540 138L538 135L540 135C539.088 130.3 535.905 119.128 531 128z"/>
<path style="fill:#988c67; stroke:none;" d="M492 134L491 134L489 132L488 135L491 136L484 139L484 141L479 140L479 139C482.988 138.377 484.647 137.163 484 133L482 133L481 136L480 136L480 133L471 132L473 136L470 137L471 149C477.575 149.544 481.964 145.736 487 142L487 145L488 145L499 140L498 137C514.017 135.343 499.61 120.057 493.853 126.607C492.355 128.311 492.519 131.862 492 134z"/>
<path style="fill:#756f68; stroke:none;" d="M557 125L558 126L557 125z"/>
<path style="fill:#988c67; stroke:none;" d="M615 125L616 126L615 125z"/>
<path style="fill:#6f6347; stroke:none;" d="M276 126L276 129L277 129L276 126z"/>
<path style="fill:#756f68; stroke:none;" d="M386 126L385 131L388 127L386 126z"/>
<path style="fill:#d0be8d; stroke:none;" d="M404 126L407 129L408 128L404 126z"/>
<path style="fill:#988c67; stroke:none;" d="M620 126L616 130L618 138L614 137C614.047 140.986 614.06 143.416 618 145C619.424 137.916 625.535 133.033 620 126M354 127L354 129L356 127L354 127M464 127L470 132L464 127z"/>
<path style="fill:#6f6347; stroke:none;" d="M544 127L545 128L544 127z"/>
<path style="fill:#d0be8d; stroke:none;" d="M330 128L331 129L330 128z"/>
<path style="fill:#756f68; stroke:none;" d="M332 128L331 132L335 132L334 128L332 128M339 128L338 133L339 128M345 128L350 131L345 128M516 128L516 130L518 130L516 128z"/>
<path style="fill:#988c67; stroke:none;" d="M523 128L524 129L523 128z"/>
<path style="fill:#6f6347; stroke:none;" d="M275 129L275 132L276 132L275 129z"/>
<path style="fill:#756f68; stroke:none;" d="M311 134L315 131L316 139L320 147L321 147L317 129L311 134z"/>
<path style="fill:#6f6347; stroke:none;" d="M546 129L547 130L546 129z"/>
<path style="fill:#756f68; stroke:none;" d="M557 129C560.052 136.304 562.755 143.624 571 146L570 140L571 140L571 142L572 142L568 135L565 136C563.339 131.85 561.201 130.346 557 129z"/>
<path style="fill:#6f6347; stroke:none;" d="M315 130L316 131L315 130z"/>
<path style="fill:#988c67; stroke:none;" d="M362 130L363 133L367 130L362 130z"/>
<path style="fill:#d0be8d; stroke:none;" d="M498.333 130.667L498.667 131.333L498.333 130.667z"/>
<path style="fill:#6f6347; stroke:none;" d="M314 131C308.311 138.909 313.362 143.228 318 150L320 150C320.342 145.864 319.367 141.626 316 139L314 131z"/>
<path style="fill:#988c67; stroke:none;" d="M339.333 131.667L339.667 132.333L339.333 131.667z"/>
<path style="fill:#d0be8d; stroke:none;" d="M340 131L336 133L336 137L342 131L340 131M390 131L388 136L392 131L390 131z"/>
<path style="fill:#988c67; stroke:none;" d="M485 131L485 133L487 133L487 131L485 131z"/>
<path style="fill:#756f68; stroke:none;" d="M527 131L528 132L527 131M565.333 131.667L565.667 132.333L565.333 131.667z"/>
<path style="fill:#d0be8d; stroke:none;" d="M570 131L570 133L572 133L570 131z"/>
<path style="fill:#6f6347; stroke:none;" d="M274 132L274 136L275 136L274 132z"/>
<path style="fill:#756f68; stroke:none;" d="M329 132L327 136C329.649 135.432 330.355 134.412 329 132z"/>
<path style="fill:#6f6347; stroke:none;" d="M334 132L335 133L334 132z"/>
<path style="fill:#756f68; stroke:none;" d="M343 132L344 133L343 132z"/>
<path style="fill:#988c67; stroke:none;" d="M360 132L361 133L360 132M507 132L508 133L507 132z"/>
<path style="fill:#756f68; stroke:none;" d="M534 132L535 133L534 132z"/>
<path style="fill:#d0be8d; stroke:none;" d="M582 132L583 133L582 132z"/>
<path style="fill:#756f68; stroke:none;" d="M334 133L333 137L334 133z"/>
<path style="fill:#d0be8d; stroke:none;" d="M349 133L340 140L340 141C344.701 140.684 349.91 138.536 349 133z"/>
<path style="fill:#988c67; stroke:none;" d="M467 133L467 137L468 137L467 133z"/>
<path style="fill:#d0be8d; stroke:none;" d="M494 133L495 134L494 133M498 136L501 133L498 136M531 133L533 135L533 133L531 133M544 133L545 134L544 133M633 133L633 136L634 136L633 133M503 134L504 135L503 134z"/>
<path style="fill:#756f68; stroke:none;" d="M310 135L307 145L310 146L308 152L312 149L311 154L312 154L313 150L314 150L317 164L318 164L321 148L320 148L318 150L310 135z"/>
<path style="fill:#988c67; stroke:none;" d="M418 135L418 137L420 135L418 135z"/>
<path style="fill:#756f68; stroke:none;" d="M483 135L484 136L483 135M524 135L524 136L528 135L524 135z"/>
<path style="fill:#6f6347; stroke:none;" d="M526 135L527 136L526 135M273 136L272 144L273 144L273 136z"/>
<path style="fill:#988c67; stroke:none;" d="M421 136L422 138L423 138L424 136L421 136z"/>
<path style="fill:#756f68; stroke:none;" d="M451 136L452 137L451 136z"/>
<path style="fill:#988c67; stroke:none;" d="M289 137L290 138L289 137z"/>
<path style="fill:#d0be8d; stroke:none;" d="M308 137L309 138L308 137M328 137L329 138L328 137z"/>
<path style="fill:#756f68; stroke:none;" d="M516 137C514.95 143.818 508.146 149.732 518 153L513 157L518 162L522 163L522 164L519 165L518 171L524 175L517 174L517 175L524 180L523 176C526.42 176.379 527.257 177.787 526 181L527 182L538 179L537 182L541 181L539 177L543 175L539 159L537 160L533 153L530 152L530 147L529 147L528 152L532 154L528 154L526 173L525 173L524 173L521 170L525 167L525 155L521 153L526 151L528 147L523 149L522 146L525 145L525 144L520 143L519 147L515 147L520 140L516 137z"/>
<path style="fill:#d0be8d; stroke:none;" d="M523.333 137.667L523.667 138.333L523.333 137.667z"/>
<path style="fill:#988c67; stroke:none;" d="M612.333 137.667L612.667 138.333L612.333 137.667z"/>
<path style="fill:#756f68; stroke:none;" d="M330 138L331 139L330 138M392 139L398 144C396.954 140.477 395.696 139.166 392 139z"/>
<path style="fill:#988c67; stroke:none;" d="M426 138L428 140L428 138L426 138z"/>
<path style="fill:#d0be8d; stroke:none;" d="M478 138L479 139L478 138z"/>
<path style="fill:#988c67; stroke:none;" d="M550 138L552 142L550 138z"/>
<path style="fill:#756f68; stroke:none;" d="M313 139L314 140L313 139M331 141L331 142L337 140L331 141z"/>
<path style="fill:#988c67; stroke:none;" d="M422.333 139.667L422.667 140.333L422.333 139.667z"/>
<path style="fill:#756f68; stroke:none;" d="M448 139L448 142L449 142L448 139z"/>
<path style="fill:#988c67; stroke:none;" d="M568.667 139.333L569.333 139.667L568.667 139.333M285 140L284 144L285 144L285 140M290.333 140.667L290.667 141.333L290.333 140.667z"/>
<path style="fill:#d0be8d; stroke:none;" d="M336 141L335 144L338 144L336 141M349 141L349 145L350 145L349 141z"/>
<path style="fill:#6f6347; stroke:none;" d="M517 141L518 142L517 141z"/>
<path style="fill:#756f68; stroke:none;" d="M629 141C629 145.57 627.776 151.261 632 154L629 141z"/>
<path style="fill:#d0be8d; stroke:none;" d="M343 142L344 143L343 142M459 144L462 142L459 144M596.667 142.333L597.333 142.667L596.667 142.333z"/>
<path style="fill:#988c67; stroke:none;" d="M610 142L611 143L610 142z"/>
<path style="fill:#6f6347; stroke:none;" d="M309.667 143.333L310.333 143.667L309.667 143.333z"/>
<path style="fill:#756f68; stroke:none;" d="M446 143L445 149L447 146L448 146L448 151L449 151L450 146L446 143z"/>
<path style="fill:#988c67; stroke:none;" d="M469 143L470 144L469 143M290 144L291 145L290 144M292 144L290 149L295 145L292 144z"/>
<path style="fill:#d0be8d; stroke:none;" d="M302 144L301 148L304 144L302 144M323 144L323 148L327 144L323 144M328 144L327 149C329.444 147.392 329.662 146.413 328 144z"/>
<path style="fill:#988c67; stroke:none;" d="M414 144L416 149L414 144M426 144L426 151C419.989 152.288 424.2 157.679 428 159L435 146L432 147L426 144z"/>
<path style="fill:#d0be8d; stroke:none;" d="M527 144L526 146L527 144z"/>
<path style="fill:#988c67; stroke:none;" d="M555 146C555.337 151.061 557.04 157.013 563 155L564 146L555 146M311 145L312 146L311 145z"/>
<path style="fill:#d0be8d; stroke:none;" d="M365.333 145.667L365.667 146.333L365.333 145.667M392.667 145.333L393.333 145.667L392.667 145.333z"/>
<path style="fill:#756f68; stroke:none;" d="M509 145L510 146L509 145M583 145L582 148L583 145z"/>
<path style="fill:#988c67; stroke:none;" d="M590 145L591 146L590 145z"/>
<path style="fill:#6f6347; stroke:none;" d="M630 145L631 146L630 145z"/>
<path style="fill:#756f68; stroke:none;" d="M336 146L336 151L337 151L336 146M339 146L339 148L341 146L339 146M451 146L452 147L451 146z"/>
<path style="fill:#988c67; stroke:none;" d="M283.333 147.667L283.667 148.333L283.333 147.667z"/>
<path style="fill:#d0be8d; stroke:none;" d="M342 147L344 151L342 147z"/>
<path style="fill:#756f68; stroke:none;" d="M359.667 147.333L360.333 147.667L359.667 147.333z"/>
<path style="fill:#6f6347; stroke:none;" d="M520 147L518 153L519 153L520 147M528 147L526 151L521 153L525 155L525 167L521 170L524 173L525 173L526 173L528 154L532 154L528 152L528 147z"/>
<path style="fill:#756f68; stroke:none;" d="M536 147L540 150L536 147z"/>
<path style="fill:#d0be8d; stroke:none;" d="M562 147L563 148L562 147M348 148L349 149L348 148M360 154L366 148C362.007 148.636 360.636 150.007 360 154M450 148L449 153L450 155L452 157L455 158L456 158L458 156L450 148M454 148L456 152L454 148z"/>
<path style="fill:#756f68; stroke:none;" d="M511 155L509 151L511 148C505.187 148.973 506.814 152.646 511 155z"/>
<path style="fill:#d0be8d; stroke:none;" d="M593 148L594 149L593 148z"/>
<path style="fill:#6f6347; stroke:none;" d="M514 149L514 151L516 151L516 149L514 149z"/>
<path style="fill:#d0be8d; stroke:none;" d="M299 150L299 152L301 152L301 150L299 150z"/>
<path style="fill:#756f68; stroke:none;" d="M352 150L349 154L349 155L357 161L354 150L352 150z"/>
<path style="fill:#d0be8d; stroke:none;" d="M404 152L407 150L404 152z"/>
<path style="fill:#6f6347; stroke:none;" d="M507 150L508 151L507 150z"/>
<path style="fill:#756f68; stroke:none;" d="M604 150L606 153L604 150M610.333 150.667L610.667 151.333L610.333 150.667z"/>
<path style="fill:#d0be8d; stroke:none;" d="M323 151L322 158L325 151L323 151M396 151L397 152L396 151z"/>
<path style="fill:#988c67; stroke:none;" d="M476 151L481 155L481 154L476 151M482 151L481 152L482 157L484 157L484 151L482 151z"/>
<path style="fill:#d0be8d; stroke:none;" d="M536.333 151.667L536.667 152.333L536.333 151.667M339 152L339 156L340 156L341 152L339 152z"/>
<path style="fill:#756f68; stroke:none;" d="M447 152L443 156L447 152M343.333 153.667L343.667 154.333L343.333 153.667M399 154L404 157L399 154z"/>
<path style="fill:#d0be8d; stroke:none;" d="M461 153L463 155L463 153L461 153M512 153L513 154L512 153z"/>
<path style="fill:#756f68; stroke:none;" d="M599 153L600 154L599 153z"/>
<path style="fill:#988c67; stroke:none;" d="M284.333 154.667L284.667 155.333L284.333 154.667z"/>
<path style="fill:#6f6347; stroke:none;" d="M316 154L317 157L318 157L319 154L316 154z"/>
<path style="fill:#d0be8d; stroke:none;" d="M326 157L329 154L326 157z"/>
<path style="fill:#756f68; stroke:none;" d="M336 154L338 160L336 154z"/>
<path style="fill:#d0be8d; stroke:none;" d="M503 154L503 157L504 157L503 154z"/>
<path style="fill:#6f6347; stroke:none;" d="M640 154L644 159L640 154z"/>
<path style="fill:#d0be8d; stroke:none;" d="M297 155L298 156L297 155M313.333 155.667L313.667 156.333L313.333 155.667z"/>
<path style="fill:#6f6347; stroke:none;" d="M515 155L515 156L518 157L515 155z"/>
<path style="fill:#988c67; stroke:none;" d="M520 156L521 159L524 155L520 156z"/>
<path style="fill:#756f68; stroke:none;" d="M592 156L595 160L592 161C589.967 158.153 587.241 156.848 585 160L587 159L586 162L590 163L589 167L599 164L600 168C595.651 169.57 594.61 171.591 596 176L597 176L597 172L602 173L604 169L600 164L604 157L598 161L598 158L595 155L592 156z"/>
<path style="fill:#d0be8d; stroke:none;" d="M462 156L462 157L465 158L462 156z"/>
<path style="fill:#988c67; stroke:none;" d="M476 156L478 159L476 156z"/>
<path style="fill:#6f6347; stroke:none;" d="M531 156L530 160L536 163L536 164C529.732 167.486 532.73 173.091 533 179L539 177L541 173L537 175L540.493 165.056L531 156z"/>
<path style="fill:#988c67; stroke:none;" d="M281 157L280 160L281 157z"/>
<path style="fill:#d0be8d; stroke:none;" d="M360 157L361 162L362 157L360 157z"/>
<path style="fill:#756f68; stroke:none;" d="M365 157L367 161L365 157M505 158L507 163C510.598 160.379 509.443 157.317 505 158z"/>
<path style="fill:#d0be8d; stroke:none;" d="M576 157L575 159L577 159L576 157M328 158L328 160L330 158L328 158z"/>
<path style="fill:#756f68; stroke:none;" d="M340 160L344 159L340 160z"/>
<path style="fill:#d0be8d; stroke:none;" d="M350 158L349 163L354 164L355 161L350 158z"/>
<path style="fill:#988c67; stroke:none;" d="M560 158L560 160L562 160L560 158M595.667 158.333L596.333 158.667L595.667 158.333z"/>
<path style="fill:#756f68; stroke:none;" d="M446 159L447 160L446 159z"/>
<path style="fill:#d0be8d; stroke:none;" d="M516 159L517 160L516 159z"/>
<path style="fill:#6f6347; stroke:none;" d="M519.333 159.667L519.667 160.333L519.333 159.667z"/>
<path style="fill:#988c67; stroke:none;" d="M619 159L620 165L621 165L619 159z"/>
<path style="fill:#d0be8d; stroke:none;" d="M633 159L634 160L633 159z"/>
<path style="fill:#756f68; stroke:none;" d="M453 160L452 163L455 164L452 168C455.299 170.213 458.189 173.004 462 171L463 175L448 170L446 175L446 176L448 178C439.175 178.599 439.648 180.792 440 189L447 189L452 195L452 191L462 191L461 189L462 189L470 196L468 193L473 191L473 186L468 181L472 182L471 174L475 184L476 184L479 182L478 169L470 171L457 164L455 160L453 160z"/>
<path style="fill:#d0be8d; stroke:none;" d="M511 160L509 166L513 163L517 164L511 160z"/>
<path style="fill:#756f68; stroke:none;" d="M607 160L605 164C608.016 162.995 609.705 162.179 609 165L610 165L611 165L609 160L607 160z"/>
<path style="fill:#988c67; stroke:none;" d="M425 161L426 162L425 161z"/>
<path style="fill:#d0be8d; stroke:none;" d="M327 162L329 166L333 163L327 162z"/>
<path style="fill:#756f68; stroke:none;" d="M356 162L356 165L351 174L354 175L354 171L360 173L357 170L356 162M470 162C471.556 163.813 472.444 163.813 474 162L470 162M504 162L502 166L504 162M627 162L628 163L627 162M342 163L341 165L343 165L342 163M346 171C348.677 168.452 348.957 166.521 348 163C344.874 165.262 345.177 167.398 346 171z"/>
<path style="fill:#d0be8d; stroke:none;" d="M321 164L320 169L324 169L325 164L321 164z"/>
<path style="fill:#6f6347; stroke:none;" d="M355 164L356 165L355 164z"/>
<path style="fill:#d0be8d; stroke:none;" d="M493 164L488 166L490 169L491 176L492 176L493 171L505 174L503 167C497.086 169.733 496.912 168.98 493 164z"/>
<path style="fill:#756f68; stroke:none;" d="M514 164L513 168L517 166L517 165L514 164z"/>
<path style="fill:#988c67; stroke:none;" d="M531 164L532 165L531 164M576 164L577 165L576 164z"/>
<path style="fill:#6f6347; stroke:none;" d="M591 164L594 167L591 164z"/>
<path style="fill:#d0be8d; stroke:none;" d="M333 165L336 175L334 172L330 175L330 177C337.78 181.362 335.367 190.409 336 198L332 197L333 201L331 207L361 206L361 204L366 205L370 201C370.973 197.379 373.774 194.514 370 192L371 195L365 194L366 197L360 196L362 199C342.629 200.993 348.65 180.893 344 169L333 165z"/>
<path style="fill:#756f68; stroke:none;" d="M361 167L364 165L361 167z"/>
<path style="fill:#d0be8d; stroke:none;" d="M468 165L468 168L469 168L470 165L468 165z"/>
<path style="fill:#988c67; stroke:none;" d="M580 165L581 166L580 165M346 166L347 167L346 166z"/>
<path style="fill:#756f68; stroke:none;" d="M534 166L535 167L534 166z"/>
<path style="fill:#988c67; stroke:none;" d="M418 167L417 169L419 169L418 167z"/>
<path style="fill:#756f68; stroke:none;" d="M506 170L509 168L511 172L514 172C512.139 168.305 508.872 165.931 506 170M517 167L518 168L517 167z"/>
<path style="fill:#988c67; stroke:none;" d="M404 169C404.735 177.792 408.43 192.183 419 194L422 176L410 182C410.853 176.297 412.025 168.311 404 169z"/>
<path style="fill:#d0be8d; stroke:none;" d="M482 168L480 179L481 180C484.062 176.746 486.189 171.055 482 168z"/>
<path style="fill:#6f6347; stroke:none;" d="M508 168L509 169L508 168z"/>
<path style="fill:#d0be8d; stroke:none;" d="M361 169L364 172L361 169z"/>
<path style="fill:#756f68; stroke:none;" d="M366 173L370 172L370 173L365 174L371 179L371 174L375 174L375 170C371.177 169.536 368.332 169.735 366 173M524 169L525 170L524 169z"/>
<path style="fill:#d0be8d; stroke:none;" d="M589 172L594 170L589 172z"/>
<path style="fill:#6f6347; stroke:none;" d="M598 169L598 171L600 171L600 169L598 169z"/>
<path style="fill:#d0be8d; stroke:none;" d="M625 169L625 172L626 172L625 169z"/>
<path style="fill:#988c67; stroke:none;" d="M471 171L473 173L473 171L471 171M475 171L476 172L475 171z"/>
<path style="fill:#6f6347; stroke:none;" d="M512 171L513 172L512 171z"/>
<path style="fill:#d0be8d; stroke:none;" d="M515 171L509 174L506 173L506 177L494 174L493 178L481 183L492 195L492 191L494 193L495 193L499 192C503.367 187.256 506.979 185.216 513 188L519 177L516 176L518 172L515 171z"/>
<path style="fill:#6f6347; stroke:none;" d="M528.333 171.667L528.667 172.333L528.333 171.667z"/>
<path style="fill:#d0be8d; stroke:none;" d="M284 172L285 173L284 172z"/>
<path style="fill:#988c67; stroke:none;" d="M340 172L341 179L342 179L344 176L341 177L340 172M467 173L464 179L467 173z"/>
<path style="fill:#d0be8d; stroke:none;" d="M519 173L520 174L519 173z"/>
<path style="fill:#988c67; stroke:none;" d="M530 173L529 178C531.444 176.392 531.662 175.413 530 173z"/>
<path style="fill:#756f68; stroke:none;" d="M357 174L354 177L357 174z"/>
<path style="fill:#988c67; stroke:none;" d="M509 174L510 175L509 174M516 174L516 176L518 176L516 174z"/>
<path style="fill:#756f68; stroke:none;" d="M591 174L590 187L591 187C591 182.789 589.721 175.18 593 176L591 174M606 174L605 178L608 174L606 174M303.333 175.667L303.667 176.333L303.333 175.667z"/>
<path style="fill:#d0be8d; stroke:none;" d="M350 175L350 181L354 183L351 184C350.712 188.023 347.958 191.34 352 194L352 190L353 190L355 194L356 194L355 187L358 189L359 188L357 180L350 175z"/>
<path style="fill:#6f6347; stroke:none;" d="M523 176L528 180C527.052 176.898 526.251 176.134 523 176z"/>
<path style="fill:#d0be8d; stroke:none;" d="M583 175L584 176L583 175z"/>
<path style="fill:#6f6347; stroke:none;" d="M591 175L592 192L593 192C595.319 185.132 596.723 180.571 591 175M597 175L597 193C603.11 188.129 604.198 178.86 597 175z"/>
<path style="fill:#756f68; stroke:none;" d="M598.667 175.333L599.333 175.667L598.667 175.333z"/>
<path style="fill:#d0be8d; stroke:none;" d="M602.667 175.333L603.333 175.667L602.667 175.333M362 176L364 180L362 176z"/>
<path style="fill:#756f68; stroke:none;" d="M600 176L601 177L600 176M374 177L375 178L374 177z"/>
<path style="fill:#988c67; stroke:none;" d="M448 179L451 177L448 179M506 177L509 182L506 177z"/>
<path style="fill:#d0be8d; stroke:none;" d="M545 177L545 183L549 183L545 177z"/>
<path style="fill:#756f68; stroke:none;" d="M593 177L594 178L593 177M595 177L596 190C599.633 186.75 597.478 180.499 595 177M601 177L602 178L601 177z"/>
<path style="fill:#d0be8d; stroke:none;" d="M308 178L309 179L308 178z"/>
<path style="fill:#756f68; stroke:none;" d="M418 193L415 182L419 178C412.061 181.036 411.365 188.859 418 193z"/>
<path style="fill:#988c67; stroke:none;" d="M495 178C493.203 180.854 493.849 181.975 497 183L495 178z"/>
<path style="fill:#756f68; stroke:none;" d="M602 178L603 179L602 178z"/>
<path style="fill:#d0be8d; stroke:none;" d="M311 179L311 182L312 182L313 179L311 179z"/>
<path style="fill:#6f6347; stroke:none;" d="M456 179L457 180L456 179z"/>
<path style="fill:#d0be8d; stroke:none;" d="M583.333 179.667L583.667 180.333L583.333 179.667z"/>
<path style="fill:#756f68; stroke:none;" d="M603 179L603 182L604 182L603 179z"/>
<path style="fill:#d0be8d; stroke:none;" d="M610 179L612 191L610 179z"/>
<path style="fill:#756f68; stroke:none;" d="M297.333 180.667L297.667 181.333L297.333 180.667z"/>
<path style="fill:#d0be8d; stroke:none;" d="M304 180L305 181L304 180z"/>
<path style="fill:#756f68; stroke:none;" d="M365 182L368 180L365 182z"/>
<path style="fill:#6f6347; stroke:none;" d="M441 180L442 181L441 180z"/>
<path style="fill:#d0be8d; stroke:none;" d="M480 180L480 183L481 183L480 180z"/>
<path style="fill:#756f68; stroke:none;" d="M483 180L484 181L483 180z"/>
<path style="fill:#d0be8d; stroke:none;" d="M277 181C276.174 193.406 277.759 204.229 282 216L283 216L284 197L281 197L280 200L279 181L277 181M370 181L369 191L373 188L374 188L376 190L375 181L370 181z"/>
<path style="fill:#6f6347; stroke:none;" d="M443 181L442 185L447 187L445 181L443 181M451 181L452 189L459 188L451 181M458 181L462 186L463 185L462 181L458 181z"/>
<path style="fill:#988c67; stroke:none;" d="M491 181L490 185L491 181z"/>
<path style="fill:#d0be8d; stroke:none;" d="M532 181L533 182L532 181z"/>
<path style="fill:#756f68; stroke:none;" d="M617.333 181.667L617.667 182.333L617.333 181.667M536 182L529 189L537 188L535 197L540 194C539.314 197.868 538.613 201.419 542 204L541 199L546 198L543 199L536 182M306 183L307 184L306 183z"/>
<path style="fill:#d0be8d; stroke:none;" d="M378 183L376 186L379 187L378 183z"/>
<path style="fill:#988c67; stroke:none;" d="M502 183L501 186L502 183z"/>
<path style="fill:#d0be8d; stroke:none;" d="M519.667 183.333L520.333 183.667L519.667 183.333z"/>
<path style="fill:#756f68; stroke:none;" d="M602 183L603 184L602 183M363 184L366 187L363 184M381 184L386 200L381 200L381 193L376 195L377 199L373 197L371 203L372 203L373 200L377 201L380 197L375 208L388 208L390 215L386 221L385 221L384 217C387.569 216.235 387.11 214.059 386 211L379 212L386 214L386 216L382 222L389 224L386 228L382 222C376.809 225.371 379.782 231.202 383 235C380.232 235.605 380.423 236.289 381 239L374 240L376 242L369 245L360 244L364 253L366 251L367 251C367.638 248.608 367.779 248.964 370 250L369 247L377 251L371 254L371 255C374.573 255.871 376.715 255.656 378 252L381 254C383.847 249.801 388.167 253.542 392 255L393 252L400 256L397 250L401 251L398 246L397 249L396 249L398 245L393 237L394 235C387.976 231.337 388.683 227.1 394 223L389 208L392 209L391 212C395.923 208.018 393.796 198.899 388 197C389.184 190.843 387.06 186.111 381 184z"/>
<path style="fill:#d0be8d; stroke:none;" d="M438 184L439 185L438 184M478 184L479 185L478 184z"/>
<path style="fill:#988c67; stroke:none;" d="M493.667 184.333L494.333 184.667L493.667 184.333M496 184L497 189L498 189L500 186L500 185L496 184z"/>
<path style="fill:#d0be8d; stroke:none;" d="M523 184C521.617 189.124 524.255 191.277 528 187L525 184L523 184z"/>
<path style="fill:#756f68; stroke:none;" d="M546.333 184.667L546.667 185.333L546.333 184.667z"/>
<path style="fill:#d0be8d; stroke:none;" d="M549.333 184.667L549.667 185.333L549.333 184.667M579 185L572 200C575.881 202.419 576.852 204.468 577 209L582 208L584 202C580.307 201.538 581.08 199 582 196L584 198L585 198L589 185L583 187L584 184L579 185z"/>
<path style="fill:#756f68; stroke:none;" d="M601 184L601 187L602 187L601 184M308 185L310 193L311 193L313 193L315 188L308 185z"/>
<path style="fill:#d0be8d; stroke:none;" d="M474.333 185.667L474.667 186.333L474.333 185.667z"/>
<path style="fill:#6f6347; stroke:none;" d="M535 185L535 187L539 187L539 185L535 185z"/>
<path style="fill:#988c67; stroke:none;" d="M441 186L442 187L441 186z"/>
<path style="fill:#756f68; stroke:none;" d="M476 186L474 190L477 189C476.375 192.479 475.904 194.921 479 197L477 194L478 191L482 192L478 186L476 186z"/>
<path style="fill:#988c67; stroke:none;" d="M493 186L493 188L495 188L493 186z"/>
<path style="fill:#6f6347; stroke:none;" d="M467 187L467 190L469 189L469 188L467 187z"/>
<path style="fill:#756f68; stroke:none;" d="M505 187L504 191L501 190L502 193L489 199L489 195L489 194L486 193L483 194L482 194L488 201L490 200L491 201L489 203L489 204L494 203L503 205L503 204L500 203L500 202L504 204L505 204L504 196L509 195L508 199L513 203L515 200L507 192L509 188L505 187M515 190L518 187L515 190M550 187L546 189C547.538 193.182 549.698 193.859 554 194L554 204C558.036 201.052 555.724 197.278 555 193L560 193L561 199L565 198L565 201L569 197L553 192L550 187M594.333 187.667L594.667 188.333L594.333 187.667M600.333 187.667L600.667 188.333L600.333 187.667z"/>
<path style="fill:#d0be8d; stroke:none;" d="M380 188L382 195L383 195L380 188z"/>
<path style="fill:#6f6347; stroke:none;" d="M415 188L416 189L415 188z"/>
<path style="fill:#756f68; stroke:none;" d="M437 188L437 191L438 191L437 188z"/>
<path style="fill:#988c67; stroke:none;" d="M448 188L451 190L448 188z"/>
<path style="fill:#6f6347; stroke:none;" d="M550 188L549 193L550 193L550 188M458 189L459 190L458 189M461 189L470 199L470 198L461 189z"/>
<path style="fill:#d0be8d; stroke:none;" d="M483 189L483 192L484 192L483 189z"/>
<path style="fill:#756f68; stroke:none;" d="M528 189L529 190L528 189M591 189L589 198L594 190L593 190L593 192L592 192L591 189M599 189L599 192L600 192L599 189M398 190L399 194L395 195L398 206L399 206L397 200L400 199L400 193L401 193L409 201L408 194L413 196C410.476 200.459 407.639 210.811 401 209L400 209L401 213L415 198C411.978 192.905 407.918 191.605 403 195L398 190z"/>
<path style="fill:#d0be8d; stroke:none;" d="M513 190L515 194L514 197L520 196L523 198L524 193L521 190L513 190z"/>
<path style="fill:#6f6347; stroke:none;" d="M311.333 191.667L311.667 192.333L311.333 191.667z"/>
<path style="fill:#756f68; stroke:none;" d="M596 191L596 196L599 194L596 191z"/>
<path style="fill:#d0be8d; stroke:none;" d="M374 192L375 193L374 192z"/>
<path style="fill:#6f6347; stroke:none;" d="M385 192L388 195L387 192L385 192z"/>
<path style="fill:#756f68; stroke:none;" d="M462 192L463 193L462 192z"/>
<path style="fill:#d0be8d; stroke:none;" d="M474 192L475 193L474 192M525 192L527 197C524.696 200.598 526.118 203.406 528 207L529 207L531 202L530 201C527.461 201.05 526.193 200.319 529 199L525 192z"/>
<path style="fill:#6f6347; stroke:none;" d="M400 193L400 199L397 200L401 211C408.239 208.432 410.143 202.559 413 196L408 194L409 201L400 193z"/>
<path style="fill:#988c67; stroke:none;" d="M430 193L433 197L432 193L430 193z"/>
<path style="fill:#756f68; stroke:none;" d="M463 193L465 195L465 193L463 193z"/>
<path style="fill:#d0be8d; stroke:none;" d="M471 193L471 195L473 195L471 193z"/>
<path style="fill:#6f6347; stroke:none;" d="M555 193L552 211L551 211L550 200L541 199L542 204L540 194C532.792 196.086 533.282 205.461 538 209L539 205L540 205L540 212L544 219C534.496 222.154 544.541 238.153 543 245C545.589 249.82 540.669 260.779 539 266L542 265L540 274C552.319 270.907 544.286 259.493 546.603 251C547.924 246.156 552.51 242.615 553.481 237.91C554.88 231.132 549.942 224.095 551.187 217.019C552.199 211.261 560.768 205.618 565 202L565 198L561 199L560 193L555 193M591 193L592 194L591 193M477.667 194.333L478.333 194.667L477.667 194.333M487 194L488 195L487 194M508 195L504 196L505 204L499 204L501 207L495 208L495 209L509 208L507 203L511 203L511 206L517 202L508 199L508 195z"/>
<path style="fill:#d0be8d; stroke:none;" d="M530 195L530 198L532 197L532 196L530 195z"/>
<path style="fill:#756f68; stroke:none;" d="M465 196L463 201L459 200L458 203C463.949 205.591 471.065 201.945 465 196M472 197L472 198L476 198L474 203L478 207L479 207L477 202L480 204L484 204L485 201L484 200L472 197z"/>
<path style="fill:#988c67; stroke:none;" d="M577 196L576 199C578.158 198.022 578.501 197.812 577 196z"/>
<path style="fill:#6f6347; stroke:none;" d="M379 197L377 201L373 200L370 209L361 211L360 215L365 217L365 212C367.524 213.863 370.119 216.028 371 212L372 212L373 214L379 212L386 211L384 217L385 221L386 221L390 215L388 208L375 208C377.676 204.732 380.491 201.312 379 197z"/>
<path style="fill:#756f68; stroke:none;" d="M468 197L469 198L468 197z"/>
<path style="fill:#6f6347; stroke:none;" d="M482.667 197.333L483.333 197.667L482.667 197.333M495 197L493 198L494 202L497 197L495 197z"/>
<path style="fill:#988c67; stroke:none;" d="M498 197C498.654 200.054 500.007 199.936 503 200L503 199L498 197z"/>
<path style="fill:#d0be8d; stroke:none;" d="M552 197L554 203L552 197M393.333 198.667L393.667 199.333L393.333 198.667z"/>
<path style="fill:#756f68; stroke:none;" d="M469 200L472 200L471 198L469 200z"/>
<path style="fill:#6f6347; stroke:none;" d="M473 200L476 198L473 200z"/>
<path style="fill:#756f68; stroke:none;" d="M481 200L484 198L481 200M536.333 198.667L536.667 199.333L536.333 198.667z"/>
<path style="fill:#d0be8d; stroke:none;" d="M608 198L609 199L608 198M610 198L611 199L610 198z"/>
<path style="fill:#6f6347; stroke:none;" d="M387 199L387 200L391 201L387 199M396 199L397 200L396 199z"/>
<path style="fill:#988c67; stroke:none;" d="M433 199L433 203L434 203L433 199M453 199L454 200L453 199z"/>
<path style="fill:#6f6347; stroke:none;" d="M464 199L466 203L467 199L464 199z"/>
<path style="fill:#756f68; stroke:none;" d="M518 199L516 205L521 199L518 199M547.667 199.333L548.333 199.667L547.667 199.333z"/>
<path style="fill:#d0be8d; stroke:none;" d="M582 199L583 201L584 201L585 199L582 199M288 203L291 203L293 209L294 209L294 200L288 203M327 200L330 202L327 200z"/>
<path style="fill:#6f6347; stroke:none;" d="M478 200L479 201L478 200M518 200L519 201L518 200z"/>
<path style="fill:#756f68; stroke:none;" d="M532 200L532 201L534 202L533 207L534 207L536 200L532 200z"/>
<path style="fill:#988c67; stroke:none;" d="M380 201L379 204L380 201z"/>
<path style="fill:#d0be8d; stroke:none;" d="M394 201L395 202L394 201z"/>
<path style="fill:#756f68; stroke:none;" d="M592 201L593 204L590 204L590 206L594 206L596 201L592 201z"/>
<path style="fill:#6f6347; stroke:none;" d="M385.333 202.667L385.667 203.333L385.333 202.667M390 202L390 204L392 204L392 202L390 202z"/>
<path style="fill:#d0be8d; stroke:none;" d="M395 202L396 203L395 202z"/>
<path style="fill:#6f6347; stroke:none;" d="M477 202L477 203L481 203L477 202z"/>
<path style="fill:#988c67; stroke:none;" d="M500 202L500 203L504 204L500 202z"/>
<path style="fill:#756f68; stroke:none;" d="M515 202L516 203L515 202M546 202L545 210L546 210C548.184 206.7 548.923 204.959 546 202M550 202L551 211L552 211L550 202M563 202L564 203L563 202z"/>
<path style="fill:#d0be8d; stroke:none;" d="M561 237L570 214L571 221L573 221L574 220L574 203L565.314 203.643L563.012 216L561 237z"/>
<path style="fill:#756f68; stroke:none;" d="M368 203C363.153 208.705 355.351 209.377 355 218L358 216L358 220L371 216L371 215L365 212L365 217L360 215L361 211L370 209L371 204L370 203L368 203z"/>
<path style="fill:#6f6347; stroke:none;" d="M382 203L380 206L382 203M388 203L389 204L388 203z"/>
<path style="fill:#988c67; stroke:none;" d="M422 203L419 204L421 208L420 215L415 216L415 217C418.3 219.425 420.062 220.5 424 219L420 215L426 216C427.645 210.419 426.681 206.567 422 203z"/>
<path style="fill:#6f6347; stroke:none;" d="M461.667 203.333L462.333 203.667L461.667 203.333z"/>
<path style="fill:#756f68; stroke:none;" d="M507 203L507 204L510 206L508 205L508 206L512 207L511 203L507 203M522 203L522 207L514 208L517 212L518 212C519.807 208.884 521.491 208.816 525 209L524 206L527 210C524.078 212.67 527.109 215.373 529 218L535 217L535 225L536 225C536 222.276 534.799 208.359 540 212L540 205L539 205L538 209L534 207C529.561 209.795 525.708 205.557 522 203M382 204L381 206L382 204z"/>
<path style="fill:#988c67; stroke:none;" d="M383 204L381 207L384 208L385 207L383 204z"/>
<path style="fill:#d0be8d; stroke:none;" d="M413 204L412 207L413 204z"/>
<path style="fill:#756f68; stroke:none;" d="M482 204L481 206L482 204z"/>
<path style="fill:#d0be8d; stroke:none;" d="M484 204L485 205L484 204z"/>
<path style="fill:#988c67; stroke:none;" d="M497 204L497 208L500 207L497 204M508 204L510 206L510 204L508 204z"/>
<path style="fill:#756f68; stroke:none;" d="M519 204L520 205L519 204z"/>
<path style="fill:#988c67; stroke:none;" d="M546 204L548 206L546 204z"/>
<path style="fill:#756f68; stroke:none;" d="M562 204L563 205L562 204z"/>
<path style="fill:#6f6347; stroke:none;" d="M616 204L617 205L616 204z"/>
<path style="fill:#988c67; stroke:none;" d="M387.333 205.667L387.667 206.333L387.333 205.667z"/>
<path style="fill:#6f6347; stroke:none;" d="M482 205L483 206L482 205z"/>
<path style="fill:#d0be8d; stroke:none;" d="M497 205L495 206L495 207L497 205z"/>
<path style="fill:#756f68; stroke:none;" d="M499 205L500 206L499 205M505.667 205.333L506.333 205.667L505.667 205.333M515 205L516 206L515 205M561 205L562 206L561 205z"/>
<path style="fill:#988c67; stroke:none;" d="M378 206L378 208L380 208L380 206L378 206z"/>
<path style="fill:#6f6347; stroke:none;" d="M390 206L392 208L392 206L390 206z"/>
<path style="fill:#d0be8d; stroke:none;" d="M396 206L399 209L396 206z"/>
<path style="fill:#756f68; stroke:none;" d="M403 206L404 207L403 206z"/>
<path style="fill:#d0be8d; stroke:none;" d="M422 206L425 209L422 206z"/>
<path style="fill:#756f68; stroke:none;" d="M492 206L493 207L492 206M500 206L501 207L500 206M503 206L503 208L505 206L503 206z"/>
<path style="fill:#6f6347; stroke:none;" d="M524 206L525 209C521.334 208.431 519.265 208.223 518 212L512 211L509 217L505 212L497 211L497 212C503.018 215.927 508.21 219.403 509.194 227.004C509.678 230.74 507.864 235.292 509.571 238.776C512.425 244.603 517.509 245.366 518 253C522.556 251.896 531.173 252.405 534.682 249.4C542.079 243.067 535.068 225.053 535 217L529 218L527 210L524 206z"/>
<path style="fill:#756f68; stroke:none;" d="M560 206L561 207L560 206z"/>
<path style="fill:#d0be8d; stroke:none;" d="M290 207L291 224C295.929 220.404 292.903 211.398 290 207z"/>
<path style="fill:#756f68; stroke:none;" d="M399 207L400 208L399 207M495.667 207.333L496.333 207.667L495.667 207.333M498 207L499 208L498 207z"/>
<path style="fill:#d0be8d; stroke:none;" d="M505 207L503 211L507 211L507 216L508 216L511 209L505 207M512 207L512 209L514 207L512 207z"/>
<path style="fill:#756f68; stroke:none;" d="M559 207L560 208L559 207M372 208L373 209L372 208z"/>
<path style="fill:#988c67; stroke:none;" d="M465 211L469 208L465 211z"/>
<path style="fill:#756f68; stroke:none;" d="M501.667 208.333L502.333 208.667L501.667 208.333M557.667 208.333L558.333 208.667L557.667 208.333z"/>
<path style="fill:#d0be8d; stroke:none;" d="M599 208L600 213L599 208M492 209L492 210L495 210L492 209z"/>
<path style="fill:#756f68; stroke:none;" d="M497 209L498 210L497 209M500 209L501 210L500 209M556.333 209.667L556.667 210.333L556.333 209.667M342 210C341.916 214.375 342.051 216.668 346 219L345 215L347 215L342 210z"/>
<path style="fill:#d0be8d; stroke:none;" d="M499.667 210.333L500.333 210.667L499.667 210.333z"/>
<path style="fill:#756f68; stroke:none;" d="M512.667 210.333L513.333 210.667L512.667 210.333z"/>
<path style="fill:#988c67; stroke:none;" d="M617 210L618 211L617 210z"/>
<path style="fill:#756f68; stroke:none;" d="M377 211L378 212L377 211z"/>
<path style="fill:#d0be8d; stroke:none;" d="M407 211L408 212L407 211z"/>
<path style="fill:#756f68; stroke:none;" d="M490 211L489 212L491 213L490 217L498 223L499 223C499.653 221.04 500 220.446 500 223L501 223L507 221C505.048 214.836 497.005 209.735 491 213L490 211M498 211L499 212L498 211M503 211L504 212L503 211z"/>
<path style="fill:#988c67; stroke:none;" d="M504 211L509 216L509 215L506 215L507 211L504 211z"/>
<path style="fill:#756f68; stroke:none;" d="M511 211L512 212L511 211M514.667 211.333L515.333 211.667L514.667 211.333z"/>
<path style="fill:#988c67; stroke:none;" d="M526 211L531 216L530 211L526 211z"/>
<path style="fill:#6f6347; stroke:none;" d="M534.333 211.667L534.667 212.333L534.333 211.667z"/>
<path style="fill:#756f68; stroke:none;" d="M541 211L538 218L539 228L540 228C540.049 223.839 540.17 221.112 544 219L541 211M555 211L556 212L555 211z"/>
<path style="fill:#d0be8d; stroke:none;" d="M303 212L304 213L303 212z"/>
<path style="fill:#756f68; stroke:none;" d="M371 212L373 215L371 212M375.667 212.333L376.333 212.667L375.667 212.333M395 212L399 216L395 212z"/>
<path style="fill:#6f6347; stroke:none;" d="M493 212L492 216L497 217L493 212z"/>
<path style="fill:#756f68; stroke:none;" d="M510.333 212.667L510.667 213.333L510.333 212.667M552 214L555 213L552 214M369 213L370 214L369 213M373.667 213.333L374.333 213.667L373.667 213.333z"/>
<path style="fill:#6f6347; stroke:none;" d="M396 213L397 214L396 213M490 213L491 214L490 213z"/>
<path style="fill:#988c67; stroke:none;" d="M496 213L497 214L496 213z"/>
<path style="fill:#d0be8d; stroke:none;" d="M326 214L327 215L326 214z"/>
<path style="fill:#756f68; stroke:none;" d="M509 214L510 215L509 214z"/>
<path style="fill:#d0be8d; stroke:none;" d="M537 214L537 216L539 216L539 214L537 214z"/>
<path style="fill:#756f68; stroke:none;" d="M551 214L551 222L551 214z"/>
<path style="fill:#d0be8d; stroke:none;" d="M554 214L555 218L556 214L554 214z"/>
<path style="fill:#6f6347; stroke:none;" d="M618 214L613 223L616 221L617 224L620 214L618 214M366 215L367 216L366 215z"/>
<path style="fill:#988c67; stroke:none;" d="M487 215L488 216L487 215z"/>
<path style="fill:#756f68; stroke:none;" d="M505 215L506 216L505 215z"/>
<path style="fill:#d0be8d; stroke:none;" d="M328 216L329 217L328 216z"/>
<path style="fill:#756f68; stroke:none;" d="M348 216L349 217L348 216M506 216L507 217L506 216M508 216L509 217L508 216M545 216L544 220L549 219L549 218L545 216M616 217L617 218L616 217z"/>
<path style="fill:#d0be8d; stroke:none;" d="M334 218L335 219L334 218z"/>
<path style="fill:#988c67; stroke:none;" d="M391 218L392 219L391 218z"/>
<path style="fill:#756f68; stroke:none;" d="M512 218L512 220L514 218L512 218M356 219L355 223L356 219z"/>
<path style="fill:#988c67; stroke:none;" d="M389 219L388 223L389 223L389 219z"/>
<path style="fill:#d0be8d; stroke:none;" d="M399 219L397 225C399.811 223.347 400.766 221.891 399 219M335 220C336.018 225.173 336.886 228.793 342 231L335 220M553 220L554 224L555 224L553 220z"/>
<path style="fill:#756f68; stroke:none;" d="M274 221C275.667 232.129 281.13 244.515 285.258 255C286.956 259.315 288.344 264.409 293 266L293 260L295 260C295.676 270.075 305.055 272.366 311 279L314 274L312 275L313 273L304 272L298 259L295 253L293 256L294 253L294 252L291 248C287.881 248.291 286.834 248.074 286 245L290 248L287 236L286 236L286 242L285 242C283.884 238.154 283.259 233.888 279 233L274 221M347 221L346 226L350 225L349 221L347 221z"/>
<path style="fill:#6f6347; stroke:none;" d="M499.333 221.667L499.667 222.333L499.333 221.667z"/>
<path style="fill:#756f68; stroke:none;" d="M508 221C506.308 226.386 505.624 230.834 510 235L508 221z"/>
<path style="fill:#d0be8d; stroke:none;" d="M537 221L537 224L538 224L537 221M322 222L322 225L323 225L322 222z"/>
<path style="fill:#6f6347; stroke:none;" d="M612 223L613 224L612 223z"/>
<path style="fill:#d0be8d; stroke:none;" d="M371 224L371 230L375 229L371 224M422 224L423 225L422 224z"/>
<path style="fill:#756f68; stroke:none;" d="M551 224L553 229L551 224z"/>
<path style="fill:#d0be8d; stroke:none;" d="M287.333 225.667L287.667 226.333L287.333 225.667M354 227L359 228L358 225L354 227z"/>
<path style="fill:#756f68; stroke:none;" d="M425.667 226.333L426.333 226.667L425.667 226.333M536.333 226.667L536.667 227.333L536.333 226.667M344 227L345 228L344 227z"/>
<path style="fill:#6f6347; stroke:none;" d="M507.333 227.667L507.667 228.333L507.333 227.667z"/>
<path style="fill:#d0be8d; stroke:none;" d="M329 228L329 229L333 230L333 229L329 228M315 229C313.846 237.814 323.464 232.117 315 229M365 229L368 232L365 229z"/>
<path style="fill:#756f68; stroke:none;" d="M549 229L549 230L552 230L549 229M553 229L553 235L554 235L553 229z"/>
<path style="fill:#d0be8d; stroke:none;" d="M322 230L327 233L322 230M357 231L363 240L364 235L357 231M397 231L398 232L397 231M460.333 231.667L460.667 232.333L460.333 231.667M373 232L377 235L373 232z"/>
<path style="fill:#988c67; stroke:none;" d="M386.667 232.333L387.333 232.667L386.667 232.333z"/>
<path style="fill:#756f68; stroke:none;" d="M308.667 233.333L309.333 233.667L308.667 233.333M537 233L537 237L538 237L537 233M540 233L544 236L544 235L540 233M367 242L371 234C366.853 235.739 366.088 237.66 367 242M458 234L460 238L460 234L458 234z"/>
<path style="fill:#988c67; stroke:none;" d="M280 235L282 241L283 241L280 235z"/>
<path style="fill:#756f68; stroke:none;" d="M297 235L297 236L300 236L297 235M303 236L307 240L311 238L303 236z"/>
<path style="fill:#6f6347; stroke:none;" d="M387 235L387 236L390 236L387 235z"/>
<path style="fill:#756f68; stroke:none;" d="M423 235L424 240L427 239L427 237L423 235M508 235L509 236L508 235M554 235L554 239L555 239L554 235M324.333 236.667L324.667 237.333L324.333 236.667z"/>
<path style="fill:#988c67; stroke:none;" d="M411 236L411 238L413 238L413 236L411 236z"/>
<path style="fill:#756f68; stroke:none;" d="M417 236L418 243C419.689 240.148 419.08 238.495 417 236M544 236L544 240L545 240L544 236z"/>
<path style="fill:#d0be8d; stroke:none;" d="M351.333 237.667L351.667 238.333L351.333 237.667z"/>
<path style="fill:#756f68; stroke:none;" d="M508 237L509 238L508 237M538 239L541 238L538 239z"/>
<path style="fill:#988c67; stroke:none;" d="M389 238L388 239L391 243L392 239L391 238L389 238z"/>
<path style="fill:#756f68; stroke:none;" d="M343.333 239.667L343.667 240.333L343.333 239.667z"/>
<path style="fill:#988c67; stroke:none;" d="M384 239C383.355 245.244 385.27 253.44 393 252L387 247L389 245L384 239z"/>
<path style="fill:#756f68; stroke:none;" d="M509 239L510 240L509 239M537 239L538 240L537 239M553.333 239.667L553.667 240.333L553.333 239.667z"/>
<path style="fill:#988c67; stroke:none;" d="M437.667 240.333L438.333 240.667L437.667 240.333z"/>
<path style="fill:#756f68; stroke:none;" d="M543 240L543 243L544 243L543 240M292 241L294 251L295 251L292 241M295 241L295 243L297 243L297 241L295 241M318.667 241.333L319.333 241.667L318.667 241.333z"/>
<path style="fill:#6f6347; stroke:none;" d="M387.333 241.667L387.667 242.333L387.333 241.667z"/>
<path style="fill:#756f68; stroke:none;" d="M403 241L406 243L403 241z"/>
<path style="fill:#d0be8d; stroke:none;" d="M451.667 241.333L452.333 241.667L451.667 241.333z"/>
<path style="fill:#756f68; stroke:none;" d="M510.667 241.333L511.333 241.667L510.667 241.333M537 246L542 242C538.533 241.645 537.591 242.586 537 246M551.667 241.333L552.333 241.667L551.667 241.333z"/>
<path style="fill:#6f6347; stroke:none;" d="M292 242L292 245L293 245L292 242z"/>
<path style="fill:#756f68; stroke:none;" d="M324 242L326 245L324 242M343 242L342 246L343 242z"/>
<path style="fill:#6f6347; stroke:none;" d="M377 243C379.47 245.092 380.904 245.657 383 243L377 243z"/>
<path style="fill:#756f68; stroke:none;" d="M513.667 242.333L514.333 242.667L513.667 242.333M550 242L551 243L550 242z"/>
<path style="fill:#988c67; stroke:none;" d="M425 243L429 250L425 243z"/>
<path style="fill:#756f68; stroke:none;" d="M515 243L516 244L515 243M542 243C540.118 251.125 534.878 257.585 538 266L539 266C541.431 260.35 546.906 247.732 542 243z"/>
<path style="fill:#988c67; stroke:none;" d="M599 243L600 244L599 243M283.333 244.667L283.667 245.333L283.333 244.667z"/>
<path style="fill:#756f68; stroke:none;" d="M296.667 244.333L297.333 244.667L296.667 244.333z"/>
<path style="fill:#6f6347; stroke:none;" d="M374 244L376 250L376 244L374 244z"/>
<path style="fill:#988c67; stroke:none;" d="M437.667 244.333L438.333 244.667L437.667 244.333z"/>
<path style="fill:#756f68; stroke:none;" d="M450 244L451 245L450 244z"/>
<path style="fill:#6f6347; stroke:none;" d="M286 245L288 249L286 245z"/>
<path style="fill:#988c67; stroke:none;" d="M378 245L383 250L378 245z"/>
<path style="fill:#756f68; stroke:none;" d="M379 245L380 246L379 245z"/>
<path style="fill:#d0be8d; stroke:none;" d="M404 245L405 246L404 245z"/>
<path style="fill:#756f68; stroke:none;" d="M548.333 245.667L548.667 246.333L548.333 245.667z"/>
<path style="fill:#d0be8d; stroke:none;" d="M550.333 245.667L550.667 246.333L550.333 245.667z"/>
<path style="fill:#988c67; stroke:none;" d="M599 245L599 246L602 246L599 245z"/>
<path style="fill:#756f68; stroke:none;" d="M324 248L327 246L324 248z"/>
<path style="fill:#6f6347; stroke:none;" d="M382 246L383 247L382 246z"/>
<path style="fill:#756f68; stroke:none;" d="M516 246L517 247L516 246z"/>
<path style="fill:#988c67; stroke:none;" d="M543.333 246.667L543.667 247.333L543.333 246.667z"/>
<path style="fill:#6f6347; stroke:none;" d="M293 247L294 248L293 247z"/>
<path style="fill:#756f68; stroke:none;" d="M296 247L298 249L298 247L296 247M341 249L344 247L341 249z"/>
<path style="fill:#6f6347; stroke:none;" d="M364 247L362 250L364 247z"/>
<path style="fill:#988c67; stroke:none;" d="M369 247C370.137 251.1 374.5 258.52 377 251L369 247z"/>
<path style="fill:#756f68; stroke:none;" d="M450 247L451 248L450 247M517 247L517 252L513 250L513 256L523 252L518 253L517 247z"/>
<path style="fill:#050404; stroke:none;" d="M625 247L626 248L625 247z"/>
<path style="fill:#756f68; stroke:none;" d="M547 248L548 249L547 248z"/>
<path style="fill:#988c67; stroke:none;" d="M593 248L593 249L596 249L593 248z"/>
<path style="fill:#756f68; stroke:none;" d="M303.333 249.667L303.667 250.333L303.333 249.667M316 249L318 254L319 259L315 259L316 256L317 266L319 263L322 264L321 268L326 268L324 254L321 256L316 249z"/>
<path style="fill:#6f6347; stroke:none;" d="M384 249L385 250L384 249z"/>
<path style="fill:#988c67; stroke:none;" d="M471.333 249.667L471.667 250.333L471.333 249.667M474.667 249.333L475.333 249.667L474.667 249.333M477.333 249.667L477.667 250.333L477.333 249.667z"/>
<path style="fill:#756f68; stroke:none;" d="M535 249L536 250L535 249M322 252L325 251L322 252M402 250L403 251L402 250M524 250L525 251L524 250M534 250L535 251L534 250M546.333 250.667L546.667 251.333L546.333 250.667M343 251L347 258L343 251M365 251L365 254L366 254L365 251M403.667 251.333L404.333 251.667L403.667 251.333z"/>
<path style="fill:#d0be8d; stroke:none;" d="M445 251L446 252L445 251z"/>
<path style="fill:#756f68; stroke:none;" d="M523 251L524 252L523 251M526 251L519 261L521 263L522 263L525 259C524.045 265.881 522.415 266.498 516 268L518 265L515 269L521 268L520 272L526 268L528 263L526 259L527 259L527 261L528 261L528 257L525 258L526 251M528 251L528 252L532 255L533 255L534 251L528 251z"/>
<path style="fill:#988c67; stroke:none;" d="M289 252L290 257L291 257L289 252z"/>
<path style="fill:#d0be8d; stroke:none;" d="M332 252L334 255L334 252L332 252z"/>
<path style="fill:#756f68; stroke:none;" d="M405 252L406 253L405 252z"/>
<path style="fill:#988c67; stroke:none;" d="M428.667 252.333L429.333 252.667L428.667 252.333M434 252L435 254L432 253L433 258L437 256L434 252z"/>
<path style="fill:#756f68; stroke:none;" d="M546 253L546 259L547 259L546 253z"/>
<path style="fill:#6f6347; stroke:none;" d="M585 253L584 257L585 257L585 253z"/>
<path style="fill:#756f68; stroke:none;" d="M307 254L308 255L307 254M311 254L309 258L310 258L311 254M364 254L365 255L364 254M406.333 254.667L406.667 255.333L406.333 254.667z"/>
<path style="fill:#988c67; stroke:none;" d="M422.333 254.667L422.667 255.333L422.333 254.667M450 254L450 256L452 256L452 254L450 254M478 254L479 255L478 254z"/>
<path style="fill:#6f6347; stroke:none;" d="M345.333 255.667L345.667 256.333L345.333 255.667z"/>
<path style="fill:#756f68; stroke:none;" d="M363 255L364 256L363 255z"/>
<path style="fill:#988c67; stroke:none;" d="M465 255L465 259L466 259L465 255z"/>
<path style="fill:#756f68; stroke:none;" d="M362 256C361.423 258.711 361.233 259.395 364 260L362 256M400 256L401 257L400 256z"/>
<path style="fill:#988c67; stroke:none;" d="M539 256L539 259L540 259L539 256z"/>
<path style="fill:#756f68; stroke:none;" d="M406 257L404 261L400 259L404 270L405 270L406 264L404 262C407.012 261.354 407.498 259.613 406 257z"/>
<path style="fill:#6f6347; stroke:none;" d="M521 259L524 257L521 259z"/>
<path style="fill:#756f68; stroke:none;" d="M390.667 258.333L391.333 258.667L390.667 258.333z"/>
<path style="fill:#988c67; stroke:none;" d="M434 259L434 261L436 261L436 259L434 259M437 259L438 260L437 259M523 259L522 263L525 259L523 259z"/>
<path style="fill:#6f6347; stroke:none;" d="M526 259L528 262L526 259z"/>
<path style="fill:#756f68; stroke:none;" d="M309 260L303 261L303 265L306 265L310 261L309 260M311 260L312 261L311 260M360 260L355 265L358 269L356 269L357 274L358 274L359 270L365 272L361 267L362 263L364 263L366 272L370 273L365 262L360 263L360 260z"/>
<path style="fill:#d0be8d; stroke:none;" d="M443 260L446 264L446 265L442 264L448 265L449 272L450 272L450 264L445 260L443 260z"/>
<path style="fill:#756f68; stroke:none;" d="M547 260L549 265L547 260z"/>
<path style="fill:#6f6347; stroke:none;" d="M582 260L583 261L582 260M323 261L323 263L325 263L325 261L323 261z"/>
<path style="fill:#756f68; stroke:none;" d="M380 261L381 262L380 261z"/>
<path style="fill:#988c67; stroke:none;" d="M422 261L421 263L423 263L422 261z"/>
<path style="fill:#6f6347; stroke:none;" d="M519 261L516 268C520.3 267.335 523.577 267.587 525 263L519 261z"/>
<path style="fill:#756f68; stroke:none;" d="M577 261L578 262L577 261z"/>
<path style="fill:#6f6347; stroke:none;" d="M404 262L404 265L406 262L404 262z"/>
<path style="fill:#756f68; stroke:none;" d="M518.333 262.667L518.667 263.333L518.333 262.667M341 263L342 264L341 263z"/>
<path style="fill:#988c67; stroke:none;" d="M362 263L361 267L367 273L368 271L364 263L362 263z"/>
<path style="fill:#756f68; stroke:none;" d="M534 263L535 264L534 263M576 263L577 264L576 263M313 265L314 266L313 265z"/>
<path style="fill:#988c67; stroke:none;" d="M359 265L360 266L359 265z"/>
<path style="fill:#756f68; stroke:none;" d="M396 265L398 268L396 265z"/>
<path style="fill:#d0be8d; stroke:none;" d="M408 265L409 266L408 265z"/>
<path style="fill:#756f68; stroke:none;" d="M530 265L529 269L533 265L530 265M539 266L540 271L541 271L542 265L539 266z"/>
<path style="fill:#6f6347; stroke:none;" d="M531 266L532 267L531 266z"/>
<path style="fill:#756f68; stroke:none;" d="M548 266L549 267L548 266M373 267L373 269L375 269L373 267z"/>
<path style="fill:#988c67; stroke:none;" d="M422 267L422 270L424 267L422 267z"/>
<path style="fill:#d0be8d; stroke:none;" d="M438 267L439 268L438 267M440 269L443 268L440 269M416 268L417 269L416 268z"/>
<path style="fill:#756f68; stroke:none;" d="M547 268L543 272L543 273L548 273L547 268z"/>
<path style="fill:#d0be8d; stroke:none;" d="M407 269L410 279L417 276L418 270C412.979 272.03 411.507 271.787 407 269M438.667 270.333L439.333 270.667L438.667 270.333M458 270L459 271L458 270z"/>
<path style="fill:#756f68; stroke:none;" d="M461 270L460 275L461 276L465 271L461 270z"/>
<path style="fill:#d0be8d; stroke:none;" d="M471 272L474 270L471 272z"/>
<path style="fill:#988c67; stroke:none;" d="M368 271L369 272L368 271z"/>
<path style="fill:#756f68; stroke:none;" d="M397 271L398 272L397 271M402 271L403 272L402 271M405 271L405 276L406 276L405 271z"/>
<path style="fill:#d0be8d; stroke:none;" d="M444 271L443 273L445 273L444 271M508 271L509 272L508 271z"/>
<path style="fill:#756f68; stroke:none;" d="M539 271L538 278L540 279L541 279L542 274L539 271z"/>
<path style="fill:#d0be8d; stroke:none;" d="M496 272L498 278L499 278L501 273L496 272z"/>
<path style="fill:#756f68; stroke:none;" d="M358 274L359 277L354 277L352 281L353 283C356.194 283.265 359.139 283.628 360 287L356 285L360 293L361 293L360 288C363.74 287.485 366.246 279.424 363 277L364 280L361 279L362 277L358 274z"/>
<path style="fill:#d0be8d; stroke:none;" d="M467 274L467 276L469 276L469 274L467 274z"/>
<path style="fill:#756f68; stroke:none;" d="M430 275L430 277L432 277L430 275M435 275L435 278C446.888 277.433 441.49 285.781 440 293L453 302C452.791 297.542 449.953 296.394 446 295L449 293L447 289L443 291C446.481 285.316 446.041 280.802 443 275L435 275M314 276L315 277L314 276M406.333 276.667L406.667 277.333L406.333 276.667M315 277L316 278L315 277M321 279L324 278L321 279M325 277L325 278L329 279L329 278L325 277z"/>
<path style="fill:#6f6347; stroke:none;" d="M539 277L538 281L539 281L539 277z"/>
<path style="fill:#756f68; stroke:none;" d="M304 278L308 283L304 278M316 278L315 281L319 282L316 278M334 278L332 284L331 284L330 279L329 279C329.643 284.755 341.038 297.53 346 290L352 291L352 290L346 286L347 289L334 278z"/>
<path style="fill:#6f6347; stroke:none;" d="M357 278L362 285L357 278z"/>
<path style="fill:#988c67; stroke:none;" d="M361 278L362 279L361 278z"/>
<path style="fill:#756f68; stroke:none;" d="M407 278L408 279L407 278M313 279L314 280L313 279M320 279L319 283L320 279M408 279L409 280L408 279M434.333 279.667L434.667 280.333L434.333 279.667M410 280C410.812 284.096 414.812 286.376 417 282L410 280z"/>
<path style="fill:#d0be8d; stroke:none;" d="M421 280L422 281L421 280z"/>
<path style="fill:#756f68; stroke:none;" d="M310.333 281.667L310.667 282.333L310.333 281.667M433 281L434 282L433 281M532 281L533 282L532 281z"/>
<path style="fill:#6f6347; stroke:none;" d="M336.333 282.667L336.667 283.333L336.333 282.667z"/>
<path style="fill:#756f68; stroke:none;" d="M420 283L420 284L430 288C429.058 285.712 428.437 285.342 431 285L420 283M432 282L433 283L432 282M449 288L452 287L450 291L463 285C458.677 281.598 448.877 280.471 449 288M431 283L432 284L431 283M511 283L510 286L513 284L511 283M411 284L412 285L411 284M419.333 284.667L419.667 285.333L419.333 284.667z"/>
<path style="fill:#6f6347; stroke:none;" d="M453 288L456 284L453 288z"/>
<path style="fill:#988c67; stroke:none;" d="M335 285L335 287L337 287L337 285L335 285z"/>
<path style="fill:#756f68; stroke:none;" d="M416 285L416 287L418 287L416 285z"/>
<path style="fill:#988c67; stroke:none;" d="M543 285L544 286L543 285z"/>
<path style="fill:#6f6347; stroke:none;" d="M339 286L338 287L343 290L339 286z"/>
<path style="fill:#756f68; stroke:none;" d="M421 286L422 287L421 286z"/>
<path style="fill:#6f6347; stroke:none;" d="M449 286L450 287L449 286z"/>
<path style="fill:#756f68; stroke:none;" d="M461 286L461 288L463 288L461 286M418 287L419 288L418 287M423.333 287.667L423.667 288.333L423.333 287.667z"/>
<path style="fill:#050404; stroke:none;" d="M580 287L581 288L580 287z"/>
<path style="fill:#6f6347; stroke:none;" d="M472 291L479 293L481 289L476 290L476 288L472 291z"/>
<path style="fill:#988c67; stroke:none;" d="M532 288L533 289L532 288z"/>
<path style="fill:#756f68; stroke:none;" d="M421 289L422 290L421 289M424 289L424 291L426 291L424 289z"/>
<path style="fill:#988c67; stroke:none;" d="M340 290L343 292L340 290z"/>
<path style="fill:#756f68; stroke:none;" d="M422 290L423 291L422 290M352 291L352 292L360 293L352 291z"/>
<path style="fill:#6f6347; stroke:none;" d="M509 293L512 293L511 291L509 293z"/>
<path style="fill:#988c67; stroke:none;" d="M529 293L533 292L529 293z"/>
<path style="fill:#050404; stroke:none;" d="M427 292L431 296L432 293L427 292z"/>
<path style="fill:#988c67; stroke:none;" d="M476 292L477 293L476 292z"/>
<path style="fill:#6f6347; stroke:none;" d="M546 292L547 293L546 292M584 292L585 293L584 292z"/>
<path style="fill:#756f68; stroke:none;" d="M326 293L327 294L326 293M353.333 294.667L353.667 295.333L353.333 294.667M453 294L454 295L453 294z"/>
<path style="fill:#988c67; stroke:none;" d="M511 295L511 296L516 294L511 295z"/>
<path style="fill:#050404; stroke:none;" d="M435 295L436 296L435 295z"/>
<path style="fill:#756f68; stroke:none;" d="M425 296L425 298L427 298L427 296L425 296z"/>
<path style="fill:#6f6347; stroke:none;" d="M469 300L473 297L469 300z"/>
<path style="fill:#756f68; stroke:none;" d="M420 298L421 299L420 298z"/>
<path style="fill:#6f6347; stroke:none;" d="M457 298L457 300L459 298L457 298M495.667 299.333L496.333 299.667L495.667 299.333M524.333 299.667L524.667 300.333L524.333 299.667z"/>
<path style="fill:#756f68; stroke:none;" d="M357 300L361 304L357 300z"/>
<path style="fill:#050404; stroke:none;" d="M441 301L442 302L441 301z"/>
<path style="fill:#6f6347; stroke:none;" d="M475 301L476 302L475 301z"/>
<path style="fill:#756f68; stroke:none;" d="M445 302L448 304L448 303L445 302M492 308L496 304L492 308z"/>
<path style="fill:#050404; stroke:none;" d="M506 305L509 307L506 305z"/>
<path style="fill:#756f68; stroke:none;" d="M496 307L497 308L496 307M388 309L390 311L390 309L388 309M463 310L462 311L462 312L462 313L465 310L463 310M470 310C467.588 313.15 468.94 322.254 473 318L471 318C472.628 314.641 472.438 312.844 470 310M403 312L405 314L403 312M512 313L513 314L512 313z"/>
<path style="fill:#050404; stroke:none;" d="M542 313L543 314L542 313z"/>
<path style="fill:#756f68; stroke:none;" d="M401 316L401 321C407.03 324.084 412.544 325.417 419 323L419 321L413 321C410.204 316.684 405.833 316.377 401 316z"/>
<path style="fill:#050404; stroke:none;" d="M361 326L362 327L361 326z"/>
<path style="fill:#6f6347; stroke:none;" d="M367.667 329.333L368.333 329.667L367.667 329.333z"/>
<path style="fill:#050404; stroke:none;" d="M383.667 330.333L384.333 330.667L383.667 330.333M466 332L467 333L466 332z"/>
<path style="fill:#6f6347; stroke:none;" d="M427 337L427 339L429 339L429 337L427 337z"/>
</svg>
