<?xml version="1.0" standalone="no"?>
<!DOCTYPE svg PUBLIC "-//W3C//DTD SVG 20010904//EN"
 "http://www.w3.org/TR/2001/REC-SVG-20010904/DTD/svg10.dtd">
<svg version="1.0" xmlns="http://www.w3.org/2000/svg"
 width="577.000000pt" height="433.000000pt" viewBox="0 0 577.000000 433.000000"
 preserveAspectRatio="xMidYMid meet">

<g transform="translate(0.000000,433.000000) scale(0.100000,-0.100000)"
fill="#000000" stroke="none">
<path d="M3440 3494 c-209 -22 -420 -75 -567 -139 -187 -83 -447 -372 -547
-610 -83 -196 -121 -446 -98 -635 41 -327 145 -550 361 -773 150 -155 281
-246 464 -321 137 -57 248 -78 439 -84 144 -4 180 -1 267 17 56 12 133 35 171
51 265 107 547 353 700 609 154 259 206 590 140 894 -106 490 -504 879 -994
972 -81 16 -270 27 -336 19z m-603 -436 c-3 -8 -6 -5 -6 6 -1 11 2 17 5 13 3
-3 4 -12 1 -19z m-52 -20 c32 -22 34 -26 32 -73 -1 -27 -7 -55 -12 -61 -18
-18 -43 -12 -50 13 -6 27 -25 22 -25 -6 0 -10 -7 -25 -16 -32 -15 -12 -16 -11
-10 9 5 15 3 22 -5 22 -7 0 -10 -3 -6 -6 3 -3 -5 -18 -19 -32 -29 -32 -30 -37
-4 -39 11 -1 20 4 20 13 0 8 5 14 10 14 9 0 13 -19 12 -65 -1 -17 0 -17 4 -2
3 9 12 17 20 17 11 0 13 -6 9 -20 -5 -15 -2 -20 14 -20 32 0 33 -17 2 -28 -20
-7 -32 -7 -39 0 -23 23 2 -38 30 -73 29 -39 35 -59 17 -59 -6 0 -9 -6 -6 -14
6 -16 -16 -28 -37 -20 -7 3 -16 -2 -20 -12 -5 -14 -4 -15 8 -5 10 8 16 9 21 1
3 -5 1 -10 -4 -10 -6 0 -11 -13 -11 -29 0 -17 -6 -31 -15 -35 -13 -4 -13 -2
-5 14 12 22 13 30 2 30 -10 0 -33 -38 -38 -64 -2 -11 -8 -22 -14 -24 -5 -2
-10 -10 -10 -18 0 -8 -6 -17 -14 -20 -8 -3 -12 -13 -9 -25 4 -13 11 -18 20
-15 8 3 19 6 24 6 5 0 9 8 9 18 0 14 -2 15 -10 2 -5 -8 -12 -11 -15 -8 -11 11
6 30 22 24 17 -7 43 16 43 38 0 22 7 20 35 -8 l24 -24 -24 -29 c-32 -36 -31
-43 1 -43 17 0 28 6 31 20 6 23 34 42 86 59 20 7 37 19 37 27 0 8 7 14 15 14
8 0 15 5 15 10 0 6 10 14 21 18 34 13 60 112 29 112 -5 0 -6 9 -3 20 5 19 16
25 37 21 21 -4 57 10 76 31 11 12 20 20 21 17 0 -2 2 -14 5 -26 3 -20 0 -23
-29 -23 -24 0 -40 -8 -57 -27 -13 -15 -19 -28 -14 -30 25 -9 38 -23 28 -30 -6
-5 -14 -17 -18 -28 -8 -20 -8 -20 -15 -1 -8 20 -12 16 -24 -17 -6 -15 -3 -17
14 -12 15 5 22 2 26 -13 4 -19 34 -41 32 -24 -1 4 0 18 1 32 2 18 4 20 7 8 5
-21 14 -23 31 -6 9 9 12 7 12 -10 0 -12 -4 -22 -10 -22 -5 0 -7 -6 -4 -14 3
-7 -6 -25 -19 -40 -24 -26 -39 -33 -35 -18 3 15 -14 62 -23 62 -5 0 -23 -13
-39 -29 -26 -25 -30 -35 -30 -84 0 -66 -8 -96 -21 -75 -7 10 -9 9 -9 -4 0 -10
-4 -18 -9 -18 -13 0 -22 30 -16 51 4 11 2 19 -4 19 -6 0 -11 -4 -11 -8 0 -5
-12 -14 -26 -20 -16 -8 -22 -17 -18 -25 6 -9 4 -9 -8 1 -11 9 -23 10 -42 2
-34 -13 -46 -13 -46 0 0 6 11 10 23 10 14 0 24 6 24 15 0 17 -13 20 -22 5 -3
-5 -15 -10 -25 -10 -13 0 -17 -5 -14 -15 10 -25 -47 -18 -80 10 -33 28 -36 27
-40 -8 -2 -19 1 -24 12 -19 11 4 14 1 9 -11 -5 -13 0 -15 31 -10 34 6 36 5 23
-10 -12 -15 -11 -17 3 -17 8 0 23 -11 32 -25 20 -31 64 -35 64 -5 0 23 8 25
34 5 10 -8 15 -19 11 -26 -5 -7 -3 -10 4 -8 7 3 12 8 11 13 -1 5 4 12 11 17
10 6 10 11 0 23 -17 20 -4 20 43 1 36 -15 51 -33 19 -21 -13 4 -12 1 4 -13 18
-15 20 -20 8 -25 -8 -3 -15 -10 -15 -15 0 -14 30 -18 63 -10 20 6 27 5 24 -4
-2 -7 -12 -11 -21 -11 -30 3 -16 -14 17 -20 87 -16 156 -17 187 -1 16 8 30 11
30 6 0 -5 -6 -11 -12 -13 -9 -3 -8 -9 5 -22 9 -10 17 -15 17 -11 0 3 5 3 11 0
6 -5 3 -12 -10 -21 -16 -12 -18 -19 -11 -45 6 -21 5 -31 -3 -34 -20 -6 -52 -2
-58 7 -7 11 -72 -11 -82 -29 -4 -7 -14 -13 -21 -13 -6 0 -35 -11 -63 -25 -49
-25 -51 -25 -80 -8 -27 15 -37 15 -86 4 -45 -10 -54 -15 -50 -30 3 -13 11 -17
25 -13 13 3 24 -1 30 -11 4 -9 14 -15 21 -13 6 1 9 1 5 -1 -4 -2 -4 -11 -1
-19 4 -11 0 -13 -18 -6 -13 5 -32 7 -42 4 -16 -3 -13 -8 14 -28 18 -13 28 -24
23 -24 -6 0 -15 5 -22 12 -9 9 -12 9 -12 0 0 -14 31 -31 48 -25 6 3 12 1 12
-4 0 -20 38 -32 73 -22 55 15 137 18 137 5 0 -6 7 -3 14 7 7 9 24 17 36 17 13
0 31 7 41 16 9 8 28 14 41 12 l23 -5 -25 -11 c-24 -10 -24 -11 10 -12 49 -1
21 -15 -60 -29 -63 -12 -89 -17 -100 -21 -3 -1 -16 -1 -29 0 -19 1 -22 -2 -17
-15 3 -9 6 -23 6 -31 0 -8 9 -13 22 -11 12 1 23 -4 24 -10 1 -7 2 -17 3 -23 0
-5 7 -10 15 -10 8 0 16 -6 19 -14 4 -9 14 -12 28 -9 l23 6 -22 8 c-12 5 -22
14 -22 20 0 8 5 8 16 -2 12 -10 17 -10 23 -1 8 14 101 33 101 21 0 -5 8 -6 18
-2 9 3 14 3 10 -1 -3 -4 -12 -9 -20 -10 -66 -13 -127 -46 -82 -46 8 0 12 -5 9
-10 -8 -12 18 -40 37 -40 10 0 10 2 -1 9 -12 8 -12 14 -1 40 15 37 34 42 20 6
-9 -25 4 -37 13 -12 3 7 6 8 6 1 1 -6 -8 -23 -20 -38 -15 -19 -26 -25 -44 -20
-12 3 -26 1 -29 -5 -4 -6 -1 -11 8 -11 8 0 16 -6 19 -12 3 -10 7 -10 19 0 21
17 34 -2 15 -20 -8 -7 -12 -20 -9 -30 3 -14 -2 -18 -24 -19 -16 -1 -35 -1 -41
0 -7 1 -26 -5 -42 -14 -34 -17 -68 -20 -73 -5 -2 6 -23 14 -48 19 -25 5 -37 9
-27 10 10 1 15 6 12 11 -3 5 3 10 15 10 11 0 32 8 46 17 22 14 27 14 34 2 6
-8 4 -16 -3 -21 -27 -18 14 -7 48 12 19 11 37 20 40 20 3 0 11 0 18 0 6 0 3 6
-8 12 -11 7 -33 11 -50 10 -24 -2 -27 -1 -15 8 12 10 11 11 -7 7 -27 -6 -31
14 -8 37 35 34 7 48 -45 21 -22 -11 -29 -12 -33 -2 -3 9 -9 9 -26 -1 -18 -10
-22 -10 -27 2 -5 12 -9 13 -19 3 -9 -8 -10 -16 -3 -24 12 -15 -3 -18 -18 -3
-6 6 -10 0 -9 -18 0 -17 -6 -27 -15 -28 -8 -1 -21 -2 -29 -3 -9 -1 -12 -11 -9
-35 2 -19 0 -32 -4 -30 -4 3 -5 -2 -2 -10 3 -9 16 -16 28 -17 19 0 19 -1 -4
-10 -24 -10 -24 -11 -5 -21 11 -6 22 -14 25 -18 9 -12 85 -44 98 -42 6 2 12
-2 12 -8 0 -5 -11 -10 -25 -10 -33 0 -32 -16 3 -34 16 -8 40 -33 55 -55 26
-38 69 -61 119 -61 9 0 20 -4 23 -10 6 -9 -57 -7 -149 5 -83 11 -276 144 -392
268 -294 317 -406 745 -303 1160 32 126 101 287 124 287 7 0 15 7 19 15 3 8
10 15 16 15 5 0 10 -7 10 -15 0 -8 5 -15 10 -15 6 0 10 6 9 13 -3 19 23 74 28
60 7 -18 23 -16 23 2 0 8 -4 15 -10 15 -5 0 -10 5 -10 10 0 6 16 10 36 10 31
0 35 -2 24 -15 -8 -9 -9 -15 -2 -15 6 0 14 5 18 11 3 6 17 9 30 6 14 -2 25 1
28 10 3 8 1 11 -4 8 -6 -3 -10 -1 -10 5 0 7 -8 9 -19 5 -23 -7 -38 23 -16 31
8 3 17 14 20 25 4 10 13 19 21 19 7 0 19 9 26 20 17 27 60 26 103 -2z m105 2
c0 -5 -2 -10 -4 -10 -3 0 -8 5 -11 10 -3 6 -1 10 4 10 6 0 11 -4 11 -10z
m-277 -37 c-7 -2 -19 -2 -25 0 -7 3 -2 5 12 5 14 0 19 -2 13 -5z m-116 -105
c-3 -8 -6 -5 -6 6 -1 11 2 17 5 13 3 -3 4 -12 1 -19z m-21 -8 c0 -11 -4 -20
-8 -20 -10 0 -11 24 -1 33 9 9 9 10 9 -13z m804 -44 c0 -3 -4 -8 -10 -11 -5
-3 -10 -1 -10 4 0 6 5 11 10 11 6 0 10 -2 10 -4z m-79 -25 c-12 -10 -21 -24
-21 -31 0 -10 -3 -10 -15 0 -8 7 -13 16 -10 20 3 5 2 10 -2 13 -5 2 -3 2 4 1
7 -2 14 0 17 4 2 4 14 8 26 9 l22 2 -21 -18z m-378 -115 c-8 -13 -23 16 -22
44 1 24 1 24 14 -5 7 -16 11 -34 8 -39z m33 37 c-10 -10 -19 5 -10 18 6 11 8
11 12 0 2 -7 1 -15 -2 -18z m84 -83 c0 -5 -4 -10 -10 -10 -5 0 -10 5 -10 10 0
6 5 10 10 10 6 0 10 -4 10 -10z m10 -58 c0 -5 -11 -15 -25 -22 -14 -7 -25 -19
-25 -27 0 -19 -18 -16 -29 6 -12 22 -5 31 25 31 13 0 26 5 29 10 7 12 25 13
25 2z m210 -69 c-1 -18 -18 -35 -24 -24 -4 6 -4 16 -1 21 7 12 25 13 25 3z
m-267 -40 c-6 -15 -23 -18 -23 -4 0 5 3 17 6 26 5 12 9 14 14 4 5 -7 6 -18 3
-26z m385 -47 c-14 -14 -16 -14 -20 2 -3 9 -3 23 0 30 3 11 7 11 20 -1 13 -14
13 -17 0 -31z m67 24 c-3 -5 -15 -10 -26 -10 -11 0 -17 5 -14 10 3 6 15 10 26
10 11 0 17 -4 14 -10z m-140 -50 c-3 -5 -13 -10 -21 -10 -8 0 -12 5 -9 10 3 6
13 10 21 10 8 0 12 -4 9 -10z m81 -40 c-1 -39 -4 -50 -16 -47 -9 2 -14 12 -13
25 2 12 -2 22 -7 22 -6 0 -10 -8 -11 -17 0 -10 -3 -13 -5 -7 -3 6 0 22 5 35 5
13 10 18 10 12 1 -20 18 -15 24 7 9 35 15 22 13 -30z m124 16 c0 -3 -4 -8 -10
-11 -5 -3 -10 -1 -10 4 0 6 5 11 10 11 6 0 10 -2 10 -4z m-423 -41 c-4 -8 -11
-15 -17 -15 -7 0 -7 6 0 21 13 23 26 19 17 -6z m593 -29 c0 -2 -8 -10 -17 -17
-16 -13 -17 -12 -4 4 13 16 21 21 21 13z m-339 -113 c-8 -15 -10 -15 -11 -2 0
17 10 32 18 25 2 -3 -1 -13 -7 -23z m102 8 c11 -11 -26 -10 -40 1 -7 5 -18 6
-24 2 -8 -5 -9 -3 -4 5 7 13 52 7 68 -8z m-123 -19 c0 -4 -6 -14 -12 -20 -10
-10 -10 -14 0 -21 10 -6 7 -12 -11 -24 -22 -14 -24 -14 -35 4 -8 12 -8 19 -2
19 6 0 15 11 20 25 9 23 40 36 40 17z m80 -17 c5 3 16 0 24 -7 8 -7 23 -21 35
-31 12 -10 19 -22 15 -28 -4 -8 -9 -7 -15 2 -7 11 -9 11 -9 1 0 -9 -10 -12
-32 -8 -17 3 -39 1 -49 -4 -14 -8 -18 -4 -21 25 -5 44 8 71 27 55 8 -7 19 -9
25 -5z m-284 -20 c10 -25 -7 -40 -23 -20 -7 11 -13 22 -13 27 0 14 30 9 36 -7z
m384 -15 c0 -5 -4 -10 -10 -10 -5 0 -10 5 -10 10 0 6 5 10 10 10 6 0 10 -4 10
-10z m20 -41 c0 -5 -7 -9 -15 -9 -15 0 -20 12 -9 23 8 8 24 -1 24 -14z m-157
-33 c3 -8 0 -17 -7 -19 -10 -4 -12 1 -9 14 6 23 9 24 16 5z m83 -12 c-3 -9 -6
-21 -6 -27 0 -7 -5 -4 -11 6 -11 18 -5 37 13 37 5 0 7 -7 4 -16z m-42 -33 c3
-5 -1 -12 -10 -15 -8 -3 -13 -2 -9 3 3 5 -1 12 -7 14 -8 4 -7 6 4 6 9 1 19 -3
22 -8z m61 -121 c-3 -5 -14 -10 -23 -10 -15 0 -15 2 -2 10 20 13 33 13 25 0z
m230 -430 c3 -5 -3 -10 -14 -10 -10 0 -28 -3 -38 -6 -10 -3 -7 2 7 10 30 18
37 19 45 6z m-555 -14 c0 -3 -4 -8 -10 -11 -5 -3 -10 -1 -10 4 0 6 5 11 10 11
6 0 10 -2 10 -4z m-80 -20 c0 -2 -7 -6 -15 -10 -8 -3 -15 -1 -15 4 0 6 7 10
15 10 8 0 15 -2 15 -4z m410 -85 c0 -6 -4 -12 -8 -15 -5 -3 -9 1 -9 9 0 8 4
15 9 15 4 0 8 -4 8 -9z m-393 -27 c-3 -3 -12 -4 -19 -1 -8 3 -5 6 6 6 11 1 17
-2 13 -5z m246 -97 c4 3 7 -11 6 -33 l-1 -39 -10 33 c-10 29 -28 45 -28 23 0
-5 -7 -11 -14 -14 -11 -4 -13 -1 -9 11 9 24 25 33 39 22 6 -6 14 -7 17 -3z
m-101 -59 c14 -14 15 -18 3 -18 -18 0 -86 46 -79 53 8 8 55 -14 76 -35z m-65
-94 c-3 -3 -12 -4 -19 -1 -8 3 -5 6 6 6 11 1 17 -2 13 -5z"/>
<path d="M2685 3010 c-3 -5 -1 -10 4 -10 6 0 11 5 11 10 0 6 -2 10 -4 10 -3 0
-8 -4 -11 -10z"/>
<path d="M2783 3000 c-16 -7 -23 -18 -23 -37 1 -24 2 -25 11 -10 5 9 7 22 3
28 -4 8 1 9 15 4 15 -5 21 -2 21 9 0 9 -1 16 -2 15 -2 0 -13 -4 -25 -9z"/>
<path d="M2613 2465 c0 -5 -3 -20 -7 -32 -5 -15 -3 -23 4 -23 6 0 9 4 6 9 -3
5 3 20 14 34 19 25 20 26 2 24 -10 0 -19 -6 -19 -12z"/>
<path d="M2583 2345 c0 -8 6 -16 14 -19 7 -3 13 -2 13 3 0 5 -6 14 -13 20 -10
8 -14 7 -14 -4z"/>
<path d="M2620 2333 c1 -15 50 -68 50 -54 0 7 6 11 14 8 8 -3 19 0 25 7 14 16
-26 43 -42 27 -15 -15 -27 -14 -27 4 0 8 -4 15 -10 15 -5 0 -10 -3 -10 -7z"/>
<path d="M2654 2139 c-3 -5 -9 -7 -14 -4 -12 7 -29 -26 -26 -49 4 -25 25 -35
55 -26 48 15 92 20 86 10 -3 -6 -1 -10 4 -10 6 0 11 7 11 16 0 8 15 20 33 27
l32 11 -40 7 c-22 3 -47 8 -55 10 -10 3 -15 -4 -16 -21 0 -27 -14 -28 -48 -4
l-20 14 22 0 c12 0 22 4 22 9 0 12 -39 21 -46 10z"/>
<path d="M2880 2079 c0 -5 5 -7 10 -4 6 3 10 8 10 11 0 2 -4 4 -10 4 -5 0 -10
-5 -10 -11z"/>
<path d="M2920 2049 c0 -5 5 -7 10 -4 6 3 10 8 10 11 0 2 -4 4 -10 4 -5 0 -10
-5 -10 -11z"/>
<path d="M2960 2050 c-13 -8 -12 -10 3 -10 9 0 17 5 17 10 0 12 -1 12 -20 0z"/>
<path d="M2751 2041 c-8 -5 -28 -7 -45 -4 -24 4 -38 -1 -59 -21 -29 -27 -36
-49 -12 -40 8 4 15 10 15 15 0 5 5 9 11 9 5 0 7 -4 4 -10 -3 -5 -3 -15 1 -22
4 -7 9 -23 10 -37 2 -13 7 -28 13 -34 7 -7 8 -3 4 12 -6 23 -7 23 87 27 30 1
72 5 93 9 l37 7 -21 19 -21 18 28 7 c42 10 50 17 28 24 -11 4 -28 1 -40 -7
-21 -13 -134 -26 -134 -15 0 3 10 16 22 29 22 24 9 33 -21 14z m-26 -71 c-3
-5 -12 -10 -18 -10 -7 0 -6 4 3 10 19 12 23 12 15 0z"/>
<path d="M2851 2026 c-10 -12 -8 -13 8 -9 12 3 18 9 15 14 -7 12 -10 11 -23
-5z"/>
<path d="M2992 2031 c-11 -7 -10 -9 3 -14 9 -4 14 -3 10 2 -3 5 1 12 7 14 7 3
9 6 3 6 -5 0 -16 -3 -23 -8z"/>
<path d="M3046 1995 c-10 -8 -24 -12 -30 -9 -6 3 -2 -1 8 -10 18 -14 18 -16 2
-22 -14 -5 -15 -9 -4 -15 19 -12 30 -11 22 3 -4 7 -3 8 5 4 12 -8 71 14 71 26
0 12 -18 19 -25 8 -3 -5 -13 -10 -21 -10 -11 0 -13 6 -9 20 7 24 6 24 -19 5z"/>
<path d="M2955 1970 c-18 -8 -17 -9 7 -9 15 -1 30 4 33 9 7 12 -12 12 -40 0z"/>
<path d="M3175 1970 c-8 -13 4 -32 16 -25 12 8 12 35 0 35 -6 0 -13 -4 -16
-10z"/>
<path d="M2955 1920 c-3 -5 -1 -10 4 -10 6 0 11 5 11 10 0 6 -2 10 -4 10 -3 0
-8 -4 -11 -10z"/>
<path d="M2746 1807 c3 -10 9 -15 12 -12 3 3 0 11 -7 18 -10 9 -11 8 -5 -6z"/>
<path d="M2926 1584 c-21 -20 -20 -23 2 -17 10 2 19 11 19 19 0 18 -2 18 -21
-2z"/>
<path d="M2996 1564 c-4 -9 -4 -19 -2 -21 8 -8 26 8 26 23 0 19 -16 18 -24 -2z"/>
<path d="M3125 1519 c-4 -6 -5 -12 -2 -15 2 -3 7 2 10 11 7 17 1 20 -8 4z"/>
<path d="M2790 1440 c13 -23 20 -26 20 -6 0 8 -7 16 -15 20 -13 4 -14 2 -5
-14z"/>
</g>
</svg>
