<?xml version="1.0" standalone="no"?>
<!DOCTYPE svg PUBLIC "-//W3C//DTD SVG 20010904//EN"
 "http://www.w3.org/TR/2001/REC-SVG-20010904/DTD/svg10.dtd">
<svg version="1.0" xmlns="http://www.w3.org/2000/svg"
 width="459.000000pt" height="457.000000pt" viewBox="0 0 459.000000 457.000000"
 preserveAspectRatio="xMidYMid meet">

<g transform="translate(0.000000,457.000000) scale(0.100000,-0.100000)"
fill="#000000" stroke="none">
<path d="M1980 4510 c-382 -53 -787 -228 -1085 -468 -98 -80 -266 -243 -340
-332 -245 -293 -412 -668 -482 -1080 -22 -130 -25 -486 -5 -630 44 -313 161
-622 340 -895 179 -274 451 -544 710 -704 530 -329 1142 -410 1777 -236 386
106 674 275 966 565 96 96 141 150 123 150 -4 0 -20 -15 -36 -34 -20 -24 -40
-35 -68 -40 -22 -3 -50 -16 -63 -29 -40 -41 -67 -49 -94 -31 -19 12 -38 14
-89 9 -66 -8 -78 -1 -49 29 8 8 15 21 15 28 0 8 5 19 12 26 10 10 6 12 -17 8
-17 -2 -23 -1 -15 1 19 7 40 35 33 46 -3 5 5 6 18 2 17 -4 20 -3 10 3 -10 7
-11 14 -2 28 9 17 10 17 11 2 0 -23 19 -33 33 -18 9 10 9 14 -1 17 -10 4 -10
10 3 29 8 13 11 24 6 24 -6 0 -14 -8 -20 -17 -8 -16 -12 -15 -35 10 -14 15
-31 27 -38 27 -10 0 -10 -2 0 -9 11 -6 10 -11 -3 -25 -17 -16 -40 -13 -30 5 4
5 4 9 1 9 -9 0 -55 -73 -51 -80 2 -4 -7 -12 -20 -18 -21 -10 -25 -9 -25 3 0 8
6 15 14 15 13 0 25 24 30 62 3 21 -21 12 -27 -10 -2 -10 -3 -5 -1 9 2 22 0 26
-15 22 -10 -3 -18 -12 -17 -20 0 -9 -5 -18 -11 -20 -8 -3 -13 4 -13 19 -1 21
-2 22 -14 5 -12 -16 -14 -16 -20 -2 -3 9 -2 14 3 11 16 -10 21 25 7 40 -13 12
-16 8 -22 -31 -3 -25 -10 -45 -15 -45 -5 0 -9 -8 -9 -17 0 -9 -3 -14 -6 -11
-3 4 -1 22 4 42 10 33 0 63 -11 34 -2 -7 -7 -10 -11 -6 -4 3 -2 16 4 28 9 16
9 25 1 33 -17 17 -35 -8 -34 -48 1 -24 -3 -35 -13 -35 -8 0 -14 -6 -14 -12 0
-9 -2 -10 -8 -2 -4 6 -16 14 -27 18 -11 3 -26 20 -32 37 -9 23 -17 30 -30 27
-13 -4 -18 1 -19 19 -2 30 -39 63 -71 63 -16 0 -23 6 -23 20 0 13 7 20 20 20
11 0 20 -4 20 -9 0 -12 61 -43 69 -35 3 3 -1 9 -9 14 -12 8 -11 10 6 10 11 0
29 -7 40 -15 24 -18 54 -19 55 -2 1 6 2 17 4 22 1 6 3 19 3 29 2 19 3 19 15 2
10 -14 18 -15 40 -7 26 10 38 31 16 31 -5 0 -7 4 -4 10 12 20 -19 45 -55 44
-19 -1 -40 5 -47 12 -18 18 -16 29 2 14 9 -7 18 -10 22 -7 3 4 -6 12 -21 18
-26 12 -35 29 -16 29 6 0 10 11 10 25 0 14 3 24 8 24 23 -4 32 4 31 29 -1 15
-3 20 -6 10 -5 -20 -25 -28 -51 -21 -29 7 -17 43 15 43 17 0 23 4 20 14 -3 7
-1 18 5 24 7 7 7 16 -1 29 -6 10 -11 12 -11 5 0 -7 -7 -24 -16 -38 -13 -19
-20 -22 -30 -13 -10 8 -11 16 -3 30 7 15 6 19 -6 19 -8 0 -18 1 -22 3 -10 3
-22 -51 -12 -57 5 -2 4 -3 -3 -2 -7 2 -12 11 -10 20 2 12 -7 21 -27 29 -17 6
-31 18 -31 27 -1 11 -6 9 -19 -7 -22 -27 -31 -29 -31 -9 0 19 -6 22 -57 31
-43 7 -43 7 -43 -24 0 -42 -31 -41 -75 2 -68 66 -104 90 -119 78 -10 -9 -15
-8 -20 5 -3 8 -6 17 -6 19 0 2 24 6 53 10 46 7 49 9 30 18 -13 5 -23 14 -23
19 0 13 24 9 46 -7 10 -8 28 -15 39 -15 19 -1 19 -1 2 -14 -18 -14 -18 -14 0
-18 24 -5 64 60 51 85 -5 9 -15 17 -22 17 -15 0 -30 56 -19 73 4 6 0 8 -9 4
-21 -7 -52 27 -44 48 3 10 -4 25 -19 39 -17 16 -23 29 -19 41 6 15 3 17 -20
13 -17 -4 -25 -1 -23 6 2 6 14 10 25 8 25 -4 27 4 11 45 -18 47 -19 66 -5 77
8 6 16 20 18 30 3 19 4 19 21 2 9 -10 17 -31 17 -47 0 -16 5 -29 10 -29 6 0
10 8 8 18 -4 23 40 30 48 8 8 -20 24 -21 24 -1 0 23 19 18 31 -7 14 -32 30
-59 57 -93 l22 -30 19 23 c11 12 24 22 30 22 6 0 10 15 10 33 -1 17 -3 24 -6
14 -10 -38 -22 -14 -19 39 2 45 -1 57 -16 65 -14 7 -18 6 -18 -6 0 -10 5 -13
12 -9 7 4 8 3 4 -4 -4 -7 -15 -12 -25 -12 -16 0 -18 7 -16 43 2 23 4 47 5 52
5 21 -1 26 -14 12 -9 -8 -13 -29 -12 -51 2 -20 -1 -36 -5 -36 -5 0 -9 19 -9
43 0 27 -3 37 -9 28 -7 -10 -10 -10 -16 -1 -8 13 11 30 33 30 6 0 12 6 12 13
0 19 24 67 33 67 5 0 6 9 2 19 -4 13 0 23 12 30 21 11 21 21 0 32 -9 6 -13 19
-10 36 4 27 4 27 -11 9 -9 -11 -16 -23 -16 -28 0 -4 -10 2 -22 14 -27 27 -35
60 -13 52 8 -4 15 -1 15 5 0 13 -29 14 -49 2 -11 -7 -11 -10 0 -17 16 -10 -35
-26 -57 -17 -16 6 -19 23 -4 23 6 0 10 4 10 9 0 5 -19 4 -44 -1 -37 -8 -48 -6
-64 8 -11 9 -18 23 -15 30 2 7 -5 17 -16 24 -15 8 -21 8 -21 0 0 -6 -5 -8 -10
-5 -8 5 -8 11 0 20 14 17 50 8 73 -18 9 -11 17 -16 17 -11 0 6 -13 25 -30 44
-20 23 -28 28 -23 15 5 -16 4 -18 -8 -8 -19 18 -24 16 -38 -14 -14 -30 -2 -44
30 -36 10 3 19 1 19 -5 0 -5 -11 -13 -25 -16 -27 -7 -35 -29 -9 -24 10 2 19
-3 21 -9 7 -21 -42 -15 -71 8 -28 22 -56 20 -56 -6 0 -8 -4 -15 -10 -15 -5 0
-10 13 -10 30 0 29 -54 99 -67 86 -3 -3 6 -15 20 -26 15 -12 24 -27 20 -35 -8
-21 -24 -18 -30 5 -9 32 -23 23 -23 -15 0 -19 -4 -35 -10 -35 -5 0 -7 18 -5
41 4 44 -2 72 -15 64 -5 -3 -11 4 -15 15 -7 21 -46 37 -64 26 -6 -4 -20 3 -32
15 l-22 22 7 -27 c4 -18 2 -26 -6 -26 -16 0 -47 20 -32 20 6 0 12 11 12 25 0
13 -4 23 -8 20 -9 -6 -29 16 -28 30 1 6 -10 16 -23 22 -14 7 -23 20 -22 30 1
10 0 12 -3 6 -7 -17 -31 -17 -36 0 -3 6 -4 24 -4 39 1 14 -3 26 -9 25 -5 -1
-9 8 -8 21 2 13 -3 22 -11 22 -8 0 -17 6 -19 13 -4 9 -6 9 -6 0 -1 -16 -30
-17 -51 -2 -13 8 -12 9 4 7 13 -2 20 4 22 20 2 12 -1 22 -7 22 -5 0 -8 -4 -4
-9 10 -17 -12 -21 -31 -6 -16 13 -17 14 -1 9 12 -4 17 -1 17 11 0 9 -4 14 -9
11 -10 -7 -24 40 -16 53 11 19 -48 18 -66 0 -10 -10 -21 -14 -24 -9 -3 5 0 12
6 16 8 4 7 9 -2 15 -8 5 15 6 54 3 44 -4 67 -2 67 5 0 6 -6 11 -12 11 -9 0 -8
4 2 10 9 6 10 10 3 10 -6 0 -18 -7 -27 -15 -19 -19 -30 -19 -22 0 6 16 -13 55
-26 55 -5 0 -8 -7 -8 -16 0 -8 -5 -12 -10 -9 -6 4 -17 1 -25 -5 -10 -8 -15 -9
-15 -2 0 6 8 16 18 21 14 9 11 11 -18 11 -19 1 -43 3 -52 5 -9 2 -19 -4 -22
-12 -7 -18 -45 -13 -70 9 -11 10 -22 15 -25 12 -3 -3 2 -10 11 -15 10 -5 15
-15 13 -22 -6 -14 52 -50 67 -41 5 3 7 12 4 20 -3 8 -1 14 4 14 5 0 11 -8 14
-17 3 -10 4 -6 2 10 -2 20 1 27 14 27 12 0 18 -8 18 -25 0 -20 -7 -27 -37 -35
-48 -13 -48 -13 -85 15 -26 20 -35 22 -46 12 -10 -10 -12 -6 -7 20 4 22 2 33
-8 37 -18 6 -30 -10 -13 -18 9 -3 7 -9 -7 -21 -20 -16 -20 -16 3 -35 22 -18
23 -21 7 -36 -15 -15 -18 -15 -38 2 -42 36 -68 66 -62 73 4 3 11 -2 16 -12 17
-29 26 -19 23 23 -3 48 -10 61 -29 54 -15 -6 -35 24 -28 44 6 17 65 15 89 -3
29 -22 33 -18 19 21 -15 44 -31 55 -62 43 -30 -11 -33 -11 -33 0 0 5 10 12 23
14 19 4 19 4 -5 6 -15 0 -30 6 -33 11 -3 6 -10 10 -16 10 -5 0 -9 -4 -9 -10 0
-5 7 -10 15 -10 9 0 12 -6 9 -15 -4 -8 -10 -15 -16 -15 -5 0 -6 5 -2 12 5 8 0
9 -17 5 -13 -4 -29 -7 -36 -7 -8 0 -8 -9 0 -35 7 -24 14 -32 21 -25 20 20 32
10 32 -25 -1 -19 -4 -35 -7 -35 -11 0 -20 31 -13 42 4 6 -1 8 -14 4 -17 -6
-23 -2 -28 18 -3 14 -11 26 -16 26 -6 0 -8 7 -4 15 3 8 1 15 -4 15 -6 0 -10
-7 -10 -15 0 -8 -4 -15 -10 -15 -5 0 -10 -9 -10 -20 0 -11 -7 -20 -16 -20 -8
0 -13 4 -10 9 4 5 -6 14 -21 19 -21 8 -23 11 -9 11 16 1 17 4 8 13 -21 21 -14
48 11 48 13 0 29 6 36 13 11 10 13 9 9 -3 -3 -8 -15 -21 -29 -28 l-24 -14 25
7 c14 3 38 8 54 10 47 7 66 16 66 30 0 8 8 12 23 9 17 -3 16 -1 -5 8 -16 7
-28 20 -28 29 0 10 -8 23 -17 28 -16 9 -16 12 -3 21 11 8 8 9 -12 4 -23 -5
-29 -2 -39 20 -7 14 -16 26 -21 26 -12 0 -10 28 2 35 6 4 27 -3 46 -14 40 -24
65 -26 82 -9 10 10 19 9 45 -4 36 -19 132 -35 107 -18 -19 12 -6 13 18 1 30
-15 93 -33 98 -28 3 3 -12 11 -33 17 -21 7 -47 19 -57 26 -11 7 -31 10 -47 7
-34 -7 -159 35 -159 53 0 13 54 10 118 -6 36 -9 59 -4 80 17 7 7 19 13 25 13
8 0 7 -3 -2 -9 -16 -10 -6 -31 15 -31 8 0 14 -4 14 -9 0 -5 16 -12 35 -15 20
-4 34 -10 31 -14 -2 -4 10 -8 26 -8 l31 -1 -24 13 -24 13 28 -1 c15 -2 27 -8
27 -14 0 -14 50 -36 87 -38 16 -1 34 -5 41 -9 6 -5 16 -5 22 -2 5 3 23 -1 39
-10 31 -16 75 -10 49 6 -9 6 -9 9 -1 9 16 0 26 -17 13 -25 -14 -9 -1 -27 13
-19 9 5 9 4 1 -5 -9 -10 -17 -10 -32 -2 -14 8 -23 8 -27 1 -4 -6 -15 -8 -25
-5 -10 3 -22 0 -26 -6 -5 -9 -2 -10 9 -6 10 3 17 2 17 -4 0 -6 -8 -9 -17 -7
-13 3 -17 12 -16 32 2 21 -1 26 -9 18 -7 -7 -22 -5 -50 10 -51 27 -59 18 -9
-10 28 -16 41 -31 46 -52 6 -28 25 -43 25 -20 0 5 11 9 25 8 14 -1 25 -6 25
-11 0 -5 -7 -7 -15 -3 -8 3 -15 1 -15 -3 0 -5 21 -17 46 -27 l47 -18 -37 -10
c-21 -6 -34 -14 -30 -18 10 -11 54 -10 54 1 0 5 16 9 35 8 26 -1 31 -3 20 -10
-9 -5 -23 -6 -31 -3 -23 9 -16 -10 9 -22 36 -19 107 -20 107 -2 0 6 -15 8 -36
6 -29 -4 -35 -2 -30 10 3 9 6 24 6 35 0 10 5 19 12 19 6 0 9 -3 5 -6 -12 -12
22 -34 52 -34 36 0 42 -23 11 -40 -23 -12 -28 -35 -6 -27 9 4 17 -1 21 -12 6
-21 42 -35 47 -19 3 7 12 6 25 -2 12 -8 19 -20 16 -27 -4 -11 1 -12 21 -7 27
7 34 -7 17 -35 -9 -14 -51 -7 -51 10 0 5 -7 9 -15 9 -11 0 -12 -5 -5 -25 7
-19 6 -25 -4 -25 -8 0 -17 6 -19 13 -3 7 -6 5 -6 -5 -1 -19 20 -23 84 -18 17
2 41 3 54 4 14 1 28 10 32 21 6 15 8 12 6 -12 -1 -18 -5 -33 -9 -33 -4 0 -8
-7 -8 -15 0 -8 8 -15 19 -15 10 0 32 -7 47 -16 l29 -16 -37 7 c-44 7 -51 -9
-18 -38 11 -9 20 -25 20 -34 -1 -16 -2 -16 -13 -2 -10 13 -16 13 -37 2 -25
-12 -25 -13 -2 -13 12 0 22 -5 22 -11 0 -6 -9 -9 -20 -6 -12 3 -23 -1 -28 -10
-7 -12 -10 -12 -21 1 -8 9 -24 16 -38 16 -16 0 -22 4 -17 12 5 8 2 9 -10 5
-12 -5 -16 -2 -14 11 2 9 -4 17 -12 18 -8 0 -27 4 -42 8 -30 9 -71 -1 -63 -15
4 -5 -2 -9 -12 -10 -11 0 -5 -6 16 -15 25 -12 36 -12 41 -4 5 8 10 9 14 2 3
-6 0 -12 -6 -15 -9 -3 -6 -10 10 -22 28 -20 30 -40 2 -25 -11 6 -20 7 -20 2 0
-6 9 -12 20 -15 11 -3 20 -14 20 -25 0 -23 21 -41 75 -66 38 -18 39 -19 15
-26 -18 -4 -21 -8 -12 -14 8 -5 21 -1 31 9 13 11 27 14 45 9 14 -3 24 -9 22
-13 -2 -3 11 -6 30 -7 l34 -1 1 61 c1 60 1 60 11 24 8 -32 14 -38 36 -37 16 1
20 3 10 6 -9 2 -16 13 -15 24 1 18 7 20 44 17 24 -2 43 0 43 4 0 5 -7 8 -15 8
-18 0 -20 16 -2 23 6 3 -3 6 -20 6 -18 1 -33 6 -33 11 0 6 5 10 10 10 6 0 10
7 10 16 0 12 5 14 18 9 9 -4 31 -13 47 -19 17 -6 41 -18 55 -26 43 -25 92 -40
87 -26 -2 6 -13 12 -25 14 -13 2 -19 8 -15 18 5 14 11 12 72 -23 2 -2 -2 -10
-10 -19 -12 -15 -12 -16 8 -10 18 6 21 4 16 -14 -4 -16 -2 -19 11 -14 9 4 16
1 16 -6 0 -8 -10 -9 -32 -5 -40 9 -27 -9 14 -19 31 -7 40 7 26 43 -12 33 -2
38 25 13 24 -23 40 -21 30 4 -3 8 1 14 10 14 8 0 20 14 26 30 5 17 17 30 25
30 9 0 16 9 16 20 0 15 -7 20 -24 20 -16 0 -27 7 -31 20 -5 16 -15 20 -51 20
-48 0 -98 20 -107 43 -3 8 -21 22 -41 31 -20 9 -36 21 -36 27 0 6 -5 7 -10 4
-13 -8 -13 1 1 27 11 20 11 20 35 -7 14 -16 28 -24 35 -19 9 5 10 2 6 -10 -5
-13 -3 -16 11 -12 22 7 94 -16 100 -32 2 -7 -7 -12 -22 -12 -17 0 -26 -6 -26
-15 0 -11 7 -14 25 -9 33 8 70 -2 92 -25 30 -31 74 -33 96 -5 10 13 23 24 29
24 6 0 28 16 50 35 21 20 43 33 47 30 5 -2 14 1 20 9 9 11 8 17 -3 29 -14 13
-11 16 22 21 20 3 45 6 55 7 12 0 17 8 17 29 0 15 6 31 13 34 6 3 1 3 -13 0
-14 -4 -22 -3 -17 2 18 19 -125 53 -147 35 -8 -7 -17 -8 -20 -3 -9 15 5 22 43
22 l36 0 -33 17 c-24 12 -30 18 -20 24 27 17 64 10 78 -16 7 -14 20 -25 27
-25 8 0 12 4 9 9 -3 4 6 6 21 3 20 -4 24 -2 18 8 -6 10 -4 12 8 7 11 -4 17 -1
17 8 0 8 -9 15 -20 15 -11 0 -20 4 -20 9 0 4 -18 11 -41 14 -51 7 -58 13 -33
32 14 11 14 13 3 9 -11 -3 -18 2 -22 15 -3 14 -1 18 9 14 23 -9 16 5 -18 38
-45 41 -93 62 -129 54 -24 -5 -29 -12 -29 -36 0 -24 -4 -29 -23 -29 -15 0 -28
9 -35 24 -8 19 -25 27 -89 41 -43 10 -81 22 -84 27 -3 5 -26 11 -50 13 -60 3
-59 3 -53 20 4 8 1 15 -5 15 -6 0 -11 -7 -11 -15 0 -9 -9 -15 -25 -15 -14 0
-25 -4 -25 -10 0 -5 -6 -10 -14 -10 -8 0 -16 -6 -18 -12 -3 -7 -5 8 -5 32 -1
38 0 41 6 15 7 -28 8 -28 14 -9 6 16 13 20 27 17 11 -3 20 0 20 6 0 11 -13 15
-37 12 -7 -1 -13 2 -13 8 0 5 -8 12 -17 15 -19 6 17 0 65 -10 15 -3 22 -2 16
3 -5 4 -18 19 -28 33 -10 14 -16 17 -13 8 5 -15 1 -18 -23 -18 -32 0 -40 14
-16 27 12 7 12 11 0 27 -11 16 -18 17 -36 8 l-23 -11 23 0 c12 -1 22 -5 22
-11 0 -10 -14 -14 -38 -11 -10 2 -12 -4 -7 -18 7 -22 -10 -30 -18 -8 -4 9 -8
9 -14 1 -4 -6 -24 -15 -43 -18 l-35 -7 33 17 c17 9 32 20 32 25 0 5 7 9 15 9
8 0 15 5 15 11 0 6 -9 8 -21 4 -15 -5 -19 -4 -15 4 4 6 15 11 26 11 10 0 21 7
24 16 4 11 14 15 32 11 33 -6 17 8 -18 17 -20 4 -30 1 -37 -11 -9 -15 -11 -12
-11 17 -1 21 -4 29 -8 20 -7 -15 -13 -18 -61 -28 -20 -4 -23 -2 -18 12 5 12 3
16 -5 14 -7 -3 -18 0 -24 6 -8 8 -7 14 5 23 15 10 14 12 -3 19 -11 4 -21 2
-27 -7 -6 -10 -11 -11 -20 -2 -8 8 -20 8 -40 1 -40 -14 -37 -32 3 -24 29 6 31
5 18 -9 -9 -8 -32 -16 -53 -17 -20 -2 -37 -6 -37 -9 0 -4 -6 -9 -12 -12 -8 -3
-13 5 -14 23 -1 18 4 27 14 26 8 0 17 4 19 10 4 11 -50 39 -76 39 -8 0 -16 6
-19 13 -6 18 18 15 62 -8 33 -18 42 -19 74 -9 21 7 40 17 44 23 5 7 8 4 8 -6
0 -27 29 -21 36 7 3 13 12 29 20 36 8 6 14 15 14 20 0 10 -206 5 -232 -6 -15
-6 -16 -3 -5 24 11 30 30 40 41 22 4 -5 1 -12 -4 -14 -7 -4 -6 -5 1 -3 23 4
10 22 -31 44 -25 12 -40 22 -35 22 5 0 -15 17 -45 38 -52 35 -59 37 -137 37
-44 0 -79 -3 -77 -7 2 -3 1 -8 -3 -11 -5 -2 -2 -2 5 0 7 1 28 -5 45 -14 25
-13 28 -18 15 -21 -10 -2 -18 -9 -18 -16 0 -16 -32 -46 -49 -46 -8 0 -5 10 8
28 l20 28 -72 23 c-40 13 -89 32 -109 42 -21 11 -55 19 -77 19 -22 0 -43 5
-47 12 -5 7 -2 9 7 4 8 -4 1 2 -14 15 -33 25 -23 39 28 39 l30 0 -29 15 c-15
8 -48 15 -72 15 -24 0 -44 4 -44 9 0 14 173 8 178 -7 2 -6 8 -12 13 -12 6 0 7
5 4 10 -8 13 58 13 70 1 6 -6 19 -2 33 9 l23 19 -43 0 c-42 -1 -98 14 -98 27
0 3 10 4 23 1 12 -4 70 -7 129 -8 l108 -1 -7 -27 c-3 -14 -10 -28 -14 -31 -5
-3 1 -11 11 -18 16 -10 20 -10 20 2 0 7 7 27 15 42 11 21 15 24 15 10 0 -12 5
-16 15 -12 8 3 15 1 15 -4 0 -6 5 -10 11 -10 6 0 9 9 6 20 -3 13 0 20 9 20 8
0 14 -4 14 -10 0 -5 6 -10 14 -10 8 0 16 -5 18 -11 2 -7 11 -7 28 0 14 5 20
10 14 10 -5 1 -19 8 -30 17 -18 15 -18 15 8 11 15 -2 25 -1 23 3 -3 4 6 19 20
34 13 14 21 26 17 27 -4 1 -16 2 -26 3 -11 0 -21 7 -24 14 -3 10 5 12 34 6 22
-3 44 -11 51 -16 6 -5 13 -5 15 0 4 10 88 23 86 14 -3 -14 15 -62 22 -62 5 0
15 -3 23 -6 8 -3 24 4 35 16 17 18 20 19 32 5 7 -8 21 -15 32 -15 10 0 16 -4
13 -10 -3 -5 -2 -10 4 -10 15 0 26 23 12 28 -9 3 -9 7 0 18 9 11 8 14 -4 14
-8 0 -21 7 -28 16 -13 15 -11 17 17 12 24 -3 31 -1 27 9 -8 20 15 42 53 49 19
3 34 12 34 18 0 9 29 12 108 10 111 -3 162 -14 162 -37 0 -15 61 -47 88 -47
15 1 15 2 -1 15 -14 10 -17 21 -12 43 5 26 2 31 -24 43 -21 9 -27 17 -20 25 7
8 -2 16 -31 28 -22 9 -47 16 -55 16 -7 0 -28 13 -45 29 l-31 28 68 -14 c37 -8
76 -14 86 -14 9 0 17 -3 17 -7 0 -4 14 -7 31 -8 47 -2 24 10 -106 54 -236 80
-377 102 -685 107 -129 2 -264 0 -300 -5z m661 -100 c25 0 50 -7 61 -16 16
-16 18 -16 24 0 13 34 116 -2 119 -43 2 -22 -11 -27 -34 -12 -7 5 -11 14 -7
19 11 18 -58 25 -90 9 -16 -7 -40 -13 -54 -12 -32 2 -98 45 -104 68 -4 17 -3
17 19 3 14 -9 43 -16 66 -16z m206 -6 c-3 -3 -12 -4 -19 -1 -8 3 -5 6 6 6 11
1 17 -2 13 -5z m-34 -85 c-6 -6 -9 -17 -7 -24 6 -14 -26 -30 -37 -18 -14 15
10 53 33 53 16 0 19 -3 11 -11z m-113 -49 c0 -11 -7 -20 -15 -20 -18 0 -19 12
-3 28 16 16 18 15 18 -8z m-56 -54 c-7 -19 -35 -18 -41 1 -2 6 6 13 19 15 29
5 30 4 22 -16z m-505 0 c29 -2 56 -8 60 -14 3 -6 18 -15 33 -21 20 -7 25 -15
21 -30 -4 -15 -1 -21 12 -21 9 0 15 -5 13 -12 -8 -23 -26 -18 -32 9 -5 20 -13
28 -29 29 -12 1 -62 4 -112 8 -49 4 -98 8 -107 7 -10 0 -18 4 -18 10 0 5 -11
9 -25 9 -14 0 -25 5 -25 10 0 6 19 10 43 10 23 0 49 5 57 10 8 6 24 8 35 5 11
-3 44 -7 74 -9z m296 -26 c3 -5 1 -10 -4 -10 -6 0 -11 5 -11 10 0 6 2 10 4 10
3 0 8 -4 11 -10z m-294 -52 c10 -6 2 -7 -23 -3 -36 5 -55 -8 -25 -18 6 -2 1
-2 -13 0 -14 3 -26 9 -28 14 -2 5 -15 6 -28 3 -14 -4 -24 -2 -24 4 0 13 122
13 141 0z m459 -8 c0 -5 -4 -10 -10 -10 -5 0 -10 5 -10 10 0 6 5 10 10 10 6 0
10 -4 10 -10z m-75 -10 c3 -5 -3 -10 -15 -10 -12 0 -18 5 -15 10 3 6 10 10 15
10 5 0 12 -4 15 -10z m-698 -34 c4 -3 -38 -5 -93 -4 -78 1 -90 2 -54 8 50 8
138 6 147 -4z m-200 -12 c-3 -3 -12 -4 -19 -1 -8 3 -5 6 6 6 11 1 17 -2 13 -5z
m33 -84 c0 -5 3 -9 8 -8 4 1 21 -5 37 -12 l30 -14 -28 -4 c-15 -2 -25 -7 -22
-12 3 -4 -15 -10 -40 -12 -25 -2 -45 0 -45 4 0 13 -18 9 -35 -8 -20 -20 -15
-39 11 -40 10 -1 34 -2 52 -3 19 0 31 -5 27 -11 -3 -5 1 -10 9 -10 23 0 47
-30 41 -50 -3 -10 1 -25 10 -34 9 -8 16 -18 15 -21 -1 -21 2 -25 19 -25 10 0
24 -6 30 -14 9 -11 7 -15 -9 -19 -11 -3 -20 -1 -20 5 0 5 -4 6 -10 3 -5 -3
-10 -1 -10 6 0 7 -10 9 -30 6 -35 -8 -40 0 -7 13 17 7 18 9 5 9 -10 1 -18 6
-18 12 0 6 8 8 18 5 15 -5 15 -4 -2 8 -10 8 -15 19 -11 25 3 6 -1 11 -9 11 -9
0 -16 5 -16 11 0 6 7 9 15 5 8 -3 15 -2 15 3 0 5 -9 11 -20 14 -11 3 -18 1
-14 -4 3 -5 -4 -9 -15 -9 -11 0 -23 -5 -26 -10 -4 -6 -11 -7 -17 -4 -7 4 -8 2
-4 -4 9 -16 -7 -15 -22 0 -9 9 -12 7 -12 -10 0 -12 6 -22 14 -22 8 0 18 -4 21
-10 3 -6 -1 -7 -9 -4 -10 4 -16 1 -16 -7 -1 -10 -5 -9 -14 4 -13 17 -32 25
-22 8 3 -5 -5 -16 -19 -25 -30 -20 -36 -20 -29 -1 4 9 0 15 -9 15 -14 0 -47
56 -47 80 0 7 -10 21 -22 31 -17 15 -18 19 -5 19 9 0 23 10 31 22 9 12 19 18
23 14 5 -5 2 -11 -4 -13 -7 -3 -13 -9 -13 -14 0 -4 7 -6 16 -2 10 4 20 -1 26
-11 11 -19 30 -12 22 9 -5 13 29 56 44 54 19 -3 25 2 12 11 -13 8 -12 10 3 10
9 0 17 6 18 13 0 6 4 2 9 -10 6 -15 18 -23 32 -23 21 1 21 2 5 11 -13 8 -15
14 -7 30 11 20 40 27 40 9z m-130 -30 c0 -5 -9 -10 -20 -10 -11 0 -20 5 -20
10 0 6 9 10 20 10 11 0 20 -4 20 -10z m-130 -104 c0 -3 -4 -8 -10 -11 -5 -3
-10 -1 -10 4 0 6 5 11 10 11 6 0 10 -2 10 -4z m-2 -56 c18 0 30 -33 21 -57 -5
-15 -14 -21 -24 -17 -19 8 -20 24 0 24 21 0 19 19 -2 27 -27 10 -40 27 -35 42
4 12 7 11 17 -2 7 -9 17 -17 23 -17z m792 14 c0 -2 -7 -4 -15 -4 -8 0 -15 4
-15 10 0 5 7 7 15 4 8 -4 15 -8 15 -10z m107 -10 c-3 -3 -12 -4 -19 -1 -8 3
-5 6 6 6 11 1 17 -2 13 -5z m-662 -30 c9 -9 14 -18 11 -21 -6 -6 -46 20 -46
29 0 13 18 9 35 -8z m130 -24 c3 -5 2 -10 -4 -10 -5 0 -13 5 -16 10 -3 6 -2
10 4 10 5 0 13 -4 16 -10z m-322 -35 c-3 -9 -8 -14 -10 -11 -3 3 -2 9 2 15 9
16 15 13 8 -4z m764 9 c-3 -3 -12 -4 -19 -1 -8 3 -5 6 6 6 11 1 17 -2 13 -5z
m73 2 c0 -3 -4 -8 -10 -11 -5 -3 -10 -1 -10 4 0 6 5 11 10 11 6 0 10 -2 10 -4z
m-188 -23 c15 -14 23 -15 38 -6 15 10 21 9 32 -4 11 -14 10 -15 -12 -8 -22 7
-23 6 -11 -9 12 -14 12 -16 -3 -10 -25 9 -19 -11 7 -24 21 -10 21 -11 2 -11
-12 -1 -26 4 -33 11 -6 6 -34 12 -62 14 -42 2 -51 -1 -48 -13 2 -9 13 -19 25
-24 17 -6 21 -5 17 6 -4 9 1 13 15 12 12 -1 21 -4 21 -8 0 -4 3 -15 7 -25 4
-10 2 -15 -4 -11 -5 3 -29 7 -54 8 -24 2 -46 6 -49 10 -3 4 -16 9 -30 12 -14
2 -20 2 -13 0 6 -2 18 -14 26 -26 14 -22 14 -22 -41 -22 -34 1 -57 6 -60 13
-5 17 -22 15 -22 -2 0 -16 41 -29 85 -28 29 1 29 1 5 -7 l-25 -7 25 -7 c14 -4
36 -7 50 -7 20 0 22 -2 10 -10 -9 -6 -10 -10 -3 -10 6 0 19 -3 28 -6 15 -6 15
-4 4 15 -8 11 -23 21 -34 22 -17 0 -17 2 4 10 14 5 31 7 39 4 8 -3 23 2 32 10
16 14 18 14 24 0 3 -9 2 -13 -4 -10 -6 3 -10 2 -10 -3 0 -5 15 -14 33 -20 25
-8 27 -10 10 -11 -29 -1 -38 -17 -13 -24 14 -4 18 -10 14 -22 -6 -14 -3 -16
17 -10 l24 7 -24 -21 c-13 -11 -29 -21 -35 -21 -6 0 -5 4 3 9 10 6 4 11 -20
16 -19 4 -38 10 -44 13 -5 4 -26 7 -46 8 -42 1 -59 10 -59 28 0 8 -25 24 -56
36 -45 19 -59 21 -77 11 -16 -8 -32 -8 -57 -1 -51 15 -58 13 -55 -15 3 -25 3
-25 -39 10 -24 19 -50 35 -59 35 -24 0 -28 15 -8 27 11 7 23 8 32 2 19 -12 32
-11 24 1 -3 6 1 10 9 10 8 0 18 -4 21 -10 3 -5 15 -10 26 -10 19 0 19 1 5 16
-9 8 -16 19 -16 24 0 5 -3 16 -7 26 -4 11 -3 15 5 10 6 -3 13 -2 16 3 4 6 18
6 35 1 16 -4 33 -5 37 -2 4 4 4 2 0 -5 -4 -8 13 -21 51 -39 32 -15 60 -31 61
-36 2 -4 8 -8 14 -8 6 0 4 8 -5 18 -22 24 -21 31 3 25 11 -3 20 0 20 6 0 6 3
10 8 10 4 -1 14 -1 22 1 11 1 9 4 -5 10 -18 8 -18 9 -2 9 10 1 27 -4 38 -10
17 -9 21 -7 26 10 3 12 10 21 15 21 5 0 7 4 3 9 -4 8 9 14 49 20 5 0 18 -7 28
-16z m168 -53 c0 -5 -5 -10 -11 -10 -5 0 -7 5 -4 10 3 6 8 10 11 10 2 0 4 -4
4 -10z m49 -13 c6 -8 8 -17 4 -20 -11 -12 -21 -7 -26 13 -6 23 5 26 22 7z m41
3 c0 -5 -4 -10 -10 -10 -5 0 -10 5 -10 10 0 6 5 10 10 10 6 0 10 -4 10 -10z
m-140 -14 c0 -3 -4 -8 -10 -11 -5 -3 -10 -1 -10 4 0 6 5 11 10 11 6 0 10 -2
10 -4z m-47 -43 c-7 -2 -19 -2 -25 0 -7 3 -2 5 12 5 14 0 19 -2 13 -5z m-33
-23 c0 -5 -4 -10 -10 -10 -5 0 -10 5 -10 10 0 6 5 10 10 10 6 0 10 -4 10 -10z
m197 -10 c19 -15 21 -20 9 -20 -9 0 -16 4 -16 9 0 18 -34 22 -46 6 -7 -10 -15
-12 -18 -6 -6 9 19 30 37 31 5 0 20 -9 34 -20z m238 8 c6 -1 24 2 41 6 22 5
33 3 36 -6 4 -9 -8 -14 -41 -16 -25 -2 -55 -4 -66 -5 -12 -1 -21 5 -23 17 -3
16 0 18 19 12 13 -4 29 -8 34 -8z m-65 -33 c8 -9 8 -15 2 -15 -18 0 -42 12
-42 21 0 14 26 10 40 -6z m68 -9 c-7 -8 -15 -12 -17 -11 -5 6 10 25 20 25 5 0
4 -6 -3 -14z m-288 -16 c0 -5 -5 -10 -11 -10 -5 0 -7 5 -4 10 3 6 8 10 11 10
2 0 4 -4 4 -10z m-415 -30 c3 -5 2 -10 -4 -10 -5 0 -13 5 -16 10 -3 6 -2 10 4
10 5 0 13 -4 16 -10z m-330 -11 c-15 -7 -10 -8 20 -4 29 3 34 2 20 -5 -26 -11
-65 -12 -65 -2 0 13 12 22 29 21 12 0 11 -3 -4 -10z m909 -2 c-2 -7 -20 -13
-40 -13 -33 0 -34 1 -12 13 30 16 59 17 52 0z m-524 -7 c0 -5 -2 -10 -4 -10
-3 0 -8 5 -11 10 -3 6 -1 10 4 10 6 0 11 -4 11 -10z m800 -5 c0 -8 -4 -15 -10
-15 -5 0 -7 7 -4 15 4 8 8 15 10 15 2 0 4 -7 4 -15z m-376 -3 c2 -4 -4 -8 -15
-8 -10 0 -19 4 -19 8 0 4 6 8 14 8 8 0 17 -4 20 -8z m-264 -11 c0 -14 -18 -23
-30 -16 -6 4 -8 11 -5 16 8 12 35 12 35 0z m-680 -11 c8 -5 12 -12 9 -15 -8
-8 -39 5 -39 16 0 11 11 11 30 -1z m67 4 c-3 -3 -12 -4 -19 -1 -8 3 -5 6 6 6
11 1 17 -2 13 -5z m673 -4 c-8 -5 -19 -10 -25 -10 -5 0 -3 5 5 10 8 5 20 10
25 10 6 0 3 -5 -5 -10z m585 -30 c-3 -5 -10 -10 -16 -10 -5 0 -9 5 -9 10 0 6
7 10 16 10 8 0 12 -4 9 -10z m-136 -20 c7 -4 -12 -7 -43 -6 -40 0 -60 -4 -66
-14 -8 -13 -10 -12 -10 3 0 10 8 17 20 17 11 0 20 4 20 10 0 10 54 3 79 -10z
m81 -5 c0 -8 -4 -15 -8 -15 -5 0 -9 7 -9 15 0 8 4 15 9 15 4 0 8 -7 8 -15z
m120 -15 c0 -5 -4 -10 -10 -10 -5 0 -10 5 -10 10 0 6 5 10 10 10 6 0 10 -4 10
-10z m-510 -10 c0 -5 -2 -10 -4 -10 -3 0 -8 5 -11 10 -3 6 -1 10 4 10 6 0 11
-4 11 -10z m285 0 c3 -6 -1 -7 -9 -4 -18 7 -21 14 -7 14 6 0 13 -4 16 -10z
m-1005 -24 c0 -2 3 -11 6 -20 5 -12 -1 -16 -22 -16 -23 0 -26 -2 -14 -10 24
-16 6 -11 -31 7 -33 17 -33 18 -9 21 14 2 29 8 35 13 9 9 35 13 35 5z m1084
-14 c2 -4 -4 -8 -14 -9 -11 -1 -22 2 -25 8 -4 5 3 9 14 9 11 0 22 -4 25 -8z
m91 -23 c-9 -14 -34 2 -28 17 4 11 9 12 19 3 8 -6 11 -15 9 -20z m42 14 c0
-15 -19 -12 -24 3 -2 6 3 11 10 11 8 0 14 -6 14 -14z m543 7 c8 -5 11 -10 5
-10 -5 0 -17 5 -25 10 -8 5 -10 10 -5 10 6 0 17 -5 25 -10z m-1052 -14 c-7 -7
-19 -11 -26 -8 -11 4 -11 6 0 13 7 5 19 9 26 9 10 0 10 -3 0 -14z m-39 -38 c1
-5 -7 0 -17 10 -12 11 -14 19 -8 24 10 6 23 -13 25 -34z m161 32 c0 -5 -4 -10
-10 -10 -5 0 -10 5 -10 10 0 6 5 10 10 10 6 0 10 -4 10 -10z m57 -30 c13 -14
20 -17 30 -8 9 7 13 7 13 -1 0 -6 14 -11 30 -11 20 0 30 -5 30 -15 0 -9 9 -15
23 -14 15 1 17 3 6 6 -10 2 -19 12 -21 21 -4 14 4 17 48 20 l53 3 15 -50 c8
-27 19 -58 25 -69 8 -16 7 -21 -6 -26 -12 -5 -14 -9 -5 -18 20 -20 14 -25 -33
-26 -25 0 -45 4 -45 9 0 5 -8 9 -19 9 -19 0 -55 43 -45 53 3 3 13 4 22 1 10
-3 7 1 -5 7 -13 7 -23 16 -23 21 0 4 -10 7 -22 7 -17 -1 -19 -2 -5 -6 9 -2 17
-8 17 -13 0 -9 -84 20 -97 34 -4 4 3 6 17 5 14 -1 36 -1 50 0 l25 2 -25 11
c-14 5 -34 11 -45 12 -13 1 -19 7 -17 19 2 10 -3 17 -13 17 -8 0 -15 5 -15 10
0 16 19 11 37 -10z m-857 1 c0 -9 -60 -24 -68 -17 -2 3 11 9 29 15 19 5 35 10
37 10 1 1 2 -3 2 -8z m799 -22 c3 -12 2 -12 -11 -1 -9 7 -20 12 -24 11 -18 -3
-25 1 -19 11 8 12 48 -3 54 -21z m-179 17 c0 -3 -4 -8 -10 -11 -5 -3 -10 -1
-10 4 0 6 5 11 10 11 6 0 10 -2 10 -4z m-807 -26 c3 -11 4 -20 3 -20 -2 0 -11
9 -21 20 -15 17 -16 20 -3 20 9 0 18 -9 21 -20z m1021 4 c9 -22 8 -24 -9 -24
-8 0 -15 9 -15 20 0 24 15 27 24 4z m-137 -16 c-3 -8 -6 -5 -6 6 -1 11 2 17 5
13 3 -3 4 -12 1 -19z m1037 -14 c9 -3 16 -10 16 -16 0 -14 -53 -5 -58 10 -4
13 16 16 42 6z m-1610 -10 c9 -3 16 -10 16 -15 0 -6 -8 -6 -19 0 -10 6 -22 7
-26 3 -5 -4 -5 -1 -1 6 8 14 9 14 30 6z m-117 -10 c-3 -3 -12 -4 -19 -1 -8 3
-5 6 6 6 11 1 17 -2 13 -5z m1836 -11 c-7 -2 -21 -2 -30 0 -10 3 -4 5 12 5 17
0 24 -2 18 -5z m-1905 -29 c0 -17 -4 -22 -11 -15 -5 5 -7 17 -4 25 9 23 15 19
15 -10z m922 16 c0 -5 -4 -10 -10 -10 -5 0 -10 5 -10 10 0 6 5 10 10 10 6 0
10 -4 10 -10z m-893 -62 c-3 -8 -6 -5 -6 6 -1 11 2 17 5 13 3 -3 4 -12 1 -19z
m1820 -4 c-3 -3 -12 -4 -19 -1 -8 3 -5 6 6 6 11 1 17 -2 13 -5z m-1862 -24 c3
-5 1 -10 -4 -10 -6 0 -11 5 -11 10 0 6 2 10 4 10 3 0 8 -4 11 -10z m55 1 c0
-5 -7 -11 -14 -14 -10 -4 -13 -1 -9 9 6 15 23 19 23 5z m995 -1 c3 -5 17 -10
31 -10 13 0 24 -4 24 -10 0 -5 -11 -10 -25 -10 -14 0 -25 5 -25 10 0 6 -10 15
-22 20 -17 6 -18 9 -6 9 9 1 20 -3 23 -9z m785 -4 c-6 -8 -18 -12 -27 -9 -12
5 -12 7 -1 14 7 5 19 9 27 9 11 0 11 -3 1 -14z m65 0 c19 -8 35 -20 35 -25 0
-6 -17 -1 -37 10 -60 33 -59 40 2 15z m-2005 -10 c0 -8 12 -17 26 -20 17 -5
24 -12 20 -21 -3 -8 -1 -15 5 -15 6 0 7 -5 3 -12 -5 -8 -10 -5 -17 9 -6 13
-22 24 -42 27 -49 10 -54 42 -7 45 6 1 12 -5 12 -13z m1710 -6 c0 -5 -10 -10
-22 -10 -19 0 -20 2 -8 10 19 13 30 13 30 0z m-475 -10 c3 -5 1 -10 -4 -10 -6
0 -11 5 -11 10 0 6 2 10 4 10 3 0 8 -4 11 -10z m-1101 -39 c23 -20 50 -71 37
-71 -15 0 -83 62 -76 69 3 3 10 -1 15 -9 8 -13 10 -12 10 3 0 9 -6 17 -14 17
-8 0 -18 4 -21 10 -9 14 26 0 49 -19z m471 9 c3 -5 2 -10 -4 -10 -5 0 -13 5
-16 10 -3 6 -2 10 4 10 5 0 13 -4 16 -10z m-195 -40 c0 -5 -7 -10 -15 -10 -8
0 -15 5 -15 10 0 6 7 10 15 10 8 0 15 -4 15 -10z m115 0 c-27 -12 -43 -12 -25
0 8 5 22 9 30 9 10 0 8 -3 -5 -9z m738 -47 c-5 -2 -22 3 -37 11 -17 9 -23 16
-14 18 7 3 24 -2 37 -11 13 -8 19 -17 14 -18z m-1003 7 c0 -13 7 -20 19 -20
11 0 23 -5 27 -11 4 -8 0 -9 -15 -4 -16 5 -20 3 -15 -8 3 -8 14 -17 25 -20 10
-3 19 -10 19 -16 0 -18 -15 -13 -46 17 -29 27 -45 82 -25 82 6 0 11 -9 11 -20z
m73 11 c19 -8 23 -15 20 -35 -3 -15 -1 -26 6 -26 6 0 11 -5 11 -12 0 -6 -9 -3
-21 8 -11 10 -18 26 -16 35 3 11 0 16 -8 13 -6 -3 -18 2 -25 11 -14 17 -3 19
33 6z m1377 -21 c0 -5 -7 -10 -15 -10 -8 0 -15 5 -15 10 0 6 7 10 15 10 8 0
15 -4 15 -10z m-1320 -4 c0 -2 -7 -7 -16 -10 -8 -3 -12 -2 -9 4 6 10 25 14 25
6z m180 -16 c0 -5 -7 -10 -15 -10 -8 0 -15 5 -15 10 0 6 7 10 15 10 8 0 15 -4
15 -10z m-470 -25 c11 -13 10 -14 -4 -9 -9 3 -16 10 -16 15 0 13 6 11 20 -6z
m1401 -16 c5 -11 7 -19 3 -19 -11 0 -44 32 -44 41 0 14 30 -2 41 -22z m-1074
3 c-14 -3 -17 -10 -13 -28 5 -17 2 -24 -9 -24 -21 0 -19 47 2 59 10 5 22 6 28
3 5 -4 2 -8 -8 -10z m1341 0 c2 -7 -2 -10 -12 -6 -9 3 -16 11 -16 16 0 13 23
5 28 -10z m-1193 -3 c12 -19 -3 -22 -27 -5 l-22 16 21 0 c12 0 25 -5 28 -11z
m1004 -34 c-10 -9 -35 -9 -37 0 -1 6 2 10 7 10 5 0 13 4 17 8 5 5 10 3 12 -3
2 -6 2 -13 1 -15z m-989 -47 c0 -12 -14 -9 -38 8 -33 23 -27 36 8 16 16 -9 30
-20 30 -24z m155 32 c3 -5 -1 -10 -9 -10 -8 0 -18 5 -21 10 -3 6 1 10 9 10 8
0 18 -4 21 -10z m785 0 c8 -5 12 -11 10 -14 -3 -2 -14 2 -24 10 -22 15 -10 19
14 4z m-870 -10 c0 -5 -4 -10 -10 -10 -5 0 -10 5 -10 10 0 6 5 10 10 10 6 0
10 -4 10 -10z m910 0 c0 -5 -4 -10 -10 -10 -5 0 -10 5 -10 10 0 6 5 10 10 10
6 0 10 -4 10 -10z m-926 -19 c15 -17 16 -19 1 -25 -9 -3 -24 -1 -33 5 -14 8
-13 9 8 5 l25 -5 -24 20 c-15 12 -18 19 -9 19 8 0 23 -8 32 -19z m623 -23 c-3
-7 -5 -2 -5 12 0 14 2 19 5 13 2 -7 2 -19 0 -25z m-522 12 c3 -5 1 -10 -5 -10
-7 0 -10 -6 -7 -14 4 -9 0 -12 -13 -9 -12 3 -16 11 -13 24 6 20 28 26 38 9z
m569 -4 c-3 -9 3 -17 16 -21 16 -5 19 -10 11 -18 -8 -8 -15 -6 -26 9 -17 22
-19 44 -5 44 5 0 7 -6 4 -14z m186 -6 c0 -5 -2 -10 -4 -10 -3 0 -8 5 -11 10
-3 6 -1 10 4 10 6 0 11 -4 11 -10z m-953 -6 c-3 -3 -12 -4 -19 -1 -8 3 -5 6 6
6 11 1 17 -2 13 -5z m163 -34 c0 -5 -2 -10 -4 -10 -3 0 -8 5 -11 10 -3 6 -1
10 4 10 6 0 11 -4 11 -10z m8 -43 c2 -9 -2 -17 -8 -17 -6 0 -8 5 -5 10 3 6 1
10 -4 10 -6 0 -11 -4 -11 -10 0 -5 -7 -10 -15 -10 -13 0 -13 3 -3 20 15 24 41
22 46 -3z m487 -8 c11 -17 -1 -21 -15 -4 -8 9 -8 15 -2 15 6 0 14 -5 17 -11z
m-269 -129 c5 0 14 -11 20 -23 10 -22 9 -23 -13 -13 -12 6 -23 14 -23 19 0 12
-58 8 -63 -5 -3 -10 -8 -10 -17 -2 -9 9 -3 16 27 31 31 15 40 17 49 6 6 -7 15
-13 20 -13z m64 -11 c0 -18 -2 -20 -15 -9 -13 11 -13 15 -3 21 18 12 18 12 18
-12z m-69 -36 c8 -8 8 -13 0 -17 -6 -4 -11 -2 -11 5 0 7 -3 9 -7 6 -3 -4 6
-21 22 -37 16 -17 24 -30 18 -30 -6 0 -13 7 -17 15 -6 17 -46 21 -46 5 0 -5
-7 -10 -15 -10 -20 0 -19 6 6 31 11 11 18 27 15 34 -5 15 19 14 35 -2z m139 8
c0 -4 -11 -6 -25 -3 -14 2 -25 6 -25 8 0 2 11 4 25 4 14 0 25 -4 25 -9z m-510
-11 c0 -5 -2 -10 -4 -10 -3 0 -8 5 -11 10 -3 6 -1 10 4 10 6 0 11 -4 11 -10z
m450 -29 c0 -31 -24 -43 -42 -22 -17 20 -8 48 11 37 6 -4 11 -2 11 4 0 6 5 8
10 5 6 -3 10 -14 10 -24z m225 -21 c3 -5 1 -10 -4 -10 -6 0 -11 5 -11 10 0 6
2 10 4 10 3 0 8 -4 11 -10z m-425 -18 c0 -13 -12 -22 -22 -16 -10 6 -1 24 13
24 5 0 9 -4 9 -8z m287 -7 c5 -15 -78 -38 -90 -26 -8 8 -4 11 14 12 13 0 33 5
44 10 15 7 9 8 -20 4 -30 -4 -36 -3 -25 5 18 12 72 9 77 -5z m266 -2 c-7 -2
-19 -2 -25 0 -7 3 -2 5 12 5 14 0 19 -2 13 -5z m-111 -18 c0 -5 -5 -11 -11
-13 -6 -2 -11 4 -11 13 0 9 5 15 11 13 6 -2 11 -8 11 -13z m-82 -1 c0 -26 -90
-49 -104 -26 -3 5 7 7 23 4 17 -2 32 2 40 12 13 15 41 22 41 10z m200 -4 c0
-5 -4 -10 -10 -10 -5 0 -10 5 -10 10 0 6 5 10 10 10 6 0 10 -4 10 -10z m-70
-30 c0 -5 -12 -10 -26 -10 -14 0 -23 4 -19 10 3 6 15 10 26 10 10 0 19 -4 19
-10z m-253 -6 c-3 -3 -12 -4 -19 -1 -8 3 -5 6 6 6 11 1 17 -2 13 -5z m141 -9
c-2 -1 -18 -5 -35 -8 -33 -7 -48 8 -15 15 16 4 56 -2 50 -7z m422 -5 c0 -11
-31 -42 -37 -37 -7 8 20 57 28 51 5 -3 9 -9 9 -14z m-366 -51 c-10 -16 -24 -9
-24 12 0 18 2 19 15 9 8 -7 12 -16 9 -21z m66 -1 c0 -12 -14 -10 -28 4 -19 19
-14 29 8 16 11 -7 20 -16 20 -20z m270 -8 c0 -5 -7 -10 -16 -10 -8 0 -12 5 -9
10 3 6 10 10 16 10 5 0 9 -4 9 -10z m-550 -19 c0 -12 -20 -25 -27 -18 -7 7 6
27 18 27 5 0 9 -4 9 -9z m-1233 -43 c-3 -8 -6 -5 -6 6 -1 11 2 17 5 13 3 -3 4
-12 1 -19z m643 12 c12 -7 10 -9 -8 -7 -12 0 -22 5 -22 9 0 11 12 10 30 -2z
m-50 -35 c-9 -11 -7 -12 11 -8 15 4 20 3 15 -5 -9 -15 -56 -16 -56 -1 0 5 -4
7 -10 4 -5 -3 -10 -1 -10 4 0 6 7 11 15 11 9 0 12 6 8 16 -5 14 -3 15 16 4 17
-9 20 -14 11 -25z m740 14 c0 -5 -4 -9 -10 -9 -5 0 -10 7 -10 16 0 8 5 12 10
9 6 -3 10 -10 10 -16z m190 1 c0 -5 -5 -10 -11 -10 -5 0 -7 5 -4 10 3 6 8 10
11 10 2 0 4 -4 4 -10z m110 -79 c0 -11 9 -21 21 -24 18 -5 20 -2 14 20 -4 17
-2 24 6 21 17 -6 18 -41 2 -56 -9 -9 -13 -10 -13 -1 0 6 -7 9 -15 5 -8 -3 -19
3 -25 14 -13 24 -13 40 0 40 6 0 10 -8 10 -19z m-50 5 c0 -11 -19 -15 -25 -6
-3 5 1 10 9 10 9 0 16 -2 16 -4z m135 -52 c-9 -9 -18 -14 -21 -11 -9 9 6 27
22 27 13 0 13 -2 -1 -16z m-535 -30 c0 -8 -4 -14 -10 -14 -5 0 -10 9 -10 21 0
11 5 17 10 14 6 -3 10 -13 10 -21z m-205 -4 c-3 -5 -10 -10 -16 -10 -5 0 -9 5
-9 10 0 6 7 10 16 10 8 0 12 -4 9 -10z m820 0 c-3 -5 -12 -7 -20 -3 -21 7 -19
13 6 13 11 0 18 -4 14 -10z m-784 -30 c5 0 9 -7 9 -15 0 -20 -6 -19 -32 7 -17
17 -18 20 -4 15 10 -4 22 -7 27 -7z m829 -50 c0 -28 -2 -30 -20 -20 -22 12
-22 12 -14 34 11 28 34 18 34 -14z m-850 0 c0 -5 -2 -10 -4 -10 -3 0 -8 5 -11
10 -3 6 -1 10 4 10 6 0 11 -4 11 -10z m0 -30 c12 -8 11 -10 -7 -10 -13 0 -23
5 -23 10 0 13 11 13 30 0z m609 -99 c-3 -6 -10 -7 -18 -2 -7 5 -10 14 -6 21 9
14 29 -2 24 -19z m-629 -81 c0 -13 -29 -20 -36 -8 -5 7 -2 8 6 3 10 -6 12 -4
7 8 -4 11 -2 14 9 10 7 -3 14 -9 14 -13z m670 -10 c0 -5 -4 -10 -10 -10 -5 0
-10 5 -10 10 0 6 5 10 10 10 6 0 10 -4 10 -10z m-325 -10 c3 -5 1 -10 -4 -10
-6 0 -11 5 -11 10 0 6 2 10 4 10 3 0 8 -4 11 -10z m-400 -10 c-3 -5 -11 -10
-16 -10 -6 0 -7 5 -4 10 3 6 11 10 16 10 6 0 7 -4 4 -10z m640 -50 c3 -5 -1
-10 -9 -10 -9 0 -16 5 -16 10 0 6 4 10 9 10 6 0 13 -4 16 -10z m-125 -15 c0
-15 27 -21 80 -17 44 3 58 -10 20 -18 -19 -4 -42 -10 -51 -14 -10 -5 -26 3
-45 23 -16 16 -38 31 -49 34 -13 3 -9 5 13 6 22 1 32 -4 32 -14z m110 -126 c0
-6 14 -7 35 -3 23 4 35 2 35 -5 0 -6 -8 -11 -18 -11 -35 0 -66 -52 -50 -82 7
-15 5 -17 -14 -15 -13 1 -26 6 -30 12 -5 6 -12 5 -20 -3 -20 -20 -26 -14 -26
23 0 42 35 90 67 92 12 1 21 -3 21 -8z m-102 -23 c-7 -8 -15 -12 -17 -11 -5 6
10 25 20 25 5 0 4 -6 -3 -14z m312 -82 c0 -8 -5 -12 -10 -9 -6 4 -8 11 -5 16
9 14 15 11 15 -7z m-266 -64 c16 16 26 12 26 -9 0 -26 -17 -36 -35 -21 -11 9
-18 10 -29 1 -10 -9 -16 -8 -26 3 -18 23 -4 37 27 25 18 -7 30 -6 37 1z m231
-59 c3 -6 -10 -17 -30 -27 -19 -9 -32 -20 -29 -25 3 -5 18 -2 34 6 36 19 41
19 34 0 -8 -20 13 -19 24 1 6 11 8 5 8 -20 -1 -20 -4 -36 -8 -36 -5 0 -8 5 -8
11 0 7 -8 9 -22 4 -13 -3 -29 -7 -35 -7 -7 -1 -13 -10 -13 -20 0 -23 -3 -23
-45 5 -34 21 -45 37 -26 37 5 0 11 9 14 20 3 11 24 29 49 40 51 23 46 22 53
11z m-202 -21 c-3 -12 -8 -19 -11 -16 -5 6 5 36 12 36 2 0 2 -9 -1 -20z m511
-55 c-4 -8 -11 -12 -16 -9 -6 4 -5 10 3 15 19 12 19 11 13 -6z m-504 -26 c0
-5 -4 -9 -10 -9 -5 0 -10 7 -10 16 0 8 5 12 10 9 6 -3 10 -10 10 -16z m-881
-18 c-3 -6 -10 -7 -18 -2 -7 5 -10 14 -6 21 9 14 29 -2 24 -19z m1481 19 c0
-5 -2 -10 -4 -10 -3 0 -8 5 -11 10 -3 6 -1 10 4 10 6 0 11 -4 11 -10z m-410
-26 c0 -9 -5 -14 -12 -12 -18 6 -21 28 -4 28 9 0 16 -7 16 -16z m340 6 c0 -5
-2 -10 -4 -10 -3 0 -8 5 -11 10 -3 6 -1 10 4 10 6 0 11 -4 11 -10z m-1310 -20
c0 -5 -2 -10 -4 -10 -3 0 -8 5 -11 10 -3 6 -1 10 4 10 6 0 11 -4 11 -10z
m1015 0 c3 -5 -3 -10 -15 -10 -12 0 -18 5 -15 10 3 6 10 10 15 10 5 0 12 -4
15 -10z m-62 -20 c4 -14 10 -18 23 -13 11 4 22 0 30 -12 8 -10 14 -13 14 -7 0
7 5 12 10 12 6 0 10 -6 10 -14 0 -17 62 -28 73 -12 5 6 6 2 2 -10 -5 -19 0
-22 36 -27 47 -6 59 -14 40 -26 -10 -7 -9 -10 8 -16 12 -3 19 -11 15 -16 -3
-5 -10 -7 -15 -4 -5 3 -6 0 -3 -8 3 -9 -3 -16 -16 -20 -16 -4 -20 -2 -16 9 3
8 0 14 -6 14 -6 0 -8 3 -5 7 4 3 -2 13 -14 21 -11 8 -23 11 -26 8 -4 -3 -1 -6
6 -6 7 0 9 -9 5 -25 -4 -17 -1 -27 9 -31 17 -6 30 -44 16 -44 -5 0 -9 5 -9 11
0 11 -24 39 -34 39 -3 0 -6 -9 -6 -20 0 -11 5 -20 10 -20 6 0 10 -6 10 -14 0
-9 7 -12 20 -9 11 3 20 0 20 -6 0 -6 0 -14 1 -18 0 -5 -10 -10 -22 -13 -21 -5
-21 -6 4 -17 15 -7 26 -9 26 -5 -3 20 3 30 27 41 15 6 29 9 32 6 3 -3 0 -5 -6
-5 -7 0 -12 -5 -12 -11 0 -5 4 -8 9 -5 12 8 41 -4 41 -16 0 -6 -7 -5 -16 3
-13 10 -17 10 -24 -1 -4 -7 -6 -19 -3 -26 2 -6 0 -15 -6 -19 -6 -3 -11 -2 -11
4 0 15 -51 -7 -73 -32 -17 -19 -17 -19 -15 4 3 20 -2 25 -26 27 -19 3 -26 0
-21 -8 5 -8 -6 -10 -40 -4 -37 5 -46 4 -40 -6 6 -9 1 -10 -16 -5 -23 7 -23 7
-6 -12 23 -26 22 -43 -3 -44 -35 -2 -39 -4 -51 -16 -21 -21 -41 -16 -34 9 6
16 4 20 -9 15 -8 -3 -18 -2 -21 3 -4 6 5 10 18 10 37 0 39 11 9 38 -26 25 -26
25 -4 19 26 -6 52 0 52 13 0 5 -16 6 -35 3 -28 -4 -35 -2 -35 11 0 9 -8 16
-17 16 -12 0 -14 -3 -6 -8 21 -13 8 -47 -19 -50 -37 -4 -44 -40 -9 -45 20 -3
17 -4 -11 -6 -36 -1 -52 13 -26 21 16 6 -9 32 -39 42 -11 4 -20 14 -19 24 1
20 22 36 36 27 6 -3 10 -1 10 6 0 6 -8 9 -20 6 -11 -3 -18 -1 -14 4 3 5 13 9
22 9 14 1 15 2 2 9 -8 5 -28 11 -45 15 -29 6 -29 6 -7 -7 25 -14 19 -31 -7
-18 -36 19 -89 22 -104 6 -9 -8 -25 -15 -36 -15 -11 0 -23 -5 -27 -11 -4 -8
-9 -8 -17 0 -6 6 -22 11 -36 12 -24 0 -24 1 -6 9 12 4 27 15 34 24 9 10 21 14
34 10 14 -4 17 -3 12 6 -5 9 -2 10 14 5 12 -3 21 -2 21 4 0 11 -15 16 -72 26
-44 7 -51 25 -10 26 l27 0 -22 16 c-29 19 -29 33 -2 33 11 0 18 4 15 9 -3 5 9
11 27 14 73 12 125 30 121 42 -3 7 6 15 20 17 14 3 26 1 26 -3 0 -5 11 -9 25
-9 16 0 25 6 25 15 0 11 11 15 43 15 24 0 47 -3 51 -7 10 -11 50 -11 63 -1 7
5 17 7 22 3 7 -3 8 0 5 9 -3 9 -2 16 4 16 5 0 12 -9 15 -20z m240 6 c4 -10 1
-13 -9 -9 -15 6 -19 23 -5 23 5 0 11 -7 14 -14z m-1273 -22 c0 -8 -4 -12 -10
-9 -5 3 -10 13 -10 21 0 8 5 12 10 9 6 -3 10 -13 10 -21z m1117 10 c-3 -3 -12
-4 -19 -1 -8 3 -5 6 6 6 11 1 17 -2 13 -5z m-1117 -114 c0 -5 -2 -10 -4 -10
-3 0 -8 5 -11 10 -3 6 -1 10 4 10 6 0 11 -4 11 -10z m1326 -23 c0 -13 -6 -24
-13 -24 -7 0 -13 4 -13 9 0 4 4 8 10 8 5 0 7 7 4 15 -4 8 -2 15 3 15 5 0 9
-10 9 -23z m-1116 3 c0 -5 -4 -10 -10 -10 -5 0 -10 5 -10 10 0 6 5 10 10 10 6
0 10 -4 10 -10z m109 -48 c5 -9 12 -16 15 -14 3 1 12 2 19 1 6 -1 1 -4 -13 -8
-14 -4 -24 -13 -22 -19 1 -7 -4 -12 -12 -12 -8 0 -17 -6 -19 -12 -3 -7 -6 -3
-6 10 -1 15 3 21 11 16 8 -5 9 -2 5 9 -3 10 -2 17 3 17 6 0 10 5 10 11 0 6 -7
9 -15 5 -8 -3 -15 -4 -15 -2 0 3 -3 12 -7 21 -5 15 -3 16 15 6 12 -6 26 -19
31 -29z m-175 -6 c14 -19 26 -39 26 -45 0 -5 9 -12 19 -16 10 -3 22 -17 25
-32 9 -35 -1 -42 -14 -9 -5 14 -22 32 -37 38 -35 16 -43 26 -43 60 0 14 -6 29
-12 31 -8 4 -9 6 -2 6 7 1 23 -14 38 -33z m83 2 c-3 -8 -6 -5 -6 6 -1 11 2 17
5 13 3 -3 4 -12 1 -19z m1094 -10 c10 -18 9 -20 -6 -15 -9 4 -19 7 -21 7 -2 0
-4 7 -4 15 0 22 18 18 31 -7z m219 -31 c0 -5 -4 -5 -10 -2 -5 3 -10 14 -10 23
0 15 2 15 10 2 5 -8 10 -19 10 -23z m-1007 6 c-7 -2 -19 -2 -25 0 -7 3 -2 5
12 5 14 0 19 -2 13 -5z m1159 -2 c-8 -4 -13 -11 -13 -15 1 -3 1 -14 0 -23 0
-15 -2 -15 -8 2 -11 26 -3 45 18 45 12 0 13 -2 3 -9z m-1442 -5 c0 -3 -4 -8
-10 -11 -5 -3 -10 -1 -10 4 0 6 5 11 10 11 6 0 10 -2 10 -4z m77 -22 c-3 -3
-12 -4 -19 -1 -8 3 -5 6 6 6 11 1 17 -2 13 -5z m-85 -19 c0 -5 -5 -11 -11 -13
-6 -2 -11 4 -11 13 0 9 5 15 11 13 6 -2 11 -8 11 -13z m-82 -11 c0 -8 -4 -12
-10 -9 -5 3 -10 10 -10 16 0 5 5 9 10 9 6 0 10 -7 10 -16z m150 2 c0 -3 -4 -8
-10 -11 -5 -3 -10 -1 -10 4 0 6 5 11 10 11 6 0 10 -2 10 -4z m1260 -16 c0 -5
-2 -10 -4 -10 -3 0 -8 5 -11 10 -3 6 -1 10 4 10 6 0 11 -4 11 -10z m32 -12
c-7 -7 -12 -8 -12 -2 0 14 12 26 19 19 2 -3 -1 -11 -7 -17z m-1338 -3 c4 -10
-1 -15 -14 -15 -20 0 -26 11 -13 23 10 11 20 8 27 -8z m448 -17 c-7 -7 -12 -8
-12 -2 0 14 12 26 19 19 2 -3 -1 -11 -7 -17z m-513 3 c10 -7 7 -9 -12 -8 -15
1 -27 5 -27 10 0 10 22 9 39 -2z m100 -31 c-7 -5 -8 -13 -4 -21 5 -8 -1 -6
-13 4 -11 11 -25 16 -31 12 -7 -3 -8 0 -5 9 7 19 35 26 52 13 10 -8 10 -12 1
-17z m348 24 c-3 -3 -12 -4 -19 -1 -8 3 -5 6 6 6 11 1 17 -2 13 -5z m43 -4 c0
-5 -8 -10 -17 -10 -15 0 -16 2 -3 10 19 12 20 12 20 0z m1326 -15 c-23 -18
-33 -19 -41 -5 -3 6 1 7 9 4 9 -3 16 -1 16 5 0 6 8 11 18 11 15 -1 15 -2 -2
-15z m-490 -32 c-4 -9 -1 -20 5 -24 7 -4 1 -6 -13 -6 -24 2 -24 3 -9 24 19 27
25 29 17 6z m162 5 c19 -19 14 -37 -8 -31 -11 3 -20 13 -20 22 0 14 -2 14 -10
1 -5 -8 -7 -24 -4 -35 4 -17 3 -18 -6 -5 -9 11 -13 12 -17 3 -2 -7 -12 -13
-20 -13 -9 0 -13 -6 -9 -15 4 -10 -1 -15 -14 -15 -17 0 -18 3 -9 24 6 13 20
27 30 29 11 3 19 12 19 20 0 14 15 22 46 26 5 0 15 -4 22 -11z m172 -34 c0 -2
-13 -4 -30 -4 -16 0 -30 4 -30 8 0 5 14 7 30 4 17 -2 30 -6 30 -8z m-1135 -25
c4 -5 -2 -6 -11 -2 -14 5 -16 2 -12 -15 4 -12 5 -22 3 -22 -2 0 -11 -3 -20 -7
-15 -5 -16 -3 -5 17 8 15 8 20 1 16 -11 -7 -16 6 -6 15 8 9 45 8 50 -2z m35
-23 c0 -3 -4 -8 -10 -11 -5 -3 -10 -1 -10 4 0 6 5 11 10 11 6 0 10 -2 10 -4z
m450 -30 c0 -3 -4 -8 -10 -11 -5 -3 -10 -1 -10 4 0 6 5 11 10 11 6 0 10 -2 10
-4z m-120 -26 c0 13 1 13 10 0 7 -10 13 -11 18 -5 10 15 52 16 52 3 0 -6 -3
-8 -6 -5 -10 10 -44 -12 -44 -28 0 -8 5 -15 10 -15 6 0 10 6 10 13 0 9 2 9 9
-1 5 -9 27 -13 62 -12 72 2 77 1 59 -10 -8 -5 -28 -10 -45 -11 -21 -1 -24 -3
-10 -6 11 -3 25 -9 31 -14 15 -12 6 -49 -12 -49 -8 0 -14 -4 -14 -10 0 -15 27
-12 33 4 7 18 54 26 121 19 44 -5 56 -9 54 -21 -2 -9 -18 -20 -36 -24 -17 -5
-32 -12 -32 -16 0 -10 -53 -33 -84 -36 -13 -1 -36 -10 -51 -20 -14 -9 -34 -16
-44 -14 -10 2 -24 -2 -32 -8 -17 -14 -167 -39 -176 -30 -4 3 0 12 8 19 8 6 20
19 27 27 9 14 6 15 -23 12 -19 -2 -32 -8 -29 -13 3 -5 -8 -9 -25 -9 -16 0 -33
-5 -37 -11 -3 -6 -15 -9 -25 -6 -11 3 -19 2 -19 -2 0 -12 -119 -6 -132 7 -9 9
-8 12 6 12 9 0 14 5 11 10 -3 6 4 10 15 10 16 0 20 4 16 16 -3 8 -2 13 2 10 4
-2 14 -1 22 4 28 17 -21 25 -51 8 -23 -14 -28 -14 -33 -2 -3 8 -14 14 -24 14
-10 0 -23 5 -29 11 -8 8 -17 8 -31 0 -10 -6 -22 -7 -26 -4 -10 11 55 35 104
39 30 2 50 -2 62 -13 13 -12 29 -14 65 -9 27 4 57 6 68 5 64 -7 103 -2 119 13
16 16 15 18 -6 22 -13 3 -36 7 -52 8 l-28 3 22 28 c12 15 30 27 41 27 10 0 19
4 19 9 0 10 56 26 80 23 10 -2 8 2 -4 9 -14 9 -24 9 -37 1 -9 -6 -20 -8 -23
-5 -4 4 6 12 21 18 20 9 30 9 35 1 5 -7 8 -6 8 4z m210 1 c0 -5 -7 -14 -15
-21 -10 -9 -15 -9 -15 -1 0 6 -9 11 -19 11 -11 0 -23 5 -26 10 -4 6 10 10 34
10 23 0 41 -4 41 -9z m-80 -31 c-8 -5 -22 -9 -30 -9 -10 0 -8 3 5 9 27 12 43
12 25 0z m-567 -197 c-7 -2 -19 -2 -25 0 -7 3 -2 5 12 5 14 0 19 -2 13 -5z m1
-22 c3 -5 -4 -11 -17 -15 -34 -9 -57 -7 -57 5 0 6 8 8 19 4 11 -3 22 -1 26 5
8 12 22 13 29 1z m-127 -7 c-3 -3 -12 -4 -19 -1 -8 3 -5 6 6 6 11 1 17 -2 13
-5z m221 -51 c-10 -2 -26 -2 -35 0 -10 3 -2 5 17 5 19 0 27 -2 18 -5z"/>
<path d="M1598 3843 c7 -3 16 -2 19 1 4 3 -2 6 -13 5 -11 0 -14 -3 -6 -6z"/>
<path d="M1530 3821 c0 -11 4 -22 9 -25 11 -7 23 22 15 35 -9 16 -24 10 -24
-10z"/>
<path d="M1460 3790 c0 -5 7 -10 16 -10 8 0 12 5 9 10 -3 6 -10 10 -16 10 -5
0 -9 -4 -9 -10z"/>
<path d="M1695 3650 c-3 -5 -1 -10 4 -10 6 0 11 5 11 10 0 6 -2 10 -4 10 -3 0
-8 -4 -11 -10z"/>
<path d="M2900 1230 c0 -5 5 -10 11 -10 5 0 7 5 4 10 -3 6 -8 10 -11 10 -2 0
-4 -4 -4 -10z"/>
<path d="M2870 1074 c0 -6 11 -10 25 -9 16 2 25 -2 25 -11 0 -8 -5 -14 -12
-14 -6 0 -9 -3 -6 -6 9 -8 48 14 48 27 0 6 -4 8 -9 5 -5 -4 -11 0 -13 6 -6 16
-58 18 -58 2z"/>
<path d="M2958 1053 c-6 -22 8 -43 27 -43 5 0 1 7 -9 15 -18 13 -18 15 -3 15
10 0 29 -7 42 -16 14 -9 25 -13 25 -9 0 12 -33 34 -52 35 -9 0 -18 6 -20 12
-3 7 -7 3 -10 -9z"/>
<path d="M2995 980 c3 -5 8 -10 11 -10 2 0 4 5 4 10 0 6 -5 10 -11 10 -5 0 -7
-4 -4 -10z"/>
<path d="M2925 970 c11 -5 14 -9 8 -9 -19 -1 -16 -21 3 -21 8 0 12 -4 9 -10
-3 -5 1 -10 9 -10 10 0 13 6 9 17 -4 11 -3 14 5 9 7 -4 12 -1 12 8 0 10 -6 13
-15 10 -8 -4 -15 -1 -15 5 0 6 -10 11 -22 10 -22 0 -22 -1 -3 -9z"/>
<path d="M3011 961 c-18 -14 -22 -24 -17 -44 4 -17 12 -25 25 -24 11 0 17 5
14 11 -4 5 1 7 11 3 10 -4 15 -3 11 3 -3 6 -13 10 -21 10 -8 0 -14 5 -14 11 0
5 -4 7 -10 4 -19 -12 -10 7 13 26 29 24 19 24 -12 0z"/>
<path d="M2550 940 c0 -5 7 -7 15 -4 8 4 15 8 15 10 0 2 -7 4 -15 4 -8 0 -15
-4 -15 -10z"/>
<path d="M2625 930 c24 -11 51 -13 41 -3 -4 4 -19 8 -34 10 -23 2 -24 1 -7 -7z"/>
<path d="M2760 890 c0 -5 7 -10 16 -10 8 0 12 5 9 10 -3 6 -10 10 -16 10 -5 0
-9 -4 -9 -10z"/>
<path d="M2702 844 c-7 -8 -8 -14 -3 -14 10 0 25 19 20 25 -2 1 -10 -3 -17
-11z"/>
<path d="M3040 851 c0 -6 6 -13 12 -17 18 -11 48 -12 48 -2 0 4 -9 8 -20 8
-11 0 -20 5 -20 10 0 6 -4 10 -10 10 -5 0 -10 -4 -10 -9z"/>
<path d="M2880 823 c0 -10 4 -14 8 -8 4 6 11 13 16 18 5 4 2 7 -7 7 -10 0 -17
-8 -17 -17z"/>
<path d="M2840 740 c0 -5 5 -10 11 -10 5 0 7 5 4 10 -3 6 -8 10 -11 10 -2 0
-4 -4 -4 -10z"/>
<path d="M2915 570 c-3 -5 -2 -10 4 -10 5 0 13 5 16 10 3 6 2 10 -4 10 -5 0
-13 -4 -16 -10z"/>
<path d="M3068 513 c12 -2 30 -2 40 0 9 3 -1 5 -23 4 -22 0 -30 -2 -17 -4z"/>
<path d="M3073 493 c9 -2 23 -2 30 0 6 3 -1 5 -18 5 -16 0 -22 -2 -12 -5z"/>
<path d="M2760 4222 c-49 -4 -90 -22 -90 -39 0 -10 7 -13 23 -9 14 4 11 1 -8
-9 -27 -13 -28 -14 -7 -15 13 0 20 -4 17 -10 -3 -5 1 -10 10 -10 13 0 14 -4 5
-20 -8 -14 -8 -20 0 -20 6 0 8 -4 5 -10 -3 -5 -1 -10 5 -10 6 0 8 10 4 25 -7
27 4 33 24 13 9 -9 12 -7 12 9 0 16 5 20 26 17 20 -2 24 0 15 9 -13 13 -15 31
-2 22 5 -3 13 0 17 6 5 9 -7 10 -47 5 -44 -5 -50 -4 -35 6 11 6 42 12 68 13
26 1 51 5 55 8 3 4 4 7 2 7 -2 0 -18 3 -34 8 -17 4 -46 6 -65 4z m20 -56 c0
-3 -4 -8 -10 -11 -5 -3 -10 -1 -10 4 0 6 5 11 10 11 6 0 10 -2 10 -4z m-30
-26 c0 -5 -4 -10 -10 -10 -5 0 -10 5 -10 10 0 6 5 10 10 10 6 0 10 -4 10 -10z"/>
<path d="M2960 4160 c0 -5 5 -10 10 -10 6 0 15 -11 20 -25 5 -14 14 -25 19
-25 14 0 6 51 -10 61 -19 12 -39 11 -39 -1z"/>
<path d="M2882 4149 c2 -7 10 -15 17 -17 8 -3 12 1 9 9 -2 7 -10 15 -17 17 -8
3 -12 -1 -9 -9z"/>
<path d="M3075 4150 c3 -5 13 -10 21 -10 8 0 12 5 9 10 -3 6 -13 10 -21 10 -8
0 -12 -4 -9 -10z"/>
<path d="M3120 4134 c0 -8 5 -12 10 -9 6 3 10 10 10 16 0 5 -4 9 -10 9 -5 0
-10 -7 -10 -16z"/>
<path d="M2425 4120 c4 -6 11 -8 16 -5 14 9 11 15 -7 15 -8 0 -12 -5 -9 -10z"/>
<path d="M2649 4111 c9 -6 10 -11 2 -15 -6 -4 -11 -15 -11 -24 0 -13 2 -13 15
4 20 26 19 44 -2 44 -14 0 -15 -2 -4 -9z"/>
<path d="M2780 4110 c0 -5 5 -10 11 -10 5 0 7 5 4 10 -3 6 -8 10 -11 10 -2 0
-4 -4 -4 -10z"/>
<path d="M2955 4110 c3 -5 8 -10 11 -10 2 0 4 5 4 10 0 6 -5 10 -11 10 -5 0
-7 -4 -4 -10z"/>
<path d="M2823 4103 c9 -2 23 -2 30 0 6 3 -1 5 -18 5 -16 0 -22 -2 -12 -5z"/>
<path d="M2796 4054 c-9 -24 -7 -31 4 -12 6 10 18 14 30 11 11 -3 20 0 20 6 0
17 -47 13 -54 -5z"/>
<path d="M2055 4050 c-3 -6 1 -7 9 -4 18 7 21 14 7 14 -6 0 -13 -4 -16 -10z"/>
<path d="M2398 4053 c6 -2 18 -2 25 0 6 3 1 5 -13 5 -14 0 -19 -2 -12 -5z"/>
<path d="M2661 4057 c2 -1 13 -9 24 -17 19 -14 19 -14 6 3 -7 9 -18 17 -24 17
-6 0 -8 -1 -6 -3z"/>
<path d="M2898 4033 c7 -3 16 -2 19 1 4 3 -2 6 -13 5 -11 0 -14 -3 -6 -6z"/>
<path d="M3135 4030 c-7 -12 2 -30 16 -30 5 0 9 7 9 16 0 8 5 12 10 9 8 -5 7
-11 -1 -21 -6 -7 -9 -21 -5 -29 7 -18 36 -20 36 -2 0 6 3 23 7 36 4 16 3 22
-5 17 -6 -3 -13 -2 -17 4 -8 13 -42 13 -50 0z"/>
<path d="M1871 4011 c-12 -8 -9 -11 12 -17 30 -7 43 -1 32 15 -8 13 -25 14
-44 2z"/>
<path d="M2906 3990 l-25 -31 -7 26 c-3 14 -13 25 -20 25 -11 0 -12 -4 -4 -19
13 -26 13 -31 -4 -31 -8 0 -17 12 -21 27 -4 19 -9 23 -14 14 -5 -7 -11 -12
-15 -12 -22 3 -36 0 -36 -9 0 -6 11 -8 25 -4 29 7 33 -3 9 -21 -15 -11 -15
-14 0 -37 10 -16 13 -29 7 -32 -5 -4 -12 -2 -15 3 -11 17 -85 50 -91 40 -4 -5
9 -16 28 -24 18 -7 39 -21 47 -30 9 -11 22 -14 47 -9 32 6 35 5 33 -17 -3 -38
-1 -47 13 -46 24 2 112 -14 133 -25 12 -6 24 -22 27 -37 4 -21 16 -30 54 -44
26 -9 56 -17 66 -17 9 0 17 -4 17 -10 0 -5 9 -10 21 -10 16 0 19 4 13 18 -8
19 -8 41 0 90 5 29 1 38 -29 66 -28 26 -35 41 -35 70 0 28 -5 38 -22 45 -45
18 -123 43 -153 48 -26 5 -28 7 -10 14 16 6 16 8 3 8 -9 1 -28 -13 -42 -29z
m-31 -100 c3 -6 -1 -7 -9 -4 -18 7 -21 14 -7 14 6 0 13 -4 16 -10z"/>
<path d="M2635 3977 c4 -8 17 -17 29 -19 19 -4 22 -1 18 14 -3 15 -7 16 -13 7
-6 -10 -11 -10 -23 1 -14 11 -16 10 -11 -3z"/>
<path d="M1991 3976 c2 -2 15 -9 29 -15 24 -11 24 -11 6 3 -16 13 -49 24 -35
12z"/>
<path d="M2173 3955 c-16 -17 -17 -29 -2 -20 5 4 19 -1 29 -10 12 -11 20 -13
25 -6 3 6 0 11 -7 12 -7 0 -4 4 7 9 19 8 19 9 -3 9 -13 1 -20 5 -17 11 9 15
-18 11 -32 -5z"/>
<path d="M1790 3950 c0 -5 5 -10 10 -10 6 0 10 5 10 10 0 6 -4 10 -10 10 -5 0
-10 -4 -10 -10z"/>
<path d="M2592 3918 c5 -15 28 -23 28 -10 0 5 -7 13 -16 16 -10 4 -14 1 -12
-6z"/>
<path d="M1988 3913 c7 -3 16 -2 19 1 4 3 -2 6 -13 5 -11 0 -14 -3 -6 -6z"/>
<path d="M2596 3875 c5 -12 -4 -15 -47 -16 -39 0 -48 -3 -34 -9 12 -4 27 -15
34 -24 14 -17 67 -23 57 -7 -8 12 3 41 15 41 5 0 9 -9 9 -19 0 -11 5 -23 12
-27 8 -5 9 0 6 14 -4 12 -1 22 4 22 6 0 -1 9 -15 20 -30 24 -49 26 -41 5z m-6
-35 c0 -12 -8 -12 -35 0 -18 8 -17 9 8 9 15 1 27 -3 27 -9z"/>
<path d="M2651 3876 c2 -2 20 -6 39 -10 25 -4 31 -3 20 4 -14 9 -69 15 -59 6z"/>
<path d="M2775 3820 c3 -5 8 -10 11 -10 2 0 4 5 4 10 0 6 -5 10 -11 10 -5 0
-7 -4 -4 -10z"/>
<path d="M2524 3795 c-10 -8 -29 -15 -42 -15 -13 0 -20 -4 -17 -10 10 -16 65
-12 65 5 0 8 7 15 15 15 8 0 15 -4 15 -9 0 -15 41 -24 53 -12 8 8 5 11 -10 11
-11 0 -26 7 -33 15 -15 19 -21 19 -46 0z"/>
<path d="M2705 3790 c-3 -5 -1 -10 4 -10 6 0 11 5 11 10 0 6 -2 10 -4 10 -3 0
-8 -4 -11 -10z"/>
<path d="M2635 3750 c-3 -5 1 -10 10 -10 9 0 13 5 10 10 -3 6 -8 10 -10 10 -2
0 -7 -4 -10 -10z"/>
<path d="M2804 3735 c19 -15 19 -15 -4 -15 -29 0 -21 -9 15 -16 23 -4 26 -2
23 17 -2 15 -11 23 -28 25 -24 4 -24 3 -6 -11z"/>
<path d="M2868 3743 c6 -2 18 -2 25 0 6 3 1 5 -13 5 -14 0 -19 -2 -12 -5z"/>
<path d="M2735 3730 c-8 -13 15 -13 35 0 12 8 11 10 -7 10 -12 0 -25 -4 -28
-10z"/>
<path d="M2923 3723 c9 -2 23 -2 30 0 6 3 -1 5 -18 5 -16 0 -22 -2 -12 -5z"/>
<path d="M2864 3689 c15 -9 16 -13 5 -20 -11 -7 -10 -9 4 -9 10 0 15 -5 12
-10 -4 -6 -16 -8 -28 -4 l-22 6 20 -20 c19 -19 21 -19 39 -2 18 18 18 19 0 44
-11 14 -26 25 -34 25 -11 0 -10 -2 4 -10z"/>
<path d="M2580 3670 c0 -5 7 -10 15 -10 8 0 15 5 15 10 0 6 -7 10 -15 10 -8 0
-15 -4 -15 -10z"/>
<path d="M2815 3670 c4 -6 11 -8 16 -5 14 9 11 15 -7 15 -8 0 -12 -5 -9 -10z"/>
<path d="M2931 3654 c13 -16 29 -19 29 -5 0 5 -9 11 -21 14 -16 4 -18 3 -8 -9z"/>
<path d="M2997 3659 c7 -7 15 -10 18 -7 3 3 -2 9 -12 12 -14 6 -15 5 -6 -5z"/>
<path d="M2635 3650 c-6 -10 24 -22 36 -14 6 3 16 0 24 -6 11 -9 15 -9 15 -1
0 6 -1 11 -3 11 -1 0 -17 4 -34 9 -18 5 -35 6 -38 1z"/>
<path d="M3033 3642 c1 -14 5 -18 11 -12 7 7 6 14 -1 21 -9 9 -12 7 -10 -9z"/>
<path d="M2570 3630 c0 -5 11 -10 25 -10 14 0 25 5 25 10 0 6 -11 10 -25 10
-14 0 -25 -4 -25 -10z"/>
<path d="M2782 3606 c-12 -27 -7 -36 19 -36 12 0 16 -5 13 -15 -4 -8 -1 -15 6
-15 6 0 8 -4 5 -10 -3 -5 2 -10 12 -10 10 0 31 -7 47 -15 32 -17 76 -20 76 -6
0 5 -8 18 -17 27 -17 17 -17 17 -1 11 10 -3 20 -2 23 3 4 6 14 6 28 -1 20 -9
20 -8 -2 9 -14 11 -19 21 -12 23 6 2 1 10 -11 18 -21 13 -22 13 -9 -2 11 -14
11 -17 0 -17 -11 0 -11 -2 1 -10 12 -8 9 -10 -13 -10 -17 0 -38 10 -54 26 -14
14 -28 23 -31 20 -3 -3 -11 3 -19 14 -19 27 -47 25 -61 -4z m45 8 c-3 -3 -12
-4 -19 -1 -8 3 -5 6 6 6 11 1 17 -2 13 -5z m81 -65 c14 0 13 -2 -3 -9 -28 -12
-37 -12 -29 2 4 7 3 8 -4 4 -22 -13 -37 6 -16 21 15 11 19 11 27 -2 4 -8 16
-15 25 -16z"/>
<path d="M2675 3610 c3 -5 11 -10 16 -10 6 0 7 5 4 10 -3 6 -11 10 -16 10 -6
0 -7 -4 -4 -10z"/>
<path d="M2720 3606 c0 -10 8 -16 22 -16 12 0 19 1 17 3 -2 1 -12 9 -21 16
-15 12 -18 11 -18 -3z"/>
<path d="M3176 3611 c-16 -3 -31 -12 -34 -20 -3 -10 0 -12 13 -7 10 3 24 1 31
-5 8 -6 15 -10 15 -8 2 5 7 49 5 48 0 -1 -14 -4 -30 -8z"/>
<path d="M2990 3596 c0 -3 9 -10 20 -16 11 -6 20 -8 20 -6 0 3 -9 10 -20 16
-11 6 -20 8 -20 6z"/>
<path d="M3000 3566 c0 -2 8 -10 18 -17 15 -13 16 -12 3 4 -13 16 -21 21 -21
13z"/>
<path d="M2770 3541 c0 -5 7 -12 16 -15 14 -5 15 -4 4 9 -14 17 -20 19 -20 6z"/>
<path d="M2978 3513 c7 -3 16 -2 19 1 4 3 -2 6 -13 5 -11 0 -14 -3 -6 -6z"/>
<path d="M2938 3463 c7 -3 16 -2 19 1 4 3 -2 6 -13 5 -11 0 -14 -3 -6 -6z"/>
<path d="M2926 3435 c-3 -9 0 -15 9 -15 8 0 15 7 15 15 0 8 -4 15 -9 15 -5 0
-11 -7 -15 -15z"/>
<path d="M1530 3370 c0 -5 5 -10 10 -10 6 0 10 5 10 10 0 6 -4 10 -10 10 -5 0
-10 -4 -10 -10z"/>
<path d="M2087 3349 c7 -7 15 -10 18 -7 3 3 -2 9 -12 12 -14 6 -15 5 -6 -5z"/>
<path d="M1865 3300 c3 -5 8 -10 11 -10 2 0 4 5 4 10 0 6 -5 10 -11 10 -5 0
-7 -4 -4 -10z"/>
<path d="M1605 3290 c3 -5 20 -10 36 -10 18 0 28 4 24 10 -3 6 -20 10 -36 10
-18 0 -28 -4 -24 -10z"/>
<path d="M1900 3280 c8 -5 22 -9 30 -9 10 0 8 3 -5 9 -27 12 -43 12 -25 0z"/>
<path d="M1761 3236 c24 -24 85 -56 107 -55 16 0 21 3 12 6 -8 4 -20 13 -26
21 -6 8 -16 12 -23 8 -6 -4 -18 0 -27 8 -8 9 -23 16 -31 16 -9 0 -14 -2 -12
-4z"/>
<path d="M2068 3223 c7 -3 16 -2 19 1 4 3 -2 6 -13 5 -11 0 -14 -3 -6 -6z"/>
<path d="M1800 3186 c0 -11 30 -39 36 -34 2 3 -5 13 -16 23 -11 10 -20 15 -20
11z"/>
<path d="M3470 3179 c0 -5 5 -7 10 -4 6 3 10 8 10 11 0 2 -4 4 -10 4 -5 0 -10
-5 -10 -11z"/>
<path d="M1760 3151 c0 -6 4 -13 10 -16 6 -3 7 1 4 9 -7 18 -14 21 -14 7z"/>
<path d="M1700 3136 c0 -4 7 -14 15 -22 8 -9 15 -11 15 -6 0 5 -7 15 -15 22
-8 7 -15 9 -15 6z"/>
<path d="M3460 3091 c0 -5 5 -13 10 -16 6 -3 10 -2 10 4 0 5 -4 13 -10 16 -5
3 -10 2 -10 -4z"/>
<path d="M2230 3074 c0 -8 -5 -12 -10 -9 -6 4 -23 -2 -38 -12 -15 -10 -36 -21
-47 -25 -17 -5 -17 -6 -2 -7 9 -1 17 -5 17 -10 0 -5 -8 -12 -17 -15 -10 -3 -6
-4 10 -2 15 2 30 -1 33 -5 3 -5 0 -9 -7 -9 -7 0 -10 -2 -7 -5 3 -3 16 -1 29 4
13 5 18 10 12 10 -7 1 -13 6 -13 11 0 13 49 7 58 -7 4 -5 23 -18 42 -27 l35
-18 -30 26 -30 27 39 -6 c33 -5 37 -3 26 9 -6 8 -8 21 -4 28 4 7 4 10 0 6 -4
-3 -22 0 -41 7 -18 8 -35 11 -39 8 -3 -4 -6 -1 -6 6 0 8 6 11 16 7 14 -5 15
-4 4 9 -16 19 -30 19 -30 -1z"/>
<path d="M2090 3070 c0 -5 5 -10 11 -10 5 0 7 5 4 10 -3 6 -8 10 -11 10 -2 0
-4 -4 -4 -10z"/>
<path d="M2061 3043 c7 -10 14 -20 16 -22 1 -1 7 0 12 4 13 7 -10 35 -30 35
-8 0 -8 -5 2 -17z"/>
<path d="M2387 3040 c9 -11 19 -17 21 -15 6 6 -18 35 -29 35 -5 0 -1 -9 8 -20z"/>
<path d="M3515 2990 c3 -5 8 -10 11 -10 2 0 4 5 4 10 0 6 -5 10 -11 10 -5 0
-7 -4 -4 -10z"/>
<path d="M2150 2950 c0 -15 21 -23 74 -25 28 -1 42 0 31 2 -11 3 -39 11 -62
18 -24 7 -43 9 -43 5z"/>
<path d="M2430 2950 c0 -5 7 -10 16 -10 8 0 12 5 9 10 -3 6 -10 10 -16 10 -5
0 -9 -4 -9 -10z"/>
<path d="M2280 2935 c14 -7 24 -17 22 -21 -2 -5 2 -10 10 -12 9 -2 8 0 -2 7
-8 6 -10 11 -5 11 6 0 1 7 -9 15 -11 8 -25 15 -30 15 -6 -1 0 -7 14 -15z"/>
<path d="M2202 2903 c-10 -4 -9 -10 4 -25 16 -16 16 -21 4 -28 -11 -7 -8 -10
12 -10 32 0 47 -19 25 -32 -9 -5 -14 -15 -10 -24 4 -11 8 -12 13 -4 8 13 67
17 95 6 12 -5 8 0 -8 11 -15 11 -24 23 -20 26 3 4 -1 7 -9 7 -9 0 -21 7 -28
15 -9 11 -10 15 -1 15 7 0 19 6 26 14 12 11 10 15 -11 25 -33 15 -39 14 -25
-3 16 -19 -13 -30 -41 -15 -17 9 -18 13 -7 20 15 9 2 11 -19 2z"/>
<path d="M2410 2880 c-12 -8 -10 -10 8 -10 13 0 20 4 17 10 -7 12 -6 12 -25 0z"/>
<path d="M2485 2860 c-3 -5 1 -10 10 -10 9 0 13 5 10 10 -3 6 -8 10 -10 10 -2
0 -7 -4 -10 -10z"/>
<path d="M2827 2714 c-3 -3 -3 -12 -1 -19 3 -7 -2 -15 -10 -18 -9 -4 -16 -2
-16 3 0 6 -9 10 -20 10 -31 0 -24 -17 11 -24 17 -3 47 -23 67 -44 38 -40 102
-78 102 -61 0 6 14 1 30 -11 39 -28 38 -18 -6 41 -43 58 -88 93 -114 86 -12
-3 -17 0 -14 8 5 13 -19 38 -29 29z"/>
<path d="M2690 2639 c0 -5 11 -9 25 -9 14 0 25 2 25 4 0 2 -11 6 -25 8 -14 3
-25 1 -25 -3z"/>
<path d="M2430 2615 c0 -2 10 -10 23 -16 20 -11 21 -11 8 4 -13 16 -31 23 -31
12z"/>
<path d="M2720 2606 c0 -9 7 -12 20 -9 11 3 17 9 14 14 -8 14 -34 10 -34 -5z"/>
<path d="M2555 2599 c-16 -5 -41 -6 -55 -2 -20 4 -15 -2 22 -31 53 -40 58 -42
58 -21 0 9 -10 19 -22 24 -18 7 -19 9 -5 14 10 4 29 2 43 -3 33 -13 54 -13 54
1 0 6 -8 8 -19 4 -10 -3 -25 0 -32 8 -10 9 -23 11 -44 6z"/>
<path d="M2951 2524 c0 -11 3 -14 6 -6 3 7 2 16 -1 19 -3 4 -6 -2 -5 -13z"/>
<path d="M2653 2522 c-7 -4 -9 -13 -4 -21 6 -10 10 -9 15 5 8 20 4 25 -11 16z"/>
<path d="M2891 2494 c-7 -8 -11 -17 -10 -18 8 -7 49 14 49 24 0 15 -23 12 -39
-6z"/>
<path d="M2977 2497 c-3 -9 2 -17 14 -20 12 -3 19 -14 19 -28 0 -31 7 -21 13
19 4 25 2 32 -8 29 -7 -3 -17 -1 -22 4 -7 7 -12 5 -16 -4z"/>
<path d="M2850 2479 c7 -11 14 -18 17 -15 8 8 -5 36 -17 36 -7 0 -7 -6 0 -21z"/>
<path d="M3063 2485 c-3 -9 -3 -18 -1 -21 3 -3 8 4 11 16 6 23 -1 27 -10 5z"/>
<path d="M2810 2475 c0 -8 5 -15 10 -15 6 0 10 7 10 15 0 8 -4 15 -10 15 -5 0
-10 -7 -10 -15z"/>
<path d="M2920 2470 c0 -5 5 -10 10 -10 6 0 10 5 10 10 0 6 -4 10 -10 10 -5 0
-10 -4 -10 -10z"/>
<path d="M3087 2316 c-4 -10 -1 -13 8 -9 8 3 12 9 9 14 -7 12 -11 11 -17 -5z"/>
<path d="M3041 2274 c0 -11 3 -14 6 -6 3 7 2 16 -1 19 -3 4 -6 -2 -5 -13z"/>
<path d="M3200 2231 c0 -7 -6 -11 -15 -7 -21 8 -19 -11 2 -23 17 -9 16 -11 -5
-33 -12 -14 -22 -35 -22 -48 0 -19 -3 -21 -12 -12 -19 19 -30 14 -26 -10 2
-17 -1 -22 -14 -20 -21 3 -22 -2 -7 -30 10 -19 12 -19 30 11 10 17 25 31 33
31 12 0 22 18 40 74 5 14 12 17 32 12 23 -6 25 -5 18 16 -6 20 -5 21 10 9 22
-19 29 -9 11 15 -11 15 -17 17 -32 8 -14 -9 -21 -8 -30 5 -9 12 -12 13 -13 2z"/>
<path d="M3140 2190 c0 -5 7 -10 15 -10 8 0 15 5 15 10 0 6 -7 10 -15 10 -8 0
-15 -4 -15 -10z"/>
<path d="M3315 2180 c3 -5 8 -10 11 -10 2 0 4 5 4 10 0 6 -5 10 -11 10 -5 0
-7 -4 -4 -10z"/>
<path d="M3135 2160 c4 -6 11 -8 16 -5 14 9 11 15 -7 15 -8 0 -12 -5 -9 -10z"/>
<path d="M3595 2160 c3 -5 8 -10 11 -10 2 0 4 5 4 10 0 6 -5 10 -11 10 -5 0
-7 -4 -4 -10z"/>
<path d="M3230 2110 c0 -5 4 -10 9 -10 6 0 13 5 16 10 3 6 -1 10 -9 10 -9 0
-16 -4 -16 -10z"/>
<path d="M3190 2051 c0 -11 -5 -23 -11 -27 -6 -4 -8 -20 -5 -39 6 -31 5 -33
-16 -28 -23 5 -23 4 2 -16 24 -20 24 -21 4 -21 -12 0 -25 -7 -28 -16 -6 -15
-8 -15 -26 1 -12 10 -20 13 -20 7 0 -7 6 -12 13 -12 6 0 1 -9 -13 -20 -14 -11
-19 -20 -12 -20 7 0 10 -5 6 -11 -3 -6 -17 -8 -30 -5 -19 5 -24 2 -24 -13 0
-11 -5 -21 -12 -23 -6 -2 -11 -21 -10 -41 1 -20 -3 -37 -8 -37 -6 0 -10 5 -10
10 0 6 -4 10 -10 10 -5 0 -10 -7 -10 -15 0 -8 5 -15 10 -15 6 0 10 -11 10 -25
0 -14 -4 -25 -9 -25 -12 0 -25 82 -19 115 7 32 -1 31 -32 -2 -23 -24 -23 -25
-4 -19 20 6 21 3 19 -43 -2 -35 1 -51 11 -55 8 -3 19 -17 24 -31 7 -18 17 -25
35 -25 14 0 25 4 25 9 0 5 18 12 39 16 25 4 42 13 44 23 3 10 5 5 6 -10 1 -21
-4 -28 -18 -28 -45 0 -32 -34 14 -37 16 -1 31 -6 33 -12 2 -6 11 -11 20 -11
15 1 15 2 0 11 -22 12 -24 39 -3 39 8 0 15 4 15 10 0 5 8 6 17 3 12 -5 15 -2
10 10 -5 14 0 17 23 17 40 0 38 -13 -5 -36 -34 -18 -36 -22 -32 -61 4 -48 14
-64 27 -43 5 8 19 15 32 15 15 0 24 7 26 20 2 18 2 19 -8 2 -6 -9 -16 -15 -21
-11 -6 4 -4 13 7 25 9 10 14 19 10 19 -4 0 0 7 8 16 9 8 14 20 11 25 -4 5 -1
9 4 9 6 0 11 -4 11 -10 0 -5 8 -10 18 -10 15 0 15 -2 2 -10 -13 -9 -12 -13 8
-29 12 -11 22 -23 21 -28 -4 -20 2 -24 18 -12 15 13 16 12 11 -8 -5 -18 -2
-23 12 -23 15 0 18 -6 15 -28 -2 -16 1 -35 6 -43 7 -12 9 -12 10 1 1 8 1 18 0
23 0 4 3 7 8 7 14 0 20 37 8 49 -6 6 -8 11 -4 11 4 0 3 10 -3 23 -11 21 -10
21 4 3 16 -20 16 -19 36 2 24 25 18 46 -11 37 -13 -4 -19 -2 -19 9 0 9 -7 16
-16 16 -8 0 -13 4 -10 9 3 5 -8 14 -24 20 -17 5 -30 17 -30 26 0 9 -4 14 -9
10 -5 -3 -12 -1 -15 4 -4 5 2 12 11 14 17 4 17 5 1 6 -21 1 -22 10 -5 31 14
17 57 25 57 10 0 -6 -4 -10 -10 -10 -5 0 -10 -7 -10 -15 0 -8 6 -15 14 -15 7
0 19 -7 26 -15 7 -8 16 -13 20 -10 5 3 12 0 15 -6 4 -6 18 -8 30 -5 14 4 29 0
39 -9 20 -20 26 -19 26 6 0 15 -5 19 -15 15 -8 -3 -15 -1 -15 3 0 5 -9 7 -20
4 -13 -3 -22 1 -26 11 -9 22 5 34 17 16 8 -13 10 -13 19 0 7 11 10 11 10 2 0
-7 5 -10 11 -7 6 4 8 13 5 21 -3 8 1 14 9 14 19 0 19 34 0 50 -8 7 -22 10 -30
6 -11 -4 -15 2 -15 22 0 16 -5 33 -12 40 -8 8 -8 15 1 26 9 11 9 16 0 22 -7 4
-15 2 -17 -4 -2 -7 -10 -12 -17 -12 -17 0 -37 -34 -27 -45 4 -5 1 -5 -6 -1 -9
5 -11 17 -8 32 8 30 -12 32 -23 2 -8 -21 -8 -21 -16 3 l-8 24 -4 -26 c-3 -21
-9 -26 -24 -22 -21 6 -26 23 -6 23 8 0 7 3 -3 10 -9 6 -18 6 -24 0 -6 -6 -13
-10 -17 -10 -8 0 -22 40 -19 54 0 6 -1 20 -5 33 -4 18 -12 23 -28 21 -19 -3
-22 1 -19 29 2 24 -2 34 -17 43 -18 9 -21 8 -21 -9z m15 -61 c3 -5 -1 -10 -10
-10 -9 0 -13 5 -10 10 3 6 8 10 10 10 2 0 7 -4 10 -10z m55 -34 c0 -3 -4 -8
-10 -11 -5 -3 -10 -1 -10 4 0 6 5 11 10 11 6 0 10 -2 10 -4z m20 -72 c0 -8 -5
-12 -10 -9 -6 4 -8 11 -5 16 9 14 15 11 15 -7z m-160 -44 c0 -5 -4 -10 -10
-10 -5 0 -10 5 -10 10 0 6 5 10 10 10 6 0 10 -4 10 -10z m338 -20 c-15 -24
-19 -21 -11 8 3 12 9 19 14 16 5 -3 3 -14 -3 -24z m-398 -10 c0 -5 -4 -10 -10
-10 -5 0 -10 5 -10 10 0 6 5 10 10 10 6 0 10 -4 10 -10z m420 -20 c0 -5 -4
-10 -10 -10 -5 0 -10 5 -10 10 0 6 5 10 10 10 6 0 10 -4 10 -10z m-435 -10 c3
-5 1 -10 -4 -10 -6 0 -11 5 -11 10 0 6 2 10 4 10 3 0 8 -4 11 -10z m42 -16
c-3 -3 -12 -4 -19 -1 -8 3 -5 6 6 6 11 1 17 -2 13 -5z m-42 -15 c-4 -6 1 -17
11 -25 18 -14 18 -15 -3 -9 -19 5 -23 2 -23 -17 0 -18 2 -20 10 -8 5 8 10 12
11 8 1 -5 2 -11 3 -15 1 -5 5 -14 10 -21 10 -17 6 -21 -25 -24 -22 -3 -24 1
-27 40 -2 23 1 42 6 42 5 0 12 9 15 20 3 11 8 20 12 20 3 0 3 -5 0 -11z m415
-15 c0 -2 -7 -4 -15 -4 -8 0 -15 4 -15 10 0 5 7 7 15 4 8 -4 15 -8 15 -10z
m40 6 c0 -5 -4 -10 -10 -10 -5 0 -10 5 -10 10 0 6 5 10 10 10 6 0 10 -4 10
-10z m-263 -27 c-9 -9 -20 -13 -24 -9 -4 4 -1 11 7 16 25 16 35 11 17 -7z m69
-31 c-10 -11 -16 -12 -16 -4 0 7 5 12 10 12 6 0 10 8 11 18 0 11 2 13 6 4 3
-8 -2 -21 -11 -30z m-118 -3 c-10 -5 -18 -17 -18 -26 0 -9 -3 -14 -6 -10 -11
11 7 47 24 47 16 -1 15 -2 0 -11z m179 -86 c-3 -10 -5 -4 -5 12 0 17 2 24 5
18 2 -7 2 -21 0 -30z m-137 -23 c0 -5 -4 -10 -10 -10 -5 0 -10 5 -10 10 0 6 5
10 10 10 6 0 10 -4 10 -10z"/>
<path d="M3590 2059 c0 -5 5 -7 10 -4 6 3 10 8 10 11 0 2 -4 4 -10 4 -5 0 -10
-5 -10 -11z"/>
<path d="M3545 2040 c3 -5 10 -10 16 -10 5 0 9 5 9 10 0 6 -7 10 -16 10 -8 0
-12 -4 -9 -10z"/>
<path d="M3470 2025 c0 -8 7 -15 15 -15 8 0 15 4 15 9 0 5 -7 11 -15 15 -9 3
-15 0 -15 -9z"/>
<path d="M2826 1991 c-4 -7 -5 -15 -2 -18 9 -9 19 4 14 18 -4 11 -6 11 -12 0z"/>
<path d="M3514 1986 c-3 -8 -1 -22 4 -32 7 -13 9 -10 8 15 -1 34 -4 38 -12 17z"/>
<path d="M3410 1969 c0 -6 -7 -17 -15 -25 -8 -9 -15 -20 -15 -25 0 -5 7 -9 15
-9 8 0 15 7 15 15 0 25 17 17 24 -11 6 -21 9 -24 21 -14 19 16 19 34 1 27 -10
-4 -17 4 -21 24 -6 27 -25 41 -25 18z"/>
<path d="M2882 1961 c2 -7 7 -12 11 -12 12 1 9 15 -3 20 -7 2 -11 -2 -8 -8z"/>
<path d="M2961 1934 c0 -11 3 -14 6 -6 3 7 2 16 -1 19 -3 4 -6 -2 -5 -13z"/>
<path d="M3290 1935 c-10 -13 -9 -15 9 -15 11 0 21 4 21 9 0 18 -18 21 -30 6z"/>
<path d="M3657 1941 c-17 -6 -18 -8 -3 -20 18 -15 29 -10 24 12 -2 9 -9 12
-21 8z"/>
<path d="M3710 1935 c0 -8 4 -15 10 -15 5 0 7 7 4 15 -4 8 -8 15 -10 15 -2 0
-4 -7 -4 -15z"/>
<path d="M2925 1929 c-11 -17 1 -21 15 -4 8 9 8 15 2 15 -6 0 -14 -5 -17 -11z"/>
<path d="M3540 1898 c0 -23 2 -39 5 -37 9 10 13 79 4 79 -5 0 -9 -19 -9 -42z"/>
<path d="M3580 1930 c-8 -5 -12 -12 -9 -15 4 -3 12 1 19 10 14 17 11 19 -10 5z"/>
<path d="M2870 1860 c-7 -17 -10 -33 -6 -37 3 -3 6 -1 6 6 0 6 12 23 28 36 25
23 26 24 6 25 -15 0 -26 -10 -34 -30z"/>
<path d="M3570 1876 c0 -8 7 -17 16 -20 23 -9 34 -7 34 5 0 6 -7 9 -15 5 -9
-3 -15 0 -15 9 0 8 -4 15 -10 15 -5 0 -10 -6 -10 -14z"/>
<path d="M3660 1880 c0 -5 5 -10 10 -10 6 0 10 5 10 10 0 6 -4 10 -10 10 -5 0
-10 -4 -10 -10z"/>
<path d="M3765 1829 c0 -16 6 -31 13 -34 9 -3 11 1 7 14 -4 14 -1 20 11 23 14
2 13 5 -7 14 -23 11 -25 10 -24 -17z"/>
<path d="M3520 1826 c0 -15 38 -29 52 -19 5 3 -3 11 -17 19 -34 17 -35 17 -35
0z"/>
<path d="M2882 1821 c2 -7 7 -12 11 -12 12 1 9 15 -3 20 -7 2 -11 -2 -8 -8z"/>
<path d="M3674 1758 c4 -16 2 -28 -4 -28 -5 0 -9 -11 -8 -25 3 -33 38 -35 37
-2 0 21 -1 21 -10 2 -7 -15 -8 -12 -4 15 2 19 0 42 -6 50 -8 12 -9 9 -5 -12z"/>
<path d="M3638 1764 c-5 -4 -8 -16 -8 -28 0 -14 3 -17 11 -9 6 6 9 19 7 28 -1
9 -6 13 -10 9z"/>
<path d="M3565 1710 c3 -5 8 -10 11 -10 2 0 4 5 4 10 0 6 -5 10 -11 10 -5 0
-7 -4 -4 -10z"/>
<path d="M3620 1694 c0 -8 5 -12 10 -9 6 3 10 10 10 16 0 5 -4 9 -10 9 -5 0
-10 -7 -10 -16z"/>
<path d="M3581 1674 c0 -11 3 -14 6 -6 3 7 2 16 -1 19 -3 4 -6 -2 -5 -13z"/>
<path d="M3701 1634 c13 -14 25 -20 27 -14 2 6 -4 18 -14 25 -31 24 -39 17
-13 -11z"/>
<path d="M3914 1601 c1 -20 36 -23 36 -4 0 12 -3 13 -14 4 -11 -9 -15 -9 -19
1 -3 9 -4 9 -3 -1z"/>
<path d="M2947 1563 c-12 -11 -8 -23 8 -23 8 0 15 7 15 15 0 16 -12 20 -23 8z"/>
<path d="M3885 1549 c-4 -11 -4 -23 -1 -26 3 -4 6 2 6 13 0 16 2 17 10 4 8
-12 10 -11 10 8 0 28 -16 29 -25 1z"/>
<path d="M3920 1515 c0 -8 2 -15 4 -15 2 0 6 7 10 15 3 8 1 15 -4 15 -6 0 -10
-7 -10 -15z"/>
<path d="M3330 1500 c-8 -5 -23 -7 -32 -4 -12 4 -18 0 -18 -11 0 -12 6 -14 27
-9 22 6 25 4 20 -10 -10 -26 9 -19 21 9 12 27 4 39 -18 25z"/>
<path d="M3550 1499 c0 -5 -4 -7 -10 -4 -6 4 -10 -5 -10 -19 0 -14 4 -26 9
-26 5 0 17 -3 26 -7 15 -5 16 -3 6 15 -7 14 -8 22 -2 22 6 0 8 7 5 15 -7 17
-24 20 -24 4z"/>
<path d="M3676 1483 c9 -38 14 -42 14 -10 0 14 -5 29 -10 32 -7 4 -8 -3 -4
-22z"/>
<path d="M3482 1488 c-7 -7 -12 -18 -12 -25 0 -7 -5 -13 -12 -13 -6 0 -3 -8 7
-20 21 -23 35 -18 35 15 0 13 5 27 10 30 11 7 4 25 -9 25 -4 0 -12 -5 -19 -12z"/>
<path d="M3701 1484 c0 -11 3 -14 6 -6 3 7 2 16 -1 19 -3 4 -6 -2 -5 -13z"/>
<path d="M3895 1490 c-3 -5 -1 -10 4 -10 6 0 11 5 11 10 0 6 -2 10 -4 10 -3 0
-8 -4 -11 -10z"/>
<path d="M3648 1439 c5 -11 12 -21 17 -21 6 -1 16 -14 23 -31 16 -39 15 -46
-5 -22 l-16 20 8 -20 c16 -43 17 -56 6 -69 -7 -8 -8 -17 -3 -20 14 -8 22 4 22
36 0 19 4 27 11 22 6 -3 9 -19 5 -34 -4 -24 -2 -27 14 -23 21 6 25 37 11 98
-7 29 -7 29 -13 6 -9 -32 -31 -16 -26 20 3 15 1 26 -4 23 -4 -3 -15 4 -25 16
-22 26 -34 26 -25 -1z"/>
<path d="M3295 1440 c-3 -5 -1 -10 4 -10 6 0 11 5 11 10 0 6 -2 10 -4 10 -3 0
-8 -4 -11 -10z"/>
<path d="M3740 1433 c0 -13 5 -23 11 -23 7 0 9 -11 5 -30 -3 -19 -2 -29 4 -25
14 9 12 46 -5 75 -14 25 -14 25 -15 3z"/>
<path d="M3520 1425 c0 -8 2 -15 4 -15 2 0 12 -3 20 -6 12 -4 15 -2 10 9 -8
21 -34 30 -34 12z"/>
<path d="M3377 1413 c-11 -11 -8 -20 7 -20 8 0 12 6 9 14 -6 15 -7 15 -16 6z"/>
<path d="M3230 1400 c0 -5 5 -10 10 -10 6 0 10 5 10 10 0 6 -4 10 -10 10 -5 0
-10 -4 -10 -10z"/>
<path d="M3410 1399 c0 -5 5 -7 10 -4 6 3 10 8 10 11 0 2 -4 4 -10 4 -5 0 -10
-5 -10 -11z"/>
<path d="M3510 1378 c0 -19 2 -20 10 -8 8 13 10 12 10 -2 0 -21 7 -22 39 -4
18 10 20 15 10 21 -7 5 -14 4 -17 -3 -2 -8 -8 -7 -19 3 -21 21 -33 19 -33 -7z"/>
<path d="M3620 1383 c0 -13 5 -23 10 -23 13 0 13 11 0 30 -8 12 -10 11 -10 -7z"/>
<path d="M3397 1366 c-3 -8 -3 -17 1 -21 4 -4 7 -12 7 -18 0 -7 9 -13 20 -14
l20 -3 -20 9 c-17 8 -17 10 -3 10 14 1 16 6 9 23 -10 27 -27 34 -34 14z"/>
<path d="M3287 1354 c-3 -3 -3 -13 0 -22 4 -10 2 -13 -5 -8 -7 4 -12 2 -12 -3
0 -6 5 -11 11 -11 8 0 7 -6 -2 -17 -8 -9 -9 -14 -3 -10 7 4 15 0 18 -9 4 -9 9
-14 13 -11 3 4 0 14 -8 24 -12 15 -12 16 6 10 17 -6 18 -5 5 5 -9 7 -15 23
-14 36 1 24 1 25 -9 16z"/>
<path d="M3470 1336 c0 -9 5 -16 10 -16 6 0 10 4 10 9 0 6 -4 13 -10 16 -5 3
-10 -1 -10 -9z"/>
<path d="M3560 1325 c0 -13 9 -39 20 -57 12 -21 17 -41 13 -58 -11 -48 7 -13
21 39 10 40 11 53 1 61 -9 8 -14 6 -18 -4 -3 -8 -1 -17 6 -19 7 -2 9 -8 5 -12
-4 -4 -14 -2 -22 4 -11 9 -12 19 -6 36 9 23 5 35 -12 35 -4 0 -8 -11 -8 -25z"/>
<path d="M3645 1310 c-3 -5 -1 -10 4 -10 6 0 11 5 11 10 0 6 -2 10 -4 10 -3 0
-8 -4 -11 -10z"/>
<path d="M3493 1302 c-16 -2 -23 -10 -23 -27 0 -13 4 -26 10 -30 5 -3 7 -12 4
-19 -7 -19 15 -31 29 -17 9 9 8 11 -5 6 -11 -4 -18 -2 -18 4 0 6 5 11 10 11 6
0 10 7 10 15 0 8 5 15 10 15 6 0 10 5 10 11 0 5 -4 7 -10 4 -5 -3 -10 -1 -10
5 0 7 7 10 15 6 8 -3 15 -1 15 3 0 12 -20 18 -47 13z m3 -39 c-10 -10 -19 5
-10 18 6 11 8 11 12 0 2 -7 1 -15 -2 -18z"/>
<path d="M3790 1281 c0 -25 6 -27 13 -6 4 8 2 17 -3 20 -6 4 -10 -3 -10 -14z"/>
<path d="M3635 1281 c3 -5 1 -12 -5 -16 -5 -3 -10 -21 -10 -40 0 -22 -6 -38
-17 -44 -11 -7 -13 -11 -5 -11 9 0 11 -7 7 -22 -5 -17 -4 -19 3 -9 9 12 13 11
28 -4 17 -17 17 -18 -1 -31 -10 -8 -13 -14 -6 -14 6 0 21 9 33 20 l21 19 -26
12 c-22 10 -25 17 -23 48 2 20 7 51 11 69 5 22 4 32 -4 32 -7 0 -10 -4 -6 -9z"/>
<path d="M3536 1264 c-9 -22 3 -32 14 -14 8 13 10 13 10 1 0 -8 2 -12 5 -9 7
7 -5 38 -15 38 -4 0 -11 -7 -14 -16z"/>
<path d="M3658 1228 c-3 -20 0 -38 8 -46 8 -7 14 -19 15 -25 0 -7 4 -3 9 8 l9
20 1 -20 c1 -18 2 -17 11 4 11 27 8 31 -18 35 -10 2 -19 11 -21 22 -3 16 -1
17 8 4 9 -13 11 -12 8 4 -5 33 -25 29 -30 -6z"/>
<path d="M3840 1251 c0 -7 -4 -9 -10 -6 -5 3 -10 2 -10 -4 0 -5 4 -12 9 -15
10 -6 25 24 16 32 -3 3 -5 0 -5 -7z"/>
<path d="M3780 1240 c0 -5 5 -10 10 -10 6 0 10 5 10 10 0 6 -4 10 -10 10 -5 0
-10 -4 -10 -10z"/>
<path d="M3700 1231 c0 -5 7 -11 14 -14 10 -4 13 -1 9 9 -6 15 -23 19 -23 5z"/>
<path d="M3533 1205 c0 -8 4 -15 9 -15 4 0 8 4 8 9 0 6 -4 12 -8 15 -5 3 -9
-1 -9 -9z"/>
<path d="M3560 1201 c0 -5 5 -13 10 -16 6 -3 10 -2 10 4 0 5 -4 13 -10 16 -5
3 -10 2 -10 -4z"/>
<path d="M3820 1200 c0 -5 5 -10 11 -10 5 0 7 5 4 10 -3 6 -8 10 -11 10 -2 0
-4 -4 -4 -10z"/>
<path d="M3375 1160 c-3 -5 -1 -10 4 -10 6 0 11 5 11 10 0 6 -2 10 -4 10 -3 0
-8 -4 -11 -10z"/>
<path d="M3536 1155 c-3 -8 -1 -15 3 -15 5 0 11 7 15 15 3 8 1 15 -3 15 -5 0
-11 -7 -15 -15z"/>
<path d="M3565 1150 c-3 -5 -1 -10 4 -10 6 0 11 5 11 10 0 6 -2 10 -4 10 -3 0
-8 -4 -11 -10z"/>
<path d="M3751 1148 c-1 -10 -8 -18 -16 -18 -9 0 -19 -17 -26 -45 -6 -25 -16
-45 -22 -45 -6 0 -7 -3 -3 -7 4 -4 16 3 26 17 10 14 22 21 27 17 4 -5 1 -12
-7 -17 -8 -6 -10 -10 -5 -10 6 0 15 4 21 10 7 7 10 2 9 -15 0 -13 -7 -30 -15
-37 -12 -11 -12 -11 -1 5 15 20 2 23 -18 5 -11 -11 -13 -10 -7 0 5 8 1 11 -13
9 -11 -2 -23 -6 -26 -9 -6 -6 54 -32 68 -29 4 0 7 -6 7 -15 0 -8 5 -12 10 -9
8 5 8 11 0 20 -8 9 -8 15 0 20 5 3 10 15 10 26 0 13 4 18 12 13 6 -4 8 -3 4 4
-3 6 4 20 16 31 18 18 19 21 5 21 -9 0 -17 7 -17 15 0 23 -26 18 -38 -7 -10
-22 -11 -22 -11 -2 -1 11 4 25 10 31 6 6 9 17 6 25 -4 9 -6 7 -6 -4z"/>
<path d="M3865 1150 c-3 -5 -1 -10 4 -10 6 0 11 5 11 10 0 6 -2 10 -4 10 -3 0
-8 -4 -11 -10z"/>
<path d="M3695 1130 c3 -5 8 -10 11 -10 2 0 4 5 4 10 0 6 -5 10 -11 10 -5 0
-7 -4 -4 -10z"/>
<path d="M3525 1116 l-30 -13 33 0 c20 0 32 5 32 14 0 7 -1 13 -2 13 -2 -1
-16 -7 -33 -14z"/>
<path d="M3581 1124 c0 -5 4 -18 8 -28 6 -17 8 -17 14 -3 3 8 -1 21 -9 27 -8
7 -14 9 -13 4z"/>
<path d="M3854 1117 c3 -10 -1 -28 -9 -40 -8 -12 -15 -29 -15 -39 0 -10 -4
-18 -10 -18 -5 0 -10 -5 -10 -11 0 -20 20 2 36 39 8 20 20 40 27 44 9 5 7 12
-7 25 -18 17 -19 17 -12 0z"/>
<path d="M3370 1100 c0 -5 5 -10 10 -10 6 0 10 5 10 10 0 6 -4 10 -10 10 -5 0
-10 -4 -10 -10z"/>
<path d="M3672 1085 c-15 -33 -15 -35 3 -35 8 0 15 6 15 14 0 8 3 21 6 30 10
27 -12 18 -24 -9z"/>
<path d="M3397 1083 c-4 -3 -7 -13 -7 -22 1 -13 3 -13 11 2 11 19 8 33 -4 20z"/>
<path d="M3551 1064 c0 -11 3 -14 6 -6 3 7 2 16 -1 19 -3 4 -6 -2 -5 -13z"/>
<path d="M3338 1063 c7 -3 16 -2 19 1 4 3 -2 6 -13 5 -11 0 -14 -3 -6 -6z"/>
<path d="M3630 1060 c0 -5 5 -10 11 -10 5 0 7 5 4 10 -3 6 -8 10 -11 10 -2 0
-4 -4 -4 -10z"/>
<path d="M3280 1049 c0 -5 5 -7 10 -4 6 3 10 8 10 11 0 2 -4 4 -10 4 -5 0 -10
-5 -10 -11z"/>
<path d="M3587 1043 c-12 -12 -7 -19 15 -20 16 -2 19 0 9 6 -11 7 -11 9 0 14
11 4 10 6 -2 6 -9 1 -19 -2 -22 -6z"/>
<path d="M3650 1029 c0 -5 5 -7 10 -4 6 3 10 8 10 11 0 2 -4 4 -10 4 -5 0 -10
-5 -10 -11z"/>
<path d="M3236 1008 c-3 -13 -1 -27 4 -32 7 -7 10 1 10 22 0 37 -5 41 -14 10z"/>
<path d="M3486 1015 c4 -8 8 -15 10 -15 2 0 4 7 4 15 0 8 -4 15 -10 15 -5 0
-7 -7 -4 -15z"/>
<path d="M3520 1015 c-7 -9 -8 -15 -2 -15 5 0 12 7 16 15 3 8 4 15 2 15 -2 0
-9 -7 -16 -15z"/>
<path d="M3435 1010 c-3 -5 -1 -10 4 -10 6 0 11 5 11 10 0 6 -2 10 -4 10 -3 0
-8 -4 -11 -10z"/>
<path d="M3265 989 c-4 -6 -5 -12 -2 -15 2 -3 7 2 10 11 7 17 1 20 -8 4z"/>
<path d="M3786 954 c-4 -9 -4 -19 -1 -22 2 -3 7 3 11 12 4 9 4 19 1 22 -2 3
-7 -3 -11 -12z"/>
<path d="M3700 951 c0 -5 5 -13 10 -16 6 -3 10 -2 10 4 0 5 -4 13 -10 16 -5 3
-10 2 -10 -4z"/>
<path d="M3780 844 c0 -9 5 -14 12 -12 18 6 21 28 4 28 -9 0 -16 -7 -16 -16z"/>
<path d="M3650 824 c0 -8 5 -12 10 -9 6 3 10 10 10 16 0 5 -4 9 -10 9 -5 0
-10 -7 -10 -16z"/>
</g>
</svg>
