<?xml version="1.0" standalone="yes"?>
<svg xmlns="http://www.w3.org/2000/svg" width="666" height="375">
<path style="fill:#040404; stroke:none;" d="M0 0L0 375L666 375L666 0L0 0z"/>
<path style="fill:#373627; stroke:none;" d="M313 23L314 24L313 23M315 23L316 24L315 23M294 25L294 26L308 25L294 25z"/>
<path style="fill:#5f5c3e; stroke:none;" d="M272 30L272 31L275 31L275 32L270 33L270 34L281 33L281 34L277 36L274 35L273 46L276 50L281 51C280.477 53.5401 280.405 53.6855 283 54L281 58L284 53L287 53L287 62L280 62L276 65L276 66L280 65L286 69L282 72L282 73L282 74L286 77L285 79L295 86L291 85L284 90L284 91L292 87L293 87L295 89L296 86L303 88L306 95L311 97L307 97L309 101L300 97L295 98L295 99C299.53 100.855 300.613 103.478 302 108L306 108L306 113L311 116L308 116L308 117L315 123C314.862 128.192 318.44 134.425 323 137L328 161L306 143L309 148C307.416 151.126 308.813 152.392 311 155L305 157L309 165L304 164L305 168L298 168L318 181L308 179L318 192C304.542 185.696 298.494 176.357 283 175L283 176C289.704 178.035 297.549 179.302 302 185L300 187L282 188L283 193L282 193L282 190L279 191L278 188L276 188L274 193L267 192L267 196L274 197L274 198L257 191C255.157 187.753 248.68 182.863 248 189L242 188L241 191C234.025 187.329 222.725 188.615 222 198L213 194C220.811 191.908 225.213 188.673 224 180L217 178L209 182L201 193L200 193C196.934 182.925 186.543 184.625 186 172L182 172L183 167L185 161L185 160C181.473 157.778 179.225 157.077 177 161L172 161L171 156C168.377 158.316 167.221 159.812 169 163C147.032 175.385 181.276 200.7 184 212L188 211L188 218L180 211L173 213L172 221L175 217L189 226L197 229L195 235L189 236L190 239L192 239L202 229L208 235L214 235L211 239L214 238L211 252L205 249C207.349 254.643 211.652 260.922 217 264C217.397 272.874 229.197 274.971 234 281L229 281L229 282L241 288L231 284L233 289L220 283L232 293L228 291L232 296L232 297L232 298L230 301L245 313L245 314C232.591 318.077 224.732 304.864 215 300L215 301L230 316L226 318L224 317L223 314L217 313L217 315L198 301L187 293C194.363 303.451 205.449 310.114 215 318.174C222.171 324.225 229.393 331.498 239 332.83C246.141 333.821 263.593 343.808 263 330L266 331C268.986 327.019 279.171 330.797 284 331L273 322L283 326L279 322L280 317L268 315L268 314L270 313L265 310L265 309C269.767 310.261 274.713 312.69 277 307L267 292L272 293L274 274L283 274L279 262C280.273 257.106 280.819 252.306 287 253L287 249L292 248L292 243L286 242L286 236C293.97 237.346 296.844 229.343 303.039 226.066C307.001 223.971 311.906 226.25 316 227L315 230C318.866 231.218 333.407 229.755 334 227L340 227L340 220L345 221L339 218L346 211L347 211L348 218L349 218L359 205L359 204L356 200L359 199L359 195C356.382 193.136 349.223 189.953 353 187L352 190C361.522 188.116 374.253 179.935 366 169L369 168L376 173L367 157L369 158L369 157L362 155L362 153L365 151L364 150L358 150C362.114 143.692 356.978 137.539 350 138L347 136L344 126L349 125L349 128L352 129L355 137L360 136L361 133L351 122L347 122L347 121L349 119L342 121L339 118L345 117L346 116L345 111L349 104L342 100L347 99L346 96L343 97L343 96L346 92L350 94L348 97L348 98L353 100L354 91L354 85C351.262 85 351.286 83.3502 354 83L354 82L344 78L349 73L347 70C354.415 70.0876 357.248 73.8405 364 69L364 65C361.309 65 361.569 63.9321 363 62L363 61C360.995 57.2524 361.791 55.6946 366 55C368.858 50.0809 374.161 52.6149 379 53L375 48C376.047 41.4239 369.937 37.2289 365 34L364 34L362 37L368 40L364 43L355 33L357 34C353.144 27.1865 343.078 26.7044 336 25.5903C314.368 22.1853 293.275 25.8743 272 30z"/>
<path style="fill:#373627; stroke:none;" d="M327 24L327 25C336.556 25.0791 350.576 26.1603 357 34L355 33L355 34L364 43L368 40L366 38L362 37L364 34L365 34C369.462 38.103 374.905 41.2964 375 48L379 53C374.33 52.3969 367.91 49.3012 366 55C361.579 55.3528 359.546 57.4 363 61L363 62C361.449 63.8584 361.432 65.015 364 65L364 69L347 70L349 73L346 73L344 78L354 82L354 83L351 83L354 85L354 91L353 100L348 98L348 97L350 94L346 92L343 96L343 97L347 99L342 100L349 104L345 111L346 116L345 117L339 118L342 121L349 119L347 121L347 122L351 122L361 133L360 136L355 137L352 129L349 125L344 126L347 136L350 138C356.821 138.878 360.77 143.289 358 150L364 150L365 151L362 153L362 155L369 157L369 158L367 157L367 158L376 173L369 168L368 168L366 169C371.523 180.824 362.495 187.161 352 190L353 187L350 188L359 195L357 197L359 199L356 200L359 204L359 205C354.054 206.615 350.536 213.198 349 218L348 218L347 211L346 211L339 218L345 221L340 220L340 227L334 227L315 230L316 227L303.039 225.408L286 236L286 242L292 243L292 248L287 249L287 253C280.565 251.657 279.531 256.631 279 262L283 274L274 274L272 293L267 292L277 307C273.858 312.105 270.037 309.852 265 309L265 310L268 314L268 315L280 317L279 322L283 326L273 322L284 331C279.659 330.599 267.069 326.039 266 331L263 330C262.803 340.89 250.526 336.249 244 333.755C237.37 331.22 232.149 330.757 226 326.431C216.073 319.446 206.856 308.169 196 303C204.926 320.205 229.08 333.227 246 341.219C252.597 344.335 263.017 345.853 268 351L289 349C293.949 349.528 300.873 349.866 302 344L304 346L308 345L306 344L306 343L312 340L321 334L318 330C323.685 328.121 323.925 323.238 323 318L326 319L326 318L322 316L328 313L326 311L326 310L326 309L331 308C326.943 297.984 333.375 297.283 342 295L341 289L353 279L351 276C354.729 273.159 355.849 270.651 356 266C360.365 264.718 359.211 260.848 359 257L364 258L364 257C361.354 253.856 363.87 252.384 365 249L375 249L371 245L371 244L377 244L378 247C381.156 243.997 380.186 240.82 381.938 237.17C384.237 232.379 392.205 228.782 389 223L392 222L392 221C387.111 221 382.61 221.686 379 218L384 219C387.209 211.381 392.347 214.019 397.312 209.351C403.976 203.087 405.076 180.313 401 173L404 175L405 175C408.35 168.22 402.546 167.602 400.79 161.942C398.388 154.197 402.241 148.672 398 141L386 136L386 135L388 133L385 132C387.261 128.718 386.678 126.501 385 123L382 124L382 119L383 119L386 122L387 117L401 130L404 128L395.447 107.807L401 98L409 98L406 82L412 80L406 53C382.161 35.7331 357.397 24.0033 327 24M287 26L287 27L292 27L287 26M283.667 27.3333L284.333 27.6667L283.667 27.3333M278.667 28.3333L279.333 28.6667L278.667 28.3333z"/>
<path style="fill:#958f5f; stroke:none;" d="M308 28L309 29L308 28z"/>
<path style="fill:#373627; stroke:none;" d="M274 29L275 30L274 29z"/>
<path style="fill:#958f5f; stroke:none;" d="M280 29L281 30L280 29M286 31L286 32L305 30C299.603 28.001 291.279 28.7972 286 31z"/>
<path style="fill:#373627; stroke:none;" d="M271 30L272 31L271 30z"/>
<path style="fill:#958f5f; stroke:none;" d="M275.667 30.3333L276.333 30.6667L275.667 30.3333z"/>
<path style="fill:#373627; stroke:none;" d="M335 30L336 31L335 30M267.667 31.3333L268.333 31.6667L267.667 31.3333z"/>
<path style="fill:#5f5c3e; stroke:none;" d="M269.667 31.3333L270.333 31.6667L269.667 31.3333z"/>
<path style="fill:#958f5f; stroke:none;" d="M242 42L242 43L248 43L247 47L248 47L248 42L250 49L251 49L251 47L252 47L250 54L252 52L253 52L259 55L256 60L260 66L254 64L254 65L258 65L258 72L252 71L253 74C258.989 74.5866 262.663 82.3631 263 88L266 88L262 99L271 99L271 100L268 100L268 101C272.217 102.112 274.527 103.497 275 108L283 112C278.879 111.033 275.505 110.466 274 115L268 114L268 115C272.046 118.558 273.142 121.729 272 127L274 130C277.496 130.457 276.729 133.106 276 136C280.365 138.534 281.006 141.189 280 146C284.136 151.347 277.115 152.901 277 146L271 144L274 148L273 149L266 145L277 154C268.784 154.006 263.433 147.018 257 143L258 146C254.606 142.411 252.686 140.632 248 143L250 139L249 138L248 140L240 137L241 134L237 133L233 137L234 133L233 133C230.908 138.27 228.121 139.319 223 141C222.751 138.033 224.664 132.723 223.25 130.25C221.373 126.967 208.937 121.651 208 126L207 126L207 123L206 123C207.15 128.858 207.933 134.572 202 138C201.805 136.194 201.273 133.071 200 136L199 136L201 127L198 129L199 126L194 127C196.763 114.801 182.941 102.794 195 93L195 92L183 102L193 82C183.352 89.8037 172.963 104.481 173 117L172 117L172 113L171 113C166.465 123.893 155.399 139.839 158 152L156 152L157.286 181L165 204L164 204L160 201L161 208L160 208L157 203L156 203L164 223L165 223L166 220L168 232L163 226L170 238C168.617 235.234 166.4 232.1 170 233L171 227L176 234L173 233L175 237L172 237L180 257L191 271L202 281L192 276L195 280L189 277L190 282L201 284L198 288L192 285L195 290L185 286L178 276L182 278L182 275L176 264L175 264L176 267L166 257C172.487 276.049 185.067 287.235 198 301L217 315L217 313L223 314L224 317L226 318L230 316L215 301L215 300C223.091 305.837 233.866 319.373 245 314L245 313L230 301L232 298L232 297L232 296L228 291L232 293L220 283L233 289L231 284L241 288C237.949 283.427 234.037 283.242 229 282L229 281L234 281L233 278C227.451 277.312 217.759 269.656 217 264L205 249L211 252L214 238L211 239L214 235L208 235L202 229L192 239L190 239L189 236L195 235L197 229L189 226L175 217L172 221L173 213L180 211C181.815 215.027 183.603 217.091 188 218L188 211L184 212C181.709 196.826 148.715 180.275 169 163L171 156L172 161L177 161C179.761 158.104 181.415 158.46 185 160L185 161C182.827 162.727 180.145 164.91 183 167L182 172L186 172C186.268 184.986 195.497 183.011 200 193L201 193L209 182C213.162 182.68 215.092 181.774 217 178L224 180C224.324 188.427 220.469 191.291 213 194L222 198C223.431 188.945 233.873 188.17 241 191L242 188L248 189C248.711 183.339 254.981 188.58 257 191L274 198L274 197L267 196L267 192L274 193L276 188L278 188L279 191L282 193L283 193L282 188L300 187L302 185C298.846 178.852 289.454 177.206 283 176L283 175L297.981 178.278L318 192L308 179L318 181L298 168L305 168L304 164L309 165L305 157L311 155L309 148L306 143L328 161L323 137L315 123L308 116L311 116L311 115L306 113L306 108L302 108C301.124 103.111 299.996 100.368 295 99L295 98L300 97C302.312 100.558 304.9 100.901 309 101L307 97L311 97L310 94L306 95L303 88L296 86L295 89L293 87L292 87L284 91L284 90L291 85L295 86L285 79L286 77L282 74L282 73L282 72L286 69L280 65L276 66L276 65L280 62L287 62L287 53L284 53L281 58L283 54L281 51L276 50L273 46L274 35L277 36L281 34L281 33L270 34L270 33L275 32C265.109 28.4617 251.279 39.3269 242 42z"/>
<path style="fill:#373627; stroke:none;" d="M265 32L266 33L265 32z"/>
<path style="fill:#5f5c3e; stroke:none;" d="M266 32L267 33L266 32z"/>
<path style="fill:#373627; stroke:none;" d="M327.333 32.6667L327.667 33.3333L327.333 32.6667M261.667 33.3333L262.333 33.6667L261.667 33.3333z"/>
<path style="fill:#5f5c3e; stroke:none;" d="M263 33L264 34L263 33z"/>
<path style="fill:#373627; stroke:none;" d="M258.667 34.3333L259.333 34.6667L258.667 34.3333M256.667 35.3333L257.333 35.6667L256.667 35.3333z"/>
<path style="fill:#5f5c3e; stroke:none;" d="M359 35L360 36L359 35z"/>
<path style="fill:#373627; stroke:none;" d="M254 36L255 37L254 36z"/>
<path style="fill:#5f5c3e; stroke:none;" d="M255 36L256 37L255 36M269.667 36.3333L270.333 36.6667L269.667 36.3333z"/>
<path style="fill:#373627; stroke:none;" d="M251.667 37.3333L252.333 37.6667L251.667 37.3333z"/>
<path style="fill:#c8c585; stroke:none;" d="M261 37L262 38L261 37z"/>
<path style="fill:#958f5f; stroke:none;" d="M276 37L277 38L276 37z"/>
<path style="fill:#373627; stroke:none;" d="M249 38L250 39L249 38z"/>
<path style="fill:#5f5c3e; stroke:none;" d="M250 38L251 39L250 38z"/>
<path style="fill:#373627; stroke:none;" d="M247 39L248 40L247 39z"/>
<path style="fill:#5f5c3e; stroke:none;" d="M248 39L249 40L248 39M267.333 39.6667L267.667 40.3333L267.333 39.6667z"/>
<path style="fill:#373627; stroke:none;" d="M245 40L246 41L245 40z"/>
<path style="fill:#5f5c3e; stroke:none;" d="M246 40L247 41L246 40z"/>
<path style="fill:#373627; stroke:none;" d="M243 41L244 42L243 41z"/>
<path style="fill:#5f5c3e; stroke:none;" d="M244 41L245 42L244 41z"/>
<path style="fill:#373627; stroke:none;" d="M241 42L242 43L241 42z"/>
<path style="fill:#c8c585; stroke:none;" d="M248 42L248 47L247 47L248 43C238.491 43.0861 230.577 48.889 223 54.2021C205.229 66.6645 190.731 81.5662 183 102L195 92L195 93C181.901 100.021 195.681 116.079 194 127L199 126L198 129L201 127L199 136L200 136L201 134L202 138C208.556 135.72 207.675 128.417 206 123L207 123L207 126L208 126L208 123L222.672 131.225L223 141C228.461 139.634 231.461 138.826 233 133L234 133L233 137L237 133L241 134L240 137L249 138L250 139L248 143C252.642 141.369 254.333 143.194 258 146L257 143C262.728 148.012 268.818 154.475 277 154L266 145L273 149L274 148L271 144L277 146C276.675 154.722 285.566 150.312 280 146C281.792 141.182 281.002 137.896 276 136C276.921 133.037 277.491 130.439 274 130L272 127C273.461 121.914 272.693 117.81 268 115L268 114L274 115C276.193 111.037 278.815 111.272 283 112L275 108C275.475 103.088 272.489 101.72 268 101L268 100L271 100L271 99C267.456 97.1699 265.541 97.1335 262 99L266 88L263 88C263.032 79.5844 257.421 75.836 252 71L258 72L258 65L254 65L254 64L260 66L261 63L256 60L259 55L253 52L252 52L250 54L252 47L251 47L251 49L250 49L248 42z"/>
<path style="fill:#5f5c3e; stroke:none;" d="M266 42L266 43L269 43L266 42z"/>
<path style="fill:#373627; stroke:none;" d="M239 43L240 44L239 43z"/>
<path style="fill:#958f5f; stroke:none;" d="M240 43L241 44L240 43z"/>
<path style="fill:#c8c585; stroke:none;" d="M256 43L252 46L252 47L256 43z"/>
<path style="fill:#5f5c3e; stroke:none;" d="M262 43L264 46L264 43L262 43z"/>
<path style="fill:#373627; stroke:none;" d="M237 44L238 45L237 44z"/>
<path style="fill:#958f5f; stroke:none;" d="M238 44L239 45L238 44z"/>
<path style="fill:#373627; stroke:none;" d="M235 45L236 46L235 45z"/>
<path style="fill:#5f5c3e; stroke:none;" d="M236 45L237 46L236 45z"/>
<path style="fill:#958f5f; stroke:none;" d="M237 45L238 46L237 45M245 45L246 46L245 45z"/>
<path style="fill:#373627; stroke:none;" d="M371 45L371 46L375 47L375 46L371 45z"/>
<path style="fill:#5f5c3e; stroke:none;" d="M234 46L235 47L234 46z"/>
<path style="fill:#958f5f; stroke:none;" d="M235 46L236 47L235 46z"/>
<path style="fill:#373627; stroke:none;" d="M232 47L233 48L232 47z"/>
<path style="fill:#958f5f; stroke:none;" d="M233 47L234 48L233 47z"/>
<path style="fill:#373627; stroke:none;" d="M230 48L231 49L230 48z"/>
<path style="fill:#5f5c3e; stroke:none;" d="M231 48L232 49L231 48z"/>
<path style="fill:#c8c585; stroke:none;" d="M256 48L258 51L259 50L258 48L256 48z"/>
<path style="fill:#958f5f; stroke:none;" d="M229 49L230 50L229 49z"/>
<path style="fill:#373627; stroke:none;" d="M227 50L228 51L227 50z"/>
<path style="fill:#958f5f; stroke:none;" d="M228 50L229 51L228 50z"/>
<path style="fill:#373627; stroke:none;" d="M225 51L224 53L225 51z"/>
<path style="fill:#5f5c3e; stroke:none;" d="M226 51L227 52L226 51z"/>
<path style="fill:#958f5f; stroke:none;" d="M227 51L228 52L227 51M225 52L226 53L225 52z"/>
<path style="fill:#c8c585; stroke:none;" d="M263 52L264 53L263 52z"/>
<path style="fill:#5f5c3e; stroke:none;" d="M223 53L224 54L223 53z"/>
<path style="fill:#958f5f; stroke:none;" d="M247 53L243 60L246 61L251 56L247 53z"/>
<path style="fill:#373627; stroke:none;" d="M221 54L220 56L221 54z"/>
<path style="fill:#958f5f; stroke:none;" d="M222 54L223 55L222 54M225 54L226 55L225 54z"/>
<path style="fill:#040404; stroke:none;" d="M403.667 54.3333L404.333 54.6667L403.667 54.3333z"/>
<path style="fill:#958f5f; stroke:none;" d="M221 55L222 56L221 55z"/>
<path style="fill:#373627; stroke:none;" d="M218 56L217 58L218 56z"/>
<path style="fill:#5f5c3e; stroke:none;" d="M219 56L220 57L219 56z"/>
<path style="fill:#958f5f; stroke:none;" d="M218 57L219 58L218 57z"/>
<path style="fill:#5f5c3e; stroke:none;" d="M216 58L217 59L216 58z"/>
<path style="fill:#958f5f; stroke:none;" d="M217 58L218 59L217 58M224 58L223 62L224 62L224 58M291 58L292 59L291 58M215 59L216 60L215 59z"/>
<path style="fill:#c8c585; stroke:none;" d="M266 59L267 60L266 59z"/>
<path style="fill:#373627; stroke:none;" d="M213 60L211 63L213 60z"/>
<path style="fill:#958f5f; stroke:none;" d="M214 60L215 61L214 60M219 60C213.608 64.4007 210.729 69.4348 214 76L215 76L219 72L219 60z"/>
<path style="fill:#c8c585; stroke:none;" d="M268 60L269 61L268 60z"/>
<path style="fill:#5f5c3e; stroke:none;" d="M279.667 60.3333L280.333 60.6667L279.667 60.3333z"/>
<path style="fill:#958f5f; stroke:none;" d="M290 60L291 61L290 60M213 61L214 62L213 61M255 61L256 62L255 61M212 62L213 63L212 62M248 62L243 63L244 67L248 68L251 66L248 62z"/>
<path style="fill:#373627; stroke:none;" d="M209 63L208 65L209 63z"/>
<path style="fill:#5f5c3e; stroke:none;" d="M210 63L211 64L210 63z"/>
<path style="fill:#958f5f; stroke:none;" d="M209 64L210 65L209 64z"/>
<path style="fill:#5f5c3e; stroke:none;" d="M208 65L209 66L208 65z"/>
<path style="fill:#c8c585; stroke:none;" d="M247 65L248 66L247 65z"/>
<path style="fill:#5f5c3e; stroke:none;" d="M207 66L208 67L207 66z"/>
<path style="fill:#373627; stroke:none;" d="M205 67L195 78L205 67z"/>
<path style="fill:#958f5f; stroke:none;" d="M206 67L207 68L206 67M205 68L206 69L205 68M204 69L205 70L204 69M203 70L204 71L203 70M202 71L203 72L202 71M248 71L250 73L250 71L248 71z"/>
<path style="fill:#373627; stroke:none;" d="M344 71L344 73L346 73L344 71z"/>
<path style="fill:#958f5f; stroke:none;" d="M201 72L202 73L201 72M200 73L201 74L200 73M199 74L200 75L199 74z"/>
<path style="fill:#373627; stroke:none;" d="M343 74L344 75L343 74z"/>
<path style="fill:#958f5f; stroke:none;" d="M198 75L199 76L198 75M220.333 75.6667L220.667 76.3333L220.333 75.6667M296 75L300 78L296 75M197 76L198 77L197 76M292 76L287 78L292 82L292 76z"/>
<path style="fill:#5f5c3e; stroke:none;" d="M355 76L351 77L351 78C353.262 78.5122 355.474 78.8194 355 76M358 76L361 79L358 76z"/>
<path style="fill:#958f5f; stroke:none;" d="M196 77L197 78L196 77M195 78L196 79L195 78M221.333 78.6667L221.667 79.3333L221.333 78.6667z"/>
<path style="fill:#373627; stroke:none;" d="M193 79L194 80L193 79z"/>
<path style="fill:#5f5c3e; stroke:none;" d="M194 79L193 81L194 79z"/>
<path style="fill:#958f5f; stroke:none;" d="M223 79L224 80L223 79M194 80L195 81L194 80M299 80L300 81L299 80z"/>
<path style="fill:#5f5c3e; stroke:none;" d="M365 80L370 83L365 80M192 81L193 82L192 81M283 82L288 83L283 82M191 82L192 83L191 82M360 82L361 83L360 82z"/>
<path style="fill:#373627; stroke:none;" d="M190 83L191 84L190 83z"/>
<path style="fill:#5f5c3e; stroke:none;" d="M275 85L276 86L278 83L275 85M281 83L282 84L281 83M356 83L357 84L356 83z"/>
<path style="fill:#373627; stroke:none;" d="M189 84L188 86L189 84z"/>
<path style="fill:#958f5f; stroke:none;" d="M295 84L295 85L299 85L295 84M309 85L309 86L313 85L309 85z"/>
<path style="fill:#373627; stroke:none;" d="M341 84L342 85L341 84z"/>
<path style="fill:#5f5c3e; stroke:none;" d="M189 85L190 86L189 85z"/>
<path style="fill:#040404; stroke:none;" d="M406.333 85.6667L406.667 86.3333L406.333 85.6667z"/>
<path style="fill:#5f5c3e; stroke:none;" d="M188 86L189 87L188 86z"/>
<path style="fill:#373627; stroke:none;" d="M345 86L348 88L345 86z"/>
<path style="fill:#5f5c3e; stroke:none;" d="M187 87L188 88L187 87z"/>
<path style="fill:#c8c585; stroke:none;" d="M268 87L269 88L268 87z"/>
<path style="fill:#958f5f; stroke:none;" d="M305 87L306 88L305 87z"/>
<path style="fill:#5f5c3e; stroke:none;" d="M356 87L357 88L356 87z"/>
<path style="fill:#373627; stroke:none;" d="M186 88L187 89L186 88M185 89L186 90L185 89M349 89L350 90L349 89z"/>
<path style="fill:#5f5c3e; stroke:none;" d="M185 90L186 91L185 90z"/>
<path style="fill:#c8c585; stroke:none;" d="M268 92L271 91L268 92M273.667 90.3333L274.333 90.6667L273.667 90.3333z"/>
<path style="fill:#5f5c3e; stroke:none;" d="M184 91L185 92L184 91z"/>
<path style="fill:#c8c585; stroke:none;" d="M266 91L267 92L266 91z"/>
<path style="fill:#5f5c3e; stroke:none;" d="M359.667 91.3333L360.333 91.6667L359.667 91.3333z"/>
<path style="fill:#373627; stroke:none;" d="M183 92L184 93L183 92z"/>
<path style="fill:#040404; stroke:none;" d="M399.333 92.6667L399.667 93.3333L399.333 92.6667M401 92L401 93L406 96L407 92L401 92z"/>
<path style="fill:#373627; stroke:none;" d="M182 93L183 94L182 93z"/>
<path style="fill:#c8c585; stroke:none;" d="M269 93L272 95L272 94L269 93z"/>
<path style="fill:#5f5c3e; stroke:none;" d="M274 93L275 94L274 93M296 93L297 94L296 93M182 94L183 95L182 94z"/>
<path style="fill:#373627; stroke:none;" d="M409 94L410 95L409 94M181 95L182 96L181 95M351 95L352 96L351 95z"/>
<path style="fill:#040404; stroke:none;" d="M402 95L403 96L402 95z"/>
<path style="fill:#373627; stroke:none;" d="M180 96L181 97L180 96z"/>
<path style="fill:#958f5f; stroke:none;" d="M193 96L194 97L193 96z"/>
<path style="fill:#373627; stroke:none;" d="M338 96L340 98L338 96z"/>
<path style="fill:#5f5c3e; stroke:none;" d="M180 97L181 98L180 97z"/>
<path style="fill:#373627; stroke:none;" d="M179 98L180 99L179 98M178 99L179 100L178 99z"/>
<path style="fill:#5f5c3e; stroke:none;" d="M178 100L179 101L178 100z"/>
<path style="fill:#c8c585; stroke:none;" d="M181 100L180 102L181 100z"/>
<path style="fill:#373627; stroke:none;" d="M403 100C401.911 105.956 402.135 112.8 408 116C406.838 111.55 405.642 108.702 410 106L408 100L403 100z"/>
<path style="fill:#5f5c3e; stroke:none;" d="M177 101L178 102L177 101z"/>
<path style="fill:#373627; stroke:none;" d="M176 102L177 103L176 102z"/>
<path style="fill:#c8c585; stroke:none;" d="M182 102L177 108L182 102z"/>
<path style="fill:#5f5c3e; stroke:none;" d="M176 103L177 104L176 103z"/>
<path style="fill:#373627; stroke:none;" d="M175 104L176 105L175 104z"/>
<path style="fill:#5f5c3e; stroke:none;" d="M175 105L176 106L175 105z"/>
<path style="fill:#958f5f; stroke:none;" d="M212 105L212 107L214 107L214 105L212 105z"/>
<path style="fill:#373627; stroke:none;" d="M174 106L175 107L174 106z"/>
<path style="fill:#958f5f; stroke:none;" d="M248 106L244 109L245 113L251 112L249 115L257 115L257 114L252 114L253 107L248 106M313 106L314 107L313 106z"/>
<path style="fill:#373627; stroke:none;" d="M173 107L174 108L173 107z"/>
<path style="fill:#040404; stroke:none;" d="M391 107L392 108L391 107z"/>
<path style="fill:#5f5c3e; stroke:none;" d="M173 108L174 109L173 108M299 108L303 112L299 108z"/>
<path style="fill:#958f5f; stroke:none;" d="M312 109L312 113L317 113L319 110L312 109z"/>
<path style="fill:#373627; stroke:none;" d="M172 109L173 110L172 109z"/>
<path style="fill:#c8c585; stroke:none;" d="M175 109L174 111L176 111L175 109z"/>
<path style="fill:#5f5c3e; stroke:none;" d="M315 109L316 110L315 109M172 110L173 111L172 110z"/>
<path style="fill:#373627; stroke:none;" d="M171 111L172 112L171 111z"/>
<path style="fill:#5f5c3e; stroke:none;" d="M171 112L172 113L171 112z"/>
<path style="fill:#c8c585; stroke:none;" d="M172 112L172 117L173 117L172 112z"/>
<path style="fill:#958f5f; stroke:none;" d="M210 112L211 113L210 112z"/>
<path style="fill:#5f5c3e; stroke:none;" d="M296 112L298 114L298 112L296 112z"/>
<path style="fill:#373627; stroke:none;" d="M170 113L171 114L170 113z"/>
<path style="fill:#5f5c3e; stroke:none;" d="M301 113L306 117L301 113M170 114L171 115L170 114z"/>
<path style="fill:#958f5f; stroke:none;" d="M318 114L320 116L318 114z"/>
<path style="fill:#373627; stroke:none;" d="M169 115L170 116L169 115z"/>
<path style="fill:#040404; stroke:none;" d="M371 115L372 116L371 115z"/>
<path style="fill:#5f5c3e; stroke:none;" d="M169 116L170 117L169 116z"/>
<path style="fill:#958f5f; stroke:none;" d="M259 116L258 122L264 131L265 131L267 128L270 133L270 118L267 123L259 116M318 118L318 119L324 121C322.877 117.384 321.554 116.796 318 118z"/>
<path style="fill:#373627; stroke:none;" d="M168 117L169 118L168 117z"/>
<path style="fill:#c8c585; stroke:none;" d="M171 117L172 118L171 117z"/>
<path style="fill:#958f5f; stroke:none;" d="M255 117L256 118L255 117M313.667 117.333L314.333 117.667L313.667 117.333z"/>
<path style="fill:#5f5c3e; stroke:none;" d="M168 118L169 119L168 118z"/>
<path style="fill:#373627; stroke:none;" d="M167 119L168 120L167 119M404 119L405 120L404 119z"/>
<path style="fill:#5f5c3e; stroke:none;" d="M167 120L168 121L167 120z"/>
<path style="fill:#958f5f; stroke:none;" d="M315 120L316 121L315 120M325 120L326 121L325 120z"/>
<path style="fill:#373627; stroke:none;" d="M166 121L167 122L166 121z"/>
<path style="fill:#958f5f; stroke:none;" d="M205 121L205 122L208 122L205 121z"/>
<path style="fill:#373627; stroke:none;" d="M405 121L406 122L405 121z"/>
<path style="fill:#5f5c3e; stroke:none;" d="M166 122L167 123L166 122z"/>
<path style="fill:#373627; stroke:none;" d="M342 122L342 126L343 126L344 122L342 122z"/>
<path style="fill:#040404; stroke:none;" d="M378 122L372 133L379 134L379 133C375.807 129.318 378.49 126.458 381 123L378 122z"/>
<path style="fill:#373627; stroke:none;" d="M165 123L166 124L165 123z"/>
<path style="fill:#040404; stroke:none;" d="M399 125L402 123L399 125z"/>
<path style="fill:#5f5c3e; stroke:none;" d="M165.333 124.667L165.667 125.333L165.333 124.667M353 124L354 125L353 124z"/>
<path style="fill:#c8c585; stroke:none;" d="M264 125L263 128L264 125M275 125L276 126L275 125z"/>
<path style="fill:#373627; stroke:none;" d="M164 126L165 127L164 126M163.333 127.667L163.667 128.333L163.333 127.667z"/>
<path style="fill:#5f5c3e; stroke:none;" d="M163 129L164 130L163 129z"/>
<path style="fill:#373627; stroke:none;" d="M162 130L163 131L162 130z"/>
<path style="fill:#c8c585; stroke:none;" d="M187 130L188 141C190.303 137.155 190.876 132.796 187 130z"/>
<path style="fill:#5f5c3e; stroke:none;" d="M348 130L349 131L348 130z"/>
<path style="fill:#040404; stroke:none;" d="M380 130L381 131L380 130z"/>
<path style="fill:#5f5c3e; stroke:none;" d="M162.333 131.667L162.667 132.333L162.333 131.667z"/>
<path style="fill:#958f5f; stroke:none;" d="M234 131L235 132L234 131z"/>
<path style="fill:#5f5c3e; stroke:none;" d="M308 132L309 136L303 135C306.235 138.535 309.463 139.728 314 138L308 132z"/>
<path style="fill:#373627; stroke:none;" d="M161 133L162 134L161 133z"/>
<path style="fill:#5f5c3e; stroke:none;" d="M191 133L192 134L191 133M161 134L162 135L161 134M238.333 134.667L238.667 135.333L238.333 134.667M363 134L364 135L363 134z"/>
<path style="fill:#373627; stroke:none;" d="M399 134C397.733 137.167 397.177 138.831 400 141L402 135L401 134L399 134M160.333 135.667L160.667 136.333L160.333 135.667z"/>
<path style="fill:#040404; stroke:none;" d="M400 136L401 137L400 136z"/>
<path style="fill:#5f5c3e; stroke:none;" d="M160.333 137.667L160.667 138.333L160.333 137.667M190 137L191 138L190 137z"/>
<path style="fill:#c8c585; stroke:none;" d="M199 137L200 138L199 137M239 137C235.347 141.415 231.057 146.221 225 146L224 153L218 150C220.717 155.221 227.705 156.63 226 149L232 152C230.23 145.761 235.548 142.609 241 141L241 146L249 152L250 152C249.393 144.759 244.266 141.419 239 137z"/>
<path style="fill:#373627; stroke:none;" d="M351 138C351.506 142.382 352.098 145.145 357 144L351 138z"/>
<path style="fill:#5f5c3e; stroke:none;" d="M367 138L367 140L369 140L367 138z"/>
<path style="fill:#373627; stroke:none;" d="M159.333 139.667L159.667 140.333L159.333 139.667z"/>
<path style="fill:#c8c585; stroke:none;" d="M184 139L185 140L184 139z"/>
<path style="fill:#5f5c3e; stroke:none;" d="M195 139L196 140L195 139z"/>
<path style="fill:#c8c585; stroke:none;" d="M199 139L200 140L199 139z"/>
<path style="fill:#5f5c3e; stroke:none;" d="M189 141L182 150C187.743 155.727 184.797 159.078 186 166C192.727 161.621 192.903 147.558 189 141M228 141L229 142L228 141M362.667 141.333L363.333 141.667L362.667 141.333z"/>
<path style="fill:#040404; stroke:none;" d="M385 141L385 145L388 144L388 142L385 141z"/>
<path style="fill:#373627; stroke:none;" d="M158 142L159 143L158 142z"/>
<path style="fill:#5f5c3e; stroke:none;" d="M158 143L159 144L158 143M223 143L222 145L224 145L223 143z"/>
<path style="fill:#373627; stroke:none;" d="M157 144L157 147L158 147L157 144z"/>
<path style="fill:#5f5c3e; stroke:none;" d="M196 144L197 145L196 144z"/>
<path style="fill:#c8c585; stroke:none;" d="M198.667 145.333L199.333 145.667L198.667 145.333z"/>
<path style="fill:#5f5c3e; stroke:none;" d="M295 146L296 147L295 146M157 147L158 148L157 147M304 147L305 148L304 147z"/>
<path style="fill:#373627; stroke:none;" d="M156.333 149.667L156.667 150.333L156.333 149.667z"/>
<path style="fill:#c8c585; stroke:none;" d="M168 149L168 150L172 150L168 149z"/>
<path style="fill:#5f5c3e; stroke:none;" d="M156 151L157 152L156 151z"/>
<path style="fill:#c8c585; stroke:none;" d="M157 151L158 152L157 151z"/>
<path style="fill:#5f5c3e; stroke:none;" d="M291 151L292 152L291 151z"/>
<path style="fill:#373627; stroke:none;" d="M363 151L364 152L363 151z"/>
<path style="fill:#c8c585; stroke:none;" d="M216 152L217 153L216 152z"/>
<path style="fill:#373627; stroke:none;" d="M155.333 153.667L155.667 154.333L155.333 153.667z"/>
<path style="fill:#c8c585; stroke:none;" d="M156 153C154.781 181.397 150.346 205.573 157.63 234C160.761 246.22 165.676 259.081 176 267L175 264L176 264L182 275L182 278L178 276L185 286L187 284L195 290L192 285L198 288L201 284L190 282L189 277L195 280L192 276L202 281L191 271L182.173 258L172 237L175 237L173 233L176 234L171 227L170 233C167.106 233.488 168.855 236.006 170 238L163 226L168 232L166 220L165 223L164 223L156 203L157 203L160 208L161 208L160 201L164 204L165 204L157.428 181L156 153M233 153L237 158L233 153z"/>
<path style="fill:#5f5c3e; stroke:none;" d="M320 153L321 154L320 153M155.333 155.667L155.667 156.333L155.333 155.667z"/>
<path style="fill:#958f5f; stroke:none;" d="M155.333 157.667L155.667 158.333L155.333 157.667z"/>
<path style="fill:#373627; stroke:none;" d="M154 158L154 161L155 161L154 158z"/>
<path style="fill:#5f5c3e; stroke:none;" d="M291 158L291 159L301 163C298.731 159.016 295.416 158.23 291 158M375 159L376 160L375 159M154 161L155 162L154 161M207 161L207 165L208 165L207 161M303 161L304 162L303 161z"/>
<path style="fill:#958f5f; stroke:none;" d="M154 162L154 165L155 165L154 162z"/>
<path style="fill:#373627; stroke:none;" d="M153.333 163.667L153.667 164.333L153.333 163.667z"/>
<path style="fill:#5f5c3e; stroke:none;" d="M296 163L297 164L296 163M198 164L198 172L200 172L201 164L198 164M301 164L300 167L301 164z"/>
<path style="fill:#958f5f; stroke:none;" d="M331 164C332.947 167.41 335.126 168.222 339 168L331 164z"/>
<path style="fill:#5f5c3e; stroke:none;" d="M153.333 165.667L153.667 166.333L153.333 165.667z"/>
<path style="fill:#373627; stroke:none;" d="M173 165L174 166L173 165M362.667 166.333L363.333 166.667L362.667 166.333z"/>
<path style="fill:#958f5f; stroke:none;" d="M153 167L153 170L154 170L153 167z"/>
<path style="fill:#373627; stroke:none;" d="M152 168L152 172L153 172L152 168z"/>
<path style="fill:#958f5f; stroke:none;" d="M305 168L310 173L305 168M169 172L172 169L169 172z"/>
<path style="fill:#5f5c3e; stroke:none;" d="M203 171L207 169L203 171M190 171L187 177L193 182L193 172L190 171M209 171L211 177L213 177C213.55 173.344 212.413 172.255 209 171z"/>
<path style="fill:#373627; stroke:none;" d="M366 171L367 172L366 171z"/>
<path style="fill:#5f5c3e; stroke:none;" d="M152 172L152 176L153 176L152 172M277 174L277 175L282 175L282 174L277 174z"/>
<path style="fill:#958f5f; stroke:none;" d="M154 175L155 176L154 175M191 175L192 176L191 175M152 176L152 179L153 179L152 176z"/>
<path style="fill:#5f5c3e; stroke:none;" d="M243 177L242 179L244 179L243 177z"/>
<path style="fill:#958f5f; stroke:none;" d="M169 178L169 180L171 180L169 178M152.333 180.667L152.667 181.333L152.333 180.667z"/>
<path style="fill:#373627; stroke:none;" d="M151 181L151 187L152 187L151 181z"/>
<path style="fill:#5f5c3e; stroke:none;" d="M256 182L257 183L256 182M262 183L261 186L261 187L266 189L262 183z"/>
<path style="fill:#373627; stroke:none;" d="M212 186L207 196C201.572 194.768 200.517 198.402 199 203L198 203L197 198L196 198L196 204L202 214L201 214L201 218L191 220L198 225L198 229L205 225L205 219L207 219L212 231L213 231C218.105 222.841 208.226 217.23 217 210L217 209C211.537 203.617 208.427 191.807 219 191L212 186z"/>
<path style="fill:#5f5c3e; stroke:none;" d="M151.333 187.667L151.667 188.333L151.333 187.667z"/>
<path style="fill:#958f5f; stroke:none;" d="M156 187L157 188L156 187z"/>
<path style="fill:#373627; stroke:none;" d="M346 187L344 193L349 188L346 187M151.333 189.667L151.667 190.333L151.333 189.667z"/>
<path style="fill:#958f5f; stroke:none;" d="M156 189L159 196L156 189z"/>
<path style="fill:#373627; stroke:none;" d="M196 190L196 196L197 196L196 190z"/>
<path style="fill:#5f5c3e; stroke:none;" d="M151 191L151 196L152 196L151 191z"/>
<path style="fill:#373627; stroke:none;" d="M349 191L349 193L351 193L351 191L349 191z"/>
<path style="fill:#958f5f; stroke:none;" d="M280 193L280 195L282 195L280 193z"/>
<path style="fill:#373627; stroke:none;" d="M352 193L353 194L352 193z"/>
<path style="fill:#958f5f; stroke:none;" d="M278 194L279 195L278 194M283 194L283 197L284 197L283 194z"/>
<path style="fill:#373627; stroke:none;" d="M232 195C220.116 201.589 221.606 205.842 227.472 217.083C228.668 219.375 228.03 221.654 230.111 223.583C232.87 226.142 237.099 227.205 238 223L240 225L241 225C248.306 215.536 257.536 213.49 251 201C242.313 202.865 236.319 204.238 232 195M151 196L151 200L152 200L151 196z"/>
<path style="fill:#5f5c3e; stroke:none;" d="M207 196L208 197L207 196z"/>
<path style="fill:#958f5f; stroke:none;" d="M159.333 197.667L159.667 198.333L159.333 197.667M290 197L291 198L290 197M194 198L195 199L194 198z"/>
<path style="fill:#373627; stroke:none;" d="M216 199L217 201L218 201L219 199L216 199z"/>
<path style="fill:#958f5f; stroke:none;" d="M152 200L152 207L153 207L152 200M155.333 200.667L155.667 201.333L155.333 200.667M286 200L286 202L288 200L286 200z"/>
<path style="fill:#c8c585; stroke:none;" d="M165 201L166 202L165 201z"/>
<path style="fill:#5f5c3e; stroke:none;" d="M228 202L227 203L235 216C246.308 210.545 235.032 203.885 228 202z"/>
<path style="fill:#958f5f; stroke:none;" d="M194 203L196 206L194 203z"/>
<path style="fill:#5f5c3e; stroke:none;" d="M200 204L200 206L202 206L202 204L200 204M205 206L210 219L207 208L212 210L211 204L205 206z"/>
<path style="fill:#373627; stroke:none;" d="M234 206L238 213L234 206z"/>
<path style="fill:#5f5c3e; stroke:none;" d="M152 207L152 210L153 210L152 207z"/>
<path style="fill:#c8c585; stroke:none;" d="M166 207L167 208L166 207M171 208L172 209L171 208z"/>
<path style="fill:#373627; stroke:none;" d="M152 210L152 213L153 213L152 210z"/>
<path style="fill:#c8c585; stroke:none;" d="M169 210L168 216L171 210L169 210z"/>
<path style="fill:#958f5f; stroke:none;" d="M153 213L153 216L154 216L153 213M160 213L161 214L160 213M214 214L217 223L218 214L214 214z"/>
<path style="fill:#c8c585; stroke:none;" d="M164 215L165 216L164 215z"/>
<path style="fill:#373627; stroke:none;" d="M330 215L331 216L330 215z"/>
<path style="fill:#5f5c3e; stroke:none;" d="M153 216L154 217L153 216z"/>
<path style="fill:#373627; stroke:none;" d="M303.667 216.333L304.333 216.667L303.667 216.333M325 216L326 222L325 216M327 216L327 218L329 218L327 216M153.333 217.667L153.667 218.333L153.333 217.667M320 217L322 219L320 217M385 217L386 218L385 217z"/>
<path style="fill:#958f5f; stroke:none;" d="M154.333 219.667L154.667 220.333L154.333 219.667M222 219L223 222L213 234C218.477 232.122 225.805 225.014 222 219z"/>
<path style="fill:#373627; stroke:none;" d="M291 222L295 220L291 222M334 219L335 220L334 219z"/>
<path style="fill:#5f5c3e; stroke:none;" d="M154 221L155 222L154 221z"/>
<path style="fill:#373627; stroke:none;" d="M329 221L326 225L334 225L332 221L329 221M154.333 222.667L154.667 223.333L154.333 222.667z"/>
<path style="fill:#c8c585; stroke:none;" d="M173 222L174 227L177 226L178 230L179 230L173 222z"/>
<path style="fill:#373627; stroke:none;" d="M337 222L335 226L338 225L339 223L337 222z"/>
<path style="fill:#958f5f; stroke:none;" d="M155.333 224.667L155.667 225.333L155.333 224.667z"/>
<path style="fill:#5f5c3e; stroke:none;" d="M155 226L156 227L155 226z"/>
<path style="fill:#373627; stroke:none;" d="M195 226L196 227L195 226z"/>
<path style="fill:#958f5f; stroke:none;" d="M202 227C204.625 230.227 206.825 231.572 211 231L209 226L202 227z"/>
<path style="fill:#373627; stroke:none;" d="M293 226L294 227L293 226M155.333 227.667L155.667 228.333L155.333 227.667M324 227L325 228L324 227z"/>
<path style="fill:#958f5f; stroke:none;" d="M225 236L234 229C229.363 229.206 226.925 231.909 225 236z"/>
<path style="fill:#040404; stroke:none;" d="M366 228L370 235L366 228z"/>
<path style="fill:#958f5f; stroke:none;" d="M156 229L157 230L156 229z"/>
<path style="fill:#373627; stroke:none;" d="M237 229L235 231L235 232L239 229L237 229M296 229L297 230L296 229z"/>
<path style="fill:#040404; stroke:none;" d="M360 229L360 230L363 231L360 229z"/>
<path style="fill:#5f5c3e; stroke:none;" d="M156 230L157 231L156 230M177 230L178 231L177 230z"/>
<path style="fill:#373627; stroke:none;" d="M241 230L242 231L241 230M156.333 231.667L156.667 232.333L156.333 231.667z"/>
<path style="fill:#5f5c3e; stroke:none;" d="M184 231L185 232L184 231M181 232L181 234L183 234L183 232L181 232z"/>
<path style="fill:#373627; stroke:none;" d="M232 232C227.658 236.879 228.657 240.434 226.062 245.826C222.748 252.711 213.302 263.013 228 264L228 263L226 263L226 262C231.141 261.953 234.541 261.752 235 256C224.122 252.653 232.203 237.974 232 232z"/>
<path style="fill:#040404; stroke:none;" d="M381 232L382 233L381 232z"/>
<path style="fill:#958f5f; stroke:none;" d="M157 233L158 234L157 233z"/>
<path style="fill:#5f5c3e; stroke:none;" d="M178 233L178 235L180 233L178 233z"/>
<path style="fill:#958f5f; stroke:none;" d="M238 233L239 234L238 233z"/>
<path style="fill:#5f5c3e; stroke:none;" d="M157 234L158 235L157 234z"/>
<path style="fill:#373627; stroke:none;" d="M157.333 235.667L157.667 236.333L157.333 235.667z"/>
<path style="fill:#958f5f; stroke:none;" d="M161 235L162 236L161 235z"/>
<path style="fill:#c8c585; stroke:none;" d="M180 235L180 237L182 237L182 235L180 235M183 235L184 236L183 235z"/>
<path style="fill:#5f5c3e; stroke:none;" d="M186 235L186 237L188 235L186 235z"/>
<path style="fill:#040404; stroke:none;" d="M369 236L369 239L370 239L369 236z"/>
<path style="fill:#958f5f; stroke:none;" d="M158 237L159 238L158 237z"/>
<path style="fill:#5f5c3e; stroke:none;" d="M320 237L321 238L320 237M158 238L159 239L158 238z"/>
<path style="fill:#c8c585; stroke:none;" d="M176 238L177 239L176 238M180 238L177 242L176 246L203 274C203.575 271.604 203.475 271.513 201 271C200.758 264.592 192.414 256.934 187 254L183 249L184 246L180 238z"/>
<path style="fill:#5f5c3e; stroke:none;" d="M185 238L186 239L185 238z"/>
<path style="fill:#040404; stroke:none;" d="M378 238L379 239L378 238z"/>
<path style="fill:#373627; stroke:none;" d="M158 239L159 240L158 239z"/>
<path style="fill:#958f5f; stroke:none;" d="M159 240L160 241L159 240z"/>
<path style="fill:#040404; stroke:none;" d="M378 240L379 241L378 240z"/>
<path style="fill:#373627; stroke:none;" d="M159 241L160 242L159 241z"/>
<path style="fill:#040404; stroke:none;" d="M377 242L378 243L377 242z"/>
<path style="fill:#5f5c3e; stroke:none;" d="M160 243L161 244L160 243z"/>
<path style="fill:#373627; stroke:none;" d="M160.333 244.667L160.667 245.333L160.333 244.667M286 245L285 250L286 245z"/>
<path style="fill:#5f5c3e; stroke:none;" d="M161 246L162 247L161 246z"/>
<path style="fill:#373627; stroke:none;" d="M277.667 246.333L278.333 246.667L277.667 246.333M161.333 247.667L161.667 248.333L161.333 247.667z"/>
<path style="fill:#958f5f; stroke:none;" d="M162 248L163 249L162 248z"/>
<path style="fill:#5f5c3e; stroke:none;" d="M162 249L163 250L162 249z"/>
<path style="fill:#373627; stroke:none;" d="M162 250L163 251L162 250z"/>
<path style="fill:#958f5f; stroke:none;" d="M163 251L164 252L163 251z"/>
<path style="fill:#5f5c3e; stroke:none;" d="M163 252L164 253L163 252z"/>
<path style="fill:#373627; stroke:none;" d="M236 252L238 257L239 257L236 252M163 253L164 256L165 256L163 253z"/>
<path style="fill:#958f5f; stroke:none;" d="M164 253L165 254L164 253M170.333 253.667L170.667 254.333L170.333 253.667z"/>
<path style="fill:#5f5c3e; stroke:none;" d="M231 259C227.402 248.761 217.322 258.027 231 259z"/>
<path style="fill:#958f5f; stroke:none;" d="M165.333 254.667L165.667 255.333L165.333 254.667z"/>
<path style="fill:#5f5c3e; stroke:none;" d="M287 254L282 262L287 263L285 258L290 259L287 254M165 256L166 257L165 256z"/>
<path style="fill:#373627; stroke:none;" d="M224 256L226 258L226 256L224 256z"/>
<path style="fill:#040404; stroke:none;" d="M314 256L315 257L314 256z"/>
<path style="fill:#373627; stroke:none;" d="M165 257L166 258L165 257M229 257L230 258L229 257z"/>
<path style="fill:#5f5c3e; stroke:none;" d="M166 258L167 259L166 258z"/>
<path style="fill:#040404; stroke:none;" d="M312 258L313 259L312 258z"/>
<path style="fill:#373627; stroke:none;" d="M166.333 259.667L166.667 260.333L166.333 259.667z"/>
<path style="fill:#5f5c3e; stroke:none;" d="M288 260L291 272L288 260M167 261L168 262L167 261M225 261L226 262L225 261z"/>
<path style="fill:#373627; stroke:none;" d="M167 262L168 263L167 262z"/>
<path style="fill:#c8c585; stroke:none;" d="M169 262L170 263L169 262z"/>
<path style="fill:#958f5f; stroke:none;" d="M174 262L175 263L174 262z"/>
<path style="fill:#5f5c3e; stroke:none;" d="M168 263L169 264L168 263z"/>
<path style="fill:#373627; stroke:none;" d="M276 263L278 267L278 263L276 263M168 264L169 265L168 264z"/>
<path style="fill:#5f5c3e; stroke:none;" d="M169 265L170 266L169 265z"/>
<path style="fill:#373627; stroke:none;" d="M169 266L170 267L169 266z"/>
<path style="fill:#5f5c3e; stroke:none;" d="M170 267L171 268L170 267z"/>
<path style="fill:#c8c585; stroke:none;" d="M173 267L174 268L173 267z"/>
<path style="fill:#373627; stroke:none;" d="M170 268L171 269L170 268M275 270L279 269L275 270z"/>
<path style="fill:#5f5c3e; stroke:none;" d="M171 269L172 270L171 269z"/>
<path style="fill:#373627; stroke:none;" d="M171 270L172 271L171 270M172 271L173 272L172 271z"/>
<path style="fill:#5f5c3e; stroke:none;" d="M173 272L174 273L173 272z"/>
<path style="fill:#c8c585; stroke:none;" d="M178 272L179 273L178 272z"/>
<path style="fill:#958f5f; stroke:none;" d="M227 272L228 273L227 272z"/>
<path style="fill:#373627; stroke:none;" d="M173 273L174 274L173 273z"/>
<path style="fill:#c8c585; stroke:none;" d="M206 273C205.455 276.858 206.471 278.401 210 280L206 273z"/>
<path style="fill:#5f5c3e; stroke:none;" d="M174 274L176 276L174 274z"/>
<path style="fill:#373627; stroke:none;" d="M174 275L175 276L174 275M175 276L176 277L175 276z"/>
<path style="fill:#5f5c3e; stroke:none;" d="M176 277L177 278L176 277z"/>
<path style="fill:#373627; stroke:none;" d="M176 278L177 279L176 278z"/>
<path style="fill:#5f5c3e; stroke:none;" d="M177 279L178 280L177 279z"/>
<path style="fill:#040404; stroke:none;" d="M343 279L344 283L347 279L343 279z"/>
<path style="fill:#373627; stroke:none;" d="M177 280L178 281L177 280M178 281L179 282L178 281z"/>
<path style="fill:#5f5c3e; stroke:none;" d="M179 281L181 286L182 286L179 281z"/>
<path style="fill:#c8c585; stroke:none;" d="M191 281L192 282L191 281M202 281L203 282L202 281z"/>
<path style="fill:#373627; stroke:none;" d="M179 283L180 284L179 283M180 284L181 285L180 284z"/>
<path style="fill:#5f5c3e; stroke:none;" d="M182 286L183 287L182 286z"/>
<path style="fill:#c8c585; stroke:none;" d="M186 286L190 290L186 286z"/>
<path style="fill:#373627; stroke:none;" d="M182 287L183 288L182 287M183 288L184 289L183 288z"/>
<path style="fill:#c8c585; stroke:none;" d="M198 288L199 289L198 288z"/>
<path style="fill:#958f5f; stroke:none;" d="M241 288L242 289L241 288z"/>
<path style="fill:#5f5c3e; stroke:none;" d="M184 289L187 292L184 289z"/>
<path style="fill:#958f5f; stroke:none;" d="M233 289L236 291L233 289z"/>
<path style="fill:#373627; stroke:none;" d="M184 290L185 291L184 290M185 291L186 292L185 291z"/>
<path style="fill:#040404; stroke:none;" d="M321.667 291.333L322.333 291.667L321.667 291.333z"/>
<path style="fill:#373627; stroke:none;" d="M186 292L187 293L186 292M187 294L188 295L187 294M188 295L189 296L188 295z"/>
<path style="fill:#5f5c3e; stroke:none;" d="M219 295L221 298L219 295z"/>
<path style="fill:#373627; stroke:none;" d="M189 296L190 297L189 296M190 297L191 298L190 297z"/>
<path style="fill:#958f5f; stroke:none;" d="M234 297L235 298L234 297z"/>
<path style="fill:#040404; stroke:none;" d="M324 297L325 298L324 297z"/>
<path style="fill:#373627; stroke:none;" d="M191 298L192 299L191 298M192 299L195 302L192 299M195 302L196 303L195 302z"/>
<path style="fill:#958f5f; stroke:none;" d="M220 305L221 306L220 305M242 307L243 308L242 307z"/>
<path style="fill:#373627; stroke:none;" d="M264 308L265 309L264 308M271 309L272 310L271 309M328 310L330 312L330 310L328 310z"/>
<path style="fill:#5f5c3e; stroke:none;" d="M280.333 311.667L280.667 312.333L280.333 311.667M275 312L276 313L275 312M283 313L286 316L283 313z"/>
<path style="fill:#958f5f; stroke:none;" d="M231 315L230 320L234 320L239 324L237 319L235 317L231 315z"/>
<path style="fill:#5f5c3e; stroke:none;" d="M231 319L232 320L231 319z"/>
<path style="fill:#373627; stroke:none;" d="M267 319L267 321L269 321L267 319z"/>
<path style="fill:#958f5f; stroke:none;" d="M240 322L241 323L240 322z"/>
<path style="fill:#373627; stroke:none;" d="M259.333 324.667L259.667 325.333L259.333 324.667z"/>
<path style="fill:#040404; stroke:none;" d="M321.333 324.667L321.667 325.333L321.333 324.667z"/>
<path style="fill:#373627; stroke:none;" d="M324 325L325 326L324 325M238.333 330.667L238.667 331.333L238.333 330.667M260 335L261 336L260 335z"/>
<path style="fill:#040404; stroke:none;" d="M280 349L281 350L280 349z"/>
</svg>
