<?xml version="1.0" standalone="no"?>
<!DOCTYPE svg PUBLIC "-//W3C//DTD SVG 20010904//EN"
 "http://www.w3.org/TR/2001/REC-SVG-20010904/DTD/svg10.dtd">
<svg version="1.0" xmlns="http://www.w3.org/2000/svg"
 width="500.000000pt" height="500.000000pt" viewBox="0 0 500.000000 500.000000"
 preserveAspectRatio="xMidYMid meet">

<g transform="translate(0.000000,500.000000) scale(0.100000,-0.100000)"
fill="#000000" stroke="none">
<path d="M2340 4540 c-128 -10 -316 -47 -365 -71 l-40 -19 42 6 c23 3 50 1 60
-4 14 -8 10 -12 -27 -21 -25 -6 -81 -22 -125 -35 -44 -14 -91 -28 -104 -31
-13 -4 -64 -26 -115 -50 -50 -24 -125 -58 -166 -75 -213 -92 -383 -212 -510
-361 -57 -66 -53 -65 42 13 89 73 152 114 145 95 -5 -14 3 -12 46 8 49 24 44
12 -9 -22 -16 -10 -13 -10 12 -2 17 5 44 23 59 39 16 17 35 30 42 30 7 0 13 5
13 11 0 5 4 8 9 5 5 -3 11 0 14 8 11 27 252 128 419 176 109 31 314 71 357 69
14 -1 -14 -9 -64 -20 -217 -45 -325 -74 -445 -121 -97 -38 -334 -174 -377
-215 -18 -18 -43 -33 -55 -33 -39 0 -90 -19 -116 -42 -13 -13 -56 -60 -94
-105 -38 -46 -75 -83 -82 -83 -20 0 -111 -84 -162 -151 -58 -76 -132 -231
-183 -385 -126 -377 -143 -764 -50 -1144 16 -64 30 -96 57 -129 24 -29 38 -39
41 -30 5 15 26 39 35 39 3 0 15 -18 26 -40 31 -61 88 -118 144 -147 28 -14 62
-34 75 -44 28 -23 48 -25 31 -4 -11 13 -9 13 21 1 57 -25 122 -56 159 -77 19
-11 70 -38 113 -59 42 -22 77 -43 77 -46 0 -10 -56 4 -123 30 -73 30 -137 40
-137 23 0 -8 -3 -7 -9 2 -6 9 -10 9 -12 2 -3 -7 -27 1 -64 19 -33 17 -69 32
-80 34 -46 8 -65 19 -66 40 -1 17 -2 18 -6 3 -4 -14 -8 -15 -18 -7 -10 8 -15
8 -20 0 -8 -14 -126 102 -149 147 -9 17 -20 34 -26 38 -9 6 4 -38 34 -108 20
-45 107 -130 136 -132 12 -1 33 -14 48 -29 22 -22 24 -26 7 -20 -11 4 -29 15
-41 26 -11 10 -24 15 -28 11 -4 -4 -11 -1 -16 7 -6 8 -10 10 -10 4 0 -6 18
-30 41 -55 23 -24 39 -36 35 -26 -8 26 5 21 59 -24 28 -23 64 -48 80 -55 17
-8 44 -26 60 -40 l30 -26 -35 6 c-19 4 -68 23 -108 42 -40 20 -76 33 -79 30
-4 -3 -16 2 -27 11 l-20 18 18 -30 c49 -79 171 -237 227 -295 57 -58 167 -130
199 -130 6 0 -34 34 -89 75 -126 96 -153 127 -41 49 50 -36 97 -61 114 -62 16
-1 28 0 25 2 -19 18 -157 117 -196 140 -34 21 -43 31 -31 34 10 2 48 -15 85
-37 63 -38 92 -46 65 -19 -16 16 -16 33 1 21 21 -17 47 -23 44 -11 -2 11 3 13
35 17 6 0 3 7 -8 15 -16 12 -17 17 -6 28 11 11 12 10 6 -6 -6 -16 -4 -18 19
-13 14 4 27 3 29 -4 2 -5 11 -11 19 -12 9 -2 24 -10 33 -20 10 -9 20 -17 24
-18 4 0 33 -3 66 -6 48 -4 57 -3 50 8 -5 8 -9 19 -9 24 0 6 -14 11 -32 13 -17
2 -36 9 -42 16 -15 18 31 11 79 -12 47 -23 46 -22 30 -33 -11 -7 -6 -8 15 -3
22 4 26 3 15 -5 -17 -11 -21 -9 70 -37 30 -10 66 -25 80 -34 14 -10 42 -20 62
-24 21 -4 43 -15 50 -25 14 -20 328 -187 328 -175 0 4 6 0 13 -9 6 -9 36 -25
65 -35 68 -24 95 -48 32 -29 -74 23 -283 122 -405 192 -33 19 -67 35 -75 35
-20 0 60 -45 325 -184 69 -36 161 -76 175 -76 5 0 11 -4 14 -9 4 -5 -4 -8 -16
-6 -13 2 -42 7 -65 11 -24 4 -43 10 -43 15 0 4 -16 11 -35 15 -19 3 -35 10
-35 14 0 7 -82 56 -230 138 -25 14 -54 31 -65 38 -27 19 -46 18 -38 -3 5 -13
3 -15 -13 -9 -10 4 -32 9 -49 11 -30 3 -30 2 -27 -41 4 -40 7 -44 48 -61 39
-16 41 -19 21 -24 -20 -5 -18 -7 13 -16 26 -7 36 -6 40 2 6 14 42 4 40 -10 -1
-6 20 -18 46 -27 37 -13 43 -17 24 -18 -16 -1 -19 -4 -10 -7 8 -3 26 -10 39
-15 43 -16 17 -17 -52 -3 -36 8 -110 16 -164 19 -53 3 -101 10 -106 15 -6 6
-1 8 14 5 56 -13 -10 17 -103 46 -53 17 -119 39 -145 50 -45 19 -44 16 4 -18
20 -14 -49 22 -122 64 -25 14 -45 23 -45 20 0 -13 145 -116 156 -112 8 3 56
-13 108 -34 95 -39 121 -46 228 -54 47 -4 69 -13 137 -58 45 -29 76 -55 69
-57 -7 -2 -16 -8 -19 -13 -7 -12 -174 19 -212 39 -16 8 -36 12 -45 10 -41 -10
235 -120 416 -167 188 -48 305 -62 517 -62 258 0 420 26 665 109 364 123 746
398 982 708 209 274 305 515 375 940 28 174 24 430 -11 610 -69 360 -153 574
-327 836 -67 101 -112 153 -243 284 -275 273 -499 407 -871 520 -219 66 -502
95 -735 75z m-50 -134 c0 -2 -7 -6 -15 -10 -8 -3 -15 -1 -15 4 0 6 7 10 15 10
8 0 15 -2 15 -4z m-50 -86 c-8 -5 -28 -9 -45 -9 -30 2 -30 2 5 9 51 11 57 11
40 0z m-424 -9 c-3 -4 -38 -18 -78 -30 -40 -12 -83 -26 -96 -32 -34 -13 -46
-11 -28 6 8 8 21 15 29 15 8 0 20 7 27 15 7 8 29 16 49 16 29 1 79 10 99 18 2
0 1 -3 -2 -8z m519 -21 c11 -5 17 -9 13 -9 -4 -1 -56 -8 -115 -16 -59 -8 -126
-16 -148 -19 -72 -9 -198 -35 -290 -62 -180 -52 -285 -105 -447 -229 -40 -30
-80 -55 -88 -55 -38 1 180 165 295 223 76 38 246 92 365 116 301 60 373 69
415 51z m122 -56 c-3 -3 -12 -4 -19 -1 -8 3 -5 6 6 6 11 1 17 -2 13 -5z m-82
-11 c-11 -2 -35 -8 -52 -13 -18 -5 -33 -5 -33 0 0 9 36 17 80 17 19 1 20 0 5
-4z m-115 -22 c-8 -5 -40 -14 -70 -21 -30 -7 -59 -16 -65 -20 -5 -4 -30 -10
-55 -14 -25 -4 -52 -11 -60 -17 -11 -8 -8 -9 15 -4 17 3 66 5 110 4 158 -4
254 5 378 36 16 4 27 3 27 -3 0 -5 -21 -13 -47 -17 -27 -3 -77 -15 -113 -25
-68 -20 -81 -23 -170 -41 -30 -6 -63 -19 -72 -29 -24 -25 -23 -33 1 -18 11 7
17 16 15 20 -3 4 17 8 45 8 27 0 52 4 55 9 3 5 27 6 52 3 41 -4 46 -3 41 12
-6 15 -4 15 25 0 25 -13 32 -13 39 -3 4 8 11 10 15 6 4 -4 18 0 31 8 13 9 23
11 23 5 0 -5 5 -10 11 -10 5 0 8 4 4 9 -3 6 12 10 35 9 38 0 59 -17 23 -19
-10 0 -31 -3 -48 -5 -16 -3 -38 -5 -47 -5 -10 0 -18 -4 -18 -9 0 -4 -15 -10
-32 -13 -38 -6 -61 -11 -178 -38 -47 -11 -97 -23 -112 -26 -29 -6 -39 -23 -13
-23 8 0 15 -5 15 -11 0 -7 -10 -9 -26 -5 -16 4 -23 3 -20 -3 4 -5 2 -12 -4
-16 -6 -4 -10 4 -10 18 0 24 -1 25 -37 14 -51 -14 -60 -23 -60 -53 0 -13 -8
-33 -17 -43 -19 -21 -21 -45 -3 -39 6 3 41 13 76 24 35 10 66 24 68 31 3 7 11
13 19 13 8 0 14 5 14 10 0 6 13 10 28 10 16 0 37 7 48 15 27 20 37 18 31 -6
-5 -19 -2 -20 21 -15 15 3 54 11 88 16 77 12 96 19 87 34 -5 8 -3 8 8 0 8 -7
30 -15 49 -18 26 -5 31 -4 20 3 -12 9 -9 11 15 12 35 2 54 4 160 17 44 6 82 8
84 6 2 -2 -1 -4 -7 -4 -16 0 -15 -16 3 -33 12 -13 2 -16 -88 -26 -98 -11 -133
-17 -279 -46 -70 -14 -128 -39 -128 -55 0 -16 -80 -32 -124 -24 -39 7 -76 6
-85 -2 -10 -10 15 -19 82 -30 l72 -12 -61 -1 c-34 -1 -81 6 -105 14 -24 9 -55
13 -68 10 -36 -9 -11 -27 41 -30 24 -1 86 -5 138 -10 95 -8 101 -7 231 31 12
3 17 -2 17 -23 0 -24 -2 -25 -13 -10 -16 22 -26 22 -18 0 4 -11 3 -14 -5 -9
-7 4 -12 2 -12 -3 0 -6 12 -11 28 -12 15 0 -11 -11 -58 -24 -47 -13 -100 -28
-119 -34 -19 -6 -38 -8 -42 -5 -5 2 -18 -1 -29 -8 -17 -11 -22 -11 -30 2 -13
21 -12 30 3 30 8 0 23 10 35 23 l21 22 -97 -1 c-116 -2 -162 4 -162 21 0 8 3
15 8 18 4 2 1 2 -6 0 -8 -1 -21 -3 -30 -3 -12 0 -13 -3 -4 -12 7 -7 8 -16 3
-22 -5 -6 -11 -25 -14 -43 -6 -37 -14 -53 -28 -53 -12 0 -12 47 1 55 5 3 8 16
6 28 -3 17 -10 22 -31 20 -35 -3 -52 -17 -80 -72 -13 -25 -35 -55 -49 -65 -14
-10 -26 -24 -26 -31 0 -7 -15 -22 -34 -33 -19 -11 -40 -31 -47 -44 -10 -19
-10 -21 2 -12 22 18 182 40 187 26 2 -7 10 -12 18 -12 22 0 -21 -38 -52 -46
-42 -11 -68 -10 -76 1 -5 6 -18 4 -40 -6 -100 -49 -135 -64 -149 -65 -8 -1
-27 -9 -42 -19 -21 -13 -27 -14 -27 -4 0 9 -3 10 -8 4 -4 -5 -25 -12 -47 -13
-22 -2 -46 -9 -52 -14 -7 -6 -22 -8 -32 -5 -12 3 -22 -1 -25 -10 -3 -8 -10
-11 -16 -8 -5 3 -10 1 -10 -4 0 -6 -6 -11 -14 -11 -7 0 -25 -9 -40 -21 -14
-11 -26 -17 -26 -13 0 5 -5 3 -12 -4 -16 -16 -41 -16 -32 1 4 6 -3 2 -15 -10
-21 -23 -58 -33 -46 -13 3 6 12 10 20 10 7 0 15 7 19 15 3 8 15 15 26 15 11 0
23 6 26 14 3 7 23 21 45 31 21 10 39 21 39 24 0 16 197 104 211 95 5 -3 9 0 9
5 0 6 5 11 10 11 26 0 162 117 239 203 17 20 19 27 9 27 -20 0 -73 -17 -125
-41 -24 -10 -47 -19 -53 -19 -14 0 -327 -147 -340 -160 -3 -3 -22 -14 -43 -24
-21 -11 -49 -30 -63 -43 -13 -12 -26 -21 -28 -20 -7 5 -126 -85 -146 -111
l-22 -27 27 -11 c22 -9 24 -13 12 -22 -8 -7 -16 -10 -19 -7 -7 7 -24 -15 -32
-42 -6 -18 -4 -22 8 -17 13 5 12 -4 -4 -62 -11 -37 -17 -71 -14 -76 3 -5 -15
-33 -40 -63 -25 -29 -46 -60 -46 -69 0 -9 -2 -16 -4 -16 -2 0 -11 -3 -19 -6
-28 -10 -29 41 -1 93 15 29 23 58 21 73 -4 18 6 42 34 84 64 96 49 118 -23 34
-47 -55 -104 -160 -144 -263 -31 -81 -47 -115 -56 -115 -5 0 -8 -12 -8 -27 0
-14 3 -23 7 -20 3 4 12 2 18 -3 10 -8 9 -20 -2 -52 -8 -24 -18 -75 -23 -115
-4 -41 -13 -80 -20 -88 -9 -10 -10 -35 -5 -85 7 -68 8 -70 33 -68 22 3 35 -10
94 -92 37 -52 86 -113 108 -136 38 -39 50 -64 31 -64 -20 0 -110 84 -111 105
0 6 -14 23 -30 39 -17 16 -30 33 -30 38 0 26 -32 -27 -38 -63 -23 -133 -87 39
-98 261 -5 105 -3 141 15 224 12 55 21 112 21 127 0 33 62 209 89 253 11 17
27 53 36 79 9 27 29 68 45 93 17 27 26 53 23 65 -3 12 2 29 14 42 11 12 23 31
27 42 6 16 9 17 16 5 8 -12 10 -11 10 5 0 15 2 17 9 6 7 -11 15 -9 40 10 20
15 27 25 20 30 -16 10 -68 -10 -93 -35 -20 -20 -21 -20 -24 -2 -3 11 3 25 11
31 9 6 18 29 20 51 7 52 48 123 101 172 24 22 43 48 43 57 -1 9 9 24 23 33
l24 17 -16 -24 c-9 -13 -14 -29 -11 -36 2 -8 0 -23 -7 -34 -20 -39 15 -24 71
30 136 129 355 249 480 263 26 3 66 14 90 24 24 11 62 23 84 27 49 10 31 5
205 55 79 23 162 50 183 60 21 10 45 16 53 13 9 -3 12 0 9 9 -7 17 31 36 83
41 65 7 45 19 -23 13 -38 -3 -88 -5 -110 -5 -30 -1 -36 -3 -25 -11 11 -7 7 -8
-16 -4 -22 4 -61 -4 -130 -29 -55 -19 -108 -38 -119 -41 -11 -4 -6 1 10 10 17
10 58 27 93 40 69 24 85 34 56 34 -62 2 254 91 346 98 18 1 21 -1 10 -7z m323
-38 c-7 -2 -19 -2 -25 0 -7 3 -2 5 12 5 14 0 19 -2 13 -5z m35 -58 c-3 -3 -9
2 -12 12 -6 14 -5 15 5 6 7 -7 10 -15 7 -18z m-697 -41 c-18 -8 -38 -13 -45
-11 -6 3 5 9 24 15 50 15 60 13 21 -4z m-711 -7 c0 -2 -12 -14 -26 -28 -25
-22 -26 -23 -15 -2 9 18 19 26 39 32 1 1 2 0 2 -2z m425 -87 c-3 -5 -11 -10
-16 -10 -6 0 -7 5 -4 10 3 6 11 10 16 10 6 0 7 -4 4 -10z m1005 -120 c-20 -13
-33 -13 -25 0 3 6 14 10 23 10 15 0 15 -2 2 -10z m-1550 -55 c-14 -8 -32 -12
-41 -9 -9 2 -24 -5 -34 -16 -10 -11 -23 -20 -28 -20 -6 0 -2 9 8 20 19 20 63
38 100 39 17 0 17 -2 -5 -14z m1502 -54 c-15 -8 -40 -16 -57 -16 -16 -1 -50
-5 -75 -10 -39 -7 -43 -6 -32 8 10 12 10 16 0 21 -7 3 1 4 17 1 17 -2 46 -1
65 4 19 4 52 7 72 7 l38 -1 -28 -14z m-1527 -21 c8 -13 -85 -100 -107 -100
-17 0 -17 2 0 38 9 20 26 45 36 55 21 19 61 23 71 7z m995 -82 c-32 -12 -51
-3 -20 10 14 5 29 7 34 4 5 -3 -1 -9 -14 -14z m655 -48 c-3 -5 -12 -10 -18
-10 -7 0 -6 4 3 10 19 12 23 12 15 0z m100 0 c-3 -5 -12 -10 -18 -10 -7 0 -6
4 3 10 19 12 23 12 15 0z m-141 -15 c12 -12 23 -13 58 -6 40 9 68 7 37 -3 -8
-2 -38 -12 -66 -21 -33 -10 -53 -22 -53 -31 0 -10 -6 -13 -19 -9 -12 3 -21 0
-25 -10 -3 -8 -14 -15 -24 -15 -10 0 -23 -5 -30 -12 -7 -7 -12 -8 -12 -4 0 5
-9 -2 -19 -15 -18 -22 -20 -22 -26 -7 -5 14 -11 15 -25 8 -10 -6 -27 -10 -37
-10 -10 0 -49 -29 -87 -65 -38 -36 -71 -63 -73 -61 -2 2 3 11 12 20 27 26 -3
19 -75 -19 -36 -19 -89 -47 -118 -61 -39 -19 -56 -34 -67 -60 -8 -19 -24 -38
-37 -43 -13 -5 -38 -21 -57 -35 -19 -14 -44 -26 -55 -26 -17 0 -18 2 -6 9 8 6
17 8 21 6 11 -8 50 80 43 98 -5 14 -2 16 12 10 16 -5 17 -4 7 8 -9 11 -6 20
11 40 13 15 32 30 43 33 11 3 42 26 69 51 27 24 55 44 61 45 19 0 126 60 146
81 16 17 48 24 84 20 12 -2 171 57 228 84 40 18 60 18 79 0z m-724 -15 c-31
-23 -63 -33 -57 -17 4 14 46 37 67 37 10 0 7 -7 -10 -20z m920 -39 c7 10 12
10 23 1 8 -7 22 -10 31 -6 11 4 16 1 16 -10 0 -24 1 -30 11 -48 8 -15 6 -18
-12 -18 -13 0 -47 -27 -91 -72 -59 -62 -69 -77 -64 -100 4 -22 2 -26 -10 -21
-13 5 -15 1 -9 -15 7 -25 2 -27 -26 -12 -27 15 -93 -34 -85 -64 3 -13 -3 -29
-16 -43 -12 -13 -18 -26 -14 -30 4 -4 12 -1 17 7 9 12 10 11 5 -4 -4 -10 -1
-25 5 -32 16 -19 -1 -18 -22 2 -10 9 -30 17 -44 17 -24 0 -25 2 -18 41 6 37 5
40 -10 27 -10 -7 -17 -26 -17 -42 0 -22 -5 -29 -19 -29 -10 0 -24 -7 -31 -15
-7 -8 -21 -15 -31 -15 -22 0 -31 -13 -23 -34 7 -19 70 -22 77 -3 3 8 12 5 30
-12 14 -13 23 -29 21 -36 -3 -7 -1 -16 5 -20 16 -9 13 -25 -4 -25 -19 0 -55
31 -55 46 0 14 -25 26 -34 17 -3 -4 -6 -27 -7 -52 0 -25 -3 -39 -6 -31 -8 20
-24 30 -50 30 -17 0 -21 -4 -16 -17 7 -18 26 -43 54 -72 9 -9 19 -24 22 -33 3
-10 12 -15 20 -12 7 2 22 -4 32 -16 13 -14 22 -17 30 -10 13 11 43 -15 32 -27
-4 -3 -2 -12 5 -20 6 -7 8 -16 5 -20 -8 -7 -57 24 -57 37 0 6 -9 10 -19 10
-10 0 -22 7 -25 16 -4 11 -16 15 -42 12 -26 -2 -40 2 -50 16 -16 22 -19 20
-43 -26 -25 -45 -57 -45 -88 1 -29 42 -26 67 5 63 23 -3 29 7 12 24 -8 8 -7
14 3 23 11 9 17 8 27 -4 14 -17 40 -20 40 -5 0 6 -9 14 -20 18 -14 5 -17 11
-10 22 7 10 10 11 10 3 0 -7 5 -13 10 -13 18 0 11 18 -10 25 -11 3 -20 14 -20
24 0 9 -5 22 -12 29 -6 6 -12 34 -12 62 0 27 -3 50 -8 50 -14 0 -8 20 12 40
12 12 18 25 15 30 -6 10 15 31 93 95 46 37 82 46 82 20 0 -8 3 -15 6 -15 16 0
81 45 104 72 14 16 33 30 41 31 9 2 23 9 32 17 32 29 42 35 62 35 16 0 20 7
20 30 0 23 4 30 20 30 11 0 20 6 20 13 0 16 59 52 64 39 2 -5 7 -3 11 4z
m-320 -91 c-8 -5 -17 -7 -19 -4 -3 3 1 9 9 14 8 5 17 7 19 4 3 -3 -1 -9 -9
-14z m-693 -37 c-3 -10 -5 -2 -5 17 0 19 2 27 5 18 2 -10 2 -26 0 -35z m1099
-27 c-18 -39 -45 -55 -43 -27 1 11 7 17 14 14 8 -3 13 -2 11 3 -3 12 22 57 29
50 3 -3 -2 -21 -11 -40z m-1260 -33 c-10 -10 -19 5 -10 18 6 11 8 11 12 0 2
-7 1 -15 -2 -18z m-200 -5 c10 -15 -43 -57 -82 -64 -19 -3 -34 -11 -34 -16 0
-6 -9 0 -20 13 -12 14 -18 17 -14 8 3 -10 -2 -19 -12 -23 -22 -8 -23 -6 -14
20 6 14 25 26 55 35 26 8 49 19 51 24 6 14 62 17 70 3z m854 -6 c0 -13 -61
-75 -67 -69 -3 4 10 22 28 40 40 40 39 39 39 29z m-670 -31 c0 -10 -10 -25
-22 -33 -13 -8 -18 -19 -14 -26 5 -9 13 -8 29 3 55 39 41 -1 -26 -71 -52 -55
-90 -75 -86 -46 1 9 -1 30 -6 46 -6 22 -4 31 9 38 9 5 16 13 16 17 0 13 73 88
88 90 6 0 12 -7 12 -18z m118 -51 c-1 -17 -7 -35 -15 -41 -7 -6 -13 -20 -13
-30 0 -11 -4 -19 -10 -19 -12 0 -11 78 2 103 15 28 37 21 36 -13z m-67 -42
c-9 -24 -41 -38 -41 -17 0 12 28 38 42 39 4 0 4 -10 -1 -22z m-1051 -7 c0 -4
-26 -44 -57 -87 -31 -43 -65 -101 -75 -128 -11 -27 -26 -59 -34 -70 -14 -20
-15 -20 -8 9 16 72 96 215 120 215 6 0 18 16 27 35 16 34 27 44 27 26z m770
-50 c0 -6 -5 -13 -11 -16 -6 -4 -8 -14 -5 -22 3 -8 -3 -24 -14 -35 -11 -12
-19 -27 -18 -33 2 -6 -1 -11 -5 -12 -5 -1 -17 -11 -26 -22 -18 -21 -18 -21
-25 10 -7 35 2 79 15 79 5 0 9 8 9 18 0 10 5 23 12 30 14 14 68 16 68 3z m370
-15 c0 -3 -4 -8 -10 -11 -5 -3 -10 -1 -10 4 0 6 5 11 10 11 6 0 10 -2 10 -4z
m-10 -42 c0 -21 -18 -54 -30 -54 -13 0 -13 12 0 44 10 29 30 35 30 10z m-501
-51 c0 -11 -3 -13 -6 -5 -2 6 -9 10 -14 6 -5 -3 -9 0 -9 5 0 6 7 11 15 11 8 0
15 -8 14 -17z m-142 -28 c-4 -8 -18 -15 -34 -15 l-28 0 30 19 c33 20 40 19 32
-4z m653 -4 c0 -20 -17 -37 -27 -28 -7 8 7 47 18 47 5 0 9 -9 9 -19z m-520
-41 c0 -5 -5 -10 -11 -10 -5 0 -7 5 -4 10 3 6 8 10 11 10 2 0 4 -4 4 -10z
m445 -4 c18 -13 18 -15 1 -41 l-18 -27 -14 28 c-24 45 -6 68 31 40z m-451 -37
c-3 -6 -12 -8 -19 -6 -7 3 -20 -10 -30 -31 -16 -33 -18 -35 -25 -17 -9 23 -3
38 11 30 5 -4 9 2 9 12 0 29 20 44 42 32 10 -5 16 -15 12 -20z m1425 4 c75
-36 138 -88 144 -118 2 -14 0 -25 -4 -25 -5 0 -9 5 -9 10 0 14 -159 129 -187
136 -13 4 -20 10 -17 15 8 13 11 12 73 -18z m-2071 -49 c-11 -27 -23 -43 -25
-37 -4 12 37 96 44 89 2 -1 -7 -25 -19 -52z m552 26 c0 -5 -4 -10 -10 -10 -5
0 -10 5 -10 10 0 6 5 10 10 10 6 0 10 -4 10 -10z m1000 -57 c0 -5 -7 -17 -15
-27 -14 -19 -15 -19 -15 7 0 17 5 27 15 27 8 0 15 -3 15 -7z m26 -115 c-3 -13
-6 -36 -6 -52 0 -33 -17 -25 -20 9 -5 44 0 65 16 65 12 0 15 -6 10 -22z
m-1636 -14 c0 -14 -4 -23 -9 -20 -5 3 -7 15 -4 26 7 28 13 25 13 -6z m750 19
c0 -5 -5 -15 -10 -23 -8 -12 -10 -11 -10 8 0 12 5 22 10 22 6 0 10 -3 10 -7z
m-130 -77 c-5 -5 -10 -18 -10 -28 0 -10 -4 -18 -10 -18 -5 0 -10 9 -10 20 0
11 5 20 10 20 6 0 10 4 10 9 0 11 -38 2 -46 -11 -4 -6 0 -14 7 -19 10 -6 7 -8
-9 -6 -30 2 -28 12 15 54 l36 37 9 -24 c5 -15 5 -27 -2 -34z m50 25 c0 -6 -4
-13 -10 -16 -5 -3 -10 1 -10 9 0 9 5 16 10 16 6 0 10 -4 10 -9z m-97 -105
c-21 -28 -24 -28 -16 2 3 12 12 22 20 22 11 0 10 -5 -4 -24z m1707 -61 c0 -8
-4 -15 -10 -15 -5 0 -10 7 -10 15 0 8 5 15 10 15 6 0 10 -7 10 -15z m-1740
-14 c0 -5 -7 -11 -15 -15 -15 -5 -20 5 -8 17 9 10 23 9 23 -2z m1520 -41 c0
-5 -4 -10 -10 -10 -5 0 -10 5 -10 10 0 6 5 10 10 10 6 0 10 -4 10 -10z m42
-35 c15 -33 -5 -60 -33 -44 -22 11 -25 39 -7 57 18 18 27 15 40 -13z m197 -25
l-1 -25 -8 25 c-4 14 -8 32 -9 40 -1 13 0 13 9 0 5 -8 9 -26 9 -40z m-1518
-34 c-7 -8 -8 -17 -3 -20 6 -3 13 1 16 10 3 8 10 12 16 9 12 -7 14 -42 3 -47
-12 -5 -48 -59 -64 -95 -14 -32 -29 -44 -29 -22 0 5 -4 7 -10 4 -5 -3 -7 -19
-3 -36 4 -23 2 -30 -8 -29 -28 4 -34 0 -35 -26 -1 -14 -5 -28 -8 -32 -7 -6
-55 47 -56 62 0 4 -11 22 -26 38 -14 17 -28 44 -31 60 -3 15 -10 31 -14 34 -5
3 -9 15 -9 27 0 20 0 20 15 1 8 -10 15 -28 15 -39 1 -17 3 -17 12 5 10 24 11
22 28 -30 18 -57 50 -124 56 -118 1 2 4 24 5 48 2 66 20 110 46 116 12 3 27 3
32 -1 6 -3 11 1 11 9 0 9 -7 16 -15 16 -27 0 -16 31 15 41 21 8 30 18 30 32 0
16 3 18 12 9 8 -8 8 -15 -1 -26z m-138 -69 c-5 -7 -9 -29 -7 -49 1 -21 -2 -35
-7 -32 -5 3 -9 13 -9 23 0 9 -5 22 -12 29 -9 9 -6 18 12 37 23 25 42 18 23 -8z
m1447 24 c0 -6 -4 -13 -10 -16 -5 -3 -10 1 -10 9 0 9 5 16 10 16 6 0 10 -4 10
-9z m-27 -85 c19 -6 23 -26 5 -26 -16 0 -29 9 -48 34 -14 18 -14 18 5 8 11 -6
28 -13 38 -16z m237 -61 c7 -8 17 -15 23 -15 21 0 77 -52 77 -71 0 -22 -44
-27 -57 -6 -4 6 -29 28 -55 47 -26 19 -48 38 -48 42 0 6 16 12 41 17 4 0 12
-6 19 -14z m-2000 -220 c36 -15 72 -33 80 -40 8 -7 35 -18 60 -25 25 -7 52
-17 60 -24 32 -25 208 -88 238 -85 9 1 19 0 22 -1 3 -1 31 -4 63 -6 45 -4 63
-2 76 10 10 9 37 17 60 20 24 2 47 9 51 16 10 16 40 6 40 -13 0 -14 48 -56 80
-70 8 -4 29 -16 45 -27 43 -28 68 -38 83 -33 20 8 14 26 -8 20 -11 -3 -20 -1
-20 4 0 12 22 11 54 -1 17 -6 26 -6 26 0 0 6 8 5 19 -2 11 -7 17 -16 15 -20
-8 -13 21 -9 34 4 9 9 12 8 12 -5 0 -9 7 -17 15 -17 8 0 29 -9 47 -20 18 -11
41 -20 51 -20 9 0 17 -4 17 -10 0 -13 -13 -12 -85 4 -33 8 -64 12 -69 9 -5 -3
-15 1 -21 11 -12 16 -50 12 -40 -5 3 -4 12 -6 20 -2 10 3 15 -1 15 -12 0 -14
-6 -15 -32 -10 -18 4 -39 11 -48 16 -16 9 -85 37 -98 40 -4 1 -16 8 -27 15
-11 8 -33 14 -50 14 -16 0 -25 -4 -19 -8 6 -4 14 -17 18 -29 9 -29 -12 -31
-45 -4 -20 16 -22 21 -9 36 12 14 12 18 -1 26 -21 13 -34 11 -54 -11 -10 -11
-26 -22 -37 -26 -10 -3 -23 -16 -28 -29 -8 -20 -13 -22 -43 -15 -19 4 -47 14
-63 23 -16 8 -65 25 -109 36 -81 22 -106 31 -158 57 -16 8 -36 14 -46 14 -9 0
-26 7 -37 15 -12 8 -24 12 -27 8 -4 -3 -13 0 -21 6 -8 7 -20 10 -26 6 -5 -3
-10 1 -10 9 0 9 5 16 10 16 6 0 10 5 10 10 0 6 -6 10 -14 10 -20 0 -105 75
-141 124 -16 23 -23 36 -15 30 8 -7 44 -24 80 -39z m60 -137 c0 -11 -12 -10
-30 2 -12 7 -10 9 8 7 12 0 22 -5 22 -9z m860 -60 c0 -12 -10 -9 -26 6 -20 21
-17 28 6 14 11 -7 20 -16 20 -20z m-35 -18 c3 -5 1 -10 -4 -10 -6 0 -11 5 -11
10 0 6 2 10 4 10 3 0 8 -4 11 -10z m77 -12 c-9 -9 -15 -9 -24 0 -9 9 -7 12 12
12 19 0 21 -3 12 -12z m233 -58 c3 -5 1 -10 -4 -10 -6 0 -11 5 -11 10 0 6 2
10 4 10 3 0 8 -4 11 -10z m125 -25 c30 -4 61 -11 70 -16 8 -4 35 -13 60 -18
25 -5 63 -14 85 -20 25 -6 41 -7 43 -1 4 12 32 13 32 1 0 -4 12 -6 26 -3 14 2
49 0 78 -7 219 -49 259 -60 231 -62 -16 -1 -39 -2 -50 -1 -11 1 -32 2 -47 3
-16 0 -28 5 -28 10 0 5 -8 4 -19 -3 -25 -15 -242 4 -274 25 -20 13 -24 13 -37
-2 -14 -14 -15 -14 -18 4 -3 23 -25 34 -132 65 -41 11 -83 23 -92 26 -10 3
-18 10 -18 15 0 6 7 6 18 1 9 -6 42 -13 72 -17z m-1169 -168 c-1 -12 -15 -9
-19 4 -3 6 1 10 8 8 6 -3 11 -8 11 -12z m1094 -52 c129 -27 175 -31 175 -15 0
13 73 3 115 -15 17 -7 48 -19 70 -26 22 -6 49 -18 61 -25 11 -8 34 -15 50 -17
16 -2 34 -6 39 -9 6 -3 22 -8 37 -12 21 -5 26 -11 23 -28 -3 -13 -15 -30 -26
-39 -14 -10 -20 -22 -16 -33 5 -13 -1 -16 -32 -16 -44 0 -73 8 -66 19 2 4 -35
21 -83 36 -48 16 -105 36 -127 46 -22 9 -53 21 -70 26 -16 6 -30 16 -30 24 0
10 -11 13 -35 11 -26 -1 -31 0 -20 8 18 11 19 11 -45 16 -52 5 -195 53 -195
66 0 14 51 9 175 -17z m-607 -71 c34 -9 62 -21 62 -26 0 -10 -1 -10 -46 6 -22
7 -64 16 -94 20 -146 17 -147 17 -160 1 -11 -13 -8 -15 16 -15 20 0 25 -3 16
-9 -8 -5 -36 -7 -63 -5 -61 4 -126 -26 -135 -63 l-6 -24 -23 21 c-25 23 -29
50 -7 50 9 0 13 7 9 20 -4 15 0 20 16 21 12 0 48 4 80 8 45 6 57 4 53 -6 -3
-7 -1 -13 5 -13 6 0 13 9 16 19 3 11 15 21 27 23 39 6 170 -10 234 -28z m-613
-44 c14 -23 -16 -7 -56 31 l-44 40 47 -30 c26 -17 50 -36 53 -41z m711 -32 c4
-6 -2 -7 -17 -3 -35 10 -45 23 -15 18 15 -3 29 -10 32 -15z m69 12 c3 -6 -1
-7 -9 -4 -18 7 -21 14 -7 14 6 0 13 -4 16 -10z m-20 -20 c3 -5 2 -10 -4 -10
-5 0 -13 5 -16 10 -3 6 -2 10 4 10 5 0 13 -4 16 -10z m87 1 c13 -5 79 -26 148
-47 123 -36 150 -48 150 -65 0 -15 -32 -10 -44 7 -7 8 -23 17 -36 19 -14 1
-44 6 -67 9 -24 3 -71 17 -105 31 -34 14 -68 23 -75 21 -6 -3 -17 1 -23 9 -8
10 -8 14 2 18 20 8 25 8 50 -2z m212 -120 c50 -12 95 -26 101 -31 13 -11 84
-30 138 -37 20 -3 40 -9 43 -14 3 -5 20 -9 39 -9 19 0 37 -4 40 -10 4 -6 -11
-7 -39 -4 -37 6 -46 4 -46 -9 0 -13 46 -27 110 -32 42 -4 101 -19 106 -27 6
-9 1 -9 -135 13 -76 13 -104 29 -95 54 5 12 -3 14 -45 10 -28 -3 -51 -2 -51 2
0 5 -14 8 -30 9 -17 1 -30 -3 -30 -9 0 -6 -9 -2 -20 8 -19 17 -20 17 -20 -1 0
-17 -2 -16 -16 4 -8 12 -24 22 -34 22 -11 0 -27 8 -37 19 -10 10 -34 22 -53
26 -45 9 -90 28 -90 37 0 12 64 3 164 -21z m199 2 c5 -3 -1 -12 -12 -20 -18
-12 -25 -12 -56 3 -50 24 -45 38 13 29 26 -4 51 -9 55 -12z m-408 -3 c3 -5 1
-10 -4 -10 -6 0 -11 5 -11 10 0 6 2 10 4 10 3 0 8 -4 11 -10z m575 -30 c69
-13 158 -50 118 -50 -9 0 -20 5 -23 10 -4 7 -12 7 -25 0 -12 -7 -21 -7 -25 0
-3 5 -16 9 -28 8 -12 0 -35 7 -52 16 -16 9 -45 16 -62 16 -18 0 -33 5 -33 11
0 7 11 9 28 6 15 -2 61 -10 102 -17z m69 -86 c13 -12 -8 -10 -29 2 l-25 15 25
-7 c14 -3 27 -8 29 -10z m-281 -44 c19 0 21 -3 12 -20 -10 -19 -12 -19 -45 -2
-39 19 -47 38 -12 28 12 -3 32 -6 45 -6z m82 -20 c0 -5 -4 -10 -9 -10 -6 0
-13 5 -16 10 -3 6 1 10 9 10 9 0 16 -4 16 -10z m137 -56 c7 3 13 1 13 -5 0 -6
10 -8 23 -4 19 5 19 4 5 -5 -9 -6 -30 -8 -45 -4 -15 3 -50 10 -78 15 -61 11
-127 34 -120 41 3 3 47 -6 97 -19 51 -13 98 -21 105 -19z m-502 -56 c125 -86
145 -102 145 -109 0 -13 -3 -12 -51 16 -24 14 -40 25 -36 25 17 0 -68 69 -93
75 -50 12 -82 28 -69 36 15 9 51 -6 104 -43z m420 -3 l50 -15 -44 5 c-24 3
-51 10 -60 15 -23 14 -3 12 54 -5z m0 -65 c3 -6 -1 -7 -9 -4 -18 7 -21 14 -7
14 6 0 13 -4 16 -10z"/>
<path d="M1948 4113 c7 -3 16 -2 19 1 4 3 -2 6 -13 5 -11 0 -14 -3 -6 -6z"/>
<path d="M1898 3973 c6 -2 18 -2 25 0 6 3 1 5 -13 5 -14 0 -19 -2 -12 -5z"/>
<path d="M1840 3960 c0 -5 7 -10 15 -10 8 0 15 5 15 10 0 6 -7 10 -15 10 -8 0
-15 -4 -15 -10z"/>
<path d="M1810 3950 c-9 -6 -10 -10 -3 -10 6 0 15 5 18 10 8 12 4 12 -15 0z"/>
<path d="M1745 3940 c-3 -5 -20 -12 -38 -15 -17 -4 -52 -15 -77 -25 -25 -10
-83 -33 -130 -51 -47 -17 -89 -36 -95 -41 -5 -4 -15 -8 -22 -8 -22 0 -198 -89
-178 -90 6 0 2 -5 -7 -11 -10 -5 -18 -16 -18 -23 0 -8 -6 -16 -14 -19 -10 -4
-13 -15 -10 -32 3 -18 -1 -28 -13 -33 -31 -13 -93 -54 -93 -61 0 -3 10 -11 23
-17 18 -8 33 -5 79 18 31 15 59 32 63 38 3 5 16 10 28 10 13 0 31 6 42 14 11
7 31 17 45 21 14 4 48 18 75 30 28 12 77 32 110 44 33 13 75 29 93 37 18 8 39
14 47 14 9 0 24 5 35 10 11 6 29 15 40 20 11 6 29 10 40 10 12 0 31 11 44 25
13 14 31 25 41 25 16 0 16 1 0 26 -18 28 -14 44 7 26 10 -7 23 -1 50 22 65 57
49 54 -212 -31 -74 -25 -166 -58 -205 -73 -128 -53 -235 -89 -235 -79 0 5 7 9
15 9 8 0 45 16 82 35 37 19 71 35 75 35 5 0 28 9 52 21 24 11 101 39 172 63
70 23 129 47 131 52 4 12 -35 16 -42 4z m-330 -204 c-16 -13 -32 -22 -34 -20
-7 7 33 43 49 43 9 1 3 -9 -15 -23z"/>
<path d="M1890 3849 c0 -5 5 -7 10 -4 6 3 10 8 10 11 0 2 -4 4 -10 4 -5 0 -10
-5 -10 -11z"/>
<path d="M2215 3830 c-8 -13 5 -13 25 0 13 8 13 10 -2 10 -9 0 -20 -4 -23 -10z"/>
<path d="M1061 3579 c-18 -17 -31 -32 -29 -35 6 -6 78 46 78 56 0 18 -16 11
-49 -21z"/>
<path d="M865 3380 c-8 -13 9 -20 24 -11 10 6 9 10 -3 14 -8 3 -18 2 -21 -3z"/>
<path d="M550 2165 c0 -8 4 -15 10 -15 5 0 7 7 4 15 -4 8 -8 15 -10 15 -2 0
-4 -7 -4 -15z"/>
<path d="M2413 3144 c-36 -15 -45 -44 -14 -44 11 0 23 -5 26 -10 11 -17 32 7
37 40 5 33 -1 35 -49 14z"/>
<path d="M1330 2330 c0 -5 5 -10 11 -10 5 0 7 5 4 10 -3 6 -8 10 -11 10 -2 0
-4 -4 -4 -10z"/>
<path d="M1290 2230 c0 -5 5 -10 10 -10 6 0 10 5 10 10 0 6 -4 10 -10 10 -5 0
-10 -4 -10 -10z"/>
<path d="M2940 2090 c0 -5 5 -10 10 -10 6 0 10 5 10 10 0 6 -4 10 -10 10 -5 0
-10 -4 -10 -10z"/>
<path d="M2610 1540 c0 -5 4 -10 9 -10 6 0 13 5 16 10 3 6 -1 10 -9 10 -9 0
-16 -4 -16 -10z"/>
<path d="M2660 1540 c0 -5 5 -10 10 -10 6 0 10 5 10 10 0 6 -4 10 -10 10 -5 0
-10 -4 -10 -10z"/>
<path d="M2290 1339 c0 -5 5 -7 10 -4 6 3 10 8 10 11 0 2 -4 4 -10 4 -5 0 -10
-5 -10 -11z"/>
<path d="M2100 1151 c0 -5 9 -11 20 -14 24 -6 27 8 4 17 -21 8 -24 8 -24 -3z"/>
<path d="M611 1814 c0 -11 3 -14 6 -6 3 7 2 16 -1 19 -3 4 -6 -2 -5 -13z"/>
<path d="M674 1745 c-6 -14 2 -27 32 -51 21 -18 40 -31 43 -29 2 3 10 -3 18
-13 12 -16 13 -15 6 3 -4 11 -26 40 -50 64 -37 39 -43 42 -49 26z"/>
<path d="M720 1493 c0 -13 29 -38 35 -31 3 3 -4 13 -15 23 -11 10 -20 13 -20
8z"/>
<path d="M1228 1164 c-7 -7 2 -44 11 -44 4 0 17 7 30 16 18 13 20 18 10 25
-16 10 -43 12 -51 3z"/>
<path d="M1135 1128 c3 -7 18 -21 33 -30 15 -10 39 -27 54 -39 15 -13 31 -19
35 -16 4 4 -3 14 -15 23 -13 9 -19 21 -15 31 4 11 2 14 -8 11 -8 -3 -21 0 -29
7 -24 20 -61 29 -55 13z"/>
<path d="M1446 1065 c5 -20 2 -25 -12 -25 -11 0 2 -12 31 -29 28 -15 53 -26
58 -24 4 2 7 17 7 33 0 21 -8 33 -34 49 -45 28 -58 27 -50 -4z"/>
<path d="M1380 1068 c0 -9 5 -20 11 -23 17 -11 20 0 4 21 -13 17 -14 17 -15 2z"/>
<path d="M1180 1032 c0 -4 19 -18 43 -32 56 -34 57 -34 57 -18 0 8 -22 24 -50
35 -27 12 -50 18 -50 15z"/>
<path d="M1485 731 c-4 -7 0 -8 11 -4 11 4 15 2 11 -4 -4 -6 -1 -13 7 -16 9
-4 13 0 12 11 -3 20 -31 28 -41 13z"/>
<path d="M1580 705 c46 -18 61 -18 30 0 -14 8 -34 14 -45 14 -13 0 -8 -5 15
-14z"/>
<path d="M1740 690 c0 -5 9 -14 19 -19 16 -9 18 -8 14 9 -5 20 -33 29 -33 10z"/>
</g>
</svg>
