<?xml version="1.0" standalone="no"?>
<!DOCTYPE svg PUBLIC "-//W3C//DTD SVG 20010904//EN"
 "http://www.w3.org/TR/2001/REC-SVG-20010904/DTD/svg10.dtd">
<svg version="1.0" xmlns="http://www.w3.org/2000/svg"
 width="672.000000pt" height="371.000000pt" viewBox="0 0 672.000000 371.000000"
 preserveAspectRatio="xMidYMid meet">

<g transform="translate(0.000000,371.000000) scale(0.100000,-0.100000)"
fill="#000000" stroke="none">
<path d="M3015 3380 c-179 -28 -405 -125 -575 -246 -189 -135 -374 -350 -479
-559 -63 -125 -109 -244 -87 -225 9 7 16 19 16 26 0 8 4 22 9 32 5 9 20 44 34
78 27 66 95 170 149 230 77 84 110 114 119 108 6 -3 13 3 16 15 3 12 11 21 19
21 7 0 18 9 24 20 8 15 8 20 -2 20 -10 0 -9 3 1 9 8 5 20 7 28 4 8 -3 21 1 31
8 31 26 90 51 101 45 6 -4 11 -1 11 6 0 18 97 48 138 43 23 -3 32 0 32 10 0
17 42 12 99 -11 19 -8 36 -12 39 -9 3 3 12 -4 19 -15 8 -11 18 -18 23 -15 17
11 16 -21 -1 -44 -41 -52 -16 -68 53 -34 78 38 127 53 121 37 -4 -10 4 -12 31
-7 35 5 51 -9 24 -20 -8 -3 -6 -6 5 -6 20 -1 23 -17 5 -24 -7 -3 -2 -6 12 -6
15 -1 31 -6 38 -13 9 -9 12 -8 12 6 0 17 2 17 25 2 30 -20 46 -21 19 -1 -15
11 -16 15 -4 15 9 1 6 5 -7 10 -23 9 -32 30 -13 30 6 0 10 -4 10 -10 0 -5 7
-10 15 -10 8 0 15 -5 15 -11 0 -5 5 -7 10 -4 14 8 50 -4 50 -17 0 -5 -7 -8
-15 -4 -8 3 -15 0 -15 -5 0 -7 9 -9 22 -6 12 4 28 1 36 -5 10 -9 16 -8 22 2 5
8 6 18 4 22 -3 4 5 6 18 4 13 -3 28 -5 34 -5 14 -1 36 -50 28 -63 -3 -5 -15
-8 -25 -5 -10 3 -23 0 -28 -7 -8 -9 -1 -11 24 -8 22 3 35 0 35 -7 0 -6 -4 -11
-10 -11 -15 0 -12 -27 3 -42 8 -7 12 -20 9 -30 -2 -10 0 -18 5 -18 6 0 8 -11
5 -25 -3 -20 0 -25 17 -25 11 0 21 -4 21 -10 0 -5 13 -7 30 -3 35 7 37 0 10
-29 -11 -12 -20 -25 -20 -30 0 -7 77 -2 107 7 6 2 19 -3 30 -10 10 -8 26 -15
37 -15 12 0 16 -5 12 -16 -3 -9 -6 -18 -6 -20 0 -2 -5 -4 -11 -4 -6 0 -9 7 -5
15 3 8 0 16 -7 16 -67 7 -107 6 -107 -1 0 -6 7 -10 15 -10 8 0 15 -5 15 -11 0
-7 -9 -9 -22 -6 -22 6 -22 6 -4 -8 11 -8 25 -15 32 -15 7 0 13 -10 13 -22 0
-13 1 -33 1 -45 0 -24 9 -27 65 -23 30 2 30 2 11 -19 -18 -20 -18 -21 9 -31
16 -6 34 -9 42 -6 18 7 16 -15 -3 -42 -12 -17 -12 -22 -2 -22 7 0 30 -11 51
-26 29 -20 35 -29 28 -42 -6 -11 -5 -20 7 -28 21 -16 8 -48 -15 -37 -10 5 -25
8 -33 8 -20 -1 -29 -20 -10 -21 42 -3 43 -3 29 -20 -11 -13 -9 -14 13 -9 25 6
25 6 18 -32 -3 -22 -10 -45 -14 -51 -12 -20 73 -6 97 16 34 30 46 34 43 15 -2
-9 -9 -19 -17 -21 -22 -8 -29 -25 -16 -41 10 -12 9 -14 -8 -7 -16 6 -18 5 -7
-5 17 -19 15 -29 -7 -29 -11 0 -27 -10 -35 -22 -19 -27 -11 -39 8 -12 23 31
30 8 9 -28 -16 -28 -17 -37 -6 -58 10 -20 9 -27 -5 -41 -9 -9 -18 -12 -20 -8
-8 21 -29 8 -25 -15 4 -17 10 -23 21 -19 14 6 14 4 -1 -17 -11 -16 -13 -27 -6
-36 7 -8 2 -14 -18 -19 -16 -5 -32 -7 -36 -6 -4 1 -18 -6 -30 -15 l-22 -15 25
1 c43 4 61 0 55 -10 -3 -5 -12 -7 -19 -4 -8 3 -17 1 -20 -4 -3 -6 8 -15 24
-21 29 -10 34 -7 30 14 -1 6 4 4 11 -2 10 -10 9 -17 -6 -33 -14 -16 -16 -23
-7 -32 7 -7 12 -20 12 -29 0 -10 6 -19 13 -22 9 -3 9 -8 -2 -21 -13 -16 -13
-17 5 -14 10 1 29 13 41 26 12 12 30 22 39 22 16 0 16 -2 -2 -16 -10 -8 -13
-12 -5 -8 9 4 12 2 9 -7 -2 -8 -25 -21 -51 -29 -51 -16 -55 -24 -32 -57 13
-19 19 -20 50 -10 28 8 32 13 23 24 -8 11 -7 12 6 7 10 -4 15 -13 12 -21 -3
-8 -6 -17 -6 -19 0 -3 -4 -3 -9 1 -10 5 -51 -40 -51 -56 0 -5 8 -9 18 -9 16
-1 16 -1 -1 -11 -11 -6 -29 -9 -41 -7 -27 5 -53 -17 -30 -26 9 -3 12 -11 8
-17 -4 -8 -3 -9 5 -5 23 14 61 -3 60 -27 l0 -22 -11 23 c-14 28 -32 29 -25 1
5 -19 4 -20 -12 -5 -10 9 -30 16 -44 16 -17 0 -27 5 -27 15 0 8 -4 15 -10 15
-5 0 -10 -11 -10 -24 0 -16 -7 -27 -19 -31 -11 -3 -18 -12 -15 -19 4 -10 -2
-12 -23 -9 -27 5 -27 5 -8 -11 25 -19 6 -21 -20 -2 -13 10 -26 11 -43 5 -17
-7 -24 -5 -28 6 -4 8 -10 12 -15 9 -5 -3 -7 -10 -4 -15 4 -5 -3 -9 -14 -9 -12
0 -21 -7 -21 -15 0 -8 -9 -15 -20 -15 -11 0 -20 -5 -20 -11 0 -7 -10 -9 -27
-5 -21 5 -24 4 -13 -4 12 -8 10 -10 -10 -11 -14 -1 -27 -1 -30 -1 -3 0 -12 -7
-19 -16 -13 -14 -12 -15 10 -7 13 4 36 8 52 10 15 1 30 5 34 8 3 4 11 7 17 7
16 0 -31 -31 -54 -35 -11 -2 -30 -11 -42 -19 l-22 -16 24 -1 c16 -1 19 -3 8
-6 -22 -6 -32 -33 -11 -33 12 0 13 -3 4 -13 -8 -10 -7 -17 1 -25 9 -9 9 -12 1
-12 -7 0 -14 -8 -18 -18 -3 -12 -27 -26 -60 -38 -33 -11 -57 -25 -61 -36 -3
-10 -10 -18 -15 -18 -13 0 -11 14 3 28 15 15 6 15 -27 0 -14 -6 -25 -15 -25
-20 0 -4 -9 -8 -20 -8 -11 0 -20 -4 -20 -10 0 -5 7 -10 15 -10 8 0 15 -7 15
-15 0 -8 -7 -15 -16 -15 -8 0 -13 4 -10 9 3 5 0 11 -8 14 -10 4 -12 0 -9 -14
7 -25 -9 -24 -25 1 -18 29 -29 25 -29 -10 0 -17 -5 -36 -12 -43 -10 -9 -11 -8
-6 6 5 12 2 17 -11 18 -11 0 -14 3 -6 6 6 2 12 9 12 15 0 6 -7 8 -15 5 -8 -4
-17 -2 -20 3 -3 5 3 10 12 12 14 3 13 5 -6 10 -18 5 -24 2 -28 -13 -4 -15 -8
-17 -14 -8 -6 10 -11 10 -23 -1 -9 -7 -19 -10 -23 -7 -3 4 -12 -1 -19 -11 -12
-16 -13 -16 -14 0 0 20 -11 28 -46 34 -21 4 -25 1 -21 -11 4 -8 2 -15 -4 -15
-5 0 -12 6 -15 14 -4 11 -18 13 -60 9 -50 -5 -56 -4 -61 15 -3 12 -9 20 -13
17 -18 -11 -38 7 -33 28 5 22 5 22 -10 2 -13 -16 -17 -17 -31 -6 -9 7 -16 19
-16 26 0 7 -7 18 -15 25 -12 10 -15 10 -15 0 0 -9 -5 -8 -18 3 -10 10 -23 17
-29 17 -17 0 -23 28 -7 32 13 3 13 5 0 23 -14 17 -17 18 -26 5 -9 -13 -10 -13
-11 0 -3 29 -2 29 -33 103 -12 29 -30 38 -82 41 -30 1 -34 -2 -34 -23 l0 -25
-20 22 c-11 12 -20 25 -20 30 0 5 -9 17 -20 27 -11 10 -20 13 -20 7 0 -21 -20
-12 -30 13 -11 28 -71 58 -82 41 -4 -6 -3 -15 2 -20 16 -16 12 -26 -9 -26 -17
0 -38 40 -32 64 3 13 -20 36 -30 30 -5 -3 -12 2 -15 11 -5 12 -9 13 -20 4 -11
-9 -14 -8 -14 3 0 8 -7 28 -15 44 -10 21 -12 40 -6 67 7 30 5 42 -10 61 -10
13 -19 29 -19 35 0 7 -8 7 -25 1 -14 -5 -25 -6 -25 -1 0 5 -6 11 -13 14 -10 4
-13 -2 -9 -19 2 -13 9 -21 14 -18 6 4 8 -1 4 -13 -18 -56 132 -382 245 -533
235 -316 586 -537 944 -596 139 -22 388 -15 495 16 150 43 351 154 504 278 75
61 218 224 309 349 104 145 198 346 238 507 26 104 36 378 20 525 -33 305
-178 637 -400 919 -182 230 -415 380 -689 443 -100 23 -397 34 -497 19z m252
-456 c-3 -3 -12 -4 -19 -1 -8 3 -5 6 6 6 11 1 17 -2 13 -5z m-72 -14 c3 -5 -1
-10 -10 -10 -9 0 -13 5 -10 10 3 6 8 10 10 10 2 0 7 -4 10 -10z m345 -309 c0
-5 -7 -12 -16 -15 -24 -9 -28 -7 -14 9 14 17 30 20 30 6z m95 -121 c-3 -5 -12
-10 -18 -10 -7 0 -6 4 3 10 19 12 23 12 15 0z m-84 -33 c-7 -7 -14 -8 -21 -1
-6 6 -2 10 12 11 16 2 18 -1 9 -10z m59 3 c0 -5 -8 -10 -17 -10 -15 0 -16 2
-3 10 19 12 20 12 20 0z m149 -419 c7 -5 9 -11 5 -14 -5 -3 -15 1 -22 9 -14
16 -5 18 17 5z m28 -278 c-9 -9 -20 -13 -24 -9 -4 4 -1 11 7 16 25 16 35 11
17 -7z m56 -47 c3 -8 -1 -17 -9 -20 -8 -3 -14 -13 -14 -22 0 -25 -25 -10 -26
17 -1 13 0 27 3 32 7 12 41 8 46 -7z m-31 -120 c-2 -9 4 -19 13 -23 13 -5 14
-7 3 -14 -17 -11 -31 -11 -24 0 3 5 -1 14 -8 21 -12 9 -19 7 -36 -10 -12 -12
-24 -19 -27 -17 -8 8 59 68 71 64 6 -2 10 -12 8 -21z m28 -61 c-7 -8 -17 -15
-23 -15 -6 0 -2 7 9 15 25 19 30 19 14 0z m-140 -325 c8 -5 11 -10 5 -10 -5 0
-2 -5 8 -11 25 -14 10 -32 -21 -24 -23 6 -24 5 -11 -11 13 -16 11 -16 -14 1
-21 13 -25 20 -15 26 7 5 9 9 4 9 -5 0 -3 7 4 15 15 17 20 18 40 5z m-216 -84
c-6 -16 -24 -23 -24 -8 0 10 22 33 27 28 2 -2 1 -11 -3 -20z m-14 -54 c0 -5
-12 -14 -27 -21 -21 -10 -28 -9 -34 1 -5 7 -3 16 4 20 16 10 57 10 57 0z m-10
-82 c0 -5 -2 -10 -4 -10 -3 0 -8 5 -11 10 -3 6 -1 10 4 10 6 0 11 -4 11 -10z
m-80 -20 c0 -5 -2 -10 -4 -10 -3 0 -8 5 -11 10 -3 6 -1 10 4 10 6 0 11 -4 11
-10z m-980 -30 c0 -5 -5 -10 -11 -10 -5 0 -7 5 -4 10 3 6 8 10 11 10 2 0 4 -4
4 -10z m820 -100 c0 -5 -2 -10 -4 -10 -3 0 -8 5 -11 10 -3 6 -1 10 4 10 6 0
11 -4 11 -10z m-58 -47 c-2 -13 -8 -26 -13 -29 -6 -3 -7 8 -4 25 3 19 1 31 -5
31 -6 0 -8 4 -5 10 10 17 32 -12 27 -37z"/>
<path d="M2705 2880 c-3 -5 -1 -10 4 -10 6 0 11 5 11 10 0 6 -2 10 -4 10 -3 0
-8 -4 -11 -10z"/>
<path d="M3287 2854 c-3 -5 1 -17 8 -27 7 -10 16 -14 19 -9 3 5 -1 17 -8 27
-7 10 -15 14 -19 9z"/>
<path d="M3250 2820 c0 -13 11 -13 30 0 12 8 11 10 -7 10 -13 0 -23 -4 -23
-10z"/>
<path d="M3215 2800 c-3 -5 -2 -10 4 -10 5 0 13 5 16 10 3 6 2 10 -4 10 -5 0
-13 -4 -16 -10z"/>
<path d="M3326 2595 c4 -8 17 -15 31 -15 22 0 24 2 13 15 -7 8 -21 15 -31 15
-12 0 -16 -5 -13 -15z"/>
<path d="M3400 2589 c0 -5 5 -7 10 -4 6 3 10 8 10 11 0 2 -4 4 -10 4 -5 0 -10
-5 -10 -11z"/>
<path d="M3000 2350 c0 -14 38 -32 45 -21 3 6 -3 15 -14 20 -24 14 -31 14 -31
1z"/>
<path d="M1857 2323 c-8 -14 -19 -68 -13 -62 8 8 26 69 21 69 -2 0 -6 -3 -8
-7z"/>
<path d="M3015 2300 c3 -5 10 -10 16 -10 5 0 9 5 9 10 0 6 -7 10 -16 10 -8 0
-12 -4 -9 -10z"/>
<path d="M3640 2220 c0 -6 7 -10 15 -10 8 0 15 2 15 4 0 2 -7 6 -15 10 -8 3
-15 1 -15 -4z"/>
<path d="M3646 2179 c-17 -16 -17 -19 -3 -19 9 0 21 9 27 20 13 25 1 25 -24
-1z"/>
<path d="M1810 2139 c0 -11 5 -17 10 -14 6 3 10 13 10 21 0 8 -4 14 -10 14 -5
0 -10 -9 -10 -21z"/>
<path d="M1797 2043 c-2 -5 -4 -26 -5 -48 -2 -30 1 -36 8 -24 5 9 8 30 7 48
-2 33 -3 36 -10 24z"/>
<path d="M3725 1980 c3 -5 8 -10 11 -10 2 0 4 5 4 10 0 6 -5 10 -11 10 -5 0
-7 -4 -4 -10z"/>
<path d="M3668 1426 c-24 -18 -22 -26 6 -26 20 0 36 16 36 36 0 9 -26 3 -42
-10z"/>
<path d="M3705 1350 c3 -5 14 -10 23 -10 15 0 15 2 2 10 -20 13 -33 13 -25 0z"/>
<path d="M3715 1310 c-3 -5 -1 -10 4 -10 6 0 11 5 11 10 0 6 -2 10 -4 10 -3 0
-8 -4 -11 -10z"/>
<path d="M3740 1300 c0 -5 5 -10 10 -10 6 0 10 5 10 10 0 6 -4 10 -10 10 -5 0
-10 -4 -10 -10z"/>
<path d="M3220 1005 c0 -8 -7 -15 -16 -15 -8 0 -12 -4 -9 -10 8 -13 42 8 42
26 0 8 -4 14 -9 14 -4 0 -8 -7 -8 -15z"/>
<path d="M3278 1003 c7 -3 16 -2 19 1 4 3 -2 6 -13 5 -11 0 -14 -3 -6 -6z"/>
<path d="M3229 973 c-6 -13 -3 -29 6 -35 16 -12 25 -9 25 6 0 8 10 16 23 18
15 3 11 5 -15 9 -21 3 -39 4 -39 2z"/>
<path d="M3270 926 c0 -8 -6 -17 -12 -19 -10 -4 -10 -6 0 -6 13 -1 42 22 42
33 0 3 -7 6 -15 6 -8 0 -15 -6 -15 -14z"/>
<path d="M3210 895 c0 -8 5 -15 10 -15 6 0 10 7 10 15 0 8 -4 15 -10 15 -5 0
-10 -7 -10 -15z"/>
<path d="M2990 809 c0 -5 5 -7 10 -4 6 3 10 8 10 11 0 2 -4 4 -10 4 -5 0 -10
-5 -10 -11z"/>
</g>
</svg>
