<?xml version="1.0" standalone="no"?>
<!DOCTYPE svg PUBLIC "-//W3C//DTD SVG 20010904//EN"
 "http://www.w3.org/TR/2001/REC-SVG-20010904/DTD/svg10.dtd">
<svg version="1.0" xmlns="http://www.w3.org/2000/svg"
 width="666.000000pt" height="374.000000pt" viewBox="0 0 666.000000 374.000000"
 preserveAspectRatio="xMidYMid meet">

<g transform="translate(0.000000,374.000000) scale(0.100000,-0.100000)"
fill="#000000" stroke="none">
<path d="M3380 3195 c-14 -8 -37 -14 -52 -15 -16 0 -28 -5 -28 -10 0 -6 10
-10 23 -9 52 5 76 -1 71 -16 -4 -8 -12 -15 -20 -15 -8 0 -14 -4 -14 -10 0 -5
-9 -10 -19 -10 -14 0 -18 -6 -15 -22 l5 -23 -10 22 c-7 16 -15 21 -27 16 -11
-4 -15 -3 -10 5 11 18 -15 52 -34 42 -24 -13 -99 5 -121 29 -11 11 -30 21 -42
21 -18 0 -23 -6 -22 -27 0 -16 5 -32 10 -36 7 -6 6 -10 -1 -13 -13 -5 -7 -44
6 -44 14 0 41 31 35 40 -3 5 3 14 14 20 25 13 37 -3 17 -23 -17 -17 -2 -39 21
-30 12 5 12 7 1 14 -9 6 -7 9 10 9 14 0 26 -9 34 -25 6 -13 16 -22 21 -18 6 4
8 0 4 -10 -3 -10 -2 -17 3 -17 6 0 8 -16 4 -41 -6 -37 -4 -43 21 -63 25 -20
26 -23 11 -38 -15 -15 -14 -17 12 -23 21 -4 32 -15 41 -40 7 -19 15 -34 19
-34 26 4 30 -3 10 -23 l-22 -22 35 -14 c18 -8 42 -23 53 -34 10 -11 21 -16 25
-11 3 4 23 16 44 25 20 10 37 21 37 25 0 13 -53 13 -77 1 -26 -13 -55 -4 -47
15 10 27 94 51 94 28 0 -16 40 -23 56 -10 12 9 18 8 33 -10 10 -11 23 -21 30
-21 15 0 14 -40 -1 -41 -7 -1 -23 -3 -36 -4 -31 -3 -37 -12 -23 -29 13 -16 7
-36 -10 -36 -6 0 -8 8 -4 19 3 10 -1 24 -10 31 -8 7 -15 9 -15 5 0 -4 -7 -2
-15 5 -13 11 -21 9 -45 -8 -25 -19 -33 -20 -57 -10 -15 6 -32 10 -37 9 -19 -4
-96 24 -96 35 0 13 -28 27 -40 19 -4 -2 -15 4 -25 15 -15 16 -16 22 -5 35 19
22 4 31 -30 18 -28 -11 -42 -2 -20 12 15 9 12 25 -4 19 -14 -5 -24 3 -51 41
-12 17 -17 18 -34 8 -27 -17 -28 -17 -34 7 -3 12 1 23 10 29 13 7 12 11 -8 25
-25 17 -59 22 -59 7 0 -5 12 -12 26 -15 15 -4 24 -9 22 -12 -3 -2 -17 0 -32 5
-18 7 -26 18 -26 35 0 13 6 23 13 22 6 0 13 3 14 7 1 4 9 15 18 23 33 33 8 46
-35 18 -40 -27 -51 -45 -39 -61 9 -10 8 -13 0 -13 -8 0 -11 -15 -8 -45 2 -24
0 -42 -4 -40 -4 3 -10 -15 -13 -40 -4 -25 -11 -45 -16 -45 -5 0 -8 6 -5 13 2
6 6 39 9 71 5 56 1 70 -31 125 -2 2 -13 -8 -26 -22 -12 -15 -30 -27 -39 -27
-8 0 -21 -7 -28 -15 -7 -8 -19 -15 -26 -15 -8 0 -14 -7 -14 -16 0 -8 4 -13 9
-10 5 4 11 1 13 -5 3 -9 9 -9 25 0 12 6 28 11 35 10 7 0 3 -4 -9 -9 -13 -5
-23 -13 -23 -19 0 -5 -12 -11 -26 -14 -20 -3 -28 1 -36 19 -15 32 -34 30 -91
-6 -51 -32 -77 -38 -77 -17 -1 7 -7 4 -15 -7 -12 -16 -18 -17 -46 -7 -17 6
-35 8 -40 5 -5 -3 -9 -1 -9 4 0 6 -8 8 -18 5 -11 -3 -18 -14 -18 -31 -1 -47
-16 -86 -44 -117 -34 -38 -54 -88 -46 -118 7 -31 -1 -38 -28 -26 -31 14 -72
-4 -90 -39 -18 -34 -12 -46 16 -31 28 15 61 2 55 -22 -5 -19 0 -22 53 -23 17
-1 25 -6 24 -18 -2 -24 27 -23 52 1 12 10 41 22 65 26 24 4 51 13 59 20 13 11
46 20 96 27 6 1 11 7 11 14 0 7 -4 11 -9 8 -4 -3 -8 0 -8 5 0 6 7 11 15 11 9
0 15 -10 15 -26 0 -22 2 -23 15 -12 48 43 54 45 84 26 15 -9 24 -8 45 6 26 17
27 17 20 -8 -5 -20 0 -27 25 -40 17 -9 35 -25 41 -36 13 -25 -12 -50 -77 -73
-35 -13 -52 -25 -61 -47 -13 -29 -13 -29 -33 -9 -10 10 -25 19 -31 19 -9 0 -8
-4 2 -10 12 -8 11 -10 -6 -10 -16 0 -23 -8 -28 -31 -3 -17 -3 -35 0 -40 6 -11
-4 -11 -31 0 -32 13 -44 -5 -39 -62 4 -50 3 -51 -10 -23 -9 20 -15 25 -19 15
-3 -8 -6 -4 -6 10 -1 13 -4 22 -7 18 -4 -3 -13 0 -21 8 -22 22 -33 18 -33 -12
1 -27 1 -27 15 -9 15 19 15 19 15 -1 0 -13 -9 -23 -22 -27 l-23 -7 22 -11 c12
-6 24 -17 27 -25 9 -22 -5 -94 -18 -99 -7 -3 -10 -19 -8 -42 4 -31 2 -35 -9
-25 -12 10 -17 6 -28 -18 -13 -30 -31 -39 -31 -15 0 7 -7 19 -15 26 -13 10
-15 9 -15 -8 0 -35 -22 -72 -43 -72 -10 0 -27 -10 -38 -22 l-18 -23 -1 22 c0
39 -17 34 -24 -8 -3 -22 -10 -37 -16 -34 -5 3 -12 0 -15 -6 -4 -5 -14 -8 -22
-4 -12 4 -13 2 -5 -7 6 -7 11 -17 12 -23 6 -25 13 -34 23 -28 18 11 102 9 115
-4 16 -16 16 -28 -1 -14 -20 16 -30 0 -12 -18 9 -9 23 -25 31 -36 9 -11 13
-14 9 -7 -3 6 -2 12 3 12 12 0 20 -21 15 -37 -3 -7 -12 -13 -20 -13 -12 0 -14
-7 -9 -27 19 -78 24 -119 14 -128 -7 -7 -9 -7 -5 0 3 6 1 17 -4 25 -8 13 -12
12 -24 -4 -8 -11 -15 -16 -15 -11 0 5 7 16 16 26 12 14 15 29 9 66 -6 44 -10
50 -55 78 -28 17 -50 35 -50 42 0 6 -8 10 -17 8 -10 -1 -26 7 -35 19 -17 20
-18 20 -18 1 0 -11 -7 -33 -15 -49 -19 -37 -20 -70 -1 -63 8 3 17 -1 20 -9 5
-13 -12 -20 -39 -14 -5 1 -4 -4 2 -11 16 -16 17 -43 1 -33 -6 4 -8 3 -4 -4 3
-5 1 -12 -5 -14 -7 -2 -8 -15 -2 -38 7 -26 15 -35 30 -34 18 0 19 -2 10 -18
-7 -10 -21 -18 -31 -18 -16 0 -17 -3 -8 -12 7 -7 12 -19 12 -27 0 -14 -1 -14
-10 -1 -8 13 -11 11 -16 -7 -8 -28 -24 -30 -24 -4 0 11 -4 23 -10 26 -5 3 -10
-1 -10 -10 0 -8 -7 -18 -15 -21 -8 -4 -12 -10 -9 -16 9 -14 -5 -60 -16 -53 -6
4 -10 -7 -10 -25 0 -30 -22 -65 -33 -53 -3 3 8 -23 26 -58 18 -35 49 -82 69
-104 43 -45 68 -101 42 -91 -45 17 139 -179 195 -209 17 -8 31 -11 31 -6 0 11
55 -3 75 -19 8 -6 11 -18 8 -26 -9 -24 44 -92 89 -115 39 -20 41 -20 28 -3
-15 18 -14 18 15 0 17 -10 45 -30 63 -43 39 -29 107 -59 97 -43 -4 7 7 4 24
-5 18 -9 29 -20 26 -24 -6 -11 160 -64 275 -88 120 -25 430 -25 549 0 127 27
250 68 228 76 -13 5 -3 11 35 20 30 8 66 25 83 41 17 15 41 33 55 40 24 12 24
12 9 -6 -34 -41 -27 -41 43 -3 87 48 180 110 173 117 -2 3 -19 -6 -37 -20 -53
-39 -56 -40 -54 -15 2 13 6 29 10 36 4 6 3 18 -4 26 -9 11 -7 16 9 24 47 25
91 5 59 -27 -15 -15 -3 -15 24 -1 15 8 19 8 14 0 -4 -6 -2 -11 4 -11 24 0 258
248 319 338 164 243 246 499 256 797 2 91 1 112 -4 70 -4 -33 -6 -72 -3 -87 3
-19 0 -28 -9 -28 -9 0 -14 -13 -15 -37 -1 -21 -5 -49 -9 -62 -6 -17 -5 -22 3
-17 17 10 15 -23 -3 -54 l-14 -25 -2 25 c-1 17 -3 20 -6 8 -5 -19 -23 -25 -23
-7 0 5 -4 7 -10 4 -5 -3 -10 -15 -10 -26 0 -10 -4 -19 -8 -19 -4 0 -25 -16
-46 -35 -21 -19 -42 -35 -47 -35 -5 0 -9 -8 -9 -17 0 -14 -2 -15 -9 -4 -7 11
-9 11 -13 0 -3 -9 -11 -1 -22 20 -14 27 -16 39 -7 58 7 16 17 23 26 19 8 -3
17 -1 20 3 2 5 17 12 31 15 28 7 54 28 54 43 0 5 5 14 11 20 9 9 16 8 27 -4
14 -14 17 -14 23 3 11 28 10 64 -1 64 -5 0 -10 7 -10 15 0 8 5 15 10 15 6 0
10 10 10 21 0 18 -2 19 -15 9 -10 -9 -15 -9 -15 -1 0 6 -6 11 -14 11 -10 0
-14 -10 -11 -37 5 -65 -28 -114 -58 -84 -14 14 3 46 24 46 21 0 23 34 2 42
-10 4 -21 11 -25 16 -9 15 2 37 18 37 8 0 14 7 14 15 0 8 -6 15 -14 15 -30 0
-55 62 -34 87 6 7 8 16 5 19 -10 11 -127 14 -127 4 0 -6 -11 -10 -25 -10 -30
0 -74 -18 -102 -43 -12 -10 -44 -29 -71 -42 -43 -20 -51 -21 -56 -8 -3 8 -4
19 0 24 3 5 -6 9 -20 9 -14 0 -27 -4 -30 -9 -3 -4 -29 -11 -58 -15 -29 -3 -63
-9 -75 -12 -13 -4 -23 -2 -23 4 0 5 17 14 38 20 20 5 29 10 20 11 -21 1 -22 5
-8 32 6 10 19 19 30 19 23 0 35 16 18 23 -7 3 -1 6 14 6 24 1 51 20 31 22 -62
7 -103 6 -108 -1 -3 -5 -17 -4 -33 2 -37 16 -36 16 -22 33 7 8 9 15 5 15 -5 0
0 9 10 20 14 15 16 23 7 32 -8 8 -15 8 -25 0 -9 -8 -17 -8 -24 -1 -6 6 -18 5
-36 -4 -15 -8 -24 -16 -22 -19 3 -3 -2 -11 -11 -19 -13 -11 -18 -11 -21 -2 -4
10 -10 9 -26 -2 -12 -8 -31 -15 -44 -15 -17 0 -22 7 -25 33 -2 26 -7 31 -24
29 -16 -2 -23 4 -29 25 -3 15 -12 31 -18 35 -8 4 -7 11 2 22 10 12 17 13 27 5
18 -14 54 23 54 56 0 22 3 25 25 19 19 -5 25 -2 25 9 0 9 -11 17 -27 19 -28 3
-39 29 -23 59 8 14 5 17 -14 15 -16 -1 -22 -6 -18 -18 3 -14 -2 -18 -21 -18
-24 0 -42 -23 -31 -41 10 -17 -39 -9 -51 8 -11 14 -15 15 -28 4 -39 -31 -40
35 -2 92 l18 28 19 -21 c10 -11 23 -20 28 -20 20 0 40 13 40 26 0 10 13 14 43
13 39 0 40 -1 17 -11 -23 -10 -23 -11 -5 -16 11 -2 28 -11 37 -19 18 -16 52
-10 76 13 16 16 42 19 42 4 0 -20 16 -9 29 21 12 27 18 30 47 27 19 -2 34 0
34 4 0 4 -6 8 -12 8 -7 0 -30 18 -52 40 -21 22 -42 40 -46 40 -13 0 -51 80
-44 92 5 7 -1 9 -18 5 -22 -6 -25 -3 -25 18 0 28 7 31 25 13 9 -9 12 -9 12 0
0 7 -8 15 -17 18 -39 12 -48 22 -48 55 0 19 -3 35 -7 37 -21 6 -49 46 -45 62
3 12 -7 25 -33 41 -44 28 -42 39 6 39 19 0 34 5 34 10 0 6 9 10 19 10 26 0 21
32 -8 46 -25 13 -64 7 -55 -7 9 -15 -20 -10 -45 7 -18 13 -20 18 -10 25 8 5
14 16 15 26 1 10 2 32 3 50 0 21 7 33 19 36 11 3 7 5 -10 6 -15 0 -30 -3 -33
-9 -11 -18 -35 -11 -35 11 0 16 4 19 20 14 31 -10 24 2 -11 19 -22 11 -36 13
-44 6 -7 -6 -20 -7 -29 -4 -10 4 -22 0 -29 -9 -17 -21 -133 -33 -154 -15 -13
10 -17 10 -20 0 -5 -13 -23 -7 -23 7 0 16 41 19 68 5 39 -20 51 -17 22 6 -21
17 -23 21 -10 30 12 8 10 10 -11 10 -18 0 -29 8 -37 25 -13 29 -18 30 -52 10z
m23 -115 c21 -1 21 -1 3 -15 -17 -13 -15 -14 22 -24 45 -13 64 -40 32 -48 -11
-3 -20 -9 -20 -14 0 -5 -15 -9 -34 -9 -31 0 -35 3 -34 28 1 15 -4 37 -11 49
-16 30 -14 46 5 39 9 -3 25 -6 37 -6z m77 -20 c0 -13 -11 -13 -30 0 -12 8 -11
10 8 10 12 0 22 -4 22 -10z m55 -18 c-3 -3 -11 0 -18 7 -9 10 -8 11 6 5 10 -3
15 -9 12 -12z m163 -78 c18 -5 15 -41 -5 -48 -10 -4 -15 -4 -11 -1 9 9 -23 45
-39 45 -7 0 -13 5 -13 10 0 9 27 7 68 -6z m-828 2 c0 -3 -4 -8 -10 -11 -5 -3
-10 -1 -10 4 0 6 5 11 10 11 6 0 10 -2 10 -4z m-90 -116 c0 -5 -8 -10 -17 -10
-15 0 -16 2 -3 10 19 12 20 12 20 0z m-220 -35 c-7 -8 -17 -15 -23 -15 -5 0
-2 9 8 20 21 23 35 19 15 -5z m1220 -16 c0 -5 -4 -9 -10 -9 -5 0 -10 7 -10 16
0 8 5 12 10 9 6 -3 10 -10 10 -16z m-1243 -37 c-10 -10 -17 -26 -17 -35 0 -9
-9 -21 -20 -27 -11 -6 -20 -8 -20 -5 0 4 -8 -1 -17 -11 -17 -17 -18 -17 -22 1
-2 10 4 24 13 30 17 13 23 30 6 20 -5 -3 -10 -2 -10 4 0 15 18 23 22 10 4 -13
47 7 61 29 5 8 11 11 15 8 3 -3 -2 -14 -11 -24z m1153 18 c0 -5 -4 -10 -10
-10 -5 0 -10 5 -10 10 0 6 5 10 10 10 6 0 10 -4 10 -10z m50 0 c0 -5 -4 -10
-9 -10 -6 0 -13 5 -16 10 -3 6 1 10 9 10 9 0 16 -4 16 -10z m-985 -39 c-3 -5
-20 -12 -38 -16 -17 -4 -41 -9 -52 -12 -18 -5 -18 -4 -6 11 8 10 23 15 33 13
10 -3 16 -1 12 4 -3 5 9 9 26 9 17 0 29 -4 25 -9z m954 -40 c11 -7 5 -11 -22
-16 -20 -4 -34 -11 -31 -16 3 -5 20 -7 39 -3 20 3 35 1 40 -6 4 -6 16 -8 27
-4 15 4 18 3 13 -6 -4 -7 -20 -10 -36 -8 -25 4 -28 2 -23 -14 5 -16 0 -15 -43
8 -26 14 -47 30 -45 35 3 14 -16 11 -21 -3 -3 -10 -8 -10 -16 -2 -17 15 5 31
49 37 19 2 40 4 45 5 6 1 16 -2 24 -7z m-1309 -41 c9 -18 8 -20 -15 -20 -24 0
-34 18 -18 33 11 12 22 8 33 -13z m624 -92 c-4 -6 -10 -5 -15 3 -8 12 -11 12
-18 -1 -6 -8 -13 -11 -17 -7 -4 3 -2 13 4 20 7 8 8 17 4 22 -4 4 5 0 20 -10
15 -9 25 -22 22 -27z m-264 22 c0 -5 -8 -10 -17 -10 -15 0 -16 2 -3 10 19 12
20 12 20 0z m1190 -62 c0 -5 -4 -8 -10 -8 -5 0 -10 10 -10 23 0 18 2 19 10 7
5 -8 10 -18 10 -22z m-1437 -15 c-7 -2 -21 -2 -30 0 -10 3 -4 5 12 5 17 0 24
-2 18 -5z m1357 -18 c0 -8 -4 -15 -10 -15 -5 0 -10 7 -10 15 0 8 5 15 10 15 6
0 10 -7 10 -15z m-753 -117 c-3 -8 -6 -5 -6 6 -1 11 2 17 5 13 3 -3 4 -12 1
-19z m538 -19 c0 -8 -9 -14 -20 -14 -15 0 -21 8 -23 29 -4 29 -3 29 20 14 12
-8 23 -22 23 -29z m-985 -100 c0 -6 -4 -7 -10 -4 -5 3 -10 11 -10 16 0 6 5 7
10 4 6 -3 10 -11 10 -16z m1050 -29 c0 -5 -4 -10 -10 -10 -5 0 -10 5 -10 10 0
6 5 10 10 10 6 0 10 -4 10 -10z m-125 -30 c-3 -5 -11 -10 -16 -10 -6 0 -7 5
-4 10 3 6 11 10 16 10 6 0 7 -4 4 -10z m72 -26 c-3 -3 -12 -4 -19 -1 -8 3 -5
6 6 6 11 1 17 -2 13 -5z m-937 -34 c0 -5 -5 -10 -11 -10 -5 0 -7 5 -4 10 3 6
8 10 11 10 2 0 4 -4 4 -10z m40 6 c0 -3 -4 -8 -10 -11 -5 -3 -10 -1 -10 4 0 6
5 11 10 11 6 0 10 -2 10 -4z m-195 -16 c13 11 15 7 15 -23 0 -20 -5 -39 -10
-42 -7 -4 -6 -13 1 -27 7 -13 7 -18 1 -14 -6 3 -13 2 -17 -4 -3 -5 -10 -10
-16 -10 -12 0 -12 37 1 45 5 3 1 20 -10 39 -20 36 -16 54 7 35 10 -9 17 -8 28
1z m880 -20 c3 -6 -4 -10 -17 -10 -18 0 -20 2 -8 10 19 12 18 12 25 0z m-115
-10 c0 -5 -4 -10 -10 -10 -5 0 -10 5 -10 10 0 6 5 10 10 10 6 0 10 -4 10 -10z
m-460 -16 c0 -8 -5 -12 -10 -9 -6 4 -8 11 -5 16 9 14 15 11 15 -7z m-193 -46
c-4 -14 -2 -18 9 -14 8 3 14 1 14 -4 0 -14 -34 -12 -48 2 -8 8 -8 17 -1 30 13
23 33 13 26 -14z m560 14 c-9 -2 -26 -23 -37 -48 -11 -24 -25 -44 -31 -44 -7
0 -4 -11 6 -26 10 -16 13 -29 7 -33 -5 -3 -12 -16 -16 -28 -5 -15 -15 -23 -30
-23 -21 0 -23 4 -19 38 3 20 5 47 5 60 0 12 6 22 14 22 8 0 15 6 15 13 7 68 2
60 49 74 19 5 40 7 45 4 6 -3 2 -7 -8 -9z m-357 -73 c0 -11 4 -18 9 -15 11 7
23 -22 15 -35 -3 -5 1 -9 8 -10 7 0 29 -2 48 -4 19 -2 43 1 54 7 32 17 40 -5
21 -61 -12 -38 -22 -51 -36 -51 -11 0 -22 6 -25 14 -3 8 -15 13 -26 11 -11 -3
-27 2 -35 10 -13 13 -13 15 1 15 21 0 21 36 0 44 -9 4 -19 4 -22 1 -3 -3 0 -5
7 -5 17 0 8 -25 -10 -26 -63 -4 -73 -13 -58 -47 7 -15 17 -27 23 -27 6 0 4 -5
-4 -10 -13 -9 -13 -11 0 -19 8 -6 11 -13 8 -17 -12 -11 -128 -17 -128 -6 0 6
5 12 11 14 6 2 8 14 4 31 -7 25 -8 26 -20 10 -7 -10 -11 -21 -9 -25 7 -11 -28
-10 -45 1 -9 6 -11 15 -6 27 5 11 8 21 8 24 -1 3 5 11 13 18 8 7 14 8 14 2 0
-5 7 -10 15 -10 8 0 15 9 15 20 0 14 14 26 50 42 44 20 50 26 45 47 -5 21 -4
23 9 12 26 -22 31 14 7 48 -32 44 -25 60 9 23 17 -18 30 -42 30 -53z m382 6
c-5 -27 -27 -49 -41 -41 -15 10 -14 53 2 59 24 10 42 2 39 -18z m-680 -17 c-7
-7 -10 -5 -7 8 5 29 6 30 12 16 3 -8 1 -18 -5 -24z m868 2 c17 -27 10 -34 -10
-10 -11 13 -20 19 -20 13 0 -5 -13 -8 -30 -5 -40 6 -31 17 14 17 22 0 41 -6
46 -15z m440 -4 c0 -8 -7 -19 -15 -26 -12 -10 -18 -10 -30 0 -22 18 -18 30 11
30 16 0 23 4 18 12 -4 7 -3 8 4 4 7 -4 12 -13 12 -20z m-1234 -57 c1 -27 0
-33 -3 -14 -2 17 -9 34 -14 40 -13 13 -11 27 4 23 7 -3 13 -23 13 -49z m49 32
c3 -5 1 -12 -5 -16 -5 -3 -10 1 -10 9 0 18 6 21 15 7z m1777 -93 c-9 -9 -12
-7 -12 12 0 19 3 21 12 12 9 -9 9 -15 0 -24z m108 0 c0 -3 -8 -5 -17 -3 -10 2
-22 4 -28 5 -5 0 -1 7 9 15 16 12 22 12 28 2 4 -6 8 -15 8 -19z m-1242 -8 c7
0 12 -4 12 -10 0 -5 13 -10 28 -10 29 0 54 -20 65 -52 4 -10 13 -18 22 -18 8
0 15 -7 15 -16 0 -8 5 -12 10 -9 17 11 40 -3 34 -20 -9 -23 -36 -18 -69 14
-38 35 -72 54 -85 46 -6 -3 -10 -1 -10 4 0 6 -8 11 -17 11 -13 0 -14 -3 -5
-12 23 -23 13 -36 -28 -35 -22 1 -40 5 -40 10 0 4 -11 7 -24 7 -14 0 -27 4
-30 9 -4 5 -20 7 -38 4 -34 -5 -111 7 -90 14 10 4 10 8 0 21 -11 13 -11 14 0
8 13 -8 31 -2 85 25 10 6 17 5 17 0 0 -15 33 -22 42 -9 5 8 8 9 8 2 0 -7 9
-14 19 -17 22 -5 48 7 33 17 -6 3 -8 15 -5 26 5 19 7 19 23 5 9 -8 22 -15 28
-15z m851 -34 c23 6 24 5 11 -8 -8 -9 -30 -18 -49 -22 -30 -5 -32 -4 -20 11 8
9 13 26 12 37 -3 20 -2 20 9 -1 8 -18 17 -21 37 -17z m322 14 c-27 -23 -61
-26 -61 -6 0 9 7 12 19 9 10 -3 22 0 25 6 4 6 15 11 24 11 14 -1 13 -4 -7 -20z
m-120 -7 c8 -9 9 -14 3 -10 -7 4 -14 0 -18 -8 -3 -8 -10 -15 -16 -15 -6 0 -8
5 -5 10 4 7 -3 8 -21 4 -19 -5 -25 -4 -20 5 4 6 16 11 26 11 10 0 22 5 25 10
8 13 10 13 26 -7z m-781 -13 c8 -5 11 -10 5 -10 -5 0 -17 5 -25 10 -8 5 -10
10 -5 10 6 0 17 -5 25 -10z m-970 -8 c0 -5 -9 -17 -20 -27 -19 -17 -19 -17 -7
9 12 25 27 35 27 18z m264 -17 c3 -8 2 -15 -3 -15 -5 0 -14 7 -21 15 -10 12
-10 15 3 15 8 0 17 -7 21 -15z m1191 -5 c3 -5 -1 -10 -9 -10 -9 0 -16 5 -16
10 0 6 4 10 9 10 6 0 13 -4 16 -10z m-253 -40 c16 0 27 -3 27 -7 -1 -5 0 -10
1 -13 1 -3 3 -13 5 -23 3 -15 -1 -18 -18 -13 -12 3 -45 1 -74 -6 -41 -9 -56
-8 -67 2 -24 19 -13 52 24 71 29 16 35 16 54 4 11 -8 33 -15 48 -15z m-1162 0
c0 -5 -10 -14 -21 -21 -17 -9 -25 -8 -37 5 -16 16 -17 16 28 29 18 5 30 0 30
-13z m1904 -2 c11 -44 6 -68 -24 -101 -16 -19 -30 -40 -30 -47 0 -8 -4 -7 -14
3 -10 9 -12 28 -9 60 4 31 2 47 -5 47 -12 0 -6 26 11 48 5 6 22 12 37 12 20 0
29 -6 34 -22z m-2127 -2 c-5 -16 -27 -19 -27 -3 0 7 7 14 15 14 9 0 14 -5 12
-11z m-25 -47 c5 -4 -2 -6 -16 -6 -26 0 -32 11 -19 43 5 15 8 14 15 -7 5 -13
14 -26 20 -30z m158 31 c0 -9 -31 -30 -44 -30 -3 0 2 9 11 20 19 21 33 26 33
10z m188 -33 c3 -12 -3 -17 -22 -17 -25 0 -35 18 -19 34 12 12 38 2 41 -17z
m-558 -6 c0 -9 -41 -33 -47 -28 -9 10 21 45 34 40 7 -3 13 -8 13 -12z m1853 3
c15 -5 12 -44 -3 -44 -8 0 -20 24 -20 41 0 11 3 11 23 3z m344 -16 c-3 -8 -6
-5 -6 6 -1 11 2 17 5 13 3 -3 4 -12 1 -19z m-584 -19 c-23 -8 -25 -6 -17 15 5
13 9 14 21 4 13 -10 13 -13 -4 -19z m-1524 -26 c2 -2 -6 -3 -19 -3 -13 0 -20
3 -17 7 4 3 -1 16 -10 27 -13 16 -10 14 12 -4 17 -14 32 -26 34 -27z m1394 31
c9 -9 -4 -35 -14 -28 -5 3 -9 12 -9 20 0 14 12 19 23 8z m182 -14 c-3 -5 -13
-10 -21 -10 -8 0 -12 5 -9 10 3 6 13 10 21 10 8 0 12 -4 9 -10z m-1625 -20 c0
-5 -4 -10 -10 -10 -5 0 -10 5 -10 10 0 6 5 10 10 10 6 0 10 -4 10 -10z m1965
0 c3 -5 1 -10 -4 -10 -6 0 -11 5 -11 10 0 6 2 10 4 10 3 0 8 -4 11 -10z m178
-34 c3 -8 -1 -22 -10 -33 -12 -15 -14 -15 -9 -1 3 9 0 18 -6 20 -12 4 -2 28
12 28 4 0 10 -6 13 -14z m-2139 -46 c-14 -14 -39 14 -29 31 5 8 12 6 23 -5 11
-11 13 -19 6 -26z m-101 -9 c3 -14 1 -18 -9 -14 -15 6 -18 16 -7 26 9 10 10 9
16 -12z m927 -1 c0 -11 -30 -21 -42 -14 -7 5 -4 12 7 20 18 13 35 10 35 -6z
m1432 -5 c3 -14 1 -28 -3 -31 -5 -3 -9 9 -9 25 0 38 6 40 12 6z m-52 -18 c0
-7 -9 -18 -20 -25 -20 -12 -21 -12 -4 13 18 28 24 31 24 12z m-2042 -59 c7 -7
12 -19 11 -27 0 -10 -4 -7 -10 7 -5 13 -13 21 -18 17 -5 -3 -12 -1 -16 5 -9
14 18 13 33 -2z m48 -79 c3 -6 1 -14 -5 -18 -15 -10 -3 -41 15 -41 8 0 14 -4
14 -9 0 -5 -9 -7 -19 -4 -14 4 -23 -4 -36 -31 -10 -20 -19 -35 -22 -33 -4 5
13 46 29 69 10 15 9 20 -7 33 -11 9 -14 14 -7 10 8 -4 12 1 12 14 0 23 15 28
26 10z m-316 -9 c0 -5 -2 -10 -4 -10 -3 0 -8 5 -11 10 -3 6 -1 10 4 10 6 0 11
-4 11 -10z m700 -4 c0 -2 -7 -6 -15 -10 -8 -3 -15 -1 -15 4 0 6 7 10 15 10 8
0 15 -2 15 -4z m-565 -25 c3 -5 1 -12 -5 -16 -5 -3 -10 1 -10 9 0 18 6 21 15
7z m805 -29 c0 -5 -9 -17 -20 -27 -20 -18 -20 -17 -20 8 0 20 5 27 20 27 11 0
20 -4 20 -8z m-810 -12 c8 -5 12 -11 9 -14 -3 -3 -14 1 -25 9 -21 16 -8 20 16
5z m36 -17 c-10 -10 -19 5 -10 18 6 11 8 11 12 0 2 -7 1 -15 -2 -18z m679 -43
c-3 -5 -11 -10 -16 -10 -6 0 -7 5 -4 10 3 6 11 10 16 10 6 0 7 -4 4 -10z
m-491 -85 c3 -8 1 -15 -4 -15 -6 0 -10 7 -10 15 0 8 2 15 4 15 2 0 6 -7 10
-15z m431 -65 c4 -6 -9 -10 -32 -10 -28 0 -34 3 -23 10 20 13 47 13 55 0z
m-65 -31 c0 -5 -7 -9 -15 -9 -9 0 -12 6 -9 15 6 15 24 11 24 -6z m95 1 c3 -5
1 -10 -4 -10 -6 0 -11 5 -11 10 0 6 2 10 4 10 3 0 8 -4 11 -10z m-45 -14 c0
-3 -4 -8 -10 -11 -5 -3 -10 -1 -10 4 0 6 5 11 10 11 6 0 10 -2 10 -4z m-438
-146 c6 0 7 -7 4 -16 -4 -9 1 -27 9 -40 26 -39 1 -27 -42 21 -22 25 -40 55
-40 68 0 22 0 22 29 -5 17 -15 35 -28 40 -28z m73 -70 c3 -6 -1 -7 -9 -4 -18
7 -21 14 -7 14 6 0 13 -4 16 -10z m29 -53 c1 -15 -3 -26 -9 -24 -5 2 -10 10
-10 18 0 8 -6 19 -14 25 -11 9 -9 11 9 9 18 -1 24 -8 24 -28z m446 13 c0 -5
-4 -10 -9 -10 -6 0 -13 5 -16 10 -3 6 1 10 9 10 9 0 16 -4 16 -10z m-70 -75
c0 -8 -6 -15 -14 -15 -20 0 -29 17 -14 23 22 9 28 7 28 -8z m-249 -42 c13 -16
12 -17 -3 -4 -17 13 -22 21 -14 21 2 0 10 -8 17 -17z m264 -2 c7 -12 -12 -24
-25 -16 -11 7 -4 25 10 25 5 0 11 -4 15 -9z m-135 -23 c0 -13 -23 -5 -28 10
-2 7 2 10 12 6 9 -3 16 -11 16 -16z m1105 -2 c-11 -7 -33 -16 -50 -19 -16 -3
-41 -8 -55 -11 -14 -4 -19 -4 -12 0 6 3 12 12 12 19 0 9 15 15 43 18 92 8 84
9 62 -7z m-115 -6 c0 -5 -5 -10 -11 -10 -5 0 -7 5 -4 10 3 6 8 10 11 10 2 0 4
-4 4 -10z m-763 -46 c-3 -3 -12 -4 -19 -1 -8 3 -5 6 6 6 11 1 17 -2 13 -5z
m668 -65 c3 -4 -6 -11 -21 -15 -20 -5 -31 -2 -40 11 -7 10 -11 22 -8 26 5 9
61 -8 69 -22z m-470 -9 c10 -11 15 -23 12 -27 -4 -3 -7 -1 -7 5 0 7 -6 12 -13
12 -7 0 -22 7 -33 15 -19 14 -19 14 2 15 11 0 29 -9 39 -20z m155 -9 c0 -5 9
-13 20 -16 40 -13 17 -38 -55 -59 -14 -4 -24 1 -32 13 -11 18 -9 21 22 31 36
12 44 25 23 33 -8 3 -6 6 5 6 9 1 17 -3 17 -8z"/>
<path d="M2880 1940 c0 -5 5 -10 11 -10 5 0 7 5 4 10 -3 6 -8 10 -11 10 -2 0
-4 -4 -4 -10z"/>
<path d="M2790 1866 c0 -17 14 -29 23 -20 8 8 -3 34 -14 34 -5 0 -9 -6 -9 -14z"/>
<path d="M3325 1790 c3 -5 8 -10 11 -10 2 0 4 5 4 10 0 6 -5 10 -11 10 -5 0
-7 -4 -4 -10z"/>
<path d="M3658 3153 c6 -2 18 -2 25 0 6 3 1 5 -13 5 -14 0 -19 -2 -12 -5z"/>
<path d="M3528 3133 c7 -3 16 -2 19 1 4 3 -2 6 -13 5 -11 0 -14 -3 -6 -6z"/>
<path d="M3160 3070 c0 -5 7 -10 16 -10 8 0 12 5 9 10 -3 6 -10 10 -16 10 -5
0 -9 -4 -9 -10z"/>
<path d="M3050 2975 c7 -9 15 -13 17 -11 7 7 -7 26 -19 26 -6 0 -6 -6 2 -15z"/>
<path d="M3110 2880 c0 -5 4 -10 9 -10 6 0 13 5 16 10 3 6 -1 10 -9 10 -9 0
-16 -4 -16 -10z"/>
<path d="M3188 2873 c7 -3 16 -2 19 1 4 3 -2 6 -13 5 -11 0 -14 -3 -6 -6z"/>
<path d="M3207 2846 c-17 -13 -16 -14 3 -19 15 -4 20 0 20 14 0 22 0 22 -23 5z"/>
<path d="M3250 2825 c7 -8 16 -15 21 -15 5 0 6 7 3 15 -4 8 -13 15 -21 15 -13
0 -13 -3 -3 -15z"/>
<path d="M3855 2800 c3 -5 11 -10 16 -10 6 0 7 5 4 10 -3 6 -11 10 -16 10 -6
0 -7 -4 -4 -10z"/>
<path d="M3916 2801 c-4 -6 -12 -8 -18 -5 -6 4 -6 -1 1 -14 9 -16 31 -32 47
-32 2 0 0 7 -3 17 -4 11 -3 14 5 9 7 -4 12 -1 12 9 0 9 -5 13 -11 9 -6 -3 -15
-1 -19 6 -5 9 -9 9 -14 1z"/>
<path d="M3220 2781 c0 -8 3 -11 6 -8 4 3 15 2 25 -4 25 -13 69 -1 62 16 -7
20 -93 15 -93 -4z"/>
<path d="M3920 2707 c0 -5 9 -11 20 -14 11 -3 20 -9 20 -14 0 -5 7 -9 15 -9
18 0 20 26 3 36 -17 11 -58 11 -58 1z"/>
<path d="M4480 2555 c0 -8 4 -15 10 -15 5 0 16 -15 25 -34 18 -37 52 -61 41
-29 -6 17 -5 17 8 0 9 -11 17 -14 21 -8 3 6 -7 22 -22 37 -15 14 -37 34 -48
45 -25 23 -35 24 -35 4z"/>
<path d="M4186 2536 c15 -24 43 -41 51 -32 3 2 -5 7 -16 11 -12 3 -21 12 -21
20 0 7 -7 15 -15 19 -13 5 -13 2 1 -18z"/>
<path d="M4023 2535 c0 -8 4 -12 9 -9 5 3 6 10 3 15 -9 13 -12 11 -12 -6z"/>
<path d="M4122 2541 c-10 -6 -7 -10 12 -13 21 -4 24 -3 15 8 -13 16 -11 16
-27 5z"/>
<path d="M4651 2521 c-10 -7 -11 -13 -2 -27 6 -11 11 -17 12 -14 1 8 6 50 5
50 -1 0 -7 -4 -15 -9z"/>
<path d="M4157 2499 c7 -7 15 -10 18 -7 3 3 -2 9 -12 12 -14 6 -15 5 -6 -5z"/>
<path d="M4298 2485 c-26 -34 -101 -39 -147 -8 -19 12 -37 21 -39 19 -5 -6 21
-48 41 -66 15 -12 16 -20 8 -42 -8 -22 -7 -26 3 -22 8 3 17 1 21 -5 3 -6 16
-11 28 -11 20 0 20 0 1 -15 -24 -18 -35 -19 -28 -1 3 8 1 17 -5 21 -6 3 -11
-1 -11 -11 0 -14 -3 -15 -12 -6 -7 7 -28 11 -47 11 -20 -1 -28 -3 -17 -6 15
-4 16 -7 5 -14 -10 -6 -6 -9 14 -9 15 0 27 -5 27 -11 0 -5 -13 -9 -30 -7 -16
2 -30 -1 -30 -7 -1 -5 -7 -16 -13 -24 -10 -12 -9 -13 3 -7 12 6 11 4 -1 -6 -9
-7 -14 -19 -12 -25 7 -20 -14 -15 -21 4 -6 15 -8 15 -16 3 -9 -13 -10 -13 -10
0 0 13 -1 13 -10 0 -7 -10 -10 -11 -11 -2 -3 27 -4 31 -11 38 -5 4 -8 0 -8 -9
0 -9 -5 -17 -11 -17 -6 0 -8 7 -5 15 15 37 16 48 3 26 -9 -16 -16 -19 -19 -11
-2 7 -4 -4 -5 -24 -1 -38 -17 -66 -37 -66 -18 0 -66 -53 -66 -73 0 -9 11 -24
25 -33 14 -9 22 -20 19 -25 -3 -5 0 -9 5 -9 6 0 11 5 11 10 0 6 8 10 18 10 11
0 34 8 53 17 69 34 146 7 132 -46 -5 -20 -5 -20 33 0 22 10 44 17 51 14 7 -2
13 0 13 6 0 7 10 9 25 5 14 -4 25 -2 25 4 0 5 3 9 8 8 4 -1 17 1 30 6 23 8 31
28 10 25 -21 -3 -78 13 -78 22 0 4 12 6 28 5 30 -4 77 16 85 36 3 8 6 6 6 -5
1 -11 12 -20 31 -24 38 -7 49 -23 16 -23 -14 0 -27 -4 -31 -10 -3 -5 9 -7 30
-5 20 3 34 1 31 -4 -8 -12 29 -20 45 -10 11 7 12 12 1 29 -13 21 -4 28 14 10
7 -7 10 -4 9 12 -1 16 -8 23 -25 23 -13 0 -25 6 -27 13 -3 6 2 12 11 12 9 0
16 5 16 11 0 6 -9 8 -20 4 -24 -8 -28 19 -4 33 13 7 13 13 3 35 -13 28 -25 34
-31 16 -2 -5 -11 -7 -21 -4 -9 4 -15 11 -12 15 3 5 -3 7 -12 5 -10 -1 -23 2
-29 6 -7 6 -22 6 -35 1 -26 -9 -68 -4 -52 7 6 3 14 17 18 30 4 15 3 21 -3 17
-11 -7 -25 21 -16 35 3 5 17 6 31 3 22 -6 25 -4 20 10 -4 9 -2 16 4 16 5 0 12
-7 15 -15 4 -8 14 -15 23 -15 23 0 91 -67 91 -89 0 -5 6 -14 14 -20 10 -9 15
-8 19 3 3 8 -10 33 -32 58 -20 24 -43 57 -50 73 -6 17 -22 42 -34 57 l-22 26
-17 -23z m-101 -192 c-4 -3 -1 -13 6 -22 10 -14 10 -14 -4 -4 -9 7 -19 10 -22
6 -4 -3 -7 -1 -7 5 0 5 6 13 13 15 18 8 21 8 14 0z m-71 -27 c1 -18 -2 -22
-17 -19 -30 8 -22 37 11 42 3 1 6 -10 6 -23z m34 -65 c0 -5 -11 -8 -25 -7 -33
1 -33 16 0 16 14 0 25 -4 25 -9z"/>
<path d="M4706 2480 c6 -24 6 -24 -10 -5 -8 11 -16 15 -16 8 0 -18 11 -43 20
-43 14 0 20 31 10 48 -9 14 -10 12 -4 -8z"/>
<path d="M2540 2439 c0 -5 -3 -8 -8 -5 -4 2 -15 -9 -24 -25 -10 -16 -14 -29
-10 -29 9 1 43 30 61 53 12 15 11 17 -3 17 -9 0 -16 -5 -16 -11z"/>
<path d="M2593 2425 c14 -30 27 -32 27 -4 0 11 -4 17 -10 14 -5 -3 -10 -1 -10
4 0 6 -4 11 -9 11 -5 0 -4 -11 2 -25z"/>
<path d="M2085 2403 c-14 -21 -25 -43 -25 -49 0 -13 -35 -46 -42 -39 -2 3 -4
-5 -4 -18 1 -12 -4 -21 -11 -20 -13 3 -28 -38 -25 -70 0 -9 -6 -29 -13 -44
-18 -34 -13 -39 19 -18 25 16 26 16 26 -1 1 -11 7 -30 15 -44 l13 -25 7 27 c4
15 4 31 1 36 -3 5 1 15 8 21 15 12 31 0 18 -13 -4 -4 -7 -20 -8 -36 -1 -43 39
-47 68 -7 18 25 19 33 8 50 -10 17 -10 22 5 34 21 15 45 1 45 -25 0 -13 3 -12
14 4 13 17 13 21 -7 36 -20 15 -20 17 -4 23 9 4 17 12 17 17 0 6 -7 7 -16 4
-10 -4 -13 -2 -7 6 4 7 8 31 8 54 1 31 -2 41 -11 37 -9 -3 -12 5 -11 26 1 17
-2 30 -7 30 -5 0 -12 5 -17 13 -6 10 -12 9 -24 -7 -16 -19 -16 -19 -10 8 7 36
1 34 -30 -10z"/>
<path d="M4581 2421 c-8 -5 -14 -23 -13 -40 0 -17 -4 -29 -9 -26 -5 4 -9 14
-9 24 0 10 -12 23 -26 30 -14 6 -24 8 -22 4 24 -50 35 -63 59 -73 44 -19 74
-94 36 -89 -29 4 -39 -2 -33 -18 6 -15 5 -15 -12 1 -14 12 -19 29 -18 55 2 29
-2 37 -15 38 -14 1 -17 -6 -14 -35 1 -20 6 -45 10 -55 9 -21 -3 -37 -14 -19
-5 9 -11 5 -19 -12 -9 -20 -8 -28 3 -40 8 -8 15 -19 15 -25 0 -6 9 -11 20 -11
23 0 27 25 5 34 -8 3 -14 13 -14 23 1 17 2 17 6 0 3 -13 10 -16 25 -11 14 4
24 -1 35 -15 8 -12 20 -21 26 -20 26 3 37 -2 37 -16 0 -9 7 -18 15 -21 13 -5
33 -36 82 -124 14 -25 18 -48 15 -79 -5 -53 12 -49 23 6 l8 38 12 -35 12 -35
5 35 c3 19 -1 50 -9 69 -9 20 -13 49 -10 68 5 31 -7 47 -15 21 -3 -7 -7 -2
-11 11 -4 17 -2 21 9 17 10 -4 14 3 14 30 0 21 -4 33 -10 29 -5 -3 -10 1 -10
9 0 9 -4 16 -10 16 -5 0 -10 6 -10 14 0 7 -8 20 -17 27 -15 13 -16 11 -9 -11
17 -55 17 -75 0 -37 -10 24 -23 37 -35 37 -11 0 -19 7 -20 18 0 9 -2 29 -4 44
-3 20 0 25 11 21 22 -8 17 41 -6 62 -16 14 -19 15 -15 4 4 -12 -2 -15 -28 -15
-30 1 -33 3 -29 28 2 16 8 28 13 28 5 0 6 7 3 15 -7 17 -13 18 -33 6z m99
-272 c0 -5 -4 -9 -10 -9 -5 0 -10 7 -10 16 0 8 5 12 10 9 6 -3 10 -10 10 -16z
m77 -11 c-3 -7 -5 -2 -5 12 0 14 2 19 5 13 2 -7 2 -19 0 -25z"/>
<path d="M2300 2409 c0 -5 -4 -8 -8 -5 -5 3 -24 -10 -42 -29 -19 -19 -29 -35
-22 -35 7 0 12 5 12 11 0 5 4 8 9 4 5 -3 11 3 13 12 2 10 10 18 18 19 8 1 25
2 37 2 15 2 21 7 17 17 -7 17 -34 21 -34 4z"/>
<path d="M2416 2390 c-25 -26 -41 -37 -56 -38 -8 0 -27 -3 -42 -6 -18 -4 -28
-2 -28 5 0 8 -4 8 -15 -1 -21 -17 -19 -29 4 -23 14 4 19 -2 23 -26 3 -23 1
-31 -11 -31 -9 -1 0 -8 19 -17 19 -8 29 -17 23 -20 -18 -7 -16 -27 5 -46 16
-15 17 -13 19 33 2 40 -1 49 -17 53 -14 4 -20 14 -20 33 0 27 1 27 15 8 8 -10
15 -14 15 -7 0 6 14 22 32 34 l31 23 -7 -27 c-4 -17 -2 -27 4 -27 6 0 8 -4 5
-10 -3 -5 -1 -10 4 -10 6 0 11 7 11 15 0 8 5 15 10 15 6 0 10 16 10 35 0 22 6
37 17 44 14 7 12 9 -10 8 -15 -1 -33 -9 -41 -17z"/>
<path d="M4711 2384 c0 -11 3 -14 6 -6 3 7 2 16 -1 19 -3 4 -6 -2 -5 -13z"/>
<path d="M2690 2370 c20 -13 33 -13 25 0 -3 6 -14 10 -23 10 -15 0 -15 -2 -2
-10z"/>
<path d="M4456 2366 c3 -9 11 -16 16 -16 13 0 5 23 -10 28 -7 2 -10 -2 -6 -12z"/>
<path d="M3765 2339 c-11 -17 1 -21 15 -4 8 9 8 15 2 15 -6 0 -14 -5 -17 -11z"/>
<path d="M4030 2330 c0 -5 7 -10 16 -10 8 0 12 5 9 10 -3 6 -10 10 -16 10 -5
0 -9 -4 -9 -10z"/>
<path d="M2210 2300 c0 -5 4 -10 9 -10 6 0 13 5 16 10 3 6 -1 10 -9 10 -9 0
-16 -4 -16 -10z"/>
<path d="M2242 2288 c-15 -15 -16 -35 0 -44 7 -5 9 -2 5 9 -3 9 -1 17 5 19 6
2 9 10 7 16 -3 10 -7 10 -17 0z"/>
<path d="M4700 2283 c0 -21 20 -56 20 -35 0 7 5 10 11 6 8 -5 8 -1 0 14 -16
29 -31 37 -31 15z"/>
<path d="M4746 2285 c4 -8 8 -15 10 -15 2 0 4 7 4 15 0 8 -4 15 -10 15 -5 0
-7 -7 -4 -15z"/>
<path d="M3715 2280 c3 -5 8 -10 11 -10 2 0 4 5 4 10 0 6 -5 10 -11 10 -5 0
-7 -4 -4 -10z"/>
<path d="M2220 2220 c-13 -8 -12 -10 3 -10 9 0 17 5 17 10 0 12 -1 12 -20 0z"/>
<path d="M2296 2201 c-3 -5 1 -11 9 -14 9 -4 12 -1 8 9 -6 16 -10 17 -17 5z"/>
<path d="M2290 2163 c0 -13 4 -23 9 -23 4 0 6 -11 3 -25 -3 -20 -7 -23 -18
-14 -11 9 -14 8 -14 -5 0 -9 -11 -27 -25 -40 -24 -22 -26 -56 -5 -56 9 0 25
-40 22 -52 -1 -5 3 -8 8 -8 6 0 11 5 11 10 3 19 5 25 16 45 6 11 14 35 18 53
3 18 14 40 23 49 13 12 14 17 4 21 -10 3 -10 7 -1 18 9 11 7 14 -9 14 -12 0
-26 8 -31 18 -9 15 -10 15 -11 -5z"/>
<path d="M1965 2067 c-12 -9 -14 -16 -7 -21 6 -3 16 3 22 14 13 24 10 25 -15
7z"/>
<path d="M4625 2053 c20 -38 54 -77 61 -70 3 3 1 14 -5 25 -6 12 -11 30 -11
42 0 15 -5 20 -15 17 -8 -4 -17 -2 -20 3 -15 24 -24 7 -10 -17z"/>
<path d="M4234 2039 c-3 -5 4 -9 15 -9 12 0 21 -5 21 -11 0 -5 5 -7 10 -4 6 3
10 10 10 14 0 12 -49 20 -56 10z"/>
<path d="M4165 2030 c3 -5 10 -10 16 -10 5 0 9 5 9 10 0 6 -7 10 -16 10 -8 0
-12 -4 -9 -10z"/>
<path d="M2200 1995 c-6 -16 -20 -35 -30 -42 -11 -8 -17 -19 -14 -27 3 -7 -11
-30 -30 -51 -20 -21 -34 -40 -33 -42 9 -8 57 24 57 39 0 9 5 20 10 23 6 4 10
-7 10 -24 0 -17 -4 -31 -10 -31 -5 0 -10 -4 -10 -10 0 -5 7 -7 16 -3 13 5 15
16 11 50 -4 40 -2 46 25 66 17 12 34 21 39 20 5 -2 9 2 9 7 0 6 -7 10 -16 10
-8 0 -13 4 -10 8 2 4 1 14 -4 22 -7 11 -11 8 -20 -15z"/>
<path d="M4640 1991 c0 -5 5 -13 10 -16 6 -3 10 -2 10 4 0 5 -4 13 -10 16 -5
3 -10 2 -10 -4z"/>
<path d="M1993 1927 c-3 -5 -13 -7 -23 -4 -21 5 -29 -29 -20 -78 4 -16 3 -37
-1 -45 -4 -9 -1 -24 7 -35 13 -17 16 -18 25 -5 5 8 8 36 5 63 -3 26 -1 47 4
47 6 0 10 -4 10 -10 0 -51 63 -65 79 -18 6 17 6 30 0 33 -5 4 -9 16 -10 28 -1
16 -3 14 -10 -10 -16 -54 -35 -39 -30 23 1 21 -24 30 -36 11z"/>
<path d="M2120 1909 c-7 -11 -10 -23 -7 -25 2 -2 9 7 15 21 14 30 7 33 -8 4z"/>
<path d="M4781 1894 c0 -11 3 -14 6 -6 3 7 2 16 -1 19 -3 4 -6 -2 -5 -13z"/>
<path d="M2230 1861 c0 -6 5 -13 10 -16 6 -3 10 1 10 9 0 9 -4 16 -10 16 -5 0
-10 -4 -10 -9z"/>
<path d="M2035 1790 c3 -5 8 -10 11 -10 2 0 4 5 4 10 0 6 -5 10 -11 10 -5 0
-7 -4 -4 -10z"/>
<path d="M2125 1760 c3 -5 8 -10 11 -10 2 0 4 5 4 10 0 6 -5 10 -11 10 -5 0
-7 -4 -4 -10z"/>
<path d="M2099 1720 c-7 -18 10 -60 24 -60 6 0 5 5 -1 13 -5 6 -12 23 -14 37
-2 17 -5 20 -9 10z"/>
<path d="M2100 1640 c0 -5 5 -10 10 -10 6 0 10 5 10 10 0 6 -4 10 -10 10 -5 0
-10 -4 -10 -10z"/>
<path d="M2084 1554 c3 -9 6 -18 6 -20 0 -2 9 -4 20 -4 23 0 26 10 8 28 -18
18 -41 15 -34 -4z"/>
<path d="M2061 1448 c-5 -13 -7 -26 -4 -30 8 -14 23 -8 23 8 0 8 4 13 9 9 5
-3 12 -2 15 3 2 4 -4 14 -15 20 -17 11 -21 9 -28 -10z"/>
<path d="M2130 1440 c0 -5 5 -10 11 -10 5 0 7 5 4 10 -3 6 -8 10 -11 10 -2 0
-4 -4 -4 -10z"/>
<path d="M1983 1413 c-8 -3 -13 -23 -13 -51 1 -38 3 -44 11 -29 6 10 9 21 6
24 -3 2 -1 18 3 34 5 16 8 29 7 28 -1 0 -8 -3 -14 -6z"/>
<path d="M2012 1380 c0 -14 2 -19 5 -12 2 6 2 18 0 25 -3 6 -5 1 -5 -13z"/>
</g>
</svg>
