<?xml version="1.0" standalone="no"?>
<!DOCTYPE svg PUBLIC "-//W3C//DTD SVG 20010904//EN"
 "http://www.w3.org/TR/2001/REC-SVG-20010904/DTD/svg10.dtd">
<svg version="1.0" xmlns="http://www.w3.org/2000/svg"
 width="198.000000pt" height="184.000000pt" viewBox="0 0 198.000000 184.000000"
 preserveAspectRatio="xMidYMid meet">

<g transform="translate(0.000000,184.000000) scale(0.100000,-0.100000)"
fill="#000000" stroke="none">
<path d="M825 1794 c-112 -17 -192 -41 -292 -90 -62 -30 -117 -63 -123 -74 -6
-11 -15 -18 -21 -15 -5 4 -9 1 -9 -6 0 -7 -8 -21 -17 -31 -16 -18 -16 -18 3
-12 10 4 29 14 42 22 14 9 22 10 22 3 0 -6 -12 -17 -27 -25 -46 -24 -93 -76
-100 -108 -4 -20 -8 -25 -14 -17 -4 7 -3 21 2 32 9 17 8 17 -11 7 -12 -6 -19
-17 -17 -23 2 -7 -2 -20 -11 -29 -10 -12 -11 -18 -3 -18 7 0 9 -9 5 -24 -8
-32 12 -92 37 -110 27 -19 66 -8 89 24 24 34 27 62 5 54 -11 -5 -14 0 -12 17
2 13 9 24 15 23 35 -3 37 -4 24 -12 -22 -15 -3 -37 33 -39 25 -1 35 3 35 13 0
8 3 14 8 14 4 0 8 -19 9 -42 1 -28 8 -47 21 -57 10 -9 25 -31 32 -48 8 -21 19
-33 31 -33 24 0 34 -19 14 -26 -17 -7 -55 22 -55 42 0 18 -20 28 -32 16 -12
-12 11 -84 24 -76 4 3 5 -2 2 -10 -8 -20 23 -33 39 -17 16 16 24 14 30 -10 3
-11 15 -23 26 -26 26 -7 26 -12 -2 -44 -27 -30 -71 -59 -92 -59 -8 0 -15 -3
-15 -8 0 -12 -74 -31 -86 -21 -7 6 -11 0 -11 -20 0 -23 6 -31 26 -37 14 -4 29
-7 34 -6 10 3 9 -26 -3 -48 -7 -12 -17 -17 -28 -14 -13 5 -14 4 -3 -4 17 -12
-4 -56 -24 -48 -17 6 -30 -25 -14 -34 6 -5 2 -9 -11 -13 -19 -5 -21 -2 -17 19
2 13 0 27 -4 30 -5 3 -9 -11 -9 -30 0 -25 -4 -36 -15 -36 -8 0 -15 -4 -15 -10
0 -5 5 -10 10 -10 17 0 11 -18 -14 -44 -30 -33 -44 -33 -56 0 -17 43 -13 74
10 74 22 0 27 15 9 26 -6 3 -8 17 -5 30 5 17 2 24 -8 24 -10 0 -12 -7 -8 -22
3 -14 2 -19 -6 -14 -17 10 -15 44 2 48 13 3 13 6 1 28 -14 25 -14 25 -15 3 0
-14 -6 -23 -15 -23 -11 0 -12 -5 -5 -25 10 -27 3 -85 -11 -85 -5 0 -9 5 -9 12
0 9 -3 9 -12 0 -17 -17 -28 -15 -28 4 0 8 -4 12 -10 9 -5 -3 -10 1 -10 9 0 9
-6 16 -14 16 -8 0 -16 6 -19 14 -3 7 -15 16 -26 19 -18 4 -19 2 -10 -15 6 -10
8 -27 6 -36 -4 -14 -6 -13 -12 6 -9 28 -25 29 -25 1 0 -11 4 -18 9 -15 5 3 12
-6 15 -22 11 -44 77 -173 92 -179 8 -3 14 -11 14 -18 0 -8 14 -24 31 -36 21
-14 29 -28 26 -40 -6 -22 17 -46 28 -29 4 6 2 17 -5 25 -7 9 -8 15 0 20 5 3
14 -4 18 -15 8 -22 9 -22 27 -4 18 19 18 19 -1 22 -11 2 -28 17 -39 34 -18 31
-18 31 4 25 11 -3 21 0 21 5 0 6 6 5 15 -2 8 -7 12 -17 8 -23 -3 -6 -1 -7 5
-3 7 4 12 14 12 21 0 12 5 12 25 3 13 -6 22 -15 19 -20 -3 -4 -11 -5 -17 -2
-8 5 -8 3 0 -7 7 -7 13 -22 13 -32 0 -17 -2 -18 -16 -6 -14 11 -18 10 -30 -5
-11 -16 -11 -23 6 -47 11 -15 21 -39 22 -53 2 -18 12 -29 40 -42 50 -22 42
-28 -17 -13 -27 7 -62 26 -84 45 -20 19 -38 34 -41 34 -13 0 -82 102 -119 175
-44 87 -53 95 -20 18 35 -82 126 -208 198 -275 91 -84 232 -161 358 -195 87
-24 116 -27 258 -27 155 1 163 2 250 33 50 18 108 42 130 54 186 94 351 284
421 485 26 74 35 88 88 134 82 72 111 136 110 243 0 60 -6 92 -22 128 -26 57
-100 131 -168 167 -35 18 -61 43 -93 90 -58 84 -180 205 -256 255 -79 52 -197
102 -282 120 -71 16 -237 27 -288 19z m-254 -98 c-6 -8 -26 -19 -44 -26 -18
-6 -40 -16 -50 -22 -11 -5 -21 -7 -24 -4 -5 5 105 65 121 66 5 0 3 -6 -3 -14z
m65 -99 c-3 -24 -18 -37 -42 -37 -13 0 -24 4 -24 9 0 5 -20 3 -45 -5 -27 -7
-45 -9 -45 -3 0 11 21 20 95 41 54 16 64 15 61 -5z m109 13 c3 -5 -2 -10 -12
-10 -11 0 -24 -5 -31 -12 -9 -9 -15 -9 -24 0 -9 9 -8 12 3 16 8 2 21 7 29 9
23 8 28 8 35 -3z m-95 -50 c0 -5 -5 -10 -11 -10 -5 0 -7 5 -4 10 3 6 8 10 11
10 2 0 4 -4 4 -10z m-218 -51 c-23 -22 -42 -45 -42 -51 0 -6 -3 -8 -7 -4 -15
15 -11 41 13 69 13 15 24 26 24 23 0 -3 10 -2 23 3 36 14 33 4 -11 -40z m148
11 c-14 -11 -29 -20 -33 -20 -4 0 -12 -10 -17 -22 -8 -20 -9 -21 -9 -4 -1 26
33 61 61 63 l23 2 -25 -19z m-100 -10 c-8 -5 -17 -7 -19 -4 -3 3 1 9 9 14 8 5
17 7 19 4 3 -3 -1 -9 -9 -14z m220 -79 c0 -17 6 -31 15 -35 12 -4 14 0 11 18
-2 12 0 29 5 37 6 10 9 10 9 2 0 -7 6 -13 13 -13 7 0 13 -9 13 -20 0 -11 -4
-20 -8 -20 -4 0 -8 -6 -8 -13 0 -8 -9 -22 -20 -32 -19 -17 -20 -17 -21 1 0 18
-1 18 -8 0 -7 -17 -8 -17 -23 -2 -15 14 -18 14 -32 1 -8 -8 -17 -15 -20 -15
-12 0 -6 48 7 53 9 3 9 7 -2 20 -20 25 -8 42 33 44 34 3 36 1 36 -26z m288
-32 c1 -13 3 -33 3 -44 0 -10 5 -25 11 -32 8 -10 6 -13 -9 -13 -14 0 -21 -10
-29 -42 -7 -33 -14 -43 -29 -43 -12 0 -20 7 -20 17 0 9 -11 27 -24 39 -15 14
-20 24 -13 27 7 2 10 8 6 13 -3 5 2 9 10 9 9 0 16 7 16 16 0 8 5 12 10 9 6 -3
13 2 16 12 15 47 25 64 37 60 6 -2 13 -15 15 -28z m-518 11 c0 -5 -9 -10 -20
-10 -11 0 -20 5 -20 10 0 6 9 10 20 10 11 0 20 -4 20 -10z m420 -50 c-20 -13
-40 -13 -40 0 0 6 12 10 28 10 21 0 24 -2 12 -10z m-346 -46 c5 -14 4 -15 -9
-4 -17 14 -19 20 -6 20 5 0 12 -7 15 -16z m243 10 c-3 -3 -12 -4 -19 -1 -8 3
-5 6 6 6 11 1 17 -2 13 -5z m-122 -22 c11 -3 23 -10 27 -16 5 -8 8 -7 8 2 0 6
4 12 8 12 5 0 9 -7 9 -15 0 -17 -23 -20 -32 -5 -3 6 -11 10 -16 10 -6 0 -7 -5
-4 -10 4 -6 2 -17 -5 -25 -8 -10 -8 -19 -1 -34 14 -25 14 -31 0 -31 -5 0 -8 4
-5 8 3 5 -2 18 -10 30 -12 18 -18 19 -28 9 -8 -6 -11 -18 -9 -24 10 -25 -6
-13 -26 21 -24 39 -27 53 -7 37 10 -8 16 -9 21 -1 3 5 -1 13 -9 16 -26 10 -18
27 9 22 15 -3 22 -1 18 5 -4 7 1 8 13 3 10 -5 28 -11 39 -14z m862 -19 c21
-27 52 -93 44 -93 -4 0 -8 -6 -8 -14 0 -8 8 -11 20 -8 17 4 19 2 12 -14 -4
-10 -7 -28 -5 -39 6 -51 0 -99 -13 -112 -13 -14 -19 -12 -51 13 -20 16 -34 34
-32 41 3 6 -2 17 -10 23 -11 10 -14 9 -14 -4 0 -10 -4 -26 -10 -36 -13 -24
-48 -15 -53 14 -2 11 -3 -1 -2 -29 4 -64 22 -115 40 -109 10 4 12 -3 10 -25
-2 -17 -6 -45 -8 -61 -8 -74 -55 -53 -105 49 -54 111 -29 262 59 349 27 27 91
70 108 72 2 0 10 -8 18 -17z m-779 -34 c44 -15 47 -36 11 -70 l-32 -30 -18 28
c-22 33 -24 54 -7 71 14 14 9 14 46 1z m126 3 c3 -5 -2 -19 -12 -33 l-16 -23
-7 24 c-3 14 -4 28 -2 33 6 10 31 9 37 -1z m151 -52 c-3 -5 6 -15 20 -22 32
-14 29 -40 -5 -48 -21 -5 -22 -7 -7 -13 25 -9 21 -25 -7 -23 -13 0 -22 4 -19
9 2 4 -4 7 -15 7 -13 0 -18 -7 -18 -22 1 -18 -4 -22 -22 -21 -13 2 -21 -1 -18
-6 4 -5 -2 -7 -13 -4 -10 3 -22 0 -26 -7 -5 -8 -10 -8 -21 1 -11 9 -14 8 -14
-4 0 -25 26 -40 42 -23 10 9 20 11 29 5 10 -6 10 -9 2 -9 -22 0 -14 -26 10
-37 22 -10 23 -9 19 20 -5 29 -4 30 11 15 10 -9 26 -14 41 -11 19 4 26 1 26
-11 0 -11 -9 -16 -30 -16 -20 0 -30 -5 -30 -15 0 -11 -5 -12 -25 -5 -23 9 -24
8 -13 -10 7 -11 22 -20 33 -21 11 0 14 -3 8 -6 -7 -2 -13 -13 -13 -23 0 -9 -7
-23 -15 -30 -8 -7 -12 -17 -8 -24 3 -6 3 -8 -2 -4 -5 5 -14 -1 -22 -12 -7 -10
-20 -17 -28 -14 -10 4 -12 0 -8 -18 l6 -23 -25 23 c-18 16 -28 20 -33 12 -4
-6 -13 -9 -21 -6 -8 3 -14 1 -14 -4 0 -6 5 -10 12 -10 9 0 9 -3 1 -11 -14 -14
-33 -3 -33 20 0 13 10 21 33 26 17 4 26 9 19 12 -10 4 -10 8 -1 19 6 8 17 14
23 14 6 0 5 -4 -3 -9 -19 -12 -5 -31 24 -31 18 0 23 4 19 15 -4 8 -1 22 5 29
14 17 5 62 -14 70 -7 2 -21 -6 -29 -19 -11 -16 -22 -22 -34 -19 -16 5 -16 4 1
-9 12 -10 15 -17 7 -22 -6 -4 -17 -2 -25 5 -16 13 -16 50 0 50 7 0 12 6 13 13
0 6 6 31 12 55 6 24 8 48 4 53 -3 5 -1 16 6 24 9 11 7 12 -7 9 -11 -3 -30 5
-45 19 -15 14 -33 27 -40 29 -7 3 0 7 15 10 23 4 30 1 37 -16 l9 -21 7 23 c3
12 11 22 16 22 5 0 6 6 2 13 -5 8 -2 8 9 -2 15 -12 17 -11 17 8 0 15 4 20 13
14 6 -4 21 -6 32 -4 11 2 17 0 13 -4 -4 -4 4 -17 18 -27 14 -11 28 -18 31 -14
4 3 0 6 -8 7 -8 1 -3 4 11 8 16 5 24 13 22 24 -2 9 2 17 8 17 6 0 8 5 5 10 -3
6 1 10 10 10 9 0 13 -4 10 -10z m-205 -10 c12 -8 11 -10 -7 -10 -13 0 -23 5
-23 10 0 13 11 13 30 0z m-140 -26 c0 -2 -9 -4 -20 -4 -11 0 -20 4 -20 9 0 5
9 7 20 4 11 -3 20 -7 20 -9z m28 -31 c-10 -2 -28 -2 -40 0 -13 2 -5 4 17 4 22
1 32 -1 23 -4z m372 -37 c0 -3 -4 -8 -10 -11 -5 -3 -10 -1 -10 4 0 6 5 11 10
11 6 0 10 -2 10 -4z m-332 -63 c16 -16 16 -16 -1 -10 -10 4 -26 7 -35 7 -15 0
-15 2 -2 10 20 13 19 13 38 -7z m170 -267 c-7 -8 -15 -12 -17 -11 -5 6 10 25
20 25 5 0 4 -6 -3 -14z m-128 -6 c0 -5 -4 -10 -10 -10 -5 0 -10 5 -10 10 0 6
5 10 10 10 6 0 10 -4 10 -10z m40 -5 c-7 -8 -17 -15 -22 -15 -6 0 -5 7 2 15 7
8 17 15 22 15 6 0 5 -7 -2 -15z m20 -41 c0 -16 -18 -18 -40 -4 -13 9 -13 11
-1 19 18 12 41 3 41 -15z m170 9 c0 -25 -3 -28 -48 -45 -46 -18 -67 -15 -59 6
4 9 -2 11 -18 8 -12 -2 -26 1 -30 7 -3 6 -3 11 2 10 4 -1 19 0 33 1 18 2 20 4
7 7 -35 9 -7 20 53 20 43 0 60 -4 60 -14z m-389 -37 c-8 -9 -11 -26 -7 -41 5
-18 2 -25 -9 -25 -8 0 -15 8 -15 17 0 9 -3 13 -7 10 -9 -10 -33 13 -33 32 0
13 10 18 42 20 36 2 40 0 29 -13z m192 -33 c-7 -2 -19 -2 -25 0 -7 3 -2 5 12
5 14 0 19 -2 13 -5z m-116 -29 c-10 -10 33 -44 55 -44 10 0 18 -5 18 -11 0 -7
-11 -9 -32 -5 -18 4 -43 7 -56 6 -27 0 -62 17 -62 29 0 7 23 16 79 30 2 1 1
-2 -2 -5z m-417 -48 c0 -24 -17 -28 -23 -6 -3 13 0 20 9 20 8 0 14 -6 14 -14z
m93 -29 c4 -10 -2 -13 -19 -9 -13 2 -21 8 -18 13 8 14 31 11 37 -4z m77 -57
c0 -5 -4 -10 -10 -10 -5 0 -10 5 -10 10 0 6 5 10 10 10 6 0 10 -4 10 -10z m33
-55 c-4 -23 0 -43 11 -60 18 -28 6 -34 -18 -9 -17 17 -19 35 -10 83 9 42 24
29 17 -14z m-78 -5 c3 -5 1 -10 -4 -10 -6 0 -11 5 -11 10 0 6 2 10 4 10 3 0 8
-4 11 -10z m48 -76 c14 -5 12 -45 -2 -43 -15 1 -45 18 -33 18 6 1 12 8 12 16
0 17 2 17 23 9z m117 -79 c0 -9 -51 2 -54 12 -4 9 3 9 25 1 16 -5 29 -11 29
-13z"/>
<path d="M1450 1113 c0 -25 1 -26 16 -11 9 9 13 21 10 27 -13 20 -26 11 -26
-16z"/>
<path d="M726 1204 c-5 -13 2 -24 16 -24 4 0 8 6 8 14 0 8 6 16 13 19 6 3 2 4
-10 4 -12 -1 -25 -7 -27 -13z"/>
<path d="M927 1094 c3 -7 9 -14 14 -14 14 0 10 17 -5 23 -10 4 -13 1 -9 -9z"/>
<path d="M328 1214 c-13 -12 -9 -156 5 -194 18 -51 44 -49 43 4 -1 23 -7 45
-14 49 -7 5 -11 16 -8 25 7 22 -17 126 -26 116z"/>
<path d="M370 1159 c0 -5 5 -7 10 -4 6 3 10 8 10 11 0 2 -4 4 -10 4 -5 0 -10
-5 -10 -11z"/>
<path d="M390 976 c0 -8 5 -18 10 -21 6 -3 10 1 10 9 0 8 -4 18 -10 21 -5 3
-10 -1 -10 -9z"/>
<path d="M360 955 c0 -8 7 -15 15 -15 9 0 12 6 9 15 -4 8 -10 15 -15 15 -5 0
-9 -7 -9 -15z"/>
<path d="M174 900 c0 -22 4 -40 7 -40 4 0 10 -11 13 -25 6 -24 26 -36 26 -15
0 6 -4 10 -10 10 -24 0 -7 28 20 34 17 3 30 10 30 15 0 5 -9 7 -20 4 -14 -4
-24 3 -37 26 -24 41 -31 39 -29 -9z"/>
<path d="M335 920 c3 -5 8 -10 11 -10 2 0 4 5 4 10 0 6 -5 10 -11 10 -5 0 -7
-4 -4 -10z"/>
<path d="M141 904 c0 -11 3 -14 6 -6 3 7 2 16 -1 19 -3 4 -6 -2 -5 -13z"/>
<path d="M345 889 c-4 -6 -5 -12 -2 -15 2 -3 7 2 10 11 7 17 1 20 -8 4z"/>
<path d="M85 861 c-3 -5 -1 -12 5 -16 5 -3 10 1 10 9 0 18 -6 21 -15 7z"/>
<path d="M211 763 c7 -10 15 -20 16 -22 2 -2 3 3 3 11 0 9 -7 19 -16 22 -15 6
-15 4 -3 -11z"/>
</g>
</svg>
