<?xml version="1.0" standalone="no"?>
<!DOCTYPE svg PUBLIC "-//W3C//DTD SVG 20010904//EN"
 "http://www.w3.org/TR/2001/REC-SVG-20010904/DTD/svg10.dtd">
<svg version="1.0" xmlns="http://www.w3.org/2000/svg"
 width="600.000000pt" height="338.000000pt" viewBox="0 0 600.000000 338.000000"
 preserveAspectRatio="xMidYMid meet">

<g transform="translate(0.000000,338.000000) scale(0.100000,-0.100000)"
fill="#000000" stroke="none">
<path d="M2795 3293 c-201 -28 -342 -71 -515 -159 -160 -81 -307 -192 -443
-333 -213 -221 -355 -494 -418 -801 -20 -98 -23 -144 -23 -310 0 -295 39 -461
164 -715 194 -392 536 -687 957 -824 169 -56 297 -75 483 -75 145 1 326 22
369 44 46 23 144 59 154 56 7 -1 9 -1 5 1 -4 2 -4 11 -1 20 5 12 3 14 -8 8 -9
-5 -11 -5 -4 2 6 5 29 15 52 22 23 6 49 18 57 26 8 8 19 15 24 15 13 0 91 45
122 70 20 17 21 19 5 14 -16 -6 -18 -5 -7 7 17 19 15 32 -5 25 -9 -4 -20 -1
-24 6 -6 10 -16 10 -46 0 -76 -26 -93 -35 -93 -46 0 -15 -65 -56 -88 -56 -10
0 -27 -7 -38 -15 -25 -19 -35 -19 -28 0 4 8 14 15 23 15 9 0 22 9 29 20 7 11
22 20 35 20 18 1 87 50 87 63 0 2 -15 2 -34 1 -35 -3 -67 18 -46 31 5 3 14 4
19 1 5 -3 14 1 20 8 10 12 8 15 -9 18 -26 4 -27 23 -1 23 11 0 23 3 27 7 4 5
2 8 -5 8 -7 0 2 13 19 28 22 20 29 34 24 48 -5 15 -4 16 4 4 9 -12 14 -11 31
9 25 28 26 35 7 28 -8 -3 -17 -3 -20 1 -16 16 -83 7 -112 -15 -17 -13 -34 -23
-39 -23 -4 0 -14 -8 -22 -17 -14 -17 -14 -17 -9 0 3 10 6 22 6 27 0 4 9 6 20
3 14 -4 21 1 25 20 4 14 4 30 1 35 -3 5 1 16 10 23 14 11 19 10 33 -7 15 -19
26 -21 106 -18 53 1 91 7 93 13 2 6 10 11 17 11 8 0 15 12 17 28 2 19 8 26 21
24 25 -4 21 13 -9 33 -26 17 -28 16 -88 -14 -80 -40 -94 -39 -51 4 39 38 45
56 16 48 -13 -3 -23 2 -30 16 -7 12 -8 21 -4 21 4 0 2 5 -5 12 -13 13 -16 29
-4 27 18 -3 32 2 32 11 0 6 -7 10 -16 10 -8 0 -12 5 -9 10 5 8 11 7 20 0 33
-27 73 29 63 85 -3 13 -1 22 3 19 5 -3 9 0 9 6 0 7 -12 9 -37 4 -31 -6 -35 -4
-30 10 4 9 1 16 -5 16 -6 0 -2 10 10 23 21 22 21 26 8 63 -8 21 -15 32 -15 22
-1 -12 -10 -16 -40 -15 -27 2 -37 6 -33 15 3 8 13 11 27 8 23 -6 80 16 69 27
-11 11 16 45 42 51 19 5 24 10 16 18 -6 6 -7 21 -2 39 5 16 6 29 4 29 -3 0 7
10 22 23 23 20 25 26 15 45 -7 14 -17 19 -28 15 -13 -5 -15 -2 -11 15 4 12 2
22 -3 22 -5 0 -9 9 -9 20 0 23 -18 26 -34 6 -13 -16 -86 -29 -86 -16 0 12 32
28 46 23 6 -2 9 9 8 26 -1 22 2 28 12 24 8 -3 14 1 14 11 0 10 -5 13 -17 9
-11 -4 -14 -3 -9 6 5 8 18 10 35 6 21 -5 24 -4 14 6 -17 17 -16 44 2 59 12 10
18 7 32 -19 10 -17 26 -31 36 -31 10 0 20 -7 23 -15 4 -8 10 -12 15 -9 5 3 9
-3 9 -13 0 -15 4 -14 19 7 22 28 25 79 4 87 -7 3 -13 11 -13 18 0 8 -9 17 -20
20 -11 4 -20 15 -20 26 0 14 -4 18 -12 12 -7 -4 -17 -8 -23 -8 -20 0 -44 -21
-54 -45 l-10 -25 0 27 c-1 25 -3 27 -33 21 -21 -4 -29 -3 -25 5 12 17 -3 41
-21 35 -9 -4 -14 -3 -10 2 4 4 3 14 -3 22 -17 19 8 17 28 -3 13 -13 17 -13 24
-2 5 7 6 21 3 31 -7 23 22 23 30 0 4 -11 1 -22 -9 -29 -14 -10 -13 -12 5 -17
11 -3 18 -2 15 2 -2 5 5 18 16 30 l21 22 31 -20 c18 -11 33 -29 35 -41 4 -24
22 -27 22 -4 0 11 5 14 17 10 17 -7 33 9 33 32 0 8 -7 11 -19 7 -10 -3 -23 1
-30 9 -7 8 -19 12 -27 9 -8 -3 -14 0 -14 7 0 9 10 11 30 7 22 -5 30 -3 30 7 0
8 -6 16 -12 19 -10 3 -10 7 -1 17 13 14 33 5 33 -16 0 -8 7 -14 15 -14 17 0
20 16 5 25 -5 3 -7 12 -3 20 3 8 0 15 -6 15 -8 0 -9 5 -1 19 5 11 10 28 10 38
-1 17 -1 17 -15 0 -10 -14 -20 -17 -37 -11 -13 4 -29 7 -35 6 -8 -2 -10 3 -7
13 3 8 1 15 -5 15 -6 0 -11 7 -11 15 0 8 -4 15 -10 15 -24 0 -7 30 28 48 l38
19 1 -38 c1 -22 -3 -39 -8 -39 -14 0 -10 -20 5 -26 18 -7 63 34 68 60 2 10 -3
21 -11 24 -9 3 -11 -2 -7 -19 3 -13 3 -18 0 -11 -3 6 -12 12 -20 12 -8 0 -14
7 -14 16 0 8 5 12 10 9 16 -10 40 14 33 32 -4 11 -2 14 5 9 7 -4 12 -1 12 9 0
21 36 33 83 27 42 -5 41 -6 27 34 -8 22 -17 29 -35 29 -26 0 -33 -9 -15 -20 6
-3 10 -14 10 -22 0 -14 -4 -13 -20 5 -26 28 -40 28 -40 1 0 -18 -4 -21 -29
-16 -39 8 -62 -16 -31 -33 11 -6 18 -16 14 -22 -4 -6 -9 -6 -13 -1 -3 5 -14
12 -23 16 -10 3 -18 13 -18 21 0 12 -5 14 -25 6 -16 -6 -25 -6 -25 0 0 6 -15
10 -32 10 -44 0 -62 13 -54 37 4 12 1 25 -9 33 -17 14 -20 40 -5 40 6 0 10 -6
10 -12 0 -7 17 -24 37 -37 26 -17 45 -22 69 -18 25 4 34 2 34 -8 0 -22 19 -28
36 -11 8 9 19 16 24 16 5 0 8 9 7 19 0 10 -6 17 -12 15 -6 -3 -10 15 -9 48 1
50 2 53 25 50 l24 -4 -25 26 c-13 15 -30 24 -36 22 -7 -3 -14 5 -16 17 -2 16
-10 22 -28 22 -21 0 -25 5 -22 27 2 14 -2 29 -8 33 -6 4 -15 18 -20 31 -6 14
-18 27 -27 31 -26 10 -33 24 -20 44 9 14 9 21 -1 31 -6 6 -12 20 -12 30 0 9
-6 21 -12 25 -7 4 -20 17 -28 27 -13 17 -10 16 16 -3 21 -16 37 -40 48 -74 9
-29 33 -76 53 -105 28 -42 40 -51 56 -46 11 3 22 1 26 -4 9 -15 35 3 29 19 -3
8 -5 17 -4 20 0 4 -6 15 -15 25 -27 32 -30 51 -8 57 13 3 23 -2 30 -15 8 -14
14 -17 22 -9 7 7 6 15 -2 25 -11 13 -8 17 15 28 16 7 32 17 36 23 4 5 8 0 8
-13 0 -13 4 -21 9 -17 5 3 12 -3 15 -12 5 -17 2 16 -9 101 -4 36 -4 38 20 32
18 -5 25 -2 25 9 0 8 5 15 10 15 6 0 10 -7 10 -15 0 -8 -4 -15 -10 -15 -5 0
-10 -9 -10 -20 0 -11 6 -20 13 -20 20 0 47 -33 47 -56 0 -11 11 -30 24 -41 13
-11 25 -26 27 -32 3 -7 14 -8 34 -2 25 8 26 9 8 10 -14 1 -23 7 -23 17 0 10 6
14 15 10 8 -3 15 -1 15 4 0 6 -7 10 -15 10 -17 0 -20 16 -5 25 6 3 10 12 10
18 0 8 -3 8 -9 -1 -13 -21 -53 7 -47 32 3 11 -4 32 -16 48 -11 16 -18 32 -14
35 12 12 56 10 67 -3 9 -11 15 -12 25 -3 17 14 2 36 -34 50 -20 8 -23 14 -17
36 5 22 -1 33 -46 75 -28 27 -54 46 -58 43 -3 -3 1 -10 9 -15 9 -6 10 -10 3
-10 -16 0 -43 28 -43 45 0 18 -15 26 -34 19 -23 -9 -20 -16 25 -68 22 -25 38
-46 34 -46 -4 0 7 -16 25 -36 17 -20 29 -39 25 -42 -3 -3 -13 5 -22 19 -17 23
-28 36 -109 124 -28 31 -33 41 -20 43 9 2 14 7 11 12 -3 5 -1 11 5 15 5 3 10
1 10 -4 0 -6 6 -11 13 -11 6 0 -4 14 -23 30 -19 16 -39 28 -45 26 -5 -1 -16 3
-23 11 -15 15 -32 17 -32 4 0 -11 19 -26 43 -34 13 -5 16 -3 11 6 -4 6 -3 9 1
4 5 -4 10 -16 12 -27 2 -16 -3 -18 -37 -15 -22 2 -40 -1 -40 -6 0 -5 5 -9 11
-9 5 0 7 -4 4 -10 -4 -6 1 -7 12 -3 10 3 15 2 11 -2 -5 -5 1 -14 12 -22 24
-17 27 -38 3 -29 -9 4 -20 1 -24 -6 -5 -8 -16 -2 -37 20 -18 19 -33 28 -37 22
-3 -6 14 -31 39 -56 60 -59 64 -108 8 -78 -15 8 -34 14 -43 14 -8 0 -26 11
-38 24 -14 15 -44 29 -73 35 -61 14 -78 14 -58 1 8 -5 11 -12 7 -16 -3 -4 -13
-1 -22 6 -12 10 -18 10 -32 -1 -16 -12 -17 -12 -5 2 7 9 9 24 6 34 -6 14 -4
15 12 7 21 -12 111 -28 134 -23 8 1 23 2 34 2 17 0 17 1 1 20 -22 23 -26 24
-18 3 11 -29 -20 -10 -44 27 -36 55 -69 85 -130 120 -66 37 -103 67 -103 84 0
7 -18 25 -41 41 -23 15 -36 30 -30 32 16 5 43 -6 37 -16 -3 -4 10 -16 29 -26
19 -10 31 -24 29 -31 -4 -8 6 -14 28 -17 18 -3 41 -8 51 -13 10 -4 17 -3 17 3
0 6 -9 14 -21 17 -11 4 -18 12 -16 19 3 7 -8 18 -24 25 -18 8 -29 20 -29 32 0
11 5 17 10 14 6 -4 8 -10 5 -14 -2 -5 15 -14 38 -20 23 -7 56 -21 73 -32 17
-10 40 -19 50 -19 18 1 18 1 0 15 -11 8 -27 15 -35 15 -21 0 -81 49 -61 50 13
0 13 1 0 10 -33 21 -171 61 -190 55 -28 -9 -68 4 -49 16 11 7 11 9 -3 9 -9 0
-18 -5 -20 -11 -3 -8 -10 -6 -21 6 -10 9 -24 14 -32 11 -8 -3 -15 -1 -15 4 0
6 -12 11 -27 11 -169 4 -414 6 -438 2z m667 -78 c16 -14 27 -25 24 -25 -14 0
-86 35 -86 42 0 16 33 7 62 -17z m488 -365 c0 -5 -4 -10 -10 -10 -5 0 -10 5
-10 10 0 6 5 10 10 10 6 0 10 -4 10 -10z m-220 -35 c7 -9 10 -18 7 -22 -8 -7
-37 15 -37 28 0 14 16 11 30 -6z m370 -5 c0 -5 -4 -10 -9 -10 -6 0 -13 5 -16
10 -3 6 1 10 9 10 9 0 16 -4 16 -10z m51 -77 c13 -15 12 -15 -8 -4 -24 12 -29
21 -14 21 5 0 15 -7 22 -17z m-201 -23 c0 -13 -30 -13 -50 0 -11 7 -7 10 18
10 17 0 32 -4 32 -10z m-375 -22 c5 4 5 2 1 -5 -8 -14 -36 -6 -36 9 0 7 5 6
13 -1 8 -6 18 -7 22 -3z m415 -28 c0 -11 -30 -34 -36 -27 -12 11 7 46 22 40 7
-3 14 -9 14 -13z m-33 -77 c-3 -3 -11 -2 -17 2 -9 6 -9 10 1 16 14 8 27 -7 16
-18z m-34 3 c6 -15 -1 -26 -15 -26 -5 0 -6 5 -3 10 3 6 1 10 -5 10 -6 0 -8 5
-5 10 9 14 22 12 28 -4z m-52 -41 c1 -17 -18 -17 -25 0 -4 11 -1 15 10 13 8
-2 15 -7 15 -13z m-21 -105 c0 -5 -4 -10 -10 -10 -5 0 -10 5 -10 10 0 6 5 10
10 10 6 0 10 -4 10 -10z m-175 -20 c3 -5 2 -10 -4 -10 -5 0 -13 5 -16 10 -3 6
-2 10 4 10 5 0 13 -4 16 -10z m5 -51 c-22 -6 -23 -7 -6 -14 10 -4 32 -11 49
-14 17 -4 33 -13 35 -21 4 -11 2 -12 -9 -4 -8 5 -35 10 -61 9 -40 0 -48 3 -48
17 0 10 -5 18 -12 18 -18 0 3 17 27 22 32 7 55 -5 25 -13z m-33 -181 c-3 -8
-6 -5 -6 6 -1 11 2 17 5 13 3 -3 4 -12 1 -19z m233 -32 c0 -3 -4 -8 -10 -11
-5 -3 -10 -1 -10 4 0 6 5 11 10 11 6 0 10 -2 10 -4z m-40 -577 c0 -5 -4 -9
-10 -9 -5 0 -10 7 -10 16 0 8 5 12 10 9 6 -3 10 -10 10 -16z m-210 -527 c0 -4
-9 -13 -20 -20 -19 -12 -20 -11 -8 8 13 20 28 27 28 12z m24 -87 c-4 -8 -8
-15 -10 -15 -2 0 -4 7 -4 15 0 8 4 15 10 15 5 0 7 -7 4 -15z m-30 -48 c-3 -9
-16 -16 -28 -16 -16 1 -17 2 -3 6 9 2 17 14 17 26 0 14 3 18 10 11 6 -6 8 -18
4 -27z m-169 -527 c-13 -25 -33 -40 -55 -40 -15 0 14 50 33 56 9 3 15 10 12
15 -3 5 1 6 9 3 14 -5 14 -9 1 -34z m-60 20 c-3 -5 -11 -10 -16 -10 -6 0 -7 5
-4 10 3 6 11 10 16 10 6 0 7 -4 4 -10z m-30 -69 c3 -5 2 -12 -3 -15 -5 -3 -9
1 -9 9 0 17 3 19 12 6z m45 -105 c-14 -14 -38 -27 -55 -31 -30 -5 -30 -5 -5 7
14 7 31 21 38 30 7 10 21 18 30 18 13 0 12 -5 -8 -24z"/>
<path d="M3682 3134 c10 -10 20 -15 24 -12 3 4 -5 12 -18 18 -22 12 -22 12 -6
-6z"/>
<path d="M3740 3091 c0 -15 24 -27 55 -29 30 -1 30 -1 -9 18 -45 23 -46 23
-46 11z"/>
<path d="M3637 3014 c6 -17 49 -45 57 -37 12 12 6 24 -11 21 -10 -2 -17 2 -16
8 1 7 -6 14 -17 17 -12 3 -17 0 -13 -9z"/>
<path d="M3688 3013 c7 -3 16 -2 19 1 4 3 -2 6 -13 5 -11 0 -14 -3 -6 -6z"/>
<path d="M3804 2969 c-4 -8 -3 -9 4 -5 7 4 12 3 12 -3 0 -5 -6 -12 -12 -15 -7
-3 -4 -5 7 -3 11 1 20 9 20 16 0 19 -21 25 -31 10z"/>
<path d="M3722 2930 c3 -21 9 -25 38 -27 l35 -1 -30 15 c-16 9 -34 21 -38 27
-4 6 -7 0 -5 -14z"/>
<path d="M3846 2795 c4 -8 8 -15 10 -15 2 0 4 7 4 15 0 8 -4 15 -10 15 -5 0
-7 -7 -4 -15z"/>
<path d="M4162 2768 c2 -6 12 -12 22 -14 14 -2 15 0 5 12 -14 17 -32 19 -27 2z"/>
<path d="M4248 2664 c13 -24 40 -49 47 -42 3 2 -9 18 -26 34 -24 22 -29 24
-21 8z"/>
<path d="M4300 2566 c0 -2 6 -16 14 -30 11 -22 15 -24 20 -11 8 23 8 23 -14
35 -11 6 -20 9 -20 6z"/>
<path d="M4035 2481 c-9 -16 27 -55 45 -49 9 3 5 13 -12 33 -18 21 -27 25 -33
16z"/>
<path d="M4180 2450 c0 -5 7 -7 15 -4 8 4 15 8 15 10 0 2 -7 4 -15 4 -8 0 -15
-4 -15 -10z"/>
<path d="M3934 2442 c-6 -4 -14 -20 -18 -36 -6 -26 -5 -28 8 -17 11 9 20 10
33 2 12 -7 13 -10 4 -11 -10 0 -11 -3 -2 -14 9 -10 8 -15 -4 -20 -8 -3 -15
-11 -14 -18 0 -10 2 -10 6 0 2 6 11 12 18 12 22 0 27 36 11 69 -18 35 -28 42
-42 33z"/>
<path d="M4407 2414 c-7 -7 27 -79 43 -89 15 -9 12 31 -3 47 -7 7 -18 21 -23
31 -6 10 -13 15 -17 11z"/>
<path d="M4280 2370 c0 -5 5 -10 10 -10 6 0 10 5 10 10 0 6 -4 10 -10 10 -5 0
-10 -4 -10 -10z"/>
<path d="M4004 2323 c13 -13 20 -15 23 -5 3 6 9 12 14 12 6 0 8 -4 4 -9 -3 -6
3 -15 14 -20 26 -14 28 -14 35 5 5 13 2 15 -14 11 -13 -3 -20 0 -20 9 0 9 -12
14 -37 14 -36 0 -37 -1 -19 -17z"/>
<path d="M4387 2326 c-3 -8 -2 -18 4 -22 16 -9 22 2 11 21 -8 15 -10 16 -15 1z"/>
<path d="M3940 2272 c0 -9 7 -26 15 -36 8 -10 12 -22 10 -27 -3 -4 -1 -10 4
-13 10 -7 26 72 17 82 -15 15 -46 11 -46 -6z"/>
<path d="M4005 2270 c-10 -16 4 -50 21 -50 8 0 14 8 14 19 0 23 -25 47 -35 31z"/>
<path d="M4365 2198 c4 -13 11 -27 16 -32 15 -17 23 3 11 29 -15 32 -36 34
-27 3z"/>
<path d="M4073 2195 c12 -8 14 -15 7 -20 -18 -11 -5 -70 25 -109 23 -30 31
-35 41 -24 10 10 11 24 3 57 -7 31 -6 47 2 58 18 21 -9 43 -57 48 -34 3 -37 2
-21 -10z"/>
<path d="M4210 2176 c0 -8 5 -18 12 -22 8 -5 9 -2 4 11 -6 16 -4 16 10 4 15
-12 17 -12 12 1 -6 20 -38 26 -38 6z"/>
<path d="M4335 2170 c3 -5 8 -10 11 -10 2 0 4 5 4 10 0 6 -5 10 -11 10 -5 0
-7 -4 -4 -10z"/>
<path d="M4260 2142 c0 -12 19 -26 26 -19 2 2 -2 10 -11 17 -9 8 -15 8 -15 2z"/>
<path d="M4305 2140 c-7 -12 2 -30 16 -30 12 0 12 27 0 35 -5 3 -12 1 -16 -5z"/>
<path d="M3740 2120 c0 -5 5 -10 11 -10 5 0 7 5 4 10 -3 6 -8 10 -11 10 -2 0
-4 -4 -4 -10z"/>
<path d="M4390 2116 c0 -8 5 -18 10 -21 6 -3 10 1 10 9 0 8 -4 18 -10 21 -5 3
-10 -1 -10 -9z"/>
<path d="M4390 2010 c0 -5 5 -10 10 -10 6 0 10 5 10 10 0 6 -4 10 -10 10 -5 0
-10 -4 -10 -10z"/>
<path d="M4226 2001 c-4 -6 -2 -11 3 -11 6 0 11 -7 11 -15 0 -8 7 -15 15 -15
8 0 15 -4 15 -9 0 -13 -53 -11 -69 3 -8 6 -17 10 -20 9 -9 -3 -20 -37 -20 -67
-1 -16 -4 -27 -7 -23 -8 8 -34 -18 -34 -34 0 -10 -3 -10 -12 -1 -10 10 -10 15
1 21 10 6 12 19 7 44 -5 24 -3 37 6 40 10 4 10 7 1 18 -18 18 -27 4 -25 -36 2
-26 -1 -35 -13 -35 -8 0 -15 -4 -15 -10 0 -5 7 -7 15 -4 19 8 19 -10 0 -26 -8
-6 -13 -22 -12 -33 2 -19 -3 -22 -28 -20 -22 2 -26 0 -15 -7 10 -6 11 -10 3
-10 -7 0 -13 -9 -13 -20 0 -25 5 -25 31 1 24 24 39 13 39 -31 0 -15 6 -32 13
-39 10 -10 7 -16 -12 -32 -13 -11 -21 -25 -17 -34 3 -8 1 -15 -5 -15 -5 0 -12
7 -15 15 -4 8 -10 15 -15 15 -5 0 -9 -7 -9 -15 0 -8 -5 -15 -11 -15 -5 0 -7 4
-4 10 3 6 -1 7 -10 4 -10 -4 -13 -13 -10 -25 4 -13 1 -19 -9 -19 -20 0 -21
-14 -2 -30 16 -12 10 -44 -6 -34 -5 3 -7 12 -5 18 3 7 -1 13 -8 13 -7 0 -10
-8 -7 -20 3 -12 -1 -23 -12 -29 -24 -13 -20 -31 5 -23 15 5 19 4 15 -4 -4 -6
-2 -11 3 -11 6 0 10 -5 9 -11 -5 -20 30 -35 51 -22 17 11 19 10 17 -10 -1 -13
-5 -27 -8 -33 -9 -14 8 -38 21 -30 6 4 20 5 30 1 27 -8 33 -66 13 -120 -19
-53 -32 -58 -32 -14 0 27 -2 30 -15 19 -9 -8 -13 -21 -9 -32 3 -10 0 -25 -6
-33 -9 -11 -9 -15 -1 -15 6 0 11 5 11 10 0 6 5 10 10 10 6 0 10 -9 10 -20 0
-11 4 -20 9 -20 4 0 8 -34 9 -76 1 -77 7 -99 21 -75 5 8 11 9 15 3 3 -5 -1
-13 -10 -16 -15 -6 -15 -8 -1 -30 15 -22 15 -24 -2 -19 -15 4 -22 -4 -31 -34
-17 -51 -21 -57 -30 -43 -6 9 -13 8 -32 -4 -14 -9 -28 -13 -31 -9 -4 3 -7 -6
-7 -20 0 -15 -1 -30 -2 -34 -2 -11 -45 -44 -55 -42 -26 5 -33 -2 -23 -20 7
-15 6 -23 -5 -35 -10 -10 -14 -27 -11 -52 5 -37 0 -47 -46 -91 -15 -14 -25
-30 -21 -36 3 -5 10 -2 16 8 8 14 11 15 18 4 6 -10 9 -8 9 10 0 19 4 22 24 17
24 -6 52 14 39 27 -3 4 1 7 10 7 9 0 17 5 17 12 0 6 6 4 13 -7 16 -21 39 -12
31 13 -5 13 -4 14 4 3 5 -7 7 -23 4 -35 -5 -20 -4 -20 14 -5 34 28 50 33 28 8
-23 -26 -22 -49 3 -49 16 0 103 87 103 102 0 5 -7 8 -15 8 -8 0 -15 4 -15 9 0
5 7 14 15 21 8 7 15 18 15 25 0 17 -37 8 -53 -14 -7 -9 -28 -29 -46 -46 -33
-30 -33 -30 9 33 30 45 45 60 51 50 7 -11 10 -10 21 1 10 11 10 14 0 18 -12 5
12 32 73 80 16 12 28 32 28 47 1 14 8 26 15 26 15 0 15 -15 0 -43 -6 -12 11 1
39 28 38 38 55 64 69 108 17 55 43 83 30 33 -5 -21 -3 -25 16 -23 28 1 38 14
38 47 0 20 -2 22 -10 10 -5 -8 -10 -10 -10 -5 0 6 9 21 20 35 l20 25 0 -25 c1
-23 2 -23 10 -5 5 11 9 37 9 58 1 20 5 37 10 37 13 0 29 48 36 108 4 34 2 52
-5 52 -6 0 -10 -6 -9 -12 5 -39 -3 -59 -27 -70 -14 -7 -32 -23 -40 -37 -15
-25 -15 -25 -9 13 4 22 13 49 21 60 8 11 14 39 13 61 0 36 -1 38 -10 16 -5
-14 -8 -30 -5 -36 2 -6 -2 -19 -10 -30 -13 -18 -14 -18 -34 0 -22 20 -24 16
-20 -36 1 -19 -5 -28 -21 -32 -19 -5 -21 -3 -15 26 3 17 10 34 16 37 5 3 5 11
1 19 -5 7 -14 10 -20 7 -13 -8 -13 0 -2 29 5 11 4 25 -1 33 -7 8 -7 12 1 12 6
0 11 10 11 22 0 21 0 21 -20 -2 -23 -26 -24 -32 -10 -46 8 -8 6 -15 -5 -24
-26 -22 -35 5 -30 90 9 141 23 189 49 173 6 -4 3 5 -7 20 -26 40 -12 121 22
125 21 3 22 7 16 40 -4 20 -11 40 -17 43 -6 4 -7 16 -3 28 4 15 2 21 -9 21 -8
0 -18 -5 -21 -10 -4 -6 -11 -8 -16 -4 -6 4 -6 11 1 19 7 9 8 15 1 19 -6 4 -8
13 -5 20 7 17 -71 102 -80 87z m31 -136 c6 -18 1 -26 -22 -29 -9 -1 -21 -9
-26 -17 -7 -11 -9 -11 -9 4 0 9 4 17 9 17 5 0 13 9 16 20 8 24 23 26 32 5z
m-147 -255 c0 -5 -2 -10 -4 -10 -3 0 -8 5 -11 10 -3 6 -1 10 4 10 6 0 11 -4
11 -10z m-60 -70 c8 -5 12 -12 9 -15 -8 -8 -39 5 -39 16 0 11 11 11 30 -1z
m36 -62 c0 -18 3 -40 8 -49 5 -11 2 -18 -9 -22 -12 -5 -14 -1 -9 18 5 21 2 25
-14 25 -26 0 -37 16 -17 24 8 3 15 12 15 21 0 8 6 15 13 15 9 0 13 -12 13 -32z
m132 -73 c1 -16 -3 -25 -13 -25 -15 0 -21 31 -8 43 12 13 19 7 21 -18z m-58
-80 c0 -8 -4 -15 -10 -15 -5 0 -10 7 -10 15 0 8 5 15 10 15 6 0 10 -7 10 -15z
m20 -135 c0 -5 -4 -10 -10 -10 -5 0 -10 5 -10 10 0 6 5 10 10 10 6 0 10 -4 10
-10z m-35 -229 c3 -5 1 -12 -5 -16 -5 -3 -10 1 -10 9 0 18 6 21 15 7z m-25
-130 c0 -11 -5 -23 -10 -26 -7 -4 -7 -13 0 -25 8 -16 6 -22 -10 -32 -11 -7
-20 -17 -20 -21 0 -5 -11 -18 -25 -29 -14 -11 -25 -26 -25 -33 0 -17 -37 -39
-44 -26 -3 5 3 20 14 33 22 29 16 42 -12 27 -23 -12 -38 -4 -38 21 0 20 33 36
50 25 16 -10 40 15 40 41 0 13 4 24 8 24 5 0 19 9 32 20 29 25 40 25 40 1z
m-190 -202 c0 -6 -4 -7 -10 -4 -5 3 -10 11 -10 16 0 6 5 7 10 4 6 -3 10 -11
10 -16z"/>
<path d="M4025 720 c-3 -5 -1 -10 4 -10 6 0 11 5 11 10 0 6 -2 10 -4 10 -3 0
-8 -4 -11 -10z"/>
<path d="M4471 1944 c0 -11 3 -14 6 -6 3 7 2 16 -1 19 -3 4 -6 -2 -5 -13z"/>
<path d="M4550 1927 c0 -6 31 -67 34 -67 1 0 0 16 -2 35 -3 21 -10 35 -18 35
-8 0 -14 -2 -14 -3z"/>
<path d="M4411 1904 c0 -11 3 -14 6 -6 3 7 2 16 -1 19 -3 4 -6 -2 -5 -13z"/>
<path d="M3953 1884 c3 -15 1 -41 -4 -58 -5 -19 -5 -34 1 -40 7 -7 10 -3 10
12 0 16 6 22 21 22 16 0 19 4 14 20 -4 13 -2 20 5 18 7 -2 15 3 17 10 3 7 -5
12 -21 12 -16 0 -26 6 -26 15 0 8 -5 15 -11 15 -7 0 -9 -11 -6 -26z"/>
<path d="M4035 1890 c-3 -5 -2 -10 4 -10 5 0 13 5 16 10 3 6 2 10 -4 10 -5 0
-13 -4 -16 -10z"/>
<path d="M3920 1874 c0 -8 5 -12 10 -9 6 4 8 11 5 16 -9 14 -15 11 -15 -7z"/>
<path d="M4391 1866 c-19 -23 -6 -134 13 -115 3 3 1 22 -4 44 -6 25 -5 44 2
52 5 7 8 17 6 24 -2 7 -8 6 -17 -5z"/>
<path d="M4541 1813 c2 -35 -1 -47 -10 -45 -10 2 -12 -8 -7 -40 13 -95 15
-188 5 -188 -6 0 -13 9 -16 20 -5 19 -6 19 -18 4 -6 -9 -10 -29 -8 -43 3 -14
6 -35 7 -46 1 -11 7 -30 12 -43 l10 -23 22 26 c12 14 22 31 23 38 0 6 4 3 9
-8 6 -16 8 -13 8 15 0 19 3 51 6 70 19 122 0 310 -32 310 -10 0 -13 -12 -11
-47z m-14 -345 c-3 -7 -5 -2 -5 12 0 14 2 19 5 13 2 -7 2 -19 0 -25z"/>
<path d="M4360 1698 c-20 -27 -20 -78 0 -78 5 0 10 -17 12 -37 4 -47 22 -50
26 -4 4 35 24 65 37 53 4 -4 2 3 -4 16 -6 12 -17 22 -22 22 -7 0 -9 12 -7 28
5 37 -14 37 -42 0z"/>
<path d="M3905 1580 c-3 -5 -1 -10 4 -10 6 0 11 5 11 10 0 6 -2 10 -4 10 -3 0
-8 -4 -11 -10z"/>
<path d="M4430 1560 c0 -5 5 -10 10 -10 6 0 10 5 10 10 0 6 -4 10 -10 10 -5 0
-10 -4 -10 -10z"/>
<path d="M3782 1518 c4 -31 26 -34 24 -3 0 14 -7 25 -14 25 -8 0 -12 -9 -10
-22z"/>
<path d="M3830 1490 c-13 -8 -12 -10 3 -10 9 0 17 5 17 10 0 12 -1 12 -20 0z"/>
<path d="M3765 1480 c3 -5 10 -10 16 -10 5 0 9 5 9 10 0 6 -7 10 -16 10 -8 0
-12 -4 -9 -10z"/>
<path d="M3877 1458 c-9 -16 -14 -34 -11 -40 4 -6 13 7 20 28 16 48 14 52 -9
12z"/>
<path d="M3822 1451 c-11 -7 -10 -9 2 -14 12 -5 15 -14 10 -33 -5 -20 -3 -25
7 -22 16 5 17 22 3 55 -6 15 -13 20 -22 14z"/>
<path d="M4400 1434 c0 -8 5 -12 10 -9 6 4 8 11 5 16 -9 14 -15 11 -15 -7z"/>
<path d="M3980 1375 c-12 -32 -6 -59 13 -53 16 6 22 57 8 71 -7 7 -14 2 -21
-18z"/>
<path d="M4542 1360 c0 -14 2 -19 5 -12 2 6 2 18 0 25 -3 6 -5 1 -5 -13z"/>
<path d="M3885 1340 c3 -5 2 -10 -3 -10 -6 0 -13 -7 -16 -16 -5 -13 -1 -15 21
-9 35 8 35 9 27 29 -3 9 -13 16 -21 16 -8 0 -11 -4 -8 -10z"/>
<path d="M3790 1304 c0 -8 5 -12 10 -9 6 3 10 10 10 16 0 5 -4 9 -10 9 -5 0
-10 -7 -10 -16z"/>
<path d="M3844 1285 c3 -8 0 -14 -7 -12 -7 1 -13 -11 -15 -26 -3 -22 -7 -27
-22 -22 -28 9 -47 -18 -64 -92 -15 -66 -15 -68 5 -85 25 -21 49 -23 50 -5 0 6
3 32 5 57 l5 45 -23 -23 c-30 -27 -42 -29 -26 -2 7 11 26 24 43 30 29 11 29
12 11 26 -19 13 -19 14 6 14 14 0 28 -7 32 -15 3 -8 13 -15 22 -15 13 0 12 5
-6 35 -20 33 -20 35 -3 35 15 0 16 2 3 10 -8 5 -10 10 -4 10 18 0 24 38 7 44
-22 9 -26 7 -19 -9z m-83 -218 c-13 -13 -26 -3 -16 12 3 6 11 8 17 5 6 -4 6
-10 -1 -17z"/>
<path d="M3990 1218 c0 -9 5 -20 11 -23 17 -11 18 -2 3 19 -12 17 -14 17 -14
4z"/>
<path d="M3907 1163 c-4 -3 -7 -13 -7 -21 0 -12 3 -12 15 -2 8 7 15 16 15 21
0 11 -14 12 -23 2z"/>
<path d="M3840 1090 c-14 -3 -20 -9 -14 -12 11 -8 40 -5 49 4 11 10 -9 15 -35
8z"/>
<path d="M3968 1083 c7 -3 16 -2 19 1 4 3 -2 6 -13 5 -11 0 -14 -3 -6 -6z"/>
<path d="M3984 1039 c-12 -14 -26 -18 -43 -14 -14 3 -33 1 -41 -4 -22 -15 -5
-24 19 -11 18 9 21 8 21 -10 0 -23 15 -27 24 -5 3 8 16 15 29 15 15 0 23 6 24
20 2 28 -12 33 -33 9z"/>
<path d="M4050 1009 c0 -5 5 -7 10 -4 6 3 10 8 10 11 0 2 -4 4 -10 4 -5 0 -10
-5 -10 -11z"/>
<path d="M4000 980 c0 -13 5 -18 15 -14 8 4 15 10 15 14 0 4 -7 10 -15 14 -10
4 -15 -1 -15 -14z"/>
<path d="M3816 955 c-3 -8 -14 -15 -25 -15 -30 0 -34 -17 -6 -23 14 -2 24 -2
21 0 -7 7 18 32 27 26 4 -2 7 0 7 6 0 17 -18 22 -24 6z"/>
<path d="M4066 941 c-4 -7 -5 -15 -2 -18 9 -9 19 4 14 18 -4 11 -6 11 -12 0z"/>
<path d="M3728 879 c-37 -37 -36 -59 2 -59 17 0 30 3 31 8 8 77 2 87 -33 51z"/>
<path d="M3916 897 c-24 -86 -25 -88 -10 -94 20 -8 24 -1 30 43 5 40 14 59 14
30 0 -9 5 -14 10 -11 16 10 11 21 -15 33 -20 9 -26 9 -29 -1z"/>
<path d="M3810 855 c7 -8 16 -12 21 -9 13 8 1 24 -18 24 -13 0 -13 -3 -3 -15z"/>
<path d="M4287 819 c7 -7 15 -10 18 -7 3 3 -2 9 -12 12 -14 6 -15 5 -6 -5z"/>
<path d="M3772 808 c-7 -7 -12 -15 -12 -19 0 -11 33 -4 37 8 6 17 -12 24 -25
11z"/>
<path d="M4260 795 c-7 -9 -11 -18 -8 -20 3 -3 11 1 18 10 7 9 11 18 8 20 -3
3 -11 -1 -18 -10z"/>
<path d="M4145 659 c-11 -17 1 -21 15 -4 8 9 8 15 2 15 -6 0 -14 -5 -17 -11z"/>
<path d="M3545 630 c3 -5 8 -10 11 -10 2 0 4 5 4 10 0 6 -5 10 -11 10 -5 0 -7
-4 -4 -10z"/>
<path d="M3718 603 c-10 -3 -18 -12 -18 -22 0 -9 -5 -22 -12 -29 -9 -9 -9 -12
0 -12 7 0 17 11 22 25 5 14 14 25 19 25 6 0 8 -6 5 -13 -3 -8 3 -13 15 -13 15
0 17 4 10 18 -12 21 -20 25 -41 21z"/>
<path d="M3945 560 c-3 -5 -1 -10 4 -10 6 0 11 5 11 10 0 6 -2 10 -4 10 -3 0
-8 -4 -11 -10z"/>
<path d="M3910 515 c0 -16 16 -20 24 -6 3 5 -1 11 -9 15 -9 3 -15 0 -15 -9z"/>
<path d="M3681 468 c-16 -25 -22 -68 -10 -68 5 0 9 13 9 28 0 15 5 33 12 40 6
6 10 14 7 16 -3 3 -11 -4 -18 -16z"/>
<path d="M3830 470 c0 -5 5 -10 10 -10 6 0 10 5 10 10 0 6 -4 10 -10 10 -5 0
-10 -4 -10 -10z"/>
<path d="M3905 470 c-3 -5 -2 -10 4 -10 5 0 13 5 16 10 3 6 2 10 -4 10 -5 0
-13 -4 -16 -10z"/>
<path d="M3938 453 c-15 -4 -31 -32 -33 -56 0 -5 -11 -15 -25 -22 -14 -8 -21
-14 -16 -15 15 0 98 51 92 57 -3 3 -12 0 -21 -7 -28 -23 -28 -2 0 24 16 15 26
25 24 25 -2 -1 -12 -3 -21 -6z"/>
<path d="M3855 427 c-13 -10 -15 -16 -6 -21 12 -8 41 10 41 25 0 13 -13 11
-35 -4z"/>
<path d="M3840 345 c0 -8 4 -15 10 -15 5 0 7 7 4 15 -4 8 -8 15 -10 15 -2 0
-4 -7 -4 -15z"/>
<path d="M3694 281 c-41 -25 -54 -45 -17 -26 15 8 36 16 46 19 9 3 17 10 17
16 0 15 -11 12 -46 -9z"/>
<path d="M3605 229 c-4 -5 -18 -15 -32 -20 -33 -12 -24 -22 11 -13 26 6 57 44
37 44 -5 0 -13 -5 -16 -11z"/>
</g>
</svg>
