<?xml version="1.0" standalone="no"?>
<!DOCTYPE svg PUBLIC "-//W3C//DTD SVG 20010904//EN"
 "http://www.w3.org/TR/2001/REC-SVG-20010904/DTD/svg10.dtd">
<svg version="1.0" xmlns="http://www.w3.org/2000/svg"
 width="500.000000pt" height="500.000000pt" viewBox="0 0 500.000000 500.000000"
 preserveAspectRatio="xMidYMid meet">

<g transform="translate(0.000000,500.000000) scale(0.100000,-0.100000)"
fill="#000000" stroke="none">
<path d="M2275 4131 c-277 -33 -576 -150 -786 -308 -169 -127 -374 -363 -474
-547 -118 -217 -197 -504 -194 -701 2 -65 2 -62 10 35 18 224 80 441 174 611
25 45 45 83 45 84 0 19 125 198 167 237 15 15 44 47 63 71 19 23 49 54 65 67
19 16 12 5 -18 -29 -47 -53 -57 -82 -15 -45 12 10 18 13 14 7 -4 -7 -3 -13 2
-13 6 0 15 14 21 30 5 17 15 30 22 30 6 0 9 -7 5 -15 -3 -8 -1 -15 4 -15 6 0
9 -3 7 -7 -1 -5 3 -8 8 -8 6 0 9 11 7 25 -2 18 7 35 28 55 29 28 43 74 18 59
-7 -4 -5 2 5 13 45 51 266 182 368 219 36 12 40 12 29 0 -6 -8 -23 -16 -37
-18 -15 -2 -29 -9 -31 -17 -3 -8 0 -11 7 -7 7 5 9 1 5 -8 -3 -9 -17 -16 -31
-16 -13 0 -22 -4 -18 -9 3 -5 -2 -17 -11 -25 -15 -15 -13 -16 23 -13 23 2 37
8 35 15 -1 7 7 12 19 12 12 0 34 11 51 25 16 14 41 25 54 25 14 0 37 6 52 14
37 18 99 29 106 17 3 -5 -10 -21 -30 -36 -32 -24 -38 -26 -65 -15 -26 11 -31
10 -43 -6 -20 -27 -10 -40 40 -54 34 -10 48 -10 57 -1 6 6 18 11 27 11 13 -1
13 -2 -2 -10 -14 -9 -13 -13 10 -40 25 -29 28 -29 41 -13 10 14 15 15 18 5 3
-7 16 -17 30 -23 13 -5 22 -13 18 -19 -6 -10 -36 -2 -46 13 -4 5 -12 -4 -19
-20 -8 -16 -26 -35 -42 -42 -25 -11 -35 -11 -68 4 -40 18 -63 14 -54 -9 3 -7
-2 -16 -10 -19 -12 -5 -16 1 -16 23 0 19 -5 30 -14 30 -8 0 -17 7 -20 15 -8
21 -36 15 -62 -12 -12 -12 -24 -19 -28 -16 -3 3 -11 -6 -17 -21 -7 -14 -16
-26 -21 -26 -4 0 -8 -5 -8 -11 0 -6 8 -8 20 -4 13 4 23 0 32 -14 7 -12 19 -21
27 -21 24 0 -1 -18 -29 -22 -25 -3 -27 2 -14 37 7 20 7 20 -14 1 -12 -10 -19
-23 -16 -28 4 -6 -2 -7 -16 -3 -20 7 -22 5 -15 -25 7 -32 6 -33 -21 -27 -27 6
-27 6 -6 -5 17 -9 28 -8 48 3 24 12 28 12 47 -11 12 -15 18 -18 14 -8 -4 12
-2 15 8 12 8 -3 17 -14 20 -25 4 -10 10 -19 15 -19 10 0 25 40 22 58 -2 6 2
20 8 30 10 15 11 14 6 -7 -3 -14 1 -30 10 -38 13 -13 18 -13 39 1 23 15 25 15
26 -1 1 -10 1 -21 0 -25 0 -4 9 -7 22 -5 14 1 22 -3 22 -13 0 -9 -7 -14 -17
-12 -13 2 -17 -3 -15 -19 3 -28 -19 -36 -28 -10 -3 12 -13 21 -22 21 -8 0 -13
-6 -10 -12 2 -7 10 -12 16 -10 6 1 11 -2 11 -8 0 -5 -4 -10 -10 -10 -5 0 -10
-5 -10 -11 0 -5 5 -7 12 -3 6 4 8 3 5 -3 -4 -6 -16 -13 -27 -16 -16 -4 -18 -2
-11 12 6 11 6 23 -1 32 -8 12 -9 11 -5 -2 3 -9 0 -22 -6 -28 -9 -10 -5 -18 17
-37 20 -18 32 -22 39 -15 6 6 20 11 32 11 17 0 18 -2 5 -11 -12 -8 -12 -10 5
-8 11 1 28 -1 38 -6 32 -14 31 4 -2 22 -29 17 -37 41 -12 35 9 -2 9 3 1 17
-13 26 -13 27 9 27 16 0 19 -5 14 -26 -5 -27 4 -34 107 -80 14 -6 17 -8 6 -5
-27 8 -98 -26 -91 -43 3 -8 0 -22 -7 -30 -11 -13 -11 -14 0 -8 7 4 19 3 27 -4
9 -7 15 -8 20 0 3 5 1 10 -4 10 -7 0 -7 7 1 20 7 11 19 20 27 20 11 0 10 -4
-4 -13 -13 -10 -15 -16 -6 -21 6 -4 9 -12 6 -17 -4 -5 1 -9 9 -9 8 0 18 -5 22
-11 5 -8 -2 -10 -22 -7 -28 6 -29 6 -7 -9 36 -24 67 -53 57 -53 -6 0 -15 5
-22 12 -9 9 -15 9 -24 0 -7 -7 -27 -12 -45 -12 -30 0 -37 -7 -30 -27 1 -5 5
-7 10 -6 4 2 7 -4 7 -13 0 -23 -33 -13 -45 14 -5 12 -15 22 -22 22 -7 0 -13 7
-13 15 0 8 -5 15 -11 15 -6 0 -9 -7 -5 -15 3 -8 3 -15 0 -15 -2 0 -9 11 -14
25 -6 15 -17 25 -29 25 -11 0 -22 9 -26 19 -11 34 -36 34 -72 -1 -32 -31 -35
-32 -74 -21 -33 9 -42 8 -46 -4 -3 -8 -12 -12 -20 -9 -8 4 -11 1 -8 -5 4 -6
13 -8 21 -5 14 5 19 -10 16 -48 -2 -13 2 -16 14 -12 15 6 15 4 3 -10 -8 -10
-15 -12 -17 -5 -4 13 -32 15 -32 3 0 -4 5 -13 12 -20 9 -9 9 -12 -3 -12 -8 0
-25 -9 -37 -20 -12 -11 -30 -20 -42 -20 -24 0 -27 -30 -2 -31 9 0 28 -3 42 -6
14 -2 48 -4 76 -4 44 1 54 -2 68 -24 9 -14 23 -25 31 -25 8 0 20 -9 27 -20 7
-11 20 -20 28 -20 17 0 40 -19 40 -32 0 -4 -7 -5 -16 -1 -14 5 -14 3 -3 -16
15 -22 29 -28 29 -10 0 5 4 7 10 4 6 -4 7 6 3 27 -7 40 -5 38 -33 43 -31 6
-36 13 -16 21 9 3 23 1 31 -6 12 -10 15 -9 15 6 0 16 3 15 24 -5 21 -20 25
-21 39 -7 12 12 22 14 40 7 14 -6 28 -7 32 -3 3 3 9 1 14 -6 5 -8 16 -9 40 -2
19 5 31 7 28 3 -10 -9 39 -43 62 -43 12 0 21 -4 21 -9 0 -21 46 -16 72 8 23
20 25 26 13 35 -8 6 -16 22 -17 36 -2 14 -7 30 -11 37 -12 19 5 22 56 11 49
-10 136 -64 172 -105 11 -13 26 -23 33 -23 18 0 3 -26 -23 -40 -18 -10 -22
-17 -15 -25 8 -9 6 -14 -5 -19 -10 -4 -15 1 -15 15 0 13 -4 18 -12 13 -7 -4
-27 -7 -45 -6 -35 3 -40 -4 -20 -29 13 -17 48 -21 58 -7 4 6 9 -1 13 -15 9
-38 36 -41 91 -11 39 22 44 29 31 36 -9 5 -14 13 -11 19 10 15 24 10 35 -12 9
-16 8 -24 -4 -38 -23 -26 -20 -38 13 -44 17 -4 34 -14 40 -25 8 -16 6 -17 -25
-14 -22 3 -34 0 -34 -8 0 -7 -8 -10 -20 -7 -22 6 -29 -18 -7 -26 6 -3 -3 -3
-22 0 -24 4 -32 3 -27 -5 4 -7 24 -12 44 -12 48 0 63 -10 55 -38 -4 -15 -16
-25 -35 -29 -15 -3 -31 -10 -34 -14 -10 -17 -34 -9 -34 12 0 18 -2 19 -15 9
-8 -7 -15 -9 -15 -4 0 4 -10 -2 -22 -13 -15 -13 -32 -19 -51 -16 -18 2 -29 -1
-33 -12 -4 -9 -16 -20 -27 -26 -16 -9 -19 -9 -14 4 6 15 -8 17 -30 4 -22 -14
-24 13 -3 43 12 17 16 30 10 30 -7 0 -14 -9 -17 -20 -6 -24 -19 -26 -27 -5 -3
8 -1 15 4 15 5 0 7 6 4 13 -4 10 3 12 28 9 28 -4 31 -3 21 10 -7 8 -11 17 -8
20 3 3 -1 11 -10 18 -8 7 -15 19 -15 26 0 8 -4 14 -10 14 -5 0 -10 6 -10 13 0
15 -54 49 -64 40 -3 -3 -1 -12 6 -20 9 -11 6 -12 -17 -3 -25 10 -27 9 -15 -5
19 -22 -4 -36 -47 -29 -21 3 -41 -1 -58 -12 -28 -18 -33 -11 -9 14 15 15 13
17 -37 29 -70 16 -79 16 -79 -1 0 -8 -6 -16 -12 -18 -10 -4 -10 -10 -1 -31 7
-15 9 -27 4 -27 -5 0 -14 12 -19 28 l-10 27 -3 -30 c-3 -46 -4 -49 -16 -70
-15 -26 -35 -8 -35 29 0 23 -3 25 -16 14 -10 -8 -13 -8 -9 -2 10 18 -33 40
-83 43 l-45 3 22 -24 c34 -37 64 -114 67 -173 1 -30 5 -57 9 -61 4 -4 7 -2 7
4 0 7 7 12 15 12 8 0 15 4 15 10 0 5 -8 7 -17 4 -15 -5 -16 -4 -3 5 8 6 21 11
28 11 21 0 59 -34 54 -48 -2 -6 1 -12 7 -12 6 0 11 6 11 13 1 7 6 5 14 -5 15
-20 31 -25 20 -6 -4 7 -3 8 5 4 6 -4 9 -16 6 -26 -4 -12 2 -27 13 -38 18 -18
18 -21 5 -35 -19 -19 -8 -40 17 -32 26 8 35 -13 16 -34 -16 -17 -15 -18 9 -18
16 0 25 5 25 16 1 13 3 12 12 -4 15 -27 28 -34 46 -27 10 3 13 1 8 -6 -4 -7
-2 -12 4 -12 6 0 9 -4 6 -9 -4 -5 7 -22 22 -38 22 -21 38 -28 70 -28 22 -1 39
2 36 6 -2 4 5 9 16 12 11 3 23 1 26 -4 3 -5 10 -7 15 -4 5 4 9 2 9 -3 0 -5 11
-7 25 -4 16 3 24 10 23 21 -2 9 3 15 10 13 6 -1 12 2 12 8 0 13 47 13 55 0 3
-5 1 -10 -5 -10 -6 0 -20 -9 -32 -20 -11 -10 -34 -22 -49 -25 -16 -4 -29 -11
-29 -15 0 -5 8 -6 18 -3 15 6 15 4 4 -9 -11 -14 -10 -18 7 -27 25 -14 34 -14
26 -1 -3 6 -3 20 0 31 6 18 12 20 50 15 26 -4 46 -3 50 4 3 5 12 10 18 10 9 0
8 -3 -1 -8 -7 -5 -10 -16 -6 -26 6 -15 7 -15 20 1 7 10 14 13 14 7 0 -6 -10
-19 -22 -30 -12 -10 -18 -13 -14 -6 4 6 2 12 -3 12 -6 0 -11 -11 -11 -25 0
-17 -4 -23 -15 -19 -13 5 -45 -16 -45 -30 0 -10 40 -7 61 4 22 12 23 10 7 -24
-13 -30 -72 -68 -92 -60 -8 3 -17 1 -21 -5 -3 -6 -17 -11 -31 -11 -14 0 -35
-5 -47 -12 -12 -6 -35 -13 -52 -14 -16 -2 -49 -11 -73 -20 -23 -9 -49 -13 -57
-10 -19 7 -19 36 -1 36 8 0 18 5 22 12 5 8 1 9 -12 5 -14 -5 -12 -2 6 13 14
11 31 20 38 20 7 0 10 5 7 10 -9 14 -47 12 -70 -4 -11 -7 -35 -17 -52 -21 -18
-3 -33 -11 -33 -16 0 -6 -5 -7 -11 -4 -6 4 -8 9 -5 13 3 3 -6 11 -21 19 -27
14 -63 9 -63 -9 0 -5 -6 -8 -12 -5 -7 2 -34 -7 -60 -20 -26 -14 -54 -26 -63
-27 -9 -1 -21 -9 -25 -17 -8 -11 -12 -11 -23 5 -14 19 -15 19 -22 -3 -9 -31 7
-46 34 -32 19 11 21 9 21 -18 0 -16 6 -31 14 -34 9 -4 12 -14 9 -26 -7 -26 7
-27 37 -1 25 22 35 26 25 10 -3 -5 -1 -10 5 -10 7 0 10 -7 6 -15 -4 -11 1 -15
17 -15 21 -1 22 -1 3 -15 -20 -15 -31 -45 -17 -45 4 0 12 5 18 11 15 15 35 2
31 -19 -1 -10 1 -23 6 -31 6 -10 5 -12 -3 -7 -8 5 -14 0 -18 -13 -5 -22 -23
-29 -23 -10 0 5 -5 7 -11 4 -7 -5 -5 -14 5 -29 13 -21 13 -25 -6 -44 -18 -17
-19 -24 -9 -36 14 -16 31 -13 31 5 0 6 -5 7 -10 4 -19 -12 -10 8 15 31 14 13
32 21 40 18 23 -9 18 -24 -6 -21 -12 1 -24 -4 -26 -10 -3 -7 3 -13 11 -13 9 0
22 -11 28 -25 12 -28 28 -33 28 -10 0 19 29 19 50 0 24 -22 68 -10 114 31 43
39 44 39 80 20 30 -15 24 -24 -31 -45 -17 -7 -34 -19 -37 -27 -3 -8 -19 -14
-36 -14 -16 0 -30 -5 -30 -11 0 -10 -114 -4 -133 8 -5 3 -4 -4 2 -16 10 -17 9
-20 -5 -14 -12 4 -15 2 -12 -8 3 -9 17 -13 37 -12 24 1 41 -7 63 -29 16 -16
31 -36 32 -44 1 -9 8 -19 15 -23 10 -6 9 -10 -3 -14 -23 -9 -20 -27 4 -27 11
0 19 -6 18 -12 -2 -7 8 -14 22 -15 22 -2 23 -2 5 6 -18 8 -19 9 -2 16 17 7 47
-9 47 -25 0 -5 -14 -23 -32 -40 -23 -23 -28 -34 -19 -40 10 -6 10 -9 1 -12 -6
-2 -13 -16 -13 -31 -2 -31 -20 -41 -47 -27 -28 15 -49 12 -27 -4 24 -19 21
-23 -13 -18 -16 2 -30 8 -30 13 0 5 -4 9 -10 9 -5 0 -10 -7 -10 -15 0 -27 -54
-18 -85 15 -22 23 -32 27 -46 20 -24 -13 -29 -13 -29 5 0 19 -19 20 -26 1 -7
-19 -31 -10 -39 14 -3 10 -15 20 -26 23 l-21 6 21 -23 c26 -27 26 -33 4 -39
-15 -3 -13 -6 8 -16 15 -7 32 -24 37 -36 10 -22 9 -23 -18 -15 -16 4 -37 13
-47 20 -16 10 -16 10 5 5 13 -4 22 -2 22 4 0 6 -6 11 -13 11 -20 0 -78 30
-103 52 -12 11 -36 21 -55 23 -31 4 -52 21 -43 36 2 4 -7 14 -21 23 -21 14
-25 14 -32 1 -8 -13 -14 -11 -43 11 -19 14 -34 30 -32 35 1 6 -2 8 -7 5 -12
-8 -41 33 -41 57 0 10 -8 31 -18 45 -31 45 -32 50 -16 56 8 3 12 2 9 -4 -4 -6
6 -10 22 -10 42 0 76 -26 63 -50 -5 -10 -7 -26 -3 -36 5 -13 3 -16 -10 -11 -9
3 -19 1 -23 -5 -5 -7 2 -9 20 -6 14 3 26 2 26 -1 0 -10 56 -41 92 -52 32 -9
59 -2 39 10 -6 4 -11 21 -13 39 -1 18 -6 32 -11 32 -4 0 -6 4 -3 9 7 11 -16
71 -27 71 -5 0 -17 10 -28 22 -29 36 -23 0 7 -39 14 -19 24 -37 21 -40 -8 -7
-47 7 -47 17 0 5 7 7 15 4 8 -4 15 -3 15 0 0 7 -51 30 -62 28 -5 -1 -8 5 -8
13 0 8 -7 15 -15 15 -8 0 -15 4 -15 10 0 5 6 7 13 4 8 -3 19 2 26 10 10 11 8
17 -11 30 -23 16 -23 16 -31 -24 -7 -36 -27 -57 -27 -29 0 16 -31 38 -53 39
-12 0 -16 -4 -11 -12 5 -8 1 -8 -10 1 -16 13 -17 12 -10 -15 4 -16 18 -46 31
-67 13 -20 20 -37 17 -37 -4 0 -1 -8 6 -17 7 -10 -23 18 -65 62 -82 86 -195
231 -237 305 -13 25 -35 63 -47 84 -13 22 -45 94 -72 160 -52 130 -66 144 -23
24 51 -142 147 -317 241 -440 68 -89 231 -247 319 -310 114 -81 196 -129 212
-123 7 2 10 1 7 -5 -16 -26 325 -151 495 -181 210 -37 513 -27 685 22 637 183
1088 651 1227 1274 26 117 35 386 18 522 -45 365 -189 679 -426 932 -253 269
-575 447 -914 505 -109 19 -402 29 -505 17z m-285 -125 c0 -3 -4 -8 -10 -11
-5 -3 -10 -1 -10 4 0 6 5 11 10 11 6 0 10 -2 10 -4z m-33 -12 c-3 -3 -12 -4
-19 -1 -8 3 -5 6 6 6 11 1 17 -2 13 -5z m271 -43 c8 -5 0 -8 -22 -9 -19 -1
-38 3 -41 8 -7 12 45 13 63 1z m-238 -41 c0 -11 35 -8 46 3 11 11 26 8 19 -3
-3 -5 0 -11 7 -12 7 0 -7 -4 -32 -7 -41 -6 -59 1 -60 22 0 4 5 7 10 7 6 0 10
-4 10 -10z m303 -26 c-2 -7 -13 -16 -24 -19 -10 -4 -19 -10 -19 -14 0 -4 -11
-13 -25 -19 -21 -10 -26 -9 -35 8 -7 13 -7 26 0 42 10 20 17 23 60 20 36 -3
47 -7 43 -18z m37 -64 c0 -5 -2 -10 -4 -10 -3 0 -8 5 -11 10 -3 6 -1 10 4 10
6 0 11 -4 11 -10z m-2 -25 c17 -13 26 -13 43 -5 19 11 20 10 14 -12 -4 -12 -4
-20 0 -15 5 4 17 0 27 -10 10 -9 21 -13 25 -10 3 4 12 2 20 -5 11 -9 8 -15
-18 -30 -23 -14 -29 -22 -20 -28 9 -5 4 -10 -15 -14 -30 -8 -66 15 -45 28 6 4
11 2 11 -3 0 -16 27 -13 33 4 6 15 -8 28 -33 30 -8 1 -30 5 -47 9 -33 8 -47
-6 -18 -18 13 -4 13 -9 3 -25 -7 -11 -16 -17 -21 -14 -5 3 -7 0 -5 -8 3 -8 12
-14 21 -14 8 0 19 -4 23 -8 4 -4 -4 -7 -19 -7 -14 0 -32 6 -39 13 -7 7 -21 16
-30 20 -24 9 -12 36 18 43 13 3 24 10 24 16 0 5 -4 7 -9 3 -6 -3 -15 4 -21 15
-6 11 -7 20 -3 19 18 -4 41 14 36 27 -7 19 17 18 45 -1z m-118 1 c0 -3 -4 -8
-10 -11 -5 -3 -10 -1 -10 4 0 6 5 11 10 11 6 0 10 -2 10 -4z m6 -58 c4 -5 -4
-8 -17 -6 -12 1 -24 8 -26 15 -5 14 34 6 43 -9z m-32 -53 c-4 -8 -10 -12 -15
-9 -14 8 -10 24 6 24 9 0 12 -6 9 -15z m-202 -7 c-17 -17 -15 -28 4 -28 8 0
13 -4 10 -9 -3 -5 1 -11 8 -14 9 -4 17 1 19 11 3 9 5 4 6 -13 0 -16 -3 -35 -7
-42 -10 -16 -52 -12 -52 4 0 7 -9 13 -20 13 -11 0 -20 -4 -20 -10 0 -5 -5 -10
-10 -10 -7 0 -7 7 1 21 9 18 8 24 -5 31 -15 8 -15 10 0 26 9 9 26 18 37 19 12
2 23 6 26 8 2 3 7 5 10 5 3 0 0 -5 -7 -12z m512 -17 c7 -11 -49 -25 -63 -17
-5 4 -11 1 -13 -6 -3 -9 -6 -9 -12 0 -4 7 5 15 26 21 44 12 56 13 62 2z m-99
-31 c3 -6 -1 -7 -9 -4 -18 7 -21 14 -7 14 6 0 13 -4 16 -10z m87 -36 c-9 -13
-24 -24 -33 -24 -9 0 -31 -3 -49 -7 -24 -4 -31 -3 -26 5 4 7 16 12 27 12 11 0
17 5 14 10 -3 6 1 10 10 10 9 0 13 -4 10 -10 -3 -5 -2 -10 3 -10 5 0 14 11 20
25 7 16 17 23 26 19 14 -5 13 -9 -2 -30z m-438 -50 c3 -8 2 -12 -4 -9 -6 3
-10 10 -10 16 0 14 7 11 14 -7z m354 -59 c2 -1 -8 -5 -21 -7 -13 -3 -32 1 -42
8 -15 11 -12 12 21 7 22 -3 40 -7 42 -8z m27 -5 c3 -5 1 -10 -4 -10 -6 0 -11
5 -11 10 0 6 2 10 4 10 3 0 8 -4 11 -10z m-445 -30 c-6 -11 -15 -18 -21 -14
-6 4 -6 11 2 20 17 21 31 17 19 -6z m551 -4 c5 3 21 -1 34 -10 13 -9 35 -18
47 -19 13 -2 24 -11 26 -19 4 -19 -48 -13 -103 13 -34 16 -46 17 -78 7 -29 -9
-40 -9 -50 1 -9 10 -8 11 8 5 16 -6 18 -5 8 7 -7 7 -13 16 -13 20 0 14 45 15
78 1 18 -7 37 -10 43 -6z m-301 -76 c0 -5 -4 -10 -10 -10 -5 0 -10 5 -10 10 0
6 5 10 10 10 6 0 10 -4 10 -10z m-6 -46 c46 -8 57 -24 14 -19 -48 5 -78 16
-78 27 0 6 6 8 14 5 8 -3 31 -9 50 -13z m235 -20 c13 -12 -8 -10 -29 2 l-25
15 25 -7 c14 -3 27 -8 29 -10z m-263 -71 c-7 -7 -26 7 -26 19 0 6 6 6 15 -2 9
-7 13 -15 11 -17z m166 -7 c4 -6 3 -13 -3 -15 -6 -2 -3 -11 7 -22 9 -10 12
-19 6 -19 -6 0 -18 10 -27 23 -8 12 -20 23 -25 23 -6 1 -18 2 -27 4 -12 1 -13
3 -5 7 6 2 9 9 6 15 -4 7 5 8 27 3 19 -4 37 -13 41 -19z m-472 5 c0 -5 -6 -14
-14 -20 -12 -10 -13 -8 -9 8 5 21 23 30 23 12z m42 -58 c-29 -23 -45 -16 -25
10 13 18 20 21 30 13 9 -9 8 -14 -5 -23z m730 -17 c19 -1 28 -7 31 -23 4 -21
3 -21 -23 -8 -15 8 -30 11 -33 8 -8 -7 -37 16 -37 29 0 6 7 7 18 2 9 -4 29 -8
44 -8z m-872 -6 c0 -5 -5 -10 -11 -10 -5 0 -7 5 -4 10 3 6 8 10 11 10 2 0 4
-4 4 -10z m475 -22 c6 -4 2 -8 -7 -8 -10 0 -18 7 -18 17 0 9 3 12 8 7 4 -5 12
-12 17 -16z m-330 -8 c3 -5 1 -10 -4 -10 -6 0 -11 5 -11 10 0 6 2 10 4 10 3 0
8 -4 11 -10z m219 -16 c3 -8 2 -12 -4 -9 -6 3 -10 10 -10 16 0 14 7 11 14 -7z
m-94 -4 c0 -5 -5 -10 -11 -10 -5 0 -7 5 -4 10 3 6 8 10 11 10 2 0 4 -4 4 -10z
m180 0 c13 -8 13 -10 -2 -10 -9 0 -20 5 -23 10 -8 13 5 13 25 0z m-40 -25 c11
-13 10 -14 -4 -9 -9 3 -16 10 -16 15 0 13 6 11 20 -6z m270 5 c0 -5 -2 -10 -4
-10 -3 0 -8 5 -11 10 -3 6 -1 10 4 10 6 0 11 -4 11 -10z m-510 -11 c0 -5 -12
-9 -27 -9 -20 0 -24 -3 -14 -9 10 -6 10 -10 1 -16 -16 -10 -23 0 -16 23 7 19
56 29 56 11z m50 -9 c0 -5 -5 -10 -11 -10 -5 0 -7 5 -4 10 3 6 8 10 11 10 2 0
4 -4 4 -10z m650 -11 c0 -5 -7 -9 -15 -9 -9 0 -12 6 -9 15 6 15 24 11 24 -6z
m-920 2 c0 -17 -18 -21 -24 -6 -3 9 0 15 9 15 8 0 15 -4 15 -9z m145 -1 c3 -5
4 -10 1 -10 -2 0 -12 -3 -20 -6 -12 -5 -15 -2 -10 10 7 18 20 21 29 6z m386
-17 c13 -17 13 -17 -6 -3 -11 8 -22 16 -24 17 -2 2 0 3 6 3 6 0 17 -8 24 -17z
m-293 -13 c-7 -11 -16 -20 -19 -20 -4 0 -5 9 -2 20 3 11 12 20 19 20 12 0 12
-4 2 -20z m332 -44 c0 -3 -4 -8 -10 -11 -5 -3 -10 -1 -10 4 0 6 5 11 10 11 6
0 10 -2 10 -4z m-61 -32 c2 -2 -5 -4 -16 -4 -12 0 -23 7 -27 15 -5 13 -2 14
17 4 12 -6 24 -13 26 -15z m531 -84 c0 -5 6 -10 13 -10 7 0 18 -9 25 -20 11
-17 9 -20 -16 -26 -15 -3 -36 -8 -47 -11 -17 -5 -18 -4 -7 10 7 8 12 19 11 23
-4 22 2 44 11 44 6 0 10 -4 10 -10z m-105 -30 c3 -5 1 -10 -4 -10 -6 0 -11 5
-11 10 0 6 2 10 4 10 3 0 8 -4 11 -10z m-15 -60 c0 -5 -2 -10 -4 -10 -3 0 -8
5 -11 10 -3 6 -1 10 4 10 6 0 11 -4 11 -10z m-617 -104 c3 -8 3 -17 0 -20 -9
-9 -34 15 -27 25 8 13 21 11 27 -5z m679 -32 c39 -18 65 -63 45 -76 -16 -10
-25 -10 -31 1 -4 5 -22 5 -43 0 -83 -19 -101 -2 -27 26 42 16 44 18 30 34 -30
33 -21 38 26 15z m-716 -51 c-13 -13 -28 15 -20 38 l7 24 10 -28 c5 -16 6 -31
3 -34z m87 27 c-3 -12 1 -22 11 -26 20 -8 21 -21 2 -21 -16 0 -30 42 -21 57
10 16 13 11 8 -10z m-43 -47 c0 -8 -4 -11 -10 -8 -5 3 -10 0 -10 -7 0 -8 -5
-6 -11 5 -5 9 -7 21 -4 27 8 13 35 1 35 -17z m247 8 c10 -16 9 -20 -8 -24 -22
-6 -32 5 -23 27 8 21 17 20 31 -3z m-187 -31 c0 -5 -5 -10 -11 -10 -5 0 -7 5
-4 10 3 6 8 10 11 10 2 0 4 -4 4 -10z m585 0 c-3 -5 -10 -10 -16 -10 -5 0 -9
5 -9 10 0 6 7 10 16 10 8 0 12 -4 9 -10z m-797 -25 c-6 -14 -13 -23 -15 -21
-5 5 15 46 22 46 3 0 -1 -11 -7 -25z m82 4 c0 -6 8 -8 19 -4 11 3 23 0 27 -6
4 -7 3 -9 -4 -5 -6 3 -13 2 -17 -4 -10 -16 -34 -11 -45 10 -9 16 -8 20 5 20 8
0 15 -5 15 -11z m761 -18 c-12 -8 -51 -4 -51 5 0 2 15 4 33 4 22 0 28 -3 18
-9z m-628 -21 c-3 -11 -7 -20 -9 -20 -2 0 -4 9 -4 20 0 11 4 20 9 20 5 0 7 -9
4 -20z m177 -4 c0 -14 -4 -28 -10 -31 -5 -3 -10 -19 -10 -36 0 -19 -5 -29 -14
-29 -22 0 -28 17 -10 24 9 3 14 13 10 21 -3 8 -1 17 4 20 6 4 10 17 10 31 0
13 5 24 10 24 6 0 10 -11 10 -24z m-240 -8 c0 -13 -23 -5 -28 10 -2 7 2 10 12
6 9 -3 16 -11 16 -16z m755 -17 c3 -17 -1 -21 -20 -21 -13 0 -26 -4 -29 -9 -8
-12 -46 -21 -46 -10 0 5 7 9 15 9 8 0 18 12 21 26 5 19 12 24 25 21 11 -3 19
0 19 6 0 17 10 2 15 -22z m-85 9 c-36 -12 -62 -12 -55 0 3 6 23 10 43 9 33 -1
34 -2 12 -9z m-666 -32 c8 -31 7 -38 -3 -38 -5 0 -11 8 -15 18 -3 9 -9 23 -12
30 -3 6 1 12 9 12 8 0 17 -10 21 -22z m50 -34 c17 -7 10 -34 -10 -34 -7 0 -18
-8 -24 -17 -8 -14 -9 -12 -4 12 10 47 12 49 38 39z m46 -43 c0 -14 -18 -23
-30 -16 -6 4 -8 11 -5 16 8 12 35 12 35 0z m50 -11 c0 -5 -5 -10 -11 -10 -5 0
-7 5 -4 10 3 6 8 10 11 10 2 0 4 -4 4 -10z m60 -40 c-23 -20 -30 -24 -30 -15
0 8 44 45 48 40 3 -3 -5 -14 -18 -25z m600 -94 c0 -3 -4 -8 -10 -11 -5 -3 -10
-1 -10 4 0 6 5 11 10 11 6 0 10 -2 10 -4z m-320 -60 c0 -3 -4 -8 -10 -11 -5
-3 -10 -1 -10 4 0 6 5 11 10 11 6 0 10 -2 10 -4z m166 -46 c8 0 14 -7 14 -15
0 -13 -4 -14 -20 -5 -11 6 -20 18 -19 28 0 10 3 12 6 5 2 -7 11 -13 19 -13z
m-66 -160 c0 -5 -5 -10 -11 -10 -5 0 -7 5 -4 10 3 6 8 10 11 10 2 0 4 -4 4
-10z m43 -17 c-7 -2 -19 -2 -25 0 -7 3 -2 5 12 5 14 0 19 -2 13 -5z m45 -35
c19 -19 14 -30 -10 -22 -29 8 -31 10 -23 23 8 14 18 14 33 -1z m-134 -11 c16
-12 16 -14 -9 -25 -15 -7 -30 -10 -35 -7 -5 3 -10 2 -13 -2 -2 -5 -2 -2 -1 5
2 6 0 12 -5 12 -11 0 -56 -50 -45 -50 5 -1 -5 -9 -22 -18 -111 -61 -134 -71
-134 -62 0 5 5 10 10 10 6 0 10 7 10 16 0 11 5 14 16 10 9 -3 25 1 37 10 16
12 17 15 5 11 -29 -10 -20 6 14 28 124 77 143 83 172 62z m-698 -26 c0 -16 -3
-17 -14 -9 -12 10 -7 19 13 28 1 0 1 -9 1 -19z m809 -1 c7 -12 -2 -12 -30 0
-19 8 -19 9 2 9 12 1 25 -3 28 -9z m-585 -26 c-43 -15 -83 -18 -75 -4 8 14 66
28 90 22 16 -5 13 -8 -15 -18z m-50 -102 c0 -5 -7 -9 -15 -9 -8 0 -15 4 -15 9
0 4 7 8 15 8 8 0 15 -4 15 -8z m-90 -16 c0 -2 -7 -7 -16 -10 -8 -3 -12 -2 -9
4 6 10 25 14 25 6z m520 -36 c0 -5 -4 -10 -10 -10 -5 0 -10 5 -10 10 0 6 5 10
10 10 6 0 10 -4 10 -10z m-223 -6 c-3 -3 -12 -4 -19 -1 -8 3 -5 6 6 6 11 1 17
-2 13 -5z m138 -24 c-3 -5 0 -10 7 -10 8 0 6 -5 -5 -11 -28 -17 -67 -55 -67
-68 0 -6 -9 -11 -21 -11 -11 0 -17 5 -14 10 3 6 -1 10 -9 10 -20 0 -20 17 -1
36 9 9 15 11 15 4 0 -6 19 2 43 19 43 31 63 39 52 21z m73 -40 c-7 -10 -14
-17 -17 -15 -4 4 18 35 25 35 2 0 -1 -9 -8 -20z m-358 -35 c0 -16 -6 -25 -15
-25 -18 0 -20 21 -3 38 17 17 18 16 18 -13z m128 11 c-10 -7 -18 -18 -18 -24
0 -5 -7 -12 -15 -16 -8 -3 -15 -1 -15 4 0 9 48 50 59 50 3 0 -2 -7 -11 -14z
m359 -24 c-19 -21 -13 -34 11 -25 21 9 7 -14 -17 -27 -15 -7 -20 -5 -24 10 -5
20 30 76 41 66 3 -3 -2 -14 -11 -24z m-107 -46 c0 -3 -4 -8 -10 -11 -5 -3 -10
-1 -10 4 0 6 5 11 10 11 6 0 10 -2 10 -4z m-350 -16 c0 -5 -5 -10 -11 -10 -5
0 -7 5 -4 10 3 6 8 10 11 10 2 0 4 -4 4 -10z m288 -43 c-7 -6 -34 -23 -60 -36
-28 -14 -45 -28 -42 -36 4 -8 -7 -14 -32 -17 l-37 -4 27 23 c15 13 25 23 21
23 -3 0 9 13 27 30 24 22 43 29 71 30 31 0 36 -2 25 -13z m-128 -8 c0 -6 -25
-19 -36 -19 -2 0 -4 6 -4 13 0 7 9 13 20 13 11 0 20 -3 20 -7z m70 -53 c0 -3
-4 -8 -10 -11 -5 -3 -10 -1 -10 4 0 6 5 11 10 11 6 0 10 -2 10 -4z m73 -124
c-11 -7 -19 -9 -21 -3 -2 5 -10 7 -19 4 -11 -4 -14 -2 -9 5 4 6 20 10 36 9 27
-2 29 -3 13 -15z m-58 -24 c-11 -6 -30 -20 -42 -31 -13 -11 -26 -17 -30 -12
-5 4 -2 10 5 12 6 3 9 9 6 15 -9 14 8 23 48 25 29 2 31 1 13 -9z m0 -57 c-3
-5 5 -11 17 -13 12 -2 24 -9 26 -17 3 -10 0 -12 -12 -8 -10 4 -16 1 -16 -8 0
-9 -6 -12 -15 -9 -8 4 -21 2 -28 -4 -6 -5 -34 -12 -60 -15 -47 -5 -49 -4 -44
19 2 13 0 24 -5 24 -5 0 -6 5 -2 12 6 9 9 9 12 0 2 -8 8 -9 15 -4 21 16 56 21
51 7 -4 -9 3 -11 20 -8 14 3 26 12 26 19 0 8 5 14 11 14 5 0 8 -4 4 -9z m-185
-76 c0 -8 7 -15 15 -15 18 0 20 -17 3 -23 -20 -6 -69 14 -65 27 2 6 11 10 20
10 9 -1 14 2 11 7 -3 5 0 9 5 9 6 0 11 -7 11 -15z m-365 -63 c-3 -3 -11 0 -18
7 -9 10 -8 11 6 5 10 -3 15 -9 12 -12z m425 -5 c11 3 20 0 20 -6 0 -5 -7 -8
-15 -5 -10 4 -15 0 -15 -11 0 -14 -3 -15 -15 -5 -8 7 -13 15 -11 19 3 4 -5 8
-17 8 -21 2 -21 1 3 -17 14 -10 22 -22 18 -26 -12 -11 -58 5 -58 21 0 8 -1 18
-2 22 -5 14 57 20 64 7 5 -7 17 -10 28 -7z m60 19 c0 -3 -4 -8 -10 -11 -5 -3
-10 -1 -10 4 0 6 5 11 10 11 6 0 10 -2 10 -4z m-160 -44 c0 -10 -5 -10 -20 -2
-11 6 -20 17 -20 25 0 13 3 13 20 3 11 -7 20 -19 20 -26z m-140 -12 c0 -5 -7
-10 -16 -10 -8 0 -12 5 -9 10 3 6 10 10 16 10 5 0 9 -4 9 -10z m50 -21 c0 -17
-3 -18 -20 -9 -20 11 -25 22 -14 33 11 11 34 -5 34 -24z m-163 15 c-3 -3 -12
-4 -19 -1 -8 3 -5 6 6 6 11 1 17 -2 13 -5z m73 -4 c0 -5 -5 -10 -11 -10 -5 0
-7 5 -4 10 3 6 8 10 11 10 2 0 4 -4 4 -10z"/>
<path d="M2290 1130 c0 -5 5 -10 10 -10 6 0 10 5 10 10 0 6 -4 10 -10 10 -5 0
-10 -4 -10 -10z"/>
<path d="M1720 3930 c-9 -6 -10 -10 -3 -10 6 0 15 5 18 10 8 12 4 12 -15 0z"/>
<path d="M1880 3890 c-9 -6 -10 -10 -3 -10 6 0 15 5 18 10 8 12 4 12 -15 0z"/>
<path d="M1840 3859 c0 -5 5 -7 10 -4 6 3 10 8 10 11 0 2 -4 4 -10 4 -5 0 -10
-5 -10 -11z"/>
<path d="M1660 3850 c-8 -5 -12 -12 -8 -15 10 -10 49 5 43 16 -8 11 -16 11
-35 -1z"/>
<path d="M1485 3760 c-10 -11 -14 -20 -9 -20 5 0 15 9 22 20 7 11 11 20 9 20
-2 0 -12 -9 -22 -20z"/>
<path d="M1530 3755 c-19 -23 -8 -26 20 -5 19 15 21 20 9 20 -9 0 -22 -7 -29
-15z"/>
<path d="M1630 3736 c0 -9 -6 -16 -14 -16 -8 0 -17 -11 -20 -25 -4 -14 -22
-35 -41 -48 -41 -26 -45 -54 -9 -67 32 -12 37 -12 29 0 -3 5 3 18 15 30 25 25
39 27 16 2 -15 -18 -15 -20 4 -37 20 -19 21 -18 57 17 23 24 33 40 27 49 -4 7
-9 23 -10 35 -3 27 -54 85 -54 60z m0 -36 c0 -5 -5 -10 -11 -10 -5 0 -7 5 -4
10 3 6 8 10 11 10 2 0 4 -4 4 -10z"/>
<path d="M1458 3688 c-40 -21 -43 -25 -30 -45 6 -9 19 -1 47 27 43 44 39 49
-17 18z"/>
<path d="M1723 3664 c0 -8 6 -14 14 -14 7 0 13 4 13 9 0 5 -6 11 -13 14 -8 3
-14 -1 -14 -9z"/>
<path d="M1920 3550 c0 -4 6 -13 14 -20 12 -9 15 -8 13 8 -1 17 -27 28 -27 12z"/>
<path d="M1480 3541 c0 -6 4 -12 8 -15 5 -3 9 1 9 9 0 8 -4 15 -9 15 -4 0 -8
-4 -8 -9z"/>
<path d="M1874 3536 c-3 -9 -12 -16 -20 -16 -19 0 -18 -16 1 -24 9 -3 15 0 15
9 0 9 9 15 21 15 11 0 19 5 17 12 -7 19 -27 21 -34 4z"/>
<path d="M1985 3530 c3 -5 8 -10 11 -10 2 0 4 5 4 10 0 6 -5 10 -11 10 -5 0
-7 -4 -4 -10z"/>
<path d="M1470 3469 c0 -5 5 -7 10 -4 6 3 10 8 10 11 0 2 -4 4 -10 4 -5 0 -10
-5 -10 -11z"/>
<path d="M1500 3465 c-7 -9 -10 -18 -7 -21 3 -3 10 4 17 15 13 25 8 27 -10 6z"/>
<path d="M1681 3464 c0 -11 3 -14 6 -6 3 7 2 16 -1 19 -3 4 -6 -2 -5 -13z"/>
<path d="M1585 3451 c3 -5 -3 -12 -14 -16 -18 -5 -36 -33 -28 -42 9 -8 55 16
61 32 7 19 0 35 -15 35 -6 0 -8 -4 -4 -9z"/>
<path d="M1516 3433 c-6 -14 -5 -15 5 -6 7 7 10 15 7 18 -3 3 -9 -2 -12 -12z"/>
<path d="M1380 3420 c-8 -5 -12 -12 -9 -15 4 -3 12 1 19 10 14 17 11 19 -10 5z"/>
<path d="M1462 3408 c-16 -16 -15 -48 2 -48 16 0 29 41 18 52 -5 5 -13 3 -20
-4z"/>
<path d="M1790 3410 c0 -5 -8 -7 -17 -3 -11 3 -7 -6 12 -24 33 -32 42 -34 30
-6 -5 10 -7 24 -6 31 1 6 -3 12 -9 12 -5 0 -10 -4 -10 -10z"/>
<path d="M1717 3404 c-8 -8 1 -24 14 -24 5 0 9 7 9 15 0 15 -12 20 -23 9z"/>
<path d="M1825 3389 c7 -11 35 -12 35 -1 0 4 -9 8 -20 9 -11 1 -18 -2 -15 -8z"/>
<path d="M2020 3360 c0 -5 5 -10 10 -10 6 0 10 5 10 10 0 6 -4 10 -10 10 -5 0
-10 -4 -10 -10z"/>
<path d="M1865 3351 c-3 -5 -2 -12 3 -15 5 -3 9 1 9 9 0 17 -3 19 -12 6z"/>
<path d="M1895 3349 c-4 -6 -5 -12 -2 -15 2 -3 7 2 10 11 7 17 1 20 -8 4z"/>
<path d="M1937 3339 c7 -7 15 -10 18 -7 3 3 -2 9 -12 12 -14 6 -15 5 -6 -5z"/>
<path d="M1535 3330 c-3 -5 -1 -10 4 -10 6 0 11 5 11 10 0 6 -2 10 -4 10 -3 0
-8 -4 -11 -10z"/>
<path d="M1808 3323 c-16 -18 -14 -43 3 -43 6 0 9 6 8 13 -3 25 2 36 19 40 14
4 14 5 1 6 -9 0 -23 -7 -31 -16z"/>
<path d="M1137 3315 c-23 -17 -58 -81 -50 -89 4 -3 1 -6 -6 -6 -7 0 -10 -4 -7
-9 4 -5 0 -12 -6 -14 -9 -4 -8 -6 2 -6 9 -1 22 5 29 12 11 10 13 8 8 -8 -2
-11 -8 -28 -12 -38 -6 -13 -3 -16 9 -11 9 3 18 18 21 33 3 14 10 44 15 66 16
62 21 85 18 85 -2 0 -11 -7 -21 -15z m-17 -70 c0 -8 -7 -15 -16 -15 -14 0 -14
3 -4 15 7 8 14 15 16 15 2 0 4 -7 4 -15z"/>
<path d="M1750 3315 c0 -8 4 -15 8 -15 5 0 9 7 9 15 0 8 -4 15 -9 15 -4 0 -8
-7 -8 -15z"/>
<path d="M1900 3318 c-21 -9 -22 -12 -7 -15 9 -3 17 -9 17 -14 0 -16 35 -10
47 9 9 15 8 19 -3 19 -8 0 -14 -4 -14 -9 0 -4 -4 -8 -10 -8 -5 0 -7 7 -4 15 7
17 7 17 -26 3z"/>
<path d="M1545 3301 c-6 -11 13 -26 22 -17 4 3 1 6 -6 6 -7 0 -9 5 -6 10 3 6
4 10 1 10 -3 0 -7 -4 -11 -9z"/>
<path d="M1495 3290 c-4 -6 -12 -7 -18 -3 -8 5 -8 2 0 -9 10 -12 10 -25 -2
-64 -19 -62 -19 -63 5 -57 11 3 18 9 15 13 -3 4 4 10 16 13 19 5 20 7 4 36
-10 20 -11 30 -4 29 6 -2 14 3 17 11 3 9 0 11 -8 6 -9 -5 -10 -2 -5 14 6 21
-8 30 -20 11z"/>
<path d="M2008 3293 c7 -3 16 -2 19 1 4 3 -2 6 -13 5 -11 0 -14 -3 -6 -6z"/>
<path d="M1671 3276 c-7 -8 -21 -12 -31 -9 -13 4 -20 0 -20 -9 0 -22 48 -11
61 13 11 22 6 25 -10 5z"/>
<path d="M1433 3223 c-15 -16 -18 -23 -8 -23 7 0 15 -8 17 -17 2 -11 8 -3 15
20 13 45 6 51 -24 20z"/>
<path d="M1302 3211 c-8 -5 -5 -12 8 -24 23 -20 30 -21 30 -6 0 17 -26 38 -38
30z"/>
<path d="M1233 3176 c-13 -6 -23 -17 -23 -24 0 -9 5 -10 19 -2 20 10 36 29 30
34 -2 1 -14 -3 -26 -8z"/>
<path d="M1275 3170 c-3 -5 -1 -10 4 -10 6 0 11 5 11 10 0 6 -2 10 -4 10 -3 0
-8 -4 -11 -10z"/>
<path d="M1375 3159 c-4 -6 -5 -12 -2 -15 2 -3 7 2 10 11 7 17 1 20 -8 4z"/>
<path d="M1126 3131 c-7 -11 22 -23 35 -15 5 3 9 0 9 -6 0 -7 6 -5 15 4 8 8
15 18 15 22 0 3 -7 1 -15 -6 -10 -9 -15 -9 -15 -1 0 13 -36 15 -44 2z"/>
<path d="M1416 3105 c-9 -14 -14 -25 -10 -25 3 0 -4 -9 -17 -19 -23 -19 -23
-20 -5 -27 14 -5 24 -1 36 14 10 12 21 18 24 14 4 -3 4 2 0 12 -5 12 -2 22 10
28 9 5 14 13 11 19 -11 16 -32 10 -49 -16z"/>
<path d="M1067 3081 c3 -12 9 -21 14 -21 14 0 11 16 -5 29 -12 10 -13 8 -9 -8z"/>
<path d="M1523 3065 c-10 -10 -9 -16 1 -24 11 -9 14 -6 14 14 0 14 -1 25 -2
25 0 -1 -6 -7 -13 -15z"/>
<path d="M1561 3061 c-7 -5 -12 -14 -10 -20 3 -7 11 -3 21 9 18 21 13 26 -11
11z"/>
<path d="M1190 3040 c-13 -8 -13 -10 2 -10 9 0 20 5 23 10 8 13 -5 13 -25 0z"/>
<path d="M1060 3021 c0 -5 -3 -18 -7 -28 -6 -17 -6 -17 10 -1 19 18 22 38 7
38 -5 0 -10 -4 -10 -9z"/>
<path d="M1110 2981 c0 -5 5 -13 10 -16 6 -3 10 -2 10 4 0 5 -4 13 -10 16 -5
3 -10 2 -10 -4z"/>
<path d="M1495 2970 c3 -5 8 -10 11 -10 2 0 4 5 4 10 0 6 -5 10 -11 10 -5 0
-7 -4 -4 -10z"/>
<path d="M1760 2962 c0 -12 19 -26 26 -19 2 2 -2 10 -11 17 -9 8 -15 8 -15 2z"/>
<path d="M1702 2945 c-8 -10 -22 -12 -42 -8 -23 4 -30 2 -30 -9 0 -10 17 -20
45 -28 25 -7 45 -19 45 -26 0 -8 10 -4 26 11 l26 25 -23 25 c-28 29 -30 29
-47 10z"/>
<path d="M1600 2936 c0 -9 5 -16 10 -16 6 0 10 4 10 9 0 6 -4 13 -10 16 -5 3
-10 -1 -10 -9z"/>
<path d="M1987 2932 c-43 -48 -3 -122 49 -90 5 4 16 3 24 -3 22 -13 30 -11 30
7 0 8 -4 13 -8 10 -5 -3 -22 3 -39 14 -29 18 -39 47 -20 61 5 3 2 9 -6 12 -8
3 -22 -2 -30 -11z m43 -72 c0 -5 -4 -10 -10 -10 -5 0 -10 5 -10 10 0 6 5 10
10 10 6 0 10 -4 10 -10z"/>
<path d="M2400 2909 c0 -5 9 -9 20 -9 10 0 24 -9 30 -20 6 -11 16 -20 22 -20
17 0 -30 47 -53 53 -10 3 -19 1 -19 -4z"/>
<path d="M1570 2890 c0 -5 5 -10 10 -10 6 0 10 5 10 10 0 6 -4 10 -10 10 -5 0
-10 -4 -10 -10z"/>
<path d="M1231 2874 c0 -11 3 -14 6 -6 3 7 2 16 -1 19 -3 4 -6 -2 -5 -13z"/>
<path d="M1542 2873 c2 -10 11 -19 21 -21 16 -3 17 -1 5 17 -16 25 -31 27 -26
4z"/>
<path d="M1393 2869 c14 -8 22 -8 30 0 8 8 3 11 -18 11 -26 -1 -28 -2 -12 -11z"/>
<path d="M1773 2853 c7 -15 13 -19 17 -12 6 8 9 8 14 0 4 -6 11 -11 17 -11 18
0 -15 38 -37 43 -20 3 -21 2 -11 -20z"/>
<path d="M1901 2856 c2 -2 18 -6 34 -10 22 -5 26 -4 15 4 -14 9 -59 15 -49 6z"/>
<path d="M2120 2851 c0 -5 9 -11 21 -14 16 -4 18 -3 8 9 -13 16 -29 19 -29 5z"/>
<path d="M2195 2851 c-3 -6 4 -15 15 -21 20 -11 21 -10 10 9 -12 23 -16 25
-25 12z"/>
<path d="M1215 2830 c-4 -7 0 -19 9 -28 13 -14 16 -14 16 -2 0 25 -16 44 -25
30z"/>
<path d="M1743 2833 c4 -6 2 -13 -5 -15 -7 -3 -2 -7 10 -10 26 -7 29 4 5 23
-9 8 -14 9 -10 2z"/>
<path d="M1053 2819 c3 -9 1 -21 -5 -27 -6 -6 -6 -12 0 -16 14 -8 22 29 10 45
-8 11 -9 11 -5 -2z"/>
<path d="M2088 2808 c6 -6 8 -17 5 -24 -3 -9 2 -15 13 -16 11 -1 30 -2 44 -3
14 -2 27 -3 30 -4 3 -1 20 -4 38 -7 36 -4 41 5 14 29 -19 18 -34 22 -29 10 2
-8 -6 -13 -24 -13 -5 0 -7 5 -4 10 4 6 3 10 -2 9 -19 -3 -27 2 -15 10 8 5 -5
8 -34 9 -32 0 -43 -3 -36 -10z"/>
<path d="M2030 2800 c0 -5 5 -10 11 -10 5 0 7 5 4 10 -3 6 -8 10 -11 10 -2 0
-4 -4 -4 -10z"/>
<path d="M1836 2775 c4 -8 10 -15 15 -15 5 0 9 7 9 15 0 8 -7 15 -15 15 -9 0
-12 -6 -9 -15z"/>
<path d="M1110 2763 c0 -6 -3 -20 -6 -30 -7 -17 -6 -17 12 -1 14 14 16 21 6
30 -8 8 -12 9 -12 1z"/>
<path d="M1890 2734 c0 -19 4 -25 15 -20 8 3 15 1 15 -4 0 -5 7 -7 15 -4 23 9
18 22 -15 39 -30 15 -30 15 -30 -11z"/>
<path d="M1956 2751 c-3 -4 1 -17 9 -27 8 -10 15 -14 15 -7 0 6 3 18 6 27 6
17 -20 23 -30 7z"/>
<path d="M1510 2730 c0 -5 5 -10 11 -10 5 0 7 5 4 10 -3 6 -8 10 -11 10 -2 0
-4 -4 -4 -10z"/>
<path d="M1048 2725 c-4 -4 -4 -14 -1 -23 5 -11 3 -13 -7 -7 -9 5 -11 4 -6 -3
4 -7 13 -12 19 -12 18 0 39 -39 32 -59 -7 -24 20 -48 29 -25 3 9 3 21 -1 26
-3 7 -1 8 5 4 7 -4 12 -2 12 4 0 7 -9 14 -20 17 -11 3 -18 9 -15 13 3 5 1 19
-4 32 -6 12 -10 17 -10 11 -1 -21 -19 -15 -23 8 -2 11 -6 18 -10 14z"/>
<path d="M2417 2717 c-2 -7 -1 -19 4 -28 12 -24 -5 -44 -21 -24 -18 21 -25 19
-25 -9 0 -15 5 -22 13 -19 6 3 12 0 12 -7 0 -7 7 -10 17 -6 9 4 20 1 25 -6 6
-10 8 -9 8 4 0 9 -4 19 -9 23 -14 8 -9 45 6 45 19 0 16 13 -6 27 -15 10 -21
10 -24 0z"/>
<path d="M1145 2700 c3 -5 8 -10 11 -10 2 0 4 5 4 10 0 6 -5 10 -11 10 -5 0
-7 -4 -4 -10z"/>
<path d="M1180 2700 c0 -5 5 -10 11 -10 5 0 7 5 4 10 -3 6 -8 10 -11 10 -2 0
-4 -4 -4 -10z"/>
<path d="M1894 2685 c22 -17 40 -20 32 -6 -3 5 -16 11 -28 14 -22 6 -22 5 -4
-8z"/>
<path d="M1238 2653 c13 -10 24 -29 25 -41 1 -20 3 -21 17 -6 13 14 13 17 -5
30 -11 9 -29 20 -40 25 -16 8 -15 7 3 -8z"/>
<path d="M2630 2630 c0 -5 5 -10 11 -10 5 0 7 5 4 10 -3 6 -8 10 -11 10 -2 0
-4 -4 -4 -10z"/>
<path d="M1050 2559 c0 -5 5 -7 10 -4 6 3 10 8 10 11 0 2 -4 4 -10 4 -5 0 -10
-5 -10 -11z"/>
<path d="M1349 2540 c0 -3 -2 -15 -5 -28 -4 -22 -3 -22 12 -7 13 12 14 19 5
28 -6 6 -11 9 -12 7z"/>
<path d="M1305 2520 c-3 -5 1 -10 9 -10 9 0 16 5 16 10 0 6 -4 10 -9 10 -6 0
-13 -4 -16 -10z"/>
<path d="M1370 2486 c-17 -34 -16 -56 2 -56 6 0 8 7 4 15 -3 8 -2 15 2 15 4 0
8 14 9 30 1 17 1 30 0 30 -1 -1 -9 -16 -17 -34z"/>
<path d="M1467 2503 c-10 -9 -9 -23 2 -23 5 0 11 7 15 15 5 15 -5 20 -17 8z"/>
<path d="M1127 2493 c-10 -9 -9 -63 1 -63 4 0 8 16 8 35 0 38 0 38 -9 28z"/>
<path d="M1293 2470 c-17 -26 -16 -45 2 -60 13 -11 14 -10 9 5 -4 10 -1 20 6
25 10 6 11 14 4 29 -9 21 -9 21 -21 1z"/>
<path d="M1419 2473 c-13 -16 -12 -17 4 -4 9 7 17 15 17 17 0 8 -8 3 -21 -13z"/>
<path d="M1907 2454 c-3 -3 1 -13 9 -21 8 -9 18 -12 21 -9 4 4 0 13 -8 21 -8
9 -18 13 -22 9z"/>
<path d="M823 2385 c0 -27 2 -38 4 -22 2 15 2 37 0 50 -2 12 -4 0 -4 -28z"/>
<path d="M1907 2356 c-20 -10 -34 -22 -32 -26 2 -4 -2 -16 -10 -26 -12 -15
-16 -16 -24 -5 -7 11 -11 10 -20 -5 -6 -11 -11 -13 -11 -6 0 15 -30 16 -30 1
0 -5 5 -7 12 -3 7 5 9 0 6 -14 -3 -12 -1 -24 6 -27 6 -3 -3 -3 -21 0 -32 4
-54 -9 -31 -19 9 -3 8 -8 -4 -16 -22 -13 -24 -40 -3 -40 8 0 15 5 15 10 0 6 4
9 9 8 5 -2 20 9 34 24 14 15 28 24 31 21 3 -4 6 6 6 20 0 24 2 26 20 15 14 -9
16 -15 7 -21 -8 -5 -5 -7 8 -5 14 3 19 10 17 23 -3 15 -1 17 8 9 9 -9 9 -17 1
-33 -10 -18 -9 -21 7 -21 10 0 27 9 37 20 10 11 26 20 36 20 35 0 26 54 -16
95 -21 20 -21 20 -58 1z m23 -46 c13 -8 13 -10 -2 -10 -9 0 -20 5 -23 10 -8
13 5 13 25 0z m61 -17 c13 -16 12 -17 -3 -4 -10 7 -18 15 -18 17 0 8 8 3 21
-13z"/>
<path d="M1397 2340 c-3 -11 -2 -20 3 -20 12 0 31 26 23 33 -11 12 -21 7 -26
-13z"/>
<path d="M832 2285 c0 -16 2 -22 5 -12 2 9 2 23 0 30 -3 6 -5 -1 -5 -18z"/>
<path d="M2038 2268 c9 -9 15 -9 24 0 9 9 7 12 -12 12 -19 0 -21 -3 -12 -12z"/>
<path d="M842 2215 c0 -16 2 -22 5 -12 2 9 2 23 0 30 -3 6 -5 -1 -5 -18z"/>
<path d="M1713 2223 c-18 -7 -16 -23 2 -23 8 0 15 7 15 15 0 8 -1 15 -2 14 -2
0 -9 -3 -15 -6z"/>
<path d="M1962 2221 c-11 -7 -10 -10 3 -15 20 -7 65 3 65 15 0 11 -51 11 -68
0z"/>
<path d="M2060 2210 c0 -5 6 -10 14 -10 8 0 18 5 21 10 3 6 -3 10 -14 10 -12
0 -21 -4 -21 -10z"/>
<path d="M1825 2200 c-8 -13 4 -32 16 -25 12 8 12 35 0 35 -6 0 -13 -4 -16
-10z"/>
<path d="M1111 2174 c0 -11 3 -14 6 -6 3 7 2 16 -1 19 -3 4 -6 -2 -5 -13z"/>
<path d="M852 2160 c0 -14 2 -19 5 -12 2 6 2 18 0 25 -3 6 -5 1 -5 -13z"/>
<path d="M1800 2155 c0 -8 2 -15 4 -15 2 0 6 7 10 15 3 8 1 15 -4 15 -6 0 -10
-7 -10 -15z"/>
<path d="M2070 2160 c0 -5 5 -10 11 -10 5 0 7 5 4 10 -3 6 -8 10 -11 10 -2 0
-4 -4 -4 -10z"/>
<path d="M1744 2129 c0 -10 4 -19 8 -19 4 0 8 6 8 14 0 8 -4 17 -8 20 -4 2 -8
-4 -8 -15z"/>
<path d="M1086 2124 c-4 -12 -1 -14 14 -9 21 7 28 -9 10 -20 -8 -5 -8 -11 -1
-19 6 -7 8 -16 4 -19 -10 -10 18 -37 38 -37 10 0 30 -12 44 -27 l26 -28 -3 35
c-2 28 -7 34 -22 32 -21 -4 -66 34 -66 55 0 8 5 11 10 8 14 -9 12 7 -4 28 -16
21 -42 22 -50 1z"/>
<path d="M1560 2135 c0 -5 5 -17 10 -25 5 -8 10 -10 10 -5 0 6 -5 17 -10 25
-5 8 -10 11 -10 5z"/>
<path d="M1834 2091 c13 -14 23 -18 30 -11 12 12 8 15 -24 25 -25 8 -25 8 -6
-14z"/>
<path d="M2283 2096 c4 -9 3 -15 -2 -11 -11 6 -41 -4 -41 -14 0 -12 93 -6 115
7 21 12 18 14 -25 16 -14 1 -31 6 -39 10 -11 7 -13 5 -8 -8z"/>
<path d="M2455 2100 c-3 -6 1 -7 9 -4 18 7 21 14 7 14 -6 0 -13 -4 -16 -10z"/>
<path d="M2198 2085 c-3 -3 -20 -7 -39 -9 -34 -4 -36 -7 -24 -39 6 -14 4 -16
-11 -10 -17 6 -17 5 -5 -10 19 -24 36 -21 63 12 13 15 29 30 35 32 7 3 7 8 -2
16 -7 6 -15 10 -17 8z m-37 -68 c-10 -9 -11 -8 -5 6 3 10 9 15 12 12 3 -3 0
-11 -7 -18z"/>
<path d="M871 2064 c0 -11 3 -14 6 -6 3 7 2 16 -1 19 -3 4 -6 -2 -5 -13z"/>
<path d="M2010 2070 c13 -9 13 -11 0 -19 -8 -6 -12 -13 -8 -16 7 -7 38 22 38
36 0 5 -10 9 -22 9 -19 0 -20 -2 -8 -10z"/>
<path d="M1662 2053 c4 -24 24 -27 24 -3 0 11 -6 20 -14 20 -7 0 -12 -8 -10
-17z"/>
<path d="M2052 2062 c-19 -13 -4 -41 19 -35 21 6 21 6 13 27 -7 18 -13 19 -32
8z"/>
<path d="M1720 2019 c0 -5 7 -9 15 -9 8 0 15 -5 15 -11 0 -5 5 -7 10 -4 6 4 8
10 5 14 -7 13 -45 21 -45 10z"/>
<path d="M2080 2000 c0 -5 5 -10 11 -10 5 0 7 5 4 10 -3 6 -8 10 -11 10 -2 0
-4 -4 -4 -10z"/>
<path d="M1420 1990 c0 -13 29 -45 30 -32 0 6 10 12 22 12 18 0 19 3 10 13
-13 12 -62 18 -62 7z"/>
<path d="M1825 1980 c-8 -13 5 -13 25 0 13 8 13 10 -2 10 -9 0 -20 -4 -23 -10z"/>
<path d="M1340 1931 c0 -5 7 -14 15 -21 12 -10 15 -10 15 1 0 7 10 3 25 -11
14 -13 25 -19 25 -12 0 12 -52 52 -69 52 -6 0 -11 -4 -11 -9z"/>
<path d="M1190 1921 c0 -5 5 -13 10 -16 6 -3 10 -2 10 4 0 5 -4 13 -10 16 -5
3 -10 2 -10 -4z"/>
<path d="M1097 1912 c-15 -7 -14 -11 12 -40 17 -17 37 -42 45 -54 14 -19 18
-20 40 -8 14 7 23 18 19 23 -3 6 -12 2 -20 -8 -7 -11 -14 -15 -14 -9 -1 5 -3
23 -6 39 -3 17 -5 38 -6 47 -1 16 -3 16 -22 -2 -23 -22 -42 -16 -24 7 12 14 4
16 -24 5z"/>
<path d="M1430 1916 c0 -2 7 -9 15 -16 9 -7 15 -8 15 -2 0 5 -7 12 -15 16 -8
3 -15 4 -15 2z"/>
<path d="M1610 1909 c0 -5 5 -7 10 -4 6 3 10 8 10 11 0 2 -4 4 -10 4 -5 0 -10
-5 -10 -11z"/>
<path d="M1283 1896 c4 -11 1 -13 -11 -9 -15 6 -14 3 2 -15 26 -30 36 -28 36
8 0 21 -5 30 -16 30 -10 0 -14 -6 -11 -14z"/>
<path d="M1575 1901 c-3 -5 -1 -12 5 -16 5 -3 10 1 10 9 0 18 -6 21 -15 7z"/>
<path d="M1780 1900 c0 -5 4 -10 9 -10 6 0 13 5 16 10 3 6 -1 10 -9 10 -9 0
-16 -4 -16 -10z"/>
<path d="M1370 1885 c0 -9 -6 -12 -16 -8 -14 5 -14 2 2 -22 19 -29 19 -29 -1
-21 -11 4 -22 8 -25 9 -16 6 -6 -88 11 -98 5 -4 6 1 3 10 -11 27 42 -3 55 -31
6 -13 17 -24 26 -24 18 0 20 16 3 23 -10 4 -10 7 0 15 7 5 14 19 15 30 1 21
27 32 27 12 0 -5 5 -10 10 -10 6 0 10 7 10 15 0 8 -5 14 -12 13 -7 -2 -17 7
-23 20 -5 12 -16 20 -22 17 -7 -2 -13 2 -13 10 0 8 -4 15 -9 15 -5 0 -13 9
-16 20 -7 23 -25 27 -25 5z"/>
<path d="M1190 1878 c0 -11 29 -37 43 -38 4 0 3 8 -2 19 -12 22 -41 36 -41 19z"/>
<path d="M1735 1819 c-4 -6 -5 -12 -2 -15 2 -3 7 2 10 11 7 17 1 20 -8 4z"/>
<path d="M1790 1811 c0 -5 5 -13 10 -16 6 -3 10 -2 10 4 0 5 -4 13 -10 16 -5
3 -10 2 -10 -4z"/>
<path d="M1149 1788 c-1 -2 -3 -31 -4 -66 -3 -62 -2 -63 20 -58 17 4 27 0 39
-19 9 -13 16 -31 16 -40 0 -8 5 -15 11 -15 11 0 9 30 -6 78 -5 14 -3 22 4 22
6 0 11 -8 11 -17 1 -17 1 -17 11 0 8 13 7 22 -1 31 -6 8 -10 18 -9 22 1 5 -3
20 -9 34 -8 18 -11 20 -11 8 -1 -23 -12 -23 -45 3 -14 11 -27 19 -27 17z"/>
<path d="M1690 1783 c1 -16 39 -53 54 -53 26 0 18 34 -11 48 -31 14 -43 15
-43 5z"/>
<path d="M1770 1782 c0 -15 11 -21 27 -15 12 5 12 7 1 14 -17 11 -28 11 -28 1z"/>
<path d="M1646 1763 c-6 -14 -5 -15 5 -6 7 7 10 15 7 18 -3 3 -9 -2 -12 -12z"/>
<path d="M1460 1728 c-23 -38 -24 -44 -9 -53 6 -4 15 -17 20 -29 8 -19 9 -19
7 -1 -3 22 25 68 35 59 4 -4 9 0 13 9 3 9 12 13 21 10 12 -5 11 -1 -3 15 -27
32 -61 28 -84 -10z"/>
<path d="M1730 1704 c0 -13 30 -34 48 -34 5 0 12 10 14 23 4 19 0 22 -29 23
-21 1 -33 -3 -33 -12z"/>
<path d="M1655 1664 c-17 -13 -18 -16 -5 -24 14 -9 24 -1 20 16 -1 4 4 11 12
15 7 5 9 9 3 9 -5 -1 -19 -7 -30 -16z"/>
<path d="M1589 1636 c-11 -24 -5 -65 8 -53 3 4 12 2 19 -4 8 -6 20 -9 28 -6
20 8 9 49 -20 70 -24 18 -24 17 -35 -7z m51 -32 c0 -8 -4 -12 -10 -9 -5 3 -10
13 -10 21 0 8 5 12 10 9 6 -3 10 -13 10 -21z"/>
<path d="M1707 1639 c-20 -12 -15 -24 16 -40 21 -12 21 -11 5 8 -14 15 -15 22
-6 31 15 15 9 15 -15 1z"/>
<path d="M1445 1620 c-3 -5 -1 -10 4 -10 6 0 11 5 11 10 0 6 -2 10 -4 10 -3 0
-8 -4 -11 -10z"/>
<path d="M1521 1602 c14 -41 34 -58 43 -36 3 8 2 23 -4 32 -5 10 -10 13 -10 8
0 -5 -9 -1 -20 9 -20 18 -20 18 -9 -13z"/>
<path d="M1735 1620 c3 -5 8 -10 11 -10 2 0 4 5 4 10 0 6 -5 10 -11 10 -5 0
-7 -4 -4 -10z"/>
<path d="M1313 1594 l-21 -29 24 -18 c24 -18 24 -18 24 10 0 22 -2 25 -10 13
-5 -8 -10 -10 -10 -4 0 5 5 15 11 21 6 6 9 17 7 24 -3 8 -12 1 -25 -17z"/>
<path d="M1840 1561 c0 -5 -9 -13 -20 -16 -11 -3 -20 -11 -20 -16 0 -6 4 -8 8
-5 5 3 21 -2 36 -10 35 -17 42 -18 28 -1 -6 7 -7 18 -3 26 7 11 11 9 20 -5 11
-18 12 -18 8 1 -2 14 -9 19 -25 18 -14 -2 -21 1 -17 7 3 6 1 10 -4 10 -6 0
-11 -4 -11 -9z"/>
<path d="M1356 1541 c-4 -5 -2 -12 3 -15 5 -4 12 -2 15 3 4 5 2 12 -3 15 -5 4
-12 2 -15 -3z"/>
<path d="M1508 1533 c7 -3 16 -2 19 1 4 3 -2 6 -13 5 -11 0 -14 -3 -6 -6z"/>
<path d="M1600 1503 c0 -11 7 -24 16 -27 9 -4 14 -9 11 -12 -3 -3 6 -16 20
-28 20 -17 23 -25 13 -31 -9 -5 -11 -4 -6 3 4 7 3 12 -2 12 -6 0 -9 -11 -8
-24 0 -13 2 -23 4 -21 2 2 17 -1 33 -5 16 -5 31 -5 34 -1 2 5 17 9 32 9 25 0
26 -1 8 -14 -10 -8 -24 -14 -31 -14 -6 0 -17 -7 -24 -15 -7 -8 -16 -12 -21 -9
-5 3 -9 1 -9 -5 0 -6 9 -15 20 -21 11 -6 20 -18 20 -28 -1 -16 -2 -16 -14 1
-7 9 -22 17 -32 16 -14 0 -15 -2 -4 -6 8 -4 22 -16 32 -27 11 -14 17 -16 18
-7 0 7 6 11 14 8 8 -3 17 1 20 9 3 9 10 13 15 10 13 -8 29 16 26 42 -1 12 2
22 7 22 4 0 8 -5 8 -10 0 -6 7 -10 16 -8 26 5 28 -19 2 -26 -22 -7 -22 -7 -3
-16 29 -13 35 -12 35 5 0 8 4 15 9 15 14 0 23 -37 16 -59 -4 -14 0 -23 15 -31
24 -13 42 -4 20 10 -21 13 -9 20 47 30 26 4 42 8 34 9 -11 1 -10 6 5 22 15 16
16 21 4 19 -8 -1 -22 -2 -30 -1 -13 1 -13 3 0 14 16 13 26 48 13 46 -4 -1 -10
-1 -13 0 -3 1 -19 4 -37 5 l-32 4 14 -29 c8 -15 15 -34 14 -41 0 -7 -10 7 -21
32 -12 25 -21 48 -20 51 1 4 -8 9 -18 12 -16 4 -20 0 -20 -21 l0 -27 -13 25
c-9 17 -21 25 -40 25 -16 0 -33 9 -42 23 -18 25 -11 30 11 7 23 -22 34 -18 21
9 -7 15 -17 21 -30 18 -10 -2 -23 3 -30 12 -14 19 -48 12 -43 -7 1 -7 1 -9 -1
-4 -3 4 -8 5 -13 2 -5 -3 -7 6 -6 19 3 26 -18 43 -30 24 -5 -7 -12 -5 -21 7
-12 18 -13 18 -13 -2z m218 -149 c2 -23 0 -25 -13 -14 -12 10 -13 16 -4 26 15
18 14 18 17 -12z"/>
<path d="M1820 1490 c0 -5 6 -10 14 -10 7 0 16 -9 19 -20 3 -12 13 -20 24 -19
16 1 16 2 1 6 -10 2 -18 11 -18 19 0 8 8 14 18 15 11 1 9 4 -8 9 -36 11 -50
11 -50 0z"/>
<path d="M1580 1473 c0 -6 -3 -18 -6 -27 -3 -9 -1 -16 5 -16 17 0 25 30 12 43
-8 8 -11 8 -11 0z"/>
<path d="M1800 1456 c0 -28 0 -29 20 -11 22 20 27 30 9 19 -6 -3 -15 0 -20 7
-6 10 -9 5 -9 -15z"/>
<path d="M2055 1440 c3 -5 10 -10 16 -10 5 0 9 5 9 10 0 6 -7 10 -16 10 -8 0
-12 -4 -9 -10z"/>
<path d="M1835 1430 c3 -5 8 -10 11 -10 2 0 4 5 4 10 0 6 -5 10 -11 10 -5 0
-7 -4 -4 -10z"/>
<path d="M2100 1430 c0 -5 5 -10 11 -10 5 0 7 5 4 10 -3 6 -8 10 -11 10 -2 0
-4 -4 -4 -10z"/>
<path d="M1910 1399 c0 -5 5 -7 10 -4 6 3 10 8 10 11 0 2 -4 4 -10 4 -5 0 -10
-5 -10 -11z"/>
<path d="M1685 1350 c-3 -5 -1 -10 4 -10 6 0 11 5 11 10 0 6 -2 10 -4 10 -3 0
-8 -4 -11 -10z"/>
<path d="M1596 1334 c-9 -24 -8 -25 14 -12 23 15 26 28 6 28 -8 0 -17 -7 -20
-16z"/>
<path d="M1645 1337 c-4 -10 -5 -21 -1 -24 10 -10 18 4 13 24 -4 17 -4 17 -12
0z"/>
<path d="M2025 1290 c3 -5 8 -10 11 -10 2 0 4 5 4 10 0 6 -5 10 -11 10 -5 0
-7 -4 -4 -10z"/>
<path d="M2062 1277 c-9 -11 -10 -17 -2 -22 15 -9 23 -1 18 21 -3 15 -4 16
-16 1z"/>
<path d="M1720 1224 c0 -8 5 -12 10 -9 6 4 8 11 5 16 -9 14 -15 11 -15 -7z"/>
<path d="M1810 1219 c0 -5 5 -7 10 -4 6 3 10 8 10 11 0 2 -4 4 -10 4 -5 0 -10
-5 -10 -11z"/>
<path d="M1933 1207 c4 -11 1 -20 -8 -23 -23 -9 -18 -26 8 -22 23 3 26 33 5
53 -8 7 -9 5 -5 -8z"/>
<path d="M2061 1194 c0 -11 3 -14 6 -6 3 7 2 16 -1 19 -3 4 -6 -2 -5 -13z"/>
<path d="M1636 1182 c-3 -6 -1 -14 5 -17 14 -9 20 -2 10 14 -6 8 -11 9 -15 3z"/>
<path d="M1670 1177 c8 -8 29 -18 45 -21 26 -6 28 -6 15 7 -8 8 -28 18 -45 21
-26 6 -28 6 -15 -7z"/>
<path d="M1830 1182 c0 -15 22 -30 37 -25 11 4 10 8 -4 19 -21 15 -33 18 -33
6z"/>
<path d="M2140 1180 c0 -5 4 -10 9 -10 6 0 13 5 16 10 3 6 -1 10 -9 10 -9 0
-16 -4 -16 -10z"/>
<path d="M1800 1168 c0 -18 28 -58 41 -58 11 0 -15 55 -31 65 -5 3 -10 0 -10
-7z"/>
<path d="M2065 1160 c-3 -5 3 -10 15 -10 12 0 18 5 15 10 -3 6 -10 10 -15 10
-5 0 -12 -4 -15 -10z"/>
<path d="M1710 1116 c0 -2 7 -9 15 -16 12 -10 15 -10 15 4 0 9 -7 16 -15 16
-8 0 -15 -2 -15 -4z"/>
<path d="M2090 1105 c0 -8 4 -15 9 -15 5 0 11 7 15 15 3 9 0 15 -9 15 -8 0
-15 -7 -15 -15z"/>
</g>
</svg>
